TITLE: GT3001 MASTER LOCK VFX
FCM: FILM
001  Master   V     C        00:58:00:00 00:58:30:00 00:58:00:00 00:58:30:00
* FROM CLIP NAME:  3C-1-A 48 FPS
* FROM FILE: 
* FROM COMMENT: 
002  Master   V     C        00:58:30:00 00:59:30:00 00:58:30:00 00:59:30:00
* FROM CLIP NAME:  3C-1-A 48 FPS
* FROM FILE: 
* FROM COMMENT: 
003  Master   V     C        00:59:30:00 00:59:40:00 00:59:30:00 00:59:40:00
* FROM CLIP NAME:  3C-1-A 48 FPS
* FROM FILE: 
* FROM COMMENT: 
004  Master   V     C        00:59:40:00 00:59:50:00 00:59:40:00 00:59:50:00
* FROM CLIP NAME:  3C-1-A 48 FPS
* FROM FILE: 
* FROM COMMENT: 
005  Master   V     C        00:59:50:00 00:59:58:00 00:59:50:00 00:59:58:00
* FROM CLIP NAME:  3C-1-A 48 FPS
* FROM FILE: 
* FROM COMMENT: 
006  Master   V     C        00:59:58:00 00:59:58:01 00:59:58:00 00:59:58:01
* FROM CLIP NAME:  3C-1-A 48 FPS
* FROM FILE: 
* FROM COMMENT: 
007  Master   V     C        00:59:58:01 01:00:00:00 00:59:58:01 01:00:00:00
* FROM CLIP NAME:  3C-1-A 48 FPS
* FROM FILE: 
* FROM COMMENT: 
008  Master   V     C        01:00:00:00 01:00:00:18 01:00:00:00 01:00:00:18
* FROM CLIP NAME:  3C-1-A 48 FPS
* FROM FILE: 
* FROM COMMENT: 
009  Master   V     C        01:00:00:18 01:00:01:12 01:00:00:18 01:00:01:12
* FROM CLIP NAME:  3C-1-A 48 FPS
* FROM FILE: 
* FROM COMMENT: 
010  Master   V     C        01:00:01:12 01:00:04:04 01:00:01:12 01:00:04:04
* FROM CLIP NAME:  3C-1-A 48 FPS
* FROM FILE: 
* FROM COMMENT: 
011  Master   V     C        01:00:04:04 01:00:04:05 01:00:04:04 01:00:04:05
* FROM CLIP NAME:  3C-1-A 48 FPS
* FROM FILE: 
* FROM COMMENT: 
012  Master   V     C        01:00:04:05 01:00:04:05 01:00:04:05 01:00:04:05
012 Master   V     D    010 01:00:04:05 01:00:04:15 01:00:04:05 01:00:04:15
* FROM CLIP NAME:  3C-1-A 48 FPS
* FROM FILE: 
* FROM COMMENT: 
* TO CLIP NAME:  3C-1-A 48 FPS
* TO FILE: 
* TO COMMENT: 
013  Master   V     C        01:00:04:15 01:00:05:19 01:00:04:15 01:00:05:19
* FROM CLIP NAME:  3C-1-A 48 FPS
* FROM FILE: 
* FROM COMMENT: 
014  Master   V     C        01:00:05:19 01:00:07:08 01:00:05:19 01:00:07:08
* FROM CLIP NAME:  3C-1-A 48 FPS
* FROM FILE: 
* FROM COMMENT: 
015  Master   V     C        01:00:07:08 01:00:08:13 01:00:07:08 01:00:08:13
* FROM CLIP NAME:  3C-1-A 48 FPS
* FROM FILE: 
* FROM COMMENT: 
016  Master   V     C        01:00:08:13 01:00:09:10 01:00:08:13 01:00:09:10
* FROM CLIP NAME:  3C-1-A 48 FPS
* FROM FILE: 
* FROM COMMENT: 
017  Master   V     C        01:00:09:10 01:00:10:22 01:00:09:10 01:00:10:22
* FROM CLIP NAME:  3C-1-A 48 FPS
* FROM FILE: 
* FROM COMMENT: 
018  Master   V     C        01:00:10:22 01:00:12:12 01:00:10:22 01:00:12:12
* FROM CLIP NAME:  3C-1-A 48 FPS
* FROM FILE: 
* FROM COMMENT: 
019  Master   V     C        01:00:12:12 01:00:14:15 01:00:12:12 01:00:14:15
* FROM CLIP NAME:  3C-1-A 48 FPS
* FROM FILE: 
* FROM COMMENT: 
020  Master   V     C        01:00:14:15 01:00:15:11 01:00:14:15 01:00:15:11
* FROM CLIP NAME:  3C-1-A 48 FPS
* FROM FILE: 
* FROM COMMENT: 
021  Master   V     C        01:00:15:11 01:00:16:10 01:00:15:11 01:00:16:10
* FROM CLIP NAME:  3C-1-A 48 FPS
* FROM FILE: 
* FROM COMMENT: 
022  Master   V     C        01:00:16:10 01:00:17:21 01:00:16:10 01:00:17:21
* FROM CLIP NAME:  3C-1-A 48 FPS
* FROM FILE: 
* FROM COMMENT: 
023  Master   V     C        01:00:17:21 01:00:18:16 01:00:17:21 01:00:18:16
* FROM CLIP NAME:  3C-1-A 48 FPS
* FROM FILE: 
* FROM COMMENT: 
024  Master   V     C        01:00:18:16 01:00:19:19 01:00:18:16 01:00:19:19
* FROM CLIP NAME:  3C-1-A 48 FPS
* FROM FILE: 
* FROM COMMENT: 
025  Master   V     C        01:00:19:19 01:00:20:23 01:00:19:19 01:00:20:23
* FROM CLIP NAME:  3C-1-A 48 FPS
* FROM FILE: 
* FROM COMMENT: 
026  Master   V     C        01:00:20:23 01:00:21:21 01:00:20:23 01:00:21:21
* FROM CLIP NAME:  3C-1-A 48 FPS
* FROM FILE: 
* FROM COMMENT: 
027  Master   V     C        01:00:21:21 01:00:23:02 01:00:21:21 01:00:23:02
* FROM CLIP NAME:  3C-1-A 48 FPS
* FROM FILE: 
* FROM COMMENT: 
028  Master   V     C        01:00:23:02 01:00:25:09 01:00:23:02 01:00:25:09
* FROM CLIP NAME:  3C-1-A 48 FPS
* FROM FILE: 
* FROM COMMENT: 
029  Master   V     C        01:00:25:09 01:00:28:15 01:00:25:09 01:00:28:15
* FROM CLIP NAME:  3C-1-A 48 FPS
* FROM FILE: 
* FROM COMMENT: 
030  Master   V     C        01:00:28:15 01:00:30:01 01:00:28:15 01:00:30:01
* FROM CLIP NAME:  3C-1-A 48 FPS
* FROM FILE: 
* FROM COMMENT: 
031  Master   V     C        01:00:30:01 01:00:31:12 01:00:30:01 01:00:31:12
* FROM CLIP NAME:  3C-1-A 48 FPS
* FROM FILE: 
* FROM COMMENT: 
032  Master   V     C        01:00:31:12 01:00:32:21 01:00:31:12 01:00:32:21
* FROM CLIP NAME:  3C-1-A 48 FPS
* FROM FILE: 
* FROM COMMENT: 
033  Master   V     C        01:00:32:21 01:00:34:16 01:00:32:21 01:00:34:16
* FROM CLIP NAME:  3C-1-A 48 FPS
* FROM FILE: 
* FROM COMMENT: 
034  Master   V     C        01:00:34:16 01:00:36:03 01:00:34:16 01:00:36:03
* FROM CLIP NAME:  3C-1-A 48 FPS
* FROM FILE: 
* FROM COMMENT: 
035  Master   V     C        01:00:36:03 01:00:37:12 01:00:36:03 01:00:37:12
* FROM CLIP NAME:  3C-1-A 48 FPS
* FROM FILE: 
* FROM COMMENT: 
036  Master   V     C        01:00:37:12 01:00:38:15 01:00:37:12 01:00:38:15
* FROM CLIP NAME:  3C-1-A 48 FPS
* FROM FILE: 
* FROM COMMENT: 
037  Master   V     C        01:00:38:15 01:00:40:07 01:00:38:15 01:00:40:07
* FROM CLIP NAME:  3C-1-A 48 FPS
* FROM FILE: 
* FROM COMMENT: 
038  Master   V     C        01:00:40:07 01:00:41:16 01:00:40:07 01:00:41:16
* FROM CLIP NAME:  3C-1-A 48 FPS
* FROM FILE: 
* FROM COMMENT: 
039  Master   V     C        01:00:41:16 01:00:43:09 01:00:41:16 01:00:43:09
* FROM CLIP NAME:  3C-1-A 48 FPS
* FROM FILE: 
* FROM COMMENT: 
040  Master   V     C        01:00:43:09 01:00:44:06 01:00:43:09 01:00:44:06
* FROM CLIP NAME:  3C-1-A 48 FPS
* FROM FILE: 
* FROM COMMENT: 
041  Master   V     C        01:00:44:06 01:00:46:00 01:00:44:06 01:00:46:00
* FROM CLIP NAME:  3C-1-A 48 FPS
* FROM FILE: 
* FROM COMMENT: 
042  Master   V     C        01:00:46:00 01:00:47:00 01:00:46:00 01:00:47:00
* FROM CLIP NAME:  3C-1-A 48 FPS
* FROM FILE: 
* FROM COMMENT: 
043  Master   V     C        01:00:47:00 01:00:48:05 01:00:47:00 01:00:48:05
* FROM CLIP NAME:  3C-1-A 48 FPS
* FROM FILE: 
* FROM COMMENT: 
044  Master   V     C        01:00:48:05 01:00:49:12 01:00:48:05 01:00:49:12
* FROM CLIP NAME:  3C-1-A 48 FPS
* FROM FILE: 
* FROM COMMENT: 
045  Master   V     C        01:00:49:12 01:00:50:11 01:00:49:12 01:00:50:11
* FROM CLIP NAME:  3C-1-A 48 FPS
* FROM FILE: 
* FROM COMMENT: 
046  Master   V     C        01:00:50:11 01:00:52:06 01:00:50:11 01:00:52:06
* FROM CLIP NAME:  3C-1-A 48 FPS
* FROM FILE: 
* FROM COMMENT: 
047  Master   V     C        01:00:52:06 01:00:53:07 01:00:52:06 01:00:53:07
* FROM CLIP NAME:  3C-1-A 48 FPS
* FROM FILE: 
* FROM COMMENT: 
048  Master   V     C        01:00:53:07 01:00:54:01 01:00:53:07 01:00:54:01
* FROM CLIP NAME:  3C-1-A 48 FPS
* FROM FILE: 
* FROM COMMENT: 
049  Master   V     C        01:00:54:01 01:00:55:21 01:00:54:01 01:00:55:21
* FROM CLIP NAME:  3C-1-A 48 FPS
* FROM FILE: 
* FROM COMMENT: 
050  Master   V     C        01:00:55:21 01:00:58:14 01:00:55:21 01:00:58:14
* FROM CLIP NAME:  3C-1-A 48 FPS
* FROM FILE: 
* FROM COMMENT: 
051  Master   V     C        01:00:58:14 01:00:59:15 01:00:58:14 01:00:59:15
* FROM CLIP NAME:  3C-1-A 48 FPS
* FROM FILE: 
* FROM COMMENT: 
052  Master   V     C        01:00:59:15 01:01:01:18 01:00:59:15 01:01:01:18
* FROM CLIP NAME:  3C-1-A 48 FPS
* FROM FILE: 
* FROM COMMENT: 
053  Master   V     C        01:01:01:18 01:01:05:00 01:01:01:18 01:01:05:00
* FROM CLIP NAME:  3C-1-A 48 FPS
* FROM FILE: 
* FROM COMMENT: 
054  Master   V     C        01:01:05:00 01:01:06:21 01:01:05:00 01:01:06:21
* FROM CLIP NAME:  3C-1-A 48 FPS
* FROM FILE: 
* FROM COMMENT: 
055  Master   V     C        01:01:06:21 01:01:07:21 01:01:06:21 01:01:07:21
* FROM CLIP NAME:  3C-1-A 48 FPS
* FROM FILE: 
* FROM COMMENT: 
056  Master   V     C        01:01:07:21 01:01:13:21 01:01:07:21 01:01:13:21
* FROM CLIP NAME:  3C-1-A 48 FPS
* FROM FILE: 
* FROM COMMENT: 
* 01:01:07:21 VFX - Fade In. Digitally create a tilt down, matte top to look like elevator. See Chase file for reference.
057  Master   V     C        01:01:13:21 01:01:16:18 01:01:13:21 01:01:16:18
* FROM CLIP NAME:  3C-1-A 48 FPS
* FROM FILE: 
* FROM COMMENT: 
058  Master   V     C        01:01:16:18 01:01:19:15 01:01:16:18 01:01:19:15
* FROM CLIP NAME:  3C-1-A 48 FPS
* FROM FILE: 
* FROM COMMENT: 
059  Master   V     C        01:01:19:15 01:01:21:17 01:01:19:15 01:01:21:17
* FROM CLIP NAME:  3C-1-A 48 FPS
* FROM FILE: 
* FROM COMMENT: 
060  Master   V     C        01:01:21:17 01:01:24:04 01:01:21:17 01:01:24:04
* FROM CLIP NAME:  3C-1-A 48 FPS
* FROM FILE: 
* FROM COMMENT: 
061  Master   V     C        01:01:24:04 01:01:25:19 01:01:24:04 01:01:25:19
* FROM CLIP NAME:  3C-1-A 48 FPS
* FROM FILE: 
* FROM COMMENT: 
062  Master   V     C        01:01:25:19 01:01:27:09 01:01:25:19 01:01:27:09
* FROM CLIP NAME:  3C-1-A 48 FPS
* FROM FILE: 
* FROM COMMENT: 
063  Master   V     C        01:01:27:09 01:01:31:02 01:01:27:09 01:01:31:02
* FROM CLIP NAME:  3C-1-A 48 FPS
* FROM FILE: 
* FROM COMMENT: 
* 01:01:27:09 VFX - RESPEED 200% TO 100% TO 200% - DYONTE MALIKA CAPOEIRA
064  Master   V     C        01:01:31:02 01:01:31:18 01:01:31:02 01:01:31:18
* FROM CLIP NAME:  3C-1-A 48 FPS
* FROM FILE: 
* FROM COMMENT: 
065  Master   V     C        01:01:31:18 01:01:34:14 01:01:31:18 01:01:34:14
* FROM CLIP NAME:  3C-1-A 48 FPS
* FROM FILE: 
* FROM COMMENT: 
066  Master   V     C        01:01:34:14 01:01:36:18 01:01:34:14 01:01:36:18
* FROM CLIP NAME:  3C-1-A 48 FPS
* FROM FILE: 
* FROM COMMENT: 
067  Master   V     C        01:01:36:18 01:01:39:17 01:01:36:18 01:01:39:17
* FROM CLIP NAME:  3C-1-A 48 FPS
* FROM FILE: 
* FROM COMMENT: 
068  Master   V     C        01:01:39:17 01:01:41:15 01:01:39:17 01:01:41:15
* FROM CLIP NAME:  3C-1-A 48 FPS
* FROM FILE: 
* FROM COMMENT: 
069  Master   V     C        01:01:41:15 01:01:43:23 01:01:41:15 01:01:43:23
* FROM CLIP NAME:  3C-1-A 48 FPS
* FROM FILE: 
* FROM COMMENT: 
070  Master   V     C        01:01:43:23 01:01:46:01 01:01:43:23 01:01:46:01
* FROM CLIP NAME:  3C-1-A 48 FPS
* FROM FILE: 
* FROM COMMENT: 
071  Master   V     C        01:01:46:01 01:01:47:18 01:01:46:01 01:01:47:18
* FROM CLIP NAME:  3C-1-A 48 FPS
* FROM FILE: 
* FROM COMMENT: 
072  Master   V     C        01:01:47:18 01:01:48:18 01:01:47:18 01:01:48:18
* FROM CLIP NAME:  3C-1-A 48 FPS
* FROM FILE: 
* FROM COMMENT: 
073  Master   V     C        01:01:48:18 01:01:49:17 01:01:48:18 01:01:49:17
* FROM CLIP NAME:  3C-1-A 48 FPS
* FROM FILE: 
* FROM COMMENT: 
074  Master   V     C        01:01:49:17 01:01:50:20 01:01:49:17 01:01:50:20
* FROM CLIP NAME:  3C-1-A 48 FPS
* FROM FILE: 
* FROM COMMENT: 
075  Master   V     C        01:01:50:20 01:01:51:18 01:01:50:20 01:01:51:18
* FROM CLIP NAME:  3C-1-A 48 FPS
* FROM FILE: 
* FROM COMMENT: 
076  Master   V     C        01:01:51:18 01:01:52:14 01:01:51:18 01:01:52:14
* FROM CLIP NAME:  3C-1-A 48 FPS
* FROM FILE: 
* FROM COMMENT: 
077  Master   V     C        01:01:52:14 01:01:55:20 01:01:52:14 01:01:55:20
* FROM CLIP NAME:  3C-1-A 48 FPS
* FROM FILE: 
* FROM COMMENT: 
078  Master   V     C        01:01:55:20 01:01:58:07 01:01:55:20 01:01:58:07
* FROM CLIP NAME:  3C-1-A 48 FPS
* FROM FILE: 
* FROM COMMENT: 
079  Master   V     C        01:01:58:07 01:02:02:23 01:01:58:07 01:02:02:23
* FROM CLIP NAME:  3C-1-A 48 FPS
* FROM FILE: 
* FROM COMMENT: 
080  Master   V     C        01:02:02:23 01:02:06:14 01:02:02:23 01:02:06:14
* FROM CLIP NAME:  3C-1-A 48 FPS
* FROM FILE: 
* FROM COMMENT: 
081  Master   V     C        01:02:06:14 01:02:08:07 01:02:06:14 01:02:08:07
* FROM CLIP NAME:  3C-1-A 48 FPS
* FROM FILE: 
* FROM COMMENT: 
082  Master   V     C        01:02:08:07 01:02:11:07 01:02:08:07 01:02:11:07
* FROM CLIP NAME:  3C-1-A 48 FPS
* FROM FILE: 
* FROM COMMENT: 
083  Master   V     C        01:02:11:07 01:02:12:23 01:02:11:07 01:02:12:23
* FROM CLIP NAME:  3C-1-A 48 FPS
* FROM FILE: 
* FROM COMMENT: 
084  Master   V     C        01:02:12:23 01:02:16:06 01:02:12:23 01:02:16:06
* FROM CLIP NAME:  3C-1-A 48 FPS
* FROM FILE: 
* FROM COMMENT: 
085  Master   V     C        01:02:16:06 01:02:17:22 01:02:16:06 01:02:17:22
* FROM CLIP NAME:  3C-1-A 48 FPS
* FROM FILE: 
* FROM COMMENT: 
086  Master   V     C        01:02:17:22 01:02:19:10 01:02:17:22 01:02:19:10
* FROM CLIP NAME:  3C-1-A 48 FPS
* FROM FILE: 
* FROM COMMENT: 
087  Master   V     C        01:02:19:10 01:02:21:10 01:02:19:10 01:02:21:10
* FROM CLIP NAME:  3C-1-A 48 FPS
* FROM FILE: 
* FROM COMMENT: 
088  Master   V     C        01:02:21:10 01:02:23:08 01:02:21:10 01:02:23:08
* FROM CLIP NAME:  3C-1-A 48 FPS
* FROM FILE: 
* FROM COMMENT: 
089  Master   V     C        01:02:23:08 01:02:25:17 01:02:23:08 01:02:25:17
* FROM CLIP NAME:  3C-1-A 48 FPS
* FROM FILE: 
* FROM COMMENT: 
090  Master   V     C        01:02:25:17 01:02:28:09 01:02:25:17 01:02:28:09
* FROM CLIP NAME:  3C-1-A 48 FPS
* FROM FILE: 
* FROM COMMENT: 
091  Master   V     C        01:02:28:09 01:02:29:17 01:02:28:09 01:02:29:17
* FROM CLIP NAME:  3C-1-A 48 FPS
* FROM FILE: 
* FROM COMMENT: 
092  Master   V     C        01:02:29:17 01:02:31:02 01:02:29:17 01:02:31:02
* FROM CLIP NAME:  3C-1-A 48 FPS
* FROM FILE: 
* FROM COMMENT: 
093  Master   V     C        01:02:31:02 01:02:32:15 01:02:31:02 01:02:32:15
* FROM CLIP NAME:  3C-1-A 48 FPS
* FROM FILE: 
* FROM COMMENT: 
094  Master   V     C        01:02:32:15 01:02:33:22 01:02:32:15 01:02:33:22
* FROM CLIP NAME:  3C-1-A 48 FPS
* FROM FILE: 
* FROM COMMENT: 
095  Master   V     C        01:02:33:22 01:02:35:11 01:02:33:22 01:02:35:11
* FROM CLIP NAME:  3C-1-A 48 FPS
* FROM FILE: 
* FROM COMMENT: 
096  Master   V     C        01:02:35:11 01:02:36:07 01:02:35:11 01:02:36:07
* FROM CLIP NAME:  3C-1-A 48 FPS
* FROM FILE: 
* FROM COMMENT: 
097  Master   V     C        01:02:36:07 01:02:37:16 01:02:36:07 01:02:37:16
* FROM CLIP NAME:  3C-1-A 48 FPS
* FROM FILE: 
* FROM COMMENT: 
098  Master   V     C        01:02:37:16 01:02:39:10 01:02:37:16 01:02:39:10
* FROM CLIP NAME:  3C-1-A 48 FPS
* FROM FILE: 
* FROM COMMENT: 
099  Master   V     C        01:02:39:10 01:02:41:21 01:02:39:10 01:02:41:21
* FROM CLIP NAME:  3C-1-A 48 FPS
* FROM FILE: 
* FROM COMMENT: 
100  Master   V     C        01:02:41:21 01:03:01:21 01:02:41:21 01:03:01:21
* FROM CLIP NAME:  3C-1-A 48 FPS
* FROM FILE: 
* FROM COMMENT: 
101  Master   V     C        01:03:01:21 01:03:04:13 01:03:01:21 01:03:04:13
* FROM CLIP NAME:  3C-1-A 48 FPS
* FROM FILE: 
* FROM COMMENT: 
102  Master   V     C        01:03:04:13 01:03:18:01 01:03:04:13 01:03:18:01
* FROM CLIP NAME:  3C-1-A 48 FPS
* FROM FILE: 
* FROM COMMENT: 
103  Master   V     C        01:03:18:01 01:03:18:17 01:03:18:01 01:03:18:17
* FROM CLIP NAME:  3C-1-A 48 FPS
* FROM FILE: 
* FROM COMMENT: 
104  Master   V     C        01:03:18:17 01:03:30:06 01:03:18:17 01:03:30:06
* FROM CLIP NAME:  3C-1-A 48 FPS
* FROM FILE: 
* FROM COMMENT: 
105  Master   V     C        01:03:30:06 01:03:32:17 01:03:30:06 01:03:32:17
* FROM CLIP NAME:  3C-1-A 48 FPS
* FROM FILE: 
* FROM COMMENT: 
106  Master   V     C        01:03:32:17 01:03:34:12 01:03:32:17 01:03:34:12
* FROM CLIP NAME:  3C-1-A 48 FPS
* FROM FILE: 
* FROM COMMENT: 
107  Master   V     C        01:03:34:12 01:03:38:08 01:03:34:12 01:03:38:08
* FROM CLIP NAME:  3C-1-A 48 FPS
* FROM FILE: 
* FROM COMMENT: 
108  Master   V     C        01:03:38:08 01:03:40:10 01:03:38:08 01:03:40:10
* FROM CLIP NAME:  3C-1-A 48 FPS
* FROM FILE: 
* FROM COMMENT: 
109  Master   V     C        01:03:40:10 01:03:43:07 01:03:40:10 01:03:43:07
* FROM CLIP NAME:  3C-1-A 48 FPS
* FROM FILE: 
* FROM COMMENT: 
110  Master   V     C        01:03:43:07 01:03:44:06 01:03:43:07 01:03:44:06
* FROM CLIP NAME:  3C-1-A 48 FPS
* FROM FILE: 
* FROM COMMENT: 
111  Master   V     C        01:03:44:06 01:03:46:08 01:03:44:06 01:03:46:08
* FROM CLIP NAME:  3C-1-A 48 FPS
* FROM FILE: 
* FROM COMMENT: 
112  Master   V     C        01:03:46:08 01:03:47:16 01:03:46:08 01:03:47:16
* FROM CLIP NAME:  3C-1-A 48 FPS
* FROM FILE: 
* FROM COMMENT: 
113  Master   V     C        01:03:47:16 01:03:49:11 01:03:47:16 01:03:49:11
* FROM CLIP NAME:  3C-1-A 48 FPS
* FROM FILE: 
* FROM COMMENT: 
114  Master   V     C        01:03:49:11 01:03:51:01 01:03:49:11 01:03:51:01
* FROM CLIP NAME:  3C-1-A 48 FPS
* FROM FILE: 
* FROM COMMENT: 
115  Master   V     C        01:03:51:01 01:03:51:22 01:03:51:01 01:03:51:22
* FROM CLIP NAME:  3C-1-A 48 FPS
* FROM FILE: 
* FROM COMMENT: 
116  Master   V     C        01:03:51:22 01:03:53:12 01:03:51:22 01:03:53:12
* FROM CLIP NAME:  3C-1-A 48 FPS
* FROM FILE: 
* FROM COMMENT: 
117  Master   V     C        01:03:53:12 01:03:55:07 01:03:53:12 01:03:55:07
* FROM CLIP NAME:  3C-1-A 48 FPS
* FROM FILE: 
* FROM COMMENT: 
118  Master   V     C        01:03:55:07 01:03:57:00 01:03:55:07 01:03:57:00
* FROM CLIP NAME:  3C-1-A 48 FPS
* FROM FILE: 
* FROM COMMENT: 
119  Master   V     C        01:03:57:00 01:03:58:07 01:03:57:00 01:03:58:07
* FROM CLIP NAME:  3C-1-A 48 FPS
* FROM FILE: 
* FROM COMMENT: 
120  Master   V     C        01:03:58:07 01:03:59:01 01:03:58:07 01:03:59:01
* FROM CLIP NAME:  3C-1-A 48 FPS
* FROM FILE: 
* FROM COMMENT: 
121  Master   V     C        01:03:59:01 01:04:00:05 01:03:59:01 01:04:00:05
* FROM CLIP NAME:  3C-1-A 48 FPS
* FROM FILE: 
* FROM COMMENT: 
122  Master   V     C        01:04:00:05 01:04:01:12 01:04:00:05 01:04:01:12
* FROM CLIP NAME:  3C-1-A 48 FPS
* FROM FILE: 
* FROM COMMENT: 
123  Master   V     C        01:04:01:12 01:04:02:15 01:04:01:12 01:04:02:15
* FROM CLIP NAME:  3C-1-A 48 FPS
* FROM FILE: 
* FROM COMMENT: 
124  Master   V     C        01:04:02:15 01:04:03:13 01:04:02:15 01:04:03:13
* FROM CLIP NAME:  3C-1-A 48 FPS
* FROM FILE: 
* FROM COMMENT: 
125  Master   V     C        01:04:03:13 01:04:04:13 01:04:03:13 01:04:04:13
* FROM CLIP NAME:  3C-1-A 48 FPS
* FROM FILE: 
* FROM COMMENT: 
126  Master   V     C        01:04:04:13 01:04:05:20 01:04:04:13 01:04:05:20
* FROM CLIP NAME:  3C-1-A 48 FPS
* FROM FILE: 
* FROM COMMENT: 
127  Master   V     C        01:04:05:20 01:04:07:12 01:04:05:20 01:04:07:12
* FROM CLIP NAME:  3C-1-A 48 FPS
* FROM FILE: 
* FROM COMMENT: 
128  Master   V     C        01:04:07:12 01:04:08:20 01:04:07:12 01:04:08:20
* FROM CLIP NAME:  3C-1-A 48 FPS
* FROM FILE: 
* FROM COMMENT: 
129  Master   V     C        01:04:08:20 01:04:10:02 01:04:08:20 01:04:10:02
* FROM CLIP NAME:  3C-1-A 48 FPS
* FROM FILE: 
* FROM COMMENT: 
130  Master   V     C        01:04:10:02 01:04:11:23 01:04:10:02 01:04:11:23
* FROM CLIP NAME:  3C-1-A 48 FPS
* FROM FILE: 
* FROM COMMENT: 
131  Master   V     C        01:04:11:23 01:04:12:18 01:04:11:23 01:04:12:18
* FROM CLIP NAME:  3C-1-A 48 FPS
* FROM FILE: 
* FROM COMMENT: 
132  Master   V     C        01:04:12:18 01:04:14:05 01:04:12:18 01:04:14:05
* FROM CLIP NAME:  3C-1-A 48 FPS
* FROM FILE: 
* FROM COMMENT: 
133  Master   V     C        01:04:14:05 01:04:15:01 01:04:14:05 01:04:15:01
* FROM CLIP NAME:  3C-1-A 48 FPS
* FROM FILE: 
* FROM COMMENT: 
134  Master   V     C        01:04:15:01 01:04:15:18 01:04:15:01 01:04:15:18
* FROM CLIP NAME:  3C-1-A 48 FPS
* FROM FILE: 
* FROM COMMENT: 
135  Master   V     C        01:04:15:18 01:04:16:18 01:04:15:18 01:04:16:18
* FROM CLIP NAME:  3C-1-A 48 FPS
* FROM FILE: 
* FROM COMMENT: 
136  Master   V     C        01:04:16:18 01:04:17:10 01:04:16:18 01:04:17:10
* FROM CLIP NAME:  3C-1-A 48 FPS
* FROM FILE: 
* FROM COMMENT: 
137  Master   V     C        01:04:17:10 01:04:18:16 01:04:17:10 01:04:18:16
* FROM CLIP NAME:  3C-1-A 48 FPS
* FROM FILE: 
* FROM COMMENT: 
138  Master   V     C        01:04:18:16 01:04:20:21 01:04:18:16 01:04:20:21
* FROM CLIP NAME:  3C-1-A 48 FPS
* FROM FILE: 
* FROM COMMENT: 
139  Master   V     C        01:04:20:21 01:04:23:23 01:04:20:21 01:04:23:23
* FROM CLIP NAME:  3C-1-A 48 FPS
* FROM FILE: 
* FROM COMMENT: 
140  Master   V     C        01:04:23:23 01:04:27:05 01:04:23:23 01:04:27:05
* FROM CLIP NAME:  3C-1-A 48 FPS
* FROM FILE: 
* FROM COMMENT: 
141  Master   V     C        01:04:27:05 01:04:28:02 01:04:27:05 01:04:28:02
* FROM CLIP NAME:  3C-1-A 48 FPS
* FROM FILE: 
* FROM COMMENT: 
142  Master   V     C        01:04:28:02 01:04:29:18 01:04:28:02 01:04:29:18
* FROM CLIP NAME:  3C-1-A 48 FPS
* FROM FILE: 
* FROM COMMENT: 
143  Master   V     C        01:04:29:18 01:04:31:03 01:04:29:18 01:04:31:03
* FROM CLIP NAME:  3C-1-A 48 FPS
* FROM FILE: 
* FROM COMMENT: 
144  Master   V     C        01:04:31:03 01:04:32:15 01:04:31:03 01:04:32:15
* FROM CLIP NAME:  3C-1-A 48 FPS
* FROM FILE: 
* FROM COMMENT: 
145  Master   V     C        01:04:32:15 01:04:35:01 01:04:32:15 01:04:35:01
* FROM CLIP NAME:  3C-1-A 48 FPS
* FROM FILE: 
* FROM COMMENT: 
146  Master   V     C        01:04:35:01 01:04:36:21 01:04:35:01 01:04:36:21
* FROM CLIP NAME:  3C-1-A 48 FPS
* FROM FILE: 
* FROM COMMENT: 
147  Master   V     C        01:04:36:21 01:04:41:00 01:04:36:21 01:04:41:00
* FROM CLIP NAME:  3C-1-A 48 FPS
* FROM FILE: 
* FROM COMMENT: 
148  Master   V     C        01:04:41:00 01:04:42:07 01:04:41:00 01:04:42:07
* FROM CLIP NAME:  3C-1-A 48 FPS
* FROM FILE: 
* FROM COMMENT: 
149  Master   V     C        01:04:42:07 01:04:47:02 01:04:42:07 01:04:47:02
* FROM CLIP NAME:  3C-1-A 48 FPS
* FROM FILE: 
* FROM COMMENT: 
150  Master   V     C        01:04:47:02 01:04:48:19 01:04:47:02 01:04:48:19
* FROM CLIP NAME:  3C-1-A 48 FPS
* FROM FILE: 
* FROM COMMENT: 
151  Master   V     C        01:04:48:19 01:04:49:20 01:04:48:19 01:04:49:20
* FROM CLIP NAME:  3C-1-A 48 FPS
* FROM FILE: 
* FROM COMMENT: 
152  Master   V     C        01:04:49:20 01:04:52:23 01:04:49:20 01:04:52:23
* FROM CLIP NAME:  3C-1-A 48 FPS
* FROM FILE: 
* FROM COMMENT: 
153  Master   V     C        01:04:52:23 01:04:54:06 01:04:52:23 01:04:54:06
* FROM CLIP NAME:  3C-1-A 48 FPS
* FROM FILE: 
* FROM COMMENT: 
154  Master   V     C        01:04:54:06 01:04:57:18 01:04:54:06 01:04:57:18
* FROM CLIP NAME:  3C-1-A 48 FPS
* FROM FILE: 
* FROM COMMENT: 
155  Master   V     C        01:04:57:18 01:05:00:08 01:04:57:18 01:05:00:08
* FROM CLIP NAME:  3C-1-A 48 FPS
* FROM FILE: 
* FROM COMMENT: 
156  Master   V     C        01:05:00:08 01:05:03:05 01:05:00:08 01:05:03:05
* FROM CLIP NAME:  3C-1-A 48 FPS
* FROM FILE: 
* FROM COMMENT: 
157  Master   V     C        01:05:03:05 01:05:06:18 01:05:03:05 01:05:06:18
* FROM CLIP NAME:  3C-1-A 48 FPS
* FROM FILE: 
* FROM COMMENT: 
158  Master   V     C        01:05:06:18 01:05:08:18 01:05:06:18 01:05:08:18
* FROM CLIP NAME:  3C-1-A 48 FPS
* FROM FILE: 
* FROM COMMENT: 
159  Master   V     C        01:05:08:18 01:05:12:10 01:05:08:18 01:05:12:10
* FROM CLIP NAME:  3C-1-A 48 FPS
* FROM FILE: 
* FROM COMMENT: 
160  Master   V     C        01:05:12:10 01:05:14:05 01:05:12:10 01:05:14:05
* FROM CLIP NAME:  3C-1-A 48 FPS
* FROM FILE: 
* FROM COMMENT: 
161  Master   V     C        01:05:14:05 01:05:17:17 01:05:14:05 01:05:17:17
* FROM CLIP NAME:  3C-1-A 48 FPS
* FROM FILE: 
* FROM COMMENT: 
162  Master   V     C        01:05:17:17 01:05:21:03 01:05:17:17 01:05:21:03
* FROM CLIP NAME:  3C-1-A 48 FPS
* FROM FILE: 
* FROM COMMENT: 
163  Master   V     C        01:05:21:03 01:05:23:17 01:05:21:03 01:05:23:17
* FROM CLIP NAME:  3C-1-A 48 FPS
* FROM FILE: 
* FROM COMMENT: 
164  Master   V     C        01:05:23:17 01:05:31:18 01:05:23:17 01:05:31:18
* FROM CLIP NAME:  3C-1-A 48 FPS
* FROM FILE: 
* FROM COMMENT: 
165  Master   V     C        01:05:31:18 01:05:33:05 01:05:31:18 01:05:33:05
* FROM CLIP NAME:  3C-1-A 48 FPS
* FROM FILE: 
* FROM COMMENT: 
166  Master   V     C        01:05:33:05 01:05:41:12 01:05:33:05 01:05:41:12
* FROM CLIP NAME:  3C-1-A 48 FPS
* FROM FILE: 
* FROM COMMENT: 
167  Master   V     C        01:05:41:12 01:05:43:22 01:05:41:12 01:05:43:22
* FROM CLIP NAME:  3C-1-A 48 FPS
* FROM FILE: 
* FROM COMMENT: 
168  Master   V     C        01:05:43:22 01:05:45:14 01:05:43:22 01:05:45:14
* FROM CLIP NAME:  3C-1-A 48 FPS
* FROM FILE: 
* FROM COMMENT: 
169  Master   V     C        01:05:45:14 01:05:47:20 01:05:45:14 01:05:47:20
* FROM CLIP NAME:  3C-1-A 48 FPS
* FROM FILE: 
* FROM COMMENT: 
170  Master   V     C        01:05:47:20 01:05:49:10 01:05:47:20 01:05:49:10
* FROM CLIP NAME:  3C-1-A 48 FPS
* FROM FILE: 
* FROM COMMENT: 
171  Master   V     C        01:05:49:10 01:05:51:06 01:05:49:10 01:05:51:06
* FROM CLIP NAME:  3C-1-A 48 FPS
* FROM FILE: 
* FROM COMMENT: 
172  Master   V     C        01:05:51:06 01:05:53:08 01:05:51:06 01:05:53:08
* FROM CLIP NAME:  3C-1-A 48 FPS
* FROM FILE: 
* FROM COMMENT: 
173  Master   V     C        01:05:53:08 01:05:55:08 01:05:53:08 01:05:55:08
* FROM CLIP NAME:  3C-1-A 48 FPS
* FROM FILE: 
* FROM COMMENT: 
174  Master   V     C        01:05:55:08 01:05:57:14 01:05:55:08 01:05:57:14
* FROM CLIP NAME:  3C-1-A 48 FPS
* FROM FILE: 
* FROM COMMENT: 
175  Master   V     C        01:05:57:14 01:05:59:11 01:05:57:14 01:05:59:11
* FROM CLIP NAME:  3C-1-A 48 FPS
* FROM FILE: 
* FROM COMMENT: 
176  Master   V     C        01:05:59:11 01:06:01:04 01:05:59:11 01:06:01:04
* FROM CLIP NAME:  3C-1-A 48 FPS
* FROM FILE: 
* FROM COMMENT: 
177  Master   V     C        01:06:01:04 01:06:04:08 01:06:01:04 01:06:04:08
* FROM CLIP NAME:  3C-1-A 48 FPS
* FROM FILE: 
* FROM COMMENT: 
178  Master   V     C        01:06:04:08 01:06:09:18 01:06:04:08 01:06:09:18
* FROM CLIP NAME:  3C-1-A 48 FPS
* FROM FILE: 
* FROM COMMENT: 
179  Master   V     C        01:06:09:18 01:06:12:18 01:06:09:18 01:06:12:18
* FROM CLIP NAME:  3C-1-A 48 FPS
* FROM FILE: 
* FROM COMMENT: 
180  Master   V     C        01:06:12:18 01:06:21:21 01:06:12:18 01:06:21:21
* FROM CLIP NAME:  3C-1-A 48 FPS
* FROM FILE: 
* FROM COMMENT: 
181  Master   V     C        01:06:21:21 01:06:23:20 01:06:21:21 01:06:23:20
* FROM CLIP NAME:  3C-1-A 48 FPS
* FROM FILE: 
* FROM COMMENT: 
182  Master   V     C        01:06:23:20 01:06:26:06 01:06:23:20 01:06:26:06
* FROM CLIP NAME:  3C-1-A 48 FPS
* FROM FILE: 
* FROM COMMENT: 
183  Master   V     C        01:06:26:06 01:06:28:21 01:06:26:06 01:06:28:21
* FROM CLIP NAME:  3C-1-A 48 FPS
* FROM FILE: 
* FROM COMMENT: 
184  Master   V     C        01:06:28:21 01:06:33:10 01:06:28:21 01:06:33:10
* FROM CLIP NAME:  3C-1-A 48 FPS
* FROM FILE: 
* FROM COMMENT: 
185  Master   V     C        01:06:33:10 01:06:36:17 01:06:33:10 01:06:36:17
* FROM CLIP NAME:  3C-1-A 48 FPS
* FROM FILE: 
* FROM COMMENT: 
186  Master   V     C        01:06:36:17 01:06:50:17 01:06:36:17 01:06:50:17
* FROM CLIP NAME:  3C-1-A 48 FPS
* FROM FILE: 
* FROM COMMENT: 
187  Master   V     C        01:06:50:17 01:06:52:03 01:06:50:17 01:06:52:03
* FROM CLIP NAME:  3C-1-A 48 FPS
* FROM FILE: 
* FROM COMMENT: 
188  Master   V     C        01:06:52:03 01:06:53:13 01:06:52:03 01:06:53:13
* FROM CLIP NAME:  3C-1-A 48 FPS
* FROM FILE: 
* FROM COMMENT: 
189  Master   V     C        01:06:53:13 01:06:55:15 01:06:53:13 01:06:55:15
* FROM CLIP NAME:  3C-1-A 48 FPS
* FROM FILE: 
* FROM COMMENT: 
190  Master   V     C        01:06:55:15 01:06:57:08 01:06:55:15 01:06:57:08
* FROM CLIP NAME:  3C-1-A 48 FPS
* FROM FILE: 
* FROM COMMENT: 
191  Master   V     C        01:06:57:08 01:06:58:09 01:06:57:08 01:06:58:09
* FROM CLIP NAME:  3C-1-A 48 FPS
* FROM FILE: 
* FROM COMMENT: 
192  Master   V     C        01:06:58:09 01:07:01:05 01:06:58:09 01:07:01:05
* FROM CLIP NAME:  3C-1-A 48 FPS
* FROM FILE: 
* FROM COMMENT: 
193  Master   V     C        01:07:01:05 01:07:04:17 01:07:01:05 01:07:04:17
* FROM CLIP NAME:  3C-1-A 48 FPS
* FROM FILE: 
* FROM COMMENT: 
194  Master   V     C        01:07:04:17 01:07:05:20 01:07:04:17 01:07:05:20
* FROM CLIP NAME:  3C-1-A 48 FPS
* FROM FILE: 
* FROM COMMENT: 
195  Master   V     C        01:07:05:20 01:07:12:07 01:07:05:20 01:07:12:07
* FROM CLIP NAME:  3C-1-A 48 FPS
* FROM FILE: 
* FROM COMMENT: 
196  Master   V     C        01:07:12:07 01:07:15:05 01:07:12:07 01:07:15:05
* FROM CLIP NAME:  3C-1-A 48 FPS
* FROM FILE: 
* FROM COMMENT: 
197  Master   V     C        01:07:15:05 01:07:19:08 01:07:15:05 01:07:19:08
* FROM CLIP NAME:  3C-1-A 48 FPS
* FROM FILE: 
* FROM COMMENT: 
198  Master   V     C        01:07:19:08 01:07:28:23 01:07:19:08 01:07:28:23
* FROM CLIP NAME:  3C-1-A 48 FPS
* FROM FILE: 
* FROM COMMENT: 
199  Master   V     C        01:07:28:23 01:07:49:12 01:07:28:23 01:07:49:12
* FROM CLIP NAME:  3C-1-A 48 FPS
* FROM FILE: 
* FROM COMMENT: 
* 01:07:40:08 VFX - GT3001_SC47_Raj_CanWeTalk_V2.mov
* 01:07:43:10 VFX - GT3001_SC47_Evan_CanWeTalk_V2.mov
200  Master   V     C        01:07:49:12 01:08:02:00 01:07:49:12 01:08:02:00
* FROM CLIP NAME:  3C-1-A 48 FPS
* FROM FILE: 
* FROM COMMENT: 
201  Master   V     C        01:08:02:00 01:08:06:08 01:08:02:00 01:08:06:08
* FROM CLIP NAME:  3C-1-A 48 FPS
* FROM FILE: 
* FROM COMMENT: 
202  Master   V     C        01:08:06:08 01:08:08:11 01:08:06:08 01:08:08:11
* FROM CLIP NAME:  3C-1-A 48 FPS
* FROM FILE: 
* FROM COMMENT: 
203  Master   V     C        01:08:08:11 01:08:10:04 01:08:08:11 01:08:10:04
* FROM CLIP NAME:  3C-1-A 48 FPS
* FROM FILE: 
* FROM COMMENT: 
204  Master   V     C        01:08:10:04 01:08:13:04 01:08:10:04 01:08:13:04
* FROM CLIP NAME:  3C-1-A 48 FPS
* FROM FILE: 
* FROM COMMENT: 
205  Master   V     C        01:08:13:04 01:08:15:06 01:08:13:04 01:08:15:06
* FROM CLIP NAME:  3C-1-A 48 FPS
* FROM FILE: 
* FROM COMMENT: 
206  Master   V     C        01:08:15:06 01:08:17:08 01:08:15:06 01:08:17:08
* FROM CLIP NAME:  3C-1-A 48 FPS
* FROM FILE: 
* FROM COMMENT: 
207  Master   V     C        01:08:17:08 01:08:20:01 01:08:17:08 01:08:20:01
* FROM CLIP NAME:  3C-1-A 48 FPS
* FROM FILE: 
* FROM COMMENT: 
208  Master   V     C        01:08:20:01 01:08:22:09 01:08:20:01 01:08:22:09
* FROM CLIP NAME:  3C-1-A 48 FPS
* FROM FILE: 
* FROM COMMENT: 
209  Master   V     C        01:08:22:09 01:08:24:01 01:08:22:09 01:08:24:01
* FROM CLIP NAME:  3C-1-A 48 FPS
* FROM FILE: 
* FROM COMMENT: 
210  Master   V     C        01:08:24:01 01:08:25:19 01:08:24:01 01:08:25:19
* FROM CLIP NAME:  3C-1-A 48 FPS
* FROM FILE: 
* FROM COMMENT: 
211  Master   V     C        01:08:25:19 01:08:26:14 01:08:25:19 01:08:26:14
* FROM CLIP NAME:  3C-1-A 48 FPS
* FROM FILE: 
* FROM COMMENT: 
212  Master   V     C        01:08:26:14 01:08:27:21 01:08:26:14 01:08:27:21
* FROM CLIP NAME:  3C-1-A 48 FPS
* FROM FILE: 
* FROM COMMENT: 
213  Master   V     C        01:08:27:21 01:08:30:01 01:08:27:21 01:08:30:01
* FROM CLIP NAME:  3C-1-A 48 FPS
* FROM FILE: 
* FROM COMMENT: 
214  Master   V     C        01:08:30:01 01:08:33:11 01:08:30:01 01:08:33:11
* FROM CLIP NAME:  3C-1-A 48 FPS
* FROM FILE: 
* FROM COMMENT: 
215  Master   V     C        01:08:33:11 01:09:05:21 01:08:33:11 01:09:05:21
* FROM CLIP NAME:  3C-1-A 48 FPS
* FROM FILE: 
* FROM COMMENT: 
216  Master   V     C        01:09:05:21 01:09:16:12 01:09:05:21 01:09:16:12
* FROM CLIP NAME:  3C-1-A 48 FPS
* FROM FILE: 
* FROM COMMENT: 
217  Master   V     C        01:09:16:12 01:09:19:11 01:09:16:12 01:09:19:11
* FROM CLIP NAME:  3C-1-A 48 FPS
* FROM FILE: 
* FROM COMMENT: 
218  Master   V     C        01:09:19:11 01:09:23:11 01:09:19:11 01:09:23:11
* FROM CLIP NAME:  3C-1-A 48 FPS
* FROM FILE: 
* FROM COMMENT: 
219  Master   V     C        01:09:23:11 01:09:25:16 01:09:23:11 01:09:25:16
* FROM CLIP NAME:  3C-1-A 48 FPS
* FROM FILE: 
* FROM COMMENT: 
220  Master   V     C        01:09:25:16 01:09:27:10 01:09:25:16 01:09:27:10
* FROM CLIP NAME:  3C-1-A 48 FPS
* FROM FILE: 
* FROM COMMENT: 
221  Master   V     C        01:09:27:10 01:09:30:09 01:09:27:10 01:09:30:09
* FROM CLIP NAME:  3C-1-A 48 FPS
* FROM FILE: 
* FROM COMMENT: 
222  Master   V     C        01:09:30:09 01:09:36:06 01:09:30:09 01:09:36:06
* FROM CLIP NAME:  3C-1-A 48 FPS
* FROM FILE: 
* FROM COMMENT: 
223  Master   V     C        01:09:36:06 01:09:38:01 01:09:36:06 01:09:38:01
* FROM CLIP NAME:  3C-1-A 48 FPS
* FROM FILE: 
* FROM COMMENT: 
224  Master   V     C        01:09:38:01 01:09:39:18 01:09:38:01 01:09:39:18
* FROM CLIP NAME:  3C-1-A 48 FPS
* FROM FILE: 
* FROM COMMENT: 
225  Master   V     C        01:09:39:18 01:09:44:17 01:09:39:18 01:09:44:17
* FROM CLIP NAME:  3C-1-A 48 FPS
* FROM FILE: 
* FROM COMMENT: 
226  Master   V     C        01:09:44:17 01:09:46:21 01:09:44:17 01:09:46:21
* FROM CLIP NAME:  3C-1-A 48 FPS
* FROM FILE: 
* FROM COMMENT: 
227  Master   V     C        01:09:46:21 01:09:51:02 01:09:46:21 01:09:51:02
* FROM CLIP NAME:  3C-1-A 48 FPS
* FROM FILE: 
* FROM COMMENT: 
228  Master   V     C        01:09:51:02 01:09:56:08 01:09:51:02 01:09:56:08
* FROM CLIP NAME:  3C-1-A 48 FPS
* FROM FILE: 
* FROM COMMENT: 
229  Master   V     C        01:09:56:08 01:10:00:14 01:09:56:08 01:10:00:14
* FROM CLIP NAME:  3C-1-A 48 FPS
* FROM FILE: 
* FROM COMMENT: 
230  Master   V     C        01:10:00:14 01:10:02:14 01:10:00:14 01:10:02:14
* FROM CLIP NAME:  3C-1-A 48 FPS
* FROM FILE: 
* FROM COMMENT: 
231  Master   V     C        01:10:02:14 01:10:06:00 01:10:02:14 01:10:06:00
* FROM CLIP NAME:  3C-1-A 48 FPS
* FROM FILE: 
* FROM COMMENT: 
232  Master   V     C        01:10:06:00 01:10:10:19 01:10:06:00 01:10:10:19
* FROM CLIP NAME:  3C-1-A 48 FPS
* FROM FILE: 
* FROM COMMENT: 
233  Master   V     C        01:10:10:19 01:10:13:12 01:10:10:19 01:10:13:12
* FROM CLIP NAME:  3C-1-A 48 FPS
* FROM FILE: 
* FROM COMMENT: 
234  Master   V     C        01:10:13:12 01:10:15:19 01:10:13:12 01:10:15:19
* FROM CLIP NAME:  3C-1-A 48 FPS
* FROM FILE: 
* FROM COMMENT: 
235  Master   V     C        01:10:15:19 01:10:18:21 01:10:15:19 01:10:18:21
* FROM CLIP NAME:  3C-1-A 48 FPS
* FROM FILE: 
* FROM COMMENT: 
236  Master   V     C        01:10:18:21 01:10:25:00 01:10:18:21 01:10:25:00
* FROM CLIP NAME:  3C-1-A 48 FPS
* FROM FILE: 
* FROM COMMENT: 
237  Master   V     C        01:10:25:00 01:10:27:17 01:10:25:00 01:10:27:17
* FROM CLIP NAME:  3C-1-A 48 FPS
* FROM FILE: 
* FROM COMMENT: 
238  Master   V     C        01:10:27:17 01:10:34:01 01:10:27:17 01:10:34:01
* FROM CLIP NAME:  3C-1-A 48 FPS
* FROM FILE: 
* FROM COMMENT: 
239  Master   V     C        01:10:34:01 01:10:38:01 01:10:34:01 01:10:38:01
* FROM CLIP NAME:  3C-1-A 48 FPS
* FROM FILE: 
* FROM COMMENT: 
240  Master   V     C        01:10:38:01 01:10:40:01 01:10:38:01 01:10:40:01
* FROM CLIP NAME:  3C-1-A 48 FPS
* FROM FILE: 
* FROM COMMENT: 
241  Master   V     C        01:10:40:01 01:10:46:10 01:10:40:01 01:10:46:10
* FROM CLIP NAME:  3C-1-A 48 FPS
* FROM FILE: 
* FROM COMMENT: 
242  Master   V     C        01:10:46:10 01:10:57:08 01:10:46:10 01:10:57:08
* FROM CLIP NAME:  3C-1-A 48 FPS
* FROM FILE: 
* FROM COMMENT: 
* 01:10:51:04 VFX - GT3001_SC38_Callie_ShouldWeTalk_V2.mov
243  Master   V     C        01:10:57:08 01:10:59:22 01:10:57:08 01:10:59:22
* FROM CLIP NAME:  3C-1-A 48 FPS
* FROM FILE: 
* FROM COMMENT: 
244  Master   V     C        01:10:59:22 01:11:20:08 01:10:59:22 01:11:20:08
* FROM CLIP NAME:  3C-1-A 48 FPS
* FROM FILE: 
* FROM COMMENT: 
* 01:11:01:10 GT3001_SC38_ DA Rep-Is This Callie Adams Foster?
* 01:11:04:07 GT3001_SC38_ DA Rep-I'm calling from the Assistant District Attorney's office. We'd like to speak with you regarding the recent breaking and entering incident that occured at your apartment involving Jerod Murphy.
* 01:11:13:12 GT3001_SC38_ DA Rep-Not as the complainant, as a witness. Someone else is pressing charges.
245  Master   V     C        01:11:20:08 01:11:25:03 01:11:20:08 01:11:25:03
* FROM CLIP NAME:  3C-1-A 48 FPS
* FROM FILE: 
* FROM COMMENT: 
246  Master   V     C        01:11:25:03 01:11:29:08 01:11:25:03 01:11:29:08
* FROM CLIP NAME:  3C-1-A 48 FPS
* FROM FILE: 
* FROM COMMENT: 
247  Master   V     C        01:11:29:08 01:11:31:03 01:11:29:08 01:11:31:03
* FROM CLIP NAME:  3C-1-A 48 FPS
* FROM FILE: 
* FROM COMMENT: 
248  Master   V     C        01:11:31:03 01:11:34:08 01:11:31:03 01:11:34:08
* FROM CLIP NAME:  3C-1-A 48 FPS
* FROM FILE: 
* FROM COMMENT: 
249  Master   V     C        01:11:34:08 01:11:36:23 01:11:34:08 01:11:36:23
* FROM CLIP NAME:  3C-1-A 48 FPS
* FROM FILE: 
* FROM COMMENT: 
250  Master   V     C        01:11:36:23 01:11:37:23 01:11:36:23 01:11:37:23
* FROM CLIP NAME:  3C-1-A 48 FPS
* FROM FILE: 
* FROM COMMENT: 
251  Master   V     C        01:11:37:23 01:11:38:11 01:11:37:23 01:11:38:11
* FROM CLIP NAME:  3C-1-A 48 FPS
* FROM FILE: 
* FROM COMMENT: 
252  Master   V     C        01:11:38:11 01:11:39:22 01:11:38:11 01:11:39:22
* FROM CLIP NAME:  3C-1-A 48 FPS
* FROM FILE: 
* FROM COMMENT: 
253  Master   V     C        01:11:39:22 01:11:44:01 01:11:39:22 01:11:44:01
* FROM CLIP NAME:  3C-1-A 48 FPS
* FROM FILE: 
* FROM COMMENT: 
254  Master   V     C        01:11:44:01 01:11:47:08 01:11:44:01 01:11:47:08
* FROM CLIP NAME:  3C-1-A 48 FPS
* FROM FILE: 
* FROM COMMENT: 
255  Master   V     C        01:11:47:08 01:11:51:11 01:11:47:08 01:11:51:11
* FROM CLIP NAME:  3C-1-A 48 FPS
* FROM FILE: 
* FROM COMMENT: 
256  Master   V     C        01:11:51:11 01:11:54:13 01:11:51:11 01:11:54:13
* FROM CLIP NAME:  3C-1-A 48 FPS
* FROM FILE: 
* FROM COMMENT: 
257  Master   V     C        01:11:54:13 01:11:57:08 01:11:54:13 01:11:57:08
* FROM CLIP NAME:  3C-1-A 48 FPS
* FROM FILE: 
* FROM COMMENT: 
258  Master   V     C        01:11:57:08 01:12:02:07 01:11:57:08 01:12:02:07
* FROM CLIP NAME:  3C-1-A 48 FPS
* FROM FILE: 
* FROM COMMENT: 
259  Master   V     C        01:12:02:07 01:12:03:16 01:12:02:07 01:12:03:16
* FROM CLIP NAME:  3C-1-A 48 FPS
* FROM FILE: 
* FROM COMMENT: 
260  Master   V     C        01:12:03:16 01:12:06:17 01:12:03:16 01:12:06:17
* FROM CLIP NAME:  3C-1-A 48 FPS
* FROM FILE: 
* FROM COMMENT: 
261  Master   V     C        01:12:06:17 01:12:11:13 01:12:06:17 01:12:11:13
* FROM CLIP NAME:  3C-1-A 48 FPS
* FROM FILE: 
* FROM COMMENT: 
262  Master   V     C        01:12:11:13 01:12:13:23 01:12:11:13 01:12:13:23
* FROM CLIP NAME:  3C-1-A 48 FPS
* FROM FILE: 
* FROM COMMENT: 
263  Master   V     C        01:12:13:23 01:12:23:10 01:12:13:23 01:12:23:10
* FROM CLIP NAME:  3C-1-A 48 FPS
* FROM FILE: 
* FROM COMMENT: 
264  Master   V     C        01:12:23:10 01:12:35:01 01:12:23:10 01:12:35:01
* FROM CLIP NAME:  3C-1-A 48 FPS
* FROM FILE: 
* FROM COMMENT: 
265  Master   V     C        01:12:35:01 01:12:51:05 01:12:35:01 01:12:51:05
* FROM CLIP NAME:  3C-1-A 48 FPS
* FROM FILE: 
* FROM COMMENT: 
266  Master   V     C        01:12:51:05 01:13:00:06 01:12:51:05 01:13:00:06
* FROM CLIP NAME:  3C-1-A 48 FPS
* FROM FILE: 
* FROM COMMENT: 
267  Master   V     C        01:13:00:06 01:13:05:12 01:13:00:06 01:13:05:12
* FROM CLIP NAME:  3C-1-A 48 FPS
* FROM FILE: 
* FROM COMMENT: 
268  Master   V     C        01:13:05:12 01:13:09:19 01:13:05:12 01:13:09:19
* FROM CLIP NAME:  3C-1-A 48 FPS
* FROM FILE: 
* FROM COMMENT: 
269  Master   V     C        01:13:09:19 01:13:10:20 01:13:09:19 01:13:10:20
* FROM CLIP NAME:  3C-1-A 48 FPS
* FROM FILE: 
* FROM COMMENT: 
270  Master   V     C        01:13:10:20 01:13:12:13 01:13:10:20 01:13:12:13
* FROM CLIP NAME:  3C-1-A 48 FPS
* FROM FILE: 
* FROM COMMENT: 
271  Master   V     C        01:13:12:13 01:13:14:03 01:13:12:13 01:13:14:03
* FROM CLIP NAME:  3C-1-A 48 FPS
* FROM FILE: 
* FROM COMMENT: 
272  Master   V     C        01:13:14:03 01:13:15:18 01:13:14:03 01:13:15:18
* FROM CLIP NAME:  3C-1-A 48 FPS
* FROM FILE: 
* FROM COMMENT: 
273  Master   V     C        01:13:15:18 01:13:17:17 01:13:15:18 01:13:17:17
* FROM CLIP NAME:  3C-1-A 48 FPS
* FROM FILE: 
* FROM COMMENT: 
274  Master   V     C        01:13:17:17 01:13:19:10 01:13:17:17 01:13:19:10
* FROM CLIP NAME:  3C-1-A 48 FPS
* FROM FILE: 
* FROM COMMENT: 
275  Master   V     C        01:13:19:10 01:13:21:10 01:13:19:10 01:13:21:10
* FROM CLIP NAME:  3C-1-A 48 FPS
* FROM FILE: 
* FROM COMMENT: 
276  Master   V     C        01:13:21:10 01:13:22:16 01:13:21:10 01:13:22:16
* FROM CLIP NAME:  3C-1-A 48 FPS
* FROM FILE: 
* FROM COMMENT: 
277  Master   V     C        01:13:22:16 01:13:24:00 01:13:22:16 01:13:24:00
* FROM CLIP NAME:  3C-1-A 48 FPS
* FROM FILE: 
* FROM COMMENT: 
278  Master   V     C        01:13:24:00 01:13:25:15 01:13:24:00 01:13:25:15
* FROM CLIP NAME:  3C-1-A 48 FPS
* FROM FILE: 
* FROM COMMENT: 
279  Master   V     C        01:13:25:15 01:13:27:03 01:13:25:15 01:13:27:03
* FROM CLIP NAME:  3C-1-A 48 FPS
* FROM FILE: 
* FROM COMMENT: 
280  Master   V     C        01:13:27:03 01:13:28:09 01:13:27:03 01:13:28:09
* FROM CLIP NAME:  3C-1-A 48 FPS
* FROM FILE: 
* FROM COMMENT: 
281  Master   V     C        01:13:28:09 01:13:30:00 01:13:28:09 01:13:30:00
* FROM CLIP NAME:  3C-1-A 48 FPS
* FROM FILE: 
* FROM COMMENT: 
282  Master   V     C        01:13:30:00 01:13:30:17 01:13:30:00 01:13:30:17
* FROM CLIP NAME:  3C-1-A 48 FPS
* FROM FILE: 
* FROM COMMENT: 
283  Master   V     C        01:13:30:17 01:13:32:19 01:13:30:17 01:13:32:19
* FROM CLIP NAME:  3C-1-A 48 FPS
* FROM FILE: 
* FROM COMMENT: 
284  Master   V     C        01:13:32:19 01:13:34:02 01:13:32:19 01:13:34:02
* FROM CLIP NAME:  3C-1-A 48 FPS
* FROM FILE: 
* FROM COMMENT: 
285  Master   V     C        01:13:34:02 01:13:35:05 01:13:34:02 01:13:35:05
* FROM CLIP NAME:  3C-1-A 48 FPS
* FROM FILE: 
* FROM COMMENT: 
286  Master   V     C        01:13:35:05 01:13:36:23 01:13:35:05 01:13:36:23
* FROM CLIP NAME:  3C-1-A 48 FPS
* FROM FILE: 
* FROM COMMENT: 
287  Master   V     C        01:13:36:23 01:13:37:23 01:13:36:23 01:13:37:23
* FROM CLIP NAME:  3C-1-A 48 FPS
* FROM FILE: 
* FROM COMMENT: 
288  Master   V     C        01:13:37:23 01:13:41:05 01:13:37:23 01:13:41:05
* FROM CLIP NAME:  3C-1-A 48 FPS
* FROM FILE: 
* FROM COMMENT: 
289  Master   V     C        01:13:41:05 01:13:42:22 01:13:41:05 01:13:42:22
* FROM CLIP NAME:  3C-1-A 48 FPS
* FROM FILE: 
* FROM COMMENT: 
290  Master   V     C        01:13:42:22 01:13:46:04 01:13:42:22 01:13:46:04
* FROM CLIP NAME:  3C-1-A 48 FPS
* FROM FILE: 
* FROM COMMENT: 
291  Master   V     C        01:13:46:04 01:13:47:03 01:13:46:04 01:13:47:03
* FROM CLIP NAME:  3C-1-A 48 FPS
* FROM FILE: 
* FROM COMMENT: 
292  Master   V     C        01:13:47:03 01:13:48:03 01:13:47:03 01:13:48:03
* FROM CLIP NAME:  3C-1-A 48 FPS
* FROM FILE: 
* FROM COMMENT: 
293  Master   V     C        01:13:48:03 01:13:50:02 01:13:48:03 01:13:50:02
* FROM CLIP NAME:  3C-1-A 48 FPS
* FROM FILE: 
* FROM COMMENT: 
294  Master   V     C        01:13:50:02 01:13:53:11 01:13:50:02 01:13:53:11
* FROM CLIP NAME:  3C-1-A 48 FPS
* FROM FILE: 
* FROM COMMENT: 
295  Master   V     C        01:13:53:11 01:13:55:14 01:13:53:11 01:13:55:14
* FROM CLIP NAME:  3C-1-A 48 FPS
* FROM FILE: 
* FROM COMMENT: 
296  Master   V     C        01:13:55:14 01:14:02:01 01:13:55:14 01:14:02:01
* FROM CLIP NAME:  3C-1-A 48 FPS
* FROM FILE: 
* FROM COMMENT: 
297  Master   V     C        01:14:02:01 01:14:09:06 01:14:02:01 01:14:09:06
* FROM CLIP NAME:  3C-1-A 48 FPS
* FROM FILE: 
* FROM COMMENT: 
298  Master   V     C        01:14:09:06 01:14:11:00 01:14:09:06 01:14:11:00
* FROM CLIP NAME:  3C-1-A 48 FPS
* FROM FILE: 
* FROM COMMENT: 
299  Master   V     C        01:14:11:00 01:14:14:08 01:14:11:00 01:14:14:08
* FROM CLIP NAME:  3C-1-A 48 FPS
* FROM FILE: 
* FROM COMMENT: 
300  Master   V     C        01:14:14:08 01:14:21:13 01:14:14:08 01:14:21:13
* FROM CLIP NAME:  3C-1-A 48 FPS
* FROM FILE: 
* FROM COMMENT: 
301  Master   V     C        01:14:21:13 01:14:23:08 01:14:21:13 01:14:23:08
* FROM CLIP NAME:  3C-1-A 48 FPS
* FROM FILE: 
* FROM COMMENT: 
302  Master   V     C        01:14:23:08 01:14:24:21 01:14:23:08 01:14:24:21
* FROM CLIP NAME:  3C-1-A 48 FPS
* FROM FILE: 
* FROM COMMENT: 
303  Master   V     C        01:14:24:21 01:14:26:20 01:14:24:21 01:14:26:20
* FROM CLIP NAME:  3C-1-A 48 FPS
* FROM FILE: 
* FROM COMMENT: 
304  Master   V     C        01:14:26:20 01:14:29:02 01:14:26:20 01:14:29:02
* FROM CLIP NAME:  3C-1-A 48 FPS
* FROM FILE: 
* FROM COMMENT: 
305  Master   V     C        01:14:29:02 01:14:31:05 01:14:29:02 01:14:31:05
* FROM CLIP NAME:  3C-1-A 48 FPS
* FROM FILE: 
* FROM COMMENT: 
306  Master   V     C        01:14:31:05 01:14:32:16 01:14:31:05 01:14:32:16
* FROM CLIP NAME:  3C-1-A 48 FPS
* FROM FILE: 
* FROM COMMENT: 
307  Master   V     C        01:14:32:16 01:14:35:17 01:14:32:16 01:14:35:17
* FROM CLIP NAME:  3C-1-A 48 FPS
* FROM FILE: 
* FROM COMMENT: 
308  Master   V     C        01:14:35:17 01:14:40:11 01:14:35:17 01:14:40:11
* FROM CLIP NAME:  3C-1-A 48 FPS
* FROM FILE: 
* FROM COMMENT: 
309  Master   V     C        01:14:40:11 01:14:49:04 01:14:40:11 01:14:49:04
* FROM CLIP NAME:  3C-1-A 48 FPS
* FROM FILE: 
* FROM COMMENT: 
310  Master   V     C        01:14:49:04 01:14:55:02 01:14:49:04 01:14:55:02
* FROM CLIP NAME:  3C-1-A 48 FPS
* FROM FILE: 
* FROM COMMENT: 
311  Master   V     C        01:14:55:02 01:15:03:15 01:14:55:02 01:15:03:15
* FROM CLIP NAME:  3C-1-A 48 FPS
* FROM FILE: 
* FROM COMMENT: 
312  Master   V     C        01:15:03:15 01:15:05:14 01:15:03:15 01:15:05:14
* FROM CLIP NAME:  3C-1-A 48 FPS
* FROM FILE: 
* FROM COMMENT: 
313  Master   V     C        01:15:05:14 01:15:14:11 01:15:05:14 01:15:14:11
* FROM CLIP NAME:  3C-1-A 48 FPS
* FROM FILE: 
* FROM COMMENT: 
314  Master   V     C        01:15:14:11 01:15:19:12 01:15:14:11 01:15:19:12
* FROM CLIP NAME:  3C-1-A 48 FPS
* FROM FILE: 
* FROM COMMENT: 
315  Master   V     C        01:15:19:12 01:15:24:15 01:15:19:12 01:15:24:15
* FROM CLIP NAME:  3C-1-A 48 FPS
* FROM FILE: 
* FROM COMMENT: 
316  Master   V     C        01:15:24:15 01:15:28:00 01:15:24:15 01:15:28:00
* FROM CLIP NAME:  3C-1-A 48 FPS
* FROM FILE: 
* FROM COMMENT: 
317  Master   V     C        01:15:28:00 01:15:30:10 01:15:28:00 01:15:30:10
* FROM CLIP NAME:  3C-1-A 48 FPS
* FROM FILE: 
* FROM COMMENT: 
318  Master   V     C        01:15:30:10 01:15:38:12 01:15:30:10 01:15:38:12
* FROM CLIP NAME:  3C-1-A 48 FPS
* FROM FILE: 
* FROM COMMENT: 
319  Master   V     C        01:15:38:12 01:15:41:10 01:15:38:12 01:15:41:10
* FROM CLIP NAME:  3C-1-A 48 FPS
* FROM FILE: 
* FROM COMMENT: 
320  Master   V     C        01:15:41:10 01:15:43:12 01:15:41:10 01:15:43:12
* FROM CLIP NAME:  3C-1-A 48 FPS
* FROM FILE: 
* FROM COMMENT: 
321  Master   V     C        01:15:43:12 01:15:45:23 01:15:43:12 01:15:45:23
* FROM CLIP NAME:  3C-1-A 48 FPS
* FROM FILE: 
* FROM COMMENT: 
322  Master   V     C        01:15:45:23 01:15:48:15 01:15:45:23 01:15:48:15
* FROM CLIP NAME:  3C-1-A 48 FPS
* FROM FILE: 
* FROM COMMENT: 
323  Master   V     C        01:15:48:15 01:15:50:09 01:15:48:15 01:15:50:09
* FROM CLIP NAME:  3C-1-A 48 FPS
* FROM FILE: 
* FROM COMMENT: 
324  Master   V     C        01:15:50:09 01:15:52:16 01:15:50:09 01:15:52:16
* FROM CLIP NAME:  3C-1-A 48 FPS
* FROM FILE: 
* FROM COMMENT: 
325  Master   V     C        01:15:52:16 01:15:55:02 01:15:52:16 01:15:55:02
* FROM CLIP NAME:  3C-1-A 48 FPS
* FROM FILE: 
* FROM COMMENT: 
326  Master   V     C        01:15:55:02 01:15:57:09 01:15:55:02 01:15:57:09
* FROM CLIP NAME:  3C-1-A 48 FPS
* FROM FILE: 
* FROM COMMENT: 
327  Master   V     C        01:15:57:09 01:16:01:09 01:15:57:09 01:16:01:09
* FROM CLIP NAME:  3C-1-A 48 FPS
* FROM FILE: 
* FROM COMMENT: 
328  Master   V     C        01:16:01:09 01:16:03:07 01:16:01:09 01:16:03:07
* FROM CLIP NAME:  3C-1-A 48 FPS
* FROM FILE: 
* FROM COMMENT: 
329  Master   V     C        01:16:03:07 01:16:06:23 01:16:03:07 01:16:06:23
* FROM CLIP NAME:  3C-1-A 48 FPS
* FROM FILE: 
* FROM COMMENT: 
330  Master   V     C        01:16:06:23 01:16:11:12 01:16:06:23 01:16:11:12
* FROM CLIP NAME:  3C-1-A 48 FPS
* FROM FILE: 
* FROM COMMENT: 
331  Master   V     C        01:16:11:12 01:16:12:12 01:16:11:12 01:16:12:12
* FROM CLIP NAME:  3C-1-A 48 FPS
* FROM FILE: 
* FROM COMMENT: 
332  Master   V     C        01:16:12:12 01:16:13:00 01:16:12:12 01:16:13:00
* FROM CLIP NAME:  3C-1-A 48 FPS
* FROM FILE: 
* FROM COMMENT: 
333  Master   V     C        01:16:13:00 01:16:17:00 01:16:13:00 01:16:17:00
* FROM CLIP NAME:  3C-1-A 48 FPS
* FROM FILE: 
* FROM COMMENT: 
334  Master   V     C        01:16:17:00 01:16:18:22 01:16:17:00 01:16:18:22
* FROM CLIP NAME:  3C-1-A 48 FPS
* FROM FILE: 
* FROM COMMENT: 
335  Master   V     C        01:16:18:22 01:16:23:09 01:16:18:22 01:16:23:09
* FROM CLIP NAME:  3C-1-A 48 FPS
* FROM FILE: 
* FROM COMMENT: 
336  Master   V     C        01:16:23:09 01:16:26:16 01:16:23:09 01:16:26:16
* FROM CLIP NAME:  3C-1-A 48 FPS
* FROM FILE: 
* FROM COMMENT: 
337  Master   V     C        01:16:26:16 01:16:29:22 01:16:26:16 01:16:29:22
* FROM CLIP NAME:  3C-1-A 48 FPS
* FROM FILE: 
* FROM COMMENT: 
338  Master   V     C        01:16:29:22 01:16:32:03 01:16:29:22 01:16:32:03
* FROM CLIP NAME:  3C-1-A 48 FPS
* FROM FILE: 
* FROM COMMENT: 
339  Master   V     C        01:16:32:03 01:16:34:03 01:16:32:03 01:16:34:03
* FROM CLIP NAME:  3C-1-A 48 FPS
* FROM FILE: 
* FROM COMMENT: 
340  Master   V     C        01:16:34:03 01:16:35:14 01:16:34:03 01:16:35:14
* FROM CLIP NAME:  3C-1-A 48 FPS
* FROM FILE: 
* FROM COMMENT: 
341  Master   V     C        01:16:35:14 01:16:39:09 01:16:35:14 01:16:39:09
* FROM CLIP NAME:  3C-1-A 48 FPS
* FROM FILE: 
* FROM COMMENT: 
342  Master   V     C        01:16:39:09 01:16:46:11 01:16:39:09 01:16:46:11
* FROM CLIP NAME:  3C-1-A 48 FPS
* FROM FILE: 
* FROM COMMENT: 
343  Master   V     C        01:16:46:11 01:16:51:00 01:16:46:11 01:16:51:00
* FROM CLIP NAME:  3C-1-A 48 FPS
* FROM FILE: 
* FROM COMMENT: 
344  Master   V     C        01:16:51:00 01:16:55:07 01:16:51:00 01:16:55:07
* FROM CLIP NAME:  3C-1-A 48 FPS
* FROM FILE: 
* FROM COMMENT: 
345  Master   V     C        01:16:55:07 01:16:58:01 01:16:55:07 01:16:58:01
* FROM CLIP NAME:  3C-1-A 48 FPS
* FROM FILE: 
* FROM COMMENT: 
346  Master   V     C        01:16:58:01 01:17:00:00 01:16:58:01 01:17:00:00
* FROM CLIP NAME:  3C-1-A 48 FPS
* FROM FILE: 
* FROM COMMENT: 
347  Master   V     C        01:17:00:00 01:17:02:01 01:17:00:00 01:17:02:01
* FROM CLIP NAME:  3C-1-A 48 FPS
* FROM FILE: 
* FROM COMMENT: 
348  Master   V     C        01:17:02:01 01:17:06:06 01:17:02:01 01:17:06:06
* FROM CLIP NAME:  3C-1-A 48 FPS
* FROM FILE: 
* FROM COMMENT: 
349  Master   V     C        01:17:06:06 01:17:10:09 01:17:06:06 01:17:10:09
* FROM CLIP NAME:  3C-1-A 48 FPS
* FROM FILE: 
* FROM COMMENT: 
350  Master   V     C        01:17:10:09 01:17:13:14 01:17:10:09 01:17:13:14
* FROM CLIP NAME:  3C-1-A 48 FPS
* FROM FILE: 
* FROM COMMENT: 
351  Master   V     C        01:17:13:14 01:17:15:22 01:17:13:14 01:17:15:22
* FROM CLIP NAME:  3C-1-A 48 FPS
* FROM FILE: 
* FROM COMMENT: 
352  Master   V     C        01:17:15:22 01:17:19:20 01:17:15:22 01:17:19:20
* FROM CLIP NAME:  3C-1-A 48 FPS
* FROM FILE: 
* FROM COMMENT: 
353  Master   V     C        01:17:19:20 01:17:23:00 01:17:19:20 01:17:23:00
* FROM CLIP NAME:  3C-1-A 48 FPS
* FROM FILE: 
* FROM COMMENT: 
354  Master   V     C        01:17:23:00 01:17:25:05 01:17:23:00 01:17:25:05
* FROM CLIP NAME:  3C-1-A 48 FPS
* FROM FILE: 
* FROM COMMENT: 
355  Master   V     C        01:17:25:05 01:17:28:16 01:17:25:05 01:17:28:16
* FROM CLIP NAME:  3C-1-A 48 FPS
* FROM FILE: 
* FROM COMMENT: 
356  Master   V     C        01:17:28:16 01:17:33:08 01:17:28:16 01:17:33:08
* FROM CLIP NAME:  3C-1-A 48 FPS
* FROM FILE: 
* FROM COMMENT: 
357  Master   V     C        01:17:33:08 01:17:40:22 01:17:33:08 01:17:40:22
* FROM CLIP NAME:  3C-1-A 48 FPS
* FROM FILE: 
* FROM COMMENT: 
358  Master   V     C        01:17:40:22 01:17:45:14 01:17:40:22 01:17:45:14
* FROM CLIP NAME:  3C-1-A 48 FPS
* FROM FILE: 
* FROM COMMENT: 
359  Master   V     C        01:17:45:14 01:17:51:06 01:17:45:14 01:17:51:06
* FROM CLIP NAME:  3C-1-A 48 FPS
* FROM FILE: 
* FROM COMMENT: 
360  Master   V     C        01:17:51:06 01:17:55:12 01:17:51:06 01:17:55:12
* FROM CLIP NAME:  3C-1-A 48 FPS
* FROM FILE: 
* FROM COMMENT: 
361  Master   V     C        01:17:55:12 01:17:57:09 01:17:55:12 01:17:57:09
* FROM CLIP NAME:  3C-1-A 48 FPS
* FROM FILE: 
* FROM COMMENT: 
362  Master   V     C        01:17:57:09 01:18:02:05 01:17:57:09 01:18:02:05
* FROM CLIP NAME:  3C-1-A 48 FPS
* FROM FILE: 
* FROM COMMENT: 
363  Master   V     C        01:18:02:05 01:18:04:08 01:18:02:05 01:18:04:08
* FROM CLIP NAME:  3C-1-A 48 FPS
* FROM FILE: 
* FROM COMMENT: 
364  Master   V     C        01:18:04:08 01:18:06:03 01:18:04:08 01:18:06:03
* FROM CLIP NAME:  3C-1-A 48 FPS
* FROM FILE: 
* FROM COMMENT: 
365  Master   V     C        01:18:06:03 01:18:08:05 01:18:06:03 01:18:08:05
* FROM CLIP NAME:  3C-1-A 48 FPS
* FROM FILE: 
* FROM COMMENT: 
366  Master   V     C        01:18:08:05 01:18:13:01 01:18:08:05 01:18:13:01
* FROM CLIP NAME:  3C-1-A 48 FPS
* FROM FILE: 
* FROM COMMENT: 
367  Master   V     C        01:18:13:01 01:18:15:18 01:18:13:01 01:18:15:18
* FROM CLIP NAME:  3C-1-A 48 FPS
* FROM FILE: 
* FROM COMMENT: 
368  Master   V     C        01:18:15:18 01:18:18:02 01:18:15:18 01:18:18:02
* FROM CLIP NAME:  3C-1-A 48 FPS
* FROM FILE: 
* FROM COMMENT: 
369  Master   V     C        01:18:18:02 01:18:20:19 01:18:18:02 01:18:20:19
* FROM CLIP NAME:  3C-1-A 48 FPS
* FROM FILE: 
* FROM COMMENT: 
370  Master   V     C        01:18:20:19 01:18:27:17 01:18:20:19 01:18:27:17
* FROM CLIP NAME:  3C-1-A 48 FPS
* FROM FILE: 
* FROM COMMENT: 
371  Master   V     C        01:18:27:17 01:18:29:09 01:18:27:17 01:18:29:09
* FROM CLIP NAME:  3C-1-A 48 FPS
* FROM FILE: 
* FROM COMMENT: 
372  Master   V     C        01:18:29:09 01:18:34:23 01:18:29:09 01:18:34:23
* FROM CLIP NAME:  3C-1-A 48 FPS
* FROM FILE: 
* FROM COMMENT: 
373  Master   V     C        01:18:34:23 01:18:37:02 01:18:34:23 01:18:37:02
* FROM CLIP NAME:  3C-1-A 48 FPS
* FROM FILE: 
* FROM COMMENT: 
374  Master   V     C        01:18:37:02 01:18:39:13 01:18:37:02 01:18:39:13
* FROM CLIP NAME:  3C-1-A 48 FPS
* FROM FILE: 
* FROM COMMENT: 
375  Master   V     C        01:18:39:13 01:18:41:01 01:18:39:13 01:18:41:01
* FROM CLIP NAME:  3C-1-A 48 FPS
* FROM FILE: 
* FROM COMMENT: 
376  Master   V     C        01:18:41:01 01:18:42:10 01:18:41:01 01:18:42:10
* FROM CLIP NAME:  3C-1-A 48 FPS
* FROM FILE: 
* FROM COMMENT: 
377  Master   V     C        01:18:42:10 01:18:50:12 01:18:42:10 01:18:50:12
* FROM CLIP NAME:  3C-1-A 48 FPS
* FROM FILE: 
* FROM COMMENT: 
378  Master   V     C        01:18:50:12 01:18:52:12 01:18:50:12 01:18:52:12
* FROM CLIP NAME:  3C-1-A 48 FPS
* FROM FILE: 
* FROM COMMENT: 
379  Master   V     C        01:18:52:12 01:18:55:05 01:18:52:12 01:18:55:05
* FROM CLIP NAME:  3C-1-A 48 FPS
* FROM FILE: 
* FROM COMMENT: 
380  Master   V     C        01:18:55:05 01:18:57:15 01:18:55:05 01:18:57:15
* FROM CLIP NAME:  3C-1-A 48 FPS
* FROM FILE: 
* FROM COMMENT: 
381  Master   V     C        01:18:57:15 01:18:59:12 01:18:57:15 01:18:59:12
* FROM CLIP NAME:  3C-1-A 48 FPS
* FROM FILE: 
* FROM COMMENT: 
382  Master   V     C        01:18:59:12 01:19:03:19 01:18:59:12 01:19:03:19
* FROM CLIP NAME:  3C-1-A 48 FPS
* FROM FILE: 
* FROM COMMENT: 
383  Master   V     C        01:19:03:19 01:19:07:00 01:19:03:19 01:19:07:00
* FROM CLIP NAME:  3C-1-A 48 FPS
* FROM FILE: 
* FROM COMMENT: 
384  Master   V     C        01:19:07:00 01:19:09:17 01:19:07:00 01:19:09:17
* FROM CLIP NAME:  3C-1-A 48 FPS
* FROM FILE: 
* FROM COMMENT: 
385  Master   V     C        01:19:09:17 01:19:12:19 01:19:09:17 01:19:12:19
* FROM CLIP NAME:  3C-1-A 48 FPS
* FROM FILE: 
* FROM COMMENT: 
386  Master   V     C        01:19:12:19 01:19:14:18 01:19:12:19 01:19:14:18
* FROM CLIP NAME:  3C-1-A 48 FPS
* FROM FILE: 
* FROM COMMENT: 
387  Master   V     C        01:19:14:18 01:19:15:22 01:19:14:18 01:19:15:22
* FROM CLIP NAME:  3C-1-A 48 FPS
* FROM FILE: 
* FROM COMMENT: 
388  Master   V     C        01:19:15:22 01:19:18:07 01:19:15:22 01:19:18:07
* FROM CLIP NAME:  3C-1-A 48 FPS
* FROM FILE: 
* FROM COMMENT: 
389  Master   V     C        01:19:18:07 01:19:20:16 01:19:18:07 01:19:20:16
* FROM CLIP NAME:  3C-1-A 48 FPS
* FROM FILE: 
* FROM COMMENT: 
390  Master   V     C        01:19:20:16 01:19:24:22 01:19:20:16 01:19:24:22
* FROM CLIP NAME:  3C-1-A 48 FPS
* FROM FILE: 
* FROM COMMENT: 
391  Master   V     C        01:19:24:22 01:19:27:19 01:19:24:22 01:19:27:19
* FROM CLIP NAME:  3C-1-A 48 FPS
* FROM FILE: 
* FROM COMMENT: 
392  Master   V     C        01:19:27:19 01:19:29:23 01:19:27:19 01:19:29:23
* FROM CLIP NAME:  3C-1-A 48 FPS
* FROM FILE: 
* FROM COMMENT: 
393  Master   V     C        01:19:29:23 01:19:33:09 01:19:29:23 01:19:33:09
* FROM CLIP NAME:  3C-1-A 48 FPS
* FROM FILE: 
* FROM COMMENT: 
394  Master   V     C        01:19:33:09 01:19:35:18 01:19:33:09 01:19:35:18
* FROM CLIP NAME:  3C-1-A 48 FPS
* FROM FILE: 
* FROM COMMENT: 
395  Master   V     C        01:19:35:18 01:19:38:16 01:19:35:18 01:19:38:16
* FROM CLIP NAME:  3C-1-A 48 FPS
* FROM FILE: 
* FROM COMMENT: 
396  Master   V     C        01:19:38:16 01:19:41:08 01:19:38:16 01:19:41:08
* FROM CLIP NAME:  3C-1-A 48 FPS
* FROM FILE: 
* FROM COMMENT: 
397  Master   V     C        01:19:41:08 01:19:43:09 01:19:41:08 01:19:43:09
* FROM CLIP NAME:  3C-1-A 48 FPS
* FROM FILE: 
* FROM COMMENT: 
398  Master   V     C        01:19:43:09 01:19:44:17 01:19:43:09 01:19:44:17
* FROM CLIP NAME:  3C-1-A 48 FPS
* FROM FILE: 
* FROM COMMENT: 
399  Master   V     C        01:19:44:17 01:19:48:11 01:19:44:17 01:19:48:11
* FROM CLIP NAME:  3C-1-A 48 FPS
* FROM FILE: 
* FROM COMMENT: 
400  Master   V     C        01:19:48:11 01:19:50:12 01:19:48:11 01:19:50:12
* FROM CLIP NAME:  3C-1-A 48 FPS
* FROM FILE: 
* FROM COMMENT: 
401  Master   V     C        01:19:50:12 01:19:53:04 01:19:50:12 01:19:53:04
* FROM CLIP NAME:  3C-1-A 48 FPS
* FROM FILE: 
* FROM COMMENT: 
402  Master   V     C        01:19:53:04 01:19:54:06 01:19:53:04 01:19:54:06
* FROM CLIP NAME:  3C-1-A 48 FPS
* FROM FILE: 
* FROM COMMENT: 
403  Master   V     C        01:19:54:06 01:19:55:23 01:19:54:06 01:19:55:23
* FROM CLIP NAME:  3C-1-A 48 FPS
* FROM FILE: 
* FROM COMMENT: 
404  Master   V     C        01:19:55:23 01:19:59:13 01:19:55:23 01:19:59:13
* FROM CLIP NAME:  3C-1-A 48 FPS
* FROM FILE: 
* FROM COMMENT: 
405  Master   V     C        01:19:59:13 01:20:02:05 01:19:59:13 01:20:02:05
* FROM CLIP NAME:  3C-1-A 48 FPS
* FROM FILE: 
* FROM COMMENT: 
406  Master   V     C        01:20:02:05 01:20:04:08 01:20:02:05 01:20:04:08
* FROM CLIP NAME:  3C-1-A 48 FPS
* FROM FILE: 
* FROM COMMENT: 
407  Master   V     C        01:20:04:08 01:20:06:06 01:20:04:08 01:20:06:06
* FROM CLIP NAME:  3C-1-A 48 FPS
* FROM FILE: 
* FROM COMMENT: 
408  Master   V     C        01:20:06:06 01:20:09:21 01:20:06:06 01:20:09:21
* FROM CLIP NAME:  3C-1-A 48 FPS
* FROM FILE: 
* FROM COMMENT: 
409  Master   V     C        01:20:09:21 01:20:14:05 01:20:09:21 01:20:14:05
* FROM CLIP NAME:  3C-1-A 48 FPS
* FROM FILE: 
* FROM COMMENT: 
410  Master   V     C        01:20:14:05 01:20:17:10 01:20:14:05 01:20:17:10
* FROM CLIP NAME:  3C-1-A 48 FPS
* FROM FILE: 
* FROM COMMENT: 
411  Master   V     C        01:20:17:10 01:20:24:19 01:20:17:10 01:20:24:19
* FROM CLIP NAME:  3C-1-A 48 FPS
* FROM FILE: 
* FROM COMMENT: 
412  Master   V     C        01:20:24:19 01:20:27:00 01:20:24:19 01:20:27:00
* FROM CLIP NAME:  3C-1-A 48 FPS
* FROM FILE: 
* FROM COMMENT: 
413  Master   V     C        01:20:27:00 01:20:32:20 01:20:27:00 01:20:32:20
* FROM CLIP NAME:  3C-1-A 48 FPS
* FROM FILE: 
* FROM COMMENT: 
414  Master   V     C        01:20:32:20 01:20:36:21 01:20:32:20 01:20:36:21
* FROM CLIP NAME:  3C-1-A 48 FPS
* FROM FILE: 
* FROM COMMENT: 
415  Master   V     C        01:20:36:21 01:20:38:11 01:20:36:21 01:20:38:11
* FROM CLIP NAME:  3C-1-A 48 FPS
* FROM FILE: 
* FROM COMMENT: 
416  Master   V     C        01:20:38:11 01:20:39:23 01:20:38:11 01:20:39:23
* FROM CLIP NAME:  3C-1-A 48 FPS
* FROM FILE: 
* FROM COMMENT: 
417  Master   V     C        01:20:39:23 01:20:44:18 01:20:39:23 01:20:44:18
* FROM CLIP NAME:  3C-1-A 48 FPS
* FROM FILE: 
* FROM COMMENT: 
418  Master   V     C        01:20:44:18 01:20:49:20 01:20:44:18 01:20:49:20
* FROM CLIP NAME:  3C-1-A 48 FPS
* FROM FILE: 
* FROM COMMENT: 
419  Master   V     C        01:20:49:20 01:20:52:00 01:20:49:20 01:20:52:00
* FROM CLIP NAME:  3C-1-A 48 FPS
* FROM FILE: 
* FROM COMMENT: 
420  Master   V     C        01:20:52:00 01:20:55:04 01:20:52:00 01:20:55:04
* FROM CLIP NAME:  3C-1-A 48 FPS
* FROM FILE: 
* FROM COMMENT: 
421  Master   V     C        01:20:55:04 01:21:10:23 01:20:55:04 01:21:10:23
* FROM CLIP NAME:  3C-1-A 48 FPS
* FROM FILE: 
* FROM COMMENT: 
422  Master   V     C        01:21:10:23 01:21:13:09 01:21:10:23 01:21:13:09
* FROM CLIP NAME:  3C-1-A 48 FPS
* FROM FILE: 
* FROM COMMENT: 
423  Master   V     C        01:21:13:09 01:21:15:00 01:21:13:09 01:21:15:00
* FROM CLIP NAME:  3C-1-A 48 FPS
* FROM FILE: 
* FROM COMMENT: 
424  Master   V     C        01:21:15:00 01:21:18:05 01:21:15:00 01:21:18:05
* FROM CLIP NAME:  3C-1-A 48 FPS
* FROM FILE: 
* FROM COMMENT: 
425  Master   V     C        01:21:18:05 01:21:22:19 01:21:18:05 01:21:22:19
* FROM CLIP NAME:  3C-1-A 48 FPS
* FROM FILE: 
* FROM COMMENT: 
426  Master   V     C        01:21:22:19 01:21:28:00 01:21:22:19 01:21:28:00
* FROM CLIP NAME:  3C-1-A 48 FPS
* FROM FILE: 
* FROM COMMENT: 
427  Master   V     C        01:21:28:00 01:21:30:03 01:21:28:00 01:21:30:03
* FROM CLIP NAME:  3C-1-A 48 FPS
* FROM FILE: 
* FROM COMMENT: 
428  Master   V     C        01:21:30:03 01:21:32:02 01:21:30:03 01:21:32:02
* FROM CLIP NAME:  3C-1-A 48 FPS
* FROM FILE: 
* FROM COMMENT: 
429  Master   V     C        01:21:32:02 01:21:33:23 01:21:32:02 01:21:33:23
* FROM CLIP NAME:  3C-1-A 48 FPS
* FROM FILE: 
* FROM COMMENT: 
430  Master   V     C        01:21:33:23 01:21:35:15 01:21:33:23 01:21:35:15
* FROM CLIP NAME:  3C-1-A 48 FPS
* FROM FILE: 
* FROM COMMENT: 
431  Master   V     C        01:21:35:15 01:21:39:20 01:21:35:15 01:21:39:20
* FROM CLIP NAME:  3C-1-A 48 FPS
* FROM FILE: 
* FROM COMMENT: 
432  Master   V     C        01:21:39:20 01:21:43:15 01:21:39:20 01:21:43:15
* FROM CLIP NAME:  3C-1-A 48 FPS
* FROM FILE: 
* FROM COMMENT: 
433  Master   V     C        01:21:43:15 01:21:46:03 01:21:43:15 01:21:46:03
* FROM CLIP NAME:  3C-1-A 48 FPS
* FROM FILE: 
* FROM COMMENT: 
434  Master   V     C        01:21:46:03 01:21:58:18 01:21:46:03 01:21:58:18
* FROM CLIP NAME:  3C-1-A 48 FPS
* FROM FILE: 
* FROM COMMENT: 
435  Master   V     C        01:21:58:18 01:21:58:18 01:21:58:18 01:21:58:18
435 Master   V     D    001 01:21:58:18 01:21:58:19 01:21:58:18 01:21:58:19
* FROM CLIP NAME:  3C-1-A 48 FPS
* FROM FILE: 
* FROM COMMENT: 
* TO CLIP NAME:  3C-1-A 48 FPS
* TO FILE: 
* TO COMMENT: 
436  Master   V     C        01:21:58:19 01:21:59:13 01:21:58:19 01:21:59:13
* FROM CLIP NAME:  3C-1-A 48 FPS
* FROM FILE: 
* FROM COMMENT: 
437  Master   V     C        01:21:59:13 01:22:00:13 01:21:59:13 01:22:00:13
* FROM CLIP NAME:  3C-1-A 48 FPS
* FROM FILE: 
* FROM COMMENT: 
438  Master   V     C        01:22:00:13 01:22:01:01 01:22:00:13 01:22:01:01
* FROM CLIP NAME:  3C-1-A 48 FPS
* FROM FILE: 
* FROM COMMENT: 
439  Master   V     C        01:22:01:01 01:22:06:01 01:22:01:01 01:22:06:01
* FROM CLIP NAME:  3C-1-A 48 FPS
* FROM FILE: 
* FROM COMMENT: 
440  Master   V     C        01:22:06:01 01:22:09:11 01:22:06:01 01:22:09:11
* FROM CLIP NAME:  3C-1-A 48 FPS
* FROM FILE: 
* FROM COMMENT: 
441  Master   V     C        01:22:09:11 01:22:13:08 01:22:09:11 01:22:13:08
* FROM CLIP NAME:  3C-1-A 48 FPS
* FROM FILE: 
* FROM COMMENT: 
442  Master   V     C        01:22:13:08 01:22:15:07 01:22:13:08 01:22:15:07
* FROM CLIP NAME:  3C-1-A 48 FPS
* FROM FILE: 
* FROM COMMENT: 
443  Master   V     C        01:22:15:07 01:22:18:05 01:22:15:07 01:22:18:05
* FROM CLIP NAME:  3C-1-A 48 FPS
* FROM FILE: 
* FROM COMMENT: 
444  Master   V     C        01:22:18:05 01:22:23:20 01:22:18:05 01:22:23:20
* FROM CLIP NAME:  3C-1-A 48 FPS
* FROM FILE: 
* FROM COMMENT: 
445  Master   V     C        01:22:23:20 01:22:32:19 01:22:23:20 01:22:32:19
* FROM CLIP NAME:  3C-1-A 48 FPS
* FROM FILE: 
* FROM COMMENT: 
446  Master   V     C        01:22:32:19 01:22:35:12 01:22:32:19 01:22:35:12
* FROM CLIP NAME:  3C-1-A 48 FPS
* FROM FILE: 
* FROM COMMENT: 
447  Master   V     C        01:22:35:12 01:22:38:11 01:22:35:12 01:22:38:11
* FROM CLIP NAME:  3C-1-A 48 FPS
* FROM FILE: 
* FROM COMMENT: 
448  Master   V     C        01:22:38:11 01:22:45:23 01:22:38:11 01:22:45:23
* FROM CLIP NAME:  3C-1-A 48 FPS
* FROM FILE: 
* FROM COMMENT: 
449  Master   V     C        01:22:45:23 01:22:50:19 01:22:45:23 01:22:50:19
* FROM CLIP NAME:  3C-1-A 48 FPS
* FROM FILE: 
* FROM COMMENT: 
450  Master   V     C        01:22:50:19 01:22:54:00 01:22:50:19 01:22:54:00
* FROM CLIP NAME:  3C-1-A 48 FPS
* FROM FILE: 
* FROM COMMENT: 
451  Master   V     C        01:22:54:00 01:22:55:22 01:22:54:00 01:22:55:22
* FROM CLIP NAME:  3C-1-A 48 FPS
* FROM FILE: 
* FROM COMMENT: 
452  Master   V     C        01:22:55:22 01:22:59:17 01:22:55:22 01:22:59:17
* FROM CLIP NAME:  3C-1-A 48 FPS
* FROM FILE: 
* FROM COMMENT: 
453  Master   V     C        01:22:59:17 01:23:01:20 01:22:59:17 01:23:01:20
* FROM CLIP NAME:  3C-1-A 48 FPS
* FROM FILE: 
* FROM COMMENT: 
454  Master   V     C        01:23:01:20 01:23:03:02 01:23:01:20 01:23:03:02
* FROM CLIP NAME:  3C-1-A 48 FPS
* FROM FILE: 
* FROM COMMENT: 
455  Master   V     C        01:23:03:02 01:23:04:23 01:23:03:02 01:23:04:23
* FROM CLIP NAME:  3C-1-A 48 FPS
* FROM FILE: 
* FROM COMMENT: 
456  Master   V     C        01:23:04:23 01:23:08:00 01:23:04:23 01:23:08:00
* FROM CLIP NAME:  3C-1-A 48 FPS
* FROM FILE: 
* FROM COMMENT: 
457  Master   V     C        01:23:08:00 01:23:10:18 01:23:08:00 01:23:10:18
* FROM CLIP NAME:  3C-1-A 48 FPS
* FROM FILE: 
* FROM COMMENT: 
458  Master   V     C        01:23:10:18 01:23:13:02 01:23:10:18 01:23:13:02
* FROM CLIP NAME:  3C-1-A 48 FPS
* FROM FILE: 
* FROM COMMENT: 
459  Master   V     C        01:23:13:02 01:23:15:09 01:23:13:02 01:23:15:09
* FROM CLIP NAME:  3C-1-A 48 FPS
* FROM FILE: 
* FROM COMMENT: 
460  Master   V     C        01:23:15:09 01:23:17:23 01:23:15:09 01:23:17:23
* FROM CLIP NAME:  3C-1-A 48 FPS
* FROM FILE: 
* FROM COMMENT: 
461  Master   V     C        01:23:17:23 01:23:19:20 01:23:17:23 01:23:19:20
* FROM CLIP NAME:  3C-1-A 48 FPS
* FROM FILE: 
* FROM COMMENT: 
462  Master   V     C        01:23:19:20 01:23:22:04 01:23:19:20 01:23:22:04
* FROM CLIP NAME:  3C-1-A 48 FPS
* FROM FILE: 
* FROM COMMENT: 
463  Master   V     C        01:23:22:04 01:23:25:00 01:23:22:04 01:23:25:00
* FROM CLIP NAME:  3C-1-A 48 FPS
* FROM FILE: 
* FROM COMMENT: 
464  Master   V     C        01:23:25:00 01:23:28:19 01:23:25:00 01:23:28:19
* FROM CLIP NAME:  3C-1-A 48 FPS
* FROM FILE: 
* FROM COMMENT: 
465  Master   V     C        01:23:28:19 01:23:30:07 01:23:28:19 01:23:30:07
* FROM CLIP NAME:  3C-1-A 48 FPS
* FROM FILE: 
* FROM COMMENT: 
466  Master   V     C        01:23:30:07 01:23:33:03 01:23:30:07 01:23:33:03
* FROM CLIP NAME:  3C-1-A 48 FPS
* FROM FILE: 
* FROM COMMENT: 
467  Master   V     C        01:23:33:03 01:23:35:08 01:23:33:03 01:23:35:08
* FROM CLIP NAME:  3C-1-A 48 FPS
* FROM FILE: 
* FROM COMMENT: 
468  Master   V     C        01:23:35:08 01:23:36:23 01:23:35:08 01:23:36:23
* FROM CLIP NAME:  3C-1-A 48 FPS
* FROM FILE: 
* FROM COMMENT: 
469  Master   V     C        01:23:36:23 01:23:39:13 01:23:36:23 01:23:39:13
* FROM CLIP NAME:  3C-1-A 48 FPS
* FROM FILE: 
* FROM COMMENT: 
470  Master   V     C        01:23:39:13 01:23:43:04 01:23:39:13 01:23:43:04
* FROM CLIP NAME:  3C-1-A 48 FPS
* FROM FILE: 
* FROM COMMENT: 
471  Master   V     C        01:23:43:04 01:23:45:18 01:23:43:04 01:23:45:18
* FROM CLIP NAME:  3C-1-A 48 FPS
* FROM FILE: 
* FROM COMMENT: 
472  Master   V     C        01:23:45:18 01:23:50:02 01:23:45:18 01:23:50:02
* FROM CLIP NAME:  3C-1-A 48 FPS
* FROM FILE: 
* FROM COMMENT: 
473  Master   V     C        01:23:50:02 01:23:54:19 01:23:50:02 01:23:54:19
* FROM CLIP NAME:  3C-1-A 48 FPS
* FROM FILE: 
* FROM COMMENT: 
474  Master   V     C        01:23:54:19 01:24:05:00 01:23:54:19 01:24:05:00
* FROM CLIP NAME:  3C-1-A 48 FPS
* FROM FILE: 
* FROM COMMENT: 
475  Master   V     C        01:24:05:00 01:24:07:08 01:24:05:00 01:24:07:08
* FROM CLIP NAME:  3C-1-A 48 FPS
* FROM FILE: 
* FROM COMMENT: 
476  Master   V     C        01:24:07:08 01:24:12:03 01:24:07:08 01:24:12:03
* FROM CLIP NAME:  3C-1-A 48 FPS
* FROM FILE: 
* FROM COMMENT: 
477  Master   V     C        01:24:12:03 01:24:14:10 01:24:12:03 01:24:14:10
* FROM CLIP NAME:  3C-1-A 48 FPS
* FROM FILE: 
* FROM COMMENT: 
478  Master   V     C        01:24:14:10 01:24:16:00 01:24:14:10 01:24:16:00
* FROM CLIP NAME:  3C-1-A 48 FPS
* FROM FILE: 
* FROM COMMENT: 
479  Master   V     C        01:24:16:00 01:24:26:04 01:24:16:00 01:24:26:04
* FROM CLIP NAME:  3C-1-A 48 FPS
* FROM FILE: 
* FROM COMMENT: 
480  Master   V     C        01:24:26:04 01:24:29:04 01:24:26:04 01:24:29:04
* FROM CLIP NAME:  3C-1-A 48 FPS
* FROM FILE: 
* FROM COMMENT: 
481  Master   V     C        01:24:29:04 01:24:30:17 01:24:29:04 01:24:30:17
* FROM CLIP NAME:  3C-1-A 48 FPS
* FROM FILE: 
* FROM COMMENT: 
482  Master   V     C        01:24:30:17 01:24:35:18 01:24:30:17 01:24:35:18
* FROM CLIP NAME:  3C-1-A 48 FPS
* FROM FILE: 
* FROM COMMENT: 
483  Master   V     C        01:24:35:18 01:24:37:09 01:24:35:18 01:24:37:09
* FROM CLIP NAME:  3C-1-A 48 FPS
* FROM FILE: 
* FROM COMMENT: 
484  Master   V     C        01:24:37:09 01:24:39:12 01:24:37:09 01:24:39:12
* FROM CLIP NAME:  3C-1-A 48 FPS
* FROM FILE: 
* FROM COMMENT: 
485  Master   V     C        01:24:39:12 01:24:43:17 01:24:39:12 01:24:43:17
* FROM CLIP NAME:  3C-1-A 48 FPS
* FROM FILE: 
* FROM COMMENT: 
486  Master   V     C        01:24:43:17 01:24:45:07 01:24:43:17 01:24:45:07
* FROM CLIP NAME:  3C-1-A 48 FPS
* FROM FILE: 
* FROM COMMENT: 
487  Master   V     C        01:24:45:07 01:24:47:06 01:24:45:07 01:24:47:06
* FROM CLIP NAME:  3C-1-A 48 FPS
* FROM FILE: 
* FROM COMMENT: 
488  Master   V     C        01:24:47:06 01:24:50:20 01:24:47:06 01:24:50:20
* FROM CLIP NAME:  3C-1-A 48 FPS
* FROM FILE: 
* FROM COMMENT: 
489  Master   V     C        01:24:50:20 01:24:52:19 01:24:50:20 01:24:52:19
* FROM CLIP NAME:  3C-1-A 48 FPS
* FROM FILE: 
* FROM COMMENT: 
490  Master   V     C        01:24:52:19 01:24:55:00 01:24:52:19 01:24:55:00
* FROM CLIP NAME:  3C-1-A 48 FPS
* FROM FILE: 
* FROM COMMENT: 
491  Master   V     C        01:24:55:00 01:24:58:11 01:24:55:00 01:24:58:11
* FROM CLIP NAME:  3C-1-A 48 FPS
* FROM FILE: 
* FROM COMMENT: 
492  Master   V     C        01:24:58:11 01:25:03:02 01:24:58:11 01:25:03:02
* FROM CLIP NAME:  3C-1-A 48 FPS
* FROM FILE: 
* FROM COMMENT: 
493  Master   V     C        01:25:03:02 01:25:04:14 01:25:03:02 01:25:04:14
* FROM CLIP NAME:  3C-1-A 48 FPS
* FROM FILE: 
* FROM COMMENT: 
494  Master   V     C        01:25:04:14 01:25:11:21 01:25:04:14 01:25:11:21
* FROM CLIP NAME:  3C-1-A 48 FPS
* FROM FILE: 
* FROM COMMENT: 
495  Master   V     C        01:25:11:21 01:25:15:16 01:25:11:21 01:25:15:16
* FROM CLIP NAME:  3C-1-A 48 FPS
* FROM FILE: 
* FROM COMMENT: 
496  Master   V     C        01:25:15:16 01:25:17:02 01:25:15:16 01:25:17:02
* FROM CLIP NAME:  3C-1-A 48 FPS
* FROM FILE: 
* FROM COMMENT: 
497  Master   V     C        01:25:17:02 01:25:20:18 01:25:17:02 01:25:20:18
* FROM CLIP NAME:  3C-1-A 48 FPS
* FROM FILE: 
* FROM COMMENT: 
498  Master   V     C        01:25:20:18 01:25:22:11 01:25:20:18 01:25:22:11
* FROM CLIP NAME:  3C-1-A 48 FPS
* FROM FILE: 
* FROM COMMENT: 
499  Master   V     C        01:25:22:11 01:25:24:03 01:25:22:11 01:25:24:03
* FROM CLIP NAME:  3C-1-A 48 FPS
* FROM FILE: 
* FROM COMMENT: 
500  Master   V     C        01:25:24:03 01:25:26:21 01:25:24:03 01:25:26:21
* FROM CLIP NAME:  3C-1-A 48 FPS
* FROM FILE: 
* FROM COMMENT: 
501  Master   V     C        01:25:26:21 01:25:30:12 01:25:26:21 01:25:30:12
* FROM CLIP NAME:  3C-1-A 48 FPS
* FROM FILE: 
* FROM COMMENT: 
502  Master   V     C        01:25:30:12 01:25:32:01 01:25:30:12 01:25:32:01
* FROM CLIP NAME:  3C-1-A 48 FPS
* FROM FILE: 
* FROM COMMENT: 
503  Master   V     C        01:25:32:01 01:25:35:14 01:25:32:01 01:25:35:14
* FROM CLIP NAME:  3C-1-A 48 FPS
* FROM FILE: 
* FROM COMMENT: 
504  Master   V     C        01:25:35:14 01:25:37:11 01:25:35:14 01:25:37:11
* FROM CLIP NAME:  3C-1-A 48 FPS
* FROM FILE: 
* FROM COMMENT: 
505  Master   V     C        01:25:37:11 01:25:38:07 01:25:37:11 01:25:38:07
* FROM CLIP NAME:  3C-1-A 48 FPS
* FROM FILE: 
* FROM COMMENT: 
506  Master   V     C        01:25:38:07 01:25:42:08 01:25:38:07 01:25:42:08
* FROM CLIP NAME:  3C-1-A 48 FPS
* FROM FILE: 
* FROM COMMENT: 
507  Master   V     C        01:25:42:08 01:25:48:00 01:25:42:08 01:25:48:00
* FROM CLIP NAME:  3C-1-A 48 FPS
* FROM FILE: 
* FROM COMMENT: 
508  Master   V     C        01:25:48:00 01:25:50:07 01:25:48:00 01:25:50:07
* FROM CLIP NAME:  3C-1-A 48 FPS
* FROM FILE: 
* FROM COMMENT: 
509  Master   V     C        01:25:50:07 01:25:55:12 01:25:50:07 01:25:55:12
* FROM CLIP NAME:  3C-1-A 48 FPS
* FROM FILE: 
* FROM COMMENT: 
510  Master   V     C        01:25:55:12 01:25:56:15 01:25:55:12 01:25:56:15
* FROM CLIP NAME:  3C-1-A 48 FPS
* FROM FILE: 
* FROM COMMENT: 
511  Master   V     C        01:25:56:15 01:25:57:14 01:25:56:15 01:25:57:14
* FROM CLIP NAME:  3C-1-A 48 FPS
* FROM FILE: 
* FROM COMMENT: 
512  Master   V     C        01:25:57:14 01:26:00:15 01:25:57:14 01:26:00:15
* FROM CLIP NAME:  3C-1-A 48 FPS
* FROM FILE: 
* FROM COMMENT: 
513  Master   V     C        01:26:00:15 01:26:02:11 01:26:00:15 01:26:02:11
* FROM CLIP NAME:  3C-1-A 48 FPS
* FROM FILE: 
* FROM COMMENT: 
514  Master   V     C        01:26:02:11 01:26:08:07 01:26:02:11 01:26:08:07
* FROM CLIP NAME:  3C-1-A 48 FPS
* FROM FILE: 
* FROM COMMENT: 
515  Master   V     C        01:26:08:07 01:26:12:07 01:26:08:07 01:26:12:07
* FROM CLIP NAME:  3C-1-A 48 FPS
* FROM FILE: 
* FROM COMMENT: 
516  Master   V     C        01:26:12:07 01:26:14:01 01:26:12:07 01:26:14:01
* FROM CLIP NAME:  3C-1-A 48 FPS
* FROM FILE: 
* FROM COMMENT: 
517  Master   V     C        01:26:14:01 01:26:16:07 01:26:14:01 01:26:16:07
* FROM CLIP NAME:  3C-1-A 48 FPS
* FROM FILE: 
* FROM COMMENT: 
518  Master   V     C        01:26:16:07 01:26:19:02 01:26:16:07 01:26:19:02
* FROM CLIP NAME:  3C-1-A 48 FPS
* FROM FILE: 
* FROM COMMENT: 
519  Master   V     C        01:26:19:02 01:26:21:13 01:26:19:02 01:26:21:13
* FROM CLIP NAME:  3C-1-A 48 FPS
* FROM FILE: 
* FROM COMMENT: 
520  Master   V     C        01:26:21:13 01:26:26:01 01:26:21:13 01:26:26:01
* FROM CLIP NAME:  3C-1-A 48 FPS
* FROM FILE: 
* FROM COMMENT: 
521  Master   V     C        01:26:26:01 01:26:28:16 01:26:26:01 01:26:28:16
* FROM CLIP NAME:  3C-1-A 48 FPS
* FROM FILE: 
* FROM COMMENT: 
522  Master   V     C        01:26:28:16 01:26:31:01 01:26:28:16 01:26:31:01
* FROM CLIP NAME:  3C-1-A 48 FPS
* FROM FILE: 
* FROM COMMENT: 
523  Master   V     C        01:26:31:01 01:26:35:23 01:26:31:01 01:26:35:23
* FROM CLIP NAME:  3C-1-A 48 FPS
* FROM FILE: 
* FROM COMMENT: 
524  Master   V     C        01:26:35:23 01:26:40:09 01:26:35:23 01:26:40:09
* FROM CLIP NAME:  3C-1-A 48 FPS
* FROM FILE: 
* FROM COMMENT: 
525  Master   V     C        01:26:40:09 01:26:43:14 01:26:40:09 01:26:43:14
* FROM CLIP NAME:  3C-1-A 48 FPS
* FROM FILE: 
* FROM COMMENT: 
526  Master   V     C        01:26:43:14 01:26:46:06 01:26:43:14 01:26:46:06
* FROM CLIP NAME:  3C-1-A 48 FPS
* FROM FILE: 
* FROM COMMENT: 
527  Master   V     C        01:26:46:06 01:26:53:17 01:26:46:06 01:26:53:17
* FROM CLIP NAME:  3C-1-A 48 FPS
* FROM FILE: 
* FROM COMMENT: 
528  Master   V     C        01:26:53:17 01:26:56:08 01:26:53:17 01:26:56:08
* FROM CLIP NAME:  3C-1-A 48 FPS
* FROM FILE: 
* FROM COMMENT: 
529  Master   V     C        01:26:56:08 01:26:58:08 01:26:56:08 01:26:58:08
* FROM CLIP NAME:  3C-1-A 48 FPS
* FROM FILE: 
* FROM COMMENT: 
530  Master   V     C        01:26:58:08 01:27:00:15 01:26:58:08 01:27:00:15
* FROM CLIP NAME:  3C-1-A 48 FPS
* FROM FILE: 
* FROM COMMENT: 
531  Master   V     C        01:27:00:15 01:27:05:18 01:27:00:15 01:27:05:18
* FROM CLIP NAME:  3C-1-A 48 FPS
* FROM FILE: 
* FROM COMMENT: 
532  Master   V     C        01:27:05:18 01:27:10:03 01:27:05:18 01:27:10:03
* FROM CLIP NAME:  3C-1-A 48 FPS
* FROM FILE: 
* FROM COMMENT: 
533  Master   V     C        01:27:10:03 01:27:12:07 01:27:10:03 01:27:12:07
* FROM CLIP NAME:  3C-1-A 48 FPS
* FROM FILE: 
* FROM COMMENT: 
534  Master   V     C        01:27:12:07 01:27:14:03 01:27:12:07 01:27:14:03
* FROM CLIP NAME:  3C-1-A 48 FPS
* FROM FILE: 
* FROM COMMENT: 
535  Master   V     C        01:27:14:03 01:27:15:07 01:27:14:03 01:27:15:07
* FROM CLIP NAME:  3C-1-A 48 FPS
* FROM FILE: 
* FROM COMMENT: 
536  Master   V     C        01:27:15:07 01:27:18:11 01:27:15:07 01:27:18:11
* FROM CLIP NAME:  3C-1-A 48 FPS
* FROM FILE: 
* FROM COMMENT: 
537  Master   V     C        01:27:18:11 01:27:20:10 01:27:18:11 01:27:20:10
* FROM CLIP NAME:  3C-1-A 48 FPS
* FROM FILE: 
* FROM COMMENT: 
538  Master   V     C        01:27:20:10 01:27:22:12 01:27:20:10 01:27:22:12
* FROM CLIP NAME:  3C-1-A 48 FPS
* FROM FILE: 
* FROM COMMENT: 
539  Master   V     C        01:27:22:12 01:27:24:19 01:27:22:12 01:27:24:19
* FROM CLIP NAME:  3C-1-A 48 FPS
* FROM FILE: 
* FROM COMMENT: 
540  Master   V     C        01:27:24:19 01:27:29:20 01:27:24:19 01:27:29:20
* FROM CLIP NAME:  3C-1-A 48 FPS
* FROM FILE: 
* FROM COMMENT: 
541  Master   V     C        01:27:29:20 01:27:32:00 01:27:29:20 01:27:32:00
* FROM CLIP NAME:  3C-1-A 48 FPS
* FROM FILE: 
* FROM COMMENT: 
542  Master   V     C        01:27:32:00 01:27:37:07 01:27:32:00 01:27:37:07
* FROM CLIP NAME:  3C-1-A 48 FPS
* FROM FILE: 
* FROM COMMENT: 
543  Master   V     C        01:27:37:07 01:27:43:08 01:27:37:07 01:27:43:08
* FROM CLIP NAME:  3C-1-A 48 FPS
* FROM FILE: 
* FROM COMMENT: 
544  Master   V     C        01:27:43:08 01:27:44:19 01:27:43:08 01:27:44:19
* FROM CLIP NAME:  3C-1-A 48 FPS
* FROM FILE: 
* FROM COMMENT: 
545  Master   V     C        01:27:44:19 01:27:47:01 01:27:44:19 01:27:47:01
* FROM CLIP NAME:  3C-1-A 48 FPS
* FROM FILE: 
* FROM COMMENT: 
546  Master   V     C        01:27:47:01 01:27:51:15 01:27:47:01 01:27:51:15
* FROM CLIP NAME:  3C-1-A 48 FPS
* FROM FILE: 
* FROM COMMENT: 
547  Master   V     C        01:27:51:15 01:27:54:00 01:27:51:15 01:27:54:00
* FROM CLIP NAME:  3C-1-A 48 FPS
* FROM FILE: 
* FROM COMMENT: 
548  Master   V     C        01:27:54:00 01:27:56:17 01:27:54:00 01:27:56:17
* FROM CLIP NAME:  3C-1-A 48 FPS
* FROM FILE: 
* FROM COMMENT: 
549  Master   V     C        01:27:56:17 01:28:02:02 01:27:56:17 01:28:02:02
* FROM CLIP NAME:  3C-1-A 48 FPS
* FROM FILE: 
* FROM COMMENT: 
550  Master   V     C        01:28:02:02 01:28:04:10 01:28:02:02 01:28:04:10
* FROM CLIP NAME:  3C-1-A 48 FPS
* FROM FILE: 
* FROM COMMENT: 
551  Master   V     C        01:28:04:10 01:28:06:15 01:28:04:10 01:28:06:15
* FROM CLIP NAME:  3C-1-A 48 FPS
* FROM FILE: 
* FROM COMMENT: 
552  Master   V     C        01:28:06:15 01:28:11:14 01:28:06:15 01:28:11:14
* FROM CLIP NAME:  3C-1-A 48 FPS
* FROM FILE: 
* FROM COMMENT: 
553  Master   V     C        01:28:11:14 01:28:15:04 01:28:11:14 01:28:15:04
* FROM CLIP NAME:  3C-1-A 48 FPS
* FROM FILE: 
* FROM COMMENT: 
554  Master   V     C        01:28:15:04 01:28:22:06 01:28:15:04 01:28:22:06
* FROM CLIP NAME:  3C-1-A 48 FPS
* FROM FILE: 
* FROM COMMENT: 
555  Master   V     C        01:28:22:06 01:28:25:07 01:28:22:06 01:28:25:07
* FROM CLIP NAME:  3C-1-A 48 FPS
* FROM FILE: 
* FROM COMMENT: 
556  Master   V     C        01:28:25:07 01:28:28:02 01:28:25:07 01:28:28:02
* FROM CLIP NAME:  3C-1-A 48 FPS
* FROM FILE: 
* FROM COMMENT: 
557  Master   V     C        01:28:28:02 01:28:29:02 01:28:28:02 01:28:29:02
* FROM CLIP NAME:  3C-1-A 48 FPS
* FROM FILE: 
* FROM COMMENT: 
558  Master   V     C        01:28:29:02 01:28:32:02 01:28:29:02 01:28:32:02
* FROM CLIP NAME:  3C-1-A 48 FPS
* FROM FILE: 
* FROM COMMENT: 
559  Master   V     C        01:28:32:02 01:28:33:23 01:28:32:02 01:28:33:23
* FROM CLIP NAME:  3C-1-A 48 FPS
* FROM FILE: 
* FROM COMMENT: 
560  Master   V     C        01:28:33:23 01:28:39:07 01:28:33:23 01:28:39:07
* FROM CLIP NAME:  3C-1-A 48 FPS
* FROM FILE: 
* FROM COMMENT: 
561  Master   V     C        01:28:39:07 01:28:41:10 01:28:39:07 01:28:41:10
* FROM CLIP NAME:  3C-1-A 48 FPS
* FROM FILE: 
* FROM COMMENT: 
562  Master   V     C        01:28:41:10 01:28:43:12 01:28:41:10 01:28:43:12
* FROM CLIP NAME:  3C-1-A 48 FPS
* FROM FILE: 
* FROM COMMENT: 
563  Master   V     C        01:28:43:12 01:28:45:04 01:28:43:12 01:28:45:04
* FROM CLIP NAME:  3C-1-A 48 FPS
* FROM FILE: 
* FROM COMMENT: 
564  Master   V     C        01:28:45:04 01:28:47:06 01:28:45:04 01:28:47:06
* FROM CLIP NAME:  3C-1-A 48 FPS
* FROM FILE: 
* FROM COMMENT: 
565  Master   V     C        01:28:47:06 01:28:51:15 01:28:47:06 01:28:51:15
* FROM CLIP NAME:  3C-1-A 48 FPS
* FROM FILE: 
* FROM COMMENT: 
566  Master   V     C        01:28:51:15 01:28:54:14 01:28:51:15 01:28:54:14
* FROM CLIP NAME:  3C-1-A 48 FPS
* FROM FILE: 
* FROM COMMENT: 
567  Master   V     C        01:28:54:14 01:28:55:11 01:28:54:14 01:28:55:11
* FROM CLIP NAME:  3C-1-A 48 FPS
* FROM FILE: 
* FROM COMMENT: 
568  Master   V     C        01:28:55:11 01:28:56:13 01:28:55:11 01:28:56:13
* FROM CLIP NAME:  3C-1-A 48 FPS
* FROM FILE: 
* FROM COMMENT: 
569  Master   V     C        01:28:56:13 01:28:57:14 01:28:56:13 01:28:57:14
* FROM CLIP NAME:  3C-1-A 48 FPS
* FROM FILE: 
* FROM COMMENT: 
570  Master   V     C        01:28:57:14 01:29:00:03 01:28:57:14 01:29:00:03
* FROM CLIP NAME:  3C-1-A 48 FPS
* FROM FILE: 
* FROM COMMENT: 
571  Master   V     C        01:29:00:03 01:29:03:15 01:29:00:03 01:29:03:15
* FROM CLIP NAME:  3C-1-A 48 FPS
* FROM FILE: 
* FROM COMMENT: 
572  Master   V     C        01:29:03:15 01:29:05:08 01:29:03:15 01:29:05:08
* FROM CLIP NAME:  3C-1-A 48 FPS
* FROM FILE: 
* FROM COMMENT: 
573  Master   V     C        01:29:05:08 01:29:08:01 01:29:05:08 01:29:08:01
* FROM CLIP NAME:  3C-1-A 48 FPS
* FROM FILE: 
* FROM COMMENT: 
574  Master   V     C        01:29:08:01 01:29:12:23 01:29:08:01 01:29:12:23
* FROM CLIP NAME:  3C-1-A 48 FPS
* FROM FILE: 
* FROM COMMENT: 
575  Master   V     C        01:29:12:23 01:29:13:23 01:29:12:23 01:29:13:23
* FROM CLIP NAME:  3C-1-A 48 FPS
* FROM FILE: 
* FROM COMMENT: 
576  Master   V     C        01:29:13:23 01:29:14:11 01:29:13:23 01:29:14:11
* FROM CLIP NAME:  3C-1-A 48 FPS
* FROM FILE: 
* FROM COMMENT: 
577  Master   V     C        01:29:14:11 01:29:21:02 01:29:14:11 01:29:21:02
* FROM CLIP NAME:  3C-1-A 48 FPS
* FROM FILE: 
* FROM COMMENT: 
578  Master   V     C        01:29:21:02 01:29:22:20 01:29:21:02 01:29:22:20
* FROM CLIP NAME:  3C-1-A 48 FPS
* FROM FILE: 
* FROM COMMENT: 
579  Master   V     C        01:29:22:20 01:29:26:21 01:29:22:20 01:29:26:21
* FROM CLIP NAME:  3C-1-A 48 FPS
* FROM FILE: 
* FROM COMMENT: 
580  Master   V     C        01:29:26:21 01:29:30:15 01:29:26:21 01:29:30:15
* FROM CLIP NAME:  3C-1-A 48 FPS
* FROM FILE: 
* FROM COMMENT: 
581  Master   V     C        01:29:30:15 01:29:40:22 01:29:30:15 01:29:40:22
* FROM CLIP NAME:  3C-1-A 48 FPS
* FROM FILE: 
* FROM COMMENT: 
582  Master   V     C        01:29:40:22 01:29:42:03 01:29:40:22 01:29:42:03
* FROM CLIP NAME:  3C-1-A 48 FPS
* FROM FILE: 
* FROM COMMENT: 
583  Master   V     C        01:29:42:03 01:29:42:03 01:29:42:03 01:29:42:03
583 Master   V     D    016 01:29:42:03 01:29:42:19 01:29:42:03 01:29:42:19
* FROM CLIP NAME:  3C-1-A 48 FPS
* FROM FILE: 
* FROM COMMENT: 
* TO CLIP NAME:  3C-1-A 48 FPS
* TO FILE: 
* TO COMMENT: 
584  Master   V     C        01:29:42:19 01:29:44:18 01:29:42:19 01:29:44:18
* FROM CLIP NAME:  3C-1-A 48 FPS
* FROM FILE: 
* FROM COMMENT: 
585  Master   V     C        01:29:44:18 01:29:48:06 01:29:44:18 01:29:48:06
* FROM CLIP NAME:  3C-1-A 48 FPS
* FROM FILE: 
* FROM COMMENT: 
586  Master   V     C        01:29:48:06 01:29:51:12 01:29:48:06 01:29:51:12
* FROM CLIP NAME:  3C-1-A 48 FPS
* FROM FILE: 
* FROM COMMENT: 
587  Master   V     C        01:29:51:12 01:29:53:13 01:29:51:12 01:29:53:13
* FROM CLIP NAME:  3C-1-A 48 FPS
* FROM FILE: 
* FROM COMMENT: 
588  Master   V     C        01:29:53:13 01:30:05:07 01:29:53:13 01:30:05:07
* FROM CLIP NAME:  3C-1-A 48 FPS
* FROM FILE: 
* FROM COMMENT: 
589  Master   V     C        01:30:05:07 01:30:08:14 01:30:05:07 01:30:08:14
* FROM CLIP NAME:  3C-1-A 48 FPS
* FROM FILE: 
* FROM COMMENT: 
590  Master   V     C        01:30:08:14 01:30:09:18 01:30:08:14 01:30:09:18
* FROM CLIP NAME:  3C-1-A 48 FPS
* FROM FILE: 
* FROM COMMENT: 
591  Master   V     C        01:30:09:18 01:30:13:13 01:30:09:18 01:30:13:13
* FROM CLIP NAME:  3C-1-A 48 FPS
* FROM FILE: 
* FROM COMMENT: 
592  Master   V     C        01:30:13:13 01:30:19:16 01:30:13:13 01:30:19:16
* FROM CLIP NAME:  3C-1-A 48 FPS
* FROM FILE: 
* FROM COMMENT: 
593  Master   V     C        01:30:19:16 01:30:22:02 01:30:19:16 01:30:22:02
* FROM CLIP NAME:  3C-1-A 48 FPS
* FROM FILE: 
* FROM COMMENT: 
594  Master   V     C        01:30:22:02 01:30:24:12 01:30:22:02 01:30:24:12
* FROM CLIP NAME:  3C-1-A 48 FPS
* FROM FILE: 
* FROM COMMENT: 
595  Master   V     C        01:30:24:12 01:30:26:09 01:30:24:12 01:30:26:09
* FROM CLIP NAME:  3C-1-A 48 FPS
* FROM FILE: 
* FROM COMMENT: 
596  Master   V     C        01:30:26:09 01:30:28:02 01:30:26:09 01:30:28:02
* FROM CLIP NAME:  3C-1-A 48 FPS
* FROM FILE: 
* FROM COMMENT: 
597  Master   V     C        01:30:28:02 01:30:30:12 01:30:28:02 01:30:30:12
* FROM CLIP NAME:  3C-1-A 48 FPS
* FROM FILE: 
* FROM COMMENT: 
598  Master   V     C        01:30:30:12 01:30:33:21 01:30:30:12 01:30:33:21
* FROM CLIP NAME:  3C-1-A 48 FPS
* FROM FILE: 
* FROM COMMENT: 
599  Master   V     C        01:30:33:21 01:30:35:12 01:30:33:21 01:30:35:12
* FROM CLIP NAME:  3C-1-A 48 FPS
* FROM FILE: 
* FROM COMMENT: 
600  Master   V     C        01:30:35:12 01:30:38:17 01:30:35:12 01:30:38:17
* FROM CLIP NAME:  3C-1-A 48 FPS
* FROM FILE: 
* FROM COMMENT: 
601  Master   V     C        01:30:38:17 01:30:40:02 01:30:38:17 01:30:40:02
* FROM CLIP NAME:  3C-1-A 48 FPS
* FROM FILE: 
* FROM COMMENT: 
602  Master   V     C        01:30:40:02 01:30:43:00 01:30:40:02 01:30:43:00
* FROM CLIP NAME:  3C-1-A 48 FPS
* FROM FILE: 
* FROM COMMENT: 
603  Master   V     C        01:30:43:00 01:30:44:16 01:30:43:00 01:30:44:16
* FROM CLIP NAME:  3C-1-A 48 FPS
* FROM FILE: 
* FROM COMMENT: 
604  Master   V     C        01:30:44:16 01:30:47:13 01:30:44:16 01:30:47:13
* FROM CLIP NAME:  3C-1-A 48 FPS
* FROM FILE: 
* FROM COMMENT: 
605  Master   V     C        01:30:47:13 01:30:49:13 01:30:47:13 01:30:49:13
* FROM CLIP NAME:  3C-1-A 48 FPS
* FROM FILE: 
* FROM COMMENT: 
606  Master   V     C        01:30:49:13 01:30:52:14 01:30:49:13 01:30:52:14
* FROM CLIP NAME:  3C-1-A 48 FPS
* FROM FILE: 
* FROM COMMENT: 
607  Master   V     C        01:30:52:14 01:30:57:11 01:30:52:14 01:30:57:11
* FROM CLIP NAME:  3C-1-A 48 FPS
* FROM FILE: 
* FROM COMMENT: 
608  Master   V     C        01:30:57:11 01:31:00:19 01:30:57:11 01:31:00:19
* FROM CLIP NAME:  3C-1-A 48 FPS
* FROM FILE: 
* FROM COMMENT: 
609  Master   V     C        01:31:00:19 01:31:11:21 01:31:00:19 01:31:11:21
* FROM CLIP NAME:  3C-1-A 48 FPS
* FROM FILE: 
* FROM COMMENT: 
610  Master   V     C        01:31:11:21 01:31:15:07 01:31:11:21 01:31:15:07
* FROM CLIP NAME:  3C-1-A 48 FPS
* FROM FILE: 
* FROM COMMENT: 
611  Master   V     C        01:31:15:07 01:31:18:06 01:31:15:07 01:31:18:06
* FROM CLIP NAME:  3C-1-A 48 FPS
* FROM FILE: 
* FROM COMMENT: 
612  Master   V     C        01:31:18:06 01:31:23:06 01:31:18:06 01:31:23:06
* FROM CLIP NAME:  3C-1-A 48 FPS
* FROM FILE: 
* FROM COMMENT: 
613  Master   V     C        01:31:23:06 01:31:28:15 01:31:23:06 01:31:28:15
* FROM CLIP NAME:  3C-1-A 48 FPS
* FROM FILE: 
* FROM COMMENT: 
614  Master   V     C        01:31:28:15 01:31:40:09 01:31:28:15 01:31:40:09
* FROM CLIP NAME:  3C-1-A 48 FPS
* FROM FILE: 
* FROM COMMENT: 
615  Master   V     C        01:31:40:09 01:31:43:18 01:31:40:09 01:31:43:18
* FROM CLIP NAME:  3C-1-A 48 FPS
* FROM FILE: 
* FROM COMMENT: 
616  Master   V     C        01:31:43:18 01:32:00:12 01:31:43:18 01:32:00:12
* FROM CLIP NAME:  3C-1-A 48 FPS
* FROM FILE: 
* FROM COMMENT: 
617  Master   V     C        01:32:00:12 01:32:03:09 01:32:00:12 01:32:03:09
* FROM CLIP NAME:  3C-1-A 48 FPS
* FROM FILE: 
* FROM COMMENT: 
618  Master   V     C        01:32:03:09 01:32:11:02 01:32:03:09 01:32:11:02
* FROM CLIP NAME:  3C-1-A 48 FPS
* FROM FILE: 
* FROM COMMENT: 
619  Master   V     C        01:32:11:02 01:32:15:07 01:32:11:02 01:32:15:07
* FROM CLIP NAME:  3C-1-A 48 FPS
* FROM FILE: 
* FROM COMMENT: 
620  Master   V     C        01:32:15:07 01:32:23:04 01:32:15:07 01:32:23:04
* FROM CLIP NAME:  3C-1-A 48 FPS
* FROM FILE: 
* FROM COMMENT: 
621  Master   V     C        01:32:23:04 01:32:25:01 01:32:23:04 01:32:25:01
* FROM CLIP NAME:  3C-1-A 48 FPS
* FROM FILE: 
* FROM COMMENT: 
622  Master   V     C        01:32:25:01 01:32:26:19 01:32:25:01 01:32:26:19
* FROM CLIP NAME:  3C-1-A 48 FPS
* FROM FILE: 
* FROM COMMENT: 
623  Master   V     C        01:32:26:19 01:32:32:04 01:32:26:19 01:32:32:04
* FROM CLIP NAME:  3C-1-A 48 FPS
* FROM FILE: 
* FROM COMMENT: 
624  Master   V     C        01:32:32:04 01:32:34:14 01:32:32:04 01:32:34:14
* FROM CLIP NAME:  3C-1-A 48 FPS
* FROM FILE: 
* FROM COMMENT: 
625  Master   V     C        01:32:34:14 01:32:39:15 01:32:34:14 01:32:39:15
* FROM CLIP NAME:  3C-1-A 48 FPS
* FROM FILE: 
* FROM COMMENT: 
626  Master   V     C        01:32:39:15 01:32:41:19 01:32:39:15 01:32:41:19
* FROM CLIP NAME:  3C-1-A 48 FPS
* FROM FILE: 
* FROM COMMENT: 
627  Master   V     C        01:32:41:19 01:32:44:18 01:32:41:19 01:32:44:18
* FROM CLIP NAME:  3C-1-A 48 FPS
* FROM FILE: 
* FROM COMMENT: 
628  Master   V     C        01:32:44:18 01:32:51:00 01:32:44:18 01:32:51:00
* FROM CLIP NAME:  3C-1-A 48 FPS
* FROM FILE: 
* FROM COMMENT: 
629  Master   V     C        01:32:51:00 01:33:00:04 01:32:51:00 01:33:00:04
* FROM CLIP NAME:  3C-1-A 48 FPS
* FROM FILE: 
* FROM COMMENT: 
630  Master   V     C        01:33:00:04 01:33:08:07 01:33:00:04 01:33:08:07
* FROM CLIP NAME:  3C-1-A 48 FPS
* FROM FILE: 
* FROM COMMENT: 
631  Master   V     C        01:33:08:07 01:33:11:10 01:33:08:07 01:33:11:10
* FROM CLIP NAME:  3C-1-A 48 FPS
* FROM FILE: 
* FROM COMMENT: 
632  Master   V     C        01:33:11:10 01:33:14:02 01:33:11:10 01:33:14:02
* FROM CLIP NAME:  3C-1-A 48 FPS
* FROM FILE: 
* FROM COMMENT: 
633  Master   V     C        01:33:14:02 01:33:17:01 01:33:14:02 01:33:17:01
* FROM CLIP NAME:  3C-1-A 48 FPS
* FROM FILE: 
* FROM COMMENT: 
634  Master   V     C        01:33:17:01 01:33:34:22 01:33:17:01 01:33:34:22
* FROM CLIP NAME:  3C-1-A 48 FPS
* FROM FILE: 
* FROM COMMENT: 
635  Master   V     C        01:33:34:22 01:33:43:09 01:33:34:22 01:33:43:09
* FROM CLIP NAME:  3C-1-A 48 FPS
* FROM FILE: 
* FROM COMMENT: 
636  Master   V     C        01:33:43:09 01:33:46:12 01:33:43:09 01:33:46:12
* FROM CLIP NAME:  3C-1-A 48 FPS
* FROM FILE: 
* FROM COMMENT: 
637  Master   V     C        01:33:46:12 01:33:51:13 01:33:46:12 01:33:51:13
* FROM CLIP NAME:  3C-1-A 48 FPS
* FROM FILE: 
* FROM COMMENT: 
638  Master   V     C        01:33:51:13 01:33:55:16 01:33:51:13 01:33:55:16
* FROM CLIP NAME:  3C-1-A 48 FPS
* FROM FILE: 
* FROM COMMENT: 
639  Master   V     C        01:33:55:16 01:33:59:08 01:33:55:16 01:33:59:08
* FROM CLIP NAME:  3C-1-A 48 FPS
* FROM FILE: 
* FROM COMMENT: 
640  Master   V     C        01:33:59:08 01:34:03:20 01:33:59:08 01:34:03:20
* FROM CLIP NAME:  3C-1-A 48 FPS
* FROM FILE: 
* FROM COMMENT: 
641  Master   V     C        01:34:03:20 01:34:06:20 01:34:03:20 01:34:06:20
* FROM CLIP NAME:  3C-1-A 48 FPS
* FROM FILE: 
* FROM COMMENT: 
642  Master   V     C        01:34:06:20 01:34:12:13 01:34:06:20 01:34:12:13
* FROM CLIP NAME:  3C-1-A 48 FPS
* FROM FILE: 
* FROM COMMENT: 
643  Master   V     C        01:34:12:13 01:34:14:22 01:34:12:13 01:34:14:22
* FROM CLIP NAME:  3C-1-A 48 FPS
* FROM FILE: 
* FROM COMMENT: 
644  Master   V     C        01:34:14:22 01:34:18:08 01:34:14:22 01:34:18:08
* FROM CLIP NAME:  3C-1-A 48 FPS
* FROM FILE: 
* FROM COMMENT: 
645  Master   V     C        01:34:18:08 01:34:20:17 01:34:18:08 01:34:20:17
* FROM CLIP NAME:  3C-1-A 48 FPS
* FROM FILE: 
* FROM COMMENT: 
646  Master   V     C        01:34:20:17 01:34:22:23 01:34:20:17 01:34:22:23
* FROM CLIP NAME:  3C-1-A 48 FPS
* FROM FILE: 
* FROM COMMENT: 
647  Master   V     C        01:34:22:23 01:34:24:12 01:34:22:23 01:34:24:12
* FROM CLIP NAME:  3C-1-A 48 FPS
* FROM FILE: 
* FROM COMMENT: 
648  Master   V     C        01:34:24:12 01:34:25:10 01:34:24:12 01:34:25:10
* FROM CLIP NAME:  3C-1-A 48 FPS
* FROM FILE: 
* FROM COMMENT: 
649  Master   V     C        01:34:25:10 01:34:27:11 01:34:25:10 01:34:27:11
* FROM CLIP NAME:  3C-1-A 48 FPS
* FROM FILE: 
* FROM COMMENT: 
650  Master   V     C        01:34:27:11 01:34:31:22 01:34:27:11 01:34:31:22
* FROM CLIP NAME:  3C-1-A 48 FPS
* FROM FILE: 
* FROM COMMENT: 
651  Master   V     C        01:34:31:22 01:34:34:19 01:34:31:22 01:34:34:19
* FROM CLIP NAME:  3C-1-A 48 FPS
* FROM FILE: 
* FROM COMMENT: 
652  Master   V     C        01:34:34:19 01:34:36:17 01:34:34:19 01:34:36:17
* FROM CLIP NAME:  3C-1-A 48 FPS
* FROM FILE: 
* FROM COMMENT: 
653  Master   V     C        01:34:36:17 01:34:39:14 01:34:36:17 01:34:39:14
* FROM CLIP NAME:  3C-1-A 48 FPS
* FROM FILE: 
* FROM COMMENT: 
654  Master   V     C        01:34:39:14 01:34:42:21 01:34:39:14 01:34:42:21
* FROM CLIP NAME:  3C-1-A 48 FPS
* FROM FILE: 
* FROM COMMENT: 
655  Master   V     C        01:34:42:21 01:34:45:04 01:34:42:21 01:34:45:04
* FROM CLIP NAME:  3C-1-A 48 FPS
* FROM FILE: 
* FROM COMMENT: 
656  Master   V     C        01:34:45:04 01:34:46:13 01:34:45:04 01:34:46:13
* FROM CLIP NAME:  3C-1-A 48 FPS
* FROM FILE: 
* FROM COMMENT: 
657  Master   V     C        01:34:46:13 01:34:50:14 01:34:46:13 01:34:50:14
* FROM CLIP NAME:  3C-1-A 48 FPS
* FROM FILE: 
* FROM COMMENT: 
658  Master   V     C        01:34:50:14 01:34:52:22 01:34:50:14 01:34:52:22
* FROM CLIP NAME:  3C-1-A 48 FPS
* FROM FILE: 
* FROM COMMENT: 
659  Master   V     C        01:34:52:22 01:34:59:08 01:34:52:22 01:34:59:08
* FROM CLIP NAME:  3C-1-A 48 FPS
* FROM FILE: 
* FROM COMMENT: 
660  Master   V     C        01:34:59:08 01:35:00:08 01:34:59:08 01:35:00:08
* FROM CLIP NAME:  3C-1-A 48 FPS
* FROM FILE: 
* FROM COMMENT: 
661  Master   V     C        01:35:00:08 01:35:00:20 01:35:00:08 01:35:00:20
* FROM CLIP NAME:  3C-1-A 48 FPS
* FROM FILE: 
* FROM COMMENT: 
662  Master   V     C        01:35:00:20 01:35:04:16 01:35:00:20 01:35:04:16
* FROM CLIP NAME:  3C-1-A 48 FPS
* FROM FILE: 
* FROM COMMENT: 
663  Master   V     C        01:35:04:16 01:35:06:19 01:35:04:16 01:35:06:19
* FROM CLIP NAME:  3C-1-A 48 FPS
* FROM FILE: 
* FROM COMMENT: 
664  Master   V     C        01:35:06:19 01:35:11:15 01:35:06:19 01:35:11:15
* FROM CLIP NAME:  3C-1-A 48 FPS
* FROM FILE: 
* FROM COMMENT: 
665  Master   V     C        01:35:11:15 01:35:13:22 01:35:11:15 01:35:13:22
* FROM CLIP NAME:  3C-1-A 48 FPS
* FROM FILE: 
* FROM COMMENT: 
666  Master   V     C        01:35:13:22 01:35:15:10 01:35:13:22 01:35:15:10
* FROM CLIP NAME:  3C-1-A 48 FPS
* FROM FILE: 
* FROM COMMENT: 
667  Master   V     C        01:35:15:10 01:35:19:08 01:35:15:10 01:35:19:08
* FROM CLIP NAME:  3C-1-A 48 FPS
* FROM FILE: 
* FROM COMMENT: 
668  Master   V     C        01:35:19:08 01:35:24:08 01:35:19:08 01:35:24:08
* FROM CLIP NAME:  3C-1-A 48 FPS
* FROM FILE: 
* FROM COMMENT: 
669  Master   V     C        01:35:24:08 01:35:27:02 01:35:24:08 01:35:27:02
* FROM CLIP NAME:  3C-1-A 48 FPS
* FROM FILE: 
* FROM COMMENT: 
670  Master   V     C        01:35:27:02 01:35:32:10 01:35:27:02 01:35:32:10
* FROM CLIP NAME:  3C-1-A 48 FPS
* FROM FILE: 
* FROM COMMENT: 
671  Master   V     C        01:35:32:10 01:35:35:02 01:35:32:10 01:35:35:02
* FROM CLIP NAME:  3C-1-A 48 FPS
* FROM FILE: 
* FROM COMMENT: 
672  Master   V     C        01:35:35:02 01:35:37:01 01:35:35:02 01:35:37:01
* FROM CLIP NAME:  3C-1-A 48 FPS
* FROM FILE: 
* FROM COMMENT: 
673  Master   V     C        01:35:37:01 01:35:42:06 01:35:37:01 01:35:42:06
* FROM CLIP NAME:  3C-1-A 48 FPS
* FROM FILE: 
* FROM COMMENT: 
674  Master   V     C        01:35:42:06 01:35:46:00 01:35:42:06 01:35:46:00
* FROM CLIP NAME:  3C-1-A 48 FPS
* FROM FILE: 
* FROM COMMENT: 
675  Master   V     C        01:35:46:00 01:35:46:19 01:35:46:00 01:35:46:19
* FROM CLIP NAME:  3C-1-A 48 FPS
* FROM FILE: 
* FROM COMMENT: 
676  Master   V     C        01:35:46:19 01:35:48:12 01:35:46:19 01:35:48:12
* FROM CLIP NAME:  3C-1-A 48 FPS
* FROM FILE: 
* FROM COMMENT: 
677  Master   V     C        01:35:48:12 01:35:50:10 01:35:48:12 01:35:50:10
* FROM CLIP NAME:  3C-1-A 48 FPS
* FROM FILE: 
* FROM COMMENT: 
678  Master   V     C        01:35:50:10 01:35:51:08 01:35:50:10 01:35:51:08
* FROM CLIP NAME:  3C-1-A 48 FPS
* FROM FILE: 
* FROM COMMENT: 
679  Master   V     C        01:35:51:08 01:35:52:07 01:35:51:08 01:35:52:07
* FROM CLIP NAME:  3C-1-A 48 FPS
* FROM FILE: 
* FROM COMMENT: 
680  Master   V     C        01:35:52:07 01:35:53:12 01:35:52:07 01:35:53:12
* FROM CLIP NAME:  3C-1-A 48 FPS
* FROM FILE: 
* FROM COMMENT: 
681  Master   V     C        01:35:53:12 01:35:54:06 01:35:53:12 01:35:54:06
* FROM CLIP NAME:  3C-1-A 48 FPS
* FROM FILE: 
* FROM COMMENT: 
682  Master   V     C        01:35:54:06 01:35:56:09 01:35:54:06 01:35:56:09
* FROM CLIP NAME:  3C-1-A 48 FPS
* FROM FILE: 
* FROM COMMENT: 
683  Master   V     C        01:35:56:09 01:35:57:11 01:35:56:09 01:35:57:11
* FROM CLIP NAME:  3C-1-A 48 FPS
* FROM FILE: 
* FROM COMMENT: 
684  Master   V     C        01:35:57:11 01:36:00:09 01:35:57:11 01:36:00:09
* FROM CLIP NAME:  3C-1-A 48 FPS
* FROM FILE: 
* FROM COMMENT: 
685  Master   V     C        01:36:00:09 01:36:04:12 01:36:00:09 01:36:04:12
* FROM CLIP NAME:  3C-1-A 48 FPS
* FROM FILE: 
* FROM COMMENT: 
686  Master   V     C        01:36:04:12 01:36:06:05 01:36:04:12 01:36:06:05
* FROM CLIP NAME:  3C-1-A 48 FPS
* FROM FILE: 
* FROM COMMENT: 
687  Master   V     C        01:36:06:05 01:36:06:23 01:36:06:05 01:36:06:23
* FROM CLIP NAME:  3C-1-A 48 FPS
* FROM FILE: 
* FROM COMMENT: 
688  Master   V     C        01:36:06:23 01:36:07:22 01:36:06:23 01:36:07:22
* FROM CLIP NAME:  3C-1-A 48 FPS
* FROM FILE: 
* FROM COMMENT: 
689  Master   V     C        01:36:07:22 01:36:09:02 01:36:07:22 01:36:09:02
* FROM CLIP NAME:  3C-1-A 48 FPS
* FROM FILE: 
* FROM COMMENT: 
690  Master   V     C        01:36:09:02 01:36:11:23 01:36:09:02 01:36:11:23
* FROM CLIP NAME:  3C-1-A 48 FPS
* FROM FILE: 
* FROM COMMENT: 
691  Master   V     C        01:36:11:23 01:36:13:22 01:36:11:23 01:36:13:22
* FROM CLIP NAME:  3C-1-A 48 FPS
* FROM FILE: 
* FROM COMMENT: 
692  Master   V     C        01:36:13:22 01:36:16:09 01:36:13:22 01:36:16:09
* FROM CLIP NAME:  3C-1-A 48 FPS
* FROM FILE: 
* FROM COMMENT: 
693  Master   V     C        01:36:16:09 01:36:17:14 01:36:16:09 01:36:17:14
* FROM CLIP NAME:  3C-1-A 48 FPS
* FROM FILE: 
* FROM COMMENT: 
694  Master   V     C        01:36:17:14 01:36:18:04 01:36:17:14 01:36:18:04
* FROM CLIP NAME:  3C-1-A 48 FPS
* FROM FILE: 
* FROM COMMENT: 
695  Master   V     C        01:36:18:04 01:36:24:02 01:36:18:04 01:36:24:02
* FROM CLIP NAME:  3C-1-A 48 FPS
* FROM FILE: 
* FROM COMMENT: 
696  Master   V     C        01:36:24:02 01:36:27:07 01:36:24:02 01:36:27:07
* FROM CLIP NAME:  3C-1-A 48 FPS
* FROM FILE: 
* FROM COMMENT: 
697  Master   V     C        01:36:27:07 01:36:29:21 01:36:27:07 01:36:29:21
* FROM CLIP NAME:  3C-1-A 48 FPS
* FROM FILE: 
* FROM COMMENT: 
698  Master   V     C        01:36:29:21 01:36:32:17 01:36:29:21 01:36:32:17
* FROM CLIP NAME:  3C-1-A 48 FPS
* FROM FILE: 
* FROM COMMENT: 
699  Master   V     C        01:36:32:17 01:36:34:18 01:36:32:17 01:36:34:18
* FROM CLIP NAME:  3C-1-A 48 FPS
* FROM FILE: 
* FROM COMMENT: 
700  Master   V     C        01:36:34:18 01:36:38:00 01:36:34:18 01:36:38:00
* FROM CLIP NAME:  3C-1-A 48 FPS
* FROM FILE: 
* FROM COMMENT: 
701  Master   V     C        01:36:38:00 01:36:38:00 01:36:38:00 01:36:38:00
701 Master   V     D    001 01:36:38:00 01:36:38:01 01:36:38:00 01:36:38:01
* FROM CLIP NAME:  3C-1-A 48 FPS
* FROM FILE: 
* FROM COMMENT: 
* TO CLIP NAME:  3C-1-A 48 FPS
* TO FILE: 
* TO COMMENT: 
702  Master   V     C        01:36:38:01 01:36:42:08 01:36:38:01 01:36:42:08
* FROM CLIP NAME:  3C-1-A 48 FPS
* FROM FILE: 
* FROM COMMENT: 
703  Master   V     C        01:36:42:08 01:36:44:05 01:36:42:08 01:36:44:05
* FROM CLIP NAME:  3C-1-A 48 FPS
* FROM FILE: 
* FROM COMMENT: 
704  Master   V     C        01:36:44:05 01:36:45:22 01:36:44:05 01:36:45:22
* FROM CLIP NAME:  3C-1-A 48 FPS
* FROM FILE: 
* FROM COMMENT: 
705  Master   V     C        01:36:45:22 01:36:48:11 01:36:45:22 01:36:48:11
* FROM CLIP NAME:  3C-1-A 48 FPS
* FROM FILE: 
* FROM COMMENT: 
706  Master   V     C        01:36:48:11 01:36:50:14 01:36:48:11 01:36:50:14
* FROM CLIP NAME:  3C-1-A 48 FPS
* FROM FILE: 
* FROM COMMENT: 
707  Master   V     C        01:36:50:14 01:36:51:19 01:36:50:14 01:36:51:19
* FROM CLIP NAME:  3C-1-A 48 FPS
* FROM FILE: 
* FROM COMMENT: 
708  Master   V     C        01:36:51:19 01:36:56:02 01:36:51:19 01:36:56:02
* FROM CLIP NAME:  3C-1-A 48 FPS
* FROM FILE: 
* FROM COMMENT: 
709  Master   V     C        01:36:56:02 01:36:59:04 01:36:56:02 01:36:59:04
* FROM CLIP NAME:  3C-1-A 48 FPS
* FROM FILE: 
* FROM COMMENT: 
710  Master   V     C        01:36:59:04 01:37:00:22 01:36:59:04 01:37:00:22
* FROM CLIP NAME:  3C-1-A 48 FPS
* FROM FILE: 
* FROM COMMENT: 
711  Master   V     C        01:37:00:22 01:37:02:05 01:37:00:22 01:37:02:05
* FROM CLIP NAME:  3C-1-A 48 FPS
* FROM FILE: 
* FROM COMMENT: 
712  Master   V     C        01:37:02:05 01:37:06:17 01:37:02:05 01:37:06:17
* FROM CLIP NAME:  3C-1-A 48 FPS
* FROM FILE: 
* FROM COMMENT: 
713  Master   V     C        01:37:06:17 01:37:08:10 01:37:06:17 01:37:08:10
* FROM CLIP NAME:  3C-1-A 48 FPS
* FROM FILE: 
* FROM COMMENT: 
714  Master   V     C        01:37:08:10 01:37:09:20 01:37:08:10 01:37:09:20
* FROM CLIP NAME:  3C-1-A 48 FPS
* FROM FILE: 
* FROM COMMENT: 
715  Master   V     C        01:37:09:20 01:37:11:07 01:37:09:20 01:37:11:07
* FROM CLIP NAME:  3C-1-A 48 FPS
* FROM FILE: 
* FROM COMMENT: 
716  Master   V     C        01:37:11:07 01:37:13:23 01:37:11:07 01:37:13:23
* FROM CLIP NAME:  3C-1-A 48 FPS
* FROM FILE: 
* FROM COMMENT: 
717  Master   V     C        01:37:13:23 01:37:15:21 01:37:13:23 01:37:15:21
* FROM CLIP NAME:  3C-1-A 48 FPS
* FROM FILE: 
* FROM COMMENT: 
718  Master   V     C        01:37:15:21 01:37:17:04 01:37:15:21 01:37:17:04
* FROM CLIP NAME:  3C-1-A 48 FPS
* FROM FILE: 
* FROM COMMENT: 
719  Master   V     C        01:37:17:04 01:37:18:18 01:37:17:04 01:37:18:18
* FROM CLIP NAME:  3C-1-A 48 FPS
* FROM FILE: 
* FROM COMMENT: 
720  Master   V     C        01:37:18:18 01:37:20:11 01:37:18:18 01:37:20:11
* FROM CLIP NAME:  3C-1-A 48 FPS
* FROM FILE: 
* FROM COMMENT: 
721  Master   V     C        01:37:20:11 01:37:21:20 01:37:20:11 01:37:21:20
* FROM CLIP NAME:  3C-1-A 48 FPS
* FROM FILE: 
* FROM COMMENT: 
722  Master   V     C        01:37:21:20 01:37:25:08 01:37:21:20 01:37:25:08
* FROM CLIP NAME:  3C-1-A 48 FPS
* FROM FILE: 
* FROM COMMENT: 
723  Master   V     C        01:37:25:08 01:37:26:17 01:37:25:08 01:37:26:17
* FROM CLIP NAME:  3C-1-A 48 FPS
* FROM FILE: 
* FROM COMMENT: 
724  Master   V     C        01:37:26:17 01:37:31:10 01:37:26:17 01:37:31:10
* FROM CLIP NAME:  3C-1-A 48 FPS
* FROM FILE: 
* FROM COMMENT: 
725  Master   V     C        01:37:31:10 01:37:34:22 01:37:31:10 01:37:34:22
* FROM CLIP NAME:  3C-1-A 48 FPS
* FROM FILE: 
* FROM COMMENT: 
726  Master   V     C        01:37:34:22 01:37:38:11 01:37:34:22 01:37:38:11
* FROM CLIP NAME:  3C-1-A 48 FPS
* FROM FILE: 
* FROM COMMENT: 
727  Master   V     C        01:37:38:11 01:37:40:01 01:37:38:11 01:37:40:01
* FROM CLIP NAME:  3C-1-A 48 FPS
* FROM FILE: 
* FROM COMMENT: 
728  Master   V     C        01:37:40:01 01:37:43:00 01:37:40:01 01:37:43:00
* FROM CLIP NAME:  3C-1-A 48 FPS
* FROM FILE: 
* FROM COMMENT: 
729  Master   V     C        01:37:43:00 01:37:45:06 01:37:43:00 01:37:45:06
* FROM CLIP NAME:  3C-1-A 48 FPS
* FROM FILE: 
* FROM COMMENT: 
730  Master   V     C        01:37:45:06 01:37:49:01 01:37:45:06 01:37:49:01
* FROM CLIP NAME:  3C-1-A 48 FPS
* FROM FILE: 
* FROM COMMENT: 
731  Master   V     C        01:37:49:01 01:37:55:09 01:37:49:01 01:37:55:09
* FROM CLIP NAME:  3C-1-A 48 FPS
* FROM FILE: 
* FROM COMMENT: 
732  Master   V     C        01:37:55:09 01:37:57:16 01:37:55:09 01:37:57:16
* FROM CLIP NAME:  3C-1-A 48 FPS
* FROM FILE: 
* FROM COMMENT: 
733  Master   V     C        01:37:57:16 01:38:02:04 01:37:57:16 01:38:02:04
* FROM CLIP NAME:  3C-1-A 48 FPS
* FROM FILE: 
* FROM COMMENT: 
734  Master   V     C        01:38:02:04 01:38:04:16 01:38:02:04 01:38:04:16
* FROM CLIP NAME:  3C-1-A 48 FPS
* FROM FILE: 
* FROM COMMENT: 
735  Master   V     C        01:38:04:16 01:38:07:07 01:38:04:16 01:38:07:07
* FROM CLIP NAME:  3C-1-A 48 FPS
* FROM FILE: 
* FROM COMMENT: 
736  Master   V     C        01:38:07:07 01:38:08:17 01:38:07:07 01:38:08:17
* FROM CLIP NAME:  3C-1-A 48 FPS
* FROM FILE: 
* FROM COMMENT: 
737  Master   V     C        01:38:08:17 01:38:10:20 01:38:08:17 01:38:10:20
* FROM CLIP NAME:  3C-1-A 48 FPS
* FROM FILE: 
* FROM COMMENT: 
738  Master   V     C        01:38:10:20 01:38:14:16 01:38:10:20 01:38:14:16
* FROM CLIP NAME:  3C-1-A 48 FPS
* FROM FILE: 
* FROM COMMENT: 
739  Master   V     C        01:38:14:16 01:38:18:22 01:38:14:16 01:38:18:22
* FROM CLIP NAME:  3C-1-A 48 FPS
* FROM FILE: 
* FROM COMMENT: 
740  Master   V     C        01:38:18:22 01:38:21:09 01:38:18:22 01:38:21:09
* FROM CLIP NAME:  3C-1-A 48 FPS
* FROM FILE: 
* FROM COMMENT: 
741  Master   V     C        01:38:21:09 01:38:23:22 01:38:21:09 01:38:23:22
* FROM CLIP NAME:  3C-1-A 48 FPS
* FROM FILE: 
* FROM COMMENT: 
742  Master   V     C        01:38:23:22 01:38:32:19 01:38:23:22 01:38:32:19
* FROM CLIP NAME:  3C-1-A 48 FPS
* FROM FILE: 
* FROM COMMENT: 
743  Master   V     C        01:38:32:19 01:38:34:08 01:38:32:19 01:38:34:08
* FROM CLIP NAME:  3C-1-A 48 FPS
* FROM FILE: 
* FROM COMMENT: 
744  Master   V     C        01:38:34:08 01:38:36:23 01:38:34:08 01:38:36:23
* FROM CLIP NAME:  3C-1-A 48 FPS
* FROM FILE: 
* FROM COMMENT: 
745  Master   V     C        01:38:36:23 01:38:43:05 01:38:36:23 01:38:43:05
* FROM CLIP NAME:  3C-1-A 48 FPS
* FROM FILE: 
* FROM COMMENT: 
746  Master   V     C        01:38:43:05 01:38:46:14 01:38:43:05 01:38:46:14
* FROM CLIP NAME:  3C-1-A 48 FPS
* FROM FILE: 
* FROM COMMENT: 
747  Master   V     C        01:38:46:14 01:38:49:03 01:38:46:14 01:38:49:03
* FROM CLIP NAME:  3C-1-A 48 FPS
* FROM FILE: 
* FROM COMMENT: 
748  Master   V     C        01:38:49:03 01:38:50:07 01:38:49:03 01:38:50:07
* FROM CLIP NAME:  3C-1-A 48 FPS
* FROM FILE: 
* FROM COMMENT: 
749  Master   V     C        01:38:50:07 01:38:51:20 01:38:50:07 01:38:51:20
* FROM CLIP NAME:  3C-1-A 48 FPS
* FROM FILE: 
* FROM COMMENT: 
750  Master   V     C        01:38:51:20 01:38:53:20 01:38:51:20 01:38:53:20
* FROM CLIP NAME:  3C-1-A 48 FPS
* FROM FILE: 
* FROM COMMENT: 
751  Master   V     C        01:38:53:20 01:38:56:06 01:38:53:20 01:38:56:06
* FROM CLIP NAME:  3C-1-A 48 FPS
* FROM FILE: 
* FROM COMMENT: 
752  Master   V     C        01:38:56:06 01:39:02:02 01:38:56:06 01:39:02:02
* FROM CLIP NAME:  3C-1-A 48 FPS
* FROM FILE: 
* FROM COMMENT: 
753  Master   V     C        01:39:02:02 01:39:03:09 01:39:02:02 01:39:03:09
* FROM CLIP NAME:  3C-1-A 48 FPS
* FROM FILE: 
* FROM COMMENT: 
754  Master   V     C        01:39:03:09 01:39:04:20 01:39:03:09 01:39:04:20
* FROM CLIP NAME:  3C-1-A 48 FPS
* FROM FILE: 
* FROM COMMENT: 
755  Master   V     C        01:39:04:20 01:39:07:00 01:39:04:20 01:39:07:00
* FROM CLIP NAME:  3C-1-A 48 FPS
* FROM FILE: 
* FROM COMMENT: 
756  Master   V     C        01:39:07:00 01:39:11:07 01:39:07:00 01:39:11:07
* FROM CLIP NAME:  3C-1-A 48 FPS
* FROM FILE: 
* FROM COMMENT: 
757  Master   V     C        01:39:11:07 01:39:12:08 01:39:11:07 01:39:12:08
* FROM CLIP NAME:  3C-1-A 48 FPS
* FROM FILE: 
* FROM COMMENT: 
758  Master   V     C        01:39:12:08 01:39:16:02 01:39:12:08 01:39:16:02
* FROM CLIP NAME:  3C-1-A 48 FPS
* FROM FILE: 
* FROM COMMENT: 
759  Master   V     C        01:39:16:02 01:39:17:05 01:39:16:02 01:39:17:05
* FROM CLIP NAME:  3C-1-A 48 FPS
* FROM FILE: 
* FROM COMMENT: 
760  Master   V     C        01:39:17:05 01:39:19:20 01:39:17:05 01:39:19:20
* FROM CLIP NAME:  3C-1-A 48 FPS
* FROM FILE: 
* FROM COMMENT: 
761  Master   V     C        01:39:19:20 01:39:22:04 01:39:19:20 01:39:22:04
* FROM CLIP NAME:  3C-1-A 48 FPS
* FROM FILE: 
* FROM COMMENT: 
762  Master   V     C        01:39:22:04 01:39:30:04 01:39:22:04 01:39:30:04
* FROM CLIP NAME:  3C-1-A 48 FPS
* FROM FILE: 
* FROM COMMENT: 
763  Master   V     C        01:39:30:04 01:39:32:13 01:39:30:04 01:39:32:13
* FROM CLIP NAME:  3C-1-A 48 FPS
* FROM FILE: 
* FROM COMMENT: 
764  Master   V     C        01:39:32:13 01:39:34:01 01:39:32:13 01:39:34:01
* FROM CLIP NAME:  3C-1-A 48 FPS
* FROM FILE: 
* FROM COMMENT: 
765  Master   V     C        01:39:34:01 01:39:35:02 01:39:34:01 01:39:35:02
* FROM CLIP NAME:  3C-1-A 48 FPS
* FROM FILE: 
* FROM COMMENT: 
766  Master   V     C        01:39:35:02 01:39:37:19 01:39:35:02 01:39:37:19
* FROM CLIP NAME:  3C-1-A 48 FPS
* FROM FILE: 
* FROM COMMENT: 
767  Master   V     C        01:39:37:19 01:39:41:08 01:39:37:19 01:39:41:08
* FROM CLIP NAME:  3C-1-A 48 FPS
* FROM FILE: 
* FROM COMMENT: 
768  Master   V     C        01:39:41:08 01:39:43:02 01:39:41:08 01:39:43:02
* FROM CLIP NAME:  3C-1-A 48 FPS
* FROM FILE: 
* FROM COMMENT: 
769  Master   V     C        01:39:43:02 01:39:48:05 01:39:43:02 01:39:48:05
* FROM CLIP NAME:  3C-1-A 48 FPS
* FROM FILE: 
* FROM COMMENT: 
770  Master   V     C        01:39:48:05 01:39:50:13 01:39:48:05 01:39:50:13
* FROM CLIP NAME:  3C-1-A 48 FPS
* FROM FILE: 
* FROM COMMENT: 
771  Master   V     C        01:39:50:13 01:39:53:10 01:39:50:13 01:39:53:10
* FROM CLIP NAME:  3C-1-A 48 FPS
* FROM FILE: 
* FROM COMMENT: 
772  Master   V     C        01:39:53:10 01:39:54:16 01:39:53:10 01:39:54:16
* FROM CLIP NAME:  3C-1-A 48 FPS
* FROM FILE: 
* FROM COMMENT: 
773  Master   V     C        01:39:54:16 01:39:56:04 01:39:54:16 01:39:56:04
* FROM CLIP NAME:  3C-1-A 48 FPS
* FROM FILE: 
* FROM COMMENT: 
774  Master   V     C        01:39:56:04 01:39:58:00 01:39:56:04 01:39:58:00
* FROM CLIP NAME:  3C-1-A 48 FPS
* FROM FILE: 
* FROM COMMENT: 
775  Master   V     C        01:39:58:00 01:40:02:21 01:39:58:00 01:40:02:21
* FROM CLIP NAME:  3C-1-A 48 FPS
* FROM FILE: 
* FROM COMMENT: 
776  Master   V     C        01:40:02:21 01:40:05:07 01:40:02:21 01:40:05:07
* FROM CLIP NAME:  3C-1-A 48 FPS
* FROM FILE: 
* FROM COMMENT: 
777  Master   V     C        01:40:05:07 01:40:08:16 01:40:05:07 01:40:08:16
* FROM CLIP NAME:  3C-1-A 48 FPS
* FROM FILE: 
* FROM COMMENT: 
778  Master   V     C        01:40:08:16 01:40:12:07 01:40:08:16 01:40:12:07
* FROM CLIP NAME:  3C-1-A 48 FPS
* FROM FILE: 
* FROM COMMENT: 
779  Master   V     C        01:40:12:07 01:40:15:07 01:40:12:07 01:40:15:07
* FROM CLIP NAME:  3C-1-A 48 FPS
* FROM FILE: 
* FROM COMMENT: 
780  Master   V     C        01:40:15:07 01:40:18:07 01:40:15:07 01:40:18:07
* FROM CLIP NAME:  3C-1-A 48 FPS
* FROM FILE: 
* FROM COMMENT: 
781  Master   V     C        01:40:18:07 01:40:19:13 01:40:18:07 01:40:19:13
* FROM CLIP NAME:  3C-1-A 48 FPS
* FROM FILE: 
* FROM COMMENT: 
782  Master   V     C        01:40:19:13 01:40:20:18 01:40:19:13 01:40:20:18
* FROM CLIP NAME:  3C-1-A 48 FPS
* FROM FILE: 
* FROM COMMENT: 
783  Master   V     C        01:40:20:18 01:40:23:04 01:40:20:18 01:40:23:04
* FROM CLIP NAME:  3C-1-A 48 FPS
* FROM FILE: 
* FROM COMMENT: 
784  Master   V     C        01:40:23:04 01:40:25:17 01:40:23:04 01:40:25:17
* FROM CLIP NAME:  3C-1-A 48 FPS
* FROM FILE: 
* FROM COMMENT: 
785  Master   V     C        01:40:25:17 01:40:30:12 01:40:25:17 01:40:30:12
* FROM CLIP NAME:  3C-1-A 48 FPS
* FROM FILE: 
* FROM COMMENT: 
786  Master   V     C        01:40:30:12 01:40:32:06 01:40:30:12 01:40:32:06
* FROM CLIP NAME:  3C-1-A 48 FPS
* FROM FILE: 
* FROM COMMENT: 
787  Master   V     C        01:40:32:06 01:40:33:21 01:40:32:06 01:40:33:21
* FROM CLIP NAME:  3C-1-A 48 FPS
* FROM FILE: 
* FROM COMMENT: 
788  Master   V     C        01:40:33:21 01:40:36:02 01:40:33:21 01:40:36:02
* FROM CLIP NAME:  3C-1-A 48 FPS
* FROM FILE: 
* FROM COMMENT: 
789  Master   V     C        01:40:36:02 01:40:37:05 01:40:36:02 01:40:37:05
* FROM CLIP NAME:  3C-1-A 48 FPS
* FROM FILE: 
* FROM COMMENT: 
790  Master   V     C        01:40:37:05 01:40:38:03 01:40:37:05 01:40:38:03
* FROM CLIP NAME:  3C-1-A 48 FPS
* FROM FILE: 
* FROM COMMENT: 
791  Master   V     C        01:40:38:03 01:40:39:01 01:40:38:03 01:40:39:01
* FROM CLIP NAME:  3C-1-A 48 FPS
* FROM FILE: 
* FROM COMMENT: 
792  Master   V     C        01:40:39:01 01:40:40:08 01:40:39:01 01:40:40:08
* FROM CLIP NAME:  3C-1-A 48 FPS
* FROM FILE: 
* FROM COMMENT: 
793  Master   V     C        01:40:40:08 01:40:42:08 01:40:40:08 01:40:42:08
* FROM CLIP NAME:  3C-1-A 48 FPS
* FROM FILE: 
* FROM COMMENT: 
794  Master   V     C        01:40:42:08 01:40:44:23 01:40:42:08 01:40:44:23
* FROM CLIP NAME:  3C-1-A 48 FPS
* FROM FILE: 
* FROM COMMENT: 
795  Master   V     C        01:40:44:23 01:40:47:18 01:40:44:23 01:40:47:18
* FROM CLIP NAME:  3C-1-A 48 FPS
* FROM FILE: 
* FROM COMMENT: 
796  Master   V     C        01:40:47:18 01:40:50:09 01:40:47:18 01:40:50:09
* FROM CLIP NAME:  3C-1-A 48 FPS
* FROM FILE: 
* FROM COMMENT: 
797  Master   V     C        01:40:50:09 01:40:51:17 01:40:50:09 01:40:51:17
* FROM CLIP NAME:  3C-1-A 48 FPS
* FROM FILE: 
* FROM COMMENT: 
798  Master   V     C        01:40:51:17 01:40:53:18 01:40:51:17 01:40:53:18
* FROM CLIP NAME:  3C-1-A 48 FPS
* FROM FILE: 
* FROM COMMENT: 
799  Master   V     C        01:40:53:18 01:40:56:08 01:40:53:18 01:40:56:08
* FROM CLIP NAME:  3C-1-A 48 FPS
* FROM FILE: 
* FROM COMMENT: 
800  Master   V     C        01:40:56:08 01:40:59:12 01:40:56:08 01:40:59:12
* FROM CLIP NAME:  3C-1-A 48 FPS
* FROM FILE: 
* FROM COMMENT: 
801  Master   V     C        01:40:59:12 01:41:00:21 01:40:59:12 01:41:00:21
* FROM CLIP NAME:  3C-1-A 48 FPS
* FROM FILE: 
* FROM COMMENT: 
802  Master   V     C        01:41:00:21 01:41:04:01 01:41:00:21 01:41:04:01
* FROM CLIP NAME:  3C-1-A 48 FPS
* FROM FILE: 
* FROM COMMENT: 
803  Master   V     C        01:41:04:01 01:41:05:19 01:41:04:01 01:41:05:19
* FROM CLIP NAME:  3C-1-A 48 FPS
* FROM FILE: 
* FROM COMMENT: 
804  Master   V     C        01:41:05:19 01:41:13:07 01:41:05:19 01:41:13:07
* FROM CLIP NAME:  3C-1-A 48 FPS
* FROM FILE: 
* FROM COMMENT: 
805  Master   V     C        01:41:13:07 01:41:23:01 01:41:13:07 01:41:23:01
* FROM CLIP NAME:  3C-1-A 48 FPS
* FROM FILE: 
* FROM COMMENT: 
806  Master   V     C        01:41:23:01 01:41:23:01 01:41:23:01 01:41:23:01
806 Master   V     D    024 01:41:23:01 01:41:24:01 01:41:23:01 01:41:24:01
* FROM CLIP NAME:  3C-1-A 48 FPS
* FROM FILE: 
* FROM COMMENT: 
* TO CLIP NAME:  3C-1-A 48 FPS
* TO FILE: 
* TO COMMENT: 
807  Master   V     C        01:41:24:01 01:41:25:17 01:41:24:01 01:41:25:17
* FROM CLIP NAME:  3C-1-A 48 FPS
* FROM FILE: 
* FROM COMMENT: 
808  Master   V     C        01:41:25:17 01:41:26:05 01:41:25:17 01:41:26:05
* FROM CLIP NAME:  3C-1-A 48 FPS
* FROM FILE: 
* FROM COMMENT: 
809  Master   V     C        01:41:26:05 01:41:56:05 01:41:26:05 01:41:56:05
* FROM CLIP NAME:  3C-1-A 48 FPS
* FROM FILE: 
* FROM COMMENT: 
810  Master   V     C        01:41:56:05 01:41:58:04 01:41:56:05 01:41:58:04
* FROM CLIP NAME:  3C-1-A 48 FPS
* FROM FILE: 
* FROM COMMENT: 
811  Master   V     C        01:41:58:04 01:41:58:05 01:41:58:04 01:41:58:05
* FROM CLIP NAME:  3C-1-A 48 FPS
* FROM FILE: 
* FROM COMMENT: 
812  Master   V     C        01:41:58:05 01:42:28:05 01:41:58:05 01:42:28:05
* FROM CLIP NAME:  3C-1-A 48 FPS
* FROM FILE: 
* FROM COMMENT: 
813  Master   V     C        01:42:28:05 01:42:29:19 01:42:28:05 01:42:29:19
* FROM CLIP NAME:  3C-1-A 48 FPS
* FROM FILE: 
* FROM COMMENT: 
814  Master   V     C        01:42:29:19 01:42:37:19 01:42:29:19 01:42:37:19
* FROM CLIP NAME:  3C-1-A 48 FPS
* FROM FILE: 
* FROM COMMENT: 
815  Master   V     C        01:42:37:19 01:42:43:12 01:42:37:19 01:42:43:12
* FROM CLIP NAME:  3C-1-A 48 FPS
* FROM FILE: 
* FROM COMMENT: 
816  Master   V     C        01:42:43:12 01:42:46:04 01:42:43:12 01:42:46:04
* FROM CLIP NAME:  3C-1-A 48 FPS
* FROM FILE: 
* FROM COMMENT: 
817  Master   V     C        01:42:46:04 01:42:49:07 01:42:46:04 01:42:49:07
* FROM CLIP NAME:  3C-1-A 48 FPS
* FROM FILE: 
* FROM COMMENT: 
818  Master   V     C        01:42:49:07 01:42:51:16 01:42:49:07 01:42:51:16
* FROM CLIP NAME:  3C-1-A 48 FPS
* FROM FILE: 
* FROM COMMENT: 
819  Master   V     C        01:42:51:16 01:42:57:17 01:42:51:16 01:42:57:17
* FROM CLIP NAME:  3C-1-A 48 FPS
* FROM FILE: 
* FROM COMMENT: 
820  Master   V     C        01:42:57:17 01:43:02:08 01:42:57:17 01:43:02:08
* FROM CLIP NAME:  3C-1-A 48 FPS
* FROM FILE: 
* FROM COMMENT: 
821  Master   V     C        01:43:02:08 01:43:06:23 01:43:02:08 01:43:06:23
* FROM CLIP NAME:  3C-1-A 48 FPS
* FROM FILE: 
* FROM COMMENT: 
822  Master   V     C        01:43:06:23 01:43:17:11 01:43:06:23 01:43:17:11
* FROM CLIP NAME:  3C-1-A 48 FPS
* FROM FILE: 
* FROM COMMENT: 
823  Master   V     C        01:43:17:11 01:43:24:16 01:43:17:11 01:43:24:16
* FROM CLIP NAME:  3C-1-A 48 FPS
* FROM FILE: 
* FROM COMMENT: 
824  Master   V     C        01:43:24:16 01:43:29:16 01:43:24:16 01:43:29:16
* FROM CLIP NAME:  3C-1-A 48 FPS
* FROM FILE: 
* FROM COMMENT: 
825  Master   V     C        01:43:29:16 01:43:33:13 01:43:29:16 01:43:33:13
* FROM CLIP NAME:  3C-1-A 48 FPS
* FROM FILE: 
* FROM COMMENT: 
826  Master   V     C        01:43:33:13 01:43:47:17 01:43:33:13 01:43:47:17
* FROM CLIP NAME:  3C-1-A 48 FPS
* FROM FILE: 
* FROM COMMENT: 
827  Master   V     C        01:43:47:17 01:43:52:16 01:43:47:17 01:43:52:16
* FROM CLIP NAME:  3C-1-A 48 FPS
* FROM FILE: 
* FROM COMMENT: 
828  Master   V     C        01:43:52:16 01:43:58:10 01:43:52:16 01:43:58:10
* FROM CLIP NAME:  3C-1-A 48 FPS
* FROM FILE: 
* FROM COMMENT: 
829  Master   V     C        01:43:58:10 01:44:04:05 01:43:58:10 01:44:04:05
* FROM CLIP NAME:  3C-1-A 48 FPS
* FROM FILE: 
* FROM COMMENT: 
830  Master   V     C        01:44:04:05 01:44:22:23 01:44:04:05 01:44:22:23
* FROM CLIP NAME:  3C-1-A 48 FPS
* FROM FILE: 
* FROM COMMENT: 
831  Master   V     C        01:44:22:23 01:44:41:17 01:44:22:23 01:44:41:17
* FROM CLIP NAME:  3C-1-A 48 FPS
* FROM FILE: 
* FROM COMMENT: 
832  Master   V     C        01:44:41:17 01:45:05:03 01:44:41:17 01:45:05:03
* FROM CLIP NAME:  3C-1-A 48 FPS
* FROM FILE: 
* FROM COMMENT: 
833  Master   V     C        01:45:05:03 01:45:25:00 01:45:05:03 01:45:25:00
* FROM CLIP NAME:  3C-1-A 48 FPS
* FROM FILE: 
* FROM COMMENT: 
834  Master   V     C        01:45:25:00 01:45:36:01 01:45:25:00 01:45:36:01
* FROM CLIP NAME:  3C-1-A 48 FPS
* FROM FILE: 
* FROM COMMENT: 
835  Master   V     C        01:45:36:01 01:45:42:04 01:45:36:01 01:45:42:04
* FROM CLIP NAME:  3C-1-A 48 FPS
* FROM FILE: 
* FROM COMMENT: 
836  Master   V     C        01:45:42:04 01:45:47:05 01:45:42:04 01:45:47:05
* FROM CLIP NAME:  3C-1-A 48 FPS
* FROM FILE: 
* FROM COMMENT: 
837  Master   V     C        01:45:47:05 01:45:54:04 01:45:47:05 01:45:54:04
* FROM CLIP NAME:  3C-1-A 48 FPS
* FROM FILE: 
* FROM COMMENT: 
838  Master   V     C        01:45:54:04 01:45:58:19 01:45:54:04 01:45:58:19
* FROM CLIP NAME:  3C-1-A 48 FPS
* FROM FILE: 
* FROM COMMENT: 
839  Master   V     C        01:45:58:19 01:46:03:14 01:45:58:19 01:46:03:14
* FROM CLIP NAME:  3C-1-A 48 FPS
* FROM FILE: 
* FROM COMMENT: 
840  Master   V     C        01:46:03:14 01:46:08:05 01:46:03:14 01:46:08:05
* FROM CLIP NAME:  3C-1-A 48 FPS
* FROM FILE: 
* FROM COMMENT: 
841  Master   V     C        01:46:08:05 01:46:11:13 01:46:08:05 01:46:11:13
* FROM CLIP NAME:  3C-1-A 48 FPS
* FROM FILE: 
* FROM COMMENT: 
842  Master   V     C        01:46:11:13 01:46:16:17 01:46:11:13 01:46:16:17
* FROM CLIP NAME:  3C-1-A 48 FPS
* FROM FILE: 
* FROM COMMENT: 
843  Master   V     C        01:46:16:17 01:46:21:18 01:46:16:17 01:46:21:18
* FROM CLIP NAME:  3C-1-A 48 FPS
* FROM FILE: 
* FROM COMMENT: 
844  Master   V     C        01:46:21:18 01:46:34:12 01:46:21:18 01:46:34:12
* FROM CLIP NAME:  3C-1-A 48 FPS
* FROM FILE: 
* FROM COMMENT: 
