TITLE:   GT4005PIC 
FCM: NON-DROP FRAME
001  BLACK.NE V     C        01:00:31:13 01:00:32:13 00:00:00:00 00:00:01:00 
* FROM CLIP NAME:  BLACK.NEW.08 
* SOURCE FILE: BLACK.NEW.08
002  B063C015 V     C        13:31:07:00 13:31:08:12 00:00:01:00 00:00:02:12 
* FROM CLIP NAME:  A41-2B 
* REEL: GT_LEGAL_AID_DAY_01_VENICE_REC7 
* SOURCE FILE: B063C015_21110550
003  A063C023 V     C        14:23:39:05 14:23:42:10 00:00:02:12 00:00:05:17 
* FROM CLIP NAME:  A41B-3A 
* REEL: GT_LEGAL_AID_DAY_01_VENICE_REC7 
* SOURCE FILE: A063C023_180201J5
004  A053C024 V     C        12:52:39:02 12:52:41:19 00:00:05:17 00:00:08:10 
* FROM CLIP NAME:  46-1A 
* REEL: GT_COTERIE_NIGHT_02_LC_VENICE_R 
* SOURCE FILE: A053C024_180128TV
005  A033C012 V     C        10:51:35:12 10:51:38:00 00:00:08:10 00:00:10:22 
* FROM CLIP NAME:  32D-1A 
* REEL: GT_COTERIE_NIGHT_01_VENICE_REC7 
* SOURCE FILE: A033C012_180117H3
006     BL    V     C        00:00:00:00 00:00:01:14 00:00:10:22 00:00:12:12 
* SOURCE FILE: (NULL)
007  B037C006 V     C        10:23:45:06 10:23:46:05 00:00:12:12 00:00:13:11 
* FROM CLIP NAME:  25-1B 
* REEL: GT_EXT_DAY_VENICE_REC709.CUBE 
* SOURCE FILE: B037C006_2110231W
008  A038C005 V     C        09:33:17:02 09:33:18:01 00:00:13:11 00:00:14:10 
* FROM CLIP NAME:  19B-1A 
* REEL: GT_EXT_DAY_VENICE_REC709.CUBE 
* SOURCE FILE: A038C005_1801192M
009  A038C019 V     C        11:34:25:03 11:34:26:05 00:00:14:10 00:00:15:12 
* FROM CLIP NAME:  25D-2A 
* REEL: GT_EXT_DAY_VENICE_REC709.CUBE 
* SOURCE FILE: A038C019_1801197E
010  P003C013 V     C        00:00:08:01 00:00:09:03 00:00:15:12 00:00:16:14 
* PROP IPHONE-13P 
* FROM CLIP NAME:  25-PROP IPHONE-13P 
* REEL: 
* SOURCE FILE: P003C013_IPHONE_2398_102321
011  A038C031 V     C        12:49:07:05 12:49:08:13 00:00:16:14 00:00:17:22 
* FROM CLIP NAME:  25P-1A 
* REEL: GT_EXT_DAY_VENICE_REC709.CUBE 
* SOURCE FILE: A038C031_180119Y2
012  A051C006 V     C        08:56:49:01 08:56:50:20 00:00:17:22 00:00:19:17 
* FROM CLIP NAME:  37A-5A 
* REEL: GT_COTERIE_NIGHT_02_LC_VENICE_R 
* SOURCE FILE: A051C006_180125ID
013  B049C006 V     C        08:56:51:11 08:56:52:07 00:00:19:17 00:00:20:13 
* FROM CLIP NAME:  37A-5B 
* REEL: GT_COTERIE_NIGHT_02_LC_VENICE_R 
* SOURCE FILE: B049C006_211029EM
014  PGOODTRO V     C        01:23:07:19 01:23:08:09 00:00:20:13 00:00:21:03 
* FROM CLIP NAME:  PGOODTROUBLE_E3019_TDSM_HF100008150_R3_LENG.MOV 
* SOURCE FILE: PGOODTROUBLE_E3019_TDSM_HF100008150_R3_LENG.MOV
015  PGOODTRO V     C        01:23:38:07 01:23:38:22 00:00:21:03 00:00:21:18 
* FROM CLIP NAME:  PGOODTROUBLE_E3019_TDSM_HF100008150_R3_LENG.MOV 
* SOURCE FILE: PGOODTROUBLE_E3019_TDSM_HF100008150_R3_LENG.MOV
016  B114C017 V     C        12:33:19:01 12:33:20:01 00:00:21:18 00:00:22:18 
* FROM CLIP NAME:  R49C-1B 
* SOURCE FILE: B114C017_211211Q9
017  PGOODTRO V     C        01:35:09:00 01:35:10:07 00:00:22:18 00:00:24:01 
* FROM CLIP NAME:  PGOODTROUBLE_E3019_TDSM_HF100008150_R3_LENG.MOV.COPY.01 
* SOURCE FILE: PGOODTROUBLE_E3019_TDSM_HF100008150_R3_LENG.MOV
018  B114C031 V     C        14:23:08:20 14:23:09:17 00:00:24:01 00:00:24:22 
* 48FPS 
* FROM CLIP NAME:  R52E-1B_48FPS 
* REEL: GT_COTERIE_NIGHT_03 
* SOURCE FILE: B114C031_211211SO_48FPS
019  B114C032 V     C        14:37:41:04 14:37:42:00 00:00:24:22 00:00:25:18 
* FROM CLIP NAME:  R52F-1B 
* SOURCE FILE: B114C032_2112119A
020  B114C025 V     C        13:54:43:14 13:54:46:17 00:00:25:18 00:00:27:08 
M2   B114C025       048.0                13:54:43:14 
* 48FPS 
* FROM CLIP NAME:  R52B-1B_48FPS 
* REEL: GT_COTERIE_NIGHT_03 
* SOURCE FILE: B114C025_211211NY_48FPS
021  A049C005 V     C        16:40:11:17 16:40:13:20 00:00:27:08 00:00:29:11 
* FROM CLIP NAME:  58C-1A 
* REEL: GT_EXT_DAY_VENICE_REC709.CUBE 
* SOURCE FILE: A049C005_1801243Y
022  A047C015 V     C        16:39:12:23 16:39:14:14 00:00:29:11 00:00:31:02 
* FROM CLIP NAME:  29A-2A 
* REEL: GT_EXT_DAY_VENICE_REC709.CUBE 
* SOURCE FILE: A047C015_180123JL
023  A047C018 V     C        17:00:41:16 17:00:42:23 00:00:31:02 00:00:32:09 
* FROM CLIP NAME:  29C-2A 
* REEL: GT_EXT_DAY_VENICE_REC709.CUBE 
* SOURCE FILE: A047C018_18012344
024  PGOODTRO V     C        01:14:15:04 01:14:16:11 00:00:32:09 00:00:33:16 
* FROM CLIP NAME:  DENIS SAYS HE WILL TAKE TRUCK TO HOSPITAL TO FEED PARENTS 
* SOURCE FILE: PGOODTROUBLE_E3019_TDSM_HF100008150_R3_LENG.MOV
025  A019C026 V     C        16:53:15:16 16:53:17:04 00:00:33:16 00:00:35:04 
* 48FPS 
* FROM CLIP NAME:  1G-1A_48FPS 
* REEL: GT_COTERIE_NIGHT_01 
* SOURCE FILE: A019C026_18011051_48FPS
026  A019C016 V     C        16:15:05:22 16:15:07:14 00:00:35:04 00:00:36:20 
* 48FPS 
* FROM CLIP NAME:  1-1A_48FPS 
* REEL: GT_COTERIE_NIGHT_01 
* SOURCE FILE: A019C016_180110H7_48FPS
027  A019C025 V     C        16:51:02:21 16:51:04:16 00:00:36:20 00:00:38:15 
* 48FPS 
* FROM CLIP NAME:  1F-1A_48FPS 
* REEL: GT_COTERIE_NIGHT_01 
* SOURCE FILE: A019C025_180110R5_48FPS
028  B019C013 V     C        15:33:32:13 15:33:33:18 00:00:38:15 00:00:39:20 
* FROM CLIP NAME:  56E-3B 
* SOURCE FILE: B019C013_2110148C
029     BL    V     C        00:00:00:00 00:00:01:00 00:00:39:20 00:00:40:20 
* SOURCE FILE: (NULL)
030  A105C015 V     C        12:04:19:02 12:04:40:09 00:00:40:20 00:01:02:03 
* FROM CLIP NAME:  2-1A 
* REEL: GT_COTERIE_NIGHT_01_VENICE_REC7 
* SOURCE FILE: A105C015_180305CG
031  A094C002 V     C        08:58:53:00 08:58:55:17 00:01:02:03 00:01:04:20 
* FROM CLIP NAME:  1-2 X2 
* REEL: GT_COTERIE_DAY_01_VENICE_REC709 
* SOURCE FILE: A094C002_180227UC
032  A094C003 V     C        09:12:54:03 09:12:55:11 00:01:04:20 00:01:06:04 
* FROM CLIP NAME:  1A-1 
* REEL: GT_COTERIE_DAY_01_VENICE_REC709 
* SOURCE FILE: A094C003_1802277G
033  A094C002 V     C        08:58:57:01 08:58:59:01 00:01:06:04 00:01:08:04 
* FROM CLIP NAME:  1-2 X2 
* REEL: GT_COTERIE_DAY_01_VENICE_REC709 
* SOURCE FILE: A094C002_180227UC
034  A094C003 V     C        09:12:58:00 09:13:00:04 00:01:08:04 00:01:10:08 
* FROM CLIP NAME:  1A-1 
* REEL: GT_COTERIE_DAY_01_VENICE_REC709 
* SOURCE FILE: A094C003_1802277G
035  A094C002 V     C        08:58:59:09 08:59:00:19 00:01:10:08 00:01:11:18 
* FROM CLIP NAME:  1-2 X2 
* REEL: GT_COTERIE_DAY_01_VENICE_REC709 
* SOURCE FILE: A094C002_180227UC
036  A094C012 V     C        11:11:35:14 11:11:37:09 00:01:11:18 00:01:13:13 
* FROM CLIP NAME:  1J-2A 
* REEL: GT_COTERIE_DAY_01_VENICE_REC709 
* SOURCE FILE: A094C012_180227QN
037  A094C014 V     C        11:21:26:20 11:21:27:19 00:01:13:13 00:01:14:12 
* FROM CLIP NAME:  1K-1A 
* REEL: GT_COTERIE_DAY_01_VENICE_REC709 
* SOURCE FILE: A094C014_180227GM
038  A094C008 V     C        10:22:56:09 10:22:57:17 00:01:14:12 00:01:15:20 
* FROM CLIP NAME:  1F-1 X4 
* REEL: GT_COTERIE_DAY_01_VENICE_REC709 
* SOURCE FILE: A094C008_180227LB
039  B092C003 V     C        10:43:09:11 10:43:13:10 00:01:15:20 00:01:19:19 
* FROM CLIP NAME:  1G-1B 
* REEL: GT_COTERIE_DAY_01_VENICE_REC709 
* SOURCE FILE: B092C003_211201NV
040  B092C002 V     C        09:40:41:21 09:40:43:22 00:01:19:19 00:01:21:20 
* FROM CLIP NAME:  1C-1 X5 
* REEL: GT_COTERIE_DAY_01_VENICE_REC709 
* SOURCE FILE: B092C002_211201AZ
041  B092C003 V     C        10:44:59:02 10:45:00:05 00:01:21:20 00:01:22:23 
* FROM CLIP NAME:  1G-1B 
* REEL: GT_COTERIE_DAY_01_VENICE_REC709 
* SOURCE FILE: B092C003_211201NV
042  A094C007 V     C        10:12:19:19 10:12:20:22 00:01:22:23 00:01:24:02 
* FROM CLIP NAME:  1E-1 X3 
* REEL: GT_COTERIE_DAY_01_VENICE_REC709 
* SOURCE FILE: A094C007_180227MC
043  A094C004 V     C        09:14:46:03 09:14:48:02 00:01:24:02 00:01:26:01 
* FROM CLIP NAME:  1A-2 X2 
* REEL: GT_COTERIE_DAY_01_VENICE_REC709 
* SOURCE FILE: A094C004_180227UX
044  A094C002 V     C        08:59:10:09 08:59:12:03 00:01:26:01 00:01:27:19 
* FROM CLIP NAME:  1-2 X2 
* REEL: GT_COTERIE_DAY_01_VENICE_REC709 
* SOURCE FILE: A094C002_180227UC
045  A094C014 V     C        11:18:23:18 11:18:24:17 00:01:27:19 00:01:28:18 
* FROM CLIP NAME:  1K-1A 
* REEL: GT_COTERIE_DAY_01_VENICE_REC709 
* SOURCE FILE: A094C014_180227GM
046  B092C008 V     C        11:18:25:08 11:18:26:17 00:01:28:18 00:01:30:03 
* FROM CLIP NAME:  1K-1B 
* REEL: GT_COTERIE_DAY_01_VENICE_REC709 
* SOURCE FILE: B092C008_211201PC
047  A094C002 V     C        08:59:18:13 08:59:19:06 00:01:30:03 00:01:30:20 
* FROM CLIP NAME:  1-2 X2 
* REEL: GT_COTERIE_DAY_01_VENICE_REC709 
* SOURCE FILE: A094C002_180227UC
048  A094C004 V     C        09:16:05:07 09:16:06:15 00:01:30:20 00:01:32:04 
* FROM CLIP NAME:  1A-2 X2 
* REEL: GT_COTERIE_DAY_01_VENICE_REC709 
* SOURCE FILE: A094C004_180227UX
049  A094C002 V     C        08:59:26:11 08:59:28:18 00:01:32:04 00:01:34:11 
* FROM CLIP NAME:  1-2 X2 
* REEL: GT_COTERIE_DAY_01_VENICE_REC709 
* SOURCE FILE: A094C002_180227UC
050  B092C004 V     C        10:52:20:16 10:52:22:01 00:01:34:11 00:01:35:20 
* FROM CLIP NAME:  1H-1B 
* REEL: GT_COTERIE_DAY_01_VENICE_REC709 
* SOURCE FILE: B092C004_211201B5
051  B092C008 V     C        11:23:01:19 11:23:02:21 00:01:35:20 00:01:36:22 
* FROM CLIP NAME:  1K-1B 
* REEL: GT_COTERIE_DAY_01_VENICE_REC709 
* SOURCE FILE: B092C008_211201PC
052  A094C014 V     C        11:21:48:23 11:21:50:06 00:01:36:22 00:01:38:05 
* FROM CLIP NAME:  1K-1A 
* REEL: GT_COTERIE_DAY_01_VENICE_REC709 
* SOURCE FILE: A094C014_180227GM
053  B092C004 V     C        10:51:07:08 10:51:10:01 00:01:38:05 00:01:40:22 
* FROM CLIP NAME:  1H-1B 
* REEL: GT_COTERIE_DAY_01_VENICE_REC709 
* SOURCE FILE: B092C004_211201B5
054  B092C002 V     C        09:39:33:01 09:39:34:13 00:01:40:22 00:01:42:10 
* FROM CLIP NAME:  1C-1 X5 
* REEL: GT_COTERIE_DAY_01_VENICE_REC709 
* SOURCE FILE: B092C002_211201AZ
055  B092C002 V     C        09:39:34:15 09:39:36:05 00:01:42:10 00:01:44:00 
* FROM CLIP NAME:  1C-1 X5 
* REEL: GT_COTERIE_DAY_01_VENICE_REC709 
* SOURCE FILE: B092C002_211201AZ
056  A094C008 V     C        10:23:13:12 10:23:14:07 00:01:44:00 00:01:44:19 
* FROM CLIP NAME:  1F-1 X4 
* REEL: GT_COTERIE_DAY_01_VENICE_REC709 
* SOURCE FILE: A094C008_180227LB
057  A094C007 V     C        10:13:03:21 10:13:04:21 00:01:44:19 00:01:45:19 
* FROM CLIP NAME:  1E-1 X3 
* REEL: GT_COTERIE_DAY_01_VENICE_REC709 
* SOURCE FILE: A094C007_180227MC
058  A094C010 V     C        10:51:11:15 10:51:12:21 00:01:45:19 00:01:47:01 
* FROM CLIP NAME:  1H-1A 
* REEL: GT_COTERIE_DAY_01_VENICE_REC709 
* SOURCE FILE: A094C010_180227G5
059  A094C007 V     C        10:12:41:21 10:12:42:22 00:01:47:01 00:01:48:02 
* FROM CLIP NAME:  1E-1 X3 
* REEL: GT_COTERIE_DAY_01_VENICE_REC709 
* SOURCE FILE: A094C007_180227MC
060  A094C008 V     C        10:25:30:13 10:25:31:18 00:01:48:02 00:01:49:07 
* FROM CLIP NAME:  1F-1 X4 
* REEL: GT_COTERIE_DAY_01_VENICE_REC709 
* SOURCE FILE: A094C008_180227LB
061  A094C006 V     C        10:09:00:02 10:09:02:02 00:01:49:07 00:01:51:07 
* FROM CLIP NAME:  1D-2 
* REEL: GT_COTERIE_DAY_01_VENICE_REC709 
* SOURCE FILE: A094C006_180227A9
062  B092C005 V     C        11:09:19:04 11:09:21:12 00:01:51:07 00:01:53:15 
* FROM CLIP NAME:  1J-1B 
* REEL: GT_COTERIE_DAY_01_VENICE_REC709 
* SOURCE FILE: B092C005_211201VH
063  A094C011 V     C        11:09:21:11 11:09:25:02 00:01:53:15 00:01:57:06 
* FROM CLIP NAME:  1J-1A 
* REEL: GT_COTERIE_DAY_01_VENICE_REC709 
* SOURCE FILE: A094C011_180227ZH
064  B092C006 V     C        11:12:23:19 11:12:25:11 00:01:57:06 00:01:58:22 
* FROM CLIP NAME:  1J-2B 
* REEL: GT_COTERIE_DAY_01_VENICE_REC709 
* SOURCE FILE: B092C006_211201PY
065  A094C012 V     C        11:14:18:03 11:14:24:19 00:01:58:22 00:02:05:14 
* FROM CLIP NAME:  1J-2A 
* REEL: GT_COTERIE_DAY_01_VENICE_REC709 
* SOURCE FILE: A094C012_180227QN
066  GT_MAIN_ V     C        00:00:00:00 00:00:17:03 00:02:05:14 00:02:22:17 
* FROM CLIP NAME:  GT_MAIN_TITLES_S4_ JJPPBB 4K NO MAIA NO BEAU ALT 1 20SEC.MOV.COPY.01 
* SOURCE FILE: GT_MAIN_TITLES_S4_ JJPPBB 4K NO MAIA NO BEAU ALT 1 20SEC.MOV
067  GT_MAIN_ V     C        00:00:17:01 00:00:19:22 00:02:22:17 00:02:25:14 
* FROM CLIP NAME:  GT_MAIN_TITLES_S4_ JJBBPP 4K.MOV.COPY.01 
* SOURCE FILE: GT_MAIN_TITLES_S4_ JJBBPP 4K.MOV
068  A095C017 V     C        18:49:46:04 18:49:56:12 00:02:25:14 00:02:35:22 
* FROM CLIP NAME:  5A-1A 
* REEL: GT_COTERIE_ROOF_NIGHT_01_LC_VEN 
* SOURCE FILE: A095C017_180227HK
069  A096C002 V     C        19:04:54:18 19:04:56:07 00:02:35:22 00:02:37:11 
* FROM CLIP NAME:  5B-2A 
* REEL: GT_COTERIE_ROOF_NIGHT_01_LC_VEN 
* SOURCE FILE: A096C002_18022724
070  A096C006 V     C        19:38:42:20 19:38:44:15 00:02:37:11 00:02:39:06 
* FROM CLIP NAME:  5E-1A 
* REEL: GT_COTERIE_ROOF_NIGHT_01_LC_VEN 
* SOURCE FILE: A096C006_18022780
071  A096C003 V     C        19:12:38:14 19:12:41:22 00:02:39:06 00:02:42:14 
* FROM CLIP NAME:  5C-1A 
* REEL: GT_COTERIE_ROOF_NIGHT_01_LC_VEN 
* SOURCE FILE: A096C003_180227NX
072  A096C007 V     C        19:41:43:15 19:41:47:20 00:02:42:14 00:02:46:19 
* FROM CLIP NAME:  5E-2PUA 
* REEL: GT_COTERIE_ROOF_NIGHT_01_LC_VEN 
* SOURCE FILE: A096C007_180227QQ
073  B094C003 V     C        19:12:44:19 19:12:48:21 00:02:46:19 00:02:50:21 
* FROM CLIP NAME:  5C-1B 
* REEL: GT_COTERIE_ROOF_NIGHT_01_LC_VEN 
* SOURCE FILE: B094C003_211201Q9
074  B094C007 V     C        19:41:29:08 19:41:32:04 00:02:50:21 00:02:53:17 
* FROM CLIP NAME:  5E-2PUB 
* REEL: GT_COTERIE_ROOF_NIGHT_01_LC_VEN 
* SOURCE FILE: B094C007_211201FN
075  C026C006 V     C        15:53:32:15 15:53:38:04 00:02:53:17 00:02:59:06 
* FROM CLIP NAME:  6A-1C 
* REEL: GT_COTERIE_NIGHT_02_LC_VENICE_R 
* SOURCE FILE: C026C006_211206VT
076  B101C002 V     C        15:53:38:04 15:53:45:04 00:02:59:06 00:03:06:06 
* FROM CLIP NAME:  6A-1B 
* REEL: GT_COTERIE_NIGHT_02_LC_VENICE_R 
* SOURCE FILE: B101C002_21120677
077  C026C006 V     C        15:53:45:04 15:53:47:13 00:03:06:06 00:03:08:15 
* FROM CLIP NAME:  6A-1C 
* REEL: GT_COTERIE_NIGHT_02_LC_VENICE_R 
* SOURCE FILE: C026C006_211206VT
078  B101C001 V     C        15:45:16:19 15:45:19:10 00:03:08:15 00:03:11:06 
* FROM CLIP NAME:  6-1B 
* REEL: GT_COTERIE_NIGHT_02_LC_VENICE_R 
* SOURCE FILE: B101C001_211206W1
079  C026C005 V     C        15:45:20:03 15:45:22:10 00:03:11:06 00:03:13:13 
* FROM CLIP NAME:  6-1C 
* REEL: GT_COTERIE_NIGHT_02_LC_VENICE_R 
* SOURCE FILE: C026C005_2112065H
080  B101C003 V     C        16:11:40:09 16:11:49:07 00:03:13:13 00:03:22:11 
* FROM CLIP NAME:  6B-1 
* REEL: GT_COTERIE_NIGHT_02_LC_VENICE_R 
* SOURCE FILE: B101C003_211206ZS
081  B101C002 V     C        15:56:17:14 15:56:20:06 00:03:22:11 00:03:25:03 
* FROM CLIP NAME:  6A-1B 
* REEL: GT_COTERIE_NIGHT_02_LC_VENICE_R 
* SOURCE FILE: B101C002_21120677
082  C026C006 V     C        15:56:20:04 15:56:28:20 00:03:25:03 00:03:33:19 
* FROM CLIP NAME:  6A-1C 
* REEL: GT_COTERIE_NIGHT_02_LC_VENICE_R 
* SOURCE FILE: C026C006_211206VT
083  B094C005 V     C        19:31:51:02 19:31:55:23 00:03:33:19 00:03:38:16 
* FROM CLIP NAME:  5D-2B 
* REEL: GT_COTERIE_ROOF_NIGHT_01_LC_VEN 
* SOURCE FILE: B094C005_211201JB
084  B094C003 V     C        19:16:35:19 19:16:38:08 00:03:38:16 00:03:41:05 
* FROM CLIP NAME:  5C-1B 
* REEL: GT_COTERIE_ROOF_NIGHT_01_LC_VEN 
* SOURCE FILE: B094C003_211201Q9
085  A096C003 V     C        19:16:38:01 19:16:42:12 00:03:41:05 00:03:45:16 
* FROM CLIP NAME:  5C-1A 
* REEL: GT_COTERIE_ROOF_NIGHT_01_LC_VEN 
* SOURCE FILE: A096C003_180227NX
086  B094C003 V     C        19:16:42:13 19:16:45:14 00:03:45:16 00:03:48:17 
* FROM CLIP NAME:  5C-1B 
* REEL: GT_COTERIE_ROOF_NIGHT_01_LC_VEN 
* SOURCE FILE: B094C003_211201Q9
087  A096C003 V     C        19:17:36:13 19:17:41:04 00:03:48:17 00:03:53:08 
* FROM CLIP NAME:  5C-1A 
* REEL: GT_COTERIE_ROOF_NIGHT_01_LC_VEN 
* SOURCE FILE: A096C003_180227NX
088  A096C003 V     C        19:16:46:19 19:16:49:05 00:03:53:08 00:03:55:18 
* FROM CLIP NAME:  5C-1A 
* REEL: GT_COTERIE_ROOF_NIGHT_01_LC_VEN 
* SOURCE FILE: A096C003_180227NX
089  A110C008 V     C        10:59:53:05 10:59:58:08 00:03:55:18 00:04:00:21 
* FROM CLIP NAME:  8D-2A 
* REEL: GT_COTERIE_NIGHT_01_VENICE_REC7 
* SOURCE FILE: A110C008_180307MR
090  B109C009 V     C        11:54:51:14 11:54:53:12 00:04:00:21 00:04:02:19 
* FROM CLIP NAME:  8F-1B 
* REEL: GT_COTERIE_NIGHT_01_VENICE_REC7 
* SOURCE FILE: B109C009_211209S0
091  B109C004 V     C        10:05:45:17 10:05:47:09 00:04:02:19 00:04:04:11 
* FROM CLIP NAME:  8B-1B 
* REEL: GT_COTERIE_NIGHT_01_VENICE_REC7 
* SOURCE FILE: B109C004_21120907
092  B109C009 V     C        11:58:09:21 11:58:11:15 00:04:04:11 00:04:06:05 
* FROM CLIP NAME:  8F-1B 
* REEL: GT_COTERIE_NIGHT_01_VENICE_REC7 
* SOURCE FILE: B109C009_211209S0
093  A110C008 V     C        11:03:13:07 11:03:15:06 00:04:06:05 00:04:08:04 
* FROM CLIP NAME:  8D-2A 
* REEL: GT_COTERIE_NIGHT_01_VENICE_REC7 
* SOURCE FILE: A110C008_180307MR
094  B109C009 V     C        11:58:14:04 11:58:15:16 00:04:08:04 00:04:09:16 
* FROM CLIP NAME:  8F-1B 
* REEL: GT_COTERIE_NIGHT_01_VENICE_REC7 
* SOURCE FILE: B109C009_211209S0
095  A110C010 V     C        11:58:12:05 11:58:13:13 00:04:09:16 00:04:11:00 
* FROM CLIP NAME:  8F-1A 
* REEL: GT_COTERIE_NIGHT_01_VENICE_REC7 
* SOURCE FILE: A110C010_1803070L
096  B109C007 V     C        11:00:00:08 11:00:02:08 00:04:11:00 00:04:13:00 
* FROM CLIP NAME:  8D-2B 
* REEL: GT_COTERIE_NIGHT_01_VENICE_REC7 
* SOURCE FILE: B109C007_2112092V
097  A102C007 V     C        09:40:20:19 09:40:22:17 00:04:13:00 00:04:14:22 
* FROM CLIP NAME:  9C-1A 
* REEL: GT_COTERIE_NIGHT_02_LC_VENICE_R 
* SOURCE FILE: A102C007_180304S9
098  A102C002 V     C        09:03:18:13 09:03:21:21 00:04:14:22 00:04:18:06 
* FROM CLIP NAME:  9-2A 
* REEL: GT_COTERIE_NIGHT_02_LC_VENICE_R 
* SOURCE FILE: A102C002_18030422
099  A102C008 V     C        09:44:24:14 09:44:26:20 00:04:18:06 00:04:20:12 
* FROM CLIP NAME:  9D-1A 
* REEL: GT_COTERIE_NIGHT_02_LC_VENICE_R 
* SOURCE FILE: A102C008_180304FQ
100  A102C002 V     C        09:03:24:16 09:03:26:08 00:04:20:12 00:04:22:04 
* FROM CLIP NAME:  9-2A 
* REEL: GT_COTERIE_NIGHT_02_LC_VENICE_R 
* SOURCE FILE: A102C002_18030422
101  B100C007 V     C        09:40:30:10 09:40:32:10 00:04:22:04 00:04:24:04 
* FROM CLIP NAME:  9C-1B 
* REEL: GT_COTERIE_NIGHT_02_LC_VENICE_R 
* SOURCE FILE: B100C007_211206JQ
102  A102C007 V     C        09:40:32:10 09:40:34:01 00:04:24:04 00:04:25:19 
* FROM CLIP NAME:  9C-1A 
* REEL: GT_COTERIE_NIGHT_02_LC_VENICE_R 
* SOURCE FILE: A102C007_180304S9
103  A102C008 V     C        09:44:33:03 09:44:34:10 00:04:25:19 00:04:27:02 
* FROM CLIP NAME:  9D-1A 
* REEL: GT_COTERIE_NIGHT_02_LC_VENICE_R 
* SOURCE FILE: A102C008_180304FQ
104  B100C003 V     C        09:07:35:18 09:07:38:08 00:04:27:02 00:04:29:16 
* FROM CLIP NAME:  9-3B 
* REEL: GT_COTERIE_NIGHT_02_LC_VENICE_R 
* SOURCE FILE: B100C003_211206ZL
105  A110C002 V     C        09:18:50:11 09:18:52:10 00:04:29:16 00:04:31:15 
* FROM CLIP NAME:  8-2A 
* REEL: GT_COTERIE_NIGHT_01_VENICE_REC7 
* SOURCE FILE: A110C002_180307NA
106  B109C005 V     C        10:27:33:21 10:27:36:07 00:04:31:15 00:04:34:01 
* FROM CLIP NAME:  8C-1B 
* REEL: GT_COTERIE_NIGHT_01_VENICE_REC7 
* SOURCE FILE: B109C005_211209PV
107  A110C006 V     C        10:27:36:22 10:27:38:00 00:04:34:01 00:04:35:03 
* FROM CLIP NAME:  8C-1A 
* REEL: GT_COTERIE_NIGHT_01_VENICE_REC7 
* SOURCE FILE: A110C006_180307X0
108  B109C009 V     C        11:55:42:00 11:55:45:01 00:04:35:03 00:04:38:04 
* FROM CLIP NAME:  8F-1B 
* REEL: GT_COTERIE_NIGHT_01_VENICE_REC7 
* SOURCE FILE: B109C009_211209S0
109  B109C003 V     C        09:47:25:17 09:47:27:13 00:04:38:04 00:04:40:00 
* FROM CLIP NAME:  8A-1B 
* REEL: GT_COTERIE_NIGHT_01_VENICE_REC7 
* SOURCE FILE: B109C003_211209C6
110  A110C005 V     C        10:06:54:16 10:06:58:22 00:04:40:00 00:04:44:06 
* FROM CLIP NAME:  8B-1A 
* REEL: GT_COTERIE_NIGHT_01_VENICE_REC7 
* SOURCE FILE: A110C005_180307PG
111  A110C010 V     C        11:56:35:11 11:56:40:13 00:04:44:06 00:04:49:08 
* FROM CLIP NAME:  8F-1A 
* REEL: GT_COTERIE_NIGHT_01_VENICE_REC7 
* SOURCE FILE: A110C010_1803070L
112  B109C004 V     C        10:09:44:09 10:09:45:13 00:04:49:08 00:04:50:12 
* FROM CLIP NAME:  8B-1B 
* REEL: GT_COTERIE_NIGHT_01_VENICE_REC7 
* SOURCE FILE: B109C004_21120907
113  B109C008 V     C        11:37:13:03 11:37:15:10 00:04:50:12 00:04:52:19 
* FROM CLIP NAME:  8E-1B 
* REEL: GT_COTERIE_NIGHT_01_VENICE_REC7 
* SOURCE FILE: B109C008_2112094M
114  A110C005 V     C        10:07:06:03 10:07:08:06 00:04:52:19 00:04:54:22 
* FROM CLIP NAME:  8B-1A 
* REEL: GT_COTERIE_NIGHT_01_VENICE_REC7 
* SOURCE FILE: A110C005_180307PG
115  B109C012 V     C        12:07:09:08 12:07:13:15 00:04:54:22 00:04:57:02 
M2   B109C012       048.0                12:07:09:08 
* 48FPS 
* FROM CLIP NAME:  8G-1B_48FPS 
* REEL: GT_COTERIE_NIGHT_01_VENICE_REC7 
* SOURCE FILE: B109C012_21120957_48FPS
116  B109C007 V     C        11:00:18:21 11:00:21:12 00:04:57:02 00:04:59:17 
* FROM CLIP NAME:  8D-2B 
* REEL: GT_COTERIE_NIGHT_01_VENICE_REC7 
* SOURCE FILE: B109C007_2112092V
117  A110C012 V     C        12:58:07:20 12:58:13:10 00:04:59:17 00:05:05:07 
* FROM CLIP NAME:  11-1A 
* REEL: GT_COTERIE_NIGHT_01_VENICE_REC7 
* SOURCE FILE: A110C012_180307W8
118  B109C015 V     C        13:12:41:09 13:12:44:04 00:05:05:07 00:05:08:02 
* FROM CLIP NAME:  11A-1B X4 
* REEL: GT_COTERIE_NIGHT_01_VENICE_REC7 
* SOURCE FILE: B109C015_211209GY
119  A110C012 V     C        12:58:16:15 12:58:17:17 00:05:08:02 00:05:09:04 
* FROM CLIP NAME:  11-1A 
* REEL: GT_COTERIE_NIGHT_01_VENICE_REC7 
* SOURCE FILE: A110C012_180307W8
120  B109C014 V     C        12:56:27:01 12:56:30:17 00:05:09:04 00:05:12:20 
* FROM CLIP NAME:  11-1B 
* REEL: GT_COTERIE_NIGHT_01_VENICE_REC7 
* SOURCE FILE: B109C014_211209RW
121  A110C012 V     C        12:56:30:17 12:56:33:18 00:05:12:20 00:05:15:21 
* FROM CLIP NAME:  11-1A 
* REEL: GT_COTERIE_NIGHT_01_VENICE_REC7 
* SOURCE FILE: A110C012_180307W8
122  B109C014 V     C        13:01:19:01 13:01:21:20 00:05:15:21 00:05:18:16 
* FROM CLIP NAME:  11-1B 
* REEL: GT_COTERIE_NIGHT_01_VENICE_REC7 
* SOURCE FILE: B109C014_211209RW
123  A110C012 V     C        13:01:21:01 13:01:22:07 00:05:18:16 00:05:19:22 
* FROM CLIP NAME:  11-1A 
* REEL: GT_COTERIE_NIGHT_01_VENICE_REC7 
* SOURCE FILE: A110C012_180307W8
124  B109C014 V     C        13:01:22:07 13:01:25:12 00:05:19:22 00:05:23:03 
* FROM CLIP NAME:  11-1B 
* REEL: GT_COTERIE_NIGHT_01_VENICE_REC7 
* SOURCE FILE: B109C014_211209RW
125  A110C012 V     C        13:02:09:16 13:02:15:20 00:05:23:03 00:05:29:07 
* FROM CLIP NAME:  11-1A 
* REEL: GT_COTERIE_NIGHT_01_VENICE_REC7 
* SOURCE FILE: A110C012_180307W8
126  B109C005 V     C        10:28:47:07 10:28:49:08 00:05:29:07 00:05:31:08 
* FROM CLIP NAME:  8C-1B 
* REEL: GT_COTERIE_NIGHT_01_VENICE_REC7 
* SOURCE FILE: B109C005_211209PV
127  A110C010 V     C        11:58:04:02 11:58:07:15 00:05:31:08 00:05:34:21 
* FROM CLIP NAME:  8F-1A 
* REEL: GT_COTERIE_NIGHT_01_VENICE_REC7 
* SOURCE FILE: A110C010_1803070L
128  A110C008 V     C        11:03:19:06 11:03:21:04 00:05:34:21 00:05:36:19 
* FROM CLIP NAME:  8D-2A 
* REEL: GT_COTERIE_NIGHT_01_VENICE_REC7 
* SOURCE FILE: A110C008_180307MR
129  B109C008 V     C        11:40:55:15 11:40:58:22 00:05:36:19 00:05:40:02 
* FROM CLIP NAME:  8E-1B 
* REEL: GT_COTERIE_NIGHT_01_VENICE_REC7 
* SOURCE FILE: B109C008_2112094M
130  A110C010 V     C        11:59:01:20 11:59:03:12 00:05:40:02 00:05:41:18 
* FROM CLIP NAME:  8F-1A 
* REEL: GT_COTERIE_NIGHT_01_VENICE_REC7 
* SOURCE FILE: A110C010_1803070L
131  B109C013 V     C        12:13:36:18 12:13:40:06 00:05:41:18 00:05:45:06 
* 48FPS 
* FROM CLIP NAME:  8G-2B_48FPS 
* REEL: GT_COTERIE_NIGHT_01_VENICE_REC7 
* SOURCE FILE: B109C013_211209I5_48FPS
132  A110C011 V     C        12:14:28:23 12:14:32:09 00:05:45:06 00:05:48:16 
* FROM CLIP NAME:  8G-1A 
* REEL: GT_COTERIE_NIGHT_01_VENICE_REC7 
* SOURCE FILE: A110C011_180307RH
133  B109C003 V     C        09:46:44:15 09:46:46:21 00:05:48:16 00:05:50:22 
* FROM CLIP NAME:  8A-1B 
* REEL: GT_COTERIE_NIGHT_01_VENICE_REC7 
* SOURCE FILE: B109C003_211209C6
134  A102C003 V     C        09:07:46:20 09:07:48:08 00:05:50:22 00:05:52:10 
* FROM CLIP NAME:  9-3A 
* REEL: GT_COTERIE_NIGHT_02_LC_VENICE_R 
* SOURCE FILE: A102C003_180304F4
135  B100C003 V     C        09:07:48:08 09:07:51:04 00:05:52:10 00:05:55:06 
* FROM CLIP NAME:  9-3B 
* REEL: GT_COTERIE_NIGHT_02_LC_VENICE_R 
* SOURCE FILE: B100C003_211206ZL
136  A102C008 V     C        09:44:45:09 09:44:46:05 00:05:55:06 00:05:56:02 
* FROM CLIP NAME:  9D-1A 
* REEL: GT_COTERIE_NIGHT_02_LC_VENICE_R 
* SOURCE FILE: A102C008_180304FQ
137  B100C005 V     C        09:32:28:14 09:32:30:14 00:05:56:02 00:05:58:02 
* FROM CLIP NAME:  9B-1B 
* REEL: GT_COTERIE_NIGHT_02_LC_VENICE_R 
* SOURCE FILE: B100C005_2112064J
138  B100C004 V     C        09:15:20:09 09:15:25:19 00:05:58:02 00:06:03:12 
* FROM CLIP NAME:  9A-1B 
* REEL: GT_COTERIE_NIGHT_02_LC_VENICE_R 
* SOURCE FILE: B100C004_211206T8
139  A102C008 V     C        09:45:26:09 09:45:28:03 00:06:03:12 00:06:05:06 
* FROM CLIP NAME:  9D-1A 
* REEL: GT_COTERIE_NIGHT_02_LC_VENICE_R 
* SOURCE FILE: A102C008_180304FQ
140  B100C003 V     C        09:08:32:14 09:08:34:19 00:06:05:06 00:06:07:11 
* FROM CLIP NAME:  9-3B 
* REEL: GT_COTERIE_NIGHT_02_LC_VENICE_R 
* SOURCE FILE: B100C003_211206ZL
141  B109C007 V     C        11:04:03:03 11:04:03:23 00:06:07:11 00:06:08:07 
* FROM CLIP NAME:  8D-2B 
* REEL: GT_COTERIE_NIGHT_01_VENICE_REC7 
* SOURCE FILE: B109C007_2112092V
142  B109C012 V     C        12:12:03:20 12:12:06:17 00:06:08:07 00:06:09:18 
M2   B109C012       048.0                12:12:03:20 
* 48FPS 
* FROM CLIP NAME:  8G-1B_48FPS 
* REEL: GT_COTERIE_NIGHT_01_VENICE_REC7 
* SOURCE FILE: B109C012_21120957_48FPS
143  B109C008 V     C        11:41:04:05 11:41:06:16 00:06:09:18 00:06:12:05 
* FROM CLIP NAME:  8E-1B 
* REEL: GT_COTERIE_NIGHT_01_VENICE_REC7 
* SOURCE FILE: B109C008_2112094M
144  B109C004 V     C        10:14:21:02 10:14:23:16 00:06:12:05 00:06:14:19 
* FROM CLIP NAME:  8B-1B 
* REEL: GT_COTERIE_NIGHT_01_VENICE_REC7 
* SOURCE FILE: B109C004_21120907
145  A110C002 V     C        09:22:26:06 09:22:31:03 00:06:14:19 00:06:19:16 
* FROM CLIP NAME:  8-2A 
* REEL: GT_COTERIE_NIGHT_01_VENICE_REC7 
* SOURCE FILE: A110C002_180307NA
146  B109C009 V     C        11:59:37:14 11:59:40:01 00:06:19:16 00:06:22:03 
* FROM CLIP NAME:  8F-1B 
* REEL: GT_COTERIE_NIGHT_01_VENICE_REC7 
* SOURCE FILE: B109C009_211209S0
147  A110C005 V     C        10:15:17:15 10:15:21:00 00:06:22:03 00:06:25:12 
* FROM CLIP NAME:  8B-1A 
* REEL: GT_COTERIE_NIGHT_01_VENICE_REC7 
* SOURCE FILE: A110C005_180307PG
148  A110C010 V     C        11:59:50:17 11:59:54:05 00:06:25:12 00:06:29:00 
* FROM CLIP NAME:  8F-1A 
* REEL: GT_COTERIE_NIGHT_01_VENICE_REC7 
* SOURCE FILE: A110C010_1803070L
149  B109C003 V     C        09:49:06:18 09:49:09:15 00:06:29:00 00:06:31:21 
* FROM CLIP NAME:  8A-1B 
* REEL: GT_COTERIE_NIGHT_01_VENICE_REC7 
* SOURCE FILE: B109C003_211209C6
150  A110C006 V     C        10:29:18:19 10:29:20:15 00:06:31:21 00:06:33:17 
* FROM CLIP NAME:  8C-1A 
* REEL: GT_COTERIE_NIGHT_01_VENICE_REC7 
* SOURCE FILE: A110C006_180307X0
151  B109C008 V     C        11:42:55:13 11:42:57:07 00:06:33:17 00:06:35:11 
* FROM CLIP NAME:  8E-1B 
* REEL: GT_COTERIE_NIGHT_01_VENICE_REC7 
* SOURCE FILE: B109C008_2112094M
152  B109C009 V     C        11:59:58:14 11:59:59:19 00:06:35:11 00:06:36:16 
* FROM CLIP NAME:  8F-1B 
* REEL: GT_COTERIE_NIGHT_01_VENICE_REC7 
* SOURCE FILE: B109C009_211209S0
153  B109C008 V     C        11:42:58:16 11:43:02:01 00:06:36:16 00:06:40:01 
* FROM CLIP NAME:  8E-1B 
* REEL: GT_COTERIE_NIGHT_01_VENICE_REC7 
* SOURCE FILE: B109C008_2112094M
154  A110C011 V     C        12:12:53:17 12:12:54:22 00:06:40:01 00:06:41:06 
* FROM CLIP NAME:  8G-1A 
* REEL: GT_COTERIE_NIGHT_01_VENICE_REC7 
* SOURCE FILE: A110C011_180307RH
155  A110C005 V     C        10:18:23:17 10:18:25:00 00:06:41:06 00:06:42:13 
* FROM CLIP NAME:  8B-1A 
* REEL: GT_COTERIE_NIGHT_01_VENICE_REC7 
* SOURCE FILE: A110C005_180307PG
156  B109C008 V     C        11:44:39:04 11:44:42:06 00:06:42:13 00:06:45:15 
* FROM CLIP NAME:  8E-1B 
* REEL: GT_COTERIE_NIGHT_01_VENICE_REC7 
* SOURCE FILE: B109C008_2112094M
157  A110C005 V     C        10:17:05:23 10:17:07:11 00:06:45:15 00:06:47:03 
* FROM CLIP NAME:  8B-1A 
* REEL: GT_COTERIE_NIGHT_01_VENICE_REC7 
* SOURCE FILE: A110C005_180307PG
158  B109C008 V     C        11:44:43:12 11:44:44:13 00:06:47:03 00:06:48:04 
* FROM CLIP NAME:  8E-1B 
* REEL: GT_COTERIE_NIGHT_01_VENICE_REC7 
* SOURCE FILE: B109C008_2112094M
159  A110C005 V     C        10:19:14:23 10:19:16:20 00:06:48:04 00:06:50:01 
* FROM CLIP NAME:  8B-1A 
* REEL: GT_COTERIE_NIGHT_01_VENICE_REC7 
* SOURCE FILE: A110C005_180307PG
160  A110C008 V     C        11:06:44:01 11:06:45:20 00:06:50:01 00:06:51:20 
* FROM CLIP NAME:  8D-2A 
* REEL: GT_COTERIE_NIGHT_01_VENICE_REC7 
* SOURCE FILE: A110C008_180307MR
161  A110C010 V     C        12:00:42:11 12:00:43:12 00:06:51:20 00:06:52:21 
* FROM CLIP NAME:  8F-1A 
* REEL: GT_COTERIE_NIGHT_01_VENICE_REC7 
* SOURCE FILE: A110C010_1803070L
162  A110C009 V     C        11:42:17:19 11:42:20:18 00:06:52:21 00:06:55:20 
* FROM CLIP NAME:  8E-1A 
* REEL: GT_COTERIE_NIGHT_01_VENICE_REC7 
* SOURCE FILE: A110C009_180307QS
163  B109C007 V     C        11:07:25:06 11:07:26:19 00:06:55:20 00:06:57:09 
* FROM CLIP NAME:  8D-2B 
* REEL: GT_COTERIE_NIGHT_01_VENICE_REC7 
* SOURCE FILE: B109C007_2112092V
164  A110C005 V     C        10:19:55:13 10:20:00:04 00:06:57:09 00:07:02:00 
* FROM CLIP NAME:  8B-1A 
* REEL: GT_COTERIE_NIGHT_01_VENICE_REC7 
* SOURCE FILE: A110C005_180307PG
165  B109C007 V     C        11:06:49:01 11:06:50:11 00:07:02:00 00:07:03:10 
* FROM CLIP NAME:  8D-2B 
* REEL: GT_COTERIE_NIGHT_01_VENICE_REC7 
* SOURCE FILE: B109C007_2112092V
166  B109C003 V     C        09:53:55:01 09:53:57:05 00:07:03:10 00:07:05:14 
* FROM CLIP NAME:  8A-1B 
* REEL: GT_COTERIE_NIGHT_01_VENICE_REC7 
* SOURCE FILE: B109C003_211209C6
167  A110C010 V     C        12:01:32:09 12:01:33:22 00:07:05:14 00:07:07:03 
* FROM CLIP NAME:  8F-1A 
* REEL: GT_COTERIE_NIGHT_01_VENICE_REC7 
* SOURCE FILE: A110C010_1803070L
168  B109C007 V     C        11:07:38:16 11:07:41:02 00:07:07:03 00:07:09:13 
* FROM CLIP NAME:  8D-2B 
* REEL: GT_COTERIE_NIGHT_01_VENICE_REC7 
* SOURCE FILE: B109C007_2112092V
169  SIGNATUR V     C        01:00:00:00 01:00:01:00 00:07:09:13 00:07:10:13 
* FROM CLIP NAME:  RING OUT  •  (1 SEC) 
* SOURCE FILE: SIGNATURE SOURCE MOB
170  SIGNATUR V     C        01:11:37:23 01:11:38:11 00:07:10:13 00:07:11:01 
* FROM CLIP NAME:  COMMERCIAL BREAK  •  (1/2 SEC) 
* SOURCE FILE: SIGNATURE SOURCE MOB
171  A107C001 V     C        09:32:09:14 09:32:11:14 00:07:11:01 00:07:13:01 
* FROM CLIP NAME:  19-1A 
* REEL: GT_COTERIE_DAY_01_VENICE_REC709 
* SOURCE FILE: A107C001_180306DD
172  A107C003 V     C        09:53:38:05 09:53:41:00 00:07:13:01 00:07:15:20 
* TAIL STIX AUDIO STARTS LATE 
* FROM CLIP NAME:  19B-1A 
* REEL: GT_COTERIE_DAY_01_VENICE_REC709 
* SOURCE FILE: A107C003_180306C4
173  B106C002 V     C        09:47:32:03 09:47:35:19 00:07:15:20 00:07:19:12 
* TAIL STIX 
* FROM CLIP NAME:  19A-1B 
* REEL: GT_COTERIE_DAY_01_VENICE_REC709 
* SOURCE FILE: B106C002_2112088J
174  B106C003 V     C        09:55:52:03 09:55:55:04 00:07:19:12 00:07:22:13 
* TAIL STIX AUDIO STARTS LATE 
* FROM CLIP NAME:  19B-1B 
* REEL: GT_COTERIE_DAY_01_VENICE_REC709 
* SOURCE FILE: B106C003_211208J6
175  B106C001 V     C        09:33:15:17 09:33:18:21 00:07:22:13 00:07:25:17 
* FROM CLIP NAME:  19-1B 
* REEL: GT_COTERIE_DAY_01_VENICE_REC709 
* SOURCE FILE: B106C001_211208RB
176  A107C003 V     C        09:55:58:10 09:56:01:04 00:07:25:17 00:07:28:11 
* TAIL STIX AUDIO STARTS LATE 
* FROM CLIP NAME:  19B-1A 
* REEL: GT_COTERIE_DAY_01_VENICE_REC709 
* SOURCE FILE: A107C003_180306C4
177  A107C005 V     C        10:24:00:15 10:24:02:06 00:07:28:11 00:07:30:02 
* FROM CLIP NAME:  19D-1A 
* REEL: GT_COTERIE_DAY_01_VENICE_REC709 
* SOURCE FILE: A107C005_1803065N
178  A107C005 V     C        10:23:11:00 10:23:12:11 00:07:30:02 00:07:31:13 
* FROM CLIP NAME:  19D-1A 
* REEL: GT_COTERIE_DAY_01_VENICE_REC709 
* SOURCE FILE: A107C005_1803065N
179  B106C006 V     C        10:31:21:21 10:31:24:17 00:07:31:13 00:07:34:09 
* FROM CLIP NAME:  19E-1B 
* REEL: GT_COTERIE_DAY_01_VENICE_REC709 
* SOURCE FILE: B106C006_211208OW
180  B106C006 V     C        10:31:10:14 10:31:11:15 00:07:34:09 00:07:35:10 
* FROM CLIP NAME:  19E-1B 
* REEL: GT_COTERIE_DAY_01_VENICE_REC709 
* SOURCE FILE: B106C006_211208OW
181  B106C006 V     C        10:31:28:12 10:31:29:20 00:07:35:10 00:07:36:18 
* FROM CLIP NAME:  19E-1B 
* REEL: GT_COTERIE_DAY_01_VENICE_REC709 
* SOURCE FILE: B106C006_211208OW
182  A107C006 V     C        10:31:26:15 10:31:28:04 00:07:36:18 00:07:38:07 
* FROM CLIP NAME:  19E-1A 
* REEL: GT_COTERIE_DAY_01_VENICE_REC709 
* SOURCE FILE: A107C006_180306Z3
183  A107C006 V     C        10:30:06:22 10:30:07:19 00:07:38:07 00:07:39:04 
* FROM CLIP NAME:  19E-1A 
* REEL: GT_COTERIE_DAY_01_VENICE_REC709 
* SOURCE FILE: A107C006_180306Z3
184  B106C006 V     C        10:30:11:10 10:30:13:01 00:07:39:04 00:07:40:19 
* FROM CLIP NAME:  19E-1B 
* REEL: GT_COTERIE_DAY_01_VENICE_REC709 
* SOURCE FILE: B106C006_211208OW
185  A107C006 V     C        10:30:17:15 10:30:21:18 00:07:40:19 00:07:44:22 
* FROM CLIP NAME:  19E-1A 
* REEL: GT_COTERIE_DAY_01_VENICE_REC709 
* SOURCE FILE: A107C006_180306Z3
186  A107C008 V     C        10:38:58:22 10:38:59:23 00:07:44:22 00:07:45:23 
* TAIL STIX 
* FROM CLIP NAME:  19G-1A 
* REEL: GT_COTERIE_DAY_01_VENICE_REC709 
* SOURCE FILE: A107C008_1803062Z
187  A107C008 V     C        10:39:00:17 10:39:01:10 00:07:45:23 00:07:46:16 
* TAIL STIX 
* FROM CLIP NAME:  19G-1A 
* REEL: GT_COTERIE_DAY_01_VENICE_REC709 
* SOURCE FILE: A107C008_1803062Z
188  B106C008 V     C        10:39:04:21 10:39:05:21 00:07:46:16 00:07:47:16 
* TAIL STIX 
* FROM CLIP NAME:  19G-1B 
* REEL: GT_COTERIE_DAY_01_VENICE_REC709 
* SOURCE FILE: B106C008_211208IA
189  A107C008 V     C        10:38:15:01 10:38:16:09 00:07:47:16 00:07:49:00 
* TAIL STIX 
* FROM CLIP NAME:  19G-1A 
* REEL: GT_COTERIE_DAY_01_VENICE_REC709 
* SOURCE FILE: A107C008_1803062Z
190  A107C008 V     C        10:38:26:16 10:38:29:10 00:07:49:00 00:07:51:18 
* TAIL STIX 
* FROM CLIP NAME:  19G-1A 
* REEL: GT_COTERIE_DAY_01_VENICE_REC709 
* SOURCE FILE: A107C008_1803062Z
191  B106C009 V     C        10:46:24:01 10:46:25:18 00:07:51:18 00:07:53:11 
* FROM CLIP NAME:  19H-1B 
* REEL: GT_COTERIE_DAY_01_VENICE_REC709 
* SOURCE FILE: B106C009_211208YC
192  A107C009 V     C        10:46:30:12 10:46:32:02 00:07:53:11 00:07:55:01 
* FROM CLIP NAME:  19H-1A 
* REEL: GT_COTERIE_DAY_01_VENICE_REC709 
* SOURCE FILE: A107C009_180306S5
193  A107C009 V     C        10:47:40:12 10:47:44:20 00:07:55:01 00:07:59:09 
* FROM CLIP NAME:  19H-1A 
* REEL: GT_COTERIE_DAY_01_VENICE_REC709 
* SOURCE FILE: A107C009_180306S5
194  B106C009 V     C        10:46:36:10 10:46:38:07 00:07:59:09 00:08:01:06 
* FROM CLIP NAME:  19H-1B 
* REEL: GT_COTERIE_DAY_01_VENICE_REC709 
* SOURCE FILE: B106C009_211208YC
195  A107C008 V     C        10:40:51:23 10:40:53:22 00:08:01:06 00:08:03:05 
* TAIL STIX 
* FROM CLIP NAME:  19G-1A 
* REEL: GT_COTERIE_DAY_01_VENICE_REC709 
* SOURCE FILE: A107C008_1803062Z
196  B106C008 V     C        10:41:12:19 10:41:14:08 00:08:03:05 00:08:04:18 
* TAIL STIX 
* FROM CLIP NAME:  19G-1B 
* REEL: GT_COTERIE_DAY_01_VENICE_REC709 
* SOURCE FILE: B106C008_211208IA
197  A107C008 V     C        10:41:16:16 10:41:20:15 00:08:04:18 00:08:08:17 
* TAIL STIX 
* FROM CLIP NAME:  19G-1A 
* REEL: GT_COTERIE_DAY_01_VENICE_REC709 
* SOURCE FILE: A107C008_1803062Z
198  B106C004 V     C        10:17:20:06 10:17:23:14 00:08:08:17 00:08:12:01 
* FROM CLIP NAME:  19C-1B 
* REEL: GT_COTERIE_DAY_01_VENICE_REC709 
* SOURCE FILE: B106C004_211208JD
199  A107C004 V     C        10:17:55:05 10:17:56:11 00:08:12:01 00:08:13:07 
* FROM CLIP NAME:  19C-1A 
* REEL: GT_COTERIE_DAY_01_VENICE_REC709 
* SOURCE FILE: A107C004_180306B0
200  B106C010 V     C        10:52:39:20 10:52:41:06 00:08:13:07 00:08:14:17 
* FROM CLIP NAME:  19J-1B 
* REEL: GT_COTERIE_DAY_01_VENICE_REC709 
* SOURCE FILE: B106C010_211208HL
201  A107C010 V     C        10:52:42:18 10:52:44:21 00:08:14:17 00:08:16:20 
* FROM CLIP NAME:  19J-1A 
* REEL: GT_COTERIE_DAY_01_VENICE_REC709 
* SOURCE FILE: A107C010_1803065G
202  B106C010 V     C        10:52:44:21 10:52:46:21 00:08:16:20 00:08:18:20 
* FROM CLIP NAME:  19J-1B 
* REEL: GT_COTERIE_DAY_01_VENICE_REC709 
* SOURCE FILE: B106C010_211208HL
203  B103C002 V     C        09:14:36:23 09:14:39:23 00:08:18:20 00:08:21:20 
* NO SLATE 
* FROM CLIP NAME:  20-2B 
* REEL: GT_EXT_DAY_VENICE_REC709.CUBE 
* SOURCE FILE: B103C002_211207FW
204  A105C003 V     C        09:28:06:15 09:28:10:01 00:08:21:20 00:08:25:06 
* FROM CLIP NAME:  20A-1A 
* REEL: GT_EXT_DAY_VENICE_REC709.CUBE 
* SOURCE FILE: A105C003_180305CY
205  B103C005 V     C        09:34:17:15 09:34:20:13 00:08:25:06 00:08:28:04 
* TAIL STIX 
* FROM CLIP NAME:  20A-3B 
* REEL: GT_EXT_DAY_VENICE_REC709.CUBE 
* SOURCE FILE: B103C005_211207YV
206  B103C009 V     C        09:55:07:12 09:55:09:12 00:08:28:04 00:08:30:04 
* TAIL STIX 
* FROM CLIP NAME:  20D-1B 
* REEL: GT_EXT_DAY_VENICE_REC709.CUBE 
* SOURCE FILE: B103C009_2112073V
207  A105C008 V     C        09:48:00:14 09:48:02:01 00:08:30:04 00:08:31:15 
* FROM CLIP NAME:  20C-2A 
* REEL: GT_EXT_DAY_VENICE_REC709.CUBE 
* SOURCE FILE: A105C008_1803059W
208  A105C010 V     C        09:57:02:11 09:57:04:11 00:08:31:15 00:08:33:15 
* TAIL STIX 
* FROM CLIP NAME:  20E-1A 
* REEL: GT_EXT_DAY_VENICE_REC709.CUBE 
* SOURCE FILE: A105C010_1803056I
209  A105C007 V     C        09:46:16:17 09:46:19:10 00:08:33:15 00:08:36:08 
* FROM CLIP NAME:  20C-1A 
* REEL: GT_EXT_DAY_VENICE_REC709.CUBE 
* SOURCE FILE: A105C007_180305UD
210  A105C009 V     C        09:55:20:22 09:55:22:18 00:08:36:08 00:08:38:04 
* TAIL STIX 
* FROM CLIP NAME:  20D-1A 
* REEL: GT_EXT_DAY_VENICE_REC709.CUBE 
* SOURCE FILE: A105C009_180305SF
211  B103C006 V     C        09:37:21:07 09:37:22:02 00:08:38:04 00:08:38:23 
* TAIL STIX 
* FROM CLIP NAME:  20B-1B 
* REEL: GT_EXT_DAY_VENICE_REC709.CUBE 
* SOURCE FILE: B103C006_211207QZ
212  A105C006 V     C        09:37:22:18 09:37:39:07 00:08:38:23 00:08:55:12 
* FROM CLIP NAME:  20B-1A 
* REEL: GT_EXT_DAY_VENICE_REC709.CUBE 
* SOURCE FILE: A105C006_180305VW
213  A107C015 V     C        12:01:11:18 12:01:15:15 00:08:55:12 00:08:59:09 
* FROM CLIP NAME:  21B-1A 
* REEL: GT_COTERIE_DAY_01_VENICE_REC709 
* SOURCE FILE: A107C015_18030692
214  A107C013 V     C        11:31:05:15 11:31:11:15 00:08:59:09 00:09:05:09 
* FROM CLIP NAME:  21A-1A 
* REEL: GT_COTERIE_DAY_01_VENICE_REC709 
* SOURCE FILE: A107C013_180306J1
215  B106C012 V     C        11:21:43:17 11:21:47:08 00:09:05:09 00:09:09:00 
* FROM CLIP NAME:  21-2B 
* REEL: GT_COTERIE_DAY_01_VENICE_REC709 
* SOURCE FILE: B106C012_2112086M
216  A107C015 V     C        12:05:13:10 12:05:15:04 00:09:09:00 00:09:10:18 
* FROM CLIP NAME:  21B-1A 
* REEL: GT_COTERIE_DAY_01_VENICE_REC709 
* SOURCE FILE: A107C015_18030692
217  B106C014 V     C        11:36:57:04 11:36:58:12 00:09:10:18 00:09:12:02 
* FROM CLIP NAME:  21A-2B 
* REEL: GT_COTERIE_DAY_01_VENICE_REC709 
* SOURCE FILE: B106C014_211208TK
218  A107C013 V     C        11:31:21:08 11:31:24:16 00:09:12:02 00:09:15:10 
* FROM CLIP NAME:  21A-1A 
* REEL: GT_COTERIE_DAY_01_VENICE_REC709 
* SOURCE FILE: A107C013_180306J1
219  A107C015 V     C        12:01:35:17 12:01:37:14 00:09:15:10 00:09:17:07 
* FROM CLIP NAME:  21B-1A 
* REEL: GT_COTERIE_DAY_01_VENICE_REC709 
* SOURCE FILE: A107C015_18030692
220  B106C013 V     C        11:28:41:10 11:28:46:11 00:09:17:07 00:09:22:08 
* FROM CLIP NAME:  21A-1B 
* REEL: GT_COTERIE_DAY_01_VENICE_REC709 
* SOURCE FILE: B106C013_211208PQ
221  B106C014 V     C        11:38:54:07 11:38:57:13 00:09:22:08 00:09:25:14 
* FROM CLIP NAME:  21A-2B 
* REEL: GT_COTERIE_DAY_01_VENICE_REC709 
* SOURCE FILE: B106C014_211208TK
222  A107C013 V     C        11:28:50:21 11:28:53:05 00:09:25:14 00:09:27:22 
* FROM CLIP NAME:  21A-1A 
* REEL: GT_COTERIE_DAY_01_VENICE_REC709 
* SOURCE FILE: A107C013_180306J1
223  B106C013 V     C        11:28:53:05 11:28:54:22 00:09:27:22 00:09:29:15 
* FROM CLIP NAME:  21A-1B 
* REEL: GT_COTERIE_DAY_01_VENICE_REC709 
* SOURCE FILE: B106C013_211208PQ
224  A107C014 V     C        11:39:52:06 11:39:58:02 00:09:29:15 00:09:35:11 
* FROM CLIP NAME:  21A-2A 
* REEL: GT_COTERIE_DAY_01_VENICE_REC709 
* SOURCE FILE: A107C014_180306GM
225  B106C014 V     C        11:39:57:23 11:40:01:10 00:09:35:11 00:09:38:22 
* FROM CLIP NAME:  21A-2B 
* REEL: GT_COTERIE_DAY_01_VENICE_REC709 
* SOURCE FILE: B106C014_211208TK
226  A107C014 V     C        11:40:01:14 11:40:04:02 00:09:38:22 00:09:41:10 
* FROM CLIP NAME:  21A-2A 
* REEL: GT_COTERIE_DAY_01_VENICE_REC709 
* SOURCE FILE: A107C014_180306GM
227  A111C008 V     C        18:36:56:03 18:36:59:14 00:09:41:10 00:09:44:21 
* FROM CLIP NAME:  22-1A 
* REEL: GT_COTERIE_NIGHT_02_LC_VENICE_R 
* SOURCE FILE: A111C008_1803072Y
228  B110C012 V     C        19:29:06:02 19:29:09:08 00:09:44:21 00:09:48:03 
* FROM CLIP NAME:  22D-1B 
* REEL: GT_COTERIE_NIGHT_02_LC_VENICE_R 
* SOURCE FILE: B110C012_211209FF
229  B110C009 V     C        18:53:11:21 18:53:15:12 00:09:48:03 00:09:51:18 
* FROM CLIP NAME:  22A-1B 
* REEL: GT_COTERIE_NIGHT_02_LC_VENICE_R 
* SOURCE FILE: B110C009_211209A6
230  B110C011 V     C        19:22:23:09 19:22:28:01 00:09:51:18 00:09:56:10 
* FROM CLIP NAME:  22C-1B 
* REEL: GT_COTERIE_NIGHT_02_LC_VENICE_R 
* SOURCE FILE: B110C011_211209VT
231  B110C010 V     C        19:05:00:14 19:05:02:04 00:09:56:10 00:09:58:00 
* FROM CLIP NAME:  22B-1B 
* REEL: GT_COTERIE_NIGHT_02_LC_VENICE_R 
* SOURCE FILE: B110C010_2112098O
232  B110C011 V     C        19:22:29:13 19:22:31:22 00:09:58:00 00:10:00:09 
* FROM CLIP NAME:  22C-1B 
* REEL: GT_COTERIE_NIGHT_02_LC_VENICE_R 
* SOURCE FILE: B110C011_211209VT
233  B110C010 V     C        19:05:05:13 19:05:12:22 00:10:00:09 00:10:07:18 
* FROM CLIP NAME:  22B-1B 
* REEL: GT_COTERIE_NIGHT_02_LC_VENICE_R 
* SOURCE FILE: B110C010_2112098O
234  B110C011 V     C        19:22:39:06 19:22:42:09 00:10:07:18 00:10:10:21 
* FROM CLIP NAME:  22C-1B 
* REEL: GT_COTERIE_NIGHT_02_LC_VENICE_R 
* SOURCE FILE: B110C011_211209VT
235  B110C009 V     C        18:57:28:18 18:57:33:16 00:10:10:21 00:10:15:19 
* FROM CLIP NAME:  22A-1B 
* REEL: GT_COTERIE_NIGHT_02_LC_VENICE_R 
* SOURCE FILE: B110C009_211209A6
236  B110C011 V     C        19:22:54:12 19:22:55:16 00:10:15:19 00:10:16:23 
* FROM CLIP NAME:  22C-1B 
* REEL: GT_COTERIE_NIGHT_02_LC_VENICE_R 
* SOURCE FILE: B110C011_211209VT
237  B110C008 V     C        18:39:57:11 18:40:01:08 00:10:16:23 00:10:20:20 
* FROM CLIP NAME:  22-1B 
* REEL: GT_COTERIE_NIGHT_02_LC_VENICE_R 
* SOURCE FILE: B110C008_211209CW
238  A111C008 V     C        18:40:01:14 18:40:06:20 00:10:20:20 00:10:26:02 
* FROM CLIP NAME:  22-1A 
* REEL: GT_COTERIE_NIGHT_02_LC_VENICE_R 
* SOURCE FILE: A111C008_1803072Y
239  A111C013 V     C        19:29:55:04 19:29:59:15 00:10:26:02 00:10:30:13 
* FROM CLIP NAME:  22D-1A 
* REEL: GT_COTERIE_NIGHT_02_LC_VENICE_R 
* SOURCE FILE: A111C013_180307TT
240  A111C009 V     C        18:57:56:01 18:58:01:03 00:10:30:13 00:10:35:15 
* FROM CLIP NAME:  22A-1A 
* REEL: GT_COTERIE_NIGHT_02_LC_VENICE_R 
* SOURCE FILE: A111C009_18030721
241  A111C013 V     C        19:32:19:04 19:32:24:13 00:10:35:15 00:10:41:00 
* FROM CLIP NAME:  22D-1A 
* REEL: GT_COTERIE_NIGHT_02_LC_VENICE_R 
* SOURCE FILE: A111C013_180307TT
242  A111C009 V     C        19:00:34:19 19:00:38:16 00:10:41:00 00:10:44:21 
* FROM CLIP NAME:  22A-1A 
* REEL: GT_COTERIE_NIGHT_02_LC_VENICE_R 
* SOURCE FILE: A111C009_18030721
243  B110C012 V     C        19:32:28:04 19:32:30:19 00:10:44:21 00:10:47:12 
* FROM CLIP NAME:  22D-1B 
* REEL: GT_COTERIE_NIGHT_02_LC_VENICE_R 
* SOURCE FILE: B110C012_211209FF
244  B110C010 V     C        19:05:59:17 19:06:12:22 00:10:47:12 00:11:00:17 
* FROM CLIP NAME:  22B-1B 
* REEL: GT_COTERIE_NIGHT_02_LC_VENICE_R 
* SOURCE FILE: B110C010_2112098O
245  B110C012 V     C        19:30:26:14 19:30:30:04 00:11:00:17 00:11:04:07 
* FROM CLIP NAME:  22D-1B 
* REEL: GT_COTERIE_NIGHT_02_LC_VENICE_R 
* SOURCE FILE: B110C012_211209FF
246  A111C010 V     C        19:06:19:00 19:06:24:07 00:11:04:07 00:11:09:14 
* FROM CLIP NAME:  22B-1A 
* REEL: GT_COTERIE_NIGHT_02_LC_VENICE_R 
* SOURCE FILE: A111C010_180307BK
247  B110C012 V     C        19:32:56:09 19:33:00:20 00:11:09:14 00:11:14:01 
* FROM CLIP NAME:  22D-1B 
* REEL: GT_COTERIE_NIGHT_02_LC_VENICE_R 
* SOURCE FILE: B110C012_211209FF
248  B110C009 V     C        19:01:01:12 19:01:03:15 00:11:14:01 00:11:16:04 
* FROM CLIP NAME:  22A-1B 
* REEL: GT_COTERIE_NIGHT_02_LC_VENICE_R 
* SOURCE FILE: B110C009_211209A6
249  B110C012 V     C        19:33:01:00 19:33:06:18 00:11:16:04 00:11:21:22 
* FROM CLIP NAME:  22D-1B 
* REEL: GT_COTERIE_NIGHT_02_LC_VENICE_R 
* SOURCE FILE: B110C012_211209FF
250  B110C010 V     C        19:06:33:09 19:06:38:12 00:11:21:22 00:11:27:01 
* FROM CLIP NAME:  22B-1B 
* REEL: GT_COTERIE_NIGHT_02_LC_VENICE_R 
* SOURCE FILE: B110C010_2112098O
251  A111C013 V     C        19:33:11:19 19:33:16:03 00:11:27:01 00:11:31:09 
* FROM CLIP NAME:  22D-1A 
* REEL: GT_COTERIE_NIGHT_02_LC_VENICE_R 
* SOURCE FILE: A111C013_180307TT
252  B110C010 V     C        19:06:41:11 19:06:44:10 00:11:31:09 00:11:34:08 
* FROM CLIP NAME:  22B-1B 
* REEL: GT_COTERIE_NIGHT_02_LC_VENICE_R 
* SOURCE FILE: B110C010_2112098O
253  SIGNATUR V     C        01:00:00:00 01:00:01:00 00:11:34:08 00:11:35:08 
* FROM CLIP NAME:  RING OUT  •  (1 SEC) 
* SOURCE FILE: SIGNATURE SOURCE MOB
254  SIGNATUR V     C        01:11:37:23 01:11:38:11 00:11:35:08 00:11:35:20 
* FROM CLIP NAME:  COMMERCIAL BREAK  •  (1/2 SEC) 
* SOURCE FILE: SIGNATURE SOURCE MOB
255  B093C012 V     C        17:51:37:15 17:51:42:11 00:11:35:20 00:11:40:16 
* FROM CLIP NAME:  23C-1B 
* REEL: GT_COTERIE_NIGHT_03_LC_VENICE_R 
* SOURCE FILE: B093C012_211201X8
256  A095C011 V     C        17:20:34:16 17:20:38:10 00:11:40:16 00:11:44:10 
* FROM CLIP NAME:  23A-2A 
* REEL: GT_COTERIE_NIGHT_03_LC_VENICE_R 
* SOURCE FILE: A095C011_1802279B
257  A095C012 V     C        17:43:32:14 17:43:37:03 00:11:44:10 00:11:48:23 
* FROM CLIP NAME:  23B-1A 
* REEL: GT_COTERIE_NIGHT_03_LC_VENICE_R 
* SOURCE FILE: A095C012_18022778
258  A095C015 V     C        18:04:03:13 18:04:06:15 00:11:48:23 00:11:52:01 
* FROM CLIP NAME:  23D-1A 
* REEL: GT_COTERIE_NIGHT_03_LC_VENICE_R 
* SOURCE FILE: A095C015_1802271K
259  A095C011 V     C        17:21:00:04 17:21:02:19 00:11:52:01 00:11:54:16 
* FROM CLIP NAME:  23A-2A 
* REEL: GT_COTERIE_NIGHT_03_LC_VENICE_R 
* SOURCE FILE: A095C011_1802279B
260  A095C014 V     C        17:51:55:19 17:51:57:22 00:11:54:16 00:11:56:19 
* FROM CLIP NAME:  23C-1A 
* REEL: GT_COTERIE_NIGHT_03_LC_VENICE_R 
* SOURCE FILE: A095C014_180227UE
261  A095C008 V     C        17:03:08:17 17:03:13:03 00:11:56:19 00:12:01:05 
* FROM CLIP NAME:  23-2A 
* REEL: GT_COTERIE_NIGHT_03_LC_VENICE_R 
* SOURCE FILE: A095C008_180227HJ
262  B093C013 V     C        18:04:20:00 18:04:23:21 00:12:01:05 00:12:05:02 
* FROM CLIP NAME:  23D-1B 
* REEL: GT_COTERIE_NIGHT_03_LC_VENICE_R 
* SOURCE FILE: B093C013_211201U0
263  A095C011 V     C        17:21:14:15 17:21:20:06 00:12:05:02 00:12:10:17 
* FROM CLIP NAME:  23A-2A 
* REEL: GT_COTERIE_NIGHT_03_LC_VENICE_R 
* SOURCE FILE: A095C011_1802279B
264  B093C012 V     C        17:52:12:01 17:52:15:11 00:12:10:17 00:12:14:03 
* FROM CLIP NAME:  23C-1B 
* REEL: GT_COTERIE_NIGHT_03_LC_VENICE_R 
* SOURCE FILE: B093C012_211201X8
265  A095C015 V     C        18:04:33:01 18:04:35:13 00:12:14:03 00:12:16:15 
* FROM CLIP NAME:  23D-1A 
* REEL: GT_COTERIE_NIGHT_03_LC_VENICE_R 
* SOURCE FILE: A095C015_1802271K
266  A095C011 V     C        17:21:27:08 17:21:31:02 00:12:16:15 00:12:20:09 
* FROM CLIP NAME:  23A-2A 
* REEL: GT_COTERIE_NIGHT_03_LC_VENICE_R 
* SOURCE FILE: A095C011_1802279B
267  B093C012 V     C        17:52:20:09 17:52:22:04 00:12:20:09 00:12:22:04 
* FROM CLIP NAME:  23C-1B 
* REEL: GT_COTERIE_NIGHT_03_LC_VENICE_R 
* SOURCE FILE: B093C012_211201X8
268  B093C008 V     C        17:17:01:23 17:17:08:19 00:12:22:04 00:12:29:00 
* FROM CLIP NAME:  23A-1B 
* REEL: GT_COTERIE_NIGHT_03_LC_VENICE_R 
* SOURCE FILE: B093C008_211201CR
269  B093C011 V     C        17:47:57:19 17:48:03:03 00:12:29:00 00:12:34:08 
* FROM CLIP NAME:  23B-2B 
* REEL: GT_COTERIE_NIGHT_03_LC_VENICE_R 
* SOURCE FILE: B093C011_211201U8
270  B093C008 V     C        17:17:11:19 17:17:18:18 00:12:34:08 00:12:41:07 
* FROM CLIP NAME:  23A-1B 
* REEL: GT_COTERIE_NIGHT_03_LC_VENICE_R 
* SOURCE FILE: B093C008_211201CR
271  B093C012 V     C        17:52:41:14 17:52:45:20 00:12:41:07 00:12:45:13 
* FROM CLIP NAME:  23C-1B 
* REEL: GT_COTERIE_NIGHT_03_LC_VENICE_R 
* SOURCE FILE: B093C012_211201X8
272  B093C009 V     C        17:22:03:14 17:22:07:13 00:12:45:13 00:12:49:12 
* FROM CLIP NAME:  23A-2B 
* REEL: GT_COTERIE_NIGHT_03_LC_VENICE_R 
* SOURCE FILE: B093C009_211201QE
273  B093C012 V     C        17:52:50:03 17:52:57:00 00:12:49:12 00:12:56:09 
* FROM CLIP NAME:  23C-1B 
* REEL: GT_COTERIE_NIGHT_03_LC_VENICE_R 
* SOURCE FILE: B093C012_211201X8
274  B093C006 V     C        16:57:48:06 16:57:50:09 00:12:56:09 00:12:58:12 
* FROM CLIP NAME:  23-1B 
* REEL: GT_COTERIE_NIGHT_03_LC_VENICE_R 
* SOURCE FILE: B093C006_211201VF
275  A095C013 V     C        17:48:28:08 17:48:30:13 00:12:58:12 00:13:00:17 
* FROM CLIP NAME:  23B-2A 
* REEL: GT_COTERIE_NIGHT_03_LC_VENICE_R 
* SOURCE FILE: A095C013_180227GH
276  A095C007 V     C        16:57:54:04 16:57:58:00 00:13:00:17 00:13:04:13 
* FROM CLIP NAME:  23-1A 
* REEL: GT_COTERIE_NIGHT_03_LC_VENICE_R 
* SOURCE FILE: A095C007_1802279W
277  B093C011 V     C        17:48:35:18 17:48:37:18 00:13:04:13 00:13:06:13 
* FROM CLIP NAME:  23B-2B 
* REEL: GT_COTERIE_NIGHT_03_LC_VENICE_R 
* SOURCE FILE: B093C011_211201U8
278  A095C010 V     C        17:17:46:00 17:17:53:23 00:13:06:13 00:13:14:12 
* FROM CLIP NAME:  23A-1A 
* REEL: GT_COTERIE_NIGHT_03_LC_VENICE_R 
* SOURCE FILE: A095C010_18022772
279  A095C012 V     C        17:45:03:13 17:45:08:11 00:13:14:12 00:13:19:10 
* FROM CLIP NAME:  23B-1A 
* REEL: GT_COTERIE_NIGHT_03_LC_VENICE_R 
* SOURCE FILE: A095C012_18022778
280  A095C011 V     C        17:22:35:04 17:22:36:15 00:13:19:10 00:13:20:21 
* FROM CLIP NAME:  23A-2A 
* REEL: GT_COTERIE_NIGHT_03_LC_VENICE_R 
* SOURCE FILE: A095C011_1802279B
281  B093C007 V     C        17:06:34:16 17:06:37:15 00:13:20:21 00:13:23:20 
* FROM CLIP NAME:  23-2B 
* REEL: GT_COTERIE_NIGHT_03_LC_VENICE_R 
* SOURCE FILE: B093C007_211201ZD
282  B093C012 V     C        17:53:25:23 17:53:27:20 00:13:23:20 00:13:25:17 
* FROM CLIP NAME:  23C-1B 
* REEL: GT_COTERIE_NIGHT_03_LC_VENICE_R 
* SOURCE FILE: B093C012_211201X8
283  B093C009 V     C        17:22:41:09 17:22:43:03 00:13:25:17 00:13:27:11 
* FROM CLIP NAME:  23A-2B 
* REEL: GT_COTERIE_NIGHT_03_LC_VENICE_R 
* SOURCE FILE: B093C009_211201QE
284  B093C013 V     C        18:05:43:15 18:05:50:00 00:13:27:11 00:13:33:20 
* FROM CLIP NAME:  23D-1B 
* REEL: GT_COTERIE_NIGHT_03_LC_VENICE_R 
* SOURCE FILE: B093C013_211201U0
285  A095C014 V     C        17:53:36:18 17:53:38:12 00:13:33:20 00:13:35:14 
* FROM CLIP NAME:  23C-1A 
* REEL: GT_COTERIE_NIGHT_03_LC_VENICE_R 
* SOURCE FILE: A095C014_180227UE
286  A095C011 V     C        17:22:40:05 17:22:42:05 00:13:35:14 00:13:37:14 
* FROM CLIP NAME:  23A-2A 
* REEL: GT_COTERIE_NIGHT_03_LC_VENICE_R 
* SOURCE FILE: A095C011_1802279B
287  B093C012 V     C        17:53:39:08 17:53:41:14 00:13:37:14 00:13:39:20 
* FROM CLIP NAME:  23C-1B 
* REEL: GT_COTERIE_NIGHT_03_LC_VENICE_R 
* SOURCE FILE: B093C012_211201X8
288  B093C009 V     C        17:22:51:09 17:22:53:13 00:13:39:20 00:13:42:00 
* FROM CLIP NAME:  23A-2B 
* REEL: GT_COTERIE_NIGHT_03_LC_VENICE_R 
* SOURCE FILE: B093C009_211201QE
289  A095C015 V     C        18:05:58:10 18:06:03:09 00:13:42:00 00:13:46:23 
* FROM CLIP NAME:  23D-1A 
* REEL: GT_COTERIE_NIGHT_03_LC_VENICE_R 
* SOURCE FILE: A095C015_1802271K
290  A094C016 V     C        12:18:45:05 12:18:53:18 00:13:46:23 00:13:55:12 
* FROM CLIP NAME:  24-2A 
* REEL: GT_COTERIE_NIGHT_02_LC_VENICE_R 
* SOURCE FILE: A094C016_1802272H
291  A094C024 V     C        13:28:02:19 13:28:04:22 00:13:55:12 00:13:57:15 
* FROM CLIP NAME:  26-1A 
* REEL: GT_COTERIE_NIGHT_02_LC_VENICE_R 
* SOURCE FILE: A094C024_180227SN
292  A097C007 V     C        08:48:32:19 08:48:37:14 00:13:57:15 00:14:02:10 
* FROM CLIP NAME:  25B-1A 
* REEL: GT_LEGAL_AID_DAY_01_VENICE_REC7 
* SOURCE FILE: A097C007_180228FH
293  A097C004 V     C        08:08:36:22 08:08:41:01 00:14:02:10 00:14:06:13 
* FROM CLIP NAME:  25-4A 
* REEL: GT_LEGAL_AID_DAY_01_VENICE_REC7 
* SOURCE FILE: A097C004_180228T9
294  A097C009 V     C        08:55:11:08 08:55:12:15 00:14:06:13 00:14:07:20 
* FROM CLIP NAME:  25B-3A 
* REEL: GT_LEGAL_AID_DAY_01_VENICE_REC7 
* SOURCE FILE: A097C009_180228B8
295  B095C004 V     C        08:08:42:09 08:08:45:13 00:14:07:20 00:14:11:00 
* FROM CLIP NAME:  25-4B 
* REEL: GT_LEGAL_AID_DAY_01_VENICE_REC7 
* SOURCE FILE: B095C004_211202MJ
296  B095C007 V     C        08:55:15:08 08:55:16:15 00:14:11:00 00:14:12:07 
* FROM CLIP NAME:  25B-3B 
* REEL: GT_LEGAL_AID_DAY_01_VENICE_REC7 
* SOURCE FILE: B095C007_211202QW
297  A097C005 V     C        08:20:31:21 08:20:33:16 00:14:12:07 00:14:14:02 
* FROM CLIP NAME:  25A-1 X6 
* REEL: GT_LEGAL_AID_DAY_01_VENICE_REC7 
* SOURCE FILE: A097C005_18022808
298  A094C024 V     C        13:32:36:08 13:32:37:20 00:14:14:02 00:14:15:14 
* FROM CLIP NAME:  26-1A 
* REEL: GT_COTERIE_NIGHT_02_LC_VENICE_R 
* SOURCE FILE: A094C024_180227SN
299  A094C017 V     C        12:24:35:12 12:24:37:03 00:14:15:14 00:14:17:05 
* FROM CLIP NAME:  24-3A 
* REEL: GT_COTERIE_NIGHT_02_LC_VENICE_R 
* SOURCE FILE: A094C017_180227LQ
300  A094C021 V     C        13:07:35:10 13:07:38:18 00:14:17:05 00:14:20:13 
* FROM CLIP NAME:  24B-2A 
* REEL: GT_COTERIE_NIGHT_02_LC_VENICE_R 
* SOURCE FILE: A094C021_180227BX
301  A094C017 V     C        12:24:41:13 12:24:44:11 00:14:20:13 00:14:23:11 
* FROM CLIP NAME:  24-3A 
* REEL: GT_COTERIE_NIGHT_02_LC_VENICE_R 
* SOURCE FILE: A094C017_180227LQ
302  A094C023 V     C        13:21:28:19 13:21:31:03 00:14:23:11 00:14:25:19 
* FROM CLIP NAME:  24C-2A 
* REEL: GT_COTERIE_NIGHT_02_LC_VENICE_R 
* SOURCE FILE: A094C023_1802279K
303  A094C019 V     C        12:39:21:19 12:39:23:05 00:14:25:19 00:14:27:05 
* FROM CLIP NAME:  24A-1A 
* REEL: GT_COTERIE_NIGHT_02_LC_VENICE_R 
* SOURCE FILE: A094C019_180227M6
304  B092C012 V     C        12:27:40:03 12:27:43:22 00:14:27:05 00:14:31:00 
* FROM CLIP NAME:  24-4B 
* REEL: GT_COTERIE_NIGHT_02_LC_VENICE_R 
* SOURCE FILE: B092C012_211201QI
305  B092C018 V     C        13:30:43:11 13:30:45:07 00:14:31:00 00:14:32:20 
* FROM CLIP NAME:  26-1B 
* REEL: GT_COTERIE_NIGHT_02_LC_VENICE_R 
* SOURCE FILE: B092C018_211201O0
306  A094C019 V     C        12:36:48:21 12:36:52:16 00:14:32:20 00:14:36:15 
* FROM CLIP NAME:  24A-1A 
* REEL: GT_COTERIE_NIGHT_02_LC_VENICE_R 
* SOURCE FILE: A094C019_180227M6
307  B092C017 V     C        13:21:42:07 13:21:43:08 00:14:36:15 00:14:37:16 
* FROM CLIP NAME:  24C-2B 
* REEL: GT_COTERIE_NIGHT_02_LC_VENICE_R 
* SOURCE FILE: B092C017_21120129
308  B092C013 V     C        12:39:33:15 12:39:36:06 00:14:37:16 00:14:40:07 
* FROM CLIP NAME:  24A-1B 
* REEL: GT_COTERIE_NIGHT_02_LC_VENICE_R 
* SOURCE FILE: B092C013_211201DV
309  A094C019 V     C        12:39:36:06 12:39:38:11 00:14:40:07 00:14:42:12 
* FROM CLIP NAME:  24A-1A 
* REEL: GT_COTERIE_NIGHT_02_LC_VENICE_R 
* SOURCE FILE: A094C019_180227M6
310  A094C022 V     C        13:16:57:17 13:16:59:02 00:14:42:12 00:14:43:21 
* FROM CLIP NAME:  24C-1A 
* REEL: GT_COTERIE_NIGHT_02_LC_VENICE_R 
* SOURCE FILE: A094C022_180227AA
311  B092C012 V     C        12:27:55:12 12:27:57:02 00:14:43:21 00:14:45:11 
* FROM CLIP NAME:  24-4B 
* REEL: GT_COTERIE_NIGHT_02_LC_VENICE_R 
* SOURCE FILE: B092C012_211201QI
312  A094C018 V     C        12:27:57:01 12:27:59:11 00:14:45:11 00:14:47:21 
* FROM CLIP NAME:  24-4A 
* REEL: GT_COTERIE_NIGHT_02_LC_VENICE_R 
* SOURCE FILE: A094C018_18022709
313  A094C019 V     C        12:41:37:05 12:41:40:11 00:14:47:21 00:14:51:03 
* FROM CLIP NAME:  24A-1A 
* REEL: GT_COTERIE_NIGHT_02_LC_VENICE_R 
* SOURCE FILE: A094C019_180227M6
314  B092C014 V     C        13:04:30:08 13:04:34:09 00:14:51:03 00:14:55:04 
* FROM CLIP NAME:  24B-1B 
* REEL: GT_COTERIE_NIGHT_02_LC_VENICE_R 
* SOURCE FILE: B092C014_211201MO
315  A094C017 V     C        12:25:16:10 12:25:18:10 00:14:55:04 00:14:57:04 
* FROM CLIP NAME:  24-3A 
* REEL: GT_COTERIE_NIGHT_02_LC_VENICE_R 
* SOURCE FILE: A094C017_180227LQ
316  A094C022 V     C        13:17:17:09 13:17:21:06 00:14:57:04 00:15:01:01 
* FROM CLIP NAME:  24C-1A 
* REEL: GT_COTERIE_NIGHT_02_LC_VENICE_R 
* SOURCE FILE: A094C022_180227AA
317  A094C019 V     C        12:41:52:07 12:41:54:05 00:15:01:01 00:15:02:23 
* FROM CLIP NAME:  24A-1A 
* REEL: GT_COTERIE_NIGHT_02_LC_VENICE_R 
* SOURCE FILE: A094C019_180227M6
318  B092C017 V     C        13:22:14:21 13:22:17:07 00:15:02:23 00:15:05:09 
* FROM CLIP NAME:  24C-2B 
* REEL: GT_COTERIE_NIGHT_02_LC_VENICE_R 
* SOURCE FILE: B092C017_21120129
319  A094C018 V     C        12:28:16:13 12:28:18:12 00:15:05:09 00:15:07:08 
* FROM CLIP NAME:  24-4A 
* REEL: GT_COTERIE_NIGHT_02_LC_VENICE_R 
* SOURCE FILE: A094C018_18022709
320  A094C024 V     C        13:31:25:23 13:31:30:23 00:15:07:08 00:15:12:08 
* FROM CLIP NAME:  26-1A 
* REEL: GT_COTERIE_NIGHT_02_LC_VENICE_R 
* SOURCE FILE: A094C024_180227SN
321  B098C031 V     C        18:30:56:02 18:31:00:03 00:15:12:08 00:15:16:09 
* FROM CLIP NAME:  27C-3B 
* REEL: GT_COTERIE_NIGHT_02_LC_VENICE_R 
* SOURCE FILE: B098C031_211203X7
322  A100C029 V     C        18:31:00:23 18:31:04:10 00:15:16:09 00:15:19:20 
* FROM CLIP NAME:  27C-3A 
* REEL: GT_COTERIE_NIGHT_02_LC_VENICE_R 
* SOURCE FILE: A100C029_180301LI
323  A100C032 V     C        19:01:58:21 19:02:03:15 00:15:19:20 00:15:24:14 
* FROM CLIP NAME:  27D-2A 
* REEL: GT_COTERIE_NIGHT_02_LC_VENICE_R 
* SOURCE FILE: A100C032_180301SX
324  A100C024 V     C        17:50:08:14 17:50:13:05 00:15:24:14 00:15:29:05 
* FROM CLIP NAME:  27A-1A 
* REEL: GT_COTERIE_NIGHT_02_LC_VENICE_R 
* SOURCE FILE: A100C024_180301M4
325  B098C034 V     C        19:07:56:04 19:07:58:01 00:15:29:05 00:15:31:02 
* FROM CLIP NAME:  27E-1B 
* REEL: GT_COTERIE_NIGHT_02_LC_VENICE_R 
* SOURCE FILE: B098C034_211203IH
326  A100C024 V     C        17:50:16:03 17:50:17:12 00:15:31:02 00:15:32:11 
* FROM CLIP NAME:  27A-1A 
* REEL: GT_COTERIE_NIGHT_02_LC_VENICE_R 
* SOURCE FILE: A100C024_180301M4
327  B098C035 V     C        19:12:14:10 19:12:16:11 00:15:32:11 00:15:34:12 
* FROM CLIP NAME:  27E-2PUB 
* REEL: GT_COTERIE_NIGHT_02_LC_VENICE_R 
* SOURCE FILE: B098C035_211203PQ
328  B098C027 V     C        17:57:00:11 17:57:03:16 00:15:34:12 00:15:37:17 
* FROM CLIP NAME:  27B-1B 
* REEL: GT_COTERIE_NIGHT_02_LC_VENICE_R 
* SOURCE FILE: B098C027_211203RB
329  A100C034 V     C        19:12:20:10 19:12:25:10 00:15:37:17 00:15:42:17 
* FROM CLIP NAME:  27E-2PUA 
* REEL: GT_COTERIE_NIGHT_02_LC_VENICE_R 
* SOURCE FILE: A100C034_180301PO
330  B098C026 V     C        17:50:28:20 17:50:31:12 00:15:42:17 00:15:45:09 
* FROM CLIP NAME:  27A-1B 
* REEL: GT_COTERIE_NIGHT_02_LC_VENICE_R 
* SOURCE FILE: B098C026_21120370
331  A100C031 V     C        18:56:55:10 18:56:57:07 00:15:45:09 00:15:47:06 
* FROM CLIP NAME:  27D-1A 
* REEL: GT_COTERIE_NIGHT_02_LC_VENICE_R 
* SOURCE FILE: A100C031_180301JB
332  A100C026 V     C        18:01:29:21 18:01:33:15 00:15:47:06 00:15:51:00 
* FROM CLIP NAME:  27B-2A 
* REEL: GT_COTERIE_NIGHT_02_LC_VENICE_R 
* SOURCE FILE: A100C026_1803011I
333  A100C032 V     C        19:02:30:23 19:02:35:05 00:15:51:00 00:15:55:06 
* FROM CLIP NAME:  27D-2A 
* REEL: GT_COTERIE_NIGHT_02_LC_VENICE_R 
* SOURCE FILE: A100C032_180301SX
334  A100C025 V     C        17:57:20:13 17:57:21:21 00:15:55:06 00:15:56:14 
* FROM CLIP NAME:  27B-1A 
* REEL: GT_COTERIE_NIGHT_02_LC_VENICE_R 
* SOURCE FILE: A100C025_180301BX
335  A100C034 V     C        19:12:36:20 19:12:39:11 00:15:56:14 00:15:59:05 
* FROM CLIP NAME:  27E-2PUA 
* REEL: GT_COTERIE_NIGHT_02_LC_VENICE_R 
* SOURCE FILE: A100C034_180301PO
336  A100C025 V     C        17:57:26:00 17:57:36:16 00:15:59:05 00:16:09:21 
* FROM CLIP NAME:  27B-1A 
* REEL: GT_COTERIE_NIGHT_02_LC_VENICE_R 
* SOURCE FILE: A100C025_180301BX
337  B098C033 V     C        19:02:49:17 19:02:53:13 00:16:09:21 00:16:13:17 
* FROM CLIP NAME:  27D-2B 
* REEL: GT_COTERIE_NIGHT_02_LC_VENICE_R 
* SOURCE FILE: B098C033_21120315
338  B098C027 V     C        17:57:40:08 17:57:42:19 00:16:13:17 00:16:16:04 
* FROM CLIP NAME:  27B-1B 
* REEL: GT_COTERIE_NIGHT_02_LC_VENICE_R 
* SOURCE FILE: B098C027_211203RB
339  A100C034 V     C        19:14:43:20 19:14:46:13 00:16:16:04 00:16:18:21 
* FROM CLIP NAME:  27E-2PUA 
* REEL: GT_COTERIE_NIGHT_02_LC_VENICE_R 
* SOURCE FILE: A100C034_180301PO
340  A100C025 V     C        17:57:38:01 17:57:39:15 00:16:18:21 00:16:20:11 
* FROM CLIP NAME:  27B-1A 
* REEL: GT_COTERIE_NIGHT_02_LC_VENICE_R 
* SOURCE FILE: A100C025_180301BX
341  C026C006 V     C        15:53:34:12 15:53:38:15 00:16:20:11 00:16:24:14 
* FROM CLIP NAME:  6A-1C 
* REEL: GT_COTERIE_NIGHT_02_LC_VENICE_R 
* SOURCE FILE: C026C006_211206VT
342  B101C003 V     C        16:11:44:15 16:11:46:10 00:16:24:14 00:16:26:09 
* FROM CLIP NAME:  6B-1 
* REEL: GT_COTERIE_NIGHT_02_LC_VENICE_R 
* SOURCE FILE: B101C003_211206ZS
343  A096C003 V     C        19:12:17:20 19:12:19:19 00:16:26:09 00:16:28:08 
* FROM CLIP NAME:  5C-1A 
* REEL: GT_COTERIE_ROOF_NIGHT_01_LC_VEN 
* SOURCE FILE: A096C003_180227NX
344  A096C004 V     C        19:28:52:23 19:28:54:07 00:16:28:08 00:16:29:16 
* FROM CLIP NAME:  5D-1A 
* REEL: GT_COTERIE_ROOF_NIGHT_01_LC_VEN 
* SOURCE FILE: A096C004_180227SC
345  A096C003 V     C        19:17:36:01 19:17:39:06 00:16:29:16 00:16:32:21 
* FROM CLIP NAME:  5C-1A 
* REEL: GT_COTERIE_ROOF_NIGHT_01_LC_VEN 
* SOURCE FILE: A096C003_180227NX
346  A100C025 V     C        17:57:40:08 17:57:42:00 00:16:32:21 00:16:34:13 
* FROM CLIP NAME:  27B-1A 
* REEL: GT_COTERIE_NIGHT_02_LC_VENICE_R 
* SOURCE FILE: A100C025_180301BX
347  A100C034 V     C        19:14:47:16 19:14:49:05 00:16:34:13 00:16:36:02 
* FROM CLIP NAME:  27E-2PUA 
* REEL: GT_COTERIE_NIGHT_02_LC_VENICE_R 
* SOURCE FILE: A100C034_180301PO
348  A100C023 V     C        17:42:32:02 17:42:35:17 00:16:36:02 00:16:39:17 
* FROM CLIP NAME:  27-2A 
* REEL: GT_COTERIE_NIGHT_02_LC_VENICE_R 
* SOURCE FILE: A100C023_180301V5
349  B100C011 V     C        10:57:17:05 10:57:21:23 00:16:39:17 00:16:44:11 
* FROM CLIP NAME:  28-2B 
* REEL: GT_COTERIE_NIGHT_02_LC_VENICE_R 
* SOURCE FILE: B100C011_211206GJ
350  A102C011 V     C        10:57:21:23 10:57:33:22 00:16:44:11 00:16:56:10 
* FROM CLIP NAME:  28-2A 
* REEL: GT_COTERIE_NIGHT_02_LC_VENICE_R 
* SOURCE FILE: A102C011_180304UL
351  A102C016 V     C        12:07:56:16 12:07:59:18 00:16:56:10 00:16:59:12 
* FROM CLIP NAME:  29B-1A 
* REEL: GT_COTERIE_NIGHT_02_LC_VENICE_R 
* SOURCE FILE: A102C016_180304DG
352  B100C016 V     C        12:07:59:18 12:08:03:13 00:16:59:12 00:17:03:07 
* FROM CLIP NAME:  29B-1B 
* REEL: GT_COTERIE_NIGHT_02_LC_VENICE_R 
* SOURCE FILE: B100C016_2112065R
353  B100C015 V     C        12:03:05:17 12:03:09:05 00:17:03:07 00:17:06:19 
* FROM CLIP NAME:  29A-2B 
* REEL: GT_COTERIE_NIGHT_02_LC_VENICE_R 
* SOURCE FILE: B100C015_2112062D
354  A102C016 V     C        12:08:09:07 12:08:10:16 00:17:06:19 00:17:08:04 
* FROM CLIP NAME:  29B-1A 
* REEL: GT_COTERIE_NIGHT_02_LC_VENICE_R 
* SOURCE FILE: A102C016_180304DG
355  A102C014 V     C        11:59:47:22 11:59:50:01 00:17:08:04 00:17:10:07 
* FROM CLIP NAME:  29A-1A 
* REEL: GT_COTERIE_NIGHT_02_LC_VENICE_R 
* SOURCE FILE: A102C014_18030436
356  A102C013 V     C        11:13:54:08 11:13:57:03 00:17:10:07 00:17:13:02 
* FROM CLIP NAME:  29-2A 
* REEL: GT_COTERIE_NIGHT_02_LC_VENICE_R 
* SOURCE FILE: A102C013_18030449
357  B100C016 V     C        12:08:28:15 12:08:29:19 00:17:13:02 00:17:14:06 
* FROM CLIP NAME:  29B-1B 
* REEL: GT_COTERIE_NIGHT_02_LC_VENICE_R 
* SOURCE FILE: B100C016_2112065R
358  B100C012 V     C        11:11:17:00 11:11:19:01 00:17:14:06 00:17:16:07 
* FROM CLIP NAME:  29-1B 
* REEL: GT_COTERIE_NIGHT_02_LC_VENICE_R 
* SOURCE FILE: B100C012_21120696
359  B100C016 V     C        12:08:29:23 12:08:31:16 00:17:16:07 00:17:18:00 
* FROM CLIP NAME:  29B-1B 
* REEL: GT_COTERIE_NIGHT_02_LC_VENICE_R 
* SOURCE FILE: B100C016_2112065R
360  B100C017 V     C        12:16:04:22 12:16:07:00 00:17:18:00 00:17:20:02 
* FROM CLIP NAME:  29D-1 PU X4 
* REEL: GT_COTERIE_NIGHT_02_LC_VENICE_R 
* SOURCE FILE: B100C017_211206W7
361  A102C016 V     C        12:09:38:15 12:09:42:09 00:17:20:02 00:17:23:20 
* FROM CLIP NAME:  29B-1A 
* REEL: GT_COTERIE_NIGHT_02_LC_VENICE_R 
* SOURCE FILE: A102C016_180304DG
362  A102C016 V     C        12:09:44:06 12:09:47:11 00:17:23:20 00:17:27:01 
* FROM CLIP NAME:  29B-1A 
* REEL: GT_COTERIE_NIGHT_02_LC_VENICE_R 
* SOURCE FILE: A102C016_180304DG
363  A102C017 V     C        12:14:02:07 12:14:04:22 00:17:27:01 00:17:29:16 
* FROM CLIP NAME:  29C-1 PU X3 
* REEL: GT_COTERIE_NIGHT_02_LC_VENICE_R 
* SOURCE FILE: A102C017_1803046T
364  C026C003 V     C        13:02:39:18 13:02:42:21 00:17:29:16 00:17:32:19 
* FROM CLIP NAME:  29E-2C 
* REEL: GT_COTERIE_NIGHT_02_LC_VENICE_R 
* SOURCE FILE: C026C003_21120659
365  A102C019 V     C        13:38:13:10 13:38:14:23 00:17:32:19 00:17:34:08 
* FROM CLIP NAME:  29H-1A.SUB.01 
* REEL: GT_COTERIE_NIGHT_02_LC_VENICE_R 
* SOURCE FILE: A102C019_180304VK
366  B100C019 V     C        13:02:44:19 13:02:47:13 00:17:34:08 00:17:37:02 
* FROM CLIP NAME:  29E-2B 
* REEL: GT_COTERIE_NIGHT_02_LC_VENICE_R 
* SOURCE FILE: B100C019_21120665
367  C026C004 V     C        13:07:29:12 13:07:32:22 00:17:37:02 00:17:40:12 
* FROM CLIP NAME:  29F-1C 
* REEL: GT_COTERIE_NIGHT_02_LC_VENICE_R 
* SOURCE FILE: C026C004_211206RK
368  A102C020 V     C        13:46:48:14 13:46:50:01 00:17:40:12 00:17:41:23 
* FROM CLIP NAME:  29J-1A 
* REEL: GT_COTERIE_NIGHT_02_LC_VENICE_R 
* SOURCE FILE: A102C020_180304OU
369  A102C013 V     C        11:14:09:22 11:14:12:00 00:17:41:23 00:17:44:01 
* FROM CLIP NAME:  29-2A 
* REEL: GT_COTERIE_NIGHT_02_LC_VENICE_R 
* SOURCE FILE: A102C013_18030449
370  C026C003 V     C        13:03:08:08 13:03:10:15 00:17:44:01 00:17:46:08 
* FROM CLIP NAME:  29E-2C 
* REEL: GT_COTERIE_NIGHT_02_LC_VENICE_R 
* SOURCE FILE: C026C003_21120659
371  C026C002 V     C        13:00:00:06 13:00:02:05 00:17:46:08 00:17:48:07 
* FROM CLIP NAME:  29E-1C 
* REEL: GT_COTERIE_NIGHT_02_LC_VENICE_R 
* SOURCE FILE: C026C002_211206J5
372  A102C018 V     C        13:33:28:02 13:33:29:10 00:17:48:07 00:17:49:15 
* FROM CLIP NAME:  29G-1A 
* REEL: GT_COTERIE_NIGHT_02_LC_VENICE_R 
* SOURCE FILE: A102C018_180304UR
373  B100C012 V     C        11:11:54:02 11:11:56:14 00:17:49:15 00:17:52:03 
* FROM CLIP NAME:  29-1B 
* REEL: GT_COTERIE_NIGHT_02_LC_VENICE_R 
* SOURCE FILE: B100C012_21120696
374  A102C019 V     C        13:38:53:22 13:38:56:23 00:17:52:03 00:17:55:04 
* FROM CLIP NAME:  29H-1A.SUB.01 
* REEL: GT_COTERIE_NIGHT_02_LC_VENICE_R 
* SOURCE FILE: A102C019_180304VK
375  B100C018 V     C        13:00:25:07 13:00:26:22 00:17:55:04 00:17:56:19 
* FROM CLIP NAME:  29E-1B 
* REEL: GT_COTERIE_NIGHT_02_LC_VENICE_R 
* SOURCE FILE: B100C018_2112061V
376  C026C004 V     C        13:08:19:07 13:08:23:04 00:17:56:19 00:18:00:16 
* FROM CLIP NAME:  29F-1C 
* REEL: GT_COTERIE_NIGHT_02_LC_VENICE_R 
* SOURCE FILE: C026C004_211206RK
377  SIGNATUR V     C        01:00:00:00 01:00:01:00 00:18:00:16 00:18:01:16 
* FROM CLIP NAME:  RING OUT  •  (1 SEC) 
* SOURCE FILE: SIGNATURE SOURCE MOB
378  SIGNATUR V     C        01:11:37:23 01:11:38:11 00:18:01:16 00:18:02:04 
* FROM CLIP NAME:  COMMERCIAL BREAK  •  (1/2 SEC) 
* SOURCE FILE: SIGNATURE SOURCE MOB
379  A100C020 V     C        14:44:21:08 14:44:34:03 00:18:02:04 00:18:14:23 
* FROM CLIP NAME:  30-2A 
* REEL: GT_COTERIE_NIGHT_02_LC_VENICE_R 
* SOURCE FILE: A100C020_1803019Y
380  A100C021 V     C        14:52:23:04 14:52:33:16 00:18:14:23 00:18:25:11 
* FROM CLIP NAME:  30A-1A X4 
* REEL: GT_COTERIE_NIGHT_02_LC_VENICE_R 
* SOURCE FILE: A100C021_180301UC
381  B098C020 V     C        14:44:43:12 14:44:47:00 00:18:25:11 00:18:28:23 
* FROM CLIP NAME:  30-2B 
* REEL: GT_COTERIE_NIGHT_02_LC_VENICE_R 
* SOURCE FILE: B098C020_211203FJ
382  A095C002 V     C        15:23:35:09 15:23:40:08 00:18:28:23 00:18:33:22 
* FROM CLIP NAME:  31-2A 
* REEL: GT_COTERIE_DAY_01_VENICE_REC709 
* SOURCE FILE: A095C002_180227QL
383  B093C003 V     C        15:37:35:04 15:37:36:17 00:18:33:22 00:18:35:11 
* FROM CLIP NAME:  31A-1B 
* REEL: GT_COTERIE_DAY_01_VENICE_REC709 
* SOURCE FILE: B093C003_2112013B
384  B093C005 V     C        16:06:11:17 16:06:13:08 00:18:35:11 00:18:37:02 
* FROM CLIP NAME:  31C-1B 
* REEL: GT_COTERIE_DAY_01_VENICE_REC709 
* SOURCE FILE: B093C005_211201OV
385  A095C004 V     C        15:44:09:11 15:44:14:12 00:18:37:02 00:18:42:03 
* FROM CLIP NAME:  31B-1A 
* REEL: GT_COTERIE_DAY_01_VENICE_REC709 
* SOURCE FILE: A095C004_180227OC
386  C024C001 V     C        16:07:27:06 16:07:39:22 00:18:42:03 00:18:54:19 
* FROM CLIP NAME:  31C-1C 
* REEL: GT_COTERIE_DAY_01_VENICE_REC709 
* SOURCE FILE: C024C001_211201K7
387  B093C005 V     C        16:04:45:15 16:04:47:11 00:18:54:19 00:18:56:15 
* FROM CLIP NAME:  31C-1B 
* REEL: GT_COTERIE_DAY_01_VENICE_REC709 
* SOURCE FILE: B093C005_211201OV
388  B093C003 V     C        15:37:56:02 15:38:01:14 00:18:56:15 00:19:02:03 
* FROM CLIP NAME:  31A-1B 
* REEL: GT_COTERIE_DAY_01_VENICE_REC709 
* SOURCE FILE: B093C003_2112013B
389  A095C004 V     C        15:44:35:21 15:44:41:00 00:19:02:03 00:19:07:06 
* FROM CLIP NAME:  31B-1A 
* REEL: GT_COTERIE_DAY_01_VENICE_REC709 
* SOURCE FILE: A095C004_180227OC
390  C024C001 V     C        16:06:43:23 16:06:48:00 00:19:07:06 00:19:11:07 
* FROM CLIP NAME:  31C-1C 
* REEL: GT_COTERIE_DAY_01_VENICE_REC709 
* SOURCE FILE: C024C001_211201K7
391  B093C002 V     C        15:24:15:11 15:24:20:04 00:19:11:07 00:19:16:00 
* FROM CLIP NAME:  31-2B 
* REEL: GT_COTERIE_DAY_01_VENICE_REC709 
* SOURCE FILE: B093C002_211201Z4
392  C024C001 V     C        16:06:52:03 16:06:57:17 00:19:16:00 00:19:21:14 
* FROM CLIP NAME:  31C-1C 
* REEL: GT_COTERIE_DAY_01_VENICE_REC709 
* SOURCE FILE: C024C001_211201K7
393  A106C003 V     C        15:34:23:15 15:34:27:22 00:19:21:14 00:19:25:21 
* FROM CLIP NAME:  32D-1A 
* REEL: GT_COTERIE_NIGHT_02_LC_VENICE_R 
* SOURCE FILE: A106C003_180305GI
394  B104C006 V     C        15:34:27:09 15:34:30:12 00:19:25:21 00:19:29:00 
* FROM CLIP NAME:  32D-1B 
* REEL: GT_COTERIE_NIGHT_02_LC_VENICE_R 
* SOURCE FILE: B104C006_211207UL
395  B104C005 V     C        15:09:31:02 15:09:35:14 00:19:29:00 00:19:33:12 
* FROM CLIP NAME:  32C-1B.SUB.01 
* REEL: GT_COTERIE_NIGHT_02_LC_VENICE_R 
* SOURCE FILE: B104C005_211207DZ
396  B104C002 V     C        14:25:16:09 14:25:19:04 00:19:33:12 00:19:36:07 
* FROM CLIP NAME:  V32-2B 
* REEL: GT_COTERIE_NIGHT_02_LC_VENICE_R 
* SOURCE FILE: B104C002_211207XO
397  B104C007 V     C        15:39:16:03 15:39:17:22 00:19:36:07 00:19:38:02 
* FROM CLIP NAME:  32E-1B 
* REEL: GT_COTERIE_NIGHT_02_LC_VENICE_R 
* SOURCE FILE: B104C007_21120700
398  A106C003 V     C        15:34:56:08 15:34:58:08 00:19:38:02 00:19:40:02 
* FROM CLIP NAME:  32D-1A 
* REEL: GT_COTERIE_NIGHT_02_LC_VENICE_R 
* SOURCE FILE: A106C003_180305GI
399  B104C001 V     C        14:20:13:18 14:20:16:01 00:19:40:02 00:19:42:09 
* FROM CLIP NAME:  V32-1B 
* REEL: GT_COTERIE_NIGHT_02_LC_VENICE_R 
* SOURCE FILE: B104C001_211207R8
400  A106C002 V     C        15:09:56:10 15:09:58:19 00:19:42:09 00:19:44:18 
* FROM CLIP NAME:  32C-1A.SUB.01 
* REEL: GT_COTERIE_NIGHT_02_LC_VENICE_R 
* SOURCE FILE: A106C002_18030535
401  B104C007 V     C        15:39:28:22 15:39:31:02 00:19:44:18 00:19:46:22 
* FROM CLIP NAME:  32E-1B 
* REEL: GT_COTERIE_NIGHT_02_LC_VENICE_R 
* SOURCE FILE: B104C007_21120700
402  A106C002 V     C        15:10:07:06 15:10:08:14 00:19:46:22 00:19:48:06 
* FROM CLIP NAME:  32C-1A.SUB.01 
* REEL: GT_COTERIE_NIGHT_02_LC_VENICE_R 
* SOURCE FILE: A106C002_18030535
403  B104C002 V     C        14:25:49:09 14:25:51:03 00:19:48:06 00:19:50:00 
* FROM CLIP NAME:  V32-2B 
* REEL: GT_COTERIE_NIGHT_02_LC_VENICE_R 
* SOURCE FILE: B104C002_211207XO
404  A106C004 V     C        15:39:44:05 15:39:48:10 00:19:50:00 00:19:54:05 
* SLATED AS 32D-2 
* FROM CLIP NAME:  32E-1A 
* REEL: GT_COTERIE_NIGHT_02_LC_VENICE_R 
* SOURCE FILE: A106C004_180305HR
405  B104C003 V     C        14:35:57:11 14:36:03:02 00:19:54:05 00:19:59:20 
* FROM CLIP NAME:  32A-1B 
* REEL: GT_COTERIE_NIGHT_02_LC_VENICE_R 
* SOURCE FILE: B104C003_21120754
406  A106C004 V     C        15:39:57:02 15:40:04:14 00:19:59:20 00:20:07:08 
* SLATED AS 32D-2 
* FROM CLIP NAME:  32E-1A 
* REEL: GT_COTERIE_NIGHT_02_LC_VENICE_R 
* SOURCE FILE: A106C004_180305HR
407  A106C001 V     C        15:02:43:04 15:02:44:22 00:20:07:08 00:20:09:02 
* FROM CLIP NAME:  32B-1A 
* REEL: GT_COTERIE_NIGHT_02_LC_VENICE_R 
* SOURCE FILE: A106C001_1803058C
408  A106C004 V     C        15:46:18:04 15:46:20:07 00:20:09:02 00:20:11:05 
* SLATED AS 32D-2 
* FROM CLIP NAME:  32E-1A 
* REEL: GT_COTERIE_NIGHT_02_LC_VENICE_R 
* SOURCE FILE: A106C004_180305HR
409  B104C003 V     C        14:39:08:06 14:39:12:15 00:20:11:05 00:20:15:14 
* FROM CLIP NAME:  32A-1B 
* REEL: GT_COTERIE_NIGHT_02_LC_VENICE_R 
* SOURCE FILE: B104C003_21120754
410  A106C001 V     C        15:02:49:22 15:02:52:22 00:20:15:14 00:20:18:14 
* FROM CLIP NAME:  32B-1A 
* REEL: GT_COTERIE_NIGHT_02_LC_VENICE_R 
* SOURCE FILE: A106C001_1803058C
411  B102C002 V     C        19:10:29:20 19:10:31:16 00:20:18:14 00:20:20:10 
* FROM CLIP NAME:  34K-1B 
* REEL: GT_COTERIE_DAY_01_VENICE_REC709 
* SOURCE FILE: B102C002_211206X7
412  A104C002 V     C        19:10:31:16 19:10:33:10 00:20:20:10 00:20:22:04 
* FROM CLIP NAME:  34K-1A 
* REEL: GT_COTERIE_DAY_01_VENICE_REC709 
* SOURCE FILE: A104C002_1803047P
413  A104C002 V     C        19:10:50:19 19:10:51:12 00:20:22:04 00:20:22:21 
* FROM CLIP NAME:  34K-1A 
* REEL: GT_COTERIE_DAY_01_VENICE_REC709 
* SOURCE FILE: A104C002_1803047P
414  A104C002 V     C        19:11:04:20 19:11:06:00 00:20:22:21 00:20:24:01 
* FROM CLIP NAME:  34K-1A 
* REEL: GT_COTERIE_DAY_01_VENICE_REC709 
* SOURCE FILE: A104C002_1803047P
415  B102C001 V     C        19:02:45:18 19:02:46:14 00:20:24:01 00:20:24:21 
* FROM CLIP NAME:  34J-1B 
* REEL: GT_COTERIE_DAY_01_VENICE_REC709 
* SOURCE FILE: B102C001_2112069F
416  B102C001 V     C        19:02:47:11 19:02:48:01 00:20:24:21 00:20:25:11 
* FROM CLIP NAME:  34J-1B 
* REEL: GT_COTERIE_DAY_01_VENICE_REC709 
* SOURCE FILE: B102C001_2112069F
417  B102C001 V     C        19:04:04:23 19:04:09:10 00:20:25:11 00:20:29:22 
* FROM CLIP NAME:  34J-1B 
* REEL: GT_COTERIE_DAY_01_VENICE_REC709 
* SOURCE FILE: B102C001_2112069F
418  A104C001 V     C        19:04:11:06 19:04:16:04 00:20:29:22 00:20:34:20 
* FROM CLIP NAME:  34J-1A 
* REEL: GT_COTERIE_DAY_01_VENICE_REC709 
* SOURCE FILE: A104C001_180304PK
419  B101C004 V     C        17:15:56:08 17:16:05:20 00:20:34:20 00:20:44:08 
* FROM CLIP NAME:  34-1B 
* REEL: GT_COTERIE_DAY_01_VENICE_REC709 
* SOURCE FILE: B101C004_2112068R
420  A103C002 V     C        17:22:56:20 17:23:01:23 00:20:44:08 00:20:49:11 
* FROM CLIP NAME:  34A-1A 
* REEL: GT_COTERIE_DAY_01_VENICE_REC709 
* SOURCE FILE: A103C002_1803046Q
421  A103C001 V     C        17:16:11:04 17:16:13:13 00:20:49:11 00:20:51:20 
* FROM CLIP NAME:  34-1A 
* REEL: GT_COTERIE_DAY_01_VENICE_REC709 
* SOURCE FILE: A103C001_180304SF
422  B101C004 V     C        17:16:13:13 17:16:15:11 00:20:51:20 00:20:53:18 
* FROM CLIP NAME:  34-1B 
* REEL: GT_COTERIE_DAY_01_VENICE_REC709 
* SOURCE FILE: B101C004_2112068R
423  A103C004 V     C        17:36:15:05 17:36:17:06 00:20:53:18 00:20:55:19 
* FROM CLIP NAME:  34C-1A 
* REEL: GT_COTERIE_DAY_01_VENICE_REC709 
* SOURCE FILE: A103C004_180304EC
424  B101C007 V     C        17:36:17:06 17:36:18:23 00:20:55:19 00:20:57:12 
* FROM CLIP NAME:  34C-1B 
* REEL: GT_COTERIE_DAY_01_VENICE_REC709 
* SOURCE FILE: B101C007_21120684
425  B101C005 V     C        17:23:13:19 17:23:17:11 00:20:57:12 00:21:01:04 
* FROM CLIP NAME:  34A-1B 
* REEL: GT_COTERIE_DAY_01_VENICE_REC709 
* SOURCE FILE: B101C005_211206F5
426  A103C001 V     C        17:16:22:22 17:16:25:08 00:21:01:04 00:21:03:14 
* FROM CLIP NAME:  34-1A 
* REEL: GT_COTERIE_DAY_01_VENICE_REC709 
* SOURCE FILE: A103C001_180304SF
427  A103C004 V     C        17:36:27:15 17:36:33:01 00:21:03:14 00:21:09:00 
* FROM CLIP NAME:  34C-1A 
* REEL: GT_COTERIE_DAY_01_VENICE_REC709 
* SOURCE FILE: A103C004_180304EC
428  B101C006 V     C        17:26:46:18 17:26:49:16 00:21:09:00 00:21:11:22 
* FROM CLIP NAME:  34B-1B 
* REEL: GT_COTERIE_DAY_01_VENICE_REC709 
* SOURCE FILE: B101C006_2112060X
429  A103C002 V     C        17:23:25:23 17:23:29:00 00:21:11:22 00:21:14:23 
* FROM CLIP NAME:  34A-1A 
* REEL: GT_COTERIE_DAY_01_VENICE_REC709 
* SOURCE FILE: A103C002_1803046Q
430  B101C007 V     C        17:38:38:14 17:38:39:18 00:21:14:23 00:21:16:03 
* FROM CLIP NAME:  34C-1B 
* REEL: GT_COTERIE_DAY_01_VENICE_REC709 
* SOURCE FILE: B101C007_21120684
431  B101C005 V     C        17:23:32:00 17:23:34:15 00:21:16:03 00:21:18:18 
* FROM CLIP NAME:  34A-1B 
* REEL: GT_COTERIE_DAY_01_VENICE_REC709 
* SOURCE FILE: B101C005_211206F5
432  A103C003 V     C        17:26:58:08 17:27:00:18 00:21:18:18 00:21:21:04 
* FROM CLIP NAME:  34B-1A 
* REEL: GT_COTERIE_DAY_01_VENICE_REC709 
* SOURCE FILE: A103C003_180304YV
433  B101C007 V     C        17:38:44:11 17:38:45:09 00:21:21:04 00:21:22:02 
* FROM CLIP NAME:  34C-1B 
* REEL: GT_COTERIE_DAY_01_VENICE_REC709 
* SOURCE FILE: B101C007_21120684
434  A103C005 V     C        17:54:11:13 17:54:13:11 00:21:22:02 00:21:24:00 
* FROM CLIP NAME:  34D-1A 
* REEL: GT_COTERIE_DAY_01_VENICE_REC709 
* SOURCE FILE: A103C005_180304BV
435  B101C006 V     C        17:27:04:06 17:27:05:23 00:21:24:00 00:21:25:17 
* FROM CLIP NAME:  34B-1B 
* REEL: GT_COTERIE_DAY_01_VENICE_REC709 
* SOURCE FILE: B101C006_2112060X
436  A103C004 V     C        17:38:49:07 17:38:53:05 00:21:25:17 00:21:29:15 
* FROM CLIP NAME:  34C-1A 
* REEL: GT_COTERIE_DAY_01_VENICE_REC709 
* SOURCE FILE: A103C004_180304EC
437  A103C009 V     C        18:31:12:14 18:31:17:02 00:21:29:15 00:21:34:03 
* FROM CLIP NAME:  34F-2A 
* REEL: GT_COTERIE_DAY_01_VENICE_REC709 
* SOURCE FILE: A103C009_180304WT
438  A103C011 V     C        18:50:11:14 18:50:13:18 00:21:34:03 00:21:36:07 
* FROM CLIP NAME:  34H-1A 
* REEL: GT_COTERIE_DAY_01_VENICE_REC709 
* SOURCE FILE: A103C011_180304QN
439  A103C009 V     C        18:31:50:21 18:31:52:07 00:21:36:07 00:21:37:17 
* FROM CLIP NAME:  34F-2A 
* REEL: GT_COTERIE_DAY_01_VENICE_REC709 
* SOURCE FILE: A103C009_180304WT
440  A103C010 V     C        18:45:37:08 18:45:39:19 00:21:37:17 00:21:40:04 
* FROM CLIP NAME:  34G-1A 
* REEL: GT_COTERIE_DAY_01_VENICE_REC709 
* SOURCE FILE: A103C010_180304UZ
441  B101C012 V     C        18:28:54:12 18:28:56:02 00:21:40:04 00:21:41:18 
* FROM CLIP NAME:  34F-1B 
* REEL: GT_COTERIE_DAY_01_VENICE_REC709 
* SOURCE FILE: B101C012_211206SY
442  A103C010 V     C        18:45:41:22 18:45:43:21 00:21:41:18 00:21:43:17 
* FROM CLIP NAME:  34G-1A 
* REEL: GT_COTERIE_DAY_01_VENICE_REC709 
* SOURCE FILE: A103C010_180304UZ
443  B101C004 V     C        17:17:01:08 17:17:02:20 00:21:43:17 00:21:45:05 
* FROM CLIP NAME:  34-1B 
* REEL: GT_COTERIE_DAY_01_VENICE_REC709 
* SOURCE FILE: B101C004_2112068R
444  B101C009 V     C        17:54:42:02 17:54:45:06 00:21:45:05 00:21:48:09 
* FROM CLIP NAME:  34D-1B 
* REEL: GT_COTERIE_DAY_01_VENICE_REC709 
* SOURCE FILE: B101C009_211206IR
445  A103C011 V     C        18:50:30:07 18:50:34:08 00:21:48:09 00:21:52:10 
* FROM CLIP NAME:  34H-1A 
* REEL: GT_COTERIE_DAY_01_VENICE_REC709 
* SOURCE FILE: A103C011_180304QN
446  B101C011 V     C        18:18:40:19 18:18:42:11 00:21:52:10 00:21:54:02 
* FROM CLIP NAME:  34E-2B 
* REEL: GT_COTERIE_DAY_01_VENICE_REC709 
* SOURCE FILE: B101C011_2112062V
447  A103C011 V     C        18:50:36:00 18:50:39:15 00:21:54:02 00:21:57:17 
* FROM CLIP NAME:  34H-1A 
* REEL: GT_COTERIE_DAY_01_VENICE_REC709 
* SOURCE FILE: A103C011_180304QN
448  B101C010 V     C        18:11:33:01 18:11:35:06 00:21:57:17 00:21:59:22 
* FROM CLIP NAME:  34E-1B 
* REEL: GT_COTERIE_DAY_01_VENICE_REC709 
* SOURCE FILE: B101C010_211206PY
449  A103C011 V     C        18:50:41:20 18:50:50:02 00:21:59:22 00:22:08:04 
* FROM CLIP NAME:  34H-1A 
* REEL: GT_COTERIE_DAY_01_VENICE_REC709 
* SOURCE FILE: A103C011_180304QN
450  A103C007 V     C        18:18:53:20 18:18:58:01 00:22:08:04 00:22:12:09 
* FROM CLIP NAME:  34E-2A 
* REEL: GT_COTERIE_DAY_01_VENICE_REC709 
* SOURCE FILE: A103C007_1803046N
451  A103C010 V     C        18:46:10:19 18:46:12:09 00:22:12:09 00:22:13:23 
* FROM CLIP NAME:  34G-1A 
* REEL: GT_COTERIE_DAY_01_VENICE_REC709 
* SOURCE FILE: A103C010_180304UZ
452  B101C011 V     C        18:15:39:20 18:15:46:02 00:22:13:23 00:22:20:05 
* FROM CLIP NAME:  34E-2B 
* REEL: GT_COTERIE_DAY_01_VENICE_REC709 
* SOURCE FILE: B101C011_2112062V
453  A103C011 V     C        18:51:00:12 18:51:02:03 00:22:20:05 00:22:21:20 
* FROM CLIP NAME:  34H-1A 
* REEL: GT_COTERIE_DAY_01_VENICE_REC709 
* SOURCE FILE: A103C011_180304QN
454  A103C006 V     C        18:11:53:12 18:12:06:02 00:22:21:20 00:22:34:10 
* FROM CLIP NAME:  34E-1A 
* REEL: GT_COTERIE_DAY_01_VENICE_REC709 
* SOURCE FILE: A103C006_180304E0
455  A103C010 V     C        18:43:54:11 18:43:56:08 00:22:34:10 00:22:36:07 
* FROM CLIP NAME:  34G-1A 
* REEL: GT_COTERIE_DAY_01_VENICE_REC709 
* SOURCE FILE: A103C010_180304UZ
456  A103C007 V     C        18:16:49:00 18:16:51:22 00:22:36:07 00:22:39:05 
* FROM CLIP NAME:  34E-2A 
* REEL: GT_COTERIE_DAY_01_VENICE_REC709 
* SOURCE FILE: A103C007_1803046N
457  A103C011 V     C        18:51:21:23 18:51:23:21 00:22:39:05 00:22:41:03 
* FROM CLIP NAME:  34H-1A 
* REEL: GT_COTERIE_DAY_01_VENICE_REC709 
* SOURCE FILE: A103C011_180304QN
458  A103C007 V     C        18:19:43:04 18:19:48:08 00:22:41:03 00:22:46:07 
* FROM CLIP NAME:  34E-2A 
* REEL: GT_COTERIE_DAY_01_VENICE_REC709 
* SOURCE FILE: A103C007_1803046N
459  A103C011 V     C        18:51:29:23 18:51:34:07 00:22:46:07 00:22:50:15 
* FROM CLIP NAME:  34H-1A 
* REEL: GT_COTERIE_DAY_01_VENICE_REC709 
* SOURCE FILE: A103C011_180304QN
460  B101C011 V     C        18:19:51:15 18:19:54:00 00:22:50:15 00:22:53:00 
* FROM CLIP NAME:  34E-2B 
* REEL: GT_COTERIE_DAY_01_VENICE_REC709 
* SOURCE FILE: B101C011_2112062V
461  A103C011 V     C        18:51:37:05 18:51:42:16 00:22:53:00 00:22:58:11 
* FROM CLIP NAME:  34H-1A 
* REEL: GT_COTERIE_DAY_01_VENICE_REC709 
* SOURCE FILE: A103C011_180304QN
462  B101C010 V     C        18:12:23:13 18:12:25:07 00:22:58:11 00:23:00:05 
* FROM CLIP NAME:  34E-1B 
* REEL: GT_COTERIE_DAY_01_VENICE_REC709 
* SOURCE FILE: B101C010_211206PY
463  B101C016 V     C        18:51:44:10 18:51:50:22 00:23:00:05 00:23:06:17 
* FROM CLIP NAME:  34H-1B 
* REEL: GT_COTERIE_DAY_01_VENICE_REC709 
* SOURCE FILE: B101C016_211206YM
464  B101C011 V     C        18:20:05:13 18:20:07:22 00:23:06:17 00:23:09:02 
* FROM CLIP NAME:  34E-2B 
* REEL: GT_COTERIE_DAY_01_VENICE_REC709 
* SOURCE FILE: B101C011_2112062V
465  A103C011 V     C        18:51:50:22 18:51:54:13 00:23:09:02 00:23:12:17 
* FROM CLIP NAME:  34H-1A 
* REEL: GT_COTERIE_DAY_01_VENICE_REC709 
* SOURCE FILE: A103C011_180304QN
466  B101C010 V     C        18:12:37:23 18:12:41:16 00:23:12:17 00:23:16:10 
* FROM CLIP NAME:  34E-1B 
* REEL: GT_COTERIE_DAY_01_VENICE_REC709 
* SOURCE FILE: B101C010_211206PY
467  A103C010 V     C        18:47:14:22 18:47:16:21 00:23:16:10 00:23:18:09 
* FROM CLIP NAME:  34G-1A 
* REEL: GT_COTERIE_DAY_01_VENICE_REC709 
* SOURCE FILE: A103C010_180304UZ
468  A103C007 V     C        18:20:15:06 18:20:18:18 00:23:18:09 00:23:21:21 
* FROM CLIP NAME:  34E-2A 
* REEL: GT_COTERIE_DAY_01_VENICE_REC709 
* SOURCE FILE: A103C007_1803046N
469  A103C005 V     C        17:56:11:09 17:56:13:16 00:23:21:21 00:23:24:04 
* FROM CLIP NAME:  34D-1A 
* REEL: GT_COTERIE_DAY_01_VENICE_REC709 
* SOURCE FILE: A103C005_180304BV
470  A107C017 V     C        13:40:02:00 13:40:04:17 00:23:24:04 00:23:26:21 
* FROM CLIP NAME:  35A-1A 
* REEL: GT_COTERIE_DAY_01_VENICE_REC709 
* SOURCE FILE: A107C017_180306DR
471  A108C010 V     C        17:35:51:09 17:35:56:00 00:23:26:21 00:23:31:12 
* FROM CLIP NAME:  35J-1A 
* REEL: GT_COTERIE_DAY_01_VENICE_REC709 
* SOURCE FILE: A108C010_180306BL
472  A107C016 V     C        13:36:19:06 13:36:26:02 00:23:31:12 00:23:38:08 
* FROM CLIP NAME:  35-1A 
* REEL: GT_COTERIE_DAY_01_VENICE_REC709 
* SOURCE FILE: A107C016_180306J9
473  A108C002 V     C        15:47:10:04 15:47:12:14 00:23:38:08 00:23:40:18 
* FROM CLIP NAME:  35B-2A 
* REEL: GT_COTERIE_DAY_01_VENICE_REC709 
* SOURCE FILE: A108C002_180306OG
474  A108C008 V     C        17:08:25:19 17:08:30:01 00:23:40:18 00:23:45:00 
* FROM CLIP NAME:  35G-2A 
* REEL: GT_COTERIE_DAY_01_VENICE_REC709 
* SOURCE FILE: A108C008_180306HL
475  A108C003 V     C        16:02:16:02 16:02:20:07 00:23:45:00 00:23:49:05 
* FROM CLIP NAME:  35C-1A 
* REEL: GT_COTERIE_DAY_01_VENICE_REC709 
* SOURCE FILE: A108C003_180306QQ
476  A108C007 V     C        17:02:28:02 17:02:37:16 00:23:49:05 00:23:58:19 
* FROM CLIP NAME:  35G-1A 
* REEL: GT_COTERIE_DAY_01_VENICE_REC709 
* SOURCE FILE: A108C007_1803061Y
477  A108C003 V     C        16:02:14:13 16:02:16:04 00:23:58:19 00:24:00:10 
* FROM CLIP NAME:  35C-1A 
* REEL: GT_COTERIE_DAY_01_VENICE_REC709 
* SOURCE FILE: A108C003_180306QQ
478  B106C017 V     C        13:43:07:10 13:43:10:11 00:24:00:10 00:24:03:11 
* FROM CLIP NAME:  35A-1B 
* REEL: GT_COTERIE_DAY_01_VENICE_REC709 
* SOURCE FILE: B106C017_211208DN
479  A107C017 V     C        13:43:10:16 13:43:12:10 00:24:03:11 00:24:05:05 
* FROM CLIP NAME:  35A-1A 
* REEL: GT_COTERIE_DAY_01_VENICE_REC709 
* SOURCE FILE: A107C017_180306DR
480  B106C017 V     C        13:43:10:23 13:43:13:03 00:24:05:05 00:24:07:09 
* FROM CLIP NAME:  35A-1B 
* REEL: GT_COTERIE_DAY_01_VENICE_REC709 
* SOURCE FILE: B106C017_211208DN
481  A107C016 V     C        13:36:53:14 13:36:56:17 00:24:07:09 00:24:10:12 
* FROM CLIP NAME:  35-1A 
* REEL: GT_COTERIE_DAY_01_VENICE_REC709 
* SOURCE FILE: A107C016_180306J9
482  B107C010 V     C        17:11:04:04 17:11:11:01 00:24:10:12 00:24:17:09 
* FROM CLIP NAME:  35G-2B 
* REEL: GT_COTERIE_DAY_01_VENICE_REC709 
* SOURCE FILE: B107C010_211208RP
483  A108C003 V     C        16:02:45:16 16:02:49:00 00:24:17:09 00:24:20:17 
* FROM CLIP NAME:  35C-1A 
* REEL: GT_COTERIE_DAY_01_VENICE_REC709 
* SOURCE FILE: A108C003_180306QQ
484  B107C010 V     C        17:11:11:04 17:11:15:11 00:24:20:17 00:24:25:00 
* FROM CLIP NAME:  35G-2B 
* REEL: GT_COTERIE_DAY_01_VENICE_REC709 
* SOURCE FILE: B107C010_211208RP
485  B107C008 V     C        16:29:50:14 16:29:54:11 00:24:25:00 00:24:28:21 
* 48FPS 
* FROM CLIP NAME:  35F-1_48FPS X2 
* REEL: GT_COTERIE_DAY_01_VENICE_REC709 
* SOURCE FILE: B107C008_2112081F_48FPS
486  PGOODTRO V     C        01:37:53:06 01:37:55:05 00:24:28:21 00:24:30:20 
* FROM CLIP NAME:  PGOODTROUBLE_E2008_TDSM_HF100006722_LENG.MOV 
* SOURCE FILE: PGOODTROUBLE_E2008_TDSM_HF100006722_LENG.MOV
487  PGOODTRO V     C        01:37:56:14 01:37:58:21 00:24:30:20 00:24:33:03 
* FROM CLIP NAME:  PGOODTROUBLE_E2008_TDSM_HF100006722_LENG.MOV 
* SOURCE FILE: PGOODTROUBLE_E2008_TDSM_HF100006722_LENG.MOV
488  PGOODTRO V     C        01:38:00:14 01:38:03:15 00:24:33:03 00:24:36:04 
* FROM CLIP NAME:  PGOODTROUBLE_E2008_TDSM_HF100006722_LENG.MOV 
* SOURCE FILE: PGOODTROUBLE_E2008_TDSM_HF100006722_LENG.MOV
489  A049C019 V     C        12:08:04:20 12:08:10:00 00:24:36:04 00:24:41:08 
* FROM CLIP NAME:  A59A-01-A 
* SOURCE FILE: A049C019_190319_C603
490  A049C025 V     C        12:58:54:09 12:58:56:09 00:24:41:08 00:24:43:08 
* FROM CLIP NAME:  A59B-01-A 
* SOURCE FILE: A049C025_190319_C603
491  B107C008 V     C        16:30:12:07 16:30:14:09 00:24:43:08 00:24:45:10 
* 48FPS 
* FROM CLIP NAME:  35F-1_48FPS X2 
* REEL: GT_COTERIE_DAY_01_VENICE_REC709 
* SOURCE FILE: B107C008_2112081F_48FPS
492  B107C005 V     C        16:23:23:12 16:23:25:05 00:24:45:10 00:24:47:03 
* FROM CLIP NAME:  35D-2B 
* REEL: GT_COTERIE_DAY_01_VENICE_REC709 
* SOURCE FILE: B107C005_21120802
493  A108C008 V     C        17:11:19:17 17:11:24:12 00:24:47:03 00:24:51:22 
* FROM CLIP NAME:  35G-2A 
* REEL: GT_COTERIE_DAY_01_VENICE_REC709 
* SOURCE FILE: A108C008_180306HL
494  B107C009 V     C        17:03:01:16 17:03:05:23 00:24:51:22 00:24:56:05 
* FROM CLIP NAME:  35G-1B 
* REEL: GT_COTERIE_DAY_01_VENICE_REC709 
* SOURCE FILE: B107C009_211208NF
495  B107C005 V     C        16:23:27:02 16:23:29:13 00:24:56:05 00:24:58:16 
* FROM CLIP NAME:  35D-2B 
* REEL: GT_COTERIE_DAY_01_VENICE_REC709 
* SOURCE FILE: B107C005_21120802
496  B107C010 V     C        17:11:31:21 17:11:34:17 00:24:58:16 00:25:01:12 
* FROM CLIP NAME:  35G-2B 
* REEL: GT_COTERIE_DAY_01_VENICE_REC709 
* SOURCE FILE: B107C010_211208RP
497  B107C004 V     C        16:20:35:19 16:20:38:00 00:25:01:12 00:25:03:17 
* FROM CLIP NAME:  35D-1B 
* REEL: GT_COTERIE_DAY_01_VENICE_REC709 
* SOURCE FILE: B107C004_211208CN
498  B107C009 V     C        17:03:10:01 17:03:11:05 00:25:03:17 00:25:04:21 
* FROM CLIP NAME:  35G-1B 
* REEL: GT_COTERIE_DAY_01_VENICE_REC709 
* SOURCE FILE: B107C009_211208NF
499  B107C012 V     C        17:37:27:16 17:37:34:22 00:25:04:21 00:25:12:03 
* FROM CLIP NAME:  35J-1B 
* REEL: GT_COTERIE_DAY_01_VENICE_REC709 
* SOURCE FILE: B107C012_211208KS
500  B107C005 V     C        16:23:46:02 16:23:50:03 00:25:12:03 00:25:16:04 
* FROM CLIP NAME:  35D-2B 
* REEL: GT_COTERIE_DAY_01_VENICE_REC709 
* SOURCE FILE: B107C005_21120802
501  A108C007 V     C        17:03:21:20 17:03:24:14 00:25:16:04 00:25:18:22 
* FROM CLIP NAME:  35G-1A 
* REEL: GT_COTERIE_DAY_01_VENICE_REC709 
* SOURCE FILE: A108C007_1803061Y
502  A108C005 V     C        16:23:51:09 16:23:53:05 00:25:18:22 00:25:20:18 
* FROM CLIP NAME:  35D-2A 
* REEL: GT_COTERIE_DAY_01_VENICE_REC709 
* SOURCE FILE: A108C005_180306OX
503  B107C012 V     C        17:38:59:14 17:39:04:14 00:25:20:18 00:25:25:18 
* FROM CLIP NAME:  35J-1B 
* REEL: GT_COTERIE_DAY_01_VENICE_REC709 
* SOURCE FILE: B107C012_211208KS
504  B107C002 V     C        15:48:27:18 15:48:29:23 00:25:25:18 00:25:27:23 
* FROM CLIP NAME:  35B-2B 
* REEL: GT_COTERIE_DAY_01_VENICE_REC709 
* SOURCE FILE: B107C002_211208H2
505  A108C008 V     C        17:16:53:07 17:16:58:11 00:25:27:23 00:25:33:03 
* FROM CLIP NAME:  35G-2A 
* REEL: GT_COTERIE_DAY_01_VENICE_REC709 
* SOURCE FILE: A108C008_180306HL
506  A108C008 V     C        17:17:45:05 17:17:47:08 00:25:33:03 00:25:35:06 
* FROM CLIP NAME:  35G-2A 
* REEL: GT_COTERIE_DAY_01_VENICE_REC709 
* SOURCE FILE: A108C008_180306HL
507  B107C010 V     C        17:17:48:08 17:17:51:11 00:25:35:06 00:25:38:09 
* FROM CLIP NAME:  35G-2B 
* REEL: GT_COTERIE_DAY_01_VENICE_REC709 
* SOURCE FILE: B107C010_211208RP
508  A108C009 V     C        17:22:53:03 17:22:57:17 00:25:38:09 00:25:42:23 
* FROM CLIP NAME:  35H-1A 
* REEL: GT_COTERIE_DAY_01_VENICE_REC709 
* SOURCE FILE: A108C009_180306FG
509  A108C002 V     C        15:51:13:21 15:51:16:19 00:25:42:23 00:25:45:21 
* FROM CLIP NAME:  35B-2A 
* REEL: GT_COTERIE_DAY_01_VENICE_REC709 
* SOURCE FILE: A108C002_180306OG
510  A108C009 V     C        17:23:03:07 17:23:05:13 00:25:45:21 00:25:48:03 
* FROM CLIP NAME:  35H-1A 
* REEL: GT_COTERIE_DAY_01_VENICE_REC709 
* SOURCE FILE: A108C009_180306FG
511  A108C003 V     C        16:08:29:23 16:08:32:10 00:25:48:03 00:25:50:14 
* FROM CLIP NAME:  35C-1A 
* REEL: GT_COTERIE_DAY_01_VENICE_REC709 
* SOURCE FILE: A108C003_180306QQ
512  A108C009 V     C        17:23:07:18 17:23:09:09 00:25:50:14 00:25:52:05 
* FROM CLIP NAME:  35H-1A 
* REEL: GT_COTERIE_DAY_01_VENICE_REC709 
* SOURCE FILE: A108C009_180306FG
513  B107C011 V     C        17:22:34:14 17:22:38:22 00:25:52:05 00:25:56:13 
* 48FPS 
* FROM CLIP NAME:  35H-1B_48FPS 
* REEL: GT_COTERIE_DAY_01_VENICE_REC709 
* SOURCE FILE: B107C011_211208LA_48FPS
514  A108C003 V     C        16:07:26:11 16:07:28:10 00:25:56:13 00:25:58:12 
* FROM CLIP NAME:  35C-1A 
* REEL: GT_COTERIE_DAY_01_VENICE_REC709 
* SOURCE FILE: A108C003_180306QQ
515  B107C003 V     C        16:08:39:14 16:08:40:20 00:25:58:12 00:25:59:18 
* FROM CLIP NAME:  35C-1B 
* REEL: GT_COTERIE_DAY_01_VENICE_REC709 
* SOURCE FILE: B107C003_211208WB
516  A108C002 V     C        15:50:28:05 15:50:32:07 00:25:59:18 00:26:03:20 
* FROM CLIP NAME:  35B-2A 
* REEL: GT_COTERIE_DAY_01_VENICE_REC709 
* SOURCE FILE: A108C002_180306OG
517  B107C001 V     C        15:43:21:06 15:43:25:18 00:26:03:20 00:26:08:08 
* FROM CLIP NAME:  35B-1B 
* REEL: GT_COTERIE_DAY_01_VENICE_REC709 
* SOURCE FILE: B107C001_211208W4
518  SIGNATUR V     C        01:00:00:00 01:00:01:00 00:26:08:08 00:26:09:08 
* FROM CLIP NAME:  RING OUT  •  (1 SEC) 
* SOURCE FILE: SIGNATURE SOURCE MOB
519  SIGNATUR V     C        01:11:37:23 01:11:38:11 00:26:09:08 00:26:09:20 
* FROM CLIP NAME:  COMMERCIAL BREAK  •  (1/2 SEC) 
* SOURCE FILE: SIGNATURE SOURCE MOB
520  A109C005 V     C        20:06:09:18 20:06:13:14 00:26:09:20 00:26:13:16 
* FROM CLIP NAME:  A36-1A 
* REEL: GT_COTERIE_NIGHT_02_LC_VENICE_R 
* SOURCE FILE: A109C005_1803068R
521  A049C012 V     C        10:33:46:16 10:33:48:12 00:26:13:16 00:26:15:12 
* FROM CLIP NAME:  C60G-01-A 
* SOURCE FILE: A049C012_190319_C603
522  A049C023 V     C        12:46:59:21 12:47:01:00 00:26:15:12 00:26:16:15 
* FROM CLIP NAME:  B60B-01-A 
* SOURCE FILE: A049C023_190319_C603
523  A109C005 V     C        20:06:14:20 20:06:17:09 00:26:16:15 00:26:19:04 
* FROM CLIP NAME:  A36-1A 
* REEL: GT_COTERIE_NIGHT_02_LC_VENICE_R 
* SOURCE FILE: A109C005_1803068R
524  A049C022 V     C        12:30:13:17 12:30:15:11 00:26:19:04 00:26:20:22 
* FROM CLIP NAME:  B60A-01-A 
* SOURCE FILE: A049C022_190319_C603
525  A049C022 V     C        12:30:02:07 12:30:04:06 00:26:20:22 00:26:22:21 
* FROM CLIP NAME:  B60A-01-A 
* SOURCE FILE: A049C022_190319_C603
526  PGOODTRO V     C        01:38:12:01 01:38:13:23 00:26:22:21 00:26:24:19 
* FROM CLIP NAME:  PGOODTROUBLE_E2008_TDSM_HF100006722_LENG.MOV.COPY.01 
* SOURCE FILE: PGOODTROUBLE_E2008_TDSM_HF100006722_LENG.MOV
527  PGOODTRO V     C        01:38:16:04 01:38:18:14 00:26:24:19 00:26:27:05 
* FROM CLIP NAME:  PGOODTROUBLE_E2008_TDSM_HF100006722_LENG.MOV.COPY.01 
* SOURCE FILE: PGOODTROUBLE_E2008_TDSM_HF100006722_LENG.MOV
528  A109C005 V     C        20:06:24:12 20:06:26:14 00:26:27:05 00:26:29:07 
* FROM CLIP NAME:  A36-1A 
* REEL: GT_COTERIE_NIGHT_02_LC_VENICE_R 
* SOURCE FILE: A109C005_1803068R
529  PGOODTRO V     C        01:39:23:23 01:39:25:08 00:26:29:07 00:26:30:16 
* FROM CLIP NAME:  PGOODTROUBLE_E1012_TDSM_HF100006348_LENG.MOV 
* REEL: LEVELS SCALING (VIDEO LEVELS TO 
* SOURCE FILE: PGOODTROUBLE_E1012_TDSM_HF100006348_LENG.MOV
530  A109C005 V     C        20:06:27:04 20:06:28:08 00:26:30:16 00:26:31:20 
* FROM CLIP NAME:  A36-1A 
* REEL: GT_COTERIE_NIGHT_02_LC_VENICE_R 
* SOURCE FILE: A109C005_1803068R
531  PGOODTRO V     C        01:37:17:22 01:37:19:05 00:26:31:20 00:26:33:03 
* FROM CLIP NAME:  PGOODTROUBLE_E2001_TDSM_HF100006715_R2_LENG 
* SOURCE FILE: PGOODTROUBLE_E2001_TDSM_HF100006715_R2_LENG
532  PGOODTRO V     C        01:37:22:05 01:37:23:12 00:26:33:03 00:26:34:10 
* FROM CLIP NAME:  PGOODTROUBLE_E2001_TDSM_HF100006715_R2_LENG 
* SOURCE FILE: PGOODTROUBLE_E2001_TDSM_HF100006715_R2_LENG
533  A109C005 V     C        20:07:58:23 20:08:00:11 00:26:34:10 00:26:35:22 
* FROM CLIP NAME:  A36-1A 
* REEL: GT_COTERIE_NIGHT_02_LC_VENICE_R 
* SOURCE FILE: A109C005_1803068R
534  PGOODTRO V     C        01:37:44:18 01:37:46:11 00:26:35:22 00:26:37:15 
* FROM CLIP NAME:  PGOODTROUBLE_E2001_TDSM_HF100006715_R2_LENG 
* SOURCE FILE: PGOODTROUBLE_E2001_TDSM_HF100006715_R2_LENG
535  A109C005 V     C        20:08:00:13 20:08:02:20 00:26:37:15 00:26:39:22 
* FROM CLIP NAME:  A36-1A 
* REEL: GT_COTERIE_NIGHT_02_LC_VENICE_R 
* SOURCE FILE: A109C005_1803068R
536  B108C001 V     C        20:04:03:21 20:04:07:02 00:26:39:22 00:26:43:03 
* FROM CLIP NAME:  A36-1PT1B 
* REEL: GT_COTERIE_NIGHT_02_LC_VENICE_R 
* SOURCE FILE: B108C001_211208DK
537  B107C013 V     C        18:38:52:05 18:38:55:00 00:26:43:03 00:26:45:22 
* FROM CLIP NAME:  36 B-ROLL-1B 
* REEL: GT_COTERIE_NIGHT_02_LC_VENICE_R 
* SOURCE FILE: B107C013_211208J9
538  B107C013 V     C        18:38:08:20 18:38:10:17 00:26:45:22 00:26:47:19 
* FROM CLIP NAME:  36 B-ROLL-1B 
* REEL: GT_COTERIE_NIGHT_02_LC_VENICE_R 
* SOURCE FILE: B107C013_211208J9
539  A109C003 V     C        19:36:08:20 19:36:12:09 00:26:47:19 00:26:51:08 
* FROM CLIP NAME:  36D-1A 
* REEL: GT_COTERIE_NIGHT_02_LC_VENICE_R 
* SOURCE FILE: A109C003_180306X0
540  A109C004 V     C        19:38:57:08 19:39:00:10 00:26:51:08 00:26:54:10 
* TAIL STIX 
* FROM CLIP NAME:  36E-1A 
* REEL: GT_COTERIE_NIGHT_02_LC_VENICE_R 
* SOURCE FILE: A109C004_18030698
541  A109C005 V     C        20:07:41:16 20:07:48:09 00:26:54:10 00:27:01:03 
* FROM CLIP NAME:  A36-1A 
* REEL: GT_COTERIE_NIGHT_02_LC_VENICE_R 
* SOURCE FILE: A109C005_1803068R
542  PGOODTRO V     C        01:14:31:03 01:14:33:20 00:27:01:03 00:27:03:20 
* FROM CLIP NAME:  PGOODTROUBLE_E3019_TDSM_HF100008150_R3_LENG.MOV 
* SOURCE FILE: PGOODTROUBLE_E3019_TDSM_HF100008150_R3_LENG.MOV
543  B107C022 V     C        19:39:20:21 19:39:22:02 00:27:03:20 00:27:05:01 
* TAIL STIX 
* FROM CLIP NAME:  36E-1B 
* REEL: GT_COTERIE_NIGHT_02_LC_VENICE_R 
* SOURCE FILE: B107C022_211208K7
544  A109C004 V     C        19:40:43:00 19:40:44:04 00:27:05:01 00:27:06:05 
* TAIL STIX 
* FROM CLIP NAME:  36E-1A 
* REEL: GT_COTERIE_NIGHT_02_LC_VENICE_R 
* SOURCE FILE: A109C004_18030698
545  A109C004 V     C        19:42:12:07 19:42:13:13 00:27:06:05 00:27:07:11 
* TAIL STIX 
* FROM CLIP NAME:  36E-1A 
* REEL: GT_COTERIE_NIGHT_02_LC_VENICE_R 
* SOURCE FILE: A109C004_18030698
546  A109C005 V     C        20:06:57:06 20:06:59:17 00:27:07:11 00:27:09:22 
* FROM CLIP NAME:  A36-1A 
* REEL: GT_COTERIE_NIGHT_02_LC_VENICE_R 
* SOURCE FILE: A109C005_1803068R
547  PGOODTRO V     C        01:39:45:02 01:39:48:03 00:27:09:22 00:27:12:23 
* FROM CLIP NAME:  PGOODTROUBLE_E3012_TDSM_HF100008143_LENG.MOV 
* SOURCE FILE: PGOODTROUBLE_E3012_TDSM_HF100008143_LENG.MOV
548  PGOODTRO V     C        01:40:53:14 01:40:55:08 00:27:12:23 00:27:14:17 
* FROM CLIP NAME:  PGOODTROUBLE_E3012_TDSM_HF100008143_LENG.MOV 
* SOURCE FILE: PGOODTROUBLE_E3012_TDSM_HF100008143_LENG.MOV
549  PGOODTRO V     C        01:40:58:08 01:40:59:17 00:27:14:17 00:27:16:02 
* FROM CLIP NAME:  PGOODTROUBLE_E3012_TDSM_HF100008143_LENG.MOV 
* SOURCE FILE: PGOODTROUBLE_E3012_TDSM_HF100008143_LENG.MOV
550  PGOODTRO V     C        01:40:59:17 01:41:00:18 00:27:16:02 00:27:17:03 
* FROM CLIP NAME:  PGOODTROUBLE_E3012_TDSM_HF100008143_LENG.MOV 
* SOURCE FILE: PGOODTROUBLE_E3012_TDSM_HF100008143_LENG.MOV
551  A109C005 V     C        20:09:08:16 20:09:14:02 00:27:17:03 00:27:22:13 
* FROM CLIP NAME:  A36-1A 
* REEL: GT_COTERIE_NIGHT_02_LC_VENICE_R 
* SOURCE FILE: A109C005_1803068R
552  B107C022 V     C        19:39:12:15 19:39:13:23 00:27:22:13 00:27:23:21 
* TAIL STIX 
* FROM CLIP NAME:  36E-1B 
* REEL: GT_COTERIE_NIGHT_02_LC_VENICE_R 
* SOURCE FILE: B107C022_211208K7
553  B107C021 V     C        19:36:12:18 19:36:14:16 00:27:23:21 00:27:25:19 
* SLATED AS 85D-1 
* FROM CLIP NAME:  36D-1B 
* REEL: GT_COTERIE_NIGHT_02_LC_VENICE_R 
* SOURCE FILE: B107C021_211208AX
554  B107C018 V     C        19:24:41:23 19:24:43:12 00:27:25:19 00:27:27:08 
* SLATED AS 35C-1 
* FROM CLIP NAME:  36C-1B 
* REEL: GT_COTERIE_NIGHT_02_LC_VENICE_R 
* SOURCE FILE: B107C018_21120800
555  A109C004 V     C        19:39:42:11 19:39:45:10 00:27:27:08 00:27:30:07 
* TAIL STIX 
* FROM CLIP NAME:  36E-1A 
* REEL: GT_COTERIE_NIGHT_02_LC_VENICE_R 
* SOURCE FILE: A109C004_18030698
556  A109C004 V     C        19:39:47:06 19:39:50:10 00:27:30:07 00:27:33:11 
* TAIL STIX 
* FROM CLIP NAME:  36E-1A 
* REEL: GT_COTERIE_NIGHT_02_LC_VENICE_R 
* SOURCE FILE: A109C004_18030698
557  A108C014 V     C        18:40:04:02 18:40:05:22 00:27:33:11 00:27:35:07 
* FROM CLIP NAME:  36-1A 
* REEL: GT_COTERIE_NIGHT_02_LC_VENICE_R 
* SOURCE FILE: A108C014_180306G6
558  B107C017 V     C        19:06:55:04 19:06:56:19 00:27:35:07 00:27:36:22 
* FROM CLIP NAME:  36B-1B 
* REEL: GT_COTERIE_NIGHT_02_LC_VENICE_R 
* SOURCE FILE: B107C017_211208RC
559  A108C014 V     C        18:40:07:06 18:40:08:17 00:27:36:22 00:27:38:09 
* FROM CLIP NAME:  36-1A 
* REEL: GT_COTERIE_NIGHT_02_LC_VENICE_R 
* SOURCE FILE: A108C014_180306G6
560  A108C017 V     C        19:06:57:09 19:06:58:20 00:27:38:09 00:27:39:20 
* FROM CLIP NAME:  36B-1A 
* REEL: GT_COTERIE_NIGHT_02_LC_VENICE_R 
* SOURCE FILE: A108C017_180306FU
561  B107C015 V     C        18:42:15:12 18:42:17:22 00:27:39:20 00:27:42:06 
* FROM CLIP NAME:  36A-1B 
* REEL: GT_COTERIE_NIGHT_02_LC_VENICE_R 
* SOURCE FILE: B107C015_2112083U
562  B107C017 V     C        19:08:26:15 19:08:27:21 00:27:42:06 00:27:43:12 
* FROM CLIP NAME:  36B-1B 
* REEL: GT_COTERIE_NIGHT_02_LC_VENICE_R 
* SOURCE FILE: B107C017_211208RC
563  A108C015 V     C        18:42:20:19 18:42:27:14 00:27:43:12 00:27:50:07 
* FROM CLIP NAME:  36A-1A 
* REEL: GT_COTERIE_NIGHT_02_LC_VENICE_R 
* SOURCE FILE: A108C015_180306CL
564  B107C017 V     C        19:09:42:10 19:09:52:01 00:27:50:07 00:27:59:22 
* FROM CLIP NAME:  36B-1B 
* REEL: GT_COTERIE_NIGHT_02_LC_VENICE_R 
* SOURCE FILE: B107C017_211208RC
565  B107C016 V     C        18:46:46:05 18:46:50:23 00:27:59:22 00:28:04:16 
* FROM CLIP NAME:  36A-2B 
* REEL: GT_COTERIE_NIGHT_02_LC_VENICE_R 
* SOURCE FILE: B107C016_2112083P
566  A106C006 V     C        16:21:16:04 16:21:17:22 00:28:04:16 00:28:06:10 
* FROM CLIP NAME:  37A-1A 
* REEL: GT_COTERIE_NIGHT_02_LC_VENICE_R 
* SOURCE FILE: A106C006_180305R8
567  B104C015 V     C        17:28:48:02 17:28:52:19 00:28:06:10 00:28:11:03 
* FROM CLIP NAME:  37E-1B 
* REEL: GT_COTERIE_NIGHT_02_LC_VENICE_R 
* SOURCE FILE: B104C015_211207XM
568  B104C009 V     C        16:21:07:03 16:21:09:02 00:28:11:03 00:28:13:02 
* FROM CLIP NAME:  37A-1B 
* REEL: GT_COTERIE_NIGHT_02_LC_VENICE_R 
* SOURCE FILE: B104C009_211207JJ
569  A106C006 V     C        16:21:37:00 16:21:38:04 00:28:13:02 00:28:14:06 
* FROM CLIP NAME:  37A-1A 
* REEL: GT_COTERIE_NIGHT_02_LC_VENICE_R 
* SOURCE FILE: A106C006_180305R8
570  B104C014 V     C        17:06:22:18 17:06:24:10 00:28:14:06 00:28:15:22 
* FROM CLIP NAME:  37D-1B 
* REEL: GT_COTERIE_NIGHT_02_LC_VENICE_R 
* SOURCE FILE: B104C014_211207JI
571  A106C005 V     C        16:10:52:12 16:10:53:05 00:28:15:22 00:28:16:15 
* FROM CLIP NAME:  37-1A 
* REEL: GT_COTERIE_NIGHT_02_LC_VENICE_R 
* SOURCE FILE: A106C005_180305I6
572  A106C008 V     C        16:53:16:12 16:53:18:06 00:28:16:15 00:28:18:09 
* FROM CLIP NAME:  37B-2A 
* REEL: GT_COTERIE_NIGHT_02_LC_VENICE_R 
* SOURCE FILE: A106C008_180305ZT
573  B104C010 V     C        16:46:14:03 16:46:16:18 00:28:18:09 00:28:21:00 
* FROM CLIP NAME:  37B-1B 
* REEL: GT_COTERIE_NIGHT_02_LC_VENICE_R 
* SOURCE FILE: B104C010_211207MV
574  B104C009 V     C        16:21:32:08 16:21:33:16 00:28:21:00 00:28:22:08 
* FROM CLIP NAME:  37A-1B 
* REEL: GT_COTERIE_NIGHT_02_LC_VENICE_R 
* SOURCE FILE: B104C009_211207JJ
575  C027C005 V     C        17:45:00:21 17:45:02:00 00:28:22:08 00:28:23:11 
* FROM CLIP NAME:  37F-1C 
* REEL: GT_COTERIE_NIGHT_02_LC_VENICE_R 
* SOURCE FILE: C027C005_211207QP
576  B104C011 V     C        16:53:29:20 16:53:30:22 00:28:23:11 00:28:24:13 
* FROM CLIP NAME:  37B-2B 
* REEL: GT_COTERIE_NIGHT_02_LC_VENICE_R 
* SOURCE FILE: B104C011_211207LE
577  C027C004 V     C        17:29:24:15 17:29:28:00 00:28:24:13 00:28:27:22 
* FROM CLIP NAME:  37E-1C 
* REEL: GT_COTERIE_NIGHT_02_LC_VENICE_R 
* SOURCE FILE: C027C004_211207F5
578  B105C001 V     C        17:45:06:13 17:45:07:14 00:28:27:22 00:28:28:23 
* FROM CLIP NAME:  37F-1B 
* REEL: GT_COTERIE_NIGHT_02_LC_VENICE_R 
* SOURCE FILE: B105C001_211207X7
579  A106C008 V     C        16:53:35:08 16:53:36:04 00:28:28:23 00:28:29:19 
* FROM CLIP NAME:  37B-2A 
* REEL: GT_COTERIE_NIGHT_02_LC_VENICE_R 
* SOURCE FILE: A106C008_180305ZT
580  C027C006 V     C        17:47:33:06 17:47:34:05 00:28:29:19 00:28:30:18 
* FROM CLIP NAME:  37G-1C 
* REEL: GT_COTERIE_NIGHT_02_LC_VENICE_R 
* SOURCE FILE: C027C006_211207XB
581  A106C007 V     C        16:46:33:02 16:46:34:09 00:28:30:18 00:28:32:01 
* FROM CLIP NAME:  37B-1A 
* REEL: GT_COTERIE_NIGHT_02_LC_VENICE_R 
* SOURCE FILE: A106C007_180305M6
582  A106C005 V     C        16:11:19:17 16:11:20:21 00:28:32:01 00:28:33:05 
* FROM CLIP NAME:  37-1A 
* REEL: GT_COTERIE_NIGHT_02_LC_VENICE_R 
* SOURCE FILE: A106C005_180305I6
583  C027C006 V     C        17:47:41:10 17:47:45:12 00:28:33:05 00:28:37:07 
* FROM CLIP NAME:  37G-1C 
* REEL: GT_COTERIE_NIGHT_02_LC_VENICE_R 
* SOURCE FILE: C027C006_211207XB
584  A106C006 V     C        16:22:11:18 16:22:15:09 00:28:37:07 00:28:40:22 
* FROM CLIP NAME:  37A-1A 
* REEL: GT_COTERIE_NIGHT_02_LC_VENICE_R 
* SOURCE FILE: A106C006_180305R8
585  B104C015 V     C        17:30:55:00 17:30:59:13 00:28:40:22 00:28:45:11 
* FROM CLIP NAME:  37E-1B 
* REEL: GT_COTERIE_NIGHT_02_LC_VENICE_R 
* SOURCE FILE: B104C015_211207XM
586  B104C009 V     C        16:22:23:13 16:22:25:12 00:28:45:11 00:28:47:10 
* FROM CLIP NAME:  37A-1B 
* REEL: GT_COTERIE_NIGHT_02_LC_VENICE_R 
* SOURCE FILE: B104C009_211207JJ
587  B104C008 V     C        16:11:37:16 16:11:39:22 00:28:47:10 00:28:49:16 
* FROM CLIP NAME:  37-1B 
* REEL: GT_COTERIE_NIGHT_02_LC_VENICE_R 
* SOURCE FILE: B104C008_211207QG
588  A106C010 V     C        17:01:45:10 17:02:03:23 00:28:49:16 00:29:08:05 
* FROM CLIP NAME:  37C-2A 
* REEL: GT_COTERIE_NIGHT_02_LC_VENICE_R 
* SOURCE FILE: A106C010_180305ZG
589  B104C009 V     C        16:23:53:05 16:23:58:16 00:29:08:05 00:29:13:16 
* FROM CLIP NAME:  37A-1B 
* REEL: GT_COTERIE_NIGHT_02_LC_VENICE_R 
* SOURCE FILE: B104C009_211207JJ
590  B104C013 V     C        17:02:07:10 17:02:10:04 00:29:13:16 00:29:16:10 
* FROM CLIP NAME:  37C-2B 
* REEL: GT_COTERIE_NIGHT_02_LC_VENICE_R 
* SOURCE FILE: B104C013_211207TR
591  A106C005 V     C        16:12:03:03 16:12:08:18 00:29:16:10 00:29:22:01 
* FROM CLIP NAME:  37-1A 
* REEL: GT_COTERIE_NIGHT_02_LC_VENICE_R 
* SOURCE FILE: A106C005_180305I6
592  B076C001 V     C        17:31:49:03 17:31:51:11 00:29:22:01 00:29:24:09 
* FROM CLIP NAME:  38-2B 
* REEL: GT_COTERIE_NIGHT_02_LC_VENICE_R 
* SOURCE FILE: B076C001_211112HW
593  A079C008 V     C        18:59:05:17 18:59:07:08 00:29:24:09 00:29:26:00 
* FROM CLIP NAME:  38E-1A 
* REEL: GT_COTERIE_NIGHT_02_LC_VENICE_R 
* SOURCE FILE: A079C008_180208XK
594  B076C003 V     C        18:00:16:16 18:00:18:10 00:29:26:00 00:29:27:18 
* FROM CLIP NAME:  38A-2B 
* REEL: GT_COTERIE_NIGHT_02_LC_VENICE_R 
* SOURCE FILE: B076C003_211112YG
595  A079C003 V     C        18:00:18:10 18:00:23:16 00:29:27:18 00:29:33:00 
* FROM CLIP NAME:  38A-2A 
* REEL: GT_COTERIE_NIGHT_02_LC_VENICE_R 
* SOURCE FILE: A079C003_1802089R
596  B076C005 V     C        18:16:37:20 18:16:39:01 00:29:33:00 00:29:34:05 
* FROM CLIP NAME:  38B-1B 
* REEL: GT_COTERIE_NIGHT_02_LC_VENICE_R 
* SOURCE FILE: B076C005_211112TX
597  A079C008 V     C        18:59:59:01 19:00:02:19 00:29:34:05 00:29:37:23 
* FROM CLIP NAME:  38E-1A 
* REEL: GT_COTERIE_NIGHT_02_LC_VENICE_R 
* SOURCE FILE: A079C008_180208XK
598  A079C003 V     C        18:01:16:04 18:01:21:23 00:29:37:23 00:29:43:18 
* FROM CLIP NAME:  38A-2A 
* REEL: GT_COTERIE_NIGHT_02_LC_VENICE_R 
* SOURCE FILE: A079C003_1802089R
599  B076C010 V     C        19:14:11:07 19:14:13:17 00:29:43:18 00:29:46:04 
* FROM CLIP NAME:  38F-1B 
* REEL: GT_COTERIE_NIGHT_02_LC_VENICE_R 
* SOURCE FILE: B076C010_211112ZX
600  B076C005 V     C        18:16:51:15 18:16:57:04 00:29:46:04 00:29:51:17 
* FROM CLIP NAME:  38B-1B 
* REEL: GT_COTERIE_NIGHT_02_LC_VENICE_R 
* SOURCE FILE: B076C005_211112TX
601  A079C010 V     C        19:26:02:08 19:26:07:01 00:29:51:17 00:29:56:10 
* FROM CLIP NAME:  38F-2A 
* REEL: GT_COTERIE_NIGHT_02_LC_VENICE_R 
* SOURCE FILE: A079C010_1802088V
602  A079C004 V     C        18:17:02:17 18:17:06:10 00:29:56:10 00:30:00:03 
* FROM CLIP NAME:  38B-1A 
* REEL: GT_COTERIE_NIGHT_02_LC_VENICE_R 
* SOURCE FILE: A079C004_180208D7
603  B076C011 V     C        19:26:12:05 19:26:19:03 00:30:00:03 00:30:07:01 
* FROM CLIP NAME:  38F-2B 
* REEL: GT_COTERIE_NIGHT_02_LC_VENICE_R 
* SOURCE FILE: B076C011_211112QE
604  A079C002 V     C        17:49:08:01 17:49:11:21 00:30:07:01 00:30:10:21 
* FROM CLIP NAME:  38A-1A 
* REEL: GT_COTERIE_NIGHT_02_LC_VENICE_R 
* SOURCE FILE: A079C002_180208D1
605  A079C011 V     C        19:33:12:01 19:33:14:15 00:30:10:21 00:30:13:11 
* FROM CLIP NAME:  38F-3PUA 
* REEL: GT_COTERIE_NIGHT_02_LC_VENICE_R 
* SOURCE FILE: A079C011_180208G6
606  A079C004 V     C        18:20:44:08 18:20:48:14 00:30:13:11 00:30:17:17 
* FROM CLIP NAME:  38B-1A 
* REEL: GT_COTERIE_NIGHT_02_LC_VENICE_R 
* SOURCE FILE: A079C004_180208D7
607  B076C012 V     C        19:33:19:13 19:33:21:08 00:30:17:17 00:30:19:12 
* FROM CLIP NAME:  38F-3PUB 
* REEL: GT_COTERIE_NIGHT_02_LC_VENICE_R 
* SOURCE FILE: B076C012_211112RD
608  B076C005 V     C        18:19:35:03 18:19:38:15 00:30:19:12 00:30:23:00 
* FROM CLIP NAME:  38B-1B 
* REEL: GT_COTERIE_NIGHT_02_LC_VENICE_R 
* SOURCE FILE: B076C005_211112TX
609  A079C011 V     C        19:33:24:06 19:33:28:20 00:30:23:00 00:30:27:14 
* FROM CLIP NAME:  38F-3PUA 
* REEL: GT_COTERIE_NIGHT_02_LC_VENICE_R 
* SOURCE FILE: A079C011_180208G6
610  A079C003 V     C        18:02:11:21 18:02:15:06 00:30:27:14 00:30:30:23 
* FROM CLIP NAME:  38A-2A 
* REEL: GT_COTERIE_NIGHT_02_LC_VENICE_R 
* SOURCE FILE: A079C003_1802089R
611  A079C010 V     C        19:26:47:04 19:26:49:22 00:30:30:23 00:30:33:17 
* FROM CLIP NAME:  38F-2A 
* REEL: GT_COTERIE_NIGHT_02_LC_VENICE_R 
* SOURCE FILE: A079C010_1802088V
612  B076C005 V     C        18:17:50:09 18:17:53:18 00:30:33:17 00:30:37:02 
* FROM CLIP NAME:  38B-1B 
* REEL: GT_COTERIE_NIGHT_02_LC_VENICE_R 
* SOURCE FILE: B076C005_211112TX
613  B076C011 V     C        19:26:56:14 19:26:58:15 00:30:37:02 00:30:39:03 
* FROM CLIP NAME:  38F-2B 
* REEL: GT_COTERIE_NIGHT_02_LC_VENICE_R 
* SOURCE FILE: B076C011_211112QE
614  A079C004 V     C        18:19:57:04 18:20:01:08 00:30:39:03 00:30:43:07 
* FROM CLIP NAME:  38B-1A 
* REEL: GT_COTERIE_NIGHT_02_LC_VENICE_R 
* SOURCE FILE: A079C004_180208D7
615  A079C009 V     C        19:15:08:16 19:15:11:02 00:30:43:07 00:30:45:17 
* FROM CLIP NAME:  38F-1A 
* REEL: GT_COTERIE_NIGHT_02_LC_VENICE_R 
* SOURCE FILE: A079C009_1802083W
616  B076C005 V     C        18:18:02:21 18:18:04:16 00:30:45:17 00:30:47:12 
* FROM CLIP NAME:  38B-1B 
* REEL: GT_COTERIE_NIGHT_02_LC_VENICE_R 
* SOURCE FILE: B076C005_211112TX
617  B076C011 V     C        19:27:04:17 19:27:07:04 00:30:47:12 00:30:49:23 
* FROM CLIP NAME:  38F-2B 
* REEL: GT_COTERIE_NIGHT_02_LC_VENICE_R 
* SOURCE FILE: B076C011_211112QE
618  A079C006 V     C        18:39:31:02 18:39:35:04 00:30:49:23 00:30:54:01 
* FROM CLIP NAME:  38C-2A 
* REEL: GT_COTERIE_NIGHT_02_LC_VENICE_R 
* SOURCE FILE: A079C006_180208U0
619  B076C008 V     C        18:46:16:22 18:46:19:01 00:30:54:01 00:30:56:04 
* FROM CLIP NAME:  38D-1B 
* REEL: GT_COTERIE_NIGHT_02_LC_VENICE_R 
* SOURCE FILE: B076C008_21111235
620  A079C004 V     C        18:21:23:21 18:21:26:08 00:30:56:04 00:30:58:15 
* FROM CLIP NAME:  38B-1A 
* REEL: GT_COTERIE_NIGHT_02_LC_VENICE_R 
* SOURCE FILE: A079C004_180208D7
621  B076C009 V     C        19:01:37:20 19:01:40:00 00:30:58:15 00:31:00:19 
* FROM CLIP NAME:  38E-1B 
* REEL: GT_COTERIE_NIGHT_02_LC_VENICE_R 
* SOURCE FILE: B076C009_211112MD
622  A079C007 V     C        18:46:22:11 18:46:24:11 00:31:00:19 00:31:02:19 
* FROM CLIP NAME:  38D-1A 
* REEL: GT_COTERIE_NIGHT_02_LC_VENICE_R 
* SOURCE FILE: A079C007_180208M1
623  A079C008 V     C        19:01:42:07 19:01:44:05 00:31:02:19 00:31:04:17 
* FROM CLIP NAME:  38E-1A 
* REEL: GT_COTERIE_NIGHT_02_LC_VENICE_R 
* SOURCE FILE: A079C008_180208XK
624  A079C012 V     C        19:39:33:05 19:39:35:04 00:31:04:17 00:31:06:16 
* FROM CLIP NAME:  38G-1A 
* REEL: GT_COTERIE_NIGHT_02_LC_VENICE_R 
* SOURCE FILE: A079C012_180208RG
625  A079C001 V     C        17:34:41:06 17:34:45:17 00:31:06:16 00:31:11:03 
* FROM CLIP NAME:  38-2A 
* REEL: GT_COTERIE_NIGHT_02_LC_VENICE_R 
* SOURCE FILE: A079C001_180208RT
626  A079C008 V     C        19:01:53:03 19:01:55:03 00:31:11:03 00:31:13:03 
* FROM CLIP NAME:  38E-1A 
* REEL: GT_COTERIE_NIGHT_02_LC_VENICE_R 
* SOURCE FILE: A079C008_180208XK
627  A079C014 V     C        19:57:37:12 19:57:39:07 00:31:13:03 00:31:14:22 
* FROM CLIP NAME:  38J-1A 
* REEL: GT_COTERIE_NIGHT_02_LC_VENICE_R 
* SOURCE FILE: A079C014_1802088S
628  A079C004 V     C        18:26:09:02 18:26:12:07 00:31:14:22 00:31:18:03 
* FROM CLIP NAME:  38B-1A 
* REEL: GT_COTERIE_NIGHT_02_LC_VENICE_R 
* SOURCE FILE: A079C004_180208D7
629  B077C002 V     C        19:57:44:06 19:57:46:09 00:31:18:03 00:31:20:06 
* FROM CLIP NAME:  38J-1B 
* REEL: GT_COTERIE_NIGHT_02_LC_VENICE_R 
* SOURCE FILE: B077C002_211112G0
630  A079C004 V     C        18:22:29:06 18:22:30:21 00:31:20:06 00:31:21:21 
* FROM CLIP NAME:  38B-1A 
* REEL: GT_COTERIE_NIGHT_02_LC_VENICE_R 
* SOURCE FILE: A079C004_180208D7
631  B076C001 V     C        17:34:58:06 17:35:05:00 00:31:21:21 00:31:28:15 
* FROM CLIP NAME:  38-2B 
* REEL: GT_COTERIE_NIGHT_02_LC_VENICE_R 
* SOURCE FILE: B076C001_211112HW
632  A079C008 V     C        19:02:12:03 19:02:14:12 00:31:28:15 00:31:31:00 
* FROM CLIP NAME:  38E-1A 
* REEL: GT_COTERIE_NIGHT_02_LC_VENICE_R 
* SOURCE FILE: A079C008_180208XK
633  A079C003 V     C        18:03:23:02 18:03:24:15 00:31:31:00 00:31:32:13 
* FROM CLIP NAME:  38A-2A 
* REEL: GT_COTERIE_NIGHT_02_LC_VENICE_R 
* SOURCE FILE: A079C003_1802089R
634  A079C014 V     C        19:55:02:14 19:55:04:04 00:31:32:13 00:31:34:03 
* FROM CLIP NAME:  38J-1A 
* REEL: GT_COTERIE_NIGHT_02_LC_VENICE_R 
* SOURCE FILE: A079C014_1802088S
635  B076C003 V     C        18:03:23:08 18:03:29:04 00:31:34:03 00:31:39:23 
* FROM CLIP NAME:  38A-2B 
* REEL: GT_COTERIE_NIGHT_02_LC_VENICE_R 
* SOURCE FILE: B076C003_211112YG
636  A079C014 V     C        19:55:11:01 19:55:14:20 00:31:39:23 00:31:43:18 
* FROM CLIP NAME:  38J-1A 
* REEL: GT_COTERIE_NIGHT_02_LC_VENICE_R 
* SOURCE FILE: A079C014_1802088S
637  A079C004 V     C        18:23:00:17 18:23:10:07 00:31:43:18 00:31:53:08 
* FROM CLIP NAME:  38B-1A 
* REEL: GT_COTERIE_NIGHT_02_LC_VENICE_R 
* SOURCE FILE: A079C004_180208D7
638  B076C009 V     C        19:04:55:20 19:04:59:20 00:31:53:08 00:31:57:08 
* FROM CLIP NAME:  38E-1B 
* REEL: GT_COTERIE_NIGHT_02_LC_VENICE_R 
* SOURCE FILE: B076C009_211112MD
639  A079C003 V     C        18:04:10:09 18:04:14:20 00:31:57:08 00:32:01:19 
* FROM CLIP NAME:  38A-2A 
* REEL: GT_COTERIE_NIGHT_02_LC_VENICE_R 
* SOURCE FILE: A079C003_1802089R
640  A079C013 V     C        19:46:08:09 19:46:16:22 00:32:01:19 00:32:10:08 
* FROM CLIP NAME:  38H-1A 
* REEL: GT_COTERIE_NIGHT_02_LC_VENICE_R 
* SOURCE FILE: A079C013_180208QA
641  A079C004 V     C        18:27:10:15 18:27:12:20 00:32:10:08 00:32:12:13 
* FROM CLIP NAME:  38B-1A 
* REEL: GT_COTERIE_NIGHT_02_LC_VENICE_R 
* SOURCE FILE: A079C004_180208D7
642  B076C013 V     C        19:40:42:09 19:40:46:00 00:32:12:13 00:32:16:04 
* FROM CLIP NAME:  38G-1B 
* REEL: GT_COTERIE_NIGHT_02_LC_VENICE_R 
* SOURCE FILE: B076C013_211112VH
643  A079C004 V     C        18:23:59:06 18:24:02:03 00:32:16:04 00:32:19:01 
* FROM CLIP NAME:  38B-1A 
* REEL: GT_COTERIE_NIGHT_02_LC_VENICE_R 
* SOURCE FILE: A079C004_180208D7
644  B076C013 V     C        19:40:49:21 19:40:52:06 00:32:19:01 00:32:21:10 
* FROM CLIP NAME:  38G-1B 
* REEL: GT_COTERIE_NIGHT_02_LC_VENICE_R 
* SOURCE FILE: B076C013_211112VH
645  A079C001 V     C        17:36:48:17 17:36:52:02 00:32:21:10 00:32:24:19 
* FROM CLIP NAME:  38-2A 
* REEL: GT_COTERIE_NIGHT_02_LC_VENICE_R 
* SOURCE FILE: A079C001_180208RT
646  B077C002 V     C        19:59:06:17 19:59:09:07 00:32:24:19 00:32:27:09 
* FROM CLIP NAME:  38J-1B 
* REEL: GT_COTERIE_NIGHT_02_LC_VENICE_R 
* SOURCE FILE: B077C002_211112G0
647  A079C004 V     C        18:27:31:08 18:27:32:22 00:32:27:09 00:32:28:23 
* FROM CLIP NAME:  38B-1A 
* REEL: GT_COTERIE_NIGHT_02_LC_VENICE_R 
* SOURCE FILE: A079C004_180208D7
648  A079C013 V     C        19:45:09:08 19:45:10:17 00:32:28:23 00:32:30:08 
* FROM CLIP NAME:  38H-1A 
* REEL: GT_COTERIE_NIGHT_02_LC_VENICE_R 
* SOURCE FILE: A079C013_180208QA
649  A079C014 V     C        19:59:10:04 19:59:15:23 00:32:30:08 00:32:36:03 
* FROM CLIP NAME:  38J-1A 
* REEL: GT_COTERIE_NIGHT_02_LC_VENICE_R 
* SOURCE FILE: A079C014_1802088S
650  A079C004 V     C        18:27:38:12 18:27:42:10 00:32:36:03 00:32:40:01 
* FROM CLIP NAME:  38B-1A 
* REEL: GT_COTERIE_NIGHT_02_LC_VENICE_R 
* SOURCE FILE: A079C004_180208D7
651  B098C037 V     C        20:35:53:20 20:35:56:12 00:32:40:01 00:32:42:17 
* FROM CLIP NAME:  39-2B 
* REEL: GT_COTERIE_NIGHT_02_LC_VENICE_R 
* SOURCE FILE: B098C037_2112033R
652  B099C002 V     C        22:02:06:09 22:02:08:08 00:32:42:17 00:32:44:16 
* FROM CLIP NAME:  39D-2B 
* REEL: GT_COTERIE_NIGHT_02_LC_VENICE_R 
* SOURCE FILE: B099C002_2112036M
653  A101C005 V     C        21:09:43:03 21:09:47:13 00:32:44:16 00:32:49:02 
* FROM CLIP NAME:  39B-1A 
* REEL: GT_COTERIE_NIGHT_02_LC_VENICE_R 
* SOURCE FILE: A101C005_180301DF
654  A101C011 V     C        22:13:50:19 22:13:52:02 00:32:49:02 00:32:50:09 
* FROM CLIP NAME:  39E-1A 
* REEL: GT_COTERIE_NIGHT_02_LC_VENICE_R 
* SOURCE FILE: A101C011_180301O9
655  A101C005 V     C        21:09:48:19 21:09:50:03 00:32:50:09 00:32:51:17 
* FROM CLIP NAME:  39B-1A 
* REEL: GT_COTERIE_NIGHT_02_LC_VENICE_R 
* SOURCE FILE: A101C005_180301DF
656  B099C003 V     C        22:13:53:12 22:13:56:00 00:32:51:17 00:32:54:05 
* FROM CLIP NAME:  39E-1B 
* REEL: GT_COTERIE_NIGHT_02_LC_VENICE_R 
* SOURCE FILE: B099C003_211203QO
657  B098C039 V     C        21:03:20:00 21:03:27:13 00:32:54:05 00:33:01:18 
* FROM CLIP NAME:  39A-2B 
* REEL: GT_COTERIE_NIGHT_02_LC_VENICE_R 
* SOURCE FILE: B098C039_2112036F
658  A101C009 V     C        22:02:24:10 22:02:29:06 00:33:01:18 00:33:06:14 
* FROM CLIP NAME:  39D-2A 
* REEL: GT_COTERIE_NIGHT_02_LC_VENICE_R 
* SOURCE FILE: A101C009_18030111
659  A101C004 V     C        21:03:31:13 21:03:36:05 00:33:06:14 00:33:11:06 
* FROM CLIP NAME:  39A-2A 
* REEL: GT_COTERIE_NIGHT_02_LC_VENICE_R 
* SOURCE FILE: A101C004_18030143
660  A101C011 V     C        22:19:03:11 22:19:11:17 00:33:11:06 00:33:19:12 
* FROM CLIP NAME:  39E-1A 
* REEL: GT_COTERIE_NIGHT_02_LC_VENICE_R 
* SOURCE FILE: A101C011_180301O9
661  A101C006 V     C        21:15:27:11 21:15:32:08 00:33:19:12 00:33:24:09 
* FROM CLIP NAME:  39C-1A 
* REEL: GT_COTERIE_NIGHT_02_LC_VENICE_R 
* SOURCE FILE: A101C006_180301MO
662  A101C011 V     C        22:17:03:08 22:17:07:19 00:33:24:09 00:33:28:20 
* FROM CLIP NAME:  39E-1A 
* REEL: GT_COTERIE_NIGHT_02_LC_VENICE_R 
* SOURCE FILE: A101C011_180301O9
663  B099C003 V     C        22:19:23:05 22:19:27:00 00:33:28:20 00:33:32:15 
* FROM CLIP NAME:  39E-1B 
* REEL: GT_COTERIE_NIGHT_02_LC_VENICE_R 
* SOURCE FILE: B099C003_211203QO
664  A101C005 V     C        21:10:29:04 21:10:31:00 00:33:32:15 00:33:34:11 
* FROM CLIP NAME:  39B-1A 
* REEL: GT_COTERIE_NIGHT_02_LC_VENICE_R 
* SOURCE FILE: A101C005_180301DF
665  A101C011 V     C        22:19:28:13 22:19:32:20 00:33:34:11 00:33:38:18 
* FROM CLIP NAME:  39E-1A 
* REEL: GT_COTERIE_NIGHT_02_LC_VENICE_R 
* SOURCE FILE: A101C011_180301O9
666  A101C006 V     C        21:19:18:18 21:19:23:08 00:33:38:18 00:33:43:08 
* FROM CLIP NAME:  39C-1A 
* REEL: GT_COTERIE_NIGHT_02_LC_VENICE_R 
* SOURCE FILE: A101C006_180301MO
667  B099C003 V     C        22:19:42:10 22:19:48:12 00:33:43:08 00:33:49:10 
* FROM CLIP NAME:  39E-1B 
* REEL: GT_COTERIE_NIGHT_02_LC_VENICE_R 
* SOURCE FILE: B099C003_211203QO
668  B098C041 V     C        21:19:30:15 21:19:32:21 00:33:49:10 00:33:51:16 
* FROM CLIP NAME:  39C-1B 
* REEL: GT_COTERIE_NIGHT_02_LC_VENICE_R 
* SOURCE FILE: B098C041_211203N8
669  B098C042 V     C        21:30:24:12 21:30:26:05 00:33:51:16 00:33:53:09 
* FROM CLIP NAME:  39C-2B 
* REEL: GT_COTERIE_NIGHT_02_LC_VENICE_R 
* SOURCE FILE: B098C042_2112036A
670  A101C011 V     C        22:19:50:03 22:19:52:01 00:33:53:09 00:33:55:07 
* FROM CLIP NAME:  39E-1A 
* REEL: GT_COTERIE_NIGHT_02_LC_VENICE_R 
* SOURCE FILE: A101C011_180301O9
671  A101C007 V     C        21:28:18:10 21:28:21:07 00:33:55:07 00:33:58:04 
* FROM CLIP NAME:  39C-2A 
* REEL: GT_COTERIE_NIGHT_02_LC_VENICE_R 
* SOURCE FILE: A101C007_180301D1
672  A101C011 V     C        22:19:56:04 22:19:59:00 00:33:58:04 00:34:01:00 
* FROM CLIP NAME:  39E-1A 
* REEL: GT_COTERIE_NIGHT_02_LC_VENICE_R 
* SOURCE FILE: A101C011_180301O9
673  B098C042 V     C        21:30:34:10 21:30:35:23 00:34:01:00 00:34:02:13 
* FROM CLIP NAME:  39C-2B 
* REEL: GT_COTERIE_NIGHT_02_LC_VENICE_R 
* SOURCE FILE: B098C042_2112036A
674  A101C007 V     C        21:30:38:19 21:30:42:11 00:34:02:13 00:34:06:05 
* FROM CLIP NAME:  39C-2A 
* REEL: GT_COTERIE_NIGHT_02_LC_VENICE_R 
* SOURCE FILE: A101C007_180301D1
675  A101C011 V     C        22:20:05:22 22:20:12:07 00:34:06:05 00:34:12:14 
* FROM CLIP NAME:  39E-1A 
* REEL: GT_COTERIE_NIGHT_02_LC_VENICE_R 
* SOURCE FILE: A101C011_180301O9
676  A101C007 V     C        21:28:36:17 21:28:38:12 00:34:12:14 00:34:14:09 
* FROM CLIP NAME:  39C-2A 
* REEL: GT_COTERIE_NIGHT_02_LC_VENICE_R 
* SOURCE FILE: A101C007_180301D1
677  B099C003 V     C        22:17:55:09 22:17:56:20 00:34:14:09 00:34:15:20 
* FROM CLIP NAME:  39E-1B 
* REEL: GT_COTERIE_NIGHT_02_LC_VENICE_R 
* SOURCE FILE: B099C003_211203QO
678  A101C007 V     C        21:30:49:20 21:30:51:07 00:34:15:20 00:34:17:07 
* FROM CLIP NAME:  39C-2A 
* REEL: GT_COTERIE_NIGHT_02_LC_VENICE_R 
* SOURCE FILE: A101C007_180301D1
679  B099C002 V     C        22:03:43:07 22:03:45:05 00:34:17:07 00:34:19:05 
* FROM CLIP NAME:  39D-2B 
* REEL: GT_COTERIE_NIGHT_02_LC_VENICE_R 
* SOURCE FILE: B099C002_2112036M
680  B098C042 V     C        21:28:41:08 21:28:44:17 00:34:19:05 00:34:22:14 
* FROM CLIP NAME:  39C-2B 
* REEL: GT_COTERIE_NIGHT_02_LC_VENICE_R 
* SOURCE FILE: B098C042_2112036A
681  B098C037 V     C        20:37:40:22 20:37:43:16 00:34:22:14 00:34:25:08 
* FROM CLIP NAME:  39-2B 
* REEL: GT_COTERIE_NIGHT_02_LC_VENICE_R 
* SOURCE FILE: B098C037_2112033R
682  SIGNATUR V     C        01:00:00:00 01:00:01:00 00:34:25:08 00:34:26:08 
* FROM CLIP NAME:  RING OUT  •  (1 SEC) 
* SOURCE FILE: SIGNATURE SOURCE MOB
683  SIGNATUR V     C        01:11:37:23 01:11:38:11 00:34:26:08 00:34:26:20 
* FROM CLIP NAME:  COMMERCIAL BREAK  •  (1/2 SEC) 
* SOURCE FILE: SIGNATURE SOURCE MOB
684  A100C005 V     C        12:04:27:23 12:04:33:02 00:34:26:20 00:34:31:23 
* FROM CLIP NAME:  40B-1A 
* REEL: GT_LEGAL_AID_DAY_01_VENICE_REC7 
* SOURCE FILE: A100C005_180301I2
685  B098C007 V     C        12:32:28:03 12:32:30:19 00:34:31:23 00:34:34:15 
* FROM CLIP NAME:  40C-2B 
* REEL: GT_LEGAL_AID_DAY_01_VENICE_REC7 
* SOURCE FILE: B098C007_211203ZX
686  B098C005 V     C        12:04:34:19 12:04:36:18 00:34:34:15 00:34:36:14 
* FROM CLIP NAME:  40B-1B 
* REEL: GT_LEGAL_AID_DAY_01_VENICE_REC7 
* SOURCE FILE: B098C005_211203F3
687  A100C005 V     C        12:04:40:08 12:04:48:15 00:34:36:14 00:34:44:21 
* FROM CLIP NAME:  40B-1A 
* REEL: GT_LEGAL_AID_DAY_01_VENICE_REC7 
* SOURCE FILE: A100C005_180301I2
688  B098C005 V     C        12:04:38:12 12:04:41:05 00:34:44:21 00:34:47:14 
* FROM CLIP NAME:  40B-1B 
* REEL: GT_LEGAL_AID_DAY_01_VENICE_REC7 
* SOURCE FILE: B098C005_211203F3
689  B098C006 V     C        12:29:21:04 12:29:24:07 00:34:47:14 00:34:50:17 
* FROM CLIP NAME:  40C-1B 
* REEL: GT_LEGAL_AID_DAY_01_VENICE_REC7 
* SOURCE FILE: B098C006_21120349
690  B098C005 V     C        12:04:57:08 12:05:00:09 00:34:50:17 00:34:53:18 
* FROM CLIP NAME:  40B-1B 
* REEL: GT_LEGAL_AID_DAY_01_VENICE_REC7 
* SOURCE FILE: B098C005_211203F3
691  A100C006 V     C        12:29:28:09 12:29:29:19 00:34:53:18 00:34:55:04 
* FROM CLIP NAME:  40C-1A 
* REEL: GT_LEGAL_AID_DAY_01_VENICE_REC7 
* SOURCE FILE: A100C006_180301DN
692  B098C002 V     C        11:48:31:17 11:48:37:15 00:34:55:04 00:35:01:02 
* FROM CLIP NAME:  40-2B 
* REEL: GT_LEGAL_AID_DAY_01_VENICE_REC7 
* SOURCE FILE: B098C002_211203KG
693  B098C007 V     C        12:36:39:14 12:36:42:12 00:35:01:02 00:35:04:00 
* FROM CLIP NAME:  40C-2B 
* REEL: GT_LEGAL_AID_DAY_01_VENICE_REC7 
* SOURCE FILE: B098C007_211203ZX
694  A100C007 V     C        12:36:44:13 12:36:47:07 00:35:04:00 00:35:06:18 
* FROM CLIP NAME:  40C-2A 
* REEL: GT_LEGAL_AID_DAY_01_VENICE_REC7 
* SOURCE FILE: A100C007_1803011H
695  B098C004 V     C        11:59:43:13 11:59:50:03 00:35:06:18 00:35:13:08 
* FROM CLIP NAME:  40A-1B 
* REEL: GT_LEGAL_AID_DAY_01_VENICE_REC7 
* SOURCE FILE: B098C004_211203WL
696  A100C007 V     C        12:35:50:13 12:35:53:07 00:35:13:08 00:35:16:02 
* FROM CLIP NAME:  40C-2A 
* REEL: GT_LEGAL_AID_DAY_01_VENICE_REC7 
* SOURCE FILE: A100C007_1803011H
697  A100C004 V     C        11:59:52:21 11:59:59:08 00:35:16:02 00:35:22:13 
* FROM CLIP NAME:  40A-1A 
* REEL: GT_LEGAL_AID_DAY_01_VENICE_REC7 
* SOURCE FILE: A100C004_180301B8
698  B098C005 V     C        12:05:24:08 12:05:27:00 00:35:22:13 00:35:25:05 
* FROM CLIP NAME:  40B-1B 
* REEL: GT_LEGAL_AID_DAY_01_VENICE_REC7 
* SOURCE FILE: B098C005_211203F3
699  B098C006 V     C        12:30:04:09 12:30:07:21 00:35:25:05 00:35:28:17 
* FROM CLIP NAME:  40C-1B 
* REEL: GT_LEGAL_AID_DAY_01_VENICE_REC7 
* SOURCE FILE: B098C006_21120349
700  C025C007 V     C        10:49:22:15 10:49:28:10 00:35:28:17 00:35:34:12 
* FROM CLIP NAME:  41C-1 X2 
* REEL: GT_LEGAL_AID_DAY_01_VENICE_REC7 
* SOURCE FILE: C025C007_211202CP
701  C025C012 V     C        11:59:16:06 11:59:19:04 00:35:34:12 00:35:37:10 
* FROM CLIP NAME:  41F-1C 
* REEL: GT_LEGAL_AID_DAY_01_VENICE_REC7 
* SOURCE FILE: C025C012_2112026F
702  C025C009 V     C        11:17:22:03 11:17:24:10 00:35:37:10 00:35:39:17 
* FROM CLIP NAME:  41D-2C 
* REEL: GT_LEGAL_AID_DAY_01_VENICE_REC7 
* SOURCE FILE: C025C009_211202UF
703  C025C005 V     C        10:32:43:14 10:32:47:03 00:35:39:17 00:35:43:06 
* FROM CLIP NAME:  41A-3C 
* REEL: GT_LEGAL_AID_DAY_01_VENICE_REC7 
* SOURCE FILE: C025C005_2112022Z
704  C025C009 V     C        11:17:28:08 11:17:29:20 00:35:43:06 00:35:44:18 
* FROM CLIP NAME:  41D-2C 
* REEL: GT_LEGAL_AID_DAY_01_VENICE_REC7 
* SOURCE FILE: C025C009_211202UF
705  C025C002 V     C        10:08:39:21 10:08:45:11 00:35:44:18 00:35:50:08 
* FROM CLIP NAME:  41-2C 
* REEL: GT_LEGAL_AID_DAY_01_VENICE_REC7 
* SOURCE FILE: C025C002_211202UI
706  C025C009 V     C        11:17:33:15 11:17:38:14 00:35:50:08 00:35:55:07 
* FROM CLIP NAME:  41D-2C 
* REEL: GT_LEGAL_AID_DAY_01_VENICE_REC7 
* SOURCE FILE: C025C009_211202UF
707  B095C011 V     C        10:28:35:07 10:28:37:15 00:35:55:07 00:35:57:15 
* FROM CLIP NAME:  41A-2B 
* REEL: GT_LEGAL_AID_DAY_01_VENICE_REC7 
* SOURCE FILE: B095C011_211202DB
708  B095C018 V     C        11:56:42:21 11:56:44:20 00:35:57:15 00:35:59:14 
* FROM CLIP NAME:  41F-1B 
* REEL: GT_LEGAL_AID_DAY_01_VENICE_REC7 
* SOURCE FILE: B095C018_211202P5
709  C025C011 V     C        11:34:13:17 11:34:21:23 00:35:59:14 00:36:07:20 
* 48FPS 
* FROM CLIP NAME:  41E-2C_48FPS X2 
* REEL: GT_LEGAL_AID_DAY_01_VENICE_REC7 
* SOURCE FILE: C025C011_211202TI_48FPS
710  A094C018 V     C        12:27:13:04 12:27:14:18 00:36:07:20 00:36:09:10 
* FROM CLIP NAME:  24-4A 
* REEL: GT_COTERIE_NIGHT_02_LC_VENICE_R 
* SOURCE FILE: A094C018_18022709
711  A094C019 V     C        12:36:50:22 12:36:52:13 00:36:09:10 00:36:11:01 
* FROM CLIP NAME:  24A-1A 
* REEL: GT_COTERIE_NIGHT_02_LC_VENICE_R 
* SOURCE FILE: A094C019_180227M6
712  B092C018 V     C        13:28:43:10 13:28:44:11 00:36:11:01 00:36:12:02 
* FROM CLIP NAME:  26-1B 
* REEL: GT_COTERIE_NIGHT_02_LC_VENICE_R 
* SOURCE FILE: B092C018_211201O0
713  B092C012 V     C        12:27:55:01 12:27:56:12 00:36:12:02 00:36:13:13 
* FROM CLIP NAME:  24-4B 
* REEL: GT_COTERIE_NIGHT_02_LC_VENICE_R 
* SOURCE FILE: B092C012_211201QI
714  C025C011 V     C        11:34:25:00 11:34:28:15 00:36:13:13 00:36:17:04 
* 48FPS 
* FROM CLIP NAME:  41E-2C_48FPS X2 
* REEL: GT_LEGAL_AID_DAY_01_VENICE_REC7 
* SOURCE FILE: C025C011_211202TI_48FPS
715  C025C005 V     C        10:33:30:09 10:33:31:17 00:36:17:04 00:36:18:12 
* FROM CLIP NAME:  41A-3C 
* REEL: GT_LEGAL_AID_DAY_01_VENICE_REC7 
* SOURCE FILE: C025C005_2112022Z
716  C025C009 V     C        11:21:03:20 11:21:06:14 00:36:18:12 00:36:21:06 
* FROM CLIP NAME:  41D-2C 
* REEL: GT_LEGAL_AID_DAY_01_VENICE_REC7 
* SOURCE FILE: C025C009_211202UF
717  C025C002 V     C        10:11:48:14 10:11:50:11 00:36:21:06 00:36:23:03 
* FROM CLIP NAME:  41-2C 
* REEL: GT_LEGAL_AID_DAY_01_VENICE_REC7 
* SOURCE FILE: C025C002_211202UI
718  B095C018 V     C        11:59:58:08 12:00:04:17 00:36:23:03 00:36:29:12 
* FROM CLIP NAME:  41F-1B 
* REEL: GT_LEGAL_AID_DAY_01_VENICE_REC7 
* SOURCE FILE: B095C018_211202P5
719  B095C015 V     C        11:21:15:07 11:21:17:12 00:36:29:12 00:36:31:17 
* FROM CLIP NAME:  41D-2B 
* REEL: GT_LEGAL_AID_DAY_01_VENICE_REC7 
* SOURCE FILE: B095C015_211202UY
720  C025C006 V     C        10:39:20:13 10:39:23:03 00:36:31:17 00:36:34:07 
* FROM CLIP NAME:  41B-1C 
* REEL: GT_LEGAL_AID_DAY_01_VENICE_REC7 
* SOURCE FILE: C025C006_211202K7
721  C025C012 V     C        12:01:58:02 12:02:01:05 00:36:34:07 00:36:37:10 
* FROM CLIP NAME:  41F-1C 
* REEL: GT_LEGAL_AID_DAY_01_VENICE_REC7 
* SOURCE FILE: C025C012_2112026F
722  B095C017 V     C        11:34:52:10 11:35:08:07 00:36:37:10 00:36:45:09 
M2   B095C017       048.0                11:34:52:10 
* 48FPS 
* FROM CLIP NAME:  41E-2B_48FPS X2 
* REEL: GT_LEGAL_AID_DAY_01_VENICE_REC7 
* SOURCE FILE: B095C017_21120214_48FPS
723  B095C018 V     C        12:02:04:10 12:02:08:09 00:36:45:09 00:36:49:08 
* FROM CLIP NAME:  41F-1B 
* REEL: GT_LEGAL_AID_DAY_01_VENICE_REC7 
* SOURCE FILE: B095C018_211202P5
724  B095C017 V     C        11:35:14:00 11:35:18:11 00:36:49:08 00:36:51:14 
M2   B095C017       048.0                11:35:14:00 
* 48FPS 
* FROM CLIP NAME:  41E-2B_48FPS X2 
* REEL: GT_LEGAL_AID_DAY_01_VENICE_REC7 
* SOURCE FILE: B095C017_21120214_48FPS
725  B095C013 V     C        10:41:26:03 10:41:28:19 00:36:51:14 00:36:54:06 
* FROM CLIP NAME:  41B-1B 
* REEL: GT_LEGAL_AID_DAY_01_VENICE_REC7 
* SOURCE FILE: B095C013_211202CG
726  B095C018 V     C        12:00:29:13 12:00:31:14 00:36:54:06 00:36:56:07 
* FROM CLIP NAME:  41F-1B 
* REEL: GT_LEGAL_AID_DAY_01_VENICE_REC7 
* SOURCE FILE: B095C018_211202P5
727  B095C017 V     C        11:35:29:02 11:35:31:15 00:36:56:07 00:36:57:14 
M2   B095C017       048.0                11:35:29:02 
* 48FPS 
* FROM CLIP NAME:  41E-2B_48FPS X2 
* REEL: GT_LEGAL_AID_DAY_01_VENICE_REC7 
* SOURCE FILE: B095C017_21120214_48FPS
728  B095C012 V     C        10:34:55:17 10:34:58:06 00:36:57:14 00:37:00:03 
* FROM CLIP NAME:  41A-3B 
* REEL: GT_LEGAL_AID_DAY_01_VENICE_REC7 
* SOURCE FILE: B095C012_211202ID
729  B095C018 V     C        11:57:41:16 11:57:45:06 00:37:00:03 00:37:03:17 
* FROM CLIP NAME:  41F-1B 
* REEL: GT_LEGAL_AID_DAY_01_VENICE_REC7 
* SOURCE FILE: B095C018_211202P5
730  C025C002 V     C        10:12:26:01 10:12:28:10 00:37:03:17 00:37:06:02 
* FROM CLIP NAME:  41-2C 
* REEL: GT_LEGAL_AID_DAY_01_VENICE_REC7 
* SOURCE FILE: C025C002_211202UI
731  C025C009 V     C        11:21:54:04 11:22:00:03 00:37:06:02 00:37:12:01 
* FROM CLIP NAME:  41D-2C 
* REEL: GT_LEGAL_AID_DAY_01_VENICE_REC7 
* SOURCE FILE: C025C009_211202UF
732  C025C005 V     C        10:35:13:05 10:35:15:07 00:37:12:01 00:37:14:03 
* FROM CLIP NAME:  41A-3C 
* REEL: GT_LEGAL_AID_DAY_01_VENICE_REC7 
* SOURCE FILE: C025C005_2112022Z
733  B095C018 V     C        12:02:35:18 12:02:37:10 00:37:14:03 00:37:15:19 
* FROM CLIP NAME:  41F-1B 
* REEL: GT_LEGAL_AID_DAY_01_VENICE_REC7 
* SOURCE FILE: B095C018_211202P5
734  B095C012 V     C        10:35:16:22 10:35:19:11 00:37:15:19 00:37:18:08 
* FROM CLIP NAME:  41A-3B 
* REEL: GT_LEGAL_AID_DAY_01_VENICE_REC7 
* SOURCE FILE: B095C012_211202ID
735  A100C035 V     C        19:42:41:00 19:42:52:13 00:37:18:08 00:37:29:21 
* FROM CLIP NAME:  42-1 X3 
* REEL: GT_COTERIE_NIGHT_02_LC_VENICE_R 
* SOURCE FILE: A100C035_1803013B
736  A105C013 V     C        10:32:38:19 10:32:49:05 00:37:29:21 00:37:40:07 
* TAIL STIX 
* FROM CLIP NAME:  43A-1A 
* REEL: GT_EXT_DAY_VENICE_REC709.CUBE 
* SOURCE FILE: A105C013_1803058E
737  A105C012 V     C        10:25:47:11 10:25:51:17 00:37:40:07 00:37:44:13 
* FROM CLIP NAME:  43-2A 
* REEL: GT_EXT_DAY_VENICE_REC709.CUBE 
* SOURCE FILE: A105C012_180305UM
738  B103C014 V     C        10:34:02:12 10:34:06:09 00:37:44:13 00:37:48:10 
* CAMERA STOPS AND STARTS 
* FROM CLIP NAME:  43A-1PT2B 
* REEL: GT_EXT_DAY_VENICE_REC709.CUBE 
* SOURCE FILE: B103C014_211207U0
739  B098C009 V     C        13:10:52:23 13:10:58:02 00:37:48:10 00:37:53:13 
* FROM CLIP NAME:  44-2B 
* REEL: GT_LEGAL_AID_DAY_01_VENICE_REC7 
* SOURCE FILE: B098C009_211203PG
740  A100C014 V     C        13:47:18:09 13:47:21:01 00:37:53:13 00:37:56:05 
* FROM CLIP NAME:  44B-2A 
* REEL: GT_LEGAL_AID_DAY_01_VENICE_REC7 
* SOURCE FILE: A100C014_1803018R
741  A100C011 V     C        13:19:08:09 13:19:09:13 00:37:56:05 00:37:57:09 
* FROM CLIP NAME:  44A-2A 
* REEL: GT_LEGAL_AID_DAY_01_VENICE_REC7 
* SOURCE FILE: A100C011_180301M4
742  A100C017 V     C        13:52:32:12 13:52:35:04 00:37:57:09 00:38:00:01 
* FROM CLIP NAME:  44D-1A 
* REEL: GT_LEGAL_AID_DAY_01_VENICE_REC7 
* SOURCE FILE: A100C017_180301JM
743  B098C011 V     C        13:19:11:00 13:19:13:04 00:38:00:01 00:38:02:05 
* FROM CLIP NAME:  44A-2B 
* REEL: GT_LEGAL_AID_DAY_01_VENICE_REC7 
* SOURCE FILE: B098C011_211203XP
744  A100C017 V     C        13:52:48:08 13:52:49:04 00:38:02:05 00:38:03:19 
M2   A100C017       012.0                13:52:48:08 
* FROM CLIP NAME:  44D-1A 
* REEL: GT_LEGAL_AID_DAY_01_VENICE_REC7 
* SOURCE FILE: A100C017_180301JM
745  B098C042 V     C        21:28:39:23 21:28:44:19 00:38:03:19 00:38:08:15 
* FROM CLIP NAME:  39C-2B 
* REEL: GT_COTERIE_NIGHT_02_LC_VENICE_R 
* SOURCE FILE: B098C042_2112036A
746  A111C013 V     C        19:33:01:01 19:33:06:22 00:38:08:15 00:38:14:12 
* FROM CLIP NAME:  22D-1A 
* REEL: GT_COTERIE_NIGHT_02_LC_VENICE_R 
* SOURCE FILE: A111C013_180307TT
747  A100C017 V     C        13:52:37:07 13:52:42:04 00:38:14:12 00:38:19:09 
* FROM CLIP NAME:  44D-1A 
* REEL: GT_LEGAL_AID_DAY_01_VENICE_REC7 
* SOURCE FILE: A100C017_180301JM
748  A100C011 V     C        13:20:56:13 13:20:58:13 00:38:19:09 00:38:21:09 
* FROM CLIP NAME:  44A-2A 
* REEL: GT_LEGAL_AID_DAY_01_VENICE_REC7 
* SOURCE FILE: A100C011_180301M4
749  B098C015 V     C        13:49:59:20 13:50:02:18 00:38:21:09 00:38:24:07 
* FROM CLIP NAME:  44C-1B 
* REEL: GT_LEGAL_AID_DAY_01_VENICE_REC7 
* SOURCE FILE: B098C015_211203IS
750  B098C011 V     C        13:21:01:15 13:21:03:21 00:38:24:07 00:38:26:13 
* FROM CLIP NAME:  44A-2B 
* REEL: GT_LEGAL_AID_DAY_01_VENICE_REC7 
* SOURCE FILE: B098C011_211203XP
751  A100C017 V     C        13:52:50:18 13:52:53:10 00:38:26:13 00:38:29:05 
* FROM CLIP NAME:  44D-1A 
* REEL: GT_LEGAL_AID_DAY_01_VENICE_REC7 
* SOURCE FILE: A100C017_180301JM
752  A100C011 V     C        13:19:32:11 13:19:38:22 00:38:29:05 00:38:35:16 
* FROM CLIP NAME:  44A-2A 
* REEL: GT_LEGAL_AID_DAY_01_VENICE_REC7 
* SOURCE FILE: A100C011_180301M4
753  A100C018 V     C        14:08:01:14 14:08:02:23 00:38:35:16 00:38:37:01 
* FROM CLIP NAME:  44E-1A 
* REEL: GT_LEGAL_AID_DAY_01_VENICE_REC7 
* SOURCE FILE: A100C018_180301GX
754  B098C012 V     C        13:23:04:12 13:23:07:10 00:38:37:01 00:38:39:23 
* FROM CLIP NAME:  44A-3PUB 
* REEL: GT_LEGAL_AID_DAY_01_VENICE_REC7 
* SOURCE FILE: B098C012_211203KT
755  B098C018 V     C        14:08:05:06 14:08:07:06 00:38:39:23 00:38:41:23 
* FROM CLIP NAME:  44E-1B 
* REEL: GT_LEGAL_AID_DAY_01_VENICE_REC7 
* SOURCE FILE: B098C018_211203V4
756  A100C012 V     C        13:23:49:20 13:23:54:00 00:38:41:23 00:38:46:03 
* FROM CLIP NAME:  44A-3PUA 
* REEL: GT_LEGAL_AID_DAY_01_VENICE_REC7 
* SOURCE FILE: A100C012_180301ID
757  A100C018 V     C        14:08:57:14 14:09:00:11 00:38:46:03 00:38:49:00 
* FROM CLIP NAME:  44E-1A 
* REEL: GT_LEGAL_AID_DAY_01_VENICE_REC7 
* SOURCE FILE: A100C018_180301GX
758  A100C009 V     C        13:11:44:01 13:11:49:20 00:38:49:00 00:38:54:19 
* FROM CLIP NAME:  44-2A 
* REEL: GT_LEGAL_AID_DAY_01_VENICE_REC7 
* SOURCE FILE: A100C009_180301IM
759  B096C005 V     C        14:30:13:20 14:30:19:05 00:38:54:19 00:39:00:04 
* FROM CLIP NAME:  45A-2B 
* REEL: GT_LEGAL_AID_DAY_01_VENICE_REC7 
* SOURCE FILE: B096C005_211202FO
760  A098C006 V     C        15:04:52:16 15:04:55:10 00:39:00:04 00:39:02:22 
* FROM CLIP NAME:  45B-1A 
* REEL: GT_LEGAL_AID_DAY_01_VENICE_REC7 
* SOURCE FILE: A098C006_180228C8
761  A098C005 V     C        14:30:20:03 14:30:22:20 00:39:02:22 00:39:05:15 
* FROM CLIP NAME:  45A-2A 
* REEL: GT_LEGAL_AID_DAY_01_VENICE_REC7 
* SOURCE FILE: A098C005_180228TB
762  A098C007 V     C        15:11:19:23 15:11:23:22 00:39:05:15 00:39:09:14 
* FROM CLIP NAME:  45C-1A 
* REEL: GT_LEGAL_AID_DAY_01_VENICE_REC7 
* SOURCE FILE: A098C007_180228OR
763  A098C005 V     C        14:35:07:08 14:35:09:18 00:39:09:14 00:39:12:00 
* FROM CLIP NAME:  45A-2A 
* REEL: GT_LEGAL_AID_DAY_01_VENICE_REC7 
* SOURCE FILE: A098C005_180228TB
764  A098C007 V     C        15:11:27:08 15:11:30:17 00:39:12:00 00:39:15:09 
* FROM CLIP NAME:  45C-1A 
* REEL: GT_LEGAL_AID_DAY_01_VENICE_REC7 
* SOURCE FILE: A098C007_180228OR
765  B096C003 V     C        13:55:30:16 13:55:33:05 00:39:15:09 00:39:17:22 
* FROM CLIP NAME:  45-2B 
* REEL: GT_LEGAL_AID_DAY_01_VENICE_REC7 
* SOURCE FILE: B096C003_211202EW
766  B096C008 V     C        15:26:08:13 15:26:11:00 00:39:17:22 00:39:20:09 
* FROM CLIP NAME:  45D-1B 
* REEL: GT_LEGAL_AID_DAY_01_VENICE_REC7 
* SOURCE FILE: B096C008_211202Q9
767  B096C005 V     C        14:30:40:05 14:30:41:20 00:39:20:09 00:39:22:00 
* FROM CLIP NAME:  45A-2B 
* REEL: GT_LEGAL_AID_DAY_01_VENICE_REC7 
* SOURCE FILE: B096C005_211202FO
768  A098C008 V     C        15:26:13:10 15:26:15:21 00:39:22:00 00:39:24:11 
* FROM CLIP NAME:  45D-1A 
* REEL: GT_LEGAL_AID_DAY_01_VENICE_REC7 
* SOURCE FILE: A098C008_180228R8
769  A098C005 V     C        14:35:22:09 14:35:24:12 00:39:24:11 00:39:26:14 
* FROM CLIP NAME:  45A-2A 
* REEL: GT_LEGAL_AID_DAY_01_VENICE_REC7 
* SOURCE FILE: A098C005_180228TB
770  A098C007 V     C        15:11:44:07 15:11:52:00 00:39:26:14 00:39:34:07 
* FROM CLIP NAME:  45C-1A 
* REEL: GT_LEGAL_AID_DAY_01_VENICE_REC7 
* SOURCE FILE: A098C007_180228OR
771  A098C004 V     C        14:22:51:04 14:22:54:02 00:39:34:07 00:39:37:05 
* FROM CLIP NAME:  45A-1A 
* REEL: GT_LEGAL_AID_DAY_01_VENICE_REC7 
* SOURCE FILE: A098C004_180228PL
772  B096C008 V     C        15:22:42:19 15:22:48:14 00:39:37:05 00:39:43:00 
* FROM CLIP NAME:  45D-1B 
* REEL: GT_LEGAL_AID_DAY_01_VENICE_REC7 
* SOURCE FILE: B096C008_211202Q9
773  A098C005 V     C        14:35:42:09 14:35:46:00 00:39:43:00 00:39:46:15 
* FROM CLIP NAME:  45A-2A 
* REEL: GT_LEGAL_AID_DAY_01_VENICE_REC7 
* SOURCE FILE: A098C005_180228TB
774  A098C008 V     C        15:22:52:03 15:22:58:01 00:39:46:15 00:39:52:13 
* FROM CLIP NAME:  45D-1A 
* REEL: GT_LEGAL_AID_DAY_01_VENICE_REC7 
* SOURCE FILE: A098C008_180228R8
775  B096C005 V     C        14:36:01:00 14:36:03:23 00:39:52:13 00:39:55:12 
* FROM CLIP NAME:  45A-2B 
* REEL: GT_LEGAL_AID_DAY_01_VENICE_REC7 
* SOURCE FILE: B096C005_211202FO
776  B096C008 V     C        15:26:44:06 15:26:46:04 00:39:55:12 00:39:57:10 
* FROM CLIP NAME:  45D-1B 
* REEL: GT_LEGAL_AID_DAY_01_VENICE_REC7 
* SOURCE FILE: B096C008_211202Q9
777  A098C005 V     C        14:36:04:13 14:36:07:12 00:39:57:10 00:40:00:09 
* FROM CLIP NAME:  45A-2A 
* REEL: GT_LEGAL_AID_DAY_01_VENICE_REC7 
* SOURCE FILE: A098C005_180228TB
778  A098C008 V     C        15:23:09:12 15:23:13:03 00:40:00:09 00:40:04:00 
* FROM CLIP NAME:  45D-1A 
* REEL: GT_LEGAL_AID_DAY_01_VENICE_REC7 
* SOURCE FILE: A098C008_180228R8
779  A098C005 V     C        14:31:26:19 14:31:39:03 00:40:04:00 00:40:16:08 
* FROM CLIP NAME:  45A-2A 
* REEL: GT_LEGAL_AID_DAY_01_VENICE_REC7 
* SOURCE FILE: A098C005_180228TB
780  A098C008 V     C        15:23:23:23 15:23:25:22 00:40:16:08 00:40:18:07 
* FROM CLIP NAME:  45D-1A 
* REEL: GT_LEGAL_AID_DAY_01_VENICE_REC7 
* SOURCE FILE: A098C008_180228R8
781  A098C003 V     C        13:56:25:00 13:56:31:14 00:40:18:07 00:40:24:21 
* FROM CLIP NAME:  45-2A 
* REEL: GT_LEGAL_AID_DAY_01_VENICE_REC7 
* SOURCE FILE: A098C003_180228WD
782  A098C005 V     C        14:37:37:08 14:37:42:12 00:40:24:21 00:40:30:01 
* FROM CLIP NAME:  45A-2A 
* REEL: GT_LEGAL_AID_DAY_01_VENICE_REC7 
* SOURCE FILE: A098C005_180228TB
783  B096C008 V     C        15:23:47:02 15:23:52:23 00:40:30:01 00:40:35:22 
* FROM CLIP NAME:  45D-1B 
* REEL: GT_LEGAL_AID_DAY_01_VENICE_REC7 
* SOURCE FILE: B096C008_211202Q9
784  B096C005 V     C        14:37:51:01 14:37:54:16 00:40:35:22 00:40:39:13 
* FROM CLIP NAME:  45A-2B 
* REEL: GT_LEGAL_AID_DAY_01_VENICE_REC7 
* SOURCE FILE: B096C005_211202FO
785  A098C005 V     C        14:37:54:16 14:38:15:22 00:40:39:13 00:41:00:19 
* FROM CLIP NAME:  45A-2A 
* REEL: GT_LEGAL_AID_DAY_01_VENICE_REC7 
* SOURCE FILE: A098C005_180228TB
786  A098C008 V     C        15:24:16:21 15:24:20:05 00:41:00:19 00:41:04:03 
* FROM CLIP NAME:  45D-1A 
* REEL: GT_LEGAL_AID_DAY_01_VENICE_REC7 
* SOURCE FILE: A098C008_180228R8
787  A098C005 V     C        14:38:22:08 14:38:23:20 00:41:04:03 00:41:05:15 
* FROM CLIP NAME:  45A-2A 
* REEL: GT_LEGAL_AID_DAY_01_VENICE_REC7 
* SOURCE FILE: A098C005_180228TB
788  B096C007 V     C        15:14:17:23 15:14:19:21 00:41:05:15 00:41:07:13 
* FROM CLIP NAME:  45C-1B 
* REEL: GT_LEGAL_AID_DAY_01_VENICE_REC7 
* SOURCE FILE: B096C007_211202XV
789  A098C007 V     C        15:14:19:21 15:14:24:23 00:41:07:13 00:41:12:15 
* FROM CLIP NAME:  45C-1A 
* REEL: GT_LEGAL_AID_DAY_01_VENICE_REC7 
* SOURCE FILE: A098C007_180228OR
790  B096C005 V     C        14:38:29:10 14:38:31:02 00:41:12:15 00:41:14:07 
* FROM CLIP NAME:  45A-2B 
* REEL: GT_LEGAL_AID_DAY_01_VENICE_REC7 
* SOURCE FILE: B096C005_211202FO
791  B096C008 V     C        15:24:32:06 15:24:34:09 00:41:14:07 00:41:16:10 
* FROM CLIP NAME:  45D-1B 
* REEL: GT_LEGAL_AID_DAY_01_VENICE_REC7 
* SOURCE FILE: B096C008_211202Q9
792  A098C005 V     C        14:38:31:02 14:38:39:13 00:41:16:10 00:41:24:21 
* FROM CLIP NAME:  45A-2A 
* REEL: GT_LEGAL_AID_DAY_01_VENICE_REC7 
* SOURCE FILE: A098C005_180228TB
793  A098C003 V     C        13:57:37:14 13:57:42:08 00:41:24:21 00:41:29:15 
* FROM CLIP NAME:  45-2A 
* REEL: GT_LEGAL_AID_DAY_01_VENICE_REC7 
* SOURCE FILE: A098C003_180228WD
794  SIGNATUR V     C        01:00:00:00 01:00:01:00 00:41:29:15 00:41:30:15 
* FROM CLIP NAME:  RING OUT  •  (1 SEC) 
* SOURCE FILE: SIGNATURE SOURCE MOB
795  SIGNATUR V     C        01:11:37:23 01:11:38:11 00:41:30:15 00:41:31:03 
* FROM CLIP NAME:  COMMERCIAL BREAK  •  (1/2 SEC) 
* SOURCE FILE: SIGNATURE SOURCE MOB
796     BL    V     C        00:00:00:00 00:00:30:00 00:41:31:03 00:42:01:03 
* SOURCE FILE: (NULL)
>>> SOURCE A019C016 A019C016_180110H 060a2b340101010501010d20-13-00-00-00-{ae168e04-3868-48fd-8094a7d036ad5b71} 
* SOURCE FILE: A019C016_180110H7_48FPS
>>> SOURCE A019C025 A019C025_180110R 060a2b340101010501010d20-13-00-00-00-{32585354-4c8e-44bc-a61eeaa42c5567c3} 
* SOURCE FILE: A019C025_180110R5_48FPS
>>> SOURCE A019C026 A019C026_1801105 060a2b340101010501010d20-13-00-00-00-{662857a4-0bd5-498f-a6d663d3e66aee37} 
* SOURCE FILE: A019C026_18011051_48FPS
>>> SOURCE A033C012 A033C012_180117H 060a2b340101010501010d20-13-00-00-00-{9b65876c-5238-4d2c-a429d0c2fc422e8f} 
* SOURCE FILE: A033C012_180117H3
>>> SOURCE A038C005 A038C005_1801192 060a2b340101010501010d20-13-00-00-00-{13c61cc4-d7aa-4e67-bc1091d52bbdc69a} 
* SOURCE FILE: A038C005_1801192M
>>> SOURCE A038C019 A038C019_1801197 060a2b340101010501010d20-13-00-00-00-{cb44adf1-e12c-4dcf-b44dfb524bb7ccb0} 
* SOURCE FILE: A038C019_1801197E
>>> SOURCE A038C031 A038C031_180119Y 060a2b340101010501010d20-13-00-00-00-{c3f331ec-885f-4779-88426dffee887712} 
* SOURCE FILE: A038C031_180119Y2
>>> SOURCE A047C015 A047C015_180123J 060a2b340101010501010d20-13-00-00-00-{9d5a5f92-e80a-46e6-9414df25076ad845} 
* SOURCE FILE: A047C015_180123JL
>>> SOURCE A047C018 A047C018_1801234 060a2b340101010501010d20-13-00-00-00-{1f22ccce-55a4-44dd-b2f644749a5ff29c} 
* SOURCE FILE: A047C018_18012344
>>> SOURCE A049C005 A049C005_1801243 060a2b340101010501010d20-13-00-00-00-{cc2c45ad-3eec-4c13-b2d055b3529a3c93} 
* SOURCE FILE: A049C005_1801243Y
>>> SOURCE A049C012 A049C012_190319_ 060a2b340101010101010f00-13-a1-00-00-{4f452c60-df57-380a-2128f79e2e4a40ba} 
* SOURCE FILE: A049C012_190319_C603
>>> SOURCE A049C019 A049C019_190319_ 060a2b340101010101010f00-13-a1-00-00-{e5fd0866-a9e0-4142-698f00f2e2e41b7c} 
* SOURCE FILE: A049C019_190319_C603
>>> SOURCE A049C022 A049C022_190319_ 060a2b340101010101010f00-13-a1-00-00-{18d6794e-031b-37e0-2038eeee4832e16a} 
* SOURCE FILE: A049C022_190319_C603
>>> SOURCE A049C023 A049C023_190319_ 060a2b340101010101010f00-13-a1-00-00-{8a37a007-2c00-5f3b-9c213280e365b867} 
* SOURCE FILE: A049C023_190319_C603
>>> SOURCE A049C025 A049C025_190319_ 060a2b340101010101010f00-13-a1-00-00-{25d40cf9-61c0-6e48-cd383b488b76a239} 
* SOURCE FILE: A049C025_190319_C603
>>> SOURCE A051C006 A051C006_180125I 060a2b340101010501010d20-13-00-00-00-{72292eb0-488b-413f-b2a9201df0517e18} 
* SOURCE FILE: A051C006_180125ID
>>> SOURCE A053C024 A053C024_180128T 060a2b340101010501010d20-13-00-00-00-{52e3c093-df86-4844-b6fb85a4567b4306} 
* SOURCE FILE: A053C024_180128TV
>>> SOURCE A063C023 A063C023_180201J 060a2b340101010501010d20-13-00-00-00-{ee3976d1-60d8-4c80-9a57552909385087} 
* SOURCE FILE: A063C023_180201J5
>>> SOURCE A079C001 A079C001_180208R 060a2b340101010501010d20-13-00-00-00-{d94ac8c3-351f-43f6-bf7e41c59be9c433} 
* SOURCE FILE: A079C001_180208RT
>>> SOURCE A079C002 A079C002_180208D 060a2b340101010501010d20-13-00-00-00-{ca9499fb-617e-49d7-830cf736ceef5756} 
* SOURCE FILE: A079C002_180208D1
>>> SOURCE A079C003 A079C003_1802089 060a2b340101010501010d20-13-00-00-00-{ca903fa5-1a39-4de9-816e20a554ec8927} 
* SOURCE FILE: A079C003_1802089R
>>> SOURCE A079C004 A079C004_180208D 060a2b340101010501010d20-13-00-00-00-{5f52327e-a38b-471a-be957ae66e4ffe10} 
* SOURCE FILE: A079C004_180208D7
>>> SOURCE A079C006 A079C006_180208U 060a2b340101010501010d20-13-00-00-00-{9b3ea0c0-7b80-49d7-8e7254d7cb814a8b} 
* SOURCE FILE: A079C006_180208U0
>>> SOURCE A079C007 A079C007_180208M 060a2b340101010501010d20-13-00-00-00-{93f87c53-9257-4ec5-91cd0f6b64a66e78} 
* SOURCE FILE: A079C007_180208M1
>>> SOURCE A079C008 A079C008_180208X 060a2b340101010501010d20-13-00-00-00-{7da0cef6-3508-40af-b5390b7e1347dab9} 
* SOURCE FILE: A079C008_180208XK
>>> SOURCE A079C009 A079C009_1802083 060a2b340101010501010d20-13-00-00-00-{ef994348-eb12-412a-9932ab7659d3456a} 
* SOURCE FILE: A079C009_1802083W
>>> SOURCE A079C010 A079C010_1802088 060a2b340101010501010d20-13-00-00-00-{af908654-ac9d-4eef-9dd59958fbb645d3} 
* SOURCE FILE: A079C010_1802088V
>>> SOURCE A079C011 A079C011_180208G 060a2b340101010501010d20-13-00-00-00-{019ef3f7-250a-4a52-8b53afec4735610b} 
* SOURCE FILE: A079C011_180208G6
>>> SOURCE A079C012 A079C012_180208R 060a2b340101010501010d20-13-00-00-00-{ac6b5d34-b612-43b6-9a3d10a1425249d7} 
* SOURCE FILE: A079C012_180208RG
>>> SOURCE A079C013 A079C013_180208Q 060a2b340101010501010d20-13-00-00-00-{08373b88-500d-4059-a04b65dd77058d3c} 
* SOURCE FILE: A079C013_180208QA
>>> SOURCE A079C014 A079C014_1802088 060a2b340101010501010d20-13-00-00-00-{6a86177e-b756-48dc-a8fff88dc324e53f} 
* SOURCE FILE: A079C014_1802088S
>>> SOURCE A094C002 A094C002_180227U 060a2b340101010501010d20-13-00-00-00-{a0c05960-124b-4cb0-834d56e1c4139c2b} 
* SOURCE FILE: A094C002_180227UC
>>> SOURCE A094C003 A094C003_1802277 060a2b340101010501010d20-13-00-00-00-{284c8898-5a4f-4101-ab812350a9456960} 
* SOURCE FILE: A094C003_1802277G
>>> SOURCE A094C004 A094C004_180227U 060a2b340101010501010d20-13-00-00-00-{53ba96ff-d9ec-425c-bfb3361f76afba43} 
* SOURCE FILE: A094C004_180227UX
>>> SOURCE A094C006 A094C006_180227A 060a2b340101010501010d20-13-00-00-00-{85892753-0c7d-431c-9051d936245ee17a} 
* SOURCE FILE: A094C006_180227A9
>>> SOURCE A094C007 A094C007_180227M 060a2b340101010501010d20-13-00-00-00-{d05520c4-3a56-4e2b-bbad51a1177dc72a} 
* SOURCE FILE: A094C007_180227MC
>>> SOURCE A094C008 A094C008_180227L 060a2b340101010501010d20-13-00-00-00-{583950ce-d58b-43cd-83ef3b1ac0dec7d1} 
* SOURCE FILE: A094C008_180227LB
>>> SOURCE A094C010 A094C010_180227G 060a2b340101010501010d20-13-00-00-00-{5751f762-6621-4033-8f1cff7005e8fa1e} 
* SOURCE FILE: A094C010_180227G5
>>> SOURCE A094C011 A094C011_180227Z 060a2b340101010501010d20-13-00-00-00-{f2123e25-16d2-4a5b-849706aa46ffb678} 
* SOURCE FILE: A094C011_180227ZH
>>> SOURCE A094C012 A094C012_180227Q 060a2b340101010501010d20-13-00-00-00-{e71fc76e-cd9e-4af7-9227a08628b378f0} 
* SOURCE FILE: A094C012_180227QN
>>> SOURCE A094C014 A094C014_180227G 060a2b340101010501010d20-13-00-00-00-{c31025eb-1378-4267-a6605ea8c51805bc} 
* SOURCE FILE: A094C014_180227GM
>>> SOURCE A094C016 A094C016_1802272 060a2b340101010501010d20-13-00-00-00-{1c35800a-e0c9-4246-b12b9545a6f35128} 
* SOURCE FILE: A094C016_1802272H
>>> SOURCE A094C017 A094C017_180227L 060a2b340101010501010d20-13-00-00-00-{3742d81b-c713-4557-a6dc6b2224da91df} 
* SOURCE FILE: A094C017_180227LQ
>>> SOURCE A094C018 A094C018_1802270 060a2b340101010501010d20-13-00-00-00-{5f4c6d43-7dc7-4003-93e486fbc917b4b0} 
* SOURCE FILE: A094C018_18022709
>>> SOURCE A094C019 A094C019_180227M 060a2b340101010501010d20-13-00-00-00-{4cb279b4-fedb-439f-a4cdce9d90177ad2} 
* SOURCE FILE: A094C019_180227M6
>>> SOURCE A094C021 A094C021_180227B 060a2b340101010501010d20-13-00-00-00-{4c233da5-c15d-4b84-bc2b7cb5ce3635c2} 
* SOURCE FILE: A094C021_180227BX
>>> SOURCE A094C022 A094C022_180227A 060a2b340101010501010d20-13-00-00-00-{17da6389-fe51-4778-ade673f7babb458a} 
* SOURCE FILE: A094C022_180227AA
>>> SOURCE A094C023 A094C023_1802279 060a2b340101010501010d20-13-00-00-00-{b49f5d1f-443a-4886-8499e8770e11211b} 
* SOURCE FILE: A094C023_1802279K
>>> SOURCE A094C024 A094C024_180227S 060a2b340101010501010d20-13-00-00-00-{1d0b44c6-01cf-429a-ac423b0fee757234} 
* SOURCE FILE: A094C024_180227SN
>>> SOURCE A095C002 A095C002_180227Q 060a2b340101010501010d20-13-00-00-00-{d6bae3cf-b0dc-4513-8c71e0fc11e7a6d1} 
* SOURCE FILE: A095C002_180227QL
>>> SOURCE A095C004 A095C004_180227O 060a2b340101010501010d20-13-00-00-00-{15b63537-e62c-4ba5-b064a5909311713a} 
* SOURCE FILE: A095C004_180227OC
>>> SOURCE A095C007 A095C007_1802279 060a2b340101010501010d20-13-00-00-00-{009f0ea2-a0f6-4ac6-ac3e647de5f5d2e7} 
* SOURCE FILE: A095C007_1802279W
>>> SOURCE A095C008 A095C008_180227H 060a2b340101010501010d20-13-00-00-00-{062755e3-2346-47d0-bab70281e5e00859} 
* SOURCE FILE: A095C008_180227HJ
>>> SOURCE A095C010 A095C010_1802277 060a2b340101010501010d20-13-00-00-00-{c85a5a86-1ff5-4d58-aa3d82b4d0c2f056} 
* SOURCE FILE: A095C010_18022772
>>> SOURCE A095C011 A095C011_1802279 060a2b340101010501010d20-13-00-00-00-{fbe2478a-9367-4624-85ee82470a4f45df} 
* SOURCE FILE: A095C011_1802279B
>>> SOURCE A095C012 A095C012_1802277 060a2b340101010501010d20-13-00-00-00-{36a22943-7c46-457b-acf5f20e55cde15f} 
* SOURCE FILE: A095C012_18022778
>>> SOURCE A095C013 A095C013_180227G 060a2b340101010501010d20-13-00-00-00-{d5f6f0da-52f8-49da-87d75075d3cad44f} 
* SOURCE FILE: A095C013_180227GH
>>> SOURCE A095C014 A095C014_180227U 060a2b340101010501010d20-13-00-00-00-{2a567c6c-44d3-48ec-9f8a0f6914529868} 
* SOURCE FILE: A095C014_180227UE
>>> SOURCE A095C015 A095C015_1802271 060a2b340101010501010d20-13-00-00-00-{84272f96-dce3-4b56-b0e42ad1d4dad051} 
* SOURCE FILE: A095C015_1802271K
>>> SOURCE A095C017 A095C017_180227H 060a2b340101010501010d20-13-00-00-00-{c3811d8a-ff32-4747-90233a363bf892fb} 
* SOURCE FILE: A095C017_180227HK
>>> SOURCE A096C002 A096C002_1802272 060a2b340101010501010d20-13-00-00-00-{1fee2f62-24b5-4c3b-9fc1f6981269dc78} 
* SOURCE FILE: A096C002_18022724
>>> SOURCE A096C003 A096C003_180227N 060a2b340101010501010d20-13-00-00-00-{eb9103a0-6f83-4f43-9b1da421effce597} 
* SOURCE FILE: A096C003_180227NX
>>> SOURCE A096C004 A096C004_180227S 060a2b340101010501010d20-13-00-00-00-{c5df58ee-4e3b-4d19-9e0d476701e8cbb1} 
* SOURCE FILE: A096C004_180227SC
>>> SOURCE A096C006 A096C006_1802278 060a2b340101010501010d20-13-00-00-00-{9380c900-92b7-49a7-bff86b0da5832ef7} 
* SOURCE FILE: A096C006_18022780
>>> SOURCE A096C007 A096C007_180227Q 060a2b340101010501010d20-13-00-00-00-{ad32c6bc-328d-4829-880a9be296735dcd} 
* SOURCE FILE: A096C007_180227QQ
>>> SOURCE A097C004 A097C004_180228T 060a2b340101010501010d20-13-00-00-00-{f15fb58c-2c50-4b15-812c89928780610d} 
* SOURCE FILE: A097C004_180228T9
>>> SOURCE A097C005 A097C005_1802280 060a2b340101010501010d20-13-00-00-00-{3696367a-1f91-4f3e-9a8d9378e1f6bb2a} 
* SOURCE FILE: A097C005_18022808
>>> SOURCE A097C007 A097C007_180228F 060a2b340101010501010d20-13-00-00-00-{676e0e8f-0ae3-42c1-aecdc8b14fa26b39} 
* SOURCE FILE: A097C007_180228FH
>>> SOURCE A097C009 A097C009_180228B 060a2b340101010501010d20-13-00-00-00-{2c43f789-ff89-40a0-a95ec645434b6f0d} 
* SOURCE FILE: A097C009_180228B8
>>> SOURCE A098C003 A098C003_180228W 060a2b340101010501010d20-13-00-00-00-{29f78e3d-8523-45e3-ac068763e9d190fd} 
* SOURCE FILE: A098C003_180228WD
>>> SOURCE A098C004 A098C004_180228P 060a2b340101010501010d20-13-00-00-00-{fc72b9c6-d152-4018-b70e42bc56b1bd46} 
* SOURCE FILE: A098C004_180228PL
>>> SOURCE A098C005 A098C005_180228T 060a2b340101010501010d20-13-00-00-00-{05e2606f-d698-49d0-b57232a2080995b1} 
* SOURCE FILE: A098C005_180228TB
>>> SOURCE A098C006 A098C006_180228C 060a2b340101010501010d20-13-00-00-00-{1518c912-323f-4c95-b5b8ac9c75c9b04f} 
* SOURCE FILE: A098C006_180228C8
>>> SOURCE A098C007 A098C007_180228O 060a2b340101010501010d20-13-00-00-00-{cbfbc331-be55-4b0c-8a50d4be054cadba} 
* SOURCE FILE: A098C007_180228OR
>>> SOURCE A098C008 A098C008_180228R 060a2b340101010501010d20-13-00-00-00-{9af0cd03-7147-4992-a578a3a7344e377b} 
* SOURCE FILE: A098C008_180228R8
>>> SOURCE A100C004 A100C004_180301B 060a2b340101010501010d20-13-00-00-00-{846c092f-eaab-408d-9180bfc52ff71d2f} 
* SOURCE FILE: A100C004_180301B8
>>> SOURCE A100C005 A100C005_180301I 060a2b340101010501010d20-13-00-00-00-{4ad8b0c3-49f7-45b5-b9cd3593a4936cba} 
* SOURCE FILE: A100C005_180301I2
>>> SOURCE A100C006 A100C006_180301D 060a2b340101010501010d20-13-00-00-00-{acdd5944-50a7-4aa6-a89702295c39f27f} 
* SOURCE FILE: A100C006_180301DN
>>> SOURCE A100C007 A100C007_1803011 060a2b340101010501010d20-13-00-00-00-{73bba600-3b0c-410e-8220a9f2a9537f44} 
* SOURCE FILE: A100C007_1803011H
>>> SOURCE A100C009 A100C009_180301I 060a2b340101010501010d20-13-00-00-00-{1de75c6d-4a95-47f6-b198b0d0c1c090b7} 
* SOURCE FILE: A100C009_180301IM
>>> SOURCE A100C011 A100C011_180301M 060a2b340101010501010d20-13-00-00-00-{afb63e0d-cf1e-4cfd-a84fb3355e3e5b6e} 
* SOURCE FILE: A100C011_180301M4
>>> SOURCE A100C012 A100C012_180301I 060a2b340101010501010d20-13-00-00-00-{8e70203a-6f18-4aed-9ced111b0b783ab0} 
* SOURCE FILE: A100C012_180301ID
>>> SOURCE A100C014 A100C014_1803018 060a2b340101010501010d20-13-00-00-00-{b983c73d-021f-4272-b46ae20c4b9ae498} 
* SOURCE FILE: A100C014_1803018R
>>> SOURCE A100C017 A100C017_180301J 060a2b340101010501010d20-13-00-00-00-{9fa36458-8a5f-4063-8ca5129c1db29af9} 
* SOURCE FILE: A100C017_180301JM
>>> SOURCE A100C018 A100C018_180301G 060a2b340101010501010d20-13-00-00-00-{270d1912-e3a5-4106-ba163c25be7f71bb} 
* SOURCE FILE: A100C018_180301GX
>>> SOURCE A100C020 A100C020_1803019 060a2b340101010501010d20-13-00-00-00-{6e565cba-f506-42b0-9eef6e09c21edd1b} 
* SOURCE FILE: A100C020_1803019Y
>>> SOURCE A100C021 A100C021_180301U 060a2b340101010501010d20-13-00-00-00-{e3d5dd31-6f1c-4659-bc880ecbe50855fb} 
* SOURCE FILE: A100C021_180301UC
>>> SOURCE A100C023 A100C023_180301V 060a2b340101010501010d20-13-00-00-00-{f4875024-1db6-49dc-896454d51c80a1bd} 
* SOURCE FILE: A100C023_180301V5
>>> SOURCE A100C024 A100C024_180301M 060a2b340101010501010d20-13-00-00-00-{f9bbb449-eb28-44b3-892c6838de8f504e} 
* SOURCE FILE: A100C024_180301M4
>>> SOURCE A100C025 A100C025_180301B 060a2b340101010501010d20-13-00-00-00-{cfb794aa-905d-40ff-ba9131992a6bceda} 
* SOURCE FILE: A100C025_180301BX
>>> SOURCE A100C026 A100C026_1803011 060a2b340101010501010d20-13-00-00-00-{eb423bb4-f3cc-406c-8318813e54e28d43} 
* SOURCE FILE: A100C026_1803011I
>>> SOURCE A100C029 A100C029_180301L 060a2b340101010501010d20-13-00-00-00-{b9653852-67fa-4f72-a6ac2266f6a20b6d} 
* SOURCE FILE: A100C029_180301LI
>>> SOURCE A100C031 A100C031_180301J 060a2b340101010501010d20-13-00-00-00-{5da99ac8-0c1d-4e54-9083497ed10f032e} 
* SOURCE FILE: A100C031_180301JB
>>> SOURCE A100C032 A100C032_180301S 060a2b340101010501010d20-13-00-00-00-{da738056-fd63-4688-a5d11fa7a371d350} 
* SOURCE FILE: A100C032_180301SX
>>> SOURCE A100C034 A100C034_180301P 060a2b340101010501010d20-13-00-00-00-{13ad0273-0f72-4abd-b1168bd0ac647a29} 
* SOURCE FILE: A100C034_180301PO
>>> SOURCE A100C035 A100C035_1803013 060a2b340101010501010d20-13-00-00-00-{d111321d-b8ed-4a77-84ab162fbbede767} 
* SOURCE FILE: A100C035_1803013B
>>> SOURCE A101C004 A101C004_1803014 060a2b340101010501010d20-13-00-00-00-{2eb636a8-1709-44eb-a934bb5f7d3d645f} 
* SOURCE FILE: A101C004_18030143
>>> SOURCE A101C005 A101C005_180301D 060a2b340101010501010d20-13-00-00-00-{a6516df9-d426-4423-98dd3be81b5a7f2e} 
* SOURCE FILE: A101C005_180301DF
>>> SOURCE A101C006 A101C006_180301M 060a2b340101010501010d20-13-00-00-00-{8ea0b098-ef37-4378-8b3c2ac1093fb4d2} 
* SOURCE FILE: A101C006_180301MO
>>> SOURCE A101C007 A101C007_180301D 060a2b340101010501010d20-13-00-00-00-{ec8c8352-b7ae-4438-a53d321da17e041f} 
* SOURCE FILE: A101C007_180301D1
>>> SOURCE A101C009 A101C009_1803011 060a2b340101010501010d20-13-00-00-00-{d2fa3e30-500b-4a6f-aa07cc5c994a6ef8} 
* SOURCE FILE: A101C009_18030111
>>> SOURCE A101C011 A101C011_180301O 060a2b340101010501010d20-13-00-00-00-{17fad631-3057-445e-a80cd1fb41603faf} 
* SOURCE FILE: A101C011_180301O9
>>> SOURCE A102C002 A102C002_1803042 060a2b340101010501010d20-13-00-00-00-{f613cab3-9df2-4f86-8d542e392509605c} 
* SOURCE FILE: A102C002_18030422
>>> SOURCE A102C003 A102C003_180304F 060a2b340101010501010d20-13-00-00-00-{690fe286-3735-48fb-bfc71151cf0bf091} 
* SOURCE FILE: A102C003_180304F4
>>> SOURCE A102C007 A102C007_180304S 060a2b340101010501010d20-13-00-00-00-{7237aad3-2a6d-4503-97cd7f1df4531038} 
* SOURCE FILE: A102C007_180304S9
>>> SOURCE A102C008 A102C008_180304F 060a2b340101010501010d20-13-00-00-00-{1cbb010a-bba9-4087-90bc80257aa83042} 
* SOURCE FILE: A102C008_180304FQ
>>> SOURCE A102C011 A102C011_180304U 060a2b340101010501010d20-13-00-00-00-{cc0f1084-9a76-4e54-95957a9ac9b29751} 
* SOURCE FILE: A102C011_180304UL
>>> SOURCE A102C013 A102C013_1803044 060a2b340101010501010d20-13-00-00-00-{72f133aa-efd7-4888-9effadbbbd5972f3} 
* SOURCE FILE: A102C013_18030449
>>> SOURCE A102C014 A102C014_1803043 060a2b340101010501010d20-13-00-00-00-{582108f2-62c1-4ddd-b8a154e7bd83d3ae} 
* SOURCE FILE: A102C014_18030436
>>> SOURCE A102C016 A102C016_180304D 060a2b340101010501010d20-13-00-00-00-{b2714c48-38d1-47ea-ad0d480c9ff06e0a} 
* SOURCE FILE: A102C016_180304DG
>>> SOURCE A102C017 A102C017_1803046 060a2b340101010501010d20-13-00-00-00-{7544cfdd-ecef-4fae-985c672c7e1eeb1b} 
* SOURCE FILE: A102C017_1803046T
>>> SOURCE A102C018 A102C018_180304U 060a2b340101010501010d20-13-00-00-00-{8e3c4271-f27b-4930-a45e8cc5d4807e9b} 
* SOURCE FILE: A102C018_180304UR
>>> SOURCE A102C019 A102C019_180304V 060a2b340101010501010d20-13-00-00-00-{fb3b4e0b-0399-4cb5-b793eae7096a8896} 
* SOURCE FILE: A102C019_180304VK
>>> SOURCE A102C020 A102C020_180304O 060a2b340101010501010d20-13-00-00-00-{7dec3cc0-f03b-4571-8bd166d380d76005} 
* SOURCE FILE: A102C020_180304OU
>>> SOURCE A103C001 A103C001_180304S 060a2b340101010501010d20-13-00-00-00-{2ff0e17d-22e9-424d-8f9b76f3cc7500b4} 
* SOURCE FILE: A103C001_180304SF
>>> SOURCE A103C002 A103C002_1803046 060a2b340101010501010d20-13-00-00-00-{2dc95b38-d859-46a9-a32db823978ee2ca} 
* SOURCE FILE: A103C002_1803046Q
>>> SOURCE A103C003 A103C003_180304Y 060a2b340101010501010d20-13-00-00-00-{e89802d2-cffc-4ca5-ba464365c6d82fb9} 
* SOURCE FILE: A103C003_180304YV
>>> SOURCE A103C004 A103C004_180304E 060a2b340101010501010d20-13-00-00-00-{da652313-127b-4a87-9120bd09b35b03bb} 
* SOURCE FILE: A103C004_180304EC
>>> SOURCE A103C005 A103C005_180304B 060a2b340101010501010d20-13-00-00-00-{236d4ec7-d006-4893-a0707e1d48216262} 
* SOURCE FILE: A103C005_180304BV
>>> SOURCE A103C006 A103C006_180304E 060a2b340101010501010d20-13-00-00-00-{d9e6b9e4-8a88-4a26-84997e6f99c373ed} 
* SOURCE FILE: A103C006_180304E0
>>> SOURCE A103C007 A103C007_1803046 060a2b340101010501010d20-13-00-00-00-{66c82fed-494a-42d5-94859989de3434ca} 
* SOURCE FILE: A103C007_1803046N
>>> SOURCE A103C009 A103C009_180304W 060a2b340101010501010d20-13-00-00-00-{cd21b6e1-53cd-43f8-92a90175ad949c47} 
* SOURCE FILE: A103C009_180304WT
>>> SOURCE A103C010 A103C010_180304U 060a2b340101010501010d20-13-00-00-00-{54af09db-af84-476c-911cb1573c0423e8} 
* SOURCE FILE: A103C010_180304UZ
>>> SOURCE A103C011 A103C011_180304Q 060a2b340101010501010d20-13-00-00-00-{e0c9a888-4791-4b59-bfe200b6b696fe12} 
* SOURCE FILE: A103C011_180304QN
>>> SOURCE A104C001 A104C001_180304P 060a2b340101010501010d20-13-00-00-00-{76fbdcfe-27bb-49a3-a7b0811f92ec1814} 
* SOURCE FILE: A104C001_180304PK
>>> SOURCE A104C002 A104C002_1803047 060a2b340101010501010d20-13-00-00-00-{9fcaec38-f2ff-41de-883fb5c409326bcb} 
* SOURCE FILE: A104C002_1803047P
>>> SOURCE A105C003 A105C003_180305C 060a2b340101010501010d20-13-00-00-00-{f3456f5c-78a3-466c-902de21694309ec4} 
* SOURCE FILE: A105C003_180305CY
>>> SOURCE A105C006 A105C006_180305V 060a2b340101010501010d20-13-00-00-00-{5a51652b-3695-4f5d-81409b1ca4727552} 
* SOURCE FILE: A105C006_180305VW
>>> SOURCE A105C007 A105C007_180305U 060a2b340101010501010d20-13-00-00-00-{8614ab7b-8dc5-4068-b6fb66454e86cd81} 
* SOURCE FILE: A105C007_180305UD
>>> SOURCE A105C008 A105C008_1803059 060a2b340101010501010d20-13-00-00-00-{a736ebdd-72e8-443f-a9f17c13017a81c3} 
* SOURCE FILE: A105C008_1803059W
>>> SOURCE A105C009 A105C009_180305S 060a2b340101010501010d20-13-00-00-00-{84ad985e-59f6-4c72-bb6ac3f16e000d10} 
* SOURCE FILE: A105C009_180305SF
>>> SOURCE A105C010 A105C010_1803056 060a2b340101010501010d20-13-00-00-00-{fd58a5ed-d0c9-473e-a8b571b8b66a1446} 
* SOURCE FILE: A105C010_1803056I
>>> SOURCE A105C012 A105C012_180305U 060a2b340101010501010d20-13-00-00-00-{c9364a80-ebde-4209-ab0703ecdc6b0e44} 
* SOURCE FILE: A105C012_180305UM
>>> SOURCE A105C013 A105C013_1803058 060a2b340101010501010d20-13-00-00-00-{9f46b72f-18f7-4657-805f0f7eaa2ae59e} 
* SOURCE FILE: A105C013_1803058E
>>> SOURCE A105C015 A105C015_180305C 060a2b340101010501010d20-13-00-00-00-{c51ad247-7e01-4ea7-8e249c74ae5193d6} 
* SOURCE FILE: A105C015_180305CG
>>> SOURCE A106C001 A106C001_1803058 060a2b340101010501010d20-13-00-00-00-{a33f50bc-610a-45c8-8795e14d9621125c} 
* SOURCE FILE: A106C001_1803058C
>>> SOURCE A106C002 A106C002_1803053 060a2b340101010501010d20-13-00-00-00-{336e973e-84a9-43d1-93446dbf8053e12a} 
* SOURCE FILE: A106C002_18030535
>>> SOURCE A106C003 A106C003_180305G 060a2b340101010501010d20-13-00-00-00-{fbf7535b-cf97-4d0f-ad3a35bcec49913c} 
* SOURCE FILE: A106C003_180305GI
>>> SOURCE A106C004 A106C004_180305H 060a2b340101010501010d20-13-00-00-00-{a8780d40-67e3-4519-93676594eb308ead} 
* SOURCE FILE: A106C004_180305HR
>>> SOURCE A106C005 A106C005_180305I 060a2b340101010501010d20-13-00-00-00-{c2088774-05eb-4af0-98202eb8e7e99496} 
* SOURCE FILE: A106C005_180305I6
>>> SOURCE A106C006 A106C006_180305R 060a2b340101010501010d20-13-00-00-00-{50d8089c-7b9f-4e32-96ca1e63e402e2c2} 
* SOURCE FILE: A106C006_180305R8
>>> SOURCE A106C007 A106C007_180305M 060a2b340101010501010d20-13-00-00-00-{8f27e8f0-c267-4ba0-8c16de4468d1b969} 
* SOURCE FILE: A106C007_180305M6
>>> SOURCE A106C008 A106C008_180305Z 060a2b340101010501010d20-13-00-00-00-{bee25160-868a-4291-97f443c84050beee} 
* SOURCE FILE: A106C008_180305ZT
>>> SOURCE A106C010 A106C010_180305Z 060a2b340101010501010d20-13-00-00-00-{0c3bb58e-a35a-4831-8e8b97db6fadd8f0} 
* SOURCE FILE: A106C010_180305ZG
>>> SOURCE A107C001 A107C001_180306D 060a2b340101010501010d20-13-00-00-00-{60200fac-b850-4c4c-aa32504b651ab3b5} 
* SOURCE FILE: A107C001_180306DD
>>> SOURCE A107C003 A107C003_180306C 060a2b340101010501010d20-13-00-00-00-{8306bb11-beb0-4e62-8f2cd98cda484f0a} 
* SOURCE FILE: A107C003_180306C4
>>> SOURCE A107C004 A107C004_180306B 060a2b340101010501010d20-13-00-00-00-{21bbe59d-f325-45bb-b480350fb875dbdf} 
* SOURCE FILE: A107C004_180306B0
>>> SOURCE A107C005 A107C005_1803065 060a2b340101010501010d20-13-00-00-00-{2fae8aca-2fc8-482b-935b13abe2c8c3c8} 
* SOURCE FILE: A107C005_1803065N
>>> SOURCE A107C006 A107C006_180306Z 060a2b340101010501010d20-13-00-00-00-{a0f9be17-2884-4711-bfcab7cd8eb50b76} 
* SOURCE FILE: A107C006_180306Z3
>>> SOURCE A107C008 A107C008_1803062 060a2b340101010501010d20-13-00-00-00-{c58d4650-08fa-46a2-8d449081b6a6b013} 
* SOURCE FILE: A107C008_1803062Z
>>> SOURCE A107C009 A107C009_180306S 060a2b340101010501010d20-13-00-00-00-{5f81dff4-ebc2-4c2b-9c3e864c04ec3b3b} 
* SOURCE FILE: A107C009_180306S5
>>> SOURCE A107C010 A107C010_1803065 060a2b340101010501010d20-13-00-00-00-{d663bbb0-835c-4635-93f38fd90f588efe} 
* SOURCE FILE: A107C010_1803065G
>>> SOURCE A107C013 A107C013_180306J 060a2b340101010501010d20-13-00-00-00-{8d6f57eb-b761-4303-a41fb0793f17ff73} 
* SOURCE FILE: A107C013_180306J1
>>> SOURCE A107C014 A107C014_180306G 060a2b340101010501010d20-13-00-00-00-{09de465c-f7b1-41c2-8db4c49a206fbfe2} 
* SOURCE FILE: A107C014_180306GM
>>> SOURCE A107C015 A107C015_1803069 060a2b340101010501010d20-13-00-00-00-{ded1c0db-a7e7-4d06-a15766e2788521a4} 
* SOURCE FILE: A107C015_18030692
>>> SOURCE A107C016 A107C016_180306J 060a2b340101010501010d20-13-00-00-00-{d624d663-f701-48e1-970419a51797a874} 
* SOURCE FILE: A107C016_180306J9
>>> SOURCE A107C017 A107C017_180306D 060a2b340101010501010d20-13-00-00-00-{a64a5cf2-33e1-49f3-9de8136614db7e6a} 
* SOURCE FILE: A107C017_180306DR
>>> SOURCE A108C002 A108C002_180306O 060a2b340101010501010d20-13-00-00-00-{ba835ced-1748-49b4-97cf7b44269d7be3} 
* SOURCE FILE: A108C002_180306OG
>>> SOURCE A108C003 A108C003_180306Q 060a2b340101010501010d20-13-00-00-00-{b67527f0-691b-4db9-b20f2e4222856746} 
* SOURCE FILE: A108C003_180306QQ
>>> SOURCE A108C005 A108C005_180306O 060a2b340101010501010d20-13-00-00-00-{55026d92-2540-491a-ae2f7cd9081d3ccd} 
* SOURCE FILE: A108C005_180306OX
>>> SOURCE A108C007 A108C007_1803061 060a2b340101010501010d20-13-00-00-00-{b3e2cf17-3f52-4362-97abe866c167a0a7} 
* SOURCE FILE: A108C007_1803061Y
>>> SOURCE A108C008 A108C008_180306H 060a2b340101010501010d20-13-00-00-00-{834a70db-0f14-42f5-9be82c77cc38a9c8} 
* SOURCE FILE: A108C008_180306HL
>>> SOURCE A108C009 A108C009_180306F 060a2b340101010501010d20-13-00-00-00-{c7824dac-0c90-499e-a07c2173a1891ecd} 
* SOURCE FILE: A108C009_180306FG
>>> SOURCE A108C010 A108C010_180306B 060a2b340101010501010d20-13-00-00-00-{b03f47d2-6ac7-4bbf-bce4f835187f0623} 
* SOURCE FILE: A108C010_180306BL
>>> SOURCE A108C014 A108C014_180306G 060a2b340101010501010d20-13-00-00-00-{f07c9edb-1b53-42c4-aafc63886c4eb70c} 
* SOURCE FILE: A108C014_180306G6
>>> SOURCE A108C015 A108C015_180306C 060a2b340101010501010d20-13-00-00-00-{0f26de57-9b6d-4cff-b3603432a3e21548} 
* SOURCE FILE: A108C015_180306CL
>>> SOURCE A108C017 A108C017_180306F 060a2b340101010501010d20-13-00-00-00-{aed4aa6d-c5a2-4d85-b1a5ad87c07b46b8} 
* SOURCE FILE: A108C017_180306FU
>>> SOURCE A109C003 A109C003_180306X 060a2b340101010501010d20-13-00-00-00-{4846df67-4d36-4e27-9ab73f0ff86309e4} 
* SOURCE FILE: A109C003_180306X0
>>> SOURCE A109C004 A109C004_1803069 060a2b340101010501010d20-13-00-00-00-{a7be9b23-1dc7-45af-9cae357aecfddd38} 
* SOURCE FILE: A109C004_18030698
>>> SOURCE A109C005 A109C005_1803068 060a2b340101010501010d20-13-00-00-00-{b7c33866-f3e8-45d6-9f48c309b884b49c} 
* SOURCE FILE: A109C005_1803068R
>>> SOURCE A110C002 A110C002_180307N 060a2b340101010501010d20-13-00-00-00-{ac7d6222-b74c-471b-b1ff7373f217c650} 
* SOURCE FILE: A110C002_180307NA
>>> SOURCE A110C005 A110C005_180307P 060a2b340101010501010d20-13-00-00-00-{c3736622-cea9-46ff-9ac9e1cfdc5db8c9} 
* SOURCE FILE: A110C005_180307PG
>>> SOURCE A110C006 A110C006_180307X 060a2b340101010501010d20-13-00-00-00-{6c6706db-3fed-4c1e-ba0a17a4dafdfb7b} 
* SOURCE FILE: A110C006_180307X0
>>> SOURCE A110C008 A110C008_180307M 060a2b340101010501010d20-13-00-00-00-{f64a4c76-7ff5-4d2a-b6e54b3ce96852de} 
* SOURCE FILE: A110C008_180307MR
>>> SOURCE A110C009 A110C009_180307Q 060a2b340101010501010d20-13-00-00-00-{c7a89242-4ff6-44ae-9560f39fa15011f7} 
* SOURCE FILE: A110C009_180307QS
>>> SOURCE A110C010 A110C010_1803070 060a2b340101010501010d20-13-00-00-00-{b70ee899-07b0-45ea-a336aaa403faf6a6} 
* SOURCE FILE: A110C010_1803070L
>>> SOURCE A110C011 A110C011_180307R 060a2b340101010501010d20-13-00-00-00-{d29336f3-bdda-43f4-8d20657c86b22a67} 
* SOURCE FILE: A110C011_180307RH
>>> SOURCE A110C012 A110C012_180307W 060a2b340101010501010d20-13-00-00-00-{d8670acb-2fbf-4384-b31142f1cdd0e1dc} 
* SOURCE FILE: A110C012_180307W8
>>> SOURCE A111C008 A111C008_1803072 060a2b340101010501010d20-13-00-00-00-{b626d4d3-f199-46a4-9ed08ee984a94f8d} 
* SOURCE FILE: A111C008_1803072Y
>>> SOURCE A111C009 A111C009_1803072 060a2b340101010501010d20-13-00-00-00-{ff82c590-b63c-4de9-918ebaf1f83f5a0f} 
* SOURCE FILE: A111C009_18030721
>>> SOURCE A111C010 A111C010_180307B 060a2b340101010501010d20-13-00-00-00-{4a575210-14a1-4b45-a8ca58882a741dae} 
* SOURCE FILE: A111C010_180307BK
>>> SOURCE A111C013 A111C013_180307T 060a2b340101010501010d20-13-00-00-00-{2e7f9a58-b4d1-4904-872b2588b8e0183f} 
* SOURCE FILE: A111C013_180307TT
>>> SOURCE BLACK.NE BLACK.NEW.08 060a2b340101010101010f00-13-00-00-00-{5dc61109-2a6e-00b0-060e2b347f7f2a80} 
* SOURCE FILE: BLACK.NEW.08
>>> SOURCE B019C013 B019C013_2110148 060a2b340101010501010d20-13-00-00-00-{1d4eb383-0157-4933-86ec5cd957ef7e01} 
* SOURCE FILE: B019C013_2110148C
>>> SOURCE B037C006 B037C006_2110231 060a2b340101010501010d20-13-00-00-00-{294ad8a5-8442-42b0-ae10a97ea9967ee8} 
* SOURCE FILE: B037C006_2110231W
>>> SOURCE B049C006 B049C006_211029E 060a2b340101010501010d20-13-00-00-00-{07101386-8a66-4f07-815d0dcc8eb8bd59} 
* SOURCE FILE: B049C006_211029EM
>>> SOURCE B063C015 B063C015_2111055 060a2b340101010501010d20-13-00-00-00-{6dad6ab5-8794-4049-ac7578af6a56bd99} 
* SOURCE FILE: B063C015_21110550
>>> SOURCE B076C001 B076C001_211112H 060a2b340101010501010d20-13-00-00-00-{2fb90c92-f6cd-445b-b70aea72e71b0a44} 
* SOURCE FILE: B076C001_211112HW
>>> SOURCE B076C003 B076C003_211112Y 060a2b340101010501010d20-13-00-00-00-{2e3952e7-057b-4db4-bdcca0f805003a20} 
* SOURCE FILE: B076C003_211112YG
>>> SOURCE B076C005 B076C005_211112T 060a2b340101010501010d20-13-00-00-00-{546a2cc7-21da-4b93-8a5d8b2cc8425f6a} 
* SOURCE FILE: B076C005_211112TX
>>> SOURCE B076C008 B076C008_2111123 060a2b340101010501010d20-13-00-00-00-{40b57352-fbbb-4763-883eed605f8c428f} 
* SOURCE FILE: B076C008_21111235
>>> SOURCE B076C009 B076C009_211112M 060a2b340101010501010d20-13-00-00-00-{c65c0baa-4d97-4cc2-a53ba0245a25d1db} 
* SOURCE FILE: B076C009_211112MD
>>> SOURCE B076C010 B076C010_211112Z 060a2b340101010501010d20-13-00-00-00-{3d94f830-3b5d-41a0-9496a4b02403ab5d} 
* SOURCE FILE: B076C010_211112ZX
>>> SOURCE B076C011 B076C011_211112Q 060a2b340101010501010d20-13-00-00-00-{02ebcee2-3251-47e1-8d348f6a296799b0} 
* SOURCE FILE: B076C011_211112QE
>>> SOURCE B076C012 B076C012_211112R 060a2b340101010501010d20-13-00-00-00-{bba11c9a-1558-4501-932b9017c344431b} 
* SOURCE FILE: B076C012_211112RD
>>> SOURCE B076C013 B076C013_211112V 060a2b340101010501010d20-13-00-00-00-{b371f299-26fc-41fb-8acb2fa09aa090ca} 
* SOURCE FILE: B076C013_211112VH
>>> SOURCE B077C002 B077C002_211112G 060a2b340101010501010d20-13-00-00-00-{94b257d3-7e2c-46a5-a4043ecb86409fdd} 
* SOURCE FILE: B077C002_211112G0
>>> SOURCE B092C002 B092C002_211201A 060a2b340101010501010d20-13-00-00-00-{1e9e0bb2-6104-4572-a3984dc43e0ca183} 
* SOURCE FILE: B092C002_211201AZ
>>> SOURCE B092C003 B092C003_211201N 060a2b340101010501010d20-13-00-00-00-{71121ec9-7f5d-473f-a8a1a6a8f08a2b3a} 
* SOURCE FILE: B092C003_211201NV
>>> SOURCE B092C004 B092C004_211201B 060a2b340101010501010d20-13-00-00-00-{5c6bb068-1997-4ca6-a29f4dee6c23b013} 
* SOURCE FILE: B092C004_211201B5
>>> SOURCE B092C005 B092C005_211201V 060a2b340101010501010d20-13-00-00-00-{46d48968-1c4c-4083-aa1334c723dafe30} 
* SOURCE FILE: B092C005_211201VH
>>> SOURCE B092C006 B092C006_211201P 060a2b340101010501010d20-13-00-00-00-{c6186445-c0d7-45ed-95b992323ca1b430} 
* SOURCE FILE: B092C006_211201PY
>>> SOURCE B092C008 B092C008_211201P 060a2b340101010501010d20-13-00-00-00-{f86324f4-904b-4d20-a73473a0a05a02f7} 
* SOURCE FILE: B092C008_211201PC
>>> SOURCE B092C012 B092C012_211201Q 060a2b340101010501010d20-13-00-00-00-{f8a0b400-59cd-4680-a2147c82df592be0} 
* SOURCE FILE: B092C012_211201QI
>>> SOURCE B092C013 B092C013_211201D 060a2b340101010501010d20-13-00-00-00-{ab53082e-35ee-465b-86e3a89af126b004} 
* SOURCE FILE: B092C013_211201DV
>>> SOURCE B092C014 B092C014_211201M 060a2b340101010501010d20-13-00-00-00-{8c47017e-1c3c-4d62-917f4831d179d1ab} 
* SOURCE FILE: B092C014_211201MO
>>> SOURCE B092C017 B092C017_2112012 060a2b340101010501010d20-13-00-00-00-{701c918b-c630-4512-b0be473cf49167e6} 
* SOURCE FILE: B092C017_21120129
>>> SOURCE B092C018 B092C018_211201O 060a2b340101010501010d20-13-00-00-00-{c20b0577-c028-44cd-a26eef781c4aace7} 
* SOURCE FILE: B092C018_211201O0
>>> SOURCE B093C002 B093C002_211201Z 060a2b340101010501010d20-13-00-00-00-{f7b258f1-b7df-47be-a13e996fef4d23c9} 
* SOURCE FILE: B093C002_211201Z4
>>> SOURCE B093C003 B093C003_2112013 060a2b340101010501010d20-13-00-00-00-{d684880f-ba54-4afb-ae774781937594ec} 
* SOURCE FILE: B093C003_2112013B
>>> SOURCE B093C005 B093C005_211201O 060a2b340101010501010d20-13-00-00-00-{b8b8ae45-9cce-43e6-a9325d87eb9fe04a} 
* SOURCE FILE: B093C005_211201OV
>>> SOURCE B093C006 B093C006_211201V 060a2b340101010501010d20-13-00-00-00-{37407c74-0194-4038-b2d923e09d2e7e2d} 
* SOURCE FILE: B093C006_211201VF
>>> SOURCE B093C007 B093C007_211201Z 060a2b340101010501010d20-13-00-00-00-{383b4f54-a542-4dc0-ac03ddcaecb0a850} 
* SOURCE FILE: B093C007_211201ZD
>>> SOURCE B093C008 B093C008_211201C 060a2b340101010501010d20-13-00-00-00-{f578dc82-3b33-4722-8e9c9f12fcda86a7} 
* SOURCE FILE: B093C008_211201CR
>>> SOURCE B093C009 B093C009_211201Q 060a2b340101010501010d20-13-00-00-00-{f94a9f7e-52e7-4a84-88749dbafd68063e} 
* SOURCE FILE: B093C009_211201QE
>>> SOURCE B093C011 B093C011_211201U 060a2b340101010501010d20-13-00-00-00-{4a71e512-f330-41b8-973f743d35ac3fb2} 
* SOURCE FILE: B093C011_211201U8
>>> SOURCE B093C012 B093C012_211201X 060a2b340101010501010d20-13-00-00-00-{cbd5e1a4-72f0-4545-bce913a3f9be6bef} 
* SOURCE FILE: B093C012_211201X8
>>> SOURCE B093C013 B093C013_211201U 060a2b340101010501010d20-13-00-00-00-{1708541b-c8b8-418c-a5b3bf05a8f1b7d9} 
* SOURCE FILE: B093C013_211201U0
>>> SOURCE B094C003 B094C003_211201Q 060a2b340101010501010d20-13-00-00-00-{aa4bcbde-217e-419d-9a940fc12bff8000} 
* SOURCE FILE: B094C003_211201Q9
>>> SOURCE B094C005 B094C005_211201J 060a2b340101010501010d20-13-00-00-00-{7216ebd6-6b5d-4c39-98bfd855b25e253d} 
* SOURCE FILE: B094C005_211201JB
>>> SOURCE B094C007 B094C007_211201F 060a2b340101010501010d20-13-00-00-00-{8f26ffad-e873-485c-af0f68071cdfe9a3} 
* SOURCE FILE: B094C007_211201FN
>>> SOURCE B095C004 B095C004_211202M 060a2b340101010501010d20-13-00-00-00-{99b2ef8f-c4dc-453f-a861842136efda33} 
* SOURCE FILE: B095C004_211202MJ
>>> SOURCE B095C007 B095C007_211202Q 060a2b340101010501010d20-13-00-00-00-{5023ff63-5d3e-4090-b4a261992d2eb817} 
* SOURCE FILE: B095C007_211202QW
>>> SOURCE B095C011 B095C011_211202D 060a2b340101010501010d20-13-00-00-00-{d77c972a-b322-49c8-8d5931b9dd5e5a75} 
* SOURCE FILE: B095C011_211202DB
>>> SOURCE B095C012 B095C012_211202I 060a2b340101010501010d20-13-00-00-00-{c9cc4b0c-ebb5-4110-a237e78a4858dc3c} 
* SOURCE FILE: B095C012_211202ID
>>> SOURCE B095C013 B095C013_211202C 060a2b340101010501010d20-13-00-00-00-{801f3107-04ae-4cf2-868242da0e4bcfa4} 
* SOURCE FILE: B095C013_211202CG
>>> SOURCE B095C015 B095C015_211202U 060a2b340101010501010d20-13-00-00-00-{03b5b813-6177-49d3-b295acab9f4a2591} 
* SOURCE FILE: B095C015_211202UY
>>> SOURCE B095C017 B095C017_2112021 060a2b340101010501010d20-13-00-00-00-{d4b9f5af-3d43-4451-9cb8c6f34917af2a} 
* SOURCE FILE: B095C017_21120214_48FPS
>>> SOURCE B095C018 B095C018_211202P 060a2b340101010501010d20-13-00-00-00-{9e2a2f59-7553-4a7d-8265c8f20280c023} 
* SOURCE FILE: B095C018_211202P5
>>> SOURCE B096C003 B096C003_211202E 060a2b340101010501010d20-13-00-00-00-{b33e19cb-193c-4246-af243ffd69f4ffc4} 
* SOURCE FILE: B096C003_211202EW
>>> SOURCE B096C005 B096C005_211202F 060a2b340101010501010d20-13-00-00-00-{0ae333e9-7968-448c-ae8c2b6a66b4dda6} 
* SOURCE FILE: B096C005_211202FO
>>> SOURCE B096C007 B096C007_211202X 060a2b340101010501010d20-13-00-00-00-{a99747ec-b316-4245-983e6a2d90287d75} 
* SOURCE FILE: B096C007_211202XV
>>> SOURCE B096C008 B096C008_211202Q 060a2b340101010501010d20-13-00-00-00-{1041d26e-97bd-4f34-82149e2ab07a0305} 
* SOURCE FILE: B096C008_211202Q9
>>> SOURCE B098C002 B098C002_211203K 060a2b340101010501010d20-13-00-00-00-{047d6359-5780-4f69-93b53362b12756b4} 
* SOURCE FILE: B098C002_211203KG
>>> SOURCE B098C004 B098C004_211203W 060a2b340101010501010d20-13-00-00-00-{a8ce8d49-9e08-4236-a34a148646640d79} 
* SOURCE FILE: B098C004_211203WL
>>> SOURCE B098C005 B098C005_211203F 060a2b340101010501010d20-13-00-00-00-{2fe394d3-9574-469c-877ad1748aa64a97} 
* SOURCE FILE: B098C005_211203F3
>>> SOURCE B098C006 B098C006_2112034 060a2b340101010501010d20-13-00-00-00-{6d01715e-3707-455a-8719b6d438219b20} 
* SOURCE FILE: B098C006_21120349
>>> SOURCE B098C007 B098C007_211203Z 060a2b340101010501010d20-13-00-00-00-{c10784ab-4cb0-41ee-8d900b49c64480e4} 
* SOURCE FILE: B098C007_211203ZX
>>> SOURCE B098C009 B098C009_211203P 060a2b340101010501010d20-13-00-00-00-{7aedc920-2691-4952-bb8b4306ff398a4f} 
* SOURCE FILE: B098C009_211203PG
>>> SOURCE B098C011 B098C011_211203X 060a2b340101010501010d20-13-00-00-00-{9afb997e-1e97-49e4-90d941edb046eb49} 
* SOURCE FILE: B098C011_211203XP
>>> SOURCE B098C012 B098C012_211203K 060a2b340101010501010d20-13-00-00-00-{2bf9a9a2-1c21-4d86-9dbce19e75f9bd8a} 
* SOURCE FILE: B098C012_211203KT
>>> SOURCE B098C015 B098C015_211203I 060a2b340101010501010d20-13-00-00-00-{383e392d-ae3a-4b19-a4e673e60a4d12f2} 
* SOURCE FILE: B098C015_211203IS
>>> SOURCE B098C018 B098C018_211203V 060a2b340101010501010d20-13-00-00-00-{635e325f-1136-4c2c-8e7b50d33a7f1ad8} 
* SOURCE FILE: B098C018_211203V4
>>> SOURCE B098C020 B098C020_211203F 060a2b340101010501010d20-13-00-00-00-{2f47d434-6626-40c4-81e38ff78e2e54b0} 
* SOURCE FILE: B098C020_211203FJ
>>> SOURCE B098C026 B098C026_2112037 060a2b340101010501010d20-13-00-00-00-{9081a203-1f09-463e-ac75825edb0ebcea} 
* SOURCE FILE: B098C026_21120370
>>> SOURCE B098C027 B098C027_211203R 060a2b340101010501010d20-13-00-00-00-{a3d4b004-f6c1-44d8-9622f42c6cc48739} 
* SOURCE FILE: B098C027_211203RB
>>> SOURCE B098C031 B098C031_211203X 060a2b340101010501010d20-13-00-00-00-{7ec63441-6c27-4677-98db169bfd877909} 
* SOURCE FILE: B098C031_211203X7
>>> SOURCE B098C033 B098C033_2112031 060a2b340101010501010d20-13-00-00-00-{2e5f847b-2d9e-41fc-8c788f2316af82a9} 
* SOURCE FILE: B098C033_21120315
>>> SOURCE B098C034 B098C034_211203I 060a2b340101010501010d20-13-00-00-00-{9974ac35-deb3-4820-908f3e80750b1c74} 
* SOURCE FILE: B098C034_211203IH
>>> SOURCE B098C035 B098C035_211203P 060a2b340101010501010d20-13-00-00-00-{01cb32b2-9753-4f4b-b70a68527e76d81c} 
* SOURCE FILE: B098C035_211203PQ
>>> SOURCE B098C037 B098C037_2112033 060a2b340101010501010d20-13-00-00-00-{b00fd536-e224-4e7a-9d90944aea528b23} 
* SOURCE FILE: B098C037_2112033R
>>> SOURCE B098C039 B098C039_2112036 060a2b340101010501010d20-13-00-00-00-{8814f290-dbe7-4eb8-97f2a2caa981c3d7} 
* SOURCE FILE: B098C039_2112036F
>>> SOURCE B098C041 B098C041_211203N 060a2b340101010501010d20-13-00-00-00-{73b16cfb-bb02-4879-9b0f741f4a580a2d} 
* SOURCE FILE: B098C041_211203N8
>>> SOURCE B098C042 B098C042_2112036 060a2b340101010501010d20-13-00-00-00-{204062b2-b339-451b-b411d09e3db6e1cf} 
* SOURCE FILE: B098C042_2112036A
>>> SOURCE B099C002 B099C002_2112036 060a2b340101010501010d20-13-00-00-00-{4cee08a4-aa70-4dc8-b932ab239c417801} 
* SOURCE FILE: B099C002_2112036M
>>> SOURCE B099C003 B099C003_211203Q 060a2b340101010501010d20-13-00-00-00-{6e052ee9-603e-4db4-859d409ba8a2a7db} 
* SOURCE FILE: B099C003_211203QO
>>> SOURCE B100C003 B100C003_211206Z 060a2b340101010501010d20-13-00-00-00-{17154ff4-18d7-4652-91e1074ff65479d6} 
* SOURCE FILE: B100C003_211206ZL
>>> SOURCE B100C004 B100C004_211206T 060a2b340101010501010d20-13-00-00-00-{36e472ee-e5ca-4e3b-917f01d1c8057383} 
* SOURCE FILE: B100C004_211206T8
>>> SOURCE B100C005 B100C005_2112064 060a2b340101010501010d20-13-00-00-00-{e9ccda2f-1f72-4d09-86080983fb85acd8} 
* SOURCE FILE: B100C005_2112064J
>>> SOURCE B100C007 B100C007_211206J 060a2b340101010501010d20-13-00-00-00-{7e4eed1f-c8a6-40ee-a126866cbd18a216} 
* SOURCE FILE: B100C007_211206JQ
>>> SOURCE B100C011 B100C011_211206G 060a2b340101010501010d20-13-00-00-00-{0c0ba3dd-77d2-46c8-967d8fc8ab3307ef} 
* SOURCE FILE: B100C011_211206GJ
>>> SOURCE B100C012 B100C012_2112069 060a2b340101010501010d20-13-00-00-00-{e83f412a-6b77-47c8-ac1cf49109ae88b6} 
* SOURCE FILE: B100C012_21120696
>>> SOURCE B100C015 B100C015_2112062 060a2b340101010501010d20-13-00-00-00-{76750b1a-0649-46ad-8f1540bfe29c51c9} 
* SOURCE FILE: B100C015_2112062D
>>> SOURCE B100C016 B100C016_2112065 060a2b340101010501010d20-13-00-00-00-{9eee2903-9e2c-4f7d-8edceb8e80fa16ac} 
* SOURCE FILE: B100C016_2112065R
>>> SOURCE B100C017 B100C017_211206W 060a2b340101010501010d20-13-00-00-00-{6f04fdca-d9bb-4b5e-b9232ecda0513626} 
* SOURCE FILE: B100C017_211206W7
>>> SOURCE B100C018 B100C018_2112061 060a2b340101010501010d20-13-00-00-00-{65e60d2b-fc41-48c2-a170480762b63d88} 
* SOURCE FILE: B100C018_2112061V
>>> SOURCE B100C019 B100C019_2112066 060a2b340101010501010d20-13-00-00-00-{c6ab75d5-c332-4c5d-9c1576a4b2f32ecd} 
* SOURCE FILE: B100C019_21120665
>>> SOURCE B101C001 B101C001_211206W 060a2b340101010501010d20-13-00-00-00-{156ea04b-9390-4a45-9489fb747180c40f} 
* SOURCE FILE: B101C001_211206W1
>>> SOURCE B101C002 B101C002_2112067 060a2b340101010501010d20-13-00-00-00-{b2c3b08b-44ec-491c-b23af9cdde2036d2} 
* SOURCE FILE: B101C002_21120677
>>> SOURCE B101C003 B101C003_211206Z 060a2b340101010501010d20-13-00-00-00-{fc712f4e-8d76-48d0-a4d7457920bfdf4f} 
* SOURCE FILE: B101C003_211206ZS
>>> SOURCE B101C004 B101C004_2112068 060a2b340101010501010d20-13-00-00-00-{6ccd9f28-7f05-4a25-bf24c8e514a84ba0} 
* SOURCE FILE: B101C004_2112068R
>>> SOURCE B101C005 B101C005_211206F 060a2b340101010501010d20-13-00-00-00-{aae01a09-a96e-433d-b71b173d76112a73} 
* SOURCE FILE: B101C005_211206F5
>>> SOURCE B101C006 B101C006_2112060 060a2b340101010501010d20-13-00-00-00-{1fdad4f7-d3e4-41f6-b8415a700b5de893} 
* SOURCE FILE: B101C006_2112060X
>>> SOURCE B101C007 B101C007_2112068 060a2b340101010501010d20-13-00-00-00-{4396b805-8e7f-46ed-8b412aadb9e47f9c} 
* SOURCE FILE: B101C007_21120684
>>> SOURCE B101C009 B101C009_211206I 060a2b340101010501010d20-13-00-00-00-{6f722f41-abbb-45f4-bbfcef03337409e5} 
* SOURCE FILE: B101C009_211206IR
>>> SOURCE B101C010 B101C010_211206P 060a2b340101010501010d20-13-00-00-00-{729d35dd-f7d3-4433-a82c64a9dae309d8} 
* SOURCE FILE: B101C010_211206PY
>>> SOURCE B101C011 B101C011_2112062 060a2b340101010501010d20-13-00-00-00-{abdf61b7-d5b3-4832-ae71b7646d22346c} 
* SOURCE FILE: B101C011_2112062V
>>> SOURCE B101C012 B101C012_211206S 060a2b340101010501010d20-13-00-00-00-{f449d791-4d33-4592-b66139ae5cf1737e} 
* SOURCE FILE: B101C012_211206SY
>>> SOURCE B101C016 B101C016_211206Y 060a2b340101010501010d20-13-00-00-00-{a99f8b41-4d3e-4c18-af92435c53c3211c} 
* SOURCE FILE: B101C016_211206YM
>>> SOURCE B102C001 B102C001_2112069 060a2b340101010501010d20-13-00-00-00-{d3c50bba-9c13-4ae8-b0b45eafe7bb29be} 
* SOURCE FILE: B102C001_2112069F
>>> SOURCE B102C002 B102C002_211206X 060a2b340101010501010d20-13-00-00-00-{4e23ce62-3723-418d-b0794a9fb4b364b5} 
* SOURCE FILE: B102C002_211206X7
>>> SOURCE B103C002 B103C002_211207F 060a2b340101010501010d20-13-00-00-00-{8db7976c-8fc6-4da8-b42b5dd82a6d4fc9} 
* SOURCE FILE: B103C002_211207FW
>>> SOURCE B103C005 B103C005_211207Y 060a2b340101010501010d20-13-00-00-00-{b8f89c4f-b041-47d3-8cca17b42b820879} 
* SOURCE FILE: B103C005_211207YV
>>> SOURCE B103C006 B103C006_211207Q 060a2b340101010501010d20-13-00-00-00-{34c67321-02cb-4225-ae44e46b51cb8f9c} 
* SOURCE FILE: B103C006_211207QZ
>>> SOURCE B103C009 B103C009_2112073 060a2b340101010501010d20-13-00-00-00-{ee589a0e-eeaa-40c5-8b3c838efe63508a} 
* SOURCE FILE: B103C009_2112073V
>>> SOURCE B103C014 B103C014_211207U 060a2b340101010501010d20-13-00-00-00-{861a1d61-b800-438c-bd898775bdfe6529} 
* SOURCE FILE: B103C014_211207U0
>>> SOURCE B104C001 B104C001_211207R 060a2b340101010501010d20-13-00-00-00-{9f4b9d65-c3a7-497d-967b671ef8e3e402} 
* SOURCE FILE: B104C001_211207R8
>>> SOURCE B104C002 B104C002_211207X 060a2b340101010501010d20-13-00-00-00-{a18df809-1479-428c-acf9035c4d296eba} 
* SOURCE FILE: B104C002_211207XO
>>> SOURCE B104C003 B104C003_2112075 060a2b340101010501010d20-13-00-00-00-{a4ac6668-156f-4c8c-8413ab5dddadf1af} 
* SOURCE FILE: B104C003_21120754
>>> SOURCE B104C005 B104C005_211207D 060a2b340101010501010d20-13-00-00-00-{1548069c-2bb4-454e-aa4ace1856f2d856} 
* SOURCE FILE: B104C005_211207DZ
>>> SOURCE B104C006 B104C006_211207U 060a2b340101010501010d20-13-00-00-00-{a258d3e8-0cb1-4027-8a7dacc556bd278e} 
* SOURCE FILE: B104C006_211207UL
>>> SOURCE B104C007 B104C007_2112070 060a2b340101010501010d20-13-00-00-00-{c220ed6d-b872-4ad8-be4863e1d2ece33d} 
* SOURCE FILE: B104C007_21120700
>>> SOURCE B104C008 B104C008_211207Q 060a2b340101010501010d20-13-00-00-00-{b9c31c74-29ad-4cb4-9963b5dad8d8f172} 
* SOURCE FILE: B104C008_211207QG
>>> SOURCE B104C009 B104C009_211207J 060a2b340101010501010d20-13-00-00-00-{2c06ac23-bb03-433c-b5326c7fee7a54fc} 
* SOURCE FILE: B104C009_211207JJ
>>> SOURCE B104C010 B104C010_211207M 060a2b340101010501010d20-13-00-00-00-{b951c774-281b-4a24-9bd55bc8dc40409a} 
* SOURCE FILE: B104C010_211207MV
>>> SOURCE B104C011 B104C011_211207L 060a2b340101010501010d20-13-00-00-00-{4c35cbb5-8e07-4a9c-80b15015699c35bc} 
* SOURCE FILE: B104C011_211207LE
>>> SOURCE B104C013 B104C013_211207T 060a2b340101010501010d20-13-00-00-00-{9edb7005-b728-4126-adc7f9821dfc3fc5} 
* SOURCE FILE: B104C013_211207TR
>>> SOURCE B104C014 B104C014_211207J 060a2b340101010501010d20-13-00-00-00-{54f6843f-926d-49e6-8f021ec7ff7be94f} 
* SOURCE FILE: B104C014_211207JI
>>> SOURCE B104C015 B104C015_211207X 060a2b340101010501010d20-13-00-00-00-{5e4e0625-c8dd-4be4-a63744b90f5232ca} 
* SOURCE FILE: B104C015_211207XM
>>> SOURCE B105C001 B105C001_211207X 060a2b340101010501010d20-13-00-00-00-{763ae184-6901-4a87-9976a71cac909016} 
* SOURCE FILE: B105C001_211207X7
>>> SOURCE B106C001 B106C001_211208R 060a2b340101010501010d20-13-00-00-00-{13f105dc-0e53-458b-9301f1e91ff1fb86} 
* SOURCE FILE: B106C001_211208RB
>>> SOURCE B106C002 B106C002_2112088 060a2b340101010501010d20-13-00-00-00-{2c959995-6f3d-461f-b97ae5309ef92bbe} 
* SOURCE FILE: B106C002_2112088J
>>> SOURCE B106C003 B106C003_211208J 060a2b340101010501010d20-13-00-00-00-{64167956-833b-411b-94bef9eb3af4581a} 
* SOURCE FILE: B106C003_211208J6
>>> SOURCE B106C004 B106C004_211208J 060a2b340101010501010d20-13-00-00-00-{f85ea768-4dea-4bf5-8e2546de99b4d405} 
* SOURCE FILE: B106C004_211208JD
>>> SOURCE B106C006 B106C006_211208O 060a2b340101010501010d20-13-00-00-00-{14d721f8-8ab6-44d0-874ba22fc5257114} 
* SOURCE FILE: B106C006_211208OW
>>> SOURCE B106C008 B106C008_211208I 060a2b340101010501010d20-13-00-00-00-{91d2c65b-c53d-4aa8-9d17317d743e5a7e} 
* SOURCE FILE: B106C008_211208IA
>>> SOURCE B106C009 B106C009_211208Y 060a2b340101010501010d20-13-00-00-00-{91ead337-8271-4be0-a8601e617f9a9d5b} 
* SOURCE FILE: B106C009_211208YC
>>> SOURCE B106C010 B106C010_211208H 060a2b340101010501010d20-13-00-00-00-{4cc61879-4950-40c5-96cc61484c346957} 
* SOURCE FILE: B106C010_211208HL
>>> SOURCE B106C012 B106C012_2112086 060a2b340101010501010d20-13-00-00-00-{ebc7b977-a67f-49ea-b449eb785afe942c} 
* SOURCE FILE: B106C012_2112086M
>>> SOURCE B106C013 B106C013_211208P 060a2b340101010501010d20-13-00-00-00-{963c3c08-011a-457e-ad78e1b876670d05} 
* SOURCE FILE: B106C013_211208PQ
>>> SOURCE B106C014 B106C014_211208T 060a2b340101010501010d20-13-00-00-00-{fac891d7-1efb-4f55-97a5ad7734424238} 
* SOURCE FILE: B106C014_211208TK
>>> SOURCE B106C017 B106C017_211208D 060a2b340101010501010d20-13-00-00-00-{07af442c-255f-4a55-a8e182f765007435} 
* SOURCE FILE: B106C017_211208DN
>>> SOURCE B107C001 B107C001_211208W 060a2b340101010501010d20-13-00-00-00-{f2ca735d-74c4-44a4-8653eaee6a886a23} 
* SOURCE FILE: B107C001_211208W4
>>> SOURCE B107C002 B107C002_211208H 060a2b340101010501010d20-13-00-00-00-{be5e0cd8-2f27-49be-a765e1653bf7c970} 
* SOURCE FILE: B107C002_211208H2
>>> SOURCE B107C003 B107C003_211208W 060a2b340101010501010d20-13-00-00-00-{971a4ff6-75e4-4011-bec9824831a3861e} 
* SOURCE FILE: B107C003_211208WB
>>> SOURCE B107C004 B107C004_211208C 060a2b340101010501010d20-13-00-00-00-{68107708-69f2-4cab-8e51f5e30e6cbf27} 
* SOURCE FILE: B107C004_211208CN
>>> SOURCE B107C005 B107C005_2112080 060a2b340101010501010d20-13-00-00-00-{fefefefb-771d-4395-8b2a36f4b77f7d58} 
* SOURCE FILE: B107C005_21120802
>>> SOURCE B107C008 B107C008_2112081 060a2b340101010501010d20-13-00-00-00-{eee3b7ef-bb32-41cc-8837d60843bad08e} 
* SOURCE FILE: B107C008_2112081F_48FPS
>>> SOURCE B107C009 B107C009_211208N 060a2b340101010501010d20-13-00-00-00-{7ac09a8c-2345-4fb3-80c4dff2d4a8a1ba} 
* SOURCE FILE: B107C009_211208NF
>>> SOURCE B107C010 B107C010_211208R 060a2b340101010501010d20-13-00-00-00-{2c14666d-d462-450d-b3e7315086697b8b} 
* SOURCE FILE: B107C010_211208RP
>>> SOURCE B107C011 B107C011_211208L 060a2b340101010501010d20-13-00-00-00-{0dd47aa4-75bc-48ba-ac41a52eb18a72a3} 
* SOURCE FILE: B107C011_211208LA_48FPS
>>> SOURCE B107C012 B107C012_211208K 060a2b340101010501010d20-13-00-00-00-{e0ed6974-f3cb-4fc3-90d8b7821614461c} 
* SOURCE FILE: B107C012_211208KS
>>> SOURCE B107C013 B107C013_211208J 060a2b340101010501010d20-13-00-00-00-{822d019c-cda8-4952-9e2046d056f4110d} 
* SOURCE FILE: B107C013_211208J9
>>> SOURCE B107C015 B107C015_2112083 060a2b340101010501010d20-13-00-00-00-{366651c3-2cd1-4f7a-b06673d1e3792509} 
* SOURCE FILE: B107C015_2112083U
>>> SOURCE B107C016 B107C016_2112083 060a2b340101010501010d20-13-00-00-00-{62c3c8ae-fed2-491a-aedfaaf83f8388ca} 
* SOURCE FILE: B107C016_2112083P
>>> SOURCE B107C017 B107C017_211208R 060a2b340101010501010d20-13-00-00-00-{383dc303-ba2c-40a9-8179384c1fb88573} 
* SOURCE FILE: B107C017_211208RC
>>> SOURCE B107C018 B107C018_2112080 060a2b340101010501010d20-13-00-00-00-{6eeb1cab-5b33-423a-be12b6841015dab7} 
* SOURCE FILE: B107C018_21120800
>>> SOURCE B107C021 B107C021_211208A 060a2b340101010501010d20-13-00-00-00-{b54eff32-eba1-4936-8e69e7a67facf192} 
* SOURCE FILE: B107C021_211208AX
>>> SOURCE B107C022 B107C022_211208K 060a2b340101010501010d20-13-00-00-00-{aef8ec03-f8dd-462a-ad93f3e47ec65220} 
* SOURCE FILE: B107C022_211208K7
>>> SOURCE B108C001 B108C001_211208D 060a2b340101010501010d20-13-00-00-00-{74e82916-3103-424f-8538843e49797863} 
* SOURCE FILE: B108C001_211208DK
>>> SOURCE B109C003 B109C003_211209C 060a2b340101010501010d20-13-00-00-00-{d36508ba-89fb-4180-a89277989412885f} 
* SOURCE FILE: B109C003_211209C6
>>> SOURCE B109C004 B109C004_2112090 060a2b340101010501010d20-13-00-00-00-{c531b494-a792-462c-bde78fd235c1ffbc} 
* SOURCE FILE: B109C004_21120907
>>> SOURCE B109C005 B109C005_211209P 060a2b340101010501010d20-13-00-00-00-{8d64701b-f77b-4e91-bbeb3cb6981bc83c} 
* SOURCE FILE: B109C005_211209PV
>>> SOURCE B109C007 B109C007_2112092 060a2b340101010501010d20-13-00-00-00-{757b66cd-b0c5-4728-ac11d3c4f5228849} 
* SOURCE FILE: B109C007_2112092V
>>> SOURCE B109C008 B109C008_2112094 060a2b340101010501010d20-13-00-00-00-{1d4789c1-07ff-4ae6-bda62f1ffe4fb2f3} 
* SOURCE FILE: B109C008_2112094M
>>> SOURCE B109C009 B109C009_211209S 060a2b340101010501010d20-13-00-00-00-{4064e263-5b17-4542-ad61021edce56ea3} 
* SOURCE FILE: B109C009_211209S0
>>> SOURCE B109C012 B109C012_2112095 060a2b340101010501010d20-13-00-00-00-{3041d1fc-bab3-4b89-8cc24248ea03f0c4} 
* SOURCE FILE: B109C012_21120957_48FPS
>>> SOURCE B109C013 B109C013_211209I 060a2b340101010501010d20-13-00-00-00-{c90d6621-2787-4983-8d39b7d55e2991b7} 
* SOURCE FILE: B109C013_211209I5_48FPS
>>> SOURCE B109C014 B109C014_211209R 060a2b340101010501010d20-13-00-00-00-{b0514546-2ded-4790-8deed29771beede4} 
* SOURCE FILE: B109C014_211209RW
>>> SOURCE B109C015 B109C015_211209G 060a2b340101010501010d20-13-00-00-00-{2e43f411-605a-43e9-8c1d93813c6913dd} 
* SOURCE FILE: B109C015_211209GY
>>> SOURCE B110C008 B110C008_211209C 060a2b340101010501010d20-13-00-00-00-{afae1b4d-4261-4673-9377ad695080a644} 
* SOURCE FILE: B110C008_211209CW
>>> SOURCE B110C009 B110C009_211209A 060a2b340101010501010d20-13-00-00-00-{f8f81144-cdfd-43e8-8b8854d7d5fdf201} 
* SOURCE FILE: B110C009_211209A6
>>> SOURCE B110C010 B110C010_2112098 060a2b340101010501010d20-13-00-00-00-{e66e65ce-9d27-4a22-926a4f0dfa11a2de} 
* SOURCE FILE: B110C010_2112098O
>>> SOURCE B110C011 B110C011_211209V 060a2b340101010501010d20-13-00-00-00-{0fe01d35-5b47-49b9-b2763293854867bf} 
* SOURCE FILE: B110C011_211209VT
>>> SOURCE B110C012 B110C012_211209F 060a2b340101010501010d20-13-00-00-00-{72158a11-3c54-4dde-9bbf7e91f8abb547} 
* SOURCE FILE: B110C012_211209FF
>>> SOURCE B114C017 B114C017_211211Q 060a2b340101010501010d20-13-00-00-00-{3c8aa4f1-5b7f-4c9b-957b3d20df41891f} 
* SOURCE FILE: B114C017_211211Q9
>>> SOURCE B114C025 B114C025_211211N 060a2b340101010501010d20-13-00-00-00-{156f0366-1a41-4937-bb1b921a6532f258} 
* SOURCE FILE: B114C025_211211NY_48FPS
>>> SOURCE B114C031 B114C031_211211S 060a2b340101010501010d20-13-00-00-00-{59912437-4569-4cba-918d3a06ad628af8} 
* SOURCE FILE: B114C031_211211SO_48FPS
>>> SOURCE B114C032 B114C032_2112119 060a2b340101010501010d20-13-00-00-00-{18cf4d58-2743-4d74-aba9921bcede5e02} 
* SOURCE FILE: B114C032_2112119A
>>> SOURCE C024C001 C024C001_211201K 060a2b340101010501010d20-13-00-00-00-{b0d4141b-9ea6-4e2c-a88706572fd29b28} 
* SOURCE FILE: C024C001_211201K7
>>> SOURCE C025C002 C025C002_211202U 060a2b340101010501010d20-13-00-00-00-{354c2116-5d77-4199-9fff3bfc7813f762} 
* SOURCE FILE: C025C002_211202UI
>>> SOURCE C025C005 C025C005_2112022 060a2b340101010501010d20-13-00-00-00-{c91765b0-028b-4f67-b94e5372add07e29} 
* SOURCE FILE: C025C005_2112022Z
>>> SOURCE C025C006 C025C006_211202K 060a2b340101010501010d20-13-00-00-00-{2f0d7d2d-a265-4c1e-a35e41ce16653a46} 
* SOURCE FILE: C025C006_211202K7
>>> SOURCE C025C007 C025C007_211202C 060a2b340101010501010d20-13-00-00-00-{158fa6aa-63a1-451f-93e8c31c80dfd290} 
* SOURCE FILE: C025C007_211202CP
>>> SOURCE C025C009 C025C009_211202U 060a2b340101010501010d20-13-00-00-00-{bcaff5c1-f457-46a3-81ed085b871dd802} 
* SOURCE FILE: C025C009_211202UF
>>> SOURCE C025C011 C025C011_211202T 060a2b340101010501010d20-13-00-00-00-{06a29128-4cbe-48fd-9be312401dd878da} 
* SOURCE FILE: C025C011_211202TI_48FPS
>>> SOURCE C025C012 C025C012_2112026 060a2b340101010501010d20-13-00-00-00-{86300d93-dec8-4289-92c096052acfa44c} 
* SOURCE FILE: C025C012_2112026F
>>> SOURCE C026C002 C026C002_211206J 060a2b340101010501010d20-13-00-00-00-{5ec4e737-dd8a-4306-b9fffeb8aaf3c225} 
* SOURCE FILE: C026C002_211206J5
>>> SOURCE C026C003 C026C003_2112065 060a2b340101010501010d20-13-00-00-00-{5b7bb3a3-63f7-4f63-a3c189f746ddcf8d} 
* SOURCE FILE: C026C003_21120659
>>> SOURCE C026C004 C026C004_211206R 060a2b340101010501010d20-13-00-00-00-{1df38d93-8567-42a6-8ed2a4abf6be2c78} 
* SOURCE FILE: C026C004_211206RK
>>> SOURCE C026C005 C026C005_2112065 060a2b340101010501010d20-13-00-00-00-{ee57a317-4261-4835-8c338943b8e8ec4d} 
* SOURCE FILE: C026C005_2112065H
>>> SOURCE C026C006 C026C006_211206V 060a2b340101010501010d20-13-00-00-00-{5efb1adb-ec37-453c-a32cb2c47b0a53ef} 
* SOURCE FILE: C026C006_211206VT
>>> SOURCE C027C004 C027C004_211207F 060a2b340101010501010d20-13-00-00-00-{aa10f55f-5c7e-4ace-b727eef104cb582e} 
* SOURCE FILE: C027C004_211207F5
>>> SOURCE C027C005 C027C005_211207Q 060a2b340101010501010d20-13-00-00-00-{5f21ec0b-08c3-43d7-b188945a988ad008} 
* SOURCE FILE: C027C005_211207QP
>>> SOURCE C027C006 C027C006_211207X 060a2b340101010501010d20-13-00-00-00-{7399116f-e319-4450-953bf2c59c667b44} 
* SOURCE FILE: C027C006_211207XB
>>> SOURCE GT_MAIN_ GT_MAIN_TITLES_S 060a2b340101010501010f10-13-00-00-00-{41b7af8c-9601-9805-0acc003ee1c9d304} 
* SOURCE FILE: GT_MAIN_TITLES_S4_ JJBBPP 4K.MOV
>>> SOURCE GT_MAIN_ GT_MAIN_TITLES_S 060a2b340101010501010f10-13-00-00-00-{36daf376-9590-9805-ffcf003ee1c9d304} 
* SOURCE FILE: GT_MAIN_TITLES_S4_ JJPPBB 4K NO MAIA NO BEAU ALT 1 20SEC.MOV
>>> SOURCE P003C013 P003C013_IPHONE_ 060a2b340101010501010d20-13-00-00-00-{e8fa773e-5dbf-48c3-af8a4323d0661606} 
* SOURCE FILE: P003C013_IPHONE_2398_102321
>>> SOURCE SIGNATUR SIGNATURE_SOURCE 060a2b340101010101010f00-13-00-00-00-{53932435-b52d-3409-a4c1a93f560a5412} 
* SOURCE FILE: SIGNATURE SOURCE MOB
>>> SOURCE PGOODTRO PGOODTROUBLE_E10 060a2b340101010501010f10-13-00-00-00-{4d93d4d8-8549-9805-6bf7003ee1b75f55} 
* SOURCE FILE: PGOODTROUBLE_E1012_TDSM_HF100006348_LENG.MOV
>>> SOURCE PGOODTRO PGOODTROUBLE_E20 060a2b340101010101010f00-13-a1-00-00-{4467c948-23b2-1034-a30d7bab388b0791} 
* SOURCE FILE: PGOODTROUBLE_E2001_TDSM_HF100006715_R2_LENG
>>> SOURCE PGOODTRO PGOODTROUBLE_E20 060a2b340101010501010f10-13-00-00-00-{18cf60fb-8722-9905-9e24003ee1b75f5c} 
* SOURCE FILE: PGOODTROUBLE_E2008_TDSM_HF100006722_LENG.MOV
>>> SOURCE PGOODTRO PGOODTROUBLE_E30 060a2b340101010501010f10-13-00-00-00-{688bed8c-9402-9905-d5e5003ee1be10de} 
* SOURCE FILE: PGOODTROUBLE_E3012_TDSM_HF100008143_LENG.MOV
>>> SOURCE PGOODTRO PGOODTROUBLE_E30 060a2b340101010501010f10-13-00-00-00-{ec0575bf-9509-9905-c068003ee1cd33a7} 
* SOURCE FILE: PGOODTROUBLE_E3019_TDSM_HF100008150_R3_LENG.MOV