TITLE:   PNK_VFX Turnover_20201214 - EDL 
FCM: NON-DROP FRAME
000001  A027_06151634_C007 V     C        16:34:56:19 16:35:01:23 01:00:00:23 01:00:06:03 
*FROM CLIP NAME:  A027_06151634_C007.SUB.01 
*LOC: 01:00:02:16 CYAN    PNK_K1214_REH_080 
*ASC_SOP (0.576350 0.569453 0.565600)(0.084650 0.091547 0.095400)(1.000000 1.000000 1.000000) 
*ASC_SAT 1.000000 
*SOURCE FILE: A027_06151634_C007
000002  A027_06151634_C007 V     C        16:35:15:01 16:35:17:11 01:00:06:03 01:00:08:13 
*FROM CLIP NAME:  A027_06151634_C007.SUB.01 
*LOC: 01:00:07:14 CYAN    PNK_K1214_REH_090 
*ASC_SOP (0.576350 0.569453 0.565600)(0.084650 0.091547 0.095400)(1.000000 1.000000 1.000000) 
*ASC_SAT 1.000000 
*SOURCE FILE: A027_06151634_C007
000003  A027_06151634_C007 V     C        16:35:36:23 16:35:40:23 01:00:08:13 01:00:12:13 
*FROM CLIP NAME:  A027_06151634_C007.SUB.01 
*LOC: 01:00:10:11 CYAN    PNK_K1214_REH_100 
*ASC_SOP (0.576350 0.569453 0.565600)(0.084650 0.091547 0.095400)(1.000000 1.000000 1.000000) 
*ASC_SAT 1.000000 
*SOURCE FILE: A027_06151634_C007
000004  A027_06151634_C007 V     C        16:35:42:04 16:35:44:23 01:00:12:13 01:00:15:08 
*FROM CLIP NAME:  A027_06151634_C007.SUB.01 
*LOC: 01:00:14:15 CYAN    PNK_K1214_REH_110 
*ASC_SOP (0.576350 0.569453 0.565600)(0.084650 0.091547 0.095400)(1.000000 1.000000 1.000000) 
*ASC_SAT 1.000000 
*SOURCE FILE: A027_06151634_C007
000005  A027_06151639_C011 V     C        16:40:00:16 16:40:04:08 01:00:15:08 01:00:19:00 
*FROM CLIP NAME:  A027_06151639_C011 
*LOC: 01:00:17:19 CYAN    PNK_K1214_REH_120 
*ASC_SOP (0.596550 0.589652 0.585799)(0.064450 0.071347 0.075200)(1.000000 1.000000 1.000000) 
*ASC_SAT 1.000000 
*SOURCE FILE: A027_06151639_C011
000006  A027_06151639_C011 V     C        16:40:57:09 16:41:02:07 01:00:19:00 01:00:23:22 
*FROM CLIP NAME:  A027_06151639_C011 
*LOC: 01:00:21:18 CYAN    PNK_K1214_REH_130 
*ASC_SOP (0.596550 0.589652 0.585799)(0.064450 0.071347 0.075200)(1.000000 1.000000 1.000000) 
*ASC_SAT 1.000000 
*SOURCE FILE: A027_06151639_C011
000007  C007_06151643_C014 V     C        16:49:42:02 16:49:53:08 01:00:23:22 01:00:35:04 
*FROM CLIP NAME:  C007_06151643_C014 
*LOC: 01:00:30:16 CYAN    PNK_K1214_REH_140 
*ASC_SOP (0.778900 0.740528 0.708900)(0.017600 0.017600 0.017600)(1.000000 1.000000 1.000000) 
*ASC_SAT 1.000000 
*SOURCE FILE: C007_06151643_C014
000008  A027_06151639_C011 V     C        16:41:14:09 16:41:21:19 01:00:35:04 01:00:42:14 
*FROM CLIP NAME:  A027_06151639_C011 
*LOC: 01:00:39:04 CYAN    PNK_K1214_REH_150 
*ASC_SOP (0.596550 0.589652 0.585799)(0.064450 0.071347 0.075200)(1.000000 1.000000 1.000000) 
*ASC_SAT 1.000000 
*SOURCE FILE: A027_06151639_C011
000009  C007_06151643_C014 V     C        16:50:03:19 16:50:09:05 01:00:42:14 01:00:48:00 
*FROM CLIP NAME:  C007_06151643_C014 
*LOC: 01:00:45:15 CYAN    PNK_K1214_REH_160 
*ASC_SOP (0.778900 0.740528 0.708900)(0.017600 0.017600 0.017600)(1.000000 1.000000 1.000000) 
*ASC_SAT 1.000000 
*SOURCE FILE: C007_06151643_C014
000010  A027_06151639_C011 V     C        16:41:31:03 16:41:33:13 01:00:48:00 01:00:50:10 
*FROM CLIP NAME:  A027_06151639_C011 
*LOC: 01:00:49:12 CYAN    PNK_K1214_REH_170 
*ASC_SOP (0.596550 0.589652 0.585799)(0.064450 0.071347 0.075200)(1.000000 1.000000 1.000000) 
*ASC_SAT 1.000000 
*SOURCE FILE: A027_06151639_C011
000011  A027_06151647_C015 V     C        16:47:30:10 16:47:39:09 01:00:50:10 01:00:59:09 
*FROM CLIP NAME:  A027_06151647_C015 
*LOC: 01:00:54:15 CYAN    PNK_K1214_REH_180 
*ASC_SOP (0.759950 0.762897 0.766199)(0.028050 0.025102 0.021800)(1.000000 1.000000 1.000000) 
*ASC_SAT 1.000000 
*SOURCE FILE: A027_06151647_C015
000012  A027_06151647_C015 V     C        16:47:41:13 16:47:45:17 01:01:01:13 01:01:05:17 
*FROM CLIP NAME:  A027_06151647_C015 
*LOC: 01:01:03:13 CYAN    PNK_K1214_REH_190 
*ASC_SOP (0.759950 0.762897 0.766199)(0.028050 0.025102 0.021800)(1.000000 1.000000 1.000000) 
*ASC_SAT 1.000000 
*SOURCE FILE: A027_06151647_C015
000013  A027_06151642_C013 V     C        16:44:02:01 16:44:06:23 01:01:09:09 01:01:14:07 
*FROM CLIP NAME:  A027_06151642_C013 
*LOC: 01:01:10:14 CYAN    PNK_K1214_REH_200 
*ASC_SOP (0.626950 0.635670 0.641450)(0.034050 0.025329 0.019550)(1.000000 1.000000 1.000000) 
*ASC_SAT 1.000000 
*SOURCE FILE: A027_06151642_C013
000014  A027_06151647_C015 V     C        16:48:53:16 16:49:12:00 01:01:14:07 01:01:32:15 
*FROM CLIP NAME:  A027_06151647_C015 
*LOC: 01:01:20:22 CYAN    PNK_K1214_REH_210 
*ASC_SOP (0.759950 0.762897 0.766199)(0.028050 0.025102 0.021800)(1.000000 1.000000 1.000000) 
*ASC_SAT 1.000000 
*SOURCE FILE: A027_06151647_C015
000015  A025_06142150_C003 V     C        21:51:25:19 21:51:28:03 01:01:34:17 01:01:37:01 
*FROM CLIP NAME:  A025_06142150_C003 
*LOC: 01:01:35:15 CYAN    PNK_K1214_REH_220 
*ASC_SOP (0.783600 0.783600 0.783600)(0.077400 0.077400 0.077400)(1.000000 1.000000 1.000000) 
*ASC_SAT 1.000000 
*SOURCE FILE: A025_06142150_C003
000016  A025_06142220_C022 V     C        22:20:48:03 22:20:50:03 01:01:37:01 01:01:39:01 
*FROM CLIP NAME:  A025_06142220_C022 
*LOC: 01:01:38:08 CYAN    PNK_K1214_REH_230 
*ASC_SOP (0.581700 0.581700 0.581700)(0.107300 0.107300 0.107300)(1.000000 1.000000 1.000000) 
*ASC_SAT 1.000000 
*SOURCE FILE: A025_06142220_C022
000017  A030_06152044_C011 V     C        20:44:35:05 20:44:37:04 01:01:39:01 01:01:41:00 
*FROM CLIP NAME:  A030_06152044_C011 
*LOC: 01:01:40:10 CYAN    PNK_K1214_REH_240 
*ASC_SOP (0.563902 0.573741 0.577402)(0.110600 0.104255 0.097100)(1.000000 1.000000 1.000000) 
*ASC_SAT 1.000000 
*SOURCE FILE: A030_06152044_C011
000018  A024_06142133_C037 V     C        21:34:04:20 21:34:08:13 01:01:41:00 01:01:44:17 
*FROM CLIP NAME:  A024_06142133_C037 
*LOC: 01:01:42:20 CYAN    PNK_K1214_REH_250 
*ASC_SOP (0.636650 0.640496 0.644900)(0.083350 0.079503 0.075100)(1.000000 1.000000 1.000000) 
*ASC_SAT 1.000000 
*SOURCE FILE: A024_06142133_C037
000019  A030_06152045_C012 V     C        20:48:49:06 20:48:51:00 01:01:44:17 01:01:46:11 
*FROM CLIP NAME:  A030_06152045_C012 
*LOC: 01:01:45:12 CYAN    PNK_K1214_REH_260 
*ASC_SOP (0.563902 0.573741 0.577402)(0.110600 0.104255 0.097100)(1.000000 1.000000 1.000000) 
*ASC_SAT 1.000000 
*SOURCE FILE: A030_06152045_C012
000020  A025_06142201_C012 V     C        22:02:03:01 22:02:04:20 01:01:46:11 01:01:48:06 
*FROM CLIP NAME:  A025_06142201_C012 
*LOC: 01:01:47:12 CYAN    PNK_K1214_REH_270 
*ASC_SOP (0.750600 0.750600 0.750600)(0.077400 0.077400 0.077400)(1.000000 1.000000 1.000000) 
*ASC_SAT 1.000000 
*SOURCE FILE: A025_06142201_C012
000021  A025_06142203_C013 V     C        22:05:48:15 22:05:50:19 01:01:48:06 01:01:50:10 
*FROM CLIP NAME:  A025_06142203_C013 
*LOC: 01:01:48:22 CYAN    PNK_K1214_REH_280 
*ASC_SOP (0.611600 0.611600 0.611600)(0.077400 0.077400 0.077400)(1.000000 1.000000 1.000000) 
*ASC_SAT 1.000000 
*SOURCE FILE: A025_06142203_C013
000022  A032_06152242_C001 V     C        22:43:26:05 22:43:28:06 01:01:52:08 01:01:54:09 
*FROM CLIP NAME:  A032_06152242_C001 
*LOC: 01:01:53:10 CYAN    PNK_K1214_REH_290 
*ASC_SOP (0.674903 0.683249 0.675902)(0.105600 0.100747 0.104600)(1.000000 1.000000 1.000000) 
*ASC_SAT 1.000000 
*SOURCE FILE: A032_06152242_C001
000023  A024_06142141_C043 V     C        21:42:42:19 21:42:45:07 01:01:54:09 01:01:56:21 
*FROM CLIP NAME:  A024_06142141_C043 
*LOC: 01:01:55:14 CYAN    PNK_K1214_REH_300 
*ASC_SOP (0.632650 0.636496 0.640900)(0.087350 0.083503 0.079100)(1.000000 1.000000 1.000000) 
*ASC_SAT 1.000000 
*SOURCE FILE: A024_06142141_C043
000024  C007_06151643_C014 V     C        16:52:05:08 16:52:10:14 01:01:58:10 01:02:03:16 
*FROM CLIP NAME:  C007_06151643_C014 
*LOC: 01:02:01:00 CYAN    PNK_K1214_REH_310 
*ASC_SOP (0.778900 0.740528 0.708900)(0.017600 0.017600 0.017600)(1.000000 1.000000 1.000000) 
*ASC_SAT 1.000000 
*SOURCE FILE: C007_06151643_C014
000025  A053_06230108_C013 V     C        01:16:31:20 01:16:35:21 01:02:10:18 01:02:14:19 
*FROM CLIP NAME:  A053_06230108_C013 
*LOC: 01:02:12:21 GREEN   PNK_K1214_WIL_010 
*ASC_SOP (0.713451 0.709906 0.702200)(0.095550 0.099094 0.106800)(1.000000 1.000000 1.000000) 
*ASC_SAT 1.000000 
*SOURCE FILE: A053_06230108_C013
000026  B010_06251733_C029 V     C        17:36:13:11 17:36:15:16 01:02:21:16 01:02:23:21 
*FROM CLIP NAME:  B010_06251733_C029.SUB.05 
*LOC: 01:02:22:08 GREEN   PNK_K1214_WIL_020 - REMOVE DIRT ON LENS 
*ASC_SOP (0.618850 0.619281 0.611850)(0.096150 0.095720 0.103150)(1.000000 1.000000 1.000000) 
*ASC_SAT 1.000000 
*SOURCE FILE: B010_06251733_C029
000027  B008_06230106_C044 V     C        01:07:46:06 01:07:47:23 01:02:28:01 01:02:29:18 
*FROM CLIP NAME:  B008_06230106_C044 
*LOC: 01:02:28:13 GREEN   PNK_K1214_WIL_030 
*ASC_SOP (0.657500 0.725664 0.795000)(0.075000 0.073097 0.077500)(1.000000 1.000000 1.000000) 
*ASC_SAT 1.000000 
*SOURCE FILE: B008_06230106_C044
000028  B010_06251738_C030 V     C        17:41:10:14 17:41:13:22 01:02:41:19 01:02:45:03 
*FROM CLIP NAME:  B010_06251738_C030.SUB.11 
*LOC: 01:02:43:01 GREEN   PNK_K1214_WIL_040 - REMOVE DIRT ON LENS 
*ASC_SOP (0.611850 0.618953 0.615100)(0.103150 0.096047 0.099900)(1.000000 1.000000 1.000000) 
*ASC_SAT 1.000000 
*SOURCE FILE: B010_06251738_C030
000029  A053_06230108_C013 V     C        01:17:57:00 01:18:00:06 01:02:55:00 01:02:58:06 
*FROM CLIP NAME:  A053_06230108_C013 
*LOC: 01:02:57:09 GREEN   PNK_K1214_WIL_050 
*ASC_SOP (0.713451 0.709906 0.702200)(0.095550 0.099094 0.106800)(1.000000 1.000000 1.000000) 
*ASC_SAT 1.000000 
*SOURCE FILE: A053_06230108_C013
000030  A107_07210711_C002 V     C        07:13:11:02 07:13:15:11 01:03:08:05 01:03:12:14 
*FROM CLIP NAME:  A107_07210711_C002 
*LOC: 01:03:10:14 CYAN    PNK_K1214_WIL_060 
*ASC_SOP (0.539000 0.539000 0.539000)(0.099000 0.099000 0.099000)(1.000000 1.000000 1.000000) 
*ASC_SAT 1.000000 
*SOURCE FILE: A107_07210711_C002
000031  A107_07210711_C002 V     C        07:14:39:07 07:14:43:21 01:03:22:06 01:03:26:20 
*FROM CLIP NAME:  A107_07210711_C002 
*LOC: 01:03:24:16 GREEN   PNK_K1214_WIL_070 
*ASC_SOP (0.539000 0.539000 0.539000)(0.099000 0.099000 0.099000)(1.000000 1.000000 1.000000) 
*ASC_SAT 1.000000 
*SOURCE FILE: A107_07210711_C002
000032  A107_07210711_C002 V     C        07:15:27:18 07:15:33:02 01:03:36:06 01:03:41:14 
*FROM CLIP NAME:  A107_07210711_C002 
*LOC: 01:03:39:02 GREEN   PNK_K1214_WIL_080 
*ASC_SOP (0.539000 0.539000 0.539000)(0.099000 0.099000 0.099000)(1.000000 1.000000 1.000000) 
*ASC_SAT 1.000000 
*SOURCE FILE: A107_07210711_C002
000033  A107_07210711_C002 V     C        07:15:55:18 07:16:01:18 01:03:49:15 01:03:55:15 
*FROM CLIP NAME:  A107_07210711_C002 
*LOC: 01:03:53:03 GREEN   PNK_K1214_WIL_090 
*ASC_SOP (0.539000 0.539000 0.539000)(0.099000 0.099000 0.099000)(1.000000 1.000000 1.000000) 
*ASC_SAT 1.000000 
*SOURCE FILE: A107_07210711_C002
000034  A081_06300021_C034 V     C        00:22:43:06 00:22:46:13 01:03:59:00 01:04:02:07 
*FROM CLIP NAME:  A081_06300021_C034 
*LOC: 01:04:00:19 GREEN   PNK_K1214_WIL_100 
*ASC_SOP (0.751027 0.853988 0.885510)(0.052427 0.047201 0.051324)(1.071749 0.993382 0.854250) 
*ASC_SAT 1.000000 
*SOURCE FILE: A081_06300021_C034
000035  A107_07210711_C002 V     C        07:17:04:12 07:17:07:09 01:04:06:00 01:04:08:21 
*FROM CLIP NAME:  A107_07210711_C002 
*LOC: 01:04:08:07 GREEN   PNK_K1214_WIL_110 
*ASC_SOP (0.539000 0.539000 0.539000)(0.099000 0.099000 0.099000)(1.000000 1.000000 1.000000) 
*ASC_SAT 1.000000 
*SOURCE FILE: A107_07210711_C002
000036  B008_06230106_C044 V     C        01:08:14:21 01:08:17:00 01:04:16:23 01:04:19:02 
*FROM CLIP NAME:  B008_06230106_C044 
*LOC: 01:04:18:03 GREEN   PNK_K1214_WIL_120 
*ASC_SOP (0.657500 0.725664 0.795000)(0.075000 0.073097 0.077500)(1.000000 1.000000 1.000000) 
*ASC_SAT 1.000000 
*SOURCE FILE: B008_06230106_C044
000037  A053_06230108_C013 V     C        01:10:23:01 01:10:26:16 01:04:26:07 01:04:29:22 
*FROM CLIP NAME:  A053_06230108_C013 
*LOC: 01:04:27:17 CYAN    PNK_K1214_WIL_130 
*ASC_SOP (0.713451 0.709906 0.702200)(0.095550 0.099094 0.106800)(1.000000 1.000000 1.000000) 
*ASC_SAT 1.000000 
*SOURCE FILE: A053_06230108_C013
000038  B008_06230106_C044 V     C        01:10:40:06 01:10:50:13 01:04:37:01 01:04:47:08 
*FROM CLIP NAME:  B008_06230106_C044 
*LOC: 01:04:40:23 GREEN   PNK_K1214_WIL_140 
*ASC_SOP (0.657500 0.725664 0.795000)(0.075000 0.073097 0.077500)(1.000000 1.000000 1.000000) 
*ASC_SAT 1.000000 
*SOURCE FILE: B008_06230106_C044
000039  K020C003_190730SH  V     C        21:23:38:13 21:23:39:17 01:04:51:06 01:04:52:10 
*FROM CLIP NAME:  K020C003_190730SH 
*LOC: 01:04:51:14 GREEN   PNK_K1214_JLF_400 
*ASC_SOP (0.533200 0.533200 0.533200)(0.200800 0.200800 0.200800)(1.000000 1.000000 1.000000) 
*ASC_SAT 1.000000 
*SOURCE FILE: K020C003_190730SH
000040  A075_06290157_C013 V     C        01:58:01:12 01:58:05:02 01:04:57:18 01:05:01:08 
*FROM CLIP NAME:  A075_06290157_C013 
*LOC: 01:04:58:21 GREEN   PNK_K1214_HCT_010 
*ASC_SOP (0.621501 0.615341 0.595251)(0.054500 0.060660 0.080750)(1.000000 1.000000 1.000000) 
*ASC_SAT 1.000000 
*SOURCE FILE: A075_06290157_C013
000041  A075_06290157_C013 V     C        01:58:43:13 01:58:45:23 01:05:03:17 01:05:06:03 
*FROM CLIP NAME:  A075_06290157_C013 
*LOC: 01:05:04:18 GREEN   PNK_K1214_HCT_020 
*ASC_SOP (0.621501 0.615341 0.595251)(0.054500 0.060660 0.080750)(1.000000 1.000000 1.000000) 
*ASC_SAT 1.000000 
*SOURCE FILE: A075_06290157_C013
000042  A075_06290157_C013 V     C        01:58:56:10 01:59:03:09 01:05:09:01 01:05:16:00 
*FROM CLIP NAME:  A075_06290157_C013 
*LOC: 01:05:11:08 GREEN   PNK_K1214_HCT_030 
*ASC_SOP (0.621501 0.615341 0.595251)(0.054500 0.060660 0.080750)(1.000000 1.000000 1.000000) 
*ASC_SAT 1.000000 
*SOURCE FILE: A075_06290157_C013
000043  A075_06290157_C013 V     C        01:59:08:22 01:59:15:19 01:05:17:21 01:05:24:18 
*FROM CLIP NAME:  A075_06290157_C013 
*LOC: 01:05:20:23 GREEN   PNK_K1214_HCT_040 
*ASC_SOP (0.621501 0.615341 0.595251)(0.054500 0.060660 0.080750)(1.000000 1.000000 1.000000) 
*ASC_SAT 1.000000 
*SOURCE FILE: A075_06290157_C013
000044  A075_06290157_C013 V     C        01:59:21:09 01:59:24:17 01:05:26:14 01:05:29:22 
*FROM CLIP NAME:  A075_06290157_C013 
*LOC: 01:05:28:02 GREEN   PNK_K1214_HCT_050 
*ASC_SOP (0.621501 0.615341 0.595251)(0.054500 0.060660 0.080750)(1.000000 1.000000 1.000000) 
*ASC_SAT 1.000000 
*SOURCE FILE: A075_06290157_C013
000045  A075_06290157_C013 V     C        01:59:29:11 01:59:31:20 01:05:31:19 01:05:34:04 
*FROM CLIP NAME:  A075_06290157_C013 
*LOC: 01:05:33:06 GREEN   PNK_K1214_HCT_060 
*ASC_SOP (0.621501 0.615341 0.595251)(0.054500 0.060660 0.080750)(1.000000 1.000000 1.000000) 
*ASC_SAT 1.000000 
*SOURCE FILE: A075_06290157_C013
000046  A075_06290157_C013 V     C        01:59:36:21 01:59:40:16 01:05:36:10 01:05:40:05 
*FROM CLIP NAME:  A075_06290157_C013 
*LOC: 01:05:38:07 GREEN   PNK_K1214_HCT_070 
*ASC_SOP (0.621501 0.615341 0.595251)(0.054500 0.060660 0.080750)(1.000000 1.000000 1.000000) 
*ASC_SAT 1.000000 
*SOURCE FILE: A075_06290157_C013
000047  B008_06230132_C047 V     C        01:33:29:18 01:33:33:17 01:05:54:04 01:05:58:03 
*FROM CLIP NAME:  B008_06230132_C047.SUB.02-- 
*LOC: 01:05:55:10 GREEN   PNK_K1214_CHR_010 
*ASC_SOP (0.657500 0.725664 0.795000)(0.075000 0.073097 0.077500)(1.000000 1.000000 1.000000) 
*ASC_SAT 1.000000 
*SOURCE FILE: B008_06230132_C047
000048  A054_06230134_C004 V     C        01:35:01:10 01:35:02:18 01:05:58:03 01:05:59:11 
*FROM CLIP NAME:  A054_06230134_C004.SUB.01-- 
*LOC: 01:05:59:00 GREEN   PNK_K1214_CHR_020 
*ASC_SOP (0.729051 0.722212 0.706800)(0.079950 0.086789 0.102200)(1.000000 1.000000 1.000000) 
*ASC_SAT 1.000000 
*SOURCE FILE: A054_06230134_C004
000049  B008_06230132_C047 V     C        01:33:36:06 01:33:37:21 01:05:59:11 01:06:01:02 
*FROM CLIP NAME:  B008_06230132_C047.SUB.02-- 
*LOC: 01:06:00:13 GREEN   PNK_K1214_CHR_030 
*ASC_SOP (0.657500 0.725664 0.795000)(0.075000 0.073097 0.077500)(1.000000 1.000000 1.000000) 
*ASC_SAT 1.000000 
*SOURCE FILE: B008_06230132_C047
000050  A024_06142135_C038 V     C        21:36:29:07 21:36:36:00 01:06:05:22 01:06:12:15 
*FROM CLIP NAME:  A024_06142135_C038.SUB.01 
*LOC: 01:06:07:09 GREEN   PNK_K1214_ASM_010 
*ASC_SOP (0.610550 0.614397 0.618800)(0.109450 0.105603 0.101200)(1.000000 1.000000 1.000000) 
*ASC_SAT 1.000000 
*SOURCE FILE: A024_06142135_C038
000051  C006_06142142_C014 V     C        21:45:16:07 21:45:19:00 01:06:12:15 01:06:15:08 
*FROM CLIP NAME:  C006_06142142_C014.SUB.05 
*LOC: 01:06:14:14 GREEN   PNK_K1214_ASM_020 
*ASC_SOP (0.789900 0.786325 0.795900)(0.090100 0.080957 0.071600)(1.000000 1.000000 1.000000) 
*ASC_SAT 1.000000 
*SOURCE FILE: C006_06142142_C014
000052  A024_06142135_C038 V     C        21:36:38:17 21:36:41:04 01:06:15:08 01:06:17:19 
*FROM CLIP NAME:  A024_06142135_C038.SUB.01 
*LOC: 01:06:16:18 GREEN   PNK_K1214_ASM_030 
*ASC_SOP (0.610550 0.614397 0.618800)(0.109450 0.105603 0.101200)(1.000000 1.000000 1.000000) 
*ASC_SAT 1.000000 
*SOURCE FILE: A024_06142135_C038
000053  A043_06191809_C020 V     C        18:10:00:00 18:10:08:16 01:06:33:02 01:06:41:18 
*FROM CLIP NAME:  A043_06191809_C020 
*LOC: 01:06:33:18 GREEN   PNK_K1214_WSK_010 
*ASC_SOP (0.635150 0.584554 0.537650)(0.094850 0.092625 0.092350)(1.000000 1.000000 1.000000) 
*ASC_SAT 1.000000 
*SOURCE FILE: A043_06191809_C020
000054  A044_06192107_C033 V     C        21:08:12:01 21:08:16:15 01:06:48:00 01:06:52:14 
*FROM CLIP NAME:  A044_06192107_C033 
*LOC: 01:06:49:10 GREEN   PNK_K1214_WSK_020 
*ASC_SOP (0.587900 0.587900 0.587900)(0.117100 0.117100 0.117100)(1.000000 1.000000 1.000000) 
*ASC_SAT 1.000000 
*SOURCE FILE: A044_06192107_C033
000055  A044_06192107_C033 V     C        21:09:46:09 21:09:55:01 01:06:52:14 01:07:01:06 
*FROM CLIP NAME:  A044_06192107_C033 
*LOC: 01:06:53:17 GREEN   PNK_K1214_WSK_030 
*ASC_SOP (0.587900 0.587900 0.587900)(0.117100 0.117100 0.117100)(1.000000 1.000000 1.000000) 
*ASC_SAT 1.000000 
*SOURCE FILE: A044_06192107_C033
000056  B006_06192214_C062 V     C        22:21:52:22 22:21:57:07 01:07:08:12 01:07:12:21 
*FROM CLIP NAME:  B006_06192214_C062 
*LOC: 01:07:10:16 GREEN   PNK_K1214_WSK_040 
*ASC_SOP (0.757550 0.726700 0.745300)(0.057450 0.061855 0.054700)(1.000000 1.000000 1.000000) 
*ASC_SAT 1.000000 
*SOURCE FILE: B006_06192214_C062
000057  A045_06192223_C012 V     C        22:23:35:06 22:23:42:14 01:07:12:21 01:07:20:05 
*FROM CLIP NAME:  A045_06192223_C012.SUB.01 
*LOC: 01:07:17:07 GREEN   PNK_K1214_WSK_050 
*ASC_SOP (0.587900 0.587900 0.587900)(0.117100 0.117100 0.117100)(1.000000 1.000000 1.000000) 
*ASC_SAT 1.000000 
*SOURCE FILE: A045_06192223_C012
000058  A019_06131950_C021 V     C        19:58:37:16 19:58:43:04 01:07:30:18 01:07:36:06 
*FROM CLIP NAME:  A019_06131950_C021 
*LOC: 01:07:33:13 GREEN   PNK_K1214_PAC_010 
*ASC_SOP (0.932950 0.932982 0.924450)(0.067050 0.067019 0.075550)(1.000000 1.000000 1.000000) 
*ASC_SAT 1.000000 
*SOURCE FILE: A019_06131950_C021
000059  A086_07010043_C001 V     C        00:43:38:21 00:43:44:18 01:07:44:03 01:07:50:00 
*FROM CLIP NAME:  A086_07010043_C001.SUB.01 
*LOC: 01:07:46:16 GREEN   PNK_K1214_PAC_020 
*ASC_SOP (0.608500 0.618825 0.597500)(0.117000 0.123139 0.138000)(1.000000 1.000000 1.000000) 
*ASC_SAT 1.000000 
*SOURCE FILE: A086_07010043_C001