TITLE:   PNK_VFX_Turnover_Skulley_20201229_EDL 
FCM: NON-DROP FRAME
000001  U001C001_180110J0                          V     C        20:31:49:08 20:31:50:04 01:00:02:04 01:00:03:00 
*FROM CLIP NAME:  U001C001_180110J0.MOV 
*LOC: 01:00:02:04 CYAN    PNK_K1230_OPN_005-REMOVE_BLACK_CURTAIN 
*ASC_SAT 1.000000 
*SOURCE FILE: U001C001_180110J0
000002  A065_06252013_C001                         V     C        20:20:03:05 20:20:04:10 01:00:05:08 01:00:06:13 
*FROM CLIP NAME:  A065_06252013_C001 
*LOC: 01:00:06:03 CYAN    PNK_K1228_OPN_010 
*ASC_SOP (0.690700 0.664148 0.631950)(0.047300 0.073852 0.106050)(1.000000 1.000000 1.000000) 
*ASC_SAT 1.000000 
*SOURCE FILE: A065_06252013_C001
000003  A049_06221725_C049-001                     V     C        17:26:39:21 17:26:41:09 01:00:07:15 01:00:09:03 
*FROM CLIP NAME:  A049_06221725_C049-001.SUB.01 
*LOC: 01:00:07:20 CYAN    PNK_K1228_OPN_020 
*ASC_SOP (0.603500 0.598661 0.595250)(0.086500 0.096312 0.114750)(1.000000 1.000000 1.000000) 
*ASC_SAT 1.000000 
*SOURCE FILE: A049_06221725_C049-001
000004  A083_06302030_C028                         V     C        20:30:38:06 20:30:39:16 01:00:09:03 01:00:10:13 
*FROM CLIP NAME:  A083_06302030_C028 
*LOC: 01:00:09:20 CYAN    PNK_K1228_OPN_030 
*ASC_SOP (0.613850 0.612055 0.663850)(0.088150 0.097875 0.098150)(1.000000 1.000000 1.000000) 
*ASC_SAT 1.000000 
*SOURCE FILE: A083_06302030_C028
000005  A064_06251920_C029                         V     C        19:20:43:19 19:20:43:20 01:00:11:13 01:00:12:14 
M2      A064_06251920_C029                                 -024.0 19:20:43:19 
*FROM CLIP NAME:  A064_06251920_C029.SUB.01 
*LOC: 01:00:11:22 CYAN    PNK_K1228_OPN_040 
*ASC_SOP (0.568750 0.574332 0.565250)(0.107250 0.101668 0.110750)(1.000000 1.000000 1.000000) 
*ASC_SAT 1.000000 
*SOURCE FILE: A064_06251920_C029
000006  A080_06292025_C018                         V     C        20:26:17:11 20:26:17:23 01:00:13:17 01:00:14:05 
*FROM CLIP NAME:  A080_06292025_C018 
*LOC: 01:00:14:00 CYAN    PNK_K1228_OPN_050 
*ASC_SOP (0.772000 0.772000 0.772000)(0.050000 0.050000 0.050000)(1.000000 1.000000 1.000000) 
*ASC_SAT 1.000000 
*SOURCE FILE: A080_06292025_C018
000007  A083_06302025_C027                         V     C        20:25:55:14 20:25:57:19 01:00:17:01 01:00:19:06 
*FROM CLIP NAME:  A083_06302025_C027 
*LOC: 01:00:17:21 CYAN    PNK_K1228_OPN_060 
*ASC_SOP (0.613850 0.612055 0.663850)(0.088150 0.097875 0.098150)(1.000000 1.000000 1.000000) 
*ASC_SAT 1.000000 
*SOURCE FILE: A083_06302025_C027
000008  A080_06292043_C024                         V     C        20:44:38:08 20:44:38:23 01:00:19:06 01:00:19:21 
*FROM CLIP NAME:  A080_06292043_C024 
*LOC: 01:00:19:12 CYAN    PNK_K1228_OPN_070 
*ASC_SOP (0.772000 0.772000 0.772000)(0.050000 0.050000 0.050000)(1.000000 1.000000 1.000000) 
*ASC_SAT 1.000000 
*SOURCE FILE: A080_06292043_C024
000009  U020C001_18011184                          V     C        20:30:03:17 20:30:04:08 01:00:20:04 01:00:20:19 
*FROM CLIP NAME:  U020C001_18011184.MOV 
*LOC: 01:00:20:16 CYAN    PNK_K1228_OPN_080-REMOVE_BLACK_CURTAIN 
*ASC_SAT 1.000000 
*SOURCE FILE: U020C001_18011184
000010  W001C003_180629Z8                          V     C        20:32:04:22 20:32:05:15 01:00:20:19 01:00:21:12 
*FROM CLIP NAME:  W001C003_180629Z8 
*LOC: 01:00:21:00 CYAN    PNK_K1228_OPN_090-REMOVE_BLACK_CURTAIN 
*ASC_SOP (0.450900 0.455472 0.460150)(0.199100 0.194528 0.189850)(1.000000 1.000000 1.000000) 
*ASC_SAT 1.000000 
*SOURCE FILE: W001C003_180629Z8
000011  U020C001_18011184                          V     C        20:30:02:22 20:30:03:11 01:00:21:12 01:00:22:01 
*FROM CLIP NAME:  U020C001_18011184.MOV 
*LOC: 01:00:21:16 CYAN    PNK_K1228_OPN_100-REMOVE_BLACK_CURTAIN 
*ASC_SAT 1.000000 
*SOURCE FILE: U020C001_18011184
000012  J020C001_190630Z8                          V     C        20:30:07:06 20:30:07:16 01:00:24:03 01:00:24:13 
*FROM CLIP NAME:  J020C001_190630Z8.MOV 
*LOC: 01:00:24:06 CYAN    PNK_K1228_OPN_110-REMOVE_BLACK_CURTAIN 
*ASC_SAT 1.000000 
*SOURCE FILE: J020C001_190630Z8
000013  E001C001_190629EI                          V     C        20:32:06:22 20:32:08:19 01:00:24:13 01:00:26:10 
*FROM CLIP NAME:  E001C001_190629EI.MOV 
*LOC: 01:00:25:07 CYAN    PNK_K1228_OPN_120-REMOVE_BLACK_CURTAIN 
*ASC_SAT 1.000000 
*SOURCE FILE: E001C001_190629EI
000014  Q020C004_1905300B                          V     C        20:26:58:16 20:26:59:18 01:00:26:10 01:00:27:12 
*FROM CLIP NAME:  Q020C004_1905300B 
*LOC: 01:00:26:23 CYAN    PNK_K1228_OPN_130 
*ASC_SOP (0.476400 0.471986 0.477901)(0.205100 0.194814 0.176100)(1.000000 1.000000 1.000000) 
*ASC_SAT 1.000000 
*SOURCE FILE: Q020C004_1905300B
000015  Q020C004_1905300B                          V     C        20:27:21:02 20:27:21:22 01:00:29:01 01:00:29:21 
*FROM CLIP NAME:  Q020C004_1905300B 
*LOC: 01:00:29:09 CYAN    PNK_K1228_OPN_140 
*ASC_SOP (0.476400 0.471986 0.477901)(0.205100 0.194814 0.176100)(1.000000 1.000000 1.000000) 
*ASC_SAT 1.000000 
*SOURCE FILE: Q020C004_1905300B
000016  Q020C004_1905300B                          V     C        20:27:34:23 20:27:35:16 01:00:30:17 01:00:31:10 
*FROM CLIP NAME:  Q020C004_1905300B 
*LOC: 01:00:31:01 CYAN    PNK_K1228_OPN_150 
*ASC_SOP (0.476400 0.471986 0.477901)(0.205100 0.194814 0.176100)(1.000000 1.000000 1.000000) 
*ASC_SAT 1.000000 
*SOURCE FILE: Q020C004_1905300B
000017  Q020C004_1905300B                          V     C        20:28:26:14 20:28:27:21 01:00:32:04 01:00:33:11 
*FROM CLIP NAME:  Q020C004_1905300B 
*LOC: 01:00:32:17 CYAN    PNK_K1228_OPN_160 
*ASC_SOP (0.476400 0.471986 0.477901)(0.205100 0.194814 0.176100)(1.000000 1.000000 1.000000) 
*ASC_SAT 1.000000 
*SOURCE FILE: Q020C004_1905300B
000018  A081_06292130_C002                         V     C        21:30:49:22 21:30:51:04 01:00:33:11 01:00:34:17 
*FROM CLIP NAME:  A081_06292130_C002 
*LOC: 01:00:33:22 CYAN    PNK_K1228_OPN_170 
*ASC_SOP (0.886450 0.890247 0.895200)(0.050550 0.046754 0.041800)(1.000000 1.000000 1.000000) 
*ASC_SAT 1.000000 
*SOURCE FILE: A081_06292130_C002
000019  Q020C004_1905300B                          V     C        20:29:18:11 20:29:19:23 01:00:34:17 01:00:36:05 
*FROM CLIP NAME:  Q020C004_1905300B 
*LOC: 01:00:35:06 CYAN    PNK_K1228_OPN_180 
*ASC_SOP (0.476400 0.471986 0.477901)(0.205100 0.194814 0.176100)(1.000000 1.000000 1.000000) 
*ASC_SAT 1.000000 
*SOURCE FILE: Q020C004_1905300B
000020  W001C003_180629Z8                          V     C        20:32:48:07 20:32:49:13 01:00:39:15 01:00:40:21 
*FROM CLIP NAME:  W001C003_180629Z8 
*LOC: 01:00:40:03 CYAN    PNK_K1228_OPN_190 
*ASC_SAT 1.000000 
*SOURCE FILE: W001C003_180629Z8
000021  J020C001_190630Z8                          V     C        20:30:50:16 20:30:52:07 01:00:40:21 01:00:42:12 
*FROM CLIP NAME:  J020C001_190630Z8 
*LOC: 01:00:41:14 CYAN    PNK_K1228_OPN_200 
*ASC_SAT 1.000000 
*SOURCE FILE: J020C001_190630Z8
000022  B002C001_190629DR                          V     C        20:32:55:01 20:32:56:22 01:00:46:13 01:00:48:10 
*FROM CLIP NAME:  B002C001_190629DR 
*LOC: 01:00:47:08 CYAN    PNK_K1228_OPN_210 
*ASC_SAT 1.000000 
*SOURCE FILE: B002C001_190629DR
000023  D001C001_1801114N                          V     C        20:32:57:23 20:32:59:22 01:00:49:10 01:00:51:09 
*FROM CLIP NAME:  D001C001_1801114N.MOV 
*LOC: 01:00:50:06 CYAN    PNK_K1228_OPN_220 
*ASC_SAT 1.000000 
*SOURCE FILE: D001C001_1801114N
000024  E020C001_19063027                          V     C        20:31:07:16 20:31:09:06 01:00:52:12 01:00:54:02 
*FROM CLIP NAME:  E020C001_19063027 
*LOC: 01:00:53:05 CYAN    PNK_K1228_OPN_230 
*ASC_SOP (0.486600 0.486600 0.486600)(0.204400 0.204400 0.204400)(1.000000 1.000000 1.000000) 
*ASC_SAT 1.000000 
*SOURCE FILE: E020C001_19063027
000025  B002C001_190629DR                          V     C        20:33:06:22 20:33:08:08 01:00:58:10 01:00:59:20 
*FROM CLIP NAME:  B002C001_190629DR 
*LOC: 01:00:59:00 CYAN    PNK_K1228_OPN_240 
*ASC_SAT 1.000000 
*SOURCE FILE: B002C001_190629DR
000026  R001C001_180111QN                          V     C        20:33:09:07 20:33:11:02 01:01:00:19 01:01:02:14 
*FROM CLIP NAME:  R001C001_180111QN 
*LOC: 01:01:01:12 CYAN    PNK_K1228_OPN_250 
*ASC_SAT 1.000000 
*SOURCE FILE: R001C001_180111QN
000027  R001C001_180111QN                          V     C        20:33:17:00 20:33:17:21 01:01:08:13 01:01:09:10 
*FROM CLIP NAME:  R001C001_180111QN.MOV 
*LOC: 01:01:08:23 CYAN    PNK_K1228_OPN_260 
*ASC_SAT 1.000000 
*SOURCE FILE: R001C001_180111QN
000028  A020C001_180111N6                          V     C        20:31:19:19 20:31:21:06 01:01:09:10 01:01:10:21 
*FROM CLIP NAME:  A020C001_180111N6.MOV 
*LOC: 01:01:10:01 CYAN    PNK_K1228_OPN_270 
*ASC_SAT 1.000000 
*SOURCE FILE: A020C001_180111N6
000029  B020C002_190630LD                          V     C        20:31:23:03 20:31:25:19 01:01:12:19 01:01:15:11 
*FROM CLIP NAME:  B020C002_190630LD 
*LOC: 01:01:13:20 CYAN    PNK_K1228_OPN_280 
*ASC_SAT 1.000000 
*SOURCE FILE: B020C002_190630LD
000030  H001C001_1906297K                          V     C        20:33:27:20 20:33:29:15 01:01:19:08 01:01:21:03 
*FROM CLIP NAME:  H001C001_1906297K 
*LOC: 01:01:20:03 CYAN    PNK_K1228_OPN_290 - PLEASE ADJUST TO WIDER TO MATCH REF BEFORE PULLING THIS 
*ASC_SOP (0.447900 0.447900 0.447900)(0.191100 0.191100 0.191100)(1.000000 1.000000 1.000000) 
*ASC_SAT 1.000000 
*SOURCE FILE: H001C001_1906297K
000031  HOTH_1_S001_S001_T001-APPLE_PRORES_422_HQ  V     C        20:31:31:21 20:31:33:09 01:01:21:03 01:01:22:15 
*FROM CLIP NAME:  HOTH_1_S001_S001_T001 -REDELIVER 
*LOC: 01:01:21:17 CYAN    PNK_K1228_OPN_300 
*ASC_SOP (1.000000 1.000000 1.000000)(0.000000 0.000000 0.000000)(1.000000 1.000000 1.000000) 
*ASC_SAT 1.000000 
*SOURCE FILE: HOTH_1_S001_S001_T001-APPLE PRORES 422 HQ
000032  V020C001_1906309O                          V     C        20:31:33:01 20:31:34:05 01:01:22:15 01:01:23:19 
*FROM CLIP NAME:  V020C001_1906309O.MOV 
*LOC: 01:01:23:01 CYAN    PNK_K1228_OPN_310 
*ASC_SAT 1.000000 
*SOURCE FILE: V020C001_1906309O
000033  D001C001_1801114N                          V     C        20:33:32:07 20:33:33:17 01:01:23:19 01:01:25:05 
*FROM CLIP NAME:  D001C001_1801114N 
*LOC: 01:01:24:10 CYAN    PNK_K1228_OPN_320 
*ASC_SAT 1.000000 
*SOURCE FILE: D001C001_1801114N
000034  20170908_PINK_APPLE_MUSIC_DOC_MVI_0162.MOV V     C        12:00:05:14 12:00:06:08 01:01:26:16 01:01:27:10 
*FROM CLIP NAME:  20170908 PINK APPLE MUSIC DOC_MVI_0162.MOV 
*LOC: 01:01:27:00 CYAN    PNK_K1228_OPN_330 
*SOURCE FILE: 20170908 PINK APPLE MUSIC DOC_MVI_0162.MOV
000035  B013_06292224_C063                         V     C        22:26:10:14 22:26:11:01 01:01:27:20 01:01:28:07 
*FROM CLIP NAME:  B013_06292224_C063 
*LOC: 01:01:28:00 CYAN    PNK_K1228_OPN_340 
*ASC_SOP (0.611450 0.623864 0.638450)(0.077550 0.065136 0.050550)(1.000000 1.000000 1.000000) 
*ASC_SAT 1.000000 
*SOURCE FILE: B013_06292224_C063
000036  B013_06302223_C169                         V     C        22:25:32:20 22:25:34:05 01:01:28:07 01:01:29:16 
*FROM CLIP NAME:  B013_06302223_C169 
*LOC: 01:01:28:22 CYAN    PNK_K1228_OPN_350 
*ASC_SOP (0.596951 0.586118 0.582951)(0.083550 0.078170 0.085050)(1.000000 1.000000 1.000000) 
*ASC_SAT 1.000000 
*SOURCE FILE: B013_06302223_C169
000037  B020C002_190630LD                          V     C        20:31:40:01 20:31:42:07 01:01:29:16 01:01:31:22 
*FROM CLIP NAME:  B020C002_190630LD.MOV 
*LOC: 01:01:30:14 CYAN    PNK_K1228_OPN_360 
*ASC_SAT 1.000000 
*SOURCE FILE: B020C002_190630LD
000038  K001C001_1907298G                          V     C        20:33:40:23 20:33:41:19 01:01:32:11 01:01:33:07 
*FROM CLIP NAME:  K001C001_1907298G 
*LOC: 01:01:32:19 CYAN    PNK_K1228_OPN_370 
*ASC_SAT 1.000000 
*SOURCE FILE: K001C001_1907298G
000039  D001C001_1801114N                          V     C        20:33:42:12 20:33:42:22 01:01:34:00 01:01:34:10 
*FROM CLIP NAME:  D001C001_1801114N 
*LOC: 01:01:34:04 CYAN    PNK_K1228_OPN_380 
*ASC_SAT 1.000000 
*SOURCE FILE: D001C001_1801114N
000040  K001C001_1907298G                          V     C        20:33:42:22 20:33:44:01 01:01:34:10 01:01:35:13 
*FROM CLIP NAME:  K001C001_1907298G 
*LOC: 01:01:34:23 CYAN    PNK_K1228_OPN_390 
*ASC_SAT 1.000000 
*SOURCE FILE: K001C001_1907298G
000041  Q001C007_190529CJ                          V     C        08:21:27:07 08:21:28:00 01:01:37:02 01:01:37:19 
*FROM CLIP NAME:  Q001C007_190529CJ 
*LOC: 01:01:37:11 CYAN    PNK_K1228_OPN_400 
*ASC_SAT 1.000000 
*SOURCE FILE: Q001C007_190529CJ
000042  A001C001_180110KR                          V     C        20:34:01:02 20:34:01:22 01:01:37:19 01:01:38:13 
M2      A001C001_180110KR                                   027.6 20:34:01:02 
*FROM CLIP NAME:  A001C001_180110KR 
*LOC: 01:01:38:02 CYAN    PNK_K1228_OPN_410 
*ASC_SOP (0.476300 0.476300 0.476300)(0.182700 0.182700 0.182700)(1.000000 1.000000 1.000000) 
*ASC_SAT 1.000000 
*SOURCE FILE: A001C001_180110KR
000043  P003C001_190629DJ                          V     C        20:34:01:21 20:34:02:07 01:01:38:13 01:01:38:23 
*FROM CLIP NAME:  P003C001_190629DJ 
*LOC: 01:01:38:21 CYAN    PNK_K1228_OPN_420 
*ASC_SAT 1.000000 
*SOURCE FILE: P003C001_190629DJ
000044  P003C001_190629DJ                          V     C        20:34:02:07 20:34:02:07 01:01:38:23 01:01:38:23 
000044  BL                               V     W001 012 00:00:00:00 00:00:00:12 01:01:38:23 01:01:39:11 
*FROM CLIP NAME:  P003C001_190629DJ 
*LOC: 01:01:39:07 CYAN    PNK_K1228_OPN_420 
*ASC_SAT 1.000000 
*SOURCE FILE: P003C001_190629DJ
000045  A009_06121644_C030                         V     C        16:45:02:08 16:45:11:20 01:01:57:07 01:02:06:19 
*FROM CLIP NAME:  A009_06121644_C030 
*LOC: 01:02:02:19 CYAN    PNK_K1218_AHS_010 
*ASC_SOP (0.638699 0.627552 0.623699)(0.090300 0.101447 0.105300)(1.000000 1.000000 1.00 
*ASC_SAT 1.000000 
*SOURCE FILE: A009_06121644_C030
000046  A010_06121652_C001                         V     C        16:54:39:15 16:54:48:01 01:02:37:13 01:02:45:23 
*FROM CLIP NAME:  A010_06121652_C001 
*LOC: 01:02:40:04 CYAN    PNK_K1218_AHS_020 
*ASC_SOP (0.631449 0.576660 0.512699)(0.066550 0.098171 0.137800)(1.000000 1.000000 1.00 
*ASC_SAT 1.000000 
*SOURCE FILE: A010_06121652_C001
000047  A010_06121652_C001                         V     C        16:55:27:23 16:55:37:17 01:02:48:16 01:02:58:10 
*FROM CLIP NAME:  A010_06121652_C001 
*LOC: 01:02:52:00 CYAN    PNK_K1218_AHS_030 
*ASC_SOP (0.631449 0.576660 0.512699)(0.066550 0.098171 0.137800)(1.000000 1.000000 1.00 
*ASC_SAT 1.000000 
*SOURCE FILE: A010_06121652_C001
000048  A010_06121652_C001                         V     C        16:55:44:16 16:55:56:23 01:02:58:10 01:03:10:17 
*FROM CLIP NAME:  A010_06121652_C001 
*LOC: 01:03:02:18 CYAN    PNK_K1218_AHS_040 
*ASC_SOP (0.631449 0.576660 0.512699)(0.066550 0.098171 0.137800)(1.000000 1.000000 1.000000) 
*ASC_SAT 1.000000 
*SOURCE FILE: A010_06121652_C001
000049  A010_06121652_C001                         V     C        16:56:06:22 16:56:10:07 01:03:10:17 01:03:14:02 
*FROM CLIP NAME:  A010_06121652_C001 
*LOC: 01:03:12:08 CYAN    PNK_K1218_AHS_050 
*ASC_SOP (0.631449 0.576660 0.512699)(0.066550 0.098171 0.137800)(1.000000 1.000000 1.00 
*ASC_SAT 1.000000 
*SOURCE FILE: A010_06121652_C001
000050  A012_06122130_C027                         V     C        21:30:23:11 21:30:27:15 01:03:18:15 01:03:22:19 
*FROM CLIP NAME:  A012_06122130_C027 
*LOC: 01:03:20:00 CYAN    PNK_K1218_AAR_010 
*ASC_SOP (0.738001 0.738001 0.738001)(0.112000 0.112000 0.112000)(1.000000 1.000000 1.000000) 
*ASC_SAT 1.000000 
*SOURCE FILE: A012_06122130_C027
000051  A012_06122130_C027                         V     C        21:31:04:16 21:31:05:21 01:03:22:19 01:03:24:00 
*FROM CLIP NAME:  A012_06122130_C027 
*LOC: 01:03:23:08 CYAN    PNK_K1218_AAR_020 
*ASC_SOP (0.738001 0.738001 0.738001)(0.112000 0.112000 0.112000)(1.000000 1.000000 1.000000) 
*ASC_SAT 1.000000 
*SOURCE FILE: A012_06122130_C027
000052  A012_06122130_C027                         V     C        21:31:14:19 21:31:17:04 01:03:24:00 01:03:26:09 
*FROM CLIP NAME:  A012_06122130_C027 
*LOC: 01:03:25:07 CYAN    PNK_K1218_AAR_030 
*ASC_SOP (0.738001 0.738001 0.738001)(0.112000 0.112000 0.112000)(1.000000 1.000000 1.000000) 
*ASC_SAT 1.000000 
*SOURCE FILE: A012_06122130_C027
000053  A012_06122130_C027                         V     C        21:31:44:13 21:31:46:05 01:03:26:09 01:03:28:01 
*FROM CLIP NAME:  A012_06122130_C027 
*LOC: 01:03:27:10 CYAN    PNK_K1218_AAR_040 
*ASC_SOP (0.738001 0.738001 0.738001)(0.112000 0.112000 0.112000)(1.000000 1.000000 1.000000) 
*ASC_SAT 1.000000 
*SOURCE FILE: A012_06122130_C027
000054  A012_06122130_C027                         V     C        21:32:00:22 21:32:03:04 01:03:28:01 01:03:30:07 
*FROM CLIP NAME:  A012_06122130_C027 
*LOC: 01:03:29:04 CYAN    PNK_K1218_AAR_050 
*ASC_SOP (0.738001 0.738001 0.738001)(0.112000 0.112000 0.112000)(1.000000 1.000000 1.000000) 
*ASC_SAT 1.000000 
*SOURCE FILE: A012_06122130_C027
000055  A017_06131501_C002                         V     C        15:01:55:03 15:01:57:11 01:03:30:07 01:03:32:15 
*FROM CLIP NAME:  A017_06131501_C002 
*LOC: 01:03:31:09 CYAN    PNK_K1218_AAR_060 
*ASC_SOP (0.735351 0.706092 0.669100)(0.065650 0.070985 0.091900)(1.000000 1.000000 1.000000) 
*ASC_SAT 1.000000 
*SOURCE FILE: A017_06131501_C002
000056  A016_06131449_C023                         V     C        14:49:36:18 14:49:38:07 01:03:32:15 01:03:34:04 
*FROM CLIP NAME:  A016_06131449_C023 
*LOC: 01:03:33:04 CYAN    PNK_K1218_AAR_070 
*ASC_SOP (0.735351 0.706092 0.669100)(0.065650 0.070985 0.091900)(1.000000 1.000000 1.000000) 
*ASC_SAT 1.000000 
*SOURCE FILE: A016_06131449_C023
000057  A024_06141910_C005                         V     C        19:10:56:17 19:10:58:00 01:03:34:04 01:03:35:11 
*FROM CLIP NAME:  A024_06141910_C005 
*ASC_SOP (0.662951 0.674762 0.657700)(0.082050 0.070238 0.087300)(1.000000 1.000000 1.000000) 
*ASC_SAT 1.000000 
*SOURCE FILE: A024_06141910_C005
000058  A024_06142116_C024                         V     C        21:16:46:21 21:16:49:03 01:03:35:11 01:03:37:17 
*FROM CLIP NAME:  A024_06142116_C024 
*LOC: 01:03:36:17 CYAN    PNK_K1218_AAR_080 
*ASC_SOP (0.869600 0.869600 0.869600)(0.031400 0.031400 0.031400)(1.000000 1.000000 1.000000) 
*ASC_SAT 1.000000 
*SOURCE FILE: A024_06142116_C024
000059  A024_06142126_C031                         V     C        21:26:10:22 21:26:14:08 01:03:37:17 01:03:41:03 
*FROM CLIP NAME:  A024_06142126_C031 
*LOC: 01:03:39:07 CYAN    PNK_K1218_AAR_090 
*ASC_SOP (0.849600 0.849600 0.849600)(0.031400 0.031400 0.031400)(1.000000 1.000000 1.000000) 
*ASC_SAT 1.000000 
*SOURCE FILE: A024_06142126_C031
000060  A010_06121722_C005                         V     C        17:23:15:18 17:23:20:12 01:03:51:18 01:03:56:12 
*FROM CLIP NAME:  A010_06121722_C005 
*LOC: 01:03:53:18 CYAN    PNK_K1218_FIA_010 
*ASC_SOP (0.610949 0.578510 0.516450)(0.079550 0.099053 0.129050)(1.000000 1.000000 1.000000) 
*ASC_SAT 1.000000 
*SOURCE FILE: A010_06121722_C005
000061  A010_06121734_C012                         V     C        17:34:26:11 17:34:30:08 01:03:59:10 01:04:03:07 
*FROM CLIP NAME:  A010_06121734_C012 
*LOC: 01:04:01:13 CYAN    PNK_K1218_FIA_020 
*ASC_SOP (0.594849 0.545304 0.489599)(0.103150 0.129275 0.163400)(1.000000 1.000000 1.000000) 
*ASC_SAT 1.000000 
*SOURCE FILE: A010_06121734_C012
000062  A010_06121735_C013                         V     C        17:35:41:21 17:35:44:21 01:04:05:11 01:04:08:11 
*FROM CLIP NAME:  A010_06121735_C013 
*LOC: 01:04:07:17 CYAN    PNK_K1218_FIA_030 
*ASC_SOP (0.603500 0.603500 0.603500)(0.081500 0.081500 0.081500)(1.000000 1.000000 1.000000) 
*ASC_SAT 1.000000 
*SOURCE FILE: A010_06121735_C013
000063  A010_06121736_C014                         V     C        17:36:17:02 17:36:22:06 01:04:08:11 01:04:13:15 
*FROM CLIP NAME:  A010_06121736_C014 
*LOC: 01:04:11:00 CYAN    PNK_K1218_FIA_040 
*ASC_SOP (0.634000 0.623768 0.631500)(0.081500 0.081500 0.081500)(1.000000 1.000000 1.000000) 
*ASC_SAT 1.000000 
*SOURCE FILE: A010_06121736_C014
000064  A010_06121738_C016                         V     C        17:38:44:10 17:38:46:22 01:04:22:12 01:04:25:00 
*FROM CLIP NAME:  A010_06121738_C016 
*LOC: 01:04:23:08 CYAN    PNK_K1218_FIA_050 
*ASC_SOP (0.598300 0.567564 0.580800)(0.075200 0.095704 0.090200)(1.000000 1.000000 1.000000) 
*ASC_SAT 1.000000 
*SOURCE FILE: A010_06121738_C016
000065  A011_06121834_C008                         V     C        18:34:17:17 18:34:26:00 01:04:28:07 01:04:36:14 
*FROM CLIP NAME:  A011_06121834_C008 
*LOC: 01:04:29:06 CYAN    PNK_K1218_FIA_060 
*ASC_SOP (0.545601 0.537033 0.526601)(0.120900 0.121001 0.119900)(1.000000 1.000000 1.000000) 
*ASC_SAT 1.000000 
*SOURCE FILE: A011_06121834_C008
000066  A011_06121846_C014                         V     C        18:46:38:13 18:46:44:17 01:04:36:14 01:04:42:18 
*FROM CLIP NAME:  A011_06121846_C014 
*LOC: 01:04:38:22 CYAN    PNK_K1218_FIA_070 
*ASC_SOP (0.595801 0.587232 0.576801)(0.092700 0.092801 0.091700)(1.000000 1.000000 1.000000) 
*ASC_SAT 1.000000 
*SOURCE FILE: A011_06121846_C014
000067  A012_06122007_C008                         V     C        20:07:51:12 20:07:57:08 01:04:42:18 01:04:48:14 
*FROM CLIP NAME:  A012_06122007_C008 
*LOC: 01:04:44:14 CYAN    PNK_K1218_FIA_080 
*ASC_SOP (0.721300 0.694134 0.678800)(0.059200 0.059200 0.059200)(1.000000 1.000000 1.000000) 
*ASC_SAT 1.000000 
*SOURCE FILE: A012_06122007_C008
000068  A011_06121854_C017                         V     C        18:54:49:12 18:54:52:09 01:04:51:13 01:04:54:10 
*FROM CLIP NAME:  A011_06121854_C017 
*LOC: 01:04:52:14 CYAN    PNK_K1218_FIA_090 
*ASC_SOP (0.595801 0.587232 0.576801)(0.092700 0.092801 0.091700)(1.000000 1.000000 1.000000) 
*ASC_SAT 1.000000 
*SOURCE FILE: A011_06121854_C017
000069  A012_06122017_C010                         V     C        20:17:55:06 20:17:56:23 01:04:56:15 01:04:58:08 
*FROM CLIP NAME:  A012_06122017_C010 
*LOC: 01:04:57:11 CYAN    PNK_K1218_FIA_100 
*ASC_SOP (0.645799 0.640727 0.603299)(0.082200 0.089793 0.099700)(1.000000 1.000000 1.000000) 
*ASC_SAT 1.000000 
*SOURCE FILE: A012_06122017_C010
000070  A012_06122139_C028                         V     C        21:42:09:06 21:42:16:11 01:05:06:01 01:05:13:06 
*FROM CLIP NAME:  A012_06122139_C028 
*LOC: 01:05:08:13 CYAN    PNK_K1218_RBT_010 
*ASC_SOP (0.738001 0.738001 0.738001)(0.112000 0.112000 0.112000)(1.000000 1.000000 1.000000) 
*ASC_SAT 1.000000 
*SOURCE FILE: A012_06122139_C028
000071  A014_06122302_C007                         V     C        23:16:31:19 23:16:35:08 01:05:13:06 01:05:16:19 
*FROM CLIP NAME:  A014_06122302_C007 
*LOC: 01:05:15:05 CYAN    PNK_K1218_RBT_020 
*ASC_SOP (0.746849 0.715288 0.705349)(0.066650 0.075514 0.090650)(1.000000 1.000000 1.000000) 
*ASC_SAT 1.000000 
*SOURCE FILE: A014_06122302_C007
000072  A014_06122302_C007                         V     C        23:16:44:02 23:16:47:19 01:05:19:23 01:05:23:16 
*FROM CLIP NAME:  A014_06122302_C007 
*LOC: 01:05:21:06 CYAN    PNK_K1218_RBT_030 
*ASC_SOP (0.746849 0.715288 0.705349)(0.066650 0.075514 0.090650)(1.000000 1.000000 1.000000) 
*ASC_SAT 1.000000 
*SOURCE FILE: A014_06122302_C007
000073  A014_06122302_C007                         V     C        23:08:44:15 23:08:52:06 01:05:28:14 01:05:36:05 
*FROM CLIP NAME:  A014_06122302_C007 
*LOC: 01:05:31:14 CYAN    PNK_K1218_RBT_040 
*ASC_SOP (0.746849 0.715288 0.705349)(0.066650 0.075514 0.090650)(1.000000 1.000000 1.000000) 
*ASC_SAT 1.000000 
*SOURCE FILE: A014_06122302_C007
000074  A014_06122302_C007                         V     C        23:12:58:11 23:13:02:21 01:05:41:15 01:05:46:01 
*FROM CLIP NAME:  A014_06122302_C007 
*LOC: 01:05:43:16 CYAN    PNK_K1218_RBT_050 
*ASC_SOP (0.746849 0.715288 0.705349)(0.066650 0.075514 0.090650)(1.000000 1.000000 1.000000) 
*ASC_SAT 1.000000 
*SOURCE FILE: A014_06122302_C007
000075  A014_06122302_C007                         V     C        23:17:03:18 23:17:07:04 01:05:47:22 01:05:51:08 
*FROM CLIP NAME:  A014_06122302_C007 
*LOC: 01:05:49:00 CYAN    PNK_K1218_RBT_060 
*ASC_SOP (0.746849 0.715288 0.705349)(0.066650 0.075514 0.090650)(1.000000 1.000000 1.000000) 
*ASC_SAT 1.000000 
*SOURCE FILE: A014_06122302_C007
000076  A014_06122302_C007                         V     C        23:17:43:02 23:17:51:13 01:05:51:08 01:05:59:19 
*FROM CLIP NAME:  A014_06122302_C007 
*LOC: 01:05:55:07 CYAN    PNK_K1218_RBT_070 
*ASC_SOP (0.746849 0.715288 0.705349)(0.066650 0.075514 0.090650)(1.000000 1.000000 1.000000) 
*ASC_SAT 1.000000 
*SOURCE FILE: A014_06122302_C007
000077  A014_06122302_C007                         V     C        23:17:14:13 23:17:18:09 01:05:59:19 01:06:03:15 
*FROM CLIP NAME:  A014_06122302_C007 
*LOC: 01:06:01:02 CYAN    PNK_K1218_RBT_080 
*ASC_SOP (0.746849 0.715288 0.705349)(0.066650 0.075514 0.090650)(1.000000 1.000000 1.000000) 
*ASC_SAT 1.000000 
*SOURCE FILE: A014_06122302_C007
000078  A014_06122302_C007                         V     C        23:18:03:01 23:18:05:14 01:06:03:15 01:06:06:04 
*FROM CLIP NAME:  A014_06122302_C007 
*LOC: 01:06:05:00 CYAN    PNK_K1218_RBT_090 
*ASC_SOP (0.746849 0.715288 0.705349)(0.066650 0.075514 0.090650)(1.000000 1.000000 1.000000) 
*ASC_SAT 1.000000 
*SOURCE FILE: A014_06122302_C007
000079  A016_06131443_C020                         V     C        14:44:02:18 14:44:10:04 01:06:06:04 01:06:13:14 
*FROM CLIP NAME:  A016_06131443_C020 
*LOC: 01:06:09:14 CYAN    PNK_K1218_RBT_100 
*ASC_SOP (0.735351 0.706092 0.669100)(0.065650 0.070985 0.091900)(1.000000 1.000000 1.00 
*ASC_SAT 1.000000 
*SOURCE FILE: A016_06131443_C020
000080  A016_06131449_C023                         V     C        14:50:49:10 14:50:52:13 01:06:13:14 01:06:16:17 
*FROM CLIP NAME:  A016_06131449_C023 
*LOC: 01:06:14:23 CYAN    PNK_K1218_RBT_110 
*ASC_SOP (0.735351 0.706092 0.669100)(0.065650 0.070985 0.091900)(1.000000 1.000000 1.000000) 
*ASC_SAT 1.000000 
*SOURCE FILE: A016_06131449_C023
000081  A017_06131508_C007                         V     C        15:08:30:03 15:08:33:11 01:06:16:17 01:06:18:10 
M2      A017_06131508_C007                                  047.4 15:08:30:03 
*FROM CLIP NAME:  A017_06131508_C007 
*LOC: 01:06:17:15 CYAN    PNK_K1218_RBT_120 
*ASC_SOP (0.793751 0.764492 0.727500)(0.066250 0.071585 0.092500)(1.000000 1.000000 1.000000) 
*ASC_SAT 1.000000 
*SOURCE FILE: A017_06131508_C007
000082  A017_06131524_C013                         V     C        15:25:06:21 15:25:09:05 01:06:18:10 01:06:20:18 
*FROM CLIP NAME:  A017_06131524_C013 
*LOC: 01:06:20:03 CYAN    PNK_K1218_RBT_130 
*ASC_SOP (0.777751 0.748492 0.711500)(0.066250 0.071585 0.092500)(1.000000 1.000000 1.000000) 
*ASC_SAT 1.000000 
*SOURCE FILE: A017_06131524_C013
000083  A013_06122220_C004                         V     C        22:20:40:16 22:20:43:16 01:06:20:18 01:06:23:18 
*FROM CLIP NAME:  A013_06122220_C004 
*LOC: 01:06:21:23 CYAN    PNK_K1218_RBT_140 
*ASC_SOP (0.800350 0.763448 0.740849)(0.060150 0.074355 0.102150)(1.000000 1.000000 1.000000) 
*ASC_SAT 1.000000 
*SOURCE FILE: A013_06122220_C004
000084  A013_06122230_C006                         V     C        22:32:52:02 22:32:58:23 01:06:23:18 01:06:30:15 
*FROM CLIP NAME:  A013_06122230_C006 
*LOC: 01:06:27:00 CYAN    PNK_K1218_RBT_150 
*ASC_SOP (0.800600 0.762918 0.746099)(0.059900 0.074884 0.096900)(1.000000 1.000000 1.000000) 
*ASC_SAT 1.000000 
*SOURCE FILE: A013_06122230_C006
000085  A017_06131600_C017                         V     C        16:01:05:18 16:01:07:00 01:06:30:15 01:06:31:21 
*FROM CLIP NAME:  A017_06131600_C017 
*LOC: 01:06:31:07 CYAN    PNK_K1218_RBT_160 
*ASC_SOP (0.777751 0.748492 0.711500)(0.066250 0.071585 0.092500)(1.000000 1.000000 1.00 
*ASC_SAT 1.000000 
*SOURCE FILE: A017_06131600_C017
000086  A017_06131600_C017                         V     C        16:01:16:11 16:01:25:11 01:06:31:21 01:06:40:21 
*FROM CLIP NAME:  A017_06131600_C017 
*LOC: 01:06:34:13 CYAN    PNK_K1218_RBT_170 
*ASC_SOP (0.777751 0.748492 0.711500)(0.066250 0.071585 0.092500)(1.000000 1.000000 1.00 
*ASC_SAT 1.000000 
*SOURCE FILE: A017_06131600_C017
000087  A019_06131807_C010                         V     C        18:07:57:16 18:08:02:08 01:06:47:16 01:06:52:08 
*FROM CLIP NAME:  A019_06131807_C010 
*LOC: 01:06:49:04 CYAN    PNK_K1218_RBT_180 
*ASC_SOP (0.724601 0.699804 0.658850)(0.074400 0.082010 0.102650)(1.000000 1.000000 1.000000) 
*ASC_SAT 1.000000 
*SOURCE FILE: A019_06131807_C010
000088  A017_06131600_C017                         V     C        16:02:41:19 16:02:47:04 01:06:52:08 01:06:57:17 
*FROM CLIP NAME:  A017_06131600_C017 
*LOC: 01:06:55:05 CYAN    PNK_K1218_RBT_190 
*ASC_SOP (0.777751 0.748492 0.711500)(0.066250 0.071585 0.092500)(1.000000 1.000000 1.00 
*ASC_SAT 1.000000 
*SOURCE FILE: A017_06131600_C017
000089  A017_06131632_C026                         V     C        16:32:38:09 16:32:48:00 01:06:57:17 01:07:07:08 
*FROM CLIP NAME:  A017_06131632_C026 
*LOC: 01:07:00:11 CYAN    PNK_K1218_RBT_200 
*ASC_SOP (0.780000 0.748466 0.711750)(0.064000 0.071610 0.092250)(1.000000 1.000000 1.00 
*ASC_SAT 1.000000 
*SOURCE FILE: A017_06131632_C026
000090  A018_06131639_C001                         V     C        16:41:04:13 16:41:11:14 01:07:07:08 01:07:14:09 
*FROM CLIP NAME:  A018_06131639_C001 
*LOC: 01:07:10:02 CYAN    PNK_K1218_RBT_210 
*ASC_SOP (0.775001 0.750203 0.709250)(0.064000 0.071610 0.092250)(1.000000 1.000000 1.000000) 
*ASC_SAT 1.000000 
*SOURCE FILE: A018_06131639_C001
000091  A014_06122252_C001                         V     C        22:53:44:17 22:53:47:00 01:07:14:09 01:07:16:16 
*FROM CLIP NAME:  A014_06122252_C001 
*LOC: 01:07:15:07 CYAN    PNK_K1218_RBT_220 
*ASC_SOP (0.751849 0.716120 0.697099)(0.061650 0.074682 0.098900)(1.000000 1.000000 1.000000) 
*ASC_SAT 1.000000 
*SOURCE FILE: A014_06122252_C001
000092  A023_06141739_C015                         V     C        17:39:15:04 17:39:16:16 01:07:16:16 01:07:18:04 
*FROM CLIP NAME:  A023_06141739_C015 
*LOC: 01:07:17:10 CYAN    PNK_K1218_RBT_230 
*ASC_SOP (0.830350 0.829083 0.818350)(0.065650 0.066917 0.077650)(1.000000 1.000000 1.000000) 
*ASC_SAT 1.000000 
*SOURCE FILE: A023_06141739_C015
000093  A016_06131449_C023                         V     C        14:50:33:22 14:50:38:03 01:07:24:10 01:07:28:15 
*FROM CLIP NAME:  A016_06131449_C023 
*LOC: 01:07:25:14 CYAN    PNK_K1218_RBT_240 
*ASC_SOP (0.735351 0.706092 0.669100)(0.065650 0.070985 0.091900)(1.000000 1.000000 1.000000) 
*ASC_SAT 1.000000 
*SOURCE FILE: A016_06131449_C023
000094  A013_06122241_C009                         V     C        22:42:17:21 22:42:19:22 01:07:28:15 01:07:30:16 
*FROM CLIP NAME:  A013_06122241_C009 
*LOC: 01:07:29:18 CYAN    PNK_K1218_RBT_240 
*ASC_SOP (0.753599 0.715918 0.699099)(0.059900 0.074884 0.096900)(1.000000 1.000000 1.000000) 
*ASC_SAT 1.000000 
*SOURCE FILE: A013_06122241_C009
000095  A017_06131509_C008                         V     C        15:09:05:01 15:09:06:06 01:07:33:02 01:07:34:07 
*FROM CLIP NAME:  A017_06131509_C008 
*LOC: 01:07:33:12 CYAN    PNK_K1218_RBT_250 
*ASC_SOP (0.793751 0.764492 0.727500)(0.066250 0.071585 0.092500)(1.000000 1.000000 1.000000) 
*ASC_SAT 1.000000 
*SOURCE FILE: A017_06131509_C008
000096  A022_06141617_C006                         V     C        16:18:23:18 16:18:27:11 01:07:34:07 01:07:38:00 
*FROM CLIP NAME:  A022_06141617_C006 
*LOC: 01:07:35:18 CYAN    PNK_K1218_RBT_260 
*ASC_SOP (0.830350 0.829083 0.818350)(0.065650 0.066917 0.077650)(1.000000 1.000000 1.000000) 
*ASC_SAT 1.000000 
*SOURCE FILE: A022_06141617_C006
000097  A013_06122241_C009                         V     C        22:43:36:21 22:43:39:07 01:07:38:00 01:07:40:10 
*FROM CLIP NAME:  A013_06122241_C009 
*LOC: 01:07:38:22 CYAN    PNK_K1218_RBT_270 
*ASC_SOP (0.753599 0.715918 0.699099)(0.059900 0.074884 0.096900)(1.000000 1.000000 1.000000) 
*ASC_SAT 1.000000 
*SOURCE FILE: A013_06122241_C009
000098  A019_06131803_C007                         V     C        18:04:53:10 18:04:56:12 01:07:40:10 01:07:43:12 
*FROM CLIP NAME:  A019_06131803_C007 
*LOC: 01:07:42:11 CYAN    PNK_K1218_RBT_280 
*ASC_SOP (0.724601 0.699804 0.658850)(0.074400 0.082010 0.102650)(1.000000 1.000000 1.000000) 
*ASC_SAT 1.000000 
*SOURCE FILE: A019_06131803_C007
000099  A017_06131613_C021                         V     C        16:14:15:08 16:14:25:19 01:07:43:12 01:07:53:23 
*FROM CLIP NAME:  A017_06131613_C021 
*LOC: 01:07:47:22 CYAN    PNK_K1218_RBT_290 
*ASC_SOP (0.777751 0.748492 0.711500)(0.066250 0.071585 0.092500)(1.000000 1.000000 1.000000) 
*ASC_SAT 1.000000 
*SOURCE FILE: A017_06131613_C021
000100  A023_06141714_C003                         V     C        17:15:14:17 17:15:37:00 01:07:53:23 01:08:16:06 
*FROM CLIP NAME:  A023_06141714_C003 
*LOC: 01:08:00:11 CYAN    PNK_K1218_RBT_300 
*ASC_SOP (0.830350 0.829083 0.818350)(0.065650 0.066917 0.077650)(1.000000 1.000000 1.000000) 
*ASC_SAT 1.000000 
*SOURCE FILE: A023_06141714_C003
000101  A022_06141630_C017                         V     C        16:33:53:21 16:34:02:18 01:08:19:21 01:08:28:18 
*FROM CLIP NAME:  A022_06141630_C017 
*LOC: 01:08:23:22 CYAN    PNK_K1218_RBT_310 
*ASC_SOP (0.830350 0.829083 0.818350)(0.065650 0.066917 0.077650)(1.000000 1.000000 1.000000) 
*ASC_SAT 1.000000 
*SOURCE FILE: A022_06141630_C017
000102  C006_06141639_C001                         V     C        16:42:43:23 16:42:46:22 01:08:28:18 01:08:31:17 
*FROM CLIP NAME:  C006_06141639_C001 
*LOC: 01:08:30:05 CYAN    PNK_K1218_RBT_320 
*ASC_SOP (0.902850 0.885785 0.881600)(0.031150 0.035497 0.039900)(1.000000 1.000000 1.000000) 
*ASC_SAT 1.000000 
*SOURCE FILE: C006_06141639_C001
000103  A022_06141630_C017                         V     C        16:34:46:03 16:34:49:04 01:08:36:21 01:08:39:22 
*FROM CLIP NAME:  A022_06141630_C017 
*LOC: 01:08:37:22 CYAN    PNK_K1218_RBT_330 
*ASC_SOP (0.830350 0.829083 0.818350)(0.065650 0.066917 0.077650)(1.000000 1.000000 1.000000) 
*ASC_SAT 1.000000 
*SOURCE FILE: A022_06141630_C017
000104  A022_06141630_C017                         V     C        16:35:42:07 16:35:45:14 01:08:43:05 01:08:46:12 
*FROM CLIP NAME:  A022_06141630_C017 
*LOC: 01:08:44:17 CYAN    PNK_K1218_RBT_340 
*ASC_SOP (0.830350 0.829083 0.818350)(0.065650 0.066917 0.077650)(1.000000 1.000000 1.000000) 
*ASC_SAT 1.000000 
*SOURCE FILE: A022_06141630_C017
000105  L020C001_190630CN                          V     C        20:36:38:10 20:36:39:20 01:08:46:12 01:08:47:22 
*FROM CLIP NAME:  L020C001_190630CN 
*LOC: 01:08:47:04 CYAN    PNK_K1218_BET_010 
*ASC_SOP (0.529500 0.536597 0.541000)(0.204500 0.197403 0.193000)(1.000000 1.000000 1.000000) 
*ASC_SAT 1.000000 
*SOURCE FILE: L020C001_190630CN
000106  D020C001_1801128V                          V     C        20:36:41:11 20:36:43:12 01:08:49:13 01:08:51:14 
*FROM CLIP NAME:  D020C001_1801128V 
*LOC: 01:08:49:23 CYAN    PNK_K1218_BET_020 
*ASC_SOP (0.491800 0.491800 0.491800)(0.199200 0.199200 0.199200)(1.000000 1.000000 1.000000) 
*ASC_SAT 1.000000 
*SOURCE FILE: D020C001_1801128V
000107  D020C001_1801128V                          V     C        20:36:44:19 20:36:48:02 01:08:52:21 01:08:56:04 
*FROM CLIP NAME:  D020C001_1801128V 
*LOC: 01:08:54:05 CYAN    PNK_K1218_BET_030 
*ASC_SOP (0.491800 0.491800 0.491800)(0.199200 0.199200 0.199200)(1.000000 1.000000 1.000000) 
*ASC_SAT 1.000000 
*SOURCE FILE: D020C001_1801128V
000108  HOTH_1_S001_S001_T012                      V     C        20:38:30:08 20:38:33:20 01:08:56:04 01:08:59:16 
*FROM CLIP NAME:  HOTH_1_S001_S001_T012 
*LOC: 01:08:58:04 CYAN    PNK_K1218_BET_040 
*ASC_SOP (1.000000 1.000000 1.000000)(0.000000 0.000000 0.000000)(1.000000 1.000000 1.000000) 
*ASC_SAT 1.000000 
*SOURCE FILE: HOTH_1_S001_S001_T012
000109  A001C005_150315U4                          V     C        11:51:08:10 11:51:12:12 01:08:59:16 01:09:03:18 
*FROM CLIP NAME:  A001C005-150315U4A 
*LOC: 01:09:02:06 CYAN    PNK_K1218_BET_050 
*ASC_SOP (0.572200 0.572200 0.572200)(0.156800 0.156800 0.156800)(1.000000 1.000000 1.000000) 
*ASC_SAT 1.000000 
*SOURCE FILE: A001C005_150315U4
000110  C020C001_190630TR                          V     C        20:37:01:19 20:37:05:00 01:09:09:21 01:09:13:02 
*FROM CLIP NAME:  C020C001_190630TR 
*LOC: 01:09:10:22 CYAN    PNK_K1218_BET_060 
*ASC_SOP (0.491800 0.491800 0.491800)(0.199200 0.199200 0.199200)(1.000000 1.000000 1.000000) 
*ASC_SAT 1.000000 
*SOURCE FILE: C020C001_190630TR
000111  R020C001_180112ER                          V     C        20:37:05:00 20:37:06:10 01:09:13:02 01:09:14:12 
*FROM CLIP NAME:  R020C001_180112ER 
*LOC: 01:09:13:19 CYAN    PNK_K1218_BET_070 
*ASC_SOP (0.431451 0.422236 0.428701)(0.199050 0.193564 0.174300)(1.000000 1.000000 1.000000) 
*ASC_SAT 1.000000 
*SOURCE FILE: R020C001_180112ER
000112  E020C001_19063027                          V     C        20:37:06:10 20:37:08:14 01:09:14:12 01:09:16:16 
*FROM CLIP NAME:  E020C001_19063027 
*LOC: 01:09:15:10 CYAN    PNK_K1218_BET_080 
*ASC_SOP (0.442400 0.442400 0.442400)(0.199600 0.199600 0.199600)(1.000000 1.000000 1.000000) 
*ASC_SAT 1.000000 
*SOURCE FILE: E020C001_19063027
000113  B020C002_190630LD                          V     C        20:37:08:14 20:37:11:03 01:09:16:16 01:09:19:05 
*FROM CLIP NAME:  B020C002_190630LD 
*LOC: 01:09:17:11 CYAN    PNK_K1218_BET_090 
*ASC_SOP (0.540400 0.540400 0.540400)(0.192600 0.192600 0.192600)(1.000000 1.000000 1.000000) 
*ASC_SAT 1.000000 
*SOURCE FILE: B020C002_190630LD
000114  K020C001_19073099                          V     C        20:37:11:03 20:37:12:01 01:09:19:05 01:09:20:03 
*FROM CLIP NAME:  K020C001_19073099 
*LOC: 01:09:19:18 CYAN    PNK_K1218_BET_100 
*ASC_SOP (0.404300 0.404300 0.404300)(0.202700 0.202700 0.202700)(1.000000 1.000000 1.000000) 
*ASC_SAT 1.000000 
*SOURCE FILE: K020C001_19073099
000115  M020C001_190630SQ                          V     C        20:37:12:22 20:37:13:17 01:09:21:00 01:09:21:19 
*FROM CLIP NAME:  M020C001_190630SQ 
*LOC: 01:09:21:11 CYAN    PNK_K1218_BET_110 
*ASC_SOP (0.529500 0.536597 0.541000)(0.204500 0.197403 0.193000)(1.000000 1.000000 1.000000) 
*ASC_SAT 1.000000 
*SOURCE FILE: M020C001_190630SQ
000116  Q020C004_1905300B                          V     C        20:37:13:16 20:37:14:20 01:09:21:19 01:09:22:23 
*FROM CLIP NAME:  Q020C004_1905300B 
*LOC: 01:09:22:08 CYAN    PNK_K1218_BET_120 
*ASC_SOP (0.476400 0.471986 0.477901)(0.205100 0.194814 0.176100)(1.000000 1.000000 1.000000) 
*ASC_SAT 1.000000 
*SOURCE FILE: Q020C004_1905300B
000117  A068_06261337_C022                         V     C        13:48:18:01 13:48:22:20 01:09:25:13 01:09:30:08 
*FROM CLIP NAME:  A068_06261337_C022.SUB.02 
*LOC: 01:09:28:01 CYAN    PNK_K1218_WIJ_010 
*ASC_SOP (0.640949 0.620544 0.603700)(0.095050 0.103242 0.114800)(1.000000 1.000000 1.000000) 
*ASC_SAT 1.000000 
*SOURCE FILE: A068_06261337_C022
000118  B011_06261337_C007                         V     C        13:49:25:05 13:49:28:04 01:09:48:22 01:09:51:21 
*FROM CLIP NAME:  B011_06261337_C007.SUB.01-- 
*LOC: 01:09:50:07 CYAN    PNK_K1218_WIJ_020 
*ASC_SOP (0.710350 0.719197 0.723600)(0.064650 0.055803 0.051400)(1.000000 1.000000 1.000000) 
*ASC_SAT 1.000000 
*SOURCE FILE: B011_06261337_C007
000119  B013_06301506_C121                         V     C        15:06:46:01 15:06:50:17 01:09:51:21 01:09:56:13 
*FROM CLIP NAME:  B013_06301506_C121 
*LOC: 01:09:53:11 CYAN    PNK_K1218_WIJ_030 
*ASC_SOP (0.585418 0.590527 0.581394)(0.069622 0.064511 0.073644)(0.945000 0.945000 0.945000) 
*ASC_SAT 1.000000 
*SOURCE FILE: B013_06301506_C121
000120  B013_06301519_C127                         V     C        15:19:57:09 15:20:03:07 01:09:56:13 01:10:02:11 
*FROM CLIP NAME:  B013_06301519_C127 
*LOC: 01:09:59:01 CYAN    PNK_K1218_WIJ_040 
*ASC_SOP (0.576418 0.581527 0.572394)(0.069622 0.064511 0.073644)(0.945000 0.945000 0.945000) 
*ASC_SAT 1.000000 
*SOURCE FILE: B013_06301519_C127
000121  A068_06261337_C022                         V     C        13:51:10:12 13:51:13:04 01:10:02:11 01:10:05:03 
*FROM CLIP NAME:  A068_06261337_C022.SUB.02 
*LOC: 01:10:03:10 CYAN    PNK_K1218_WIJ_050 
*ASC_SOP (0.640949 0.620544 0.603700)(0.095050 0.103242 0.114800)(1.000000 1.000000 1.000000) 
*ASC_SAT 1.000000 
*SOURCE FILE: A068_06261337_C022
000122  B011_06261337_C007                         V     C        13:49:56:10 13:49:59:18 01:10:05:03 01:10:08:11 
*FROM CLIP NAME:  B011_06261337_C007.SUB.01-- 
*LOC: 01:10:06:20 CYAN    PNK_K1218_WIJ_060 
*ASC_SOP (0.710350 0.719197 0.723600)(0.064650 0.055803 0.051400)(1.000000 1.000000 1.000000) 
*ASC_SAT 1.000000 
*SOURCE FILE: B011_06261337_C007
000123  A068_06261337_C022                         V     C        13:51:30:17 13:51:34:09 01:10:08:11 01:10:12:03 
*FROM CLIP NAME:  A068_06261337_C022.SUB.02 
*LOC: 01:10:11:07 CYAN    PNK_K1218_WIJ_070 
*ASC_SOP (0.640949 0.620544 0.603700)(0.095050 0.103242 0.114800)(1.000000 1.000000 1.000000) 
*ASC_SAT 1.000000 
*SOURCE FILE: A068_06261337_C022
000124  B011_06261337_C007                         V     C        13:50:12:00 13:50:16:10 01:10:17:16 01:10:22:02 
*FROM CLIP NAME:  B011_06261337_C007.SUB.01-- 
*LOC: 01:10:19:07 CYAN    PNK_K1218_WIJ_080 
*ASC_SOP (0.710350 0.719197 0.723600)(0.064650 0.055803 0.051400)(1.000000 1.000000 1.000000) 
*ASC_SAT 1.000000 
*SOURCE FILE: B011_06261337_C007
000125  A068_06261337_C022                         V     C        13:51:47:09 13:51:57:02 01:10:22:02 01:10:31:19 
*FROM CLIP NAME:  A068_06261337_C022.SUB.02 
*LOC: 01:10:25:16 CYAN    PNK_K1218_WIJ_090 
*ASC_SOP (0.640949 0.620544 0.603700)(0.095050 0.103242 0.114800)(1.000000 1.000000 1.000000) 
*ASC_SAT 1.000000 
*SOURCE FILE: A068_06261337_C022
000126  B011_06261337_C007                         V     C        13:50:29:07 13:50:36:19 01:10:31:19 01:10:39:07 
*FROM CLIP NAME:  B011_06261337_C007.SUB.01-- 
*LOC: 01:10:36:00 CYAN    PNK_K1218_WIJ_100 
*ASC_SOP (0.710350 0.719197 0.723600)(0.064650 0.055803 0.051400)(1.000000 1.000000 1.000000) 
*ASC_SAT 1.000000 
*SOURCE FILE: B011_06261337_C007
000127  A033_06161335_C013                         V     C        13:36:17:13 13:36:33:16 01:10:43:04 01:10:59:07 
*FROM CLIP NAME:  A033_06161335_C013 
*LOC: 01:10:49:22 CYAN    PNK_K1218_AHS2_010 
*ASC_SOP (0.632700 0.632700 0.632700)(0.039300 0.039300 0.039300)(1.000000 1.000000 1.00 
*ASC_SAT 1.000000 
*SOURCE FILE: A033_06161335_C013
000128  A033_06161335_C013                         V     C        13:36:57:04 13:37:02:17 01:11:04:14 01:11:10:03 
*FROM CLIP NAME:  A033_06161335_C013 
*LOC: 01:11:06:23 CYAN    PNK_K1218_AHS2_020 
*ASC_SOP (0.632700 0.632700 0.632700)(0.039300 0.039300 0.039300)(1.000000 1.000000 1.00 
*ASC_SAT 1.000000 
*SOURCE FILE: A033_06161335_C013
000129  A033_06161335_C013                         V     C        13:37:16:02 13:37:39:10 01:11:10:03 01:11:33:11 
*FROM CLIP NAME:  A033_06161335_C013 
*LOC: 01:11:20:16 CYAN    PNK_K1218_AHS2_030 
*ASC_SOP (0.632700 0.632700 0.632700)(0.039300 0.039300 0.039300)(1.000000 1.000000 1.00 
*ASC_SAT 1.000000 
*SOURCE FILE: A033_06161335_C013
000130  A033_06161355_C024                         V     C        13:56:36:10 13:56:45:20 01:11:46:13 01:11:55:23 
*FROM CLIP NAME:  A033_06161355_C024 
*LOC: 01:11:51:11 CYAN    PNK_K1218_AHS2_040 
*ASC_SOP (0.604350 0.577940 0.557850)(0.067650 0.094060 0.114150)(1.000000 1.000000 1.000000) 
*ASC_SAT 1.000000 
*SOURCE FILE: A033_06161355_C024
000131  A033_06161359_C027                         V     C        14:00:11:06 14:00:24:04 01:12:05:04 01:12:18:02 
*FROM CLIP NAME:  A033_06161359_C027 
*LOC: 01:12:08:12 CYAN    PNK_K1218_AHS2_050 
*ASC_SOP (0.618050 0.591640 0.571550)(0.053950 0.080360 0.100450)(1.000000 1.000000 1.000000) 
*ASC_SAT 1.000000 
*SOURCE FILE: A033_06161359_C027
000132  A033_06161404_C032                         V     C        14:04:19:08 14:04:22:11 01:12:18:02 01:12:21:05 
*FROM CLIP NAME:  A033_06161404_C032 
*LOC: 01:12:19:18 CYAN    PNK_K1218_AHS2_060 
*ASC_SOP (0.634750 0.592631 0.570750)(0.065750 0.092160 0.112250)(1.000000 1.000000 1.000000) 
*ASC_SAT 1.000000 
*SOURCE FILE: A033_06161404_C032
000133  A033_06161404_C033                         V     C        14:04:47:04 14:04:49:10 01:12:21:05 01:12:23:11 
*FROM CLIP NAME:  A033_06161404_C033 
*LOC: 01:12:22:03 CYAN    PNK_K1218_AHS2_070 
*ASC_SOP (0.617250 0.574656 0.552500)(0.065250 0.092135 0.112500)(1.000000 1.000000 1.000000) 
*ASC_SAT 1.000000 
*SOURCE FILE: A033_06161404_C033
000134  A033_06161409_C039                         V     C        14:09:42:16 14:10:14:14 01:12:26:08 01:12:58:06 
*FROM CLIP NAME:  A033_06161409_C039 
*LOC: 01:12:32:13 CYAN    PNK_K1218_AHS2_080 
*ASC_SOP (0.682100 0.683778 0.690850)(0.061400 0.056228 0.052650)(1.000000 1.000000 1.00 
*ASC_SAT 1.000000 
*SOURCE FILE: A033_06161409_C039
000135  A024_06142116_C024                         V     C        21:16:16:04 21:16:20:20 01:13:02:12 01:13:07:04 
*FROM CLIP NAME:  A024_06142116_C024 
*LOC: 01:13:04:17 CYAN    PNK_K1218_REH_010 
*ASC_SOP (0.869600 0.869600 0.869600)(0.031400 0.031400 0.031400)(1.000000 1.000000 1.000000) 
*ASC_SAT 1.000000 
*SOURCE FILE: A024_06142116_C024
000136  A024_06142120_C026                         V     C        21:21:52:18 21:21:58:00 01:13:12:10 01:13:17:16 
*FROM CLIP NAME:  A024_06142120_C026 
*LOC: 01:13:15:00 CYAN    PNK_K1218_REH_020 
*ASC_SOP (0.869600 0.869600 0.869600)(0.031400 0.031400 0.031400)(1.000000 1.000000 1.000000) 
*ASC_SAT 1.000000 
*SOURCE FILE: A024_06142120_C026
000137  A024_06142124_C029                         V     C        21:24:38:12 21:24:42:17 01:13:17:16 01:13:21:21 
*FROM CLIP NAME:  A024_06142124_C029 
*LOC: 01:13:19:02 CYAN    PNK_K1218_REH_030 
*ASC_SOP (0.849600 0.849600 0.849600)(0.031400 0.031400 0.031400)(1.000000 1.000000 1.00 
*ASC_SAT 1.000000 
*SOURCE FILE: A024_06142124_C029
000138  A024_06142125_C030                         V     C        21:25:24:19 21:25:31:05 01:13:24:20 01:13:31:06 
*FROM CLIP NAME:  A024_06142125_C030 
*LOC: 01:13:27:10 CYAN    PNK_K1218_REH_040 
*ASC_SOP (0.849600 0.849600 0.849600)(0.031400 0.031400 0.031400)(1.000000 1.000000 1.000000) 
*ASC_SAT 1.000000 
*SOURCE FILE: A024_06142125_C030
000139  A040_06181737_C053                         V     C        17:37:38:19 17:37:46:05 01:13:31:06 01:13:38:16 
*FROM CLIP NAME:  A040_06181737_C053.SUB.01 
*LOC: 01:13:34:02 CYAN    PNK_K1218_REH_050 
*ASC_SOP (0.666895 0.648397 0.640432)(0.070184 0.070130 0.071595)(1.000750 0.999752 1.000250) 
*ASC_SAT 1.000000 
*SOURCE FILE: A040_06181737_C053
000140  B006_06181735_C008                         V     C        17:36:25:20 17:36:30:16 01:13:38:16 01:13:43:12 
*FROM CLIP NAME:  B006_06181735_C008.SUB.03 
*LOC: 01:13:40:12 CYAN    PNK_K1218_REH_060 
*ASC_SOP (0.710401 0.718993 0.728900)(0.093600 0.085007 0.075100)(1.000000 1.000000 1.000000) 
*ASC_SAT 1.000000 
*SOURCE FILE: B006_06181735_C008
000141  A040_06181737_C053                         V     C        17:38:53:03 17:38:56:03 01:13:43:12 01:13:46:12 
*FROM CLIP NAME:  A040_06181737_C053.SUB.02 
*LOC: 01:13:44:10 CYAN    PNK_K1218_REH_070 
*ASC_SOP (0.666895 0.648397 0.640432)(0.070184 0.070130 0.071595)(1.000750 0.999752 1.000250) 
*ASC_SAT 1.000000 
*SOURCE FILE: A040_06181737_C053
000142  A077_06291456_C014                         V     C        14:56:13:23 14:56:17:06 01:13:51:12 01:13:54:19 
*FROM CLIP NAME:  A077_06291456_C014 
*LOC: 01:13:52:22 CYAN    PNK_K1216_TOW_010 
*ASC_SOP (0.640650 0.627262 0.645150)(0.077350 0.088722 0.092850)(1.000000 1.000000 1.000000) 
*ASC_SAT 1.000000 
*SOURCE FILE: A077_06291456_C014
000143  A077_06291457_C015                         V     C        14:57:55:02 14:57:59:02 01:13:54:19 01:13:58:19 
*FROM CLIP NAME:  A077_06291457_C015 
*LOC: 01:13:56:20 CYAN    PNK_K1216_TOW_020 
*ASC_SOP (0.634851 0.621462 0.639350)(0.083150 0.094522 0.098650)(1.000000 1.000000 1.000000) 
*ASC_SAT 1.000000 
*SOURCE FILE: A077_06291457_C015
000144  A077_06291459_C018                         V     C        15:00:05:20 15:00:11:02 01:13:58:19 01:14:04:01 
*FROM CLIP NAME:  A077_06291459_C018 
*LOC: 01:14:01:02 CYAN    PNK_K1216_TOW_030 
*ASC_SOP (0.822000 0.788458 0.738750)(0.050000 0.050176 0.048250)(1.000000 1.000000 1.000000) 
*ASC_SAT 1.000000 
*SOURCE FILE: A077_06291459_C018
000145  A077_06291459_C018                         V     C        15:00:33:19 15:00:35:19 01:14:04:01 01:14:06:01 
*FROM CLIP NAME:  A077_06291459_C018 
*LOC: 01:14:05:05 CYAN    PNK_K1216_TOW_040 
*ASC_SOP (0.822000 0.788458 0.738750)(0.050000 0.050176 0.048250)(1.000000 1.000000 1.000000) 
*ASC_SAT 1.000000 
*SOURCE FILE: A077_06291459_C018
000146  A077_06291500_C019                         V     C        15:01:03:15 15:01:13:06 01:14:06:01 01:14:15:16 
*FROM CLIP NAME:  A077_06291500_C019 
*LOC: 01:14:10:04 CYAN    PNK_K1216_TOW_050 
*ASC_SOP (0.748100 0.748100 0.748100)(0.056900 0.056900 0.056900)(1.000000 1.000000 1.000000) 
*ASC_SAT 1.000000 
*SOURCE FILE: A077_06291500_C019
000147  A077_06291507_C029                         V     C        15:07:45:11 15:07:56:14 01:14:32:13 01:14:43:16 
*FROM CLIP NAME:  A077_06291507_C029 
*LOC: 01:14:36:07 CYAN    PNK_K1216_TOW_060 
*ASC_SOP (0.663400 0.663400 0.663400)(0.071600 0.071600 0.071600)(1.000000 1.000000 1.000000) 
*ASC_SAT 1.000000 
*SOURCE FILE: A077_06291507_C029
000148  A077_06291526_C042                         V     C        15:26:35:19 15:26:43:07 01:14:43:16 01:14:51:04 
*FROM CLIP NAME:  A077_06291526_C042 
*LOC: 01:14:47:10 CYAN    PNK_K1216_TOW_070 
*ASC_SOP (0.590001 0.590001 0.590001)(0.087000 0.087000 0.087000)(1.000000 1.000000 1.000000) 
*ASC_SAT 1.000000 
*SOURCE FILE: A077_06291526_C042
000149  A077_06291548_C050                         V     C        15:48:22:09 15:48:25:16 01:14:51:04 01:14:54:11 
*FROM CLIP NAME:  A077_06291548_C050 
*LOC: 01:14:52:20 CYAN    PNK_K1216_TOW_080 
*ASC_SOP (0.656900 0.656900 0.656900)(0.065100 0.065100 0.065100)(1.000000 1.000000 1.000000) 
*ASC_SAT 1.000000 
*SOURCE FILE: A077_06291548_C050
000150  A077_06291608_C060                         V     C        16:09:11:01 16:09:25:22 01:14:54:11 01:15:09:08 
*FROM CLIP NAME:  A077_06291608_C060 
*LOC: 01:15:00:00 CYAN    PNK_K1216_TOW_090 
*ASC_SOP (0.774600 0.774600 0.774600)(0.068400 0.068400 0.068400)(1.000000 1.000000 1.00 
*ASC_SAT 1.000000 
*SOURCE FILE: A077_06291608_C060
000151  A064_06251851_C010                         V     C        18:51:32:03 18:51:37:06 01:15:25:22 01:15:31:01 
*FROM CLIP NAME:  A064_06251851_C010 
*LOC: 01:15:28:00 CYAN    PNK_K1216_HAR_010 
*ASC_SOP (0.604101 0.600814 0.582101)(0.088900 0.092186 0.110900)(1.000000 1.000000 1.000000) 
*ASC_SAT 1.000000 
*SOURCE FILE: A064_06251851_C010
000152  B010_06251849_C031                         V     C        18:50:13:12 18:50:16:03 01:15:31:01 01:15:33:16 
*FROM CLIP NAME:  B010_06251849_C031 
*LOC: 01:15:32:11 CYAN    PNK_K1216_HAR_020 
*ASC_SOP (0.728500 0.728500 0.728500)(0.021500 0.021500 0.021500)(1.000000 1.000000 1.00 
*ASC_SAT 1.000000 
*SOURCE FILE: B010_06251849_C031
000153  B010_06251849_C031                         V     C        18:51:42:00 18:51:50:05 01:15:33:16 01:15:41:21 
*FROM CLIP NAME:  B010_06251849_C031 
*LOC: 01:15:38:03 CYAN    PNK_K1216_HAR_030 
*ASC_SOP (0.728500 0.728500 0.728500)(0.021500 0.021500 0.021500)(1.000000 1.000000 1.00 
*ASC_SAT 1.000000 
*SOURCE FILE: B010_06251849_C031
000154  A064_06251851_C010                         V     C        18:56:37:19 18:56:42:20 01:15:41:21 01:15:46:22 
*FROM CLIP NAME:  A064_06251851_C010 
*LOC: 01:15:44:00 CYAN    PNK_K1216_HAR_040 
*ASC_SOP (0.604101 0.600814 0.582101)(0.088900 0.092186 0.110900)(1.000000 1.000000 1.000000) 
*ASC_SAT 1.000000 
*SOURCE FILE: A064_06251851_C010
000155  B010_06251849_C031                         V     C        18:57:06:19 18:57:11:06 01:15:46:22 01:15:51:09 
*FROM CLIP NAME:  B010_06251849_C031 
*LOC: 01:15:49:09 CYAN    PNK_K1216_HAR_050 
*ASC_SOP (0.728500 0.728500 0.728500)(0.021500 0.021500 0.021500)(1.000000 1.000000 1.00 
*ASC_SAT 1.000000 
*SOURCE FILE: B010_06251849_C031
000156  A064_06251857_C011                         V     C        19:01:53:02 19:01:55:09 01:15:51:09 01:15:53:16 
*FROM CLIP NAME:  A064_06251857_C011 
*LOC: 01:15:52:21 CYAN    PNK_K1216_HAR_060 
*ASC_SOP (0.604101 0.600814 0.582101)(0.088900 0.092186 0.110900)(1.000000 1.000000 1.000000) 
*ASC_SAT 1.000000 
*SOURCE FILE: A064_06251857_C011
000157  A064_06251904_C015                         V     C        19:04:45:23 19:04:49:07 01:15:53:16 01:15:57:00 
*FROM CLIP NAME:  A064_06251904_C015 
*LOC: 01:15:55:03 CYAN    PNK_K1216_HAR_070 
*ASC_SOP (0.604101 0.600814 0.582101)(0.088900 0.092186 0.110900)(1.000000 1.000000 1.000000) 
*ASC_SAT 1.000000 
*SOURCE FILE: A064_06251904_C015
000158  B010_06251849_C031                         V     C        19:02:56:23 19:03:02:01 01:15:57:00 01:16:02:02 
*FROM CLIP NAME:  B010_06251849_C031 
*LOC: 01:15:59:22 CYAN    PNK_K1216_HAR_080 
*ASC_SOP (0.728500 0.728500 0.728500)(0.021500 0.021500 0.021500)(1.000000 1.000000 1.00 
*ASC_SAT 1.000000 
*SOURCE FILE: B010_06251849_C031
000159  A064_06251905_C016                         V     C        19:06:00:05 19:06:05:23 01:16:02:02 01:16:07:20 
*FROM CLIP NAME:  A064_06251905_C016 
*LOC: 01:16:05:00 CYAN    PNK_K1216_HAR_090 
*ASC_SOP (0.604101 0.600814 0.582101)(0.088900 0.092186 0.110900)(1.000000 1.000000 1.000000) 
*ASC_SAT 1.000000 
*SOURCE FILE: A064_06251905_C016
000160  B010_06251910_C033                         V     C        19:10:57:12 19:11:00:15 01:16:07:20 01:16:10:23 
*FROM CLIP NAME:  B010_06251910_C033 
*LOC: 01:16:09:12 CYAN    PNK_K1216_HAR_100 
*ASC_SOP (0.712600 0.706356 0.698100)(0.070400 0.076644 0.084900)(1.000000 1.000000 1.00 
*ASC_SAT 1.000000 
*SOURCE FILE: B010_06251910_C033
000161  A064_06251909_C020                         V     C        19:10:20:15 19:10:25:04 01:16:10:23 01:16:15:12 
*FROM CLIP NAME:  A064_06251909_C020 
*LOC: 01:16:13:05 CYAN    PNK_K1216_HAR_110 
*ASC_SOP (0.604101 0.600814 0.582101)(0.088900 0.092186 0.110900)(1.000000 1.000000 1.000000) 
*ASC_SAT 1.000000 
*SOURCE FILE: A064_06251909_C020
000162  B010_06251910_C033                         V     C        19:11:16:02 19:11:19:18 01:16:15:12 01:16:19:04 
*FROM CLIP NAME:  B010_06251910_C033 
*LOC: 01:16:16:20 CYAN    PNK_K1216_HAR_120 
*ASC_SOP (0.712600 0.706356 0.698100)(0.070400 0.076644 0.084900)(1.000000 1.000000 1.00 
*ASC_SAT 1.000000 
*SOURCE FILE: B010_06251910_C033
000163  A064_06251912_C021                         V     C        19:12:47:08 19:12:49:03 01:16:19:04 01:16:20:23 
*FROM CLIP NAME:  A064_06251912_C021 
*LOC: 01:16:19:22 CYAN    PNK_K1216_HAR_130 
*ASC_SOP (0.604101 0.600814 0.582101)(0.088900 0.092186 0.110900)(1.000000 1.000000 1.000000) 
*ASC_SAT 1.000000 
*SOURCE FILE: A064_06251912_C021
000164  PINK_TIMELAPSE_2020_02_10_5-30MBPS         V     C        00:00:51:03 00:00:53:00 01:16:33:15 01:16:35:12 
*FROM CLIP NAME:  PINK_TIMELAPSE_2020_02_10 5-30MBPS 
*LOC: 01:16:34:08 CYAN    PNK_K1221_TML_010 
*SOURCE FILE: PINK_TIMELAPSE_2020_02_10 5-30MBPS
000165  PINK_TIMELAPSE_2020_02_10_5-30MBPS         V     C        00:00:53:12 00:00:54:20 01:16:35:12 01:16:36:20 
*FROM CLIP NAME:  PINK_TIMELAPSE_2020_02_10 5-30MBPS 
*LOC: 01:16:36:01 CYAN    PNK_K1221_TML_020 
*SOURCE FILE: PINK_TIMELAPSE_2020_02_10 5-30MBPS
000166  PINK_TIMELAPSE_2020_02_10_5-30MBPS         V     C        00:00:55:08 00:01:00:06 01:16:36:20 01:16:41:18 
*FROM CLIP NAME:  PINK_TIMELAPSE_2020_02_10 5-30MBPS 
*LOC: 01:16:37:14 CYAN    PNK_K1221_TML_030 
*SOURCE FILE: PINK_TIMELAPSE_2020_02_10 5-30MBPS
000167  PINK_TIMELAPSE_2020_02_10_5-30MBPS         V     C        00:01:00:17 00:01:04:06 01:16:41:18 01:16:45:07 
*FROM CLIP NAME:  PINK_TIMELAPSE_2020_02_10 5-30MBPS 
*LOC: 01:16:42:19 CYAN    PNK_K1221_TML_040 
*SOURCE FILE: PINK_TIMELAPSE_2020_02_10 5-30MBPS
000168  B013_06302223_C169                         V     C        22:25:53:08 22:26:07:13 01:17:29:20 01:17:44:01 
*FROM CLIP NAME:  B013_06302223_C169 
*LOC: 01:17:35:22 CYAN    PNK_F1026_WAU_020 
*ASC_SOP (0.596951 0.586118 0.582951)(0.083550 0.078170 0.085050)(1.000000 1.000000 1.000000) 
*ASC_SAT 1.000000 
*SOURCE FILE: B013_06302223_C169
000169  E021C001_1906307F                          V     C        21:28:20:05 21:28:25:13 01:18:19:09 01:18:24:17 
*FROM CLIP NAME:  E021C001_1906307F.MOV 
*LOC: 01:18:21:09 CYAN    PNK_K1228_WAU_140 
*ASC_SAT 1.000000 
*SOURCE FILE: E021C001_1906307F
000170  S020C002_190630OB                          V     C        21:30:21:08 21:30:21:19 01:19:17:23 01:19:18:10 
*FROM CLIP NAME:  S020C002_190630OB 
*LOC: 01:19:18:03 CYAN    PNK_K1216_WAU_435 
*ASC_SOP (0.431451 0.422236 0.428701)(0.199050 0.193564 0.174300)(1.000000 1.000000 1.000000) 
*ASC_SAT 1.000000 
*SOURCE FILE: S020C002_190630OB
000171  E002C001_1906298Q                          V     C        21:32:10:03 21:32:11:16 01:20:27:15 01:20:29:04 
*FROM CLIP NAME:  E002C001_1906298Q.MOV 
*LOC: 01:20:28:06 CYAN    PNK_K1228_WAU_715 
*ASC_SAT 1.000000 
*SOURCE FILE: E002C001_1906298Q
000172  C020C003_190630K0                          V     C        21:31:38:03 21:31:38:15 01:20:30:05 01:20:30:17 
*FROM CLIP NAME:  C020C003_190630K0.MOV 
*LOC: 01:20:30:10 CYAN    PNK_K1228_WAU_725 
*ASC_SAT 1.000000 
*SOURCE FILE: C020C003_190630K0
000173  J021C003_190630WJ                          V     C        21:42:20:06 21:42:22:05 01:21:26:23 01:21:28:22 
*FROM CLIP NAME:  J021C003_190630WJ 
*LOC: 01:21:27:23 CYAN    PNK_K1228_IAH_020 
*ASC_SOP (0.634100 0.634100 0.634100)(0.197900 0.197900 0.197900)(1.000000 1.000000 1.000000) 
*ASC_SAT 1.000000 
*SOURCE FILE: J021C003_190630WJ
000174  G021C001_190630DH                          V     C        21:42:20:06 21:42:23:06 01:21:31:21 01:21:34:21 
*FROM CLIP NAME:  G021C001_190630DH.MOV 
*LOC: 01:21:32:14 CYAN    PNK_K1228_IAH_030 
*ASC_SAT 1.000000 
*SOURCE FILE: G021C001_190630DH
000175  J021C003_190630WJ                          V     C        21:52:25:05 21:52:26:20 01:21:58:04 01:21:59:19 
*FROM CLIP NAME:  J021C003_190630WJ 
*LOC: 01:21:59:01 CYAN    PNK_K1216_IAH_095 
*ASC_SAT 1.000000 
*SOURCE FILE: J021C003_190630WJ
000176  C021C001_190630W2                          V     C        21:52:39:21 21:52:42:08 01:22:12:20 01:22:15:07 
*FROM CLIP NAME:  C021C001_190630W2 
*LOC: 01:22:14:01 CYAN    PNK_K1216_IAH_155 
*ASC_SOP (0.491800 0.491800 0.491800)(0.199200 0.199200 0.199200)(1.000000 1.000000 1.000000) 
*ASC_SAT 1.000000 
*SOURCE FILE: C021C001_190630W2
000177  A020C001_180111N6                          V     C        21:54:22:05 21:54:24:13 01:22:51:08 01:22:53:16 
*FROM CLIP NAME:  A020C001_180111N6.MOV 
*LOC: 01:22:52:04 CYAN    PNK_K1228_IAH_265 
*ASC_SAT 1.000000 
*SOURCE FILE: A020C001_180111N6
000178  B020C002_190630LD                          V     C        21:54:24:13 21:54:27:10 01:22:53:16 01:22:56:13 
*FROM CLIP NAME:  B020C002_190630LD.MOV 
*LOC: 01:22:54:11 CYAN    PNK_K1221_IAH_270 
*ASC_SAT 1.000000 
*SOURCE FILE: B020C002_190630LD
000179  B020C002_190630LD                          V     C        21:54:32:05 21:54:34:19 01:23:01:08 01:23:03:22 
*FROM CLIP NAME:  B020C002_190630LD.MOV 
*LOC: 01:23:02:08 CYAN    PNK_K1221_IAH_300 
*ASC_SAT 1.000000 
*SOURCE FILE: B020C002_190630LD
000180  N021C003_180113TJ                          V     C        21:55:06:08 21:55:09:02 01:23:35:11 01:23:38:05 
*FROM CLIP NAME:  N021C003_180113TJ 
*LOC: 01:23:36:23 CYAN    PNK_K1216_IAH_370 
*ASC_SOP (0.458250 0.470765 0.484251)(0.210750 0.198235 0.184750)(1.000000 1.000000 1.000000) 
*ASC_SAT 1.000000 
*SOURCE FILE: N021C003_180113TJ
000181  C021C001_190630W2                          V     C        21:55:09:02 21:55:11:15 01:23:38:05 01:23:40:18 
*FROM CLIP NAME:  C021C001_190630W2 
*LOC: 01:23:39:08 CYAN    PNK_K1216_IAH_375 
*ASC_SOP (0.491800 0.491800 0.491800)(0.199200 0.199200 0.199200)(1.000000 1.000000 1.000000) 
*ASC_SAT 1.000000 
*SOURCE FILE: C021C001_190630W2
000182  E020C002_1906309O                          V     C        21:55:11:15 21:55:15:19 01:23:40:18 01:23:44:22 
*FROM CLIP NAME:  E020C002_1906309O 
*LOC: 01:23:42:07 CYAN    PNK_K1216_IAH_385 
*ASC_SAT 1.000000 
*SOURCE FILE: E020C002_1906309O
000183  B020C002_190630LD                          V     C        21:55:15:19 21:55:18:04 01:23:44:22 01:23:47:07 
*FROM CLIP NAME:  B020C002_190630LD.MOV 
*LOC: 01:23:45:23 CYAN    PNK_K1221_IAH_395 
*ASC_SAT 1.000000 
*SOURCE FILE: B020C002_190630LD
000184  U021C001_180111W3                          V     C        21:55:18:04 21:55:20:04 01:23:47:07 01:23:49:07 
*FROM CLIP NAME:  U021C001_180111W3.MOV 
*LOC: 01:23:48:00 CYAN    PNK_K1228_IAH_405 
*ASC_SAT 1.000000 
*SOURCE FILE: U021C001_180111W3
000185  E020C002_1906309O                          V     C        21:55:20:04 21:55:21:11 01:23:49:07 01:23:50:14 
*FROM CLIP NAME:  E020C002_1906309O.MOV 
*LOC: 01:23:49:22 CYAN    PNK_K1221_IAH_415 
*ASC_SAT 1.000000 
*SOURCE FILE: E020C002_1906309O
000186  B020C002_190630LD                          V     C        21:55:24:13 21:55:26:12 01:23:53:16 01:23:55:15 
*FROM CLIP NAME:  B020C002_190630LD 
*LOC: 01:23:54:18 CYAN    PNK_K1216_IAH_425 
*ASC_SAT 1.000000 
*SOURCE FILE: B020C002_190630LD
000187  V021C001_190630HS                          V     C        21:55:33:02 21:55:42:19 01:24:02:05 01:24:11:22 
*FROM CLIP NAME:  V021C001_190630HS 
*LOC: 01:24:04:20 CYAN    PNK_K1216_IAH_455 - STABILIZE 
*ASC_SAT 1.000000 
*SOURCE FILE: V021C001_190630HS
000188  E020C002_1906309O                          V     C        21:55:42:19 21:55:44:11 01:24:11:22 01:24:13:14 
*FROM CLIP NAME:  E020C002_1906309O 
*LOC: 01:24:12:13 CYAN    PNK_K1216_IAH_465 
*ASC_SAT 1.000000 
*SOURCE FILE: E020C002_1906309O
000189  E020C002_1906309O                          V     C        21:56:09:01 21:56:11:07 01:24:38:05 01:24:40:11 
*FROM CLIP NAME:  E020C002_1906309O 
*LOC: 01:24:39:11 CYAN    PNK_K1216_IAH_555 
*ASC_SAT 1.000000 
*SOURCE FILE: E020C002_1906309O
000190  B020C002_190630LD                          V     C        21:56:30:09 21:56:32:06 01:24:59:12 01:25:01:09 
*FROM CLIP NAME:  B020C002_190630LD 
*LOC: 01:25:00:05 CYAN    PNK_K1216_IAH_625 
*ASC_SAT 1.000000 
*SOURCE FILE: B020C002_190630LD
000191  E020C002_1906309O                          V     C        21:56:37:15 21:56:40:06 01:25:06:18 01:25:09:09 
*FROM CLIP NAME:  E020C002_1906309O 
*LOC: 01:25:08:08 CYAN    PNK_K1216_IAH_635 
*ASC_SAT 1.000000 
*SOURCE FILE: E020C002_1906309O
000192  B020C002_190630LD                          V     C        21:56:40:06 21:56:43:06 01:25:09:09 01:25:12:09 
*FROM CLIP NAME:  B020C002_190630LD 
*LOC: 01:25:10:01 CYAN    PNK_K1216_IAH_645 
*ASC_SAT 1.000000 
*SOURCE FILE: B020C002_190630LD
000193  A059_06250005_C001                         V     C        00:08:23:05 00:08:48:15 01:26:12:08 01:26:37:18 
*FROM CLIP NAME:  A059_06250005_C001.SUB.01 
*LOC: 01:26:27:16 CYAN    PNK_F1020_WGH_010 
*ASC_SOP (0.727751 0.709706 0.702000)(0.080250 0.098294 0.106000)(1.000000 1.000000 1.00 
*ASC_SAT 1.000000 
*SOURCE FILE: A059_06250005_C001
000194  IMG_7314                                   V     C        00:00:13:19 00:00:16:16 01:26:46:19 01:26:49:15 
M2      IMG_7314                                            024.0 00:00:13:19 
*FROM CLIP NAME:  IMG7314-7314IMG 
*ASC_SOP (1.000000 1.000000 1.000000)(0.000000 0.000000 0.000000)(1.000000 1.000000 1.000000) 
*ASC_SAT 1.000000 
*SOURCE FILE: IMG_7314
000195  A081_06292318_C011                         V     C        23:20:24:04 23:20:26:07 01:26:57:06 01:26:59:09 
*FROM CLIP NAME:  A081_06292318_C011 
*LOC: 01:26:57:16 CYAN    PNK_K1228_SOW_030 
*ASC_SOP (0.778001 0.778001 0.778001)(0.065000 0.065000 0.065000)(1.000000 1.000000 1.000000) 
*ASC_SAT 1.000000 
*SOURCE FILE: A081_06292318_C011