TITLE:   GT3001 MASTER LOCK VFX 
FCM: NON-DROP FRAME
001  BLACK.NE V     C        01:00:00:00 01:00:30:00 00:58:00:00 00:58:30:00 
* FROM CLIP NAME:  BLACK.NEW.01 
* SOURCE FILE: BLACK.NEW.01
002  SMPTE_BA V     C        01:00:00:00 01:01:00:00 00:58:30:00 00:59:30:00 
* FROM CLIP NAME:  SMPTE_BARS.TIF.NEW.01 
* SOURCE FILE: SMPTE_BARS.TIF
003  BLACK.NE V     C        01:00:00:00 01:00:10:00 00:59:30:00 00:59:40:00 
* FROM CLIP NAME:  BLACK.NEW.01 
* SOURCE FILE: BLACK.NEW.01
004  GT-ALPHA V     C        01:00:00:00 01:00:10:00 00:59:40:00 00:59:50:00 
* FROM CLIP NAME:  GT-ALPHA.PNG.NEW.01 
* SOURCE FILE: GT-ALPHA.PNG
005  BLACK.NE V     C        01:00:00:00 01:00:08:00 00:59:50:00 00:59:58:00 
* FROM CLIP NAME:  BLACK.NEW.01 
* SOURCE FILE: BLACK.NEW.01
006  SMPTE_BA V     C        01:00:00:00 01:00:00:01 00:59:58:00 00:59:58:01 
* FROM CLIP NAME:  SMPTE_BARS.TIF.NEW.01 
* SOURCE FILE: SMPTE_BARS.TIF
007  BLACK.NE V     C        01:00:00:00 01:00:01:23 00:59:58:01 01:00:00:00 
* FROM CLIP NAME:  BLACK.NEW.01 
* SOURCE FILE: BLACK.NEW.01
008  PGOODTRO V     C        01:03:31:07 01:03:32:01 01:00:00:00 01:00:00:18 
* FROM CLIP NAME:  PGOODTROUBLE_E2017_TDSM_HF100007604_LENG.MOV 
* SOURCE FILE: PGOODTROUBLE_E2017_TDSM_HF100007604_LENG.MOV
009  PGOODTRO V     C        01:03:34:09 01:03:35:03 01:00:00:18 01:00:01:12 
* FROM CLIP NAME:  PGOODTROUBLE_E2017_TDSM_HF100007604_LENG.MOV 
* SOURCE FILE: PGOODTROUBLE_E2017_TDSM_HF100007604_LENG.MOV
010  PGOODTRO V     C        01:24:01:04 01:24:03:20 01:00:01:12 01:00:04:04 
* FROM CLIP NAME:  PGOODTROUBLE_E2017_TDSM_HF100007604_LENG.MOV 
* SOURCE FILE: PGOODTROUBLE_E2017_TDSM_HF100007604_LENG.MOV
011     BL    V     C        00:00:00:00 00:00:00:01 01:00:04:04 01:00:04:05 
* SOURCE FILE: (NULL)
012     BL    V     C        00:00:00:00 00:00:00:00 01:00:04:05 01:00:04:05 
012  PREVIOUS V     D    010 01:00:00:00 01:00:00:10 01:00:04:05 01:00:04:15 
* BLEND, DISSOLVE 
* TO CLIP NAME:  PREVIOUSLY ON.JPG 
* SOURCE FILE: (NULL)
013  PREVIOUS V     C        01:00:00:10 01:00:01:14 01:00:04:15 01:00:05:19 
* FROM CLIP NAME:  PREVIOUSLY ON.JPG 
* SOURCE FILE: PREVIOUSLY ON.JPG
014  PGOODTRO V     C        01:13:41:15 01:13:43:04 01:00:05:19 01:00:07:08 
* FROM CLIP NAME:  PGOODTROUBLE_E2017_TDSM_HF100007604_LENG.MOV 
* SOURCE FILE: PGOODTROUBLE_E2017_TDSM_HF100007604_LENG.MOV
015  PGOODTRO V     C        01:41:14:17 01:41:15:22 01:00:07:08 01:00:08:13 
* FROM CLIP NAME:  PGOODTROUBLE_E2017_TDSM_HF100007604_LENG.MOV 
* SOURCE FILE: PGOODTROUBLE_E2017_TDSM_HF100007604_LENG.MOV
016  PGOODTRO V     C        01:14:53:13 01:14:54:10 01:00:08:13 01:00:09:10 
* FROM CLIP NAME:  PGOODTROUBLE_E2018_TDSM_HF100007605_LENG.MOV 
* SOURCE FILE: PGOODTROUBLE_E2018_TDSM_HF100007605_LENG.MOV
017  PGOODTRO V     C        01:33:12:08 01:33:13:20 01:00:09:10 01:00:10:22 
* FROM CLIP NAME:  PGOODTROUBLE_E2018_TDSM_HF100007605_LENG.MOV 
* SOURCE FILE: PGOODTROUBLE_E2018_TDSM_HF100007605_LENG.MOV
018  PGOODTRO V     C        01:33:15:15 01:33:17:05 01:00:10:22 01:00:12:12 
* FROM CLIP NAME:  PGOODTROUBLE_E2018_TDSM_HF100007605_LENG.MOV 
* SOURCE FILE: PGOODTROUBLE_E2018_TDSM_HF100007605_LENG.MOV
019  PGOODTRO V     C        01:33:18:15 01:33:20:18 01:00:12:12 01:00:14:15 
* FROM CLIP NAME:  PGOODTROUBLE_E2018_TDSM_HF100007605_LENG.MOV 
* SOURCE FILE: PGOODTROUBLE_E2018_TDSM_HF100007605_LENG.MOV
020  PGOODTRO V     C        01:38:50:09 01:38:51:05 01:00:14:15 01:00:15:11 
* FROM CLIP NAME:  PGOODTROUBLE_E2018_TDSM_HF100007605_LENG.MOV 
* SOURCE FILE: PGOODTROUBLE_E2018_TDSM_HF100007605_LENG.MOV
021  PGOODTRO V     C        01:38:52:01 01:38:53:00 01:00:15:11 01:00:16:10 
* FROM CLIP NAME:  PGOODTROUBLE_E2018_TDSM_HF100007605_LENG.MOV 
* SOURCE FILE: PGOODTROUBLE_E2018_TDSM_HF100007605_LENG.MOV
022  PGOODTRO V     C        01:38:53:13 01:38:55:00 01:00:16:10 01:00:17:21 
* FROM CLIP NAME:  PGOODTROUBLE_E2018_TDSM_HF100007605_LENG.MOV 
* SOURCE FILE: PGOODTROUBLE_E2018_TDSM_HF100007605_LENG.MOV
023  PGOODTRO V     C        01:08:49:01 01:08:49:20 01:00:17:21 01:00:18:16 
* FROM CLIP NAME:  PGOODTROUBLE_E2002_TDSM_HF100006716_LENG.MOV 
* SOURCE FILE: PGOODTROUBLE_E2002_TDSM_HF100006716_R1_LENG.MOV
024  PGOODTRO V     C        01:08:44:02 01:08:45:05 01:00:18:16 01:00:19:19 
* FROM CLIP NAME:  PGOODTROUBLE_E2002_TDSM_HF100006716_LENG.MOV 
* SOURCE FILE: PGOODTROUBLE_E2002_TDSM_HF100006716_R1_LENG.MOV
025  PGOODTRO V     C        01:03:31:16 01:03:32:20 01:00:19:19 01:00:20:23 
* FROM CLIP NAME:  PGOODTROUBLE_E2011_TDSM_HF100007598_R1_LENG.MOV 
* SOURCE FILE: PGOODTROUBLE_E2011_TDSM_HF100007598_R1_LENG.MOV
026  PGOODTRO V     C        01:02:51:11 01:02:51:12 01:00:20:23 01:00:21:21 
M2   PGOODTRO      -024.0                01:02:51:11 
* FROM CLIP NAME:  PGOODTROUBLE_E2011_TDSM_HF100007598_R1_LENG.MOV 
* SOURCE FILE: PGOODTROUBLE_E2011_TDSM_HF100007598_R1_LENG.MOV
027  PGOODTRO V     C        01:36:00:20 01:36:02:01 01:00:21:21 01:00:23:02 
* FROM CLIP NAME:  PGOODTROUBLE_E2018_TDSM_HF100007605_LENG.MOV 
* SOURCE FILE: PGOODTROUBLE_E2018_TDSM_HF100007605_LENG.MOV
028  PGOODTRO V     C        01:36:03:11 01:36:05:18 01:00:23:02 01:00:25:09 
* FROM CLIP NAME:  PGOODTROUBLE_E2018_TDSM_HF100007605_LENG.MOV 
* SOURCE FILE: PGOODTROUBLE_E2018_TDSM_HF100007605_LENG.MOV
029  PGOODTRO V     C        01:40:26:04 01:40:29:10 01:00:25:09 01:00:28:15 
* FROM CLIP NAME:  PGOODTROUBLE_E2016_TDSM_HF100007603_LENG.MOV 
* SOURCE FILE: PGOODTROUBLE_E2016_TDSM_HF100007603_LENG.MOV
030  PGOODTRO V     C        01:40:43:18 01:40:45:04 01:00:28:15 01:00:30:01 
* FROM CLIP NAME:  PGOODTROUBLE_E2016_TDSM_HF100007603_LENG.MOV 
* SOURCE FILE: PGOODTROUBLE_E2016_TDSM_HF100007603_LENG.MOV
031  PGOODTRO V     C        01:39:20:07 01:39:21:18 01:00:30:01 01:00:31:12 
* FROM CLIP NAME:  PGOODTROUBLE_E2016_TDSM_HF100007603_LENG.MOV 
* SOURCE FILE: PGOODTROUBLE_E2016_TDSM_HF100007603_LENG.MOV
032  PGOODTRO V     C        01:31:27:22 01:31:29:07 01:00:31:12 01:00:32:21 
* FROM CLIP NAME:  PGOODTROUBLE_E2018_TDSM_HF100007605_LENG.MOV 
* SOURCE FILE: PGOODTROUBLE_E2018_TDSM_HF100007605_LENG.MOV
033  PGOODTRO V     C        01:15:30:14 01:15:32:09 01:00:32:21 01:00:34:16 
* FROM CLIP NAME:  PGOODTROUBLE_E2018_TDSM_HF100007605_LENG.MOV 
* SOURCE FILE: PGOODTROUBLE_E2018_TDSM_HF100007605_LENG.MOV
034  PGOODTRO V     C        01:37:34:03 01:37:35:14 01:00:34:16 01:00:36:03 
* FROM CLIP NAME:  PGOODTROUBLE_E2018_TDSM_HF100007605_LENG.MOV 
* SOURCE FILE: PGOODTROUBLE_E2018_TDSM_HF100007605_LENG.MOV
035  PGOODTRO V     C        01:32:50:03 01:32:51:12 01:00:36:03 01:00:37:12 
* FROM CLIP NAME:  PGOODTROUBLE_E2018_TDSM_HF100007605_LENG.MOV 
* SOURCE FILE: PGOODTROUBLE_E2018_TDSM_HF100007605_LENG.MOV
036  PGOODTRO V     C        01:32:56:11 01:32:57:14 01:00:37:12 01:00:38:15 
* FROM CLIP NAME:  PGOODTROUBLE_E2018_TDSM_HF100007605_LENG.MOV 
* SOURCE FILE: PGOODTROUBLE_E2018_TDSM_HF100007605_LENG.MOV
037  PGOODTRO V     C        01:38:29:19 01:38:31:11 01:00:38:15 01:00:40:07 
* FROM CLIP NAME:  PGOODTROUBLE_E2018_TDSM_HF100007605_LENG.MOV 
* SOURCE FILE: PGOODTROUBLE_E2018_TDSM_HF100007605_LENG.MOV
038  PGOODTRO V     C        01:38:31:23 01:38:33:08 01:00:40:07 01:00:41:16 
* FROM CLIP NAME:  PGOODTROUBLE_E2018_TDSM_HF100007605_LENG.MOV 
* SOURCE FILE: PGOODTROUBLE_E2018_TDSM_HF100007605_LENG.MOV
039  PGOODTRO V     C        01:26:09:20 01:26:11:13 01:00:41:16 01:00:43:09 
* FROM CLIP NAME:  PGOODTROUBLE_E2018_TDSM_HF100007605_LENG.MOV 
* SOURCE FILE: PGOODTROUBLE_E2018_TDSM_HF100007605_LENG.MOV
040  PGOODTRO V     C        01:39:47:09 01:39:48:06 01:00:43:09 01:00:44:06 
* FROM CLIP NAME:  PGOODTROUBLE_E1012_TDSM_HF100006348_LENG.MOV 
* REEL: LEVELS SCALING (VIDEO LEVELS TO 
* SOURCE FILE: PGOODTROUBLE_E1012_TDSM_HF100006348_LENG.MOV
041  PGOODTRO V     C        01:39:32:06 01:39:34:00 01:00:44:06 01:00:46:00 
* FROM CLIP NAME:  PGOODTROUBLE_E1012_TDSM_HF100006348_LENG.MOV 
* REEL: LEVELS SCALING (VIDEO LEVELS TO 
* SOURCE FILE: PGOODTROUBLE_E1012_TDSM_HF100006348_LENG.MOV
042  PGOODTRO V     C        01:26:43:16 01:26:44:16 01:00:46:00 01:00:47:00 
* FROM CLIP NAME:  PGOODTROUBLE_E2018_TDSM_HF100007605_LENG.MOV 
* SOURCE FILE: PGOODTROUBLE_E2018_TDSM_HF100007605_LENG.MOV
043  PGOODTRO V     C        01:36:34:05 01:36:35:10 01:00:47:00 01:00:48:05 
* FROM CLIP NAME:  PGOODTROUBLE_E2017_TDSM_HF100007604_LENG.MOV 
* SOURCE FILE: PGOODTROUBLE_E2017_TDSM_HF100007604_LENG.MOV
044  PGOODTRO V     C        01:37:07:22 01:37:09:05 01:00:48:05 01:00:49:12 
* FROM CLIP NAME:  PGOODTROUBLE_E2017_TDSM_HF100007604_LENG.MOV 
* SOURCE FILE: PGOODTROUBLE_E2017_TDSM_HF100007604_LENG.MOV
045  PGOODTRO V     C        01:34:43:05 01:34:44:04 01:00:49:12 01:00:50:11 
* FROM CLIP NAME:  PGOODTROUBLE_E2018_TDSM_HF100007605_LENG.MOV 
* SOURCE FILE: PGOODTROUBLE_E2018_TDSM_HF100007605_LENG.MOV
046  PGOODTRO V     C        01:34:57:08 01:35:00:21 01:00:50:11 01:00:52:06 
M2   PGOODTRO       048.0                01:34:57:08 
* FROM CLIP NAME:  PGOODTROUBLE_E2018_TDSM_HF100007605_LENG.MOV 
* SOURCE FILE: PGOODTROUBLE_E2018_TDSM_HF100007605_LENG.MOV
047  PGOODTRO V     C        01:35:13:06 01:35:14:07 01:00:52:06 01:00:53:07 
* FROM CLIP NAME:  PGOODTROUBLE_E2018_TDSM_HF100007605_LENG.MOV 
* SOURCE FILE: PGOODTROUBLE_E2018_TDSM_HF100007605_LENG.MOV
048  PGOODTRO V     C        01:40:31:02 01:40:31:20 01:00:53:07 01:00:54:01 
* FROM CLIP NAME:  PGOODTROUBLE_E2018_TDSM_HF100007605_LENG.MOV 
* SOURCE FILE: PGOODTROUBLE_E2018_TDSM_HF100007605_LENG.MOV
049  PGOODTRO V     C        01:40:33:02 01:40:34:22 01:00:54:01 01:00:55:21 
* FROM CLIP NAME:  PGOODTROUBLE_E2018_TDSM_HF100007605_LENG.MOV 
* SOURCE FILE: PGOODTROUBLE_E2018_TDSM_HF100007605_LENG.MOV
050  PGOODTRO V     C        01:40:58:23 01:41:01:16 01:00:55:21 01:00:58:14 
* FROM CLIP NAME:  PGOODTROUBLE_E2018_TDSM_HF100007605_LENG.MOV 
* SOURCE FILE: PGOODTROUBLE_E2018_TDSM_HF100007605_LENG.MOV
051  PGOODTRO V     C        01:33:49:12 01:33:50:13 01:00:58:14 01:00:59:15 
* FROM CLIP NAME:  PGOODTROUBLE_E2018_TDSM_HF100007605_LENG.MOV 
* SOURCE FILE: PGOODTROUBLE_E2018_TDSM_HF100007605_LENG.MOV
052  PGOODTRO V     C        01:33:53:12 01:33:55:15 01:00:59:15 01:01:01:18 
* FROM CLIP NAME:  PGOODTROUBLE_E2018_TDSM_HF100007605_LENG.MOV 
* SOURCE FILE: PGOODTROUBLE_E2018_TDSM_HF100007605_LENG.MOV
053  PGOODTRO V     C        01:39:59:14 01:40:02:20 01:01:01:18 01:01:05:00 
* FROM CLIP NAME:  PGOODTROUBLE_E2018_TDSM_HF100007605_LENG.MOV 
* SOURCE FILE: PGOODTROUBLE_E2018_TDSM_HF100007605_LENG.MOV
054  PGOODTRO V     C        01:40:03:19 01:40:05:16 01:01:05:00 01:01:06:21 
* FROM CLIP NAME:  PGOODTROUBLE_E2018_TDSM_HF100007605_LENG.MOV 
* SOURCE FILE: PGOODTROUBLE_E2018_TDSM_HF100007605_LENG.MOV
055     BL    V     C        00:00:00:00 00:00:01:00 01:01:06:21 01:01:07:21 
* SOURCE FILE: (NULL)
056     BL    V     C        00:00:00:00 00:00:06:00 01:01:07:21 01:01:13:21 
* SOURCE FILE: (NULL)
057  B008C011 V     C        21:08:30:22 21:08:33:19 01:01:13:21 01:01:16:18 
* FROM CLIP NAME:  1-1-B 48 FPS 
* REEL: GT_COTERIE_NIGHT_02_LC_SDR_V2_3 
* SOURCE FILE: B008C011_140312_C603
058  PGOODTRO V     C        01:37:50:12 01:37:53:09 01:01:16:18 01:01:19:15 
* FROM CLIP NAME:  2018 EVAN MARIANA SEX 
* SOURCE FILE: PGOODTROUBLE_E2018_TDSM_HF100007605_LENG.MOV
059  PGOODTRO V     C        01:38:02:17 01:38:04:19 01:01:19:15 01:01:21:17 
* FROM CLIP NAME:  2018 EVAN MARIANA SEX 
* SOURCE FILE: PGOODTROUBLE_E2018_TDSM_HF100007605_LENG.MOV
060  A006C019 V     C        21:10:36:02 21:10:38:13 01:01:21:17 01:01:24:04 
* FROM CLIP NAME:  1-1-A 48 FPS 
* REEL: GT_COTERIE_NIGHT_02_LC_SDR_V2_3 
* SOURCE FILE: A006C019_140312_F70H
061  B023NSC0 V     C        14:48:51:05 14:48:52:20 01:01:24:04 01:01:25:19 
* FROM CLIP NAME:  R16B-1B 48FPS 
* REEL: GT_COTERIE_DAY_01_SDR_V2_33.CUB 
* SOURCE FILE: B023NSC004_200924_G90D
062  A002C015 V     C        17:55:11:12 17:55:13:02 01:01:25:19 01:01:27:09 
* FROM CLIP NAME:  3B-1-A 48 FPS 
* REEL: GT_COTERIE_DAY_01_SDR_V2_33 (3D 
* SOURCE FILE: A002C015_140310_F70H
063  A002C012 V     C        17:31:03:03 17:31:07:10 01:01:27:09 01:01:31:02 
M2   A002C012       028.2                17:31:03:03 
* FROM CLIP NAME:  3-1-A 48 FPS 
* REEL: GT_COTERIE_DAY_01_SDR_V2_33 (3D 
* SOURCE FILE: A002C012_140310_F70H
064  B002C010 V     C        17:29:40:06 17:29:40:07 01:01:31:02 01:01:31:18 
M2   B002C010      -024.0                17:29:40:06 
* FROM CLIP NAME:  3-1-B 24 FPS 
* REEL: GT_COTERIE_DAY_01_SDR_V2_33 (3D 
* SOURCE FILE: B002C010_140310_C603
065  B008C006 V     C        18:23:05:15 18:23:08:11 01:01:31:18 01:01:34:14 
* FROM CLIP NAME:  4-1-BX7 48 FPS 
* REEL: GT_COTERIE_NIGHT_02_LC_SDR_V2_3 
* SOURCE FILE: B008C006_140312_C603
066  A006C010 V     C        19:09:02:03 19:09:04:07 01:01:34:14 01:01:36:18 
* FROM CLIP NAME:  4A-1-A 48 FPS 
* REEL: GT_COTERIE_NIGHT_02_LC_SDR_V2_3 
* SOURCE FILE: A006C010_140312_F70H
067  A048C007 V     C        09:56:20:11 09:56:23:10 01:01:36:18 01:01:39:17 
* FROM CLIP NAME:  6C-1A 
* REEL: GT_GAEL_NIGHT_01_SDR_V2_33.CUBE 
* SOURCE FILE: A048C007_141009_F70H
068  A048C010 V     C        10:22:04:02 10:22:06:00 01:01:39:17 01:01:41:15 
* FROM CLIP NAME:  6E-2A 
* REEL: GT_GAEL_NIGHT_01_SDR_V2_33.CUBE 
* SOURCE FILE: A048C010_141009_F70H
069  B045C003 V     C        09:18:33:09 09:18:35:17 01:01:41:15 01:01:43:23 
* FROM CLIP NAME:  6A-1B 
* REEL: GT_GAEL_NIGHT_01_SDR_V2_33.CUBE 
* SOURCE FILE: B045C003_201008_G90D
070  B045C010 V     C        10:19:32:23 10:19:35:01 01:01:43:23 01:01:46:01 
* FROM CLIP NAME:  6E-1B 
* REEL: GT_GAEL_NIGHT_01_SDR_V2_33.CUBE 
* SOURCE FILE: B045C010_201008_G90D
071  B045C006 V     C        09:52:49:22 09:52:51:15 01:01:46:01 01:01:47:18 
* FROM CLIP NAME:  6B-2B 
* REEL: GT_GAEL_NIGHT_01_SDR_V2_33.CUBE 
* SOURCE FILE: B045C006_201008_G90D
072  B002C014 V     C        17:55:54:20 17:55:56:19 01:01:47:18 01:01:48:18 
* FROM CLIP NAME:  3C-1-B 24 FPS 
* REEL: GT_COTERIE_DAY_01_SDR_V2_33 (3D 
* SOURCE FILE: B002C014_140310_C603
073  B023NSC0 V     C        14:48:29:09 14:48:30:08 01:01:48:18 01:01:49:17 
* FROM CLIP NAME:  R16B-1B 48FPS 
* REEL: GT_COTERIE_DAY_01_SDR_V2_33.CUB 
* SOURCE FILE: B023NSC004_200924_G90D
074  B002C010 V     C        17:30:27:22 17:30:30:03 01:01:49:17 01:01:50:20 
M2   B002C010       048.0                17:30:27:22 
* FROM CLIP NAME:  3-1-B 48 FPS 
* REEL: GT_COTERIE_DAY_01_SDR_V2_33 (3D 
* SOURCE FILE: B002C010_140310_C603
075  B002C017 V     C        18:26:33:01 18:26:33:23 01:01:50:20 01:01:51:18 
* FROM CLIP NAME:  3F-1-B 48 FPS 
* REEL: GT_COTERIE_DAY_01_SDR_V2_33 (3D 
* SOURCE FILE: B002C017_140310_C603
076  A002C019 V     C        18:34:25:07 18:34:26:03 01:01:51:18 01:01:52:14 
* FROM CLIP NAME:  3F-1-A 48 FPS 
* REEL: GT_COTERIE_DAY_01_SDR_V2_33 (3D 
* SOURCE FILE: A002C019_140310_F70H
077  B012SCC0 V     C        20:45:06:21 20:45:10:03 01:01:52:14 01:01:55:20 
* FROM CLIP NAME:  2A-1B 24FPS 
* REEL: GT_SPECK_NIGHT_SDR_V2_33.CUBE 
* SOURCE FILE: B012SCC023_200918_G90D
078  A011SCC0 V     C        20:24:25:15 20:24:28:02 01:01:55:20 01:01:58:07 
* FROM CLIP NAME:  2-2A 24FPS 
* REEL: GT_SPECK_NIGHT_SDR_V2_33.CUBE 
* SOURCE FILE: A011SCC023_140919_F70H
079  A006C019 V     C        21:09:36:18 21:09:41:10 01:01:58:07 01:02:02:23 
* FROM CLIP NAME:  1-1-A 48 FPS 
* REEL: GT_COTERIE_NIGHT_02_LC_SDR_V2_3 
* SOURCE FILE: A006C019_140312_F70H
080  B008C006 V     C        18:28:49:21 18:28:53:12 01:02:02:23 01:02:06:14 
* FROM CLIP NAME:  4-1-BX7 48 FPS 
* REEL: GT_COTERIE_NIGHT_02_LC_SDR_V2_3 
* SOURCE FILE: B008C006_140312_C603
081  A006C013 V     C        19:33:04:09 19:33:06:02 01:02:06:14 01:02:08:07 
* FROM CLIP NAME:  34A-2-A ONLYX2 
* REEL: GT_COTERIE_NIGHT_02_LC_SDR_V2_3 
* SOURCE FILE: A006C013_140312_F70H
082  A022NSC0 V     C        14:43:44:02 14:43:47:02 01:02:08:07 01:02:11:07 
* FROM CLIP NAME:  R16-2A 48FPS 
* REEL: GT_COTERIE_DAY_01_SDR_V2_33.CUB 
* SOURCE FILE: A022NSC006_140925_F70H
083  A002C014 V     C        17:41:19:17 17:41:21:09 01:02:11:07 01:02:12:23 
* FROM CLIP NAME:  3A-2-A 48 FPS 
* REEL: GT_COTERIE_DAY_01_SDR_V2_33 (3D 
* SOURCE FILE: A002C014_140310_F70H
084  A002C015 V     C        17:55:57:23 17:56:01:06 01:02:12:23 01:02:16:06 
* FROM CLIP NAME:  3B-1-A 48 FPS 
* REEL: GT_COTERIE_DAY_01_SDR_V2_33 (3D 
* SOURCE FILE: A002C015_140310_F70H
085  A048C009 V     C        10:20:03:10 10:20:05:02 01:02:16:06 01:02:17:22 
* FROM CLIP NAME:  6E-1A 
* REEL: GT_GAEL_NIGHT_01_SDR_V2_33.CUBE 
* SOURCE FILE: A048C009_141009_F70H
086  B045C007 V     C        09:56:36:01 09:56:37:13 01:02:17:22 01:02:19:10 
* FROM CLIP NAME:  6C-1PT1B 
* REEL: GT_GAEL_NIGHT_01_SDR_V2_33.CUBE 
* SOURCE FILE: B045C007_201008_G90D
087  B045C011 V     C        10:22:42:04 10:22:44:04 01:02:19:10 01:02:21:10 
* FROM CLIP NAME:  6E-2B 
* REEL: GT_GAEL_NIGHT_01_SDR_V2_33.CUBE 
* SOURCE FILE: B045C011_201008_G90D
088  A048C007 V     C        09:56:48:02 09:56:50:00 01:02:21:10 01:02:23:08 
* FROM CLIP NAME:  6C-1A 
* REEL: GT_GAEL_NIGHT_01_SDR_V2_33.CUBE 
* SOURCE FILE: A048C007_141009_F70H
089  B045C011 V     C        10:22:23:11 10:22:25:20 01:02:23:08 01:02:25:17 
* FROM CLIP NAME:  6E-2B 
* REEL: GT_GAEL_NIGHT_01_SDR_V2_33.CUBE 
* SOURCE FILE: B045C011_201008_G90D
090  B045C006 V     C        09:52:53:05 09:52:55:21 01:02:25:17 01:02:28:09 
* FROM CLIP NAME:  6B-2B 
* REEL: GT_GAEL_NIGHT_01_SDR_V2_33.CUBE 
* SOURCE FILE: B045C006_201008_G90D
091  B039SCC0 V     C        10:09:10:23 10:09:12:07 01:02:28:09 01:02:29:17 
* FROM CLIP NAME:  A14A-2B 24FPS 
* REEL: GT_GAEL_NIGHT_01_SDR_V2_33.CUBE 
* SOURCE FILE: B039SCC013_201006_G90D
092  A042SCC0 V     C        10:37:59:02 10:38:00:11 01:02:29:17 01:02:31:02 
* FROM CLIP NAME:  A14A-1A 24FPS 
* REEL: GT_GAEL_NIGHT_01_SDR_V2_33.CUBE 
* SOURCE FILE: A042SCC013_141007_F70H
093  B039NSC0 V     C        10:09:53:04 10:09:54:17 01:02:31:02 01:02:32:15 
* FROM CLIP NAME:  A14A-2B 48FPS 
* REEL: GT_GAEL_NIGHT_01_SDR_V2_33.CUBE 
* SOURCE FILE: B039NSC013_201006_G90D
094  B039SCC0 V     C        10:09:36:14 10:09:37:21 01:02:32:15 01:02:33:22 
* FROM CLIP NAME:  A14A-2B 24FPS 
* REEL: GT_GAEL_NIGHT_01_SDR_V2_33.CUBE 
* SOURCE FILE: B039SCC013_201006_G90D
095  A042NSC0 V     C        10:04:57:03 10:04:58:16 01:02:33:22 01:02:35:11 
* 48FPS 
* FROM CLIP NAME:  A14-1A-ONLY 48FPS 
* REEL: GT_GAEL_NIGHT_01_SDR_V2_33.CUBE 
* SOURCE FILE: A042NSC012_141007_F70H
096  A042NSC0 V     C        10:45:16:11 10:45:17:07 01:02:35:11 01:02:36:07 
* FROM CLIP NAME:  A14A-2A 48FPS 
* REEL: GT_GAEL_NIGHT_01_SDR_V2_33.CUBE 
* SOURCE FILE: A042NSC014_141007_F70H
097  A042NSC0 V     C        10:44:29:18 10:44:31:03 01:02:36:07 01:02:37:16 
* FROM CLIP NAME:  A14A-2A 48FPS 
* REEL: GT_GAEL_NIGHT_01_SDR_V2_33.CUBE 
* SOURCE FILE: A042NSC014_141007_F70H
098  A042NSC0 V     C        10:45:24:20 10:45:26:14 01:02:37:16 01:02:39:10 
* FROM CLIP NAME:  A14A-2A 48FPS 
* REEL: GT_GAEL_NIGHT_01_SDR_V2_33.CUBE 
* SOURCE FILE: A042NSC014_141007_F70H
099  A042NSC0 V     C        10:01:16:20 10:01:19:07 01:02:39:10 01:02:41:21 
* FROM CLIP NAME:  B16-1A 48FPS 
* REEL: GT_GAEL_NIGHT_01_SDR_V2_33.CUBE 
* SOURCE FILE: A042NSC010_141007_F70H
100  GT_MAIN_ V     C        00:00:00:02 00:00:20:02 01:02:41:21 01:03:01:21 
* FROM CLIP NAME:  GT_MAIN_TITLES_S3_ PPBBJJ RIGHT TIMING 4K WITH BEAU FACES.MOV 
* SOURCE FILE: GT_MAIN_TITLES_S3_ PPBBJJ RIGHT TIMING 4K WITH BEAU FACES.MOV
101  F001_C05 V     C        00:00:08:03 00:00:08:04 01:03:01:21 01:03:04:13 
M2   F001_C05      -024.0                00:00:08:03 
* FROM CLIP NAME:  X500A-2.2-F_PT2 
* SOURCE FILE: F001_C050_20180625_P00001
102  C004C003 V     C        12:08:59:13 12:09:13:01 01:03:04:13 01:03:18:01 
* FROM CLIP NAME:  A17D-2 C-ONLY_29 
* REEL: GT_COTERIE_NIGHT_02_LC_SDR_V2_3 
* SOURCE FILE: C004C003_200313_G902
103  C004C003 V     C        12:09:12:23 12:09:13:00 01:03:18:01 01:03:18:17 
M2   C004C003      -024.0                12:09:12:23 
* FROM CLIP NAME:  A17D-2 C-ONLY_29 
* REEL: GT_COTERIE_NIGHT_02_LC_SDR_V2_3 
* SOURCE FILE: C004C003_200313_G902
104  A008C004 V     C        12:07:35:05 12:07:46:18 01:03:18:17 01:03:30:06 
* FROM CLIP NAME:  17A-1-A-ONLYX4 
* REEL: GT_COTERIE_NIGHT_02_LC_SDR_V2_3 
* SOURCE FILE: A008C004_140313_F70H
105  B009C001 V     C        13:03:09:04 13:03:11:15 01:03:30:06 01:03:32:17 
* FROM CLIP NAME:  17B-1-B 
* REEL: GT_COTERIE_NIGHT_02_LC_SDR_V2_3 
* SOURCE FILE: B009C001_140313_C603
106  A008C017 V     C        13:37:35:06 13:37:37:01 01:03:32:17 01:03:34:12 
* FROM CLIP NAME:  17D-1-A-ONLYX3 
* REEL: GT_COTERIE_NIGHT_02_LC_SDR_V2_3 
* SOURCE FILE: A008C017_140313_F70H
107  A008C013 V     C        13:03:12:01 13:03:15:21 01:03:34:12 01:03:38:08 
* FROM CLIP NAME:  17B-1-A 
* REEL: GT_COTERIE_NIGHT_02_LC_SDR_V2_3 
* SOURCE FILE: A008C013_140313_F70H
108  P00D8874 V     C        13:01:18:07 13:01:20:09 01:03:38:08 01:03:40:10 
* FROM CLIP NAME:  18A-1-G-ONLYX4 
* REEL: GT_COTERIE_NIGHT_02_LC_SDR_V2_3 
* SOURCE FILE: P00D8874
109  P00D8877 V     C        13:12:14:12 13:12:17:09 01:03:40:10 01:03:43:07 
* FROM CLIP NAME:  18C-1-G-ONLY 
* REEL: GT_COTERIE_NIGHT_02_LC_SDR_V2_3 
* SOURCE FILE: P00D8877
110  B010C007 V     C        19:52:57:02 19:52:58:01 01:03:43:07 01:03:44:06 
* FROM CLIP NAME:  27B-1-B 
* REEL: GT_COTERIE_NIGHT_02_LC_SDR_V2_3 
* SOURCE FILE: B010C007_140313_C603
111  A009C009 V     C        19:27:33:01 19:27:35:03 01:03:44:06 01:03:46:08 
* FROM CLIP NAME:  27A-2-A-ONLY 
* REEL: GT_COTERIE_NIGHT_02_LC_SDR_V2_3 
* SOURCE FILE: A009C009_140313_F70H
112  B010C007 V     C        19:53:00:03 19:53:01:11 01:03:46:08 01:03:47:16 
* FROM CLIP NAME:  27B-1-B 
* REEL: GT_COTERIE_NIGHT_02_LC_SDR_V2_3 
* SOURCE FILE: B010C007_140313_C603
113  P00D8875 V     C        13:08:10:20 13:08:12:15 01:03:47:16 01:03:49:11 
* FROM CLIP NAME:  18B-1-G-ONLYX2 
* REEL: GT_COTERIE_NIGHT_02_LC_SDR_V2_3 
* SOURCE FILE: P00D8875
114  A008C001 V     C        11:48:30:22 11:48:32:12 01:03:49:11 01:03:51:01 
* FROM CLIP NAME:  17-1-A-ONLYX3 
* REEL: GT_COTERIE_NIGHT_02_LC_SDR_V2_3 
* SOURCE FILE: A008C001_140313_F70H
115  A008C002 V     C        11:54:50:05 11:54:51:02 01:03:51:01 01:03:51:22 
* FROM CLIP NAME:  17-2-A-ONLY 
* REEL: GT_COTERIE_NIGHT_02_LC_SDR_V2_3 
* SOURCE FILE: A008C002_140313_F70H
116  A008C003 V     C        12:01:14:09 12:01:15:23 01:03:51:22 01:03:53:12 
* FROM CLIP NAME:  17-3-A-ONLY 
* REEL: GT_COTERIE_NIGHT_02_LC_SDR_V2_3 
* SOURCE FILE: A008C003_140313_F70H
117  P00D8878 V     C        13:14:28:23 13:14:30:18 01:03:53:12 01:03:55:07 
* FROM CLIP NAME:  18C-2-G-ONLYX2 
* REEL: GT_COTERIE_NIGHT_02_LC_SDR_V2_3 
* SOURCE FILE: P00D8878
118  A008C005 V     C        12:20:48:05 12:20:49:22 01:03:55:07 01:03:57:00 
* FROM CLIP NAME:  18-1-A-ONLYX6 
* REEL: GT_COTERIE_NIGHT_02_LC_SDR_V2_3 
* SOURCE FILE: A008C005_140313_F70H
119  A009C010 V     C        19:54:14:15 19:54:15:22 01:03:57:00 01:03:58:07 
* FROM CLIP NAME:  27B-1-A 
* REEL: GT_COTERIE_NIGHT_02_LC_SDR_V2_3 
* SOURCE FILE: A009C010_140313_F70H
120  A009C008 V     C        19:24:24:09 19:24:25:03 01:03:58:07 01:03:59:01 
* FROM CLIP NAME:  27A-1-A-ONLY 
* REEL: GT_COTERIE_NIGHT_02_LC_SDR_V2_3 
* SOURCE FILE: A009C008_140313_F70H
121  A008C013 V     C        13:03:47:19 13:03:48:23 01:03:59:01 01:04:00:05 
* FROM CLIP NAME:  17B-1-A 
* REEL: GT_COTERIE_NIGHT_02_LC_SDR_V2_3 
* SOURCE FILE: A008C013_140313_F70H
122  A008C005 V     C        12:20:54:17 12:20:56:00 01:04:00:05 01:04:01:12 
* FROM CLIP NAME:  18-1-A-ONLYX6 
* REEL: GT_COTERIE_NIGHT_02_LC_SDR_V2_3 
* SOURCE FILE: A008C005_140313_F70H
123  A008C002 V     C        11:55:14:06 11:55:15:09 01:04:01:12 01:04:02:15 
* FROM CLIP NAME:  17-2-A-ONLY 
* REEL: GT_COTERIE_NIGHT_02_LC_SDR_V2_3 
* SOURCE FILE: A008C002_140313_F70H
124  A009C010 V     C        19:55:55:18 19:55:56:16 01:04:02:15 01:04:03:13 
* FROM CLIP NAME:  27B-1-A 
* REEL: GT_COTERIE_NIGHT_02_LC_SDR_V2_3 
* SOURCE FILE: A009C010_140313_F70H
125  B010C006 V     C        19:21:38:03 19:21:39:03 01:04:03:13 01:04:04:13 
* FROM CLIP NAME:  27-2-B 
* REEL: GT_COTERIE_NIGHT_02_LC_SDR_V2_3 
* SOURCE FILE: B010C006_140313_C603
126  P00D8874 V     C        13:03:39:15 13:03:40:22 01:04:04:13 01:04:05:20 
* FROM CLIP NAME:  18A-1-G-ONLYX4 
* REEL: GT_COTERIE_NIGHT_02_LC_SDR_V2_3 
* SOURCE FILE: P00D8874
127  A008C005 V     C        12:18:05:03 12:18:06:19 01:04:05:20 01:04:07:12 
* FROM CLIP NAME:  18-1-A-ONLYX6 
* REEL: GT_COTERIE_NIGHT_02_LC_SDR_V2_3 
* SOURCE FILE: A008C005_140313_F70H
128  P00D8874 V     C        13:03:42:05 13:03:43:13 01:04:07:12 01:04:08:20 
* FROM CLIP NAME:  18A-1-G-ONLYX4 
* REEL: GT_COTERIE_NIGHT_02_LC_SDR_V2_3 
* SOURCE FILE: P00D8874
129  A008C008 V     C        12:24:06:04 12:24:08:15 01:04:08:20 01:04:10:02 
* FROM CLIP NAME:  24-1-A-ONLY 24 FPS 
* REEL: GT_COTERIE_NIGHT_02_LC_SDR_V2_3 
* SOURCE FILE: A008C008_140313_F70H
130  P00D8876 V     C        13:10:01:00 13:10:02:21 01:04:10:02 01:04:11:23 
* FROM CLIP NAME:  24D-1-G-ONLYX3 
* REEL: GT_COTERIE_NIGHT_02_LC_SDR_V2_3 
* SOURCE FILE: P00D8876
131  A008C008 V     C        12:24:10:08 12:24:11:21 01:04:11:23 01:04:12:18 
* FROM CLIP NAME:  24-1-A-ONLY 24 FPS 
* REEL: GT_COTERIE_NIGHT_02_LC_SDR_V2_3 
* SOURCE FILE: A008C008_140313_F70H
132  A008C009 V     C        12:25:48:18 12:25:51:15 01:04:12:18 01:04:14:05 
* FROM CLIP NAME:  24A-1-A-ONLYX2 24 FPS 
* REEL: GT_COTERIE_NIGHT_02_LC_SDR_V2_3 
* SOURCE FILE: A008C009_140313_F70H
133  P00D8876 V     C        13:10:03:04 13:10:04:00 01:04:14:05 01:04:15:01 
* FROM CLIP NAME:  24D-1-G-ONLYX3 
* REEL: GT_COTERIE_NIGHT_02_LC_SDR_V2_3 
* SOURCE FILE: P00D8876
134  A008C010 V     C        12:30:01:16 12:30:03:01 01:04:15:01 01:04:15:18 
M2   A008C010       048.0                12:30:01:16 
* FROM CLIP NAME:  24B-1-A-ONLY 48 FPS 
* REEL: GT_COTERIE_NIGHT_02_LC_SDR_V2_3 
* SOURCE FILE: A008C010_140313_F70H
135  A008C010 V     C        12:30:03:02 12:30:04:02 01:04:15:18 01:04:16:18 
* FROM CLIP NAME:  24B-1-A-ONLY 48 FPS 
* REEL: GT_COTERIE_NIGHT_02_LC_SDR_V2_3 
* SOURCE FILE: A008C010_140313_F70H
136  P00D8876 V     C        13:10:07:19 13:10:08:11 01:04:16:18 01:04:17:10 
* FROM CLIP NAME:  24D-1-G-ONLYX3 
* REEL: GT_COTERIE_NIGHT_02_LC_SDR_V2_3 
* SOURCE FILE: P00D8876
137  A008C012 V     C        12:31:42:23 12:31:44:05 01:04:17:10 01:04:18:16 
* FROM CLIP NAME:  24C-2-A-ONLY 60 FPS 
* REEL: GT_COTERIE_NIGHT_02_LC_SDR_V2_3 
* SOURCE FILE: A008C012_140313_F70H
138  A008C003 V     C        12:01:57:09 12:01:59:14 01:04:18:16 01:04:20:21 
* FROM CLIP NAME:  17-3-A-ONLY 
* REEL: GT_COTERIE_NIGHT_02_LC_SDR_V2_3 
* SOURCE FILE: A008C003_140313_F70H
139  B009C001 V     C        13:04:35:18 13:04:38:20 01:04:20:21 01:04:23:23 
* FROM CLIP NAME:  17B-1-B 
* REEL: GT_COTERIE_NIGHT_02_LC_SDR_V2_3 
* SOURCE FILE: B009C001_140313_C603
140  A008C016 V     C        13:36:39:22 13:36:43:04 01:04:23:23 01:04:27:05 
* FROM CLIP NAME:  17C-1-A-ONLYX4 
* REEL: GT_COTERIE_NIGHT_02_LC_SDR_V2_3 
* SOURCE FILE: A008C016_140313_F70H
141  B009C002 V     C        13:11:38:00 13:11:38:21 01:04:27:05 01:04:28:02 
* FROM CLIP NAME:  25-1-B 
* REEL: GT_COTERIE_NIGHT_02_LC_SDR_V2_3 
* SOURCE FILE: B009C002_140313_C603
142  A008C013 V     C        13:04:42:21 13:04:44:13 01:04:28:02 01:04:29:18 
* FROM CLIP NAME:  17B-1-A 
* REEL: GT_COTERIE_NIGHT_02_LC_SDR_V2_3 
* SOURCE FILE: A008C013_140313_F70H
143  A008C004 V     C        12:10:13:05 12:10:14:14 01:04:29:18 01:04:31:03 
* FROM CLIP NAME:  17A-1-A-ONLYX4 
* REEL: GT_COTERIE_NIGHT_02_LC_SDR_V2_3 
* SOURCE FILE: A008C004_140313_F70H
144  A008C002 V     C        11:55:51:12 11:55:53:00 01:04:31:03 01:04:32:15 
* FROM CLIP NAME:  17-2-A-ONLY 
* REEL: GT_COTERIE_NIGHT_02_LC_SDR_V2_3 
* SOURCE FILE: A008C002_140313_F70H
145  A008C002 V     C        11:55:55:18 11:55:58:04 01:04:32:15 01:04:35:01 
* FROM CLIP NAME:  17-2-A-ONLY 
* REEL: GT_COTERIE_NIGHT_02_LC_SDR_V2_3 
* SOURCE FILE: A008C002_140313_F70H
146  A008C014 V     C        13:13:31:13 13:13:33:09 01:04:35:01 01:04:36:21 
* FROM CLIP NAME:  25-1-A 
* REEL: GT_COTERIE_NIGHT_02_LC_SDR_V2_3 
* SOURCE FILE: A008C014_140313_F70H
147  A008C004 V     C        12:11:06:19 12:11:10:22 01:04:36:21 01:04:41:00 
* FROM CLIP NAME:  17A-1-A-ONLYX4 
* REEL: GT_COTERIE_NIGHT_02_LC_SDR_V2_3 
* SOURCE FILE: A008C004_140313_F70H
148  A008C014 V     C        13:13:37:18 13:13:39:01 01:04:41:00 01:04:42:07 
* FROM CLIP NAME:  25-1-A 
* REEL: GT_COTERIE_NIGHT_02_LC_SDR_V2_3 
* SOURCE FILE: A008C014_140313_F70H
149  A008C004 V     C        12:11:12:05 12:11:17:00 01:04:42:07 01:04:47:02 
* FROM CLIP NAME:  17A-1-A-ONLYX4 
* REEL: GT_COTERIE_NIGHT_02_LC_SDR_V2_3 
* SOURCE FILE: A008C004_140313_F70H
150  A008C015 V     C        13:19:53:13 13:19:55:06 01:04:47:02 01:04:48:19 
* FROM CLIP NAME:  26-1-A-ONLYX4 
* REEL: GT_COTERIE_NIGHT_02_LC_SDR_V2_3 
* SOURCE FILE: A008C015_140313_F70H
151  A008C004 V     C        12:11:18:13 12:11:19:14 01:04:48:19 01:04:49:20 
* FROM CLIP NAME:  17A-1-A-ONLYX4 
* REEL: GT_COTERIE_NIGHT_02_LC_SDR_V2_3 
* SOURCE FILE: A008C004_140313_F70H
152  A008C015 V     C        13:21:17:23 13:21:21:02 01:04:49:20 01:04:52:23 
* FROM CLIP NAME:  26-1-A-ONLYX4 
* REEL: GT_COTERIE_NIGHT_02_LC_SDR_V2_3 
* SOURCE FILE: A008C015_140313_F70H
153  A008C004 V     C        12:11:24:00 12:11:25:07 01:04:52:23 01:04:54:06 
* FROM CLIP NAME:  17A-1-A-ONLYX4 
* REEL: GT_COTERIE_NIGHT_02_LC_SDR_V2_3 
* SOURCE FILE: A008C004_140313_F70H
154  P00D8874 V     C        13:04:58:05 13:05:01:17 01:04:54:06 01:04:57:18 
* FROM CLIP NAME:  18A-1-G-ONLYX4 
* REEL: GT_COTERIE_NIGHT_02_LC_SDR_V2_3 
* SOURCE FILE: P00D8874
155  A008C004 V     C        12:11:27:04 12:11:29:18 01:04:57:18 01:05:00:08 
* FROM CLIP NAME:  17A-1-A-ONLYX4 
* REEL: GT_COTERIE_NIGHT_02_LC_SDR_V2_3 
* SOURCE FILE: A008C004_140313_F70H
156  P00D8878 V     C        13:16:14:14 13:16:17:11 01:05:00:08 01:05:03:05 
* FROM CLIP NAME:  18C-2-G-ONLYX2 
* REEL: GT_COTERIE_NIGHT_02_LC_SDR_V2_3 
* SOURCE FILE: P00D8878
157  A045C007 V     C        12:50:37:15 12:50:41:04 01:05:03:05 01:05:06:18 
* FROM CLIP NAME:  A36B-1A 
* REEL: GT_COTERIE_NIGHT_02_LC_SDR_V2_3 
* SOURCE FILE: A045C007_141008_F70H
158  B042C002 V     C        12:19:49:04 12:19:51:04 01:05:06:18 01:05:08:18 
* FROM CLIP NAME:  A36-1B 
* REEL: GT_COTERIE_NIGHT_02_LC_SDR_V2_3 
* SOURCE FILE: B042C002_201007_G90D
159  A045C007 V     C        12:44:19:16 12:44:23:08 01:05:08:18 01:05:12:10 
* FROM CLIP NAME:  A36B-1A 
* REEL: GT_COTERIE_NIGHT_02_LC_SDR_V2_3 
* SOURCE FILE: A045C007_141008_F70H
160  A045C006 V     C        12:24:14:21 12:24:16:16 01:05:12:10 01:05:14:05 
* FROM CLIP NAME:  A36A-1A 
* REEL: GT_COTERIE_NIGHT_02_LC_SDR_V2_3 
* SOURCE FILE: A045C006_141008_F70H
161  A045C007 V     C        12:46:36:07 12:46:39:19 01:05:14:05 01:05:17:17 
* FROM CLIP NAME:  A36B-1A 
* REEL: GT_COTERIE_NIGHT_02_LC_SDR_V2_3 
* SOURCE FILE: A045C007_141008_F70H
162  A045C006 V     C        12:24:23:05 12:24:26:15 01:05:17:17 01:05:21:03 
* FROM CLIP NAME:  A36A-1A 
* REEL: GT_COTERIE_NIGHT_02_LC_SDR_V2_3 
* SOURCE FILE: A045C006_141008_F70H
163  B042C003 V     C        12:24:26:14 12:24:29:04 01:05:21:03 01:05:23:17 
* FROM CLIP NAME:  A36A-1B 
* REEL: GT_COTERIE_NIGHT_02_LC_SDR_V2_3 
* SOURCE FILE: B042C003_201007_G90D
164  A045C007 V     C        12:44:38:22 12:44:46:23 01:05:23:17 01:05:31:18 
* FROM CLIP NAME:  A36B-1A 
* REEL: GT_COTERIE_NIGHT_02_LC_SDR_V2_3 
* SOURCE FILE: A045C007_141008_F70H
165  B042C003 V     C        12:24:58:14 12:25:00:01 01:05:31:18 01:05:33:05 
* FROM CLIP NAME:  A36A-1B 
* REEL: GT_COTERIE_NIGHT_02_LC_SDR_V2_3 
* SOURCE FILE: B042C003_201007_G90D
166  A045C006 V     C        12:25:00:02 12:25:08:09 01:05:33:05 01:05:41:12 
* FROM CLIP NAME:  A36A-1A 
* REEL: GT_COTERIE_NIGHT_02_LC_SDR_V2_3 
* SOURCE FILE: A045C006_141008_F70H
167  A045C007 V     C        12:51:19:17 12:51:22:03 01:05:41:12 01:05:43:22 
* FROM CLIP NAME:  A36B-1A 
* REEL: GT_COTERIE_NIGHT_02_LC_SDR_V2_3 
* SOURCE FILE: A045C007_141008_F70H
168  B042C003 V     C        12:25:06:20 12:25:08:12 01:05:43:22 01:05:45:14 
* FROM CLIP NAME:  A36A-1B 
* REEL: GT_COTERIE_NIGHT_02_LC_SDR_V2_3 
* SOURCE FILE: B042C003_201007_G90D
169  A045C007 V     C        12:49:07:16 12:49:09:22 01:05:45:14 01:05:47:20 
* FROM CLIP NAME:  A36B-1A 
* REEL: GT_COTERIE_NIGHT_02_LC_SDR_V2_3 
* SOURCE FILE: A045C007_141008_F70H
170  A045C006 V     C        12:25:11:22 12:25:13:12 01:05:47:20 01:05:49:10 
* FROM CLIP NAME:  A36A-1A 
* REEL: GT_COTERIE_NIGHT_02_LC_SDR_V2_3 
* SOURCE FILE: A045C006_141008_F70H
171  B042C004 V     C        12:49:13:20 12:49:15:16 01:05:49:10 01:05:51:06 
* FROM CLIP NAME:  A36B-1B 
* REEL: GT_COTERIE_NIGHT_02_LC_SDR_V2_3 
* SOURCE FILE: B042C004_201007_G90D
172  B042C003 V     C        12:25:17:12 12:25:19:14 01:05:51:06 01:05:53:08 
* FROM CLIP NAME:  A36A-1B 
* REEL: GT_COTERIE_NIGHT_02_LC_SDR_V2_3 
* SOURCE FILE: B042C003_201007_G90D
173  B042C004 V     C        12:47:31:08 12:47:33:08 01:05:53:08 01:05:55:08 
* FROM CLIP NAME:  A36B-1B 
* REEL: GT_COTERIE_NIGHT_02_LC_SDR_V2_3 
* SOURCE FILE: B042C004_201007_G90D
174  B042C003 V     C        12:25:24:06 12:25:26:12 01:05:55:08 01:05:57:14 
* FROM CLIP NAME:  A36A-1B 
* REEL: GT_COTERIE_NIGHT_02_LC_SDR_V2_3 
* SOURCE FILE: B042C003_201007_G90D
175  B042C004 V     C        12:47:36:14 12:47:38:11 01:05:57:14 01:05:59:11 
* FROM CLIP NAME:  A36B-1B 
* REEL: GT_COTERIE_NIGHT_02_LC_SDR_V2_3 
* SOURCE FILE: B042C004_201007_G90D
176  B042C003 V     C        12:27:14:00 12:27:15:17 01:05:59:11 01:06:01:04 
* FROM CLIP NAME:  A36A-1B 
* REEL: GT_COTERIE_NIGHT_02_LC_SDR_V2_3 
* SOURCE FILE: B042C003_201007_G90D
177  B042C004 V     C        12:47:40:21 12:47:44:01 01:06:01:04 01:06:04:08 
* FROM CLIP NAME:  A36B-1B 
* REEL: GT_COTERIE_NIGHT_02_LC_SDR_V2_3 
* SOURCE FILE: B042C004_201007_G90D
178  A045C006 V     C        12:27:21:02 12:27:26:12 01:06:04:08 01:06:09:18 
* FROM CLIP NAME:  A36A-1A 
* REEL: GT_COTERIE_NIGHT_02_LC_SDR_V2_3 
* SOURCE FILE: A045C006_141008_F70H
179  A045C007 V     C        12:51:59:02 12:52:02:02 01:06:09:18 01:06:12:18 
* FROM CLIP NAME:  A36B-1A 
* REEL: GT_COTERIE_NIGHT_02_LC_SDR_V2_3 
* SOURCE FILE: A045C007_141008_F70H
180  A011NSC0 V     C        15:05:35:23 15:05:45:02 01:06:12:18 01:06:21:21 
* 48FPS 
* FROM CLIP NAME:  46C-1A 48FPS 
* REEL: GT_SPECK_DAY_SDR_V2_33.CUBE 
* SOURCE FILE: A011NSC008_140919_F70H
181  A011NSC0 V     C        15:12:53:19 15:12:55:18 01:06:21:21 01:06:23:20 
* 48FPS 
* FROM CLIP NAME:  46E-1A 48FPS 
* REEL: GT_SPECK_DAY_SDR_V2_33.CUBE 
* SOURCE FILE: A011NSC010_140919_F70H
182  PGOODTRO V     C        01:38:29:11 01:38:31:21 01:06:23:20 01:06:26:06 
* FROM CLIP NAME:  2018 EVAN MARIANA SEX 
* SOURCE FILE: PGOODTROUBLE_E2018_TDSM_HF100007605_LENG.MOV
183  A011NSC0 V     C        15:12:56:01 15:13:01:06 01:06:26:06 01:06:28:21 
M2   A011NSC0       048.0                15:12:56:01 
* 48FPS 
* FROM CLIP NAME:  46E-1A 48FPS 
* REEL: GT_SPECK_DAY_SDR_V2_33.CUBE 
* SOURCE FILE: A011NSC010_140919_F70H
184  A011C002 V     C        14:14:35:17 14:14:40:06 01:06:28:21 01:06:33:10 
* FROM CLIP NAME:  46-2-A 
* REEL: GT_SPECK_DAY_SDR_V2_33.CUBE 
* SOURCE FILE: A011C002_140919_F70H
185  B012C002 V     C        14:14:39:23 14:14:43:06 01:06:33:10 01:06:36:17 
* FROM CLIP NAME:  46-2-B 
* REEL: GT_SPECK_DAY_SDR_V2_33.CUBE 
* SOURCE FILE: B012C002_200918_G90D
186  A011NSC0 V     C        15:13:18:22 15:13:32:22 01:06:36:17 01:06:50:17 
* 48FPS 
* FROM CLIP NAME:  46E-1A 48FPS 
* REEL: GT_SPECK_DAY_SDR_V2_33.CUBE 
* SOURCE FILE: A011NSC010_140919_F70H
187  A009C005 V     C        19:02:17:20 19:02:19:06 01:06:50:17 01:06:52:03 
* FROM CLIP NAME:  47B-1-A-ONLY 
* REEL: GT_COTERIE_NIGHT_02_LC_SDR_V2_3 
* SOURCE FILE: A009C005_140313_F70H
188  A009C014 V     C        20:16:24:03 20:16:25:13 01:06:52:03 01:06:53:13 
* FROM CLIP NAME:  47E-1-A-ONLY 
* REEL: GT_COTERIE_NIGHT_02_LC_SDR_V2_3 
* SOURCE FILE: A009C014_140313_F70H
189  A009C003 V     C        18:47:05:16 18:47:07:18 01:06:53:13 01:06:55:15 
* FROM CLIP NAME:  47-3-A 
* REEL: GT_COTERIE_NIGHT_02_LC_SDR_V2_3 
* SOURCE FILE: A009C003_140313_F70H
190  A009C013 V     C        20:13:06:02 20:13:07:19 01:06:55:15 01:06:57:08 
* FROM CLIP NAME:  47D-1-A 
* REEL: GT_COTERIE_NIGHT_02_LC_SDR_V2_3 
* SOURCE FILE: A009C013_140313_F70H
191  A009C005 V     C        19:02:21:22 19:02:22:23 01:06:57:08 01:06:58:09 
* FROM CLIP NAME:  47B-1-A-ONLY 
* REEL: GT_COTERIE_NIGHT_02_LC_SDR_V2_3 
* SOURCE FILE: A009C005_140313_F70H
192  A008C004 V     C        12:11:29:16 12:11:32:12 01:06:58:09 01:07:01:05 
* FROM CLIP NAME:  17A-1-A-ONLYX4 
* REEL: GT_COTERIE_NIGHT_02_LC_SDR_V2_3 
* SOURCE FILE: A008C004_140313_F70H
193  A008C015 V     C        13:21:33:04 13:21:36:16 01:07:01:05 01:07:04:17 
* FROM CLIP NAME:  26-1-A-ONLYX4 
* REEL: GT_COTERIE_NIGHT_02_LC_SDR_V2_3 
* SOURCE FILE: A008C015_140313_F70H
194  A008C004 V     C        12:11:40:02 12:11:41:05 01:07:04:17 01:07:05:20 
* FROM CLIP NAME:  17A-1-A-ONLYX4 
* REEL: GT_COTERIE_NIGHT_02_LC_SDR_V2_3 
* SOURCE FILE: A008C004_140313_F70H
195  A008C015 V     C        13:21:38:22 13:21:45:09 01:07:05:20 01:07:12:07 
* FROM CLIP NAME:  26-1-A-ONLYX4 
* REEL: GT_COTERIE_NIGHT_02_LC_SDR_V2_3 
* SOURCE FILE: A008C015_140313_F70H
196  A008C002 V     C        11:56:43:04 11:56:46:02 01:07:12:07 01:07:15:05 
* FROM CLIP NAME:  17-2-A-ONLY 
* REEL: GT_COTERIE_NIGHT_02_LC_SDR_V2_3 
* SOURCE FILE: A008C002_140313_F70H
197  A008C014 V     C        13:14:38:11 13:14:42:14 01:07:15:05 01:07:19:08 
* FROM CLIP NAME:  25-1-A 
* REEL: GT_COTERIE_NIGHT_02_LC_SDR_V2_3 
* SOURCE FILE: A008C014_140313_F70H
198  B010C004 V     C        18:56:30:23 18:56:40:14 01:07:19:08 01:07:28:23 
* FROM CLIP NAME:  47A-1-B 
* REEL: GT_COTERIE_NIGHT_02_LC_SDR_V2_3 
* SOURCE FILE: B010C004_140313_C603
199  B010C003 V     C        18:47:20:18 18:47:41:07 01:07:28:23 01:07:49:12 
* FROM CLIP NAME:  47-3-B 
* REEL: GT_COTERIE_NIGHT_02_LC_SDR_V2_3 
* SOURCE FILE: B010C003_140313_C603
200  A012C004 V     C        22:12:14:08 22:12:26:20 01:07:49:12 01:08:02:00 
* FROM CLIP NAME:  50-1-A 
* REEL: GT_SPECK_NIGHT_SDR_V2_33.CUBE 
* SOURCE FILE: A012C004_140919_F70H
201  B013C001 V     C        22:12:26:19 22:12:31:03 01:08:02:00 01:08:06:08 
* FROM CLIP NAME:  50-1-B 
* REEL: GT_SPECK_NIGHT_SDR_V2_33.CUBE 
* SOURCE FILE: B013C001_200918_G90D
202  A012C004 V     C        22:12:57:01 22:12:59:04 01:08:06:08 01:08:08:11 
* FROM CLIP NAME:  50-1-A 
* REEL: GT_SPECK_NIGHT_SDR_V2_33.CUBE 
* SOURCE FILE: A012C004_140919_F70H
203  B012C011 V     C        16:10:58:22 16:11:00:15 01:08:08:11 01:08:10:04 
* FROM CLIP NAME:  46F-1-B 
* REEL: GT_SPECK_DAY_SDR_V2_33.CUBE 
* SOURCE FILE: B012C011_200918_G90D
204  A011C006 V     C        15:02:42:22 15:02:45:22 01:08:10:04 01:08:13:04 
* FROM CLIP NAME:  46B-2-A 
* REEL: GT_SPECK_DAY_SDR_V2_33.CUBE 
* SOURCE FILE: A011C006_140919_F70H
205  B012C002 V     C        14:14:49:18 14:14:51:20 01:08:13:04 01:08:15:06 
* FROM CLIP NAME:  46-2-B 
* REEL: GT_SPECK_DAY_SDR_V2_33.CUBE 
* SOURCE FILE: B012C002_200918_G90D
206  A011C002 V     C        14:15:07:03 14:15:09:05 01:08:15:06 01:08:17:08 
* FROM CLIP NAME:  46-2-A 
* REEL: GT_SPECK_DAY_SDR_V2_33.CUBE 
* SOURCE FILE: A011C002_140919_F70H
207  B012C012 V     C        16:47:14:15 16:47:17:08 01:08:17:08 01:08:20:01 
* FROM CLIP NAME:  46G-1-B 
* REEL: GT_SPECK_DAY_SDR_V2_33.CUBE 
* SOURCE FILE: B012C012_200918_G90D
208  B012C011 V     C        16:12:01:02 16:12:03:10 01:08:20:01 01:08:22:09 
* FROM CLIP NAME:  46F-1-B 
* REEL: GT_SPECK_DAY_SDR_V2_33.CUBE 
* SOURCE FILE: B012C011_200918_G90D
209  A011SCC0 V     C        15:08:49:07 15:08:50:23 01:08:22:09 01:08:24:01 
* FROM CLIP NAME:  46D-1A 24FPS 
* REEL: GT_SPECK_DAY_SDR_V2_33.CUBE 
* SOURCE FILE: A011SCC009_140919_F70H
210  B012C002 V     C        14:15:16:09 14:15:18:03 01:08:24:01 01:08:25:19 
* FROM CLIP NAME:  46-2-B 
* REEL: GT_SPECK_DAY_SDR_V2_33.CUBE 
* SOURCE FILE: B012C002_200918_G90D
211  B012C009 V     C        15:10:14:01 15:10:14:20 01:08:25:19 01:08:26:14 
* FROM CLIP NAME:  46D-1-B 
* REEL: GT_SPECK_DAY_SDR_V2_33.CUBE 
* SOURCE FILE: B012C009_200918_G90D
212  B012C011 V     C        16:12:08:07 16:12:09:14 01:08:26:14 01:08:27:21 
* FROM CLIP NAME:  46F-1-B 
* REEL: GT_SPECK_DAY_SDR_V2_33.CUBE 
* SOURCE FILE: B012C011_200918_G90D
213  B012C006 V     C        15:03:19:22 15:03:22:02 01:08:27:21 01:08:30:01 
* FROM CLIP NAME:  46B-2-B 
* REEL: GT_SPECK_DAY_SDR_V2_33.CUBE 
* SOURCE FILE: B012C006_200918_G90D
214  A011C012 V     C        16:49:01:12 16:49:04:22 01:08:30:01 01:08:33:11 
* FROM CLIP NAME:  46G-1-A 
* REEL: GT_SPECK_DAY_SDR_V2_33.CUBE 
* SOURCE FILE: A011C012_140919_F70H
215  A003C006 V     C        11:24:10:12 11:24:42:22 01:08:33:11 01:09:05:21 
* FROM CLIP NAME:  36A-2-A 
* REEL: GT_LEGAL_AID_DAY_01_SDR_V2_33 ( 
* SOURCE FILE: A003C006_140311_F70H
216  A003C010 V     C        11:56:05:14 11:56:16:05 01:09:05:21 01:09:16:12 
* FROM CLIP NAME:  36C-3-A ONLY 
* REEL: GT_LEGAL_AID_DAY_01_SDR_V2_33 ( 
* SOURCE FILE: A003C010_140311_F70H
217  A003C017 V     C        13:07:23:00 13:07:25:23 01:09:16:12 01:09:19:11 
* FROM CLIP NAME:  36H-2-A ONLYX2 
* REEL: GT_LEGAL_AID_DAY_01_SDR_V2_33 ( 
* SOURCE FILE: A003C017_140311_F70H
218  A003C006 V     C        11:24:57:05 11:25:01:05 01:09:19:11 01:09:23:11 
* FROM CLIP NAME:  36A-2-A 
* REEL: GT_LEGAL_AID_DAY_01_SDR_V2_33 ( 
* SOURCE FILE: A003C006_140311_F70H
219  A003C017 V     C        13:07:30:19 13:07:33:00 01:09:23:11 01:09:25:16 
* FROM CLIP NAME:  36H-2-A ONLYX2 
* REEL: GT_LEGAL_AID_DAY_01_SDR_V2_33 ( 
* SOURCE FILE: A003C017_140311_F70H
220  A003C019 V     C        13:19:58:13 13:20:00:07 01:09:25:16 01:09:27:10 
* FROM CLIP NAME:  36J-2-A ONLYX3 
* REEL: GT_LEGAL_AID_DAY_01_SDR_V2_33 ( 
* SOURCE FILE: A003C019_140311_F70H
221  B004C008 V     C        11:52:33:03 11:52:36:02 01:09:27:10 01:09:30:09 
* FROM CLIP NAME:  36C-2-B 
* REEL: GT_LEGAL_AID_DAY_01_SDR_V2_33 ( 
* SOURCE FILE: B004C008_140310_C603
222  A003C017 V     C        13:09:10:01 13:09:15:22 01:09:30:09 01:09:36:06 
* FROM CLIP NAME:  36H-2-A ONLYX2 
* REEL: GT_LEGAL_AID_DAY_01_SDR_V2_33 ( 
* SOURCE FILE: A003C017_140311_F70H
223  A003C019 V     C        13:19:14:10 13:19:16:05 01:09:36:06 01:09:38:01 
* FROM CLIP NAME:  36J-2-A ONLYX3 
* REEL: GT_LEGAL_AID_DAY_01_SDR_V2_33 ( 
* SOURCE FILE: A003C019_140311_F70H
224  A003C017 V     C        13:09:17:12 13:09:19:05 01:09:38:01 01:09:39:18 
* FROM CLIP NAME:  36H-2-A ONLYX2 
* REEL: GT_LEGAL_AID_DAY_01_SDR_V2_33 ( 
* SOURCE FILE: A003C017_140311_F70H
225  A003C006 V     C        11:25:17:11 11:25:22:10 01:09:39:18 01:09:44:17 
* FROM CLIP NAME:  36A-2-A 
* REEL: GT_LEGAL_AID_DAY_01_SDR_V2_33 ( 
* SOURCE FILE: A003C006_140311_F70H
226  A003C023 V     C        14:42:21:17 14:42:23:21 01:09:44:17 01:09:46:21 
* FROM CLIP NAME:  37A-1-A 
* REEL: GT_LEGAL_AID_DAY_01_SDR_V2_33 ( 
* SOURCE FILE: A003C023_140311_F70H
227  B004C016 V     C        14:42:23:21 14:42:28:02 01:09:46:21 01:09:51:02 
* FROM CLIP NAME:  37A-1-B 
* REEL: GT_LEGAL_AID_DAY_01_SDR_V2_33 ( 
* SOURCE FILE: B004C016_140311_C603
228  A003C022 V     C        14:25:54:14 14:25:59:20 01:09:51:02 01:09:56:08 
* FROM CLIP NAME:  37-1-A 
* REEL: GT_LEGAL_AID_DAY_01_SDR_V2_33 ( 
* SOURCE FILE: A003C022_140311_F70H
229  B004C005 V     C        11:25:35:02 11:25:39:08 01:09:56:08 01:10:00:14 
* FROM CLIP NAME:  36A-2-B 
* REEL: GT_LEGAL_AID_DAY_01_SDR_V2_33 ( 
* SOURCE FILE: B004C005_140310_C603
230  B004C015 V     C        14:23:44:03 14:23:46:03 01:10:00:14 01:10:02:14 
* FROM CLIP NAME:  37-1-B 
* REEL: GT_LEGAL_AID_DAY_01_SDR_V2_33 ( 
* SOURCE FILE: B004C015_140311_C603
231  A003C022 V     C        14:26:07:15 14:26:11:01 01:10:02:14 01:10:06:00 
* FROM CLIP NAME:  37-1-A 
* REEL: GT_LEGAL_AID_DAY_01_SDR_V2_33 ( 
* SOURCE FILE: A003C022_140311_F70H
232  A003C023 V     C        14:47:31:18 14:47:36:13 01:10:06:00 01:10:10:19 
* FROM CLIP NAME:  37A-1-A 
* REEL: GT_LEGAL_AID_DAY_01_SDR_V2_33 ( 
* SOURCE FILE: A003C023_140311_F70H
233  A003C023 V     C        14:47:36:13 14:47:39:06 01:10:10:19 01:10:13:12 
* FROM CLIP NAME:  37A-1-A 
* REEL: GT_LEGAL_AID_DAY_01_SDR_V2_33 ( 
* SOURCE FILE: A003C023_140311_F70H
234  A003C022 V     C        14:26:25:00 14:26:27:07 01:10:13:12 01:10:15:19 
* FROM CLIP NAME:  37-1-A 
* REEL: GT_LEGAL_AID_DAY_01_SDR_V2_33 ( 
* SOURCE FILE: A003C022_140311_F70H
235  A003C023 V     C        14:47:47:16 14:47:50:18 01:10:15:19 01:10:18:21 
* FROM CLIP NAME:  37A-1-A 
* REEL: GT_LEGAL_AID_DAY_01_SDR_V2_33 ( 
* SOURCE FILE: A003C023_140311_F70H
236  A003C022 V     C        14:26:31:01 14:26:37:04 01:10:18:21 01:10:25:00 
* FROM CLIP NAME:  37-1-A 
* REEL: GT_LEGAL_AID_DAY_01_SDR_V2_33 ( 
* SOURCE FILE: A003C022_140311_F70H
237  A003C023 V     C        14:39:28:10 14:39:31:03 01:10:25:00 01:10:27:17 
* FROM CLIP NAME:  37A-1-A 
* REEL: GT_LEGAL_AID_DAY_01_SDR_V2_33 ( 
* SOURCE FILE: A003C023_140311_F70H
238  A003C022 V     C        14:26:40:04 14:26:46:12 01:10:27:17 01:10:34:01 
* FROM CLIP NAME:  37-1-A 
* REEL: GT_LEGAL_AID_DAY_01_SDR_V2_33 ( 
* SOURCE FILE: A003C022_140311_F70H
239  A003C023 V     C        14:46:11:20 14:46:15:20 01:10:34:01 01:10:38:01 
* FROM CLIP NAME:  37A-1-A 
* REEL: GT_LEGAL_AID_DAY_01_SDR_V2_33 ( 
* SOURCE FILE: A003C023_140311_F70H
240  A003C022 V     C        14:26:53:04 14:26:55:04 01:10:38:01 01:10:40:01 
* FROM CLIP NAME:  37-1-A 
* REEL: GT_LEGAL_AID_DAY_01_SDR_V2_33 ( 
* SOURCE FILE: A003C022_140311_F70H
241  A003C004 V     C        12:28:18:04 12:28:24:13 01:10:40:01 01:10:46:10 
* FROM CLIP NAME:  36-3-A 
* REEL: GT_LEGAL_AID_DAY_01_SDR_V2_33 ( 
* SOURCE FILE: A003C004_140311_F70H
242  A003C021 V     C        14:05:23:17 14:05:34:15 01:10:46:10 01:10:57:08 
* FROM CLIP NAME:  38A-1-A 
* REEL: GT_LEGAL_AID_DAY_01_SDR_V2_33 ( 
* SOURCE FILE: A003C021_140311_F70H
243  B004C017 V     C        14:55:34:16 14:55:37:06 01:10:57:08 01:10:59:22 
* FROM CLIP NAME:  38B-1-B ONLY 
* REEL: GT_LEGAL_AID_DAY_01_SDR_V2_33 ( 
* SOURCE FILE: B004C017_140311_C603
244  A003C020 V     C        14:02:05:22 14:02:26:08 01:10:59:22 01:11:20:08 
* FROM CLIP NAME:  38-1-A 
* REEL: GT_LEGAL_AID_DAY_01_SDR_V2_33 ( 
* SOURCE FILE: A003C020_140311_F70H
245  A001C004 V     C        08:21:33:00 08:21:37:19 01:11:20:08 01:11:25:03 
* FROM CLIP NAME:  A39A-3-A_52 
* REEL: GT_EXT_DAY_SDR_V2_33 (3D) 
* SOURCE FILE: A001C004_140310_F70H
246  B001C006 V     C        08:46:15:07 08:46:19:12 01:11:25:03 01:11:29:08 
* FROM CLIP NAME:  A39B-2-B_52 
* REEL: GT_EXT_DAY_SDR_V2_33 (3D) 
* SOURCE FILE: B001C006_140309_C603
247  A001C011 V     C        09:41:05:04 09:41:06:23 01:11:29:08 01:11:31:03 
* FROM CLIP NAME:  A39F-1-A_52 
* REEL: GT_EXT_DAY_SDR_V2_33 (3D) 
* SOURCE FILE: A001C011_140310_F70H
248  B001C006 V     C        08:46:21:19 08:46:25:00 01:11:31:03 01:11:34:08 
* FROM CLIP NAME:  A39B-2-B_52 
* REEL: GT_EXT_DAY_SDR_V2_33 (3D) 
* SOURCE FILE: B001C006_140309_C603
249  B001C009 V     C        09:24:54:00 09:24:56:15 01:11:34:08 01:11:36:23 
* FROM CLIP NAME:  A39D-1-B_52 
* REEL: GT_EXT_DAY_SDR_V2_33 (3D) 
* SOURCE FILE: B001C009_140309_C603
250     BL    V     C        00:00:00:00 00:00:01:00 01:11:36:23 01:11:37:23 
* SOURCE FILE: (NULL)
251     BL    V     C        00:00:00:00 00:00:00:12 01:11:37:23 01:11:38:11 
* SOURCE FILE: (NULL)
252  B001C008 V     C        09:01:17:02 09:01:18:13 01:11:38:11 01:11:39:22 
* FROM CLIP NAME:  A39C-2-B_52 
* REEL: GT_EXT_DAY_SDR_V2_33 (3D) 
* SOURCE FILE: B001C008_140309_C603
253  A001C004 V     C        08:21:46:07 08:21:50:10 01:11:39:22 01:11:44:01 
* FROM CLIP NAME:  A39A-3-A_52 
* REEL: GT_EXT_DAY_SDR_V2_33 (3D) 
* SOURCE FILE: A001C004_140310_F70H
254  A001C011 V     C        09:41:15:01 09:41:18:08 01:11:44:01 01:11:47:08 
* FROM CLIP NAME:  A39F-1-A_52 
* REEL: GT_EXT_DAY_SDR_V2_33 (3D) 
* SOURCE FILE: A001C011_140310_F70H
255  B001C006 V     C        08:46:34:06 08:46:38:09 01:11:47:08 01:11:51:11 
* FROM CLIP NAME:  A39B-2-B_52 
* REEL: GT_EXT_DAY_SDR_V2_33 (3D) 
* SOURCE FILE: B001C006_140309_C603
256  A001C011 V     C        09:41:24:11 09:41:27:13 01:11:51:11 01:11:54:13 
* FROM CLIP NAME:  A39F-1-A_52 
* REEL: GT_EXT_DAY_SDR_V2_33 (3D) 
* SOURCE FILE: A001C011_140310_F70H
257  B001C004 V     C        08:22:02:03 08:22:04:22 01:11:54:13 01:11:57:08 
* FROM CLIP NAME:  A39A-3-B_52 
* REEL: GT_EXT_DAY_SDR_V2_33 (3D) 
* SOURCE FILE: B001C004_140309_C603
258  A001C011 V     C        09:41:33:15 09:41:38:14 01:11:57:08 01:12:02:07 
* FROM CLIP NAME:  A39F-1-A_52 
* REEL: GT_EXT_DAY_SDR_V2_33 (3D) 
* SOURCE FILE: A001C011_140310_F70H
259  B001C006 V     C        08:47:07:19 08:47:09:04 01:12:02:07 01:12:03:16 
* FROM CLIP NAME:  A39B-2-B_52 
* REEL: GT_EXT_DAY_SDR_V2_33 (3D) 
* SOURCE FILE: B001C006_140309_C603
260  A001C011 V     C        09:41:40:20 09:41:43:21 01:12:03:16 01:12:06:17 
* FROM CLIP NAME:  A39F-1-A_52 
* REEL: GT_EXT_DAY_SDR_V2_33 (3D) 
* SOURCE FILE: A001C011_140310_F70H
261  A001C014 V     C        10:07:12:07 10:07:17:03 01:12:06:17 01:12:11:13 
* FROM CLIP NAME:  A39J-1-A_52 
* REEL: GT_EXT_DAY_SDR_V2_33 (3D) 
* SOURCE FILE: A001C014_140310_F70H
262  A001C012 V     C        09:52:15:09 09:52:17:19 01:12:11:13 01:12:13:23 
* FROM CLIP NAME:  A39G-1-A_52 
* REEL: GT_EXT_DAY_SDR_V2_33 (3D) 
* SOURCE FILE: A001C012_140310_F70H
263  A021C031 V     C        12:09:19:04 12:09:28:15 01:12:13:23 01:12:23:10 
* FROM CLIP NAME:  RA52G-1A 
* REEL: GT_EXT_DAY_SDR_V2_33.CUBE 
* SOURCE FILE: A021C031_140925_F70H
264  B022C035 V     C        12:05:12:08 12:05:23:23 01:12:23:10 01:12:35:01 
* FROM CLIP NAME:  RA52F-2B 
* REEL: GT_EXT_DAY_SDR_V2_33.CUBE 
* SOURCE FILE: B022C035_200924_G90D
265  A021C029 V     C        12:03:08:18 12:03:24:22 01:12:35:01 01:12:51:05 
* FROM CLIP NAME:  RA52F-1A 
* REEL: GT_EXT_DAY_SDR_V2_33.CUBE 
* SOURCE FILE: A021C029_140925_F70H
266  A021C027 V     C        11:31:55:08 11:32:04:09 01:12:51:05 01:13:00:06 
* FROM CLIP NAME:  RA52D-2A 
* REEL: GT_EXT_DAY_SDR_V2_33.CUBE 
* SOURCE FILE: A021C027_140925_F70H
267  B022C028 V     C        10:57:40:02 10:57:45:08 01:13:00:06 01:13:05:12 
* FROM CLIP NAME:  RA52A-2B 
* REEL: GT_EXT_DAY_SDR_V2_33.CUBE 
* SOURCE FILE: B022C028_200924_G90D
268  A021C024 V     C        11:01:41:19 11:01:46:02 01:13:05:12 01:13:09:19 
* FROM CLIP NAME:  RA52B-1A 
* REEL: GT_EXT_DAY_SDR_V2_33.CUBE 
* SOURCE FILE: A021C024_140925_F70H
269  A021C021 V     C        10:44:14:05 10:44:15:06 01:13:09:19 01:13:10:20 
* FROM CLIP NAME:  RA52-1A 
* REEL: GT_EXT_DAY_SDR_V2_33.CUBE 
* SOURCE FILE: A021C021_140925_F70H
270  B022C029 V     C        11:01:50:23 11:01:52:16 01:13:10:20 01:13:12:13 
* FROM CLIP NAME:  RA52B-1B 
* REEL: GT_EXT_DAY_SDR_V2_33.CUBE 
* SOURCE FILE: B022C029_200924_G90D
271  A021C022 V     C        10:53:33:01 10:53:34:15 01:13:12:13 01:13:14:03 
* FROM CLIP NAME:  RA52A-1A 
* REEL: GT_EXT_DAY_SDR_V2_33.CUBE 
* SOURCE FILE: A021C022_140925_F70H
272  B022C027 V     C        10:53:34:14 10:53:36:05 01:13:14:03 01:13:15:18 
* FROM CLIP NAME:  RA52A-1B 
* REEL: GT_EXT_DAY_SDR_V2_33.CUBE 
* SOURCE FILE: B022C027_200924_G90D
273  B022C029 V     C        11:02:22:20 11:02:24:19 01:13:15:18 01:13:17:17 
* FROM CLIP NAME:  RA52B-1B 
* REEL: GT_EXT_DAY_SDR_V2_33.CUBE 
* SOURCE FILE: B022C029_200924_G90D
274  A021C021 V     C        10:44:28:05 10:44:29:22 01:13:17:17 01:13:19:10 
* FROM CLIP NAME:  RA52-1A 
* REEL: GT_EXT_DAY_SDR_V2_33.CUBE 
* SOURCE FILE: A021C021_140925_F70H
275  B022C027 V     C        10:53:43:00 10:53:45:00 01:13:19:10 01:13:21:10 
* FROM CLIP NAME:  RA52A-1B 
* REEL: GT_EXT_DAY_SDR_V2_33.CUBE 
* SOURCE FILE: B022C027_200924_G90D
276  A021C023 V     C        10:58:10:19 10:58:12:01 01:13:21:10 01:13:22:16 
* FROM CLIP NAME:  RA52A-2A 
* REEL: GT_EXT_DAY_SDR_V2_33.CUBE 
* SOURCE FILE: A021C023_140925_F70H
277  A021C026 V     C        11:28:41:14 11:28:42:22 01:13:22:16 01:13:24:00 
* FROM CLIP NAME:  RA52D-1A 
* REEL: GT_EXT_DAY_SDR_V2_33.CUBE 
* SOURCE FILE: A021C026_140925_F70H
278  B022C031 V     C        11:28:43:15 11:28:45:06 01:13:24:00 01:13:25:15 
* FROM CLIP NAME:  RA52D-1B 
* REEL: GT_EXT_DAY_SDR_V2_33.CUBE 
* SOURCE FILE: B022C031_200924_G90D
279  A021C025 V     C        11:08:01:10 11:08:02:22 01:13:25:15 01:13:27:03 
* FROM CLIP NAME:  RA52C-1A 
* REEL: GT_EXT_DAY_SDR_V2_33.CUBE 
* SOURCE FILE: A021C025_140925_F70H
280  B022C030 V     C        11:08:02:22 11:08:04:04 01:13:27:03 01:13:28:09 
* FROM CLIP NAME:  RA52C-1B 
* REEL: GT_EXT_DAY_SDR_V2_33.CUBE 
* SOURCE FILE: B022C030_200924_G90D
281  B022C031 V     C        11:28:52:09 11:28:54:00 01:13:28:09 01:13:30:00 
* FROM CLIP NAME:  RA52D-1B 
* REEL: GT_EXT_DAY_SDR_V2_33.CUBE 
* SOURCE FILE: B022C031_200924_G90D
282  A021C022 V     C        10:53:59:08 10:54:00:01 01:13:30:00 01:13:30:17 
* FROM CLIP NAME:  RA52A-1A 
* REEL: GT_EXT_DAY_SDR_V2_33.CUBE 
* SOURCE FILE: A021C022_140925_F70H
283  B022C029 V     C        11:02:48:22 11:02:51:00 01:13:30:17 01:13:32:19 
* FROM CLIP NAME:  RA52B-1B 
* REEL: GT_EXT_DAY_SDR_V2_33.CUBE 
* SOURCE FILE: B022C029_200924_G90D
284  B022C031 V     C        11:29:03:02 11:29:04:09 01:13:32:19 01:13:34:02 
* FROM CLIP NAME:  RA52D-1B 
* REEL: GT_EXT_DAY_SDR_V2_33.CUBE 
* SOURCE FILE: B022C031_200924_G90D
285  B022C029 V     C        11:02:56:04 11:02:57:07 01:13:34:02 01:13:35:05 
* FROM CLIP NAME:  RA52B-1B 
* REEL: GT_EXT_DAY_SDR_V2_33.CUBE 
* SOURCE FILE: B022C029_200924_G90D
286  A021C024 V     C        11:02:57:03 11:02:58:21 01:13:35:05 01:13:36:23 
* FROM CLIP NAME:  RA52B-1A 
* REEL: GT_EXT_DAY_SDR_V2_33.CUBE 
* SOURCE FILE: A021C024_140925_F70H
287  A021C025 V     C        11:08:19:15 11:08:20:15 01:13:36:23 01:13:37:23 
* FROM CLIP NAME:  RA52C-1A 
* REEL: GT_EXT_DAY_SDR_V2_33.CUBE 
* SOURCE FILE: A021C025_140925_F70H
288  B022C032 V     C        11:33:04:12 11:33:07:18 01:13:37:23 01:13:41:05 
* FROM CLIP NAME:  RA52D-2B 
* REEL: GT_EXT_DAY_SDR_V2_33.CUBE 
* SOURCE FILE: B022C032_200924_G90D
289  A021C022 V     C        10:54:14:05 10:54:15:22 01:13:41:05 01:13:42:22 
* FROM CLIP NAME:  RA52A-1A 
* REEL: GT_EXT_DAY_SDR_V2_33.CUBE 
* SOURCE FILE: A021C022_140925_F70H
290  A021C026 V     C        11:29:12:09 11:29:15:15 01:13:42:22 01:13:46:04 
* FROM CLIP NAME:  RA52D-1A 
* REEL: GT_EXT_DAY_SDR_V2_33.CUBE 
* SOURCE FILE: A021C026_140925_F70H
291  B022NSC0 V     C        11:38:13:09 11:38:15:06 01:13:46:04 01:13:47:03 
M2   B022NSC0       048.0                11:38:13:09 
* 48FPS 
* FROM CLIP NAME:  RA52E-1B 48FPSX2 
* REEL: GT_EXT_DAY_SDR_V2_33.CUBE 
* SOURCE FILE: B022NSC033_200924_G90D
292  A021C022 V     C        10:54:16:22 10:54:17:22 01:13:47:03 01:13:48:03 
* FROM CLIP NAME:  RA52A-1A 
* REEL: GT_EXT_DAY_SDR_V2_33.CUBE 
* SOURCE FILE: A021C022_140925_F70H
293  A021C021 V     C        10:45:00:06 10:45:02:05 01:13:48:03 01:13:50:02 
* FROM CLIP NAME:  RA52-1A 
* REEL: GT_EXT_DAY_SDR_V2_33.CUBE 
* SOURCE FILE: A021C021_140925_F70H
294  B022C026 V     C        10:45:02:04 10:45:05:13 01:13:50:02 01:13:53:11 
* FROM CLIP NAME:  RA52-1B 
* REEL: GT_EXT_DAY_SDR_V2_33.CUBE 
* SOURCE FILE: B022C026_200924_G90D
295  A021C026 V     C        11:29:21:09 11:29:23:12 01:13:53:11 01:13:55:14 
* FROM CLIP NAME:  RA52D-1A 
* REEL: GT_EXT_DAY_SDR_V2_33.CUBE 
* SOURCE FILE: A021C026_140925_F70H
296  A021C024 V     C        11:03:13:19 11:03:20:06 01:13:55:14 01:14:02:01 
* FROM CLIP NAME:  RA52B-1A 
* REEL: GT_EXT_DAY_SDR_V2_33.CUBE 
* SOURCE FILE: A021C024_140925_F70H
297  A042C020 V     C        12:21:16:02 12:21:23:07 01:14:02:01 01:14:09:06 
* FROM CLIP NAME:  56B-2A 
* REEL: GT_COTERIE_DAY_01_SDR_V2_33.CUB 
* SOURCE FILE: A042C020_141007_F70H
298  B039C016 V     C        12:12:52:00 12:12:53:18 01:14:09:06 01:14:11:00 
* FROM CLIP NAME:  56A-1B 
* REEL: GT_COTERIE_DAY_01_SDR_V2_33.CUB 
* SOURCE FILE: B039C016_201006_G90D
299  B039C015 V     C        12:01:06:02 12:01:09:10 01:14:11:00 01:14:14:08 
* FROM CLIP NAME:  56-2B 
* REEL: GT_COTERIE_DAY_01_SDR_V2_33.CUB 
* SOURCE FILE: B039C015_201006_G90D
300  A042C019 V     C        12:18:51:00 12:18:58:05 01:14:14:08 01:14:21:13 
* FROM CLIP NAME:  56B-1A 
* REEL: GT_COTERIE_DAY_01_SDR_V2_33.CUB 
* SOURCE FILE: A042C019_141007_F70H
301  A042C021 V     C        12:35:38:02 12:35:39:21 01:14:21:13 01:14:23:08 
* FROM CLIP NAME:  56C-1A 
* REEL: GT_COTERIE_DAY_01_SDR_V2_33.CUB 
* SOURCE FILE: A042C021_141007_F70H
302  A042C020 V     C        12:23:00:03 12:23:01:16 01:14:23:08 01:14:24:21 
* FROM CLIP NAME:  56B-2A 
* REEL: GT_COTERIE_DAY_01_SDR_V2_33.CUB 
* SOURCE FILE: A042C020_141007_F70H
303  A042C022 V     C        12:40:36:04 12:40:38:03 01:14:24:21 01:14:26:20 
* FROM CLIP NAME:  56D-1A 
* REEL: GT_COTERIE_DAY_01_SDR_V2_33.CUB 
* SOURCE FILE: A042C022_141007_F70H
304  A042C020 V     C        12:23:03:22 12:23:06:04 01:14:26:20 01:14:29:02 
* FROM CLIP NAME:  56B-2A 
* REEL: GT_COTERIE_DAY_01_SDR_V2_33.CUB 
* SOURCE FILE: A042C020_141007_F70H
305  B039C015 V     C        12:03:59:21 12:04:02:00 01:14:29:02 01:14:31:05 
* FROM CLIP NAME:  56-2B 
* REEL: GT_COTERIE_DAY_01_SDR_V2_33.CUB 
* SOURCE FILE: B039C015_201006_G90D
306  A042C021 V     C        12:35:56:18 12:35:58:05 01:14:31:05 01:14:32:16 
* FROM CLIP NAME:  56C-1A 
* REEL: GT_COTERIE_DAY_01_SDR_V2_33.CUB 
* SOURCE FILE: A042C021_141007_F70H
307  A042C020 V     C        12:23:20:02 12:23:23:03 01:14:32:16 01:14:35:17 
* FROM CLIP NAME:  56B-2A 
* REEL: GT_COTERIE_DAY_01_SDR_V2_33.CUB 
* SOURCE FILE: A042C020_141007_F70H
308  A042C016 V     C        12:04:16:00 12:04:20:18 01:14:35:17 01:14:40:11 
* FROM CLIP NAME:  56-2A 
* REEL: GT_COTERIE_DAY_01_SDR_V2_33.CUB 
* SOURCE FILE: A042C016_141007_F70H
309  A006C002 V     C        17:16:31:06 17:16:39:23 01:14:40:11 01:14:49:04 
* FROM CLIP NAME:  A57-2-A_54 
* REEL: GT_COTERIE_NIGHT_01_SDR_V2_33 ( 
* SOURCE FILE: A006C002_140312_F70H
310  B008C004 V     C        17:22:23:08 17:22:29:06 01:14:49:04 01:14:55:02 
* FROM CLIP NAME:  A57A-2-B_54 
* REEL: GT_COTERIE_NIGHT_01_SDR_V2_33 ( 
* SOURCE FILE: B008C004_140312_C603
311  A006C004 V     C        17:22:29:06 17:22:37:19 01:14:55:02 01:15:03:15 
* FROM CLIP NAME:  A57A-2-A_54 
* REEL: GT_COTERIE_NIGHT_01_SDR_V2_33 ( 
* SOURCE FILE: A006C004_140312_F70H
312  A006C005 V     C        17:29:29:16 17:29:31:15 01:15:03:15 01:15:05:14 
* FROM CLIP NAME:  A57B-1-A ONLYX5_54 
* REEL: GT_COTERIE_NIGHT_01_SDR_V2_33 ( 
* SOURCE FILE: A006C005_140312_F70H
313  A006C002 V     C        17:16:54:11 17:17:03:08 01:15:05:14 01:15:14:11 
* FROM CLIP NAME:  A57-2-A_54 
* REEL: GT_COTERIE_NIGHT_01_SDR_V2_33 ( 
* SOURCE FILE: A006C002_140312_F70H
314  B008C003 V     C        17:20:13:10 17:20:18:11 01:15:14:11 01:15:19:12 
* FROM CLIP NAME:  A57A-1-B_54 
* REEL: GT_COTERIE_NIGHT_01_SDR_V2_33 ( 
* SOURCE FILE: B008C003_140312_C603
315  A006C003 V     C        17:20:16:18 17:20:21:21 01:15:19:12 01:15:24:15 
* FROM CLIP NAME:  A57A-1-A_54 
* REEL: GT_COTERIE_NIGHT_01_SDR_V2_33 ( 
* SOURCE FILE: A006C003_140312_F70H
316  B008C002 V     C        17:17:11:05 17:17:14:14 01:15:24:15 01:15:28:00 
* FROM CLIP NAME:  A57-2-B_54 
* REEL: GT_COTERIE_NIGHT_01_SDR_V2_33 ( 
* SOURCE FILE: B008C002_140312_C603
317  A014C009 V     C        18:15:01:17 18:15:04:03 01:15:28:00 01:15:30:10 
* FROM CLIP NAME:  59A-1A 
* REEL: GT_SPECK_DAY_SDR_V2_33.CUBE 
* SOURCE FILE: A014C009_140922_F70H
318  A014C008 V     C        18:07:12:11 18:07:20:13 01:15:30:10 01:15:38:12 
* FROM CLIP NAME:  59-2A 
* REEL: GT_SPECK_DAY_SDR_V2_33.CUBE 
* SOURCE FILE: A014C008_140922_F70H
319  B016C003 V     C        18:48:20:10 18:48:23:08 01:15:38:12 01:15:41:10 
* FROM CLIP NAME:  59B-1 B-ONLYX3 
* REEL: GT_SPECK_DAY_SDR_V2_33.CUBE 
* SOURCE FILE: B016C003_200921_G90D
320  B016C003 V     C        18:49:16:03 18:49:18:05 01:15:41:10 01:15:43:12 
* FROM CLIP NAME:  59B-1 B-ONLYX3 
* REEL: GT_SPECK_DAY_SDR_V2_33.CUBE 
* SOURCE FILE: B016C003_200921_G90D
321  A014C009 V     C        18:15:14:22 18:15:17:09 01:15:43:12 01:15:45:23 
* FROM CLIP NAME:  59A-1A 
* REEL: GT_SPECK_DAY_SDR_V2_33.CUBE 
* SOURCE FILE: A014C009_140922_F70H
322  A014C008 V     C        18:07:24:14 18:07:27:06 01:15:45:23 01:15:48:15 
* FROM CLIP NAME:  59-2A 
* REEL: GT_SPECK_DAY_SDR_V2_33.CUBE 
* SOURCE FILE: A014C008_140922_F70H
323  B016C003 V     C        18:49:47:17 18:49:49:11 01:15:48:15 01:15:50:09 
* FROM CLIP NAME:  59B-1 B-ONLYX3 
* REEL: GT_SPECK_DAY_SDR_V2_33.CUBE 
* SOURCE FILE: B016C003_200921_G90D
324  A015C002 V     C        18:36:25:23 18:36:28:06 01:15:50:09 01:15:52:16 
* FROM CLIP NAME:  60A-1A 
* REEL: GT_SPECK_DAY_SDR_V2_33.CUBE 
* SOURCE FILE: A015C002_140922_F70H
325  B016C001 V     C        18:28:49:20 18:28:52:06 01:15:52:16 01:15:55:02 
* FROM CLIP NAME:  60-2B 
* REEL: GT_SPECK_DAY_SDR_V2_33.CUBE 
* SOURCE FILE: B016C001_200921_G90D
326  B016C002 V     C        18:36:33:10 18:36:35:17 01:15:55:02 01:15:57:09 
* FROM CLIP NAME:  60A-1B 
* REEL: GT_SPECK_DAY_SDR_V2_33.CUBE 
* SOURCE FILE: B016C002_200921_G90D
327  A008C021 V     C        16:08:57:14 16:09:01:14 01:15:57:09 01:16:01:09 
* FROM CLIP NAME:  63-4-A-ONLY 
* REEL: GT_COTERIE_NIGHT_02_LC_SDR_V2_3 
* SOURCE FILE: A008C021_140313_F70H
328  A008C021 V     C        16:09:06:08 16:09:08:06 01:16:01:09 01:16:03:07 
* FROM CLIP NAME:  63-4-A-ONLY 
* REEL: GT_COTERIE_NIGHT_02_LC_SDR_V2_3 
* SOURCE FILE: A008C021_140313_F70H
329  A008C021 V     C        16:09:10:00 16:09:13:16 01:16:03:07 01:16:06:23 
* FROM CLIP NAME:  63-4-A-ONLY 
* REEL: GT_COTERIE_NIGHT_02_LC_SDR_V2_3 
* SOURCE FILE: A008C021_140313_F70H
330  A008C021 V     C        16:09:13:16 16:09:18:15 01:16:06:23 01:16:11:12 
M2   A008C021       026.2                16:09:13:16 
* FROM CLIP NAME:  63-4-A-ONLY 
* REEL: GT_COTERIE_NIGHT_02_LC_SDR_V2_3 
* SOURCE FILE: A008C021_140313_F70H
331     BL    V     C        00:00:00:00 00:00:01:00 01:16:11:12 01:16:12:12 
* SOURCE FILE: (NULL)
332     BL    V     C        00:00:00:00 00:00:00:12 01:16:12:12 01:16:13:00 
* SOURCE FILE: (NULL)
333  A021C003 V     C        08:15:34:12 08:15:38:12 01:16:13:00 01:16:17:00 
* FROM CLIP NAME:  R57A-1A 
* REEL: GT_EXT_DAY_SDR_V2_33.CUBE 
* SOURCE FILE: A021C003_140925_F70H
334  A021C002 V     C        08:12:55:12 08:12:57:10 01:16:17:00 01:16:18:22 
* FROM CLIP NAME:  R57-2A 
* REEL: GT_EXT_DAY_SDR_V2_33.CUBE 
* SOURCE FILE: A021C002_140925_F70H
335  B022C004 V     C        08:12:58:02 08:13:02:13 01:16:18:22 01:16:23:09 
* FROM CLIP NAME:  R57-2B 
* REEL: GT_EXT_DAY_SDR_V2_33.CUBE 
* SOURCE FILE: B022C004_200924_G90D
336  A021NSC0 V     C        08:25:07:00 08:25:10:07 01:16:23:09 01:16:26:16 
* 48FPS 
* FROM CLIP NAME:  R57C-1A 48FPS 
* REEL: GT_EXT_DAY_SDR_V2_33.CUBE 
* SOURCE FILE: A021NSC007_140925_F70H
337  A021NSC0 V     C        08:29:02:14 08:29:05:20 01:16:26:16 01:16:29:22 
* 48FPS 
* FROM CLIP NAME:  R57E-1A-ONLYX2 48FPS 
* REEL: GT_EXT_DAY_SDR_V2_33.CUBE 
* SOURCE FILE: A021NSC009_140925_F70H
338  A021NSC0 V     C        08:27:12:06 08:27:14:11 01:16:29:22 01:16:32:03 
* 48FPS 
* FROM CLIP NAME:  R57C-2A 48FPS 
* REEL: GT_EXT_DAY_SDR_V2_33.CUBE 
* SOURCE FILE: A021NSC008_140925_F70H
339  B022NSC0 V     C        08:39:35:20 08:39:37:20 01:16:32:03 01:16:34:03 
* 96FPS TAIL STIX 
* FROM CLIP NAME:  R57D-3B-ONLY 96FPS 
* REEL: GT_EXT_DAY_SDR_V2_33.CUBE 
* SOURCE FILE: B022NSC015_200924_G90D
340  B022C004 V     C        08:13:05:21 08:13:07:08 01:16:34:03 01:16:35:14 
* FROM CLIP NAME:  R57-2B 
* REEL: GT_EXT_DAY_SDR_V2_33.CUBE 
* SOURCE FILE: B022C004_200924_G90D
341  A021C002 V     C        08:13:07:08 08:13:11:03 01:16:35:14 01:16:39:09 
* FROM CLIP NAME:  R57-2A 
* REEL: GT_EXT_DAY_SDR_V2_33.CUBE 
* SOURCE FILE: A021C002_140925_F70H
342  A021C014 V     C        09:31:32:19 09:31:39:21 01:16:39:09 01:16:46:11 
* FROM CLIP NAME:  R58A-1A 
* REEL: GT_EXT_DAY_SDR_V2_33.CUBE 
* SOURCE FILE: A021C014_140925_F70H
343  B022C019 V     C        09:31:39:21 09:31:44:10 01:16:46:11 01:16:51:00 
* FROM CLIP NAME:  R58A-1B 
* REEL: GT_EXT_DAY_SDR_V2_33.CUBE 
* SOURCE FILE: B022C019_200924_G90D
344  A021C016 V     C        09:37:28:14 09:37:32:21 01:16:51:00 01:16:55:07 
* FROM CLIP NAME:  R58A-3A 
* REEL: GT_EXT_DAY_SDR_V2_33.CUBE 
* SOURCE FILE: A021C016_140925_F70H
345  A021C018 V     C        09:56:35:11 09:56:38:05 01:16:55:07 01:16:58:01 
* FROM CLIP NAME:  R58B-2A 
* REEL: GT_EXT_DAY_SDR_V2_33.CUBE 
* SOURCE FILE: A021C018_140925_F70H
346  A021C015 V     C        09:34:06:10 09:34:08:09 01:16:58:01 01:17:00:00 
* FROM CLIP NAME:  R58A-2A 
* REEL: GT_EXT_DAY_SDR_V2_33.CUBE 
* SOURCE FILE: A021C015_140925_F70H
347  B022C021 V     C        09:37:43:09 09:37:45:10 01:17:00:00 01:17:02:01 
* FROM CLIP NAME:  R58A-3B 
* REEL: GT_EXT_DAY_SDR_V2_33.CUBE 
* SOURCE FILE: B022C021_200924_G90D
348  A021C016 V     C        09:37:45:10 09:37:49:15 01:17:02:01 01:17:06:06 
* FROM CLIP NAME:  R58A-3A 
* REEL: GT_EXT_DAY_SDR_V2_33.CUBE 
* SOURCE FILE: A021C016_140925_F70H
349  B022C018 V     C        09:29:29:12 09:29:33:15 01:17:06:06 01:17:10:09 
* FROM CLIP NAME:  R58-3B 
* REEL: GT_EXT_DAY_SDR_V2_33.CUBE 
* SOURCE FILE: B022C018_200924_G90D
350  A021C013 V     C        09:29:33:15 09:29:36:20 01:17:10:09 01:17:13:14 
* FROM CLIP NAME:  R58-3A 
* REEL: GT_EXT_DAY_SDR_V2_33.CUBE 
* SOURCE FILE: A021C013_140925_F70H
351  B022C024 V     C        10:00:03:08 10:00:05:16 01:17:13:14 01:17:15:22 
* FROM CLIP NAME:  R58C-1B 
* REEL: GT_EXT_DAY_SDR_V2_33.CUBE 
* SOURCE FILE: B022C024_200924_G90D
352  A021C015 V     C        09:34:22:08 09:34:26:06 01:17:15:22 01:17:19:20 
* FROM CLIP NAME:  R58A-2A 
* REEL: GT_EXT_DAY_SDR_V2_33.CUBE 
* SOURCE FILE: A021C015_140925_F70H
353  A021C016 V     C        09:38:37:12 09:38:40:16 01:17:19:20 01:17:23:00 
* FROM CLIP NAME:  R58A-3A 
* REEL: GT_EXT_DAY_SDR_V2_33.CUBE 
* SOURCE FILE: A021C016_140925_F70H
354  B022C021 V     C        09:38:40:10 09:38:42:15 01:17:23:00 01:17:25:05 
* FROM CLIP NAME:  R58A-3B 
* REEL: GT_EXT_DAY_SDR_V2_33.CUBE 
* SOURCE FILE: B022C021_200924_G90D
355  A021C020 V     C        10:13:13:17 10:13:17:04 01:17:25:05 01:17:28:16 
* FROM CLIP NAME:  R58D-1A 
* REEL: GT_EXT_DAY_SDR_V2_33.CUBE 
* SOURCE FILE: A021C020_140925_F70H
356  A019C008 V     C        16:31:17:17 16:31:22:09 01:17:28:16 01:17:33:08 
* FROM CLIP NAME:  62F-1A 
* REEL: GT_COTERIE_NIGHT_02_LC_SDR_V2_3 
* SOURCE FILE: A019C008_140924_F70H
357  A019C004 V     C        15:52:31:23 15:52:39:13 01:17:33:08 01:17:40:22 
* FROM CLIP NAME:  62C-1A 
* REEL: GT_COTERIE_NIGHT_02_LC_SDR_V2_3 
* SOURCE FILE: A019C004_140924_F70H
358  A019C005 V     C        16:17:23:15 16:17:28:07 01:17:40:22 01:17:45:14 
* FROM CLIP NAME:  62D-1A 
* REEL: GT_COTERIE_NIGHT_02_LC_SDR_V2_3 
* SOURCE FILE: A019C005_140924_F70H
359  A019C001 V     C        15:24:47:21 15:24:53:13 01:17:45:14 01:17:51:06 
* FROM CLIP NAME:  62-1A 
* REEL: GT_COTERIE_NIGHT_02_LC_SDR_V2_3 
* SOURCE FILE: A019C001_140924_F70H
360  B020C005 V     C        15:47:35:18 15:47:40:00 01:17:51:06 01:17:55:12 
* FROM CLIP NAME:  62C-1B 
* REEL: GT_COTERIE_NIGHT_02_LC_SDR_V2_3 
* SOURCE FILE: B020C005_200923_G90D
361  A019C005 V     C        16:17:38:06 16:17:40:03 01:17:55:12 01:17:57:09 
* FROM CLIP NAME:  62D-1A 
* REEL: GT_COTERIE_NIGHT_02_LC_SDR_V2_3 
* SOURCE FILE: A019C005_140924_F70H
362  A019C004 V     C        15:52:59:05 15:53:04:01 01:17:57:09 01:18:02:05 
* FROM CLIP NAME:  62C-1A 
* REEL: GT_COTERIE_NIGHT_02_LC_SDR_V2_3 
* SOURCE FILE: A019C004_140924_F70H
363  B020C005 V     C        15:48:38:12 15:48:40:15 01:18:02:05 01:18:04:08 
* FROM CLIP NAME:  62C-1B 
* REEL: GT_COTERIE_NIGHT_02_LC_SDR_V2_3 
* SOURCE FILE: B020C005_200923_G90D
364  A019C006 V     C        16:24:14:05 16:24:16:00 01:18:04:08 01:18:06:03 
* FROM CLIP NAME:  62E-1A 
* REEL: GT_COTERIE_NIGHT_02_LC_SDR_V2_3 
* SOURCE FILE: A019C006_140924_F70H
365  B020C005 V     C        15:53:05:20 15:53:07:22 01:18:06:03 01:18:08:05 
* FROM CLIP NAME:  62C-1B 
* REEL: GT_COTERIE_NIGHT_02_LC_SDR_V2_3 
* SOURCE FILE: B020C005_200923_G90D
366  B020C007 V     C        16:24:18:17 16:24:23:13 01:18:08:05 01:18:13:01 
* FROM CLIP NAME:  62E-1B 
* REEL: GT_COTERIE_NIGHT_02_LC_SDR_V2_3 
* SOURCE FILE: B020C007_200923_G90D
367  A019C008 V     C        16:31:58:05 16:32:00:22 01:18:13:01 01:18:15:18 
* FROM CLIP NAME:  62F-1A 
* REEL: GT_COTERIE_NIGHT_02_LC_SDR_V2_3 
* SOURCE FILE: A019C008_140924_F70H
368  B020C005 V     C        15:47:51:14 15:47:53:22 01:18:15:18 01:18:18:02 
* FROM CLIP NAME:  62C-1B 
* REEL: GT_COTERIE_NIGHT_02_LC_SDR_V2_3 
* SOURCE FILE: B020C005_200923_G90D
369  A019C006 V     C        16:24:26:18 16:24:29:11 01:18:18:02 01:18:20:19 
* FROM CLIP NAME:  62E-1A 
* REEL: GT_COTERIE_NIGHT_02_LC_SDR_V2_3 
* SOURCE FILE: A019C006_140924_F70H
370  A019C004 V     C        15:53:16:17 15:53:23:15 01:18:20:19 01:18:27:17 
* FROM CLIP NAME:  62C-1A 
* REEL: GT_COTERIE_NIGHT_02_LC_SDR_V2_3 
* SOURCE FILE: A019C004_140924_F70H
371  A019C008 V     C        16:32:14:08 16:32:16:00 01:18:27:17 01:18:29:09 
* FROM CLIP NAME:  62F-1A 
* REEL: GT_COTERIE_NIGHT_02_LC_SDR_V2_3 
* SOURCE FILE: A019C008_140924_F70H
372  A019C002 V     C        15:33:04:23 15:33:10:13 01:18:29:09 01:18:34:23 
* FROM CLIP NAME:  62A-1A 
* REEL: GT_COTERIE_NIGHT_02_LC_SDR_V2_3 
* SOURCE FILE: A019C002_140924_F70H
373  A019C006 V     C        16:24:44:16 16:24:46:19 01:18:34:23 01:18:37:02 
* FROM CLIP NAME:  62E-1A 
* REEL: GT_COTERIE_NIGHT_02_LC_SDR_V2_3 
* SOURCE FILE: A019C006_140924_F70H
374  A019C004 V     C        15:53:37:23 15:53:40:10 01:18:37:02 01:18:39:13 
* FROM CLIP NAME:  62C-1A 
* REEL: GT_COTERIE_NIGHT_02_LC_SDR_V2_3 
* SOURCE FILE: A019C004_140924_F70H
375  A019C008 V     C        16:32:24:00 16:32:25:12 01:18:39:13 01:18:41:01 
* FROM CLIP NAME:  62F-1A 
* REEL: GT_COTERIE_NIGHT_02_LC_SDR_V2_3 
* SOURCE FILE: A019C008_140924_F70H
376  A019C004 V     C        15:53:41:22 15:53:43:07 01:18:41:01 01:18:42:10 
* FROM CLIP NAME:  62C-1A 
* REEL: GT_COTERIE_NIGHT_02_LC_SDR_V2_3 
* SOURCE FILE: A019C004_140924_F70H
377  B020C009 V     C        16:32:31:10 16:32:39:12 01:18:42:10 01:18:50:12 
* FROM CLIP NAME:  62F-1B 
* REEL: GT_COTERIE_NIGHT_02_LC_SDR_V2_3 
* SOURCE FILE: B020C009_200923_G90D
378  B020C003 V     C        15:33:27:01 15:33:29:01 01:18:50:12 01:18:52:12 
* FROM CLIP NAME:  62A-1B 
* REEL: GT_COTERIE_NIGHT_02_LC_SDR_V2_3 
* SOURCE FILE: B020C003_200923_G90D
379  A019C008 V     C        16:32:45:05 16:32:47:22 01:18:52:12 01:18:55:05 
* FROM CLIP NAME:  62F-1A 
* REEL: GT_COTERIE_NIGHT_02_LC_SDR_V2_3 
* SOURCE FILE: A019C008_140924_F70H
380  A019C002 V     C        15:33:31:18 15:33:34:04 01:18:55:05 01:18:57:15 
* FROM CLIP NAME:  62A-1A 
* REEL: GT_COTERIE_NIGHT_02_LC_SDR_V2_3 
* SOURCE FILE: A019C002_140924_F70H
381  A019C006 V     C        16:25:15:04 16:25:17:01 01:18:57:15 01:18:59:12 
* FROM CLIP NAME:  62E-1A 
* REEL: GT_COTERIE_NIGHT_02_LC_SDR_V2_3 
* SOURCE FILE: A019C006_140924_F70H
382  A019C004 V     C        15:54:00:02 15:54:04:09 01:18:59:12 01:19:03:19 
* FROM CLIP NAME:  62C-1A 
* REEL: GT_COTERIE_NIGHT_02_LC_SDR_V2_3 
* SOURCE FILE: A019C004_140924_F70H
383  A019C006 V     C        16:25:24:03 16:25:27:08 01:19:03:19 01:19:07:00 
* FROM CLIP NAME:  62E-1A 
* REEL: GT_COTERIE_NIGHT_02_LC_SDR_V2_3 
* SOURCE FILE: A019C006_140924_F70H
384  B020C005 V     C        15:48:51:20 15:48:54:13 01:19:07:00 01:19:09:17 
* FROM CLIP NAME:  62C-1B 
* REEL: GT_COTERIE_NIGHT_02_LC_SDR_V2_3 
* SOURCE FILE: B020C005_200923_G90D
385  B020C007 V     C        16:25:27:21 16:25:30:23 01:19:09:17 01:19:12:19 
* FROM CLIP NAME:  62E-1B 
* REEL: GT_COTERIE_NIGHT_02_LC_SDR_V2_3 
* SOURCE FILE: B020C007_200923_G90D
386  A019C004 V     C        15:48:59:20 15:49:01:19 01:19:12:19 01:19:14:18 
* FROM CLIP NAME:  62C-1A 
* REEL: GT_COTERIE_NIGHT_02_LC_SDR_V2_3 
* SOURCE FILE: A019C004_140924_F70H
387  A019C005 V     C        16:18:57:06 16:18:58:10 01:19:14:18 01:19:15:22 
* FROM CLIP NAME:  62D-1A 
* REEL: GT_COTERIE_NIGHT_02_LC_SDR_V2_3 
* SOURCE FILE: A019C005_140924_F70H
388  A019C004 V     C        15:49:06:06 15:49:08:15 01:19:15:22 01:19:18:07 
* FROM CLIP NAME:  62C-1A 
* REEL: GT_COTERIE_NIGHT_02_LC_SDR_V2_3 
* SOURCE FILE: A019C004_140924_F70H
389  A019C008 V     C        16:33:47:16 16:33:50:01 01:19:18:07 01:19:20:16 
* FROM CLIP NAME:  62F-1A 
* REEL: GT_COTERIE_NIGHT_02_LC_SDR_V2_3 
* SOURCE FILE: A019C008_140924_F70H
390  A019C002 V     C        15:34:04:22 15:34:09:04 01:19:20:16 01:19:24:22 
* FROM CLIP NAME:  62A-1A 
* REEL: GT_COTERIE_NIGHT_02_LC_SDR_V2_3 
* SOURCE FILE: A019C002_140924_F70H
391  A019C008 V     C        16:33:55:01 16:33:57:22 01:19:24:22 01:19:27:19 
* FROM CLIP NAME:  62F-1A 
* REEL: GT_COTERIE_NIGHT_02_LC_SDR_V2_3 
* SOURCE FILE: A019C008_140924_F70H
392  A019C004 V     C        15:54:30:23 15:54:33:03 01:19:27:19 01:19:29:23 
* FROM CLIP NAME:  62C-1A 
* REEL: GT_COTERIE_NIGHT_02_LC_SDR_V2_3 
* SOURCE FILE: A019C004_140924_F70H
393  A019C006 V     C        16:25:57:07 16:26:00:17 01:19:29:23 01:19:33:09 
* FROM CLIP NAME:  62E-1A 
* REEL: GT_COTERIE_NIGHT_02_LC_SDR_V2_3 
* SOURCE FILE: A019C006_140924_F70H
394  A019C004 V     C        15:56:00:04 15:56:02:13 01:19:33:09 01:19:35:18 
* FROM CLIP NAME:  62C-1A 
* REEL: GT_COTERIE_NIGHT_02_LC_SDR_V2_3 
* SOURCE FILE: A019C004_140924_F70H
395  B020C007 V     C        16:26:05:21 16:26:08:19 01:19:35:18 01:19:38:16 
* FROM CLIP NAME:  62E-1B 
* REEL: GT_COTERIE_NIGHT_02_LC_SDR_V2_3 
* SOURCE FILE: B020C007_200923_G90D
396  B020C005 V     C        15:49:31:08 15:49:34:00 01:19:38:16 01:19:41:08 
* FROM CLIP NAME:  62C-1B 
* REEL: GT_COTERIE_NIGHT_02_LC_SDR_V2_3 
* SOURCE FILE: B020C005_200923_G90D
397  A019C005 V     C        16:19:37:00 16:19:39:01 01:19:41:08 01:19:43:09 
* FROM CLIP NAME:  62D-1A 
* REEL: GT_COTERIE_NIGHT_02_LC_SDR_V2_3 
* SOURCE FILE: A019C005_140924_F70H
398  A019C003 V     C        15:42:24:07 15:42:25:15 01:19:43:09 01:19:44:17 
* FROM CLIP NAME:  62B-1A 
* REEL: GT_COTERIE_NIGHT_02_LC_SDR_V2_3 
* SOURCE FILE: A019C003_140924_F70H
399  A019C004 V     C        15:56:16:18 15:56:20:12 01:19:44:17 01:19:48:11 
* FROM CLIP NAME:  62C-1A 
* REEL: GT_COTERIE_NIGHT_02_LC_SDR_V2_3 
* SOURCE FILE: A019C004_140924_F70H
400  A019C003 V     C        15:42:36:01 15:42:38:02 01:19:48:11 01:19:50:12 
* FROM CLIP NAME:  62B-1A 
* REEL: GT_COTERIE_NIGHT_02_LC_SDR_V2_3 
* SOURCE FILE: A019C003_140924_F70H
401  A019C006 V     C        16:26:33:07 16:26:35:23 01:19:50:12 01:19:53:04 
* FROM CLIP NAME:  62E-1A 
* REEL: GT_COTERIE_NIGHT_02_LC_SDR_V2_3 
* SOURCE FILE: A019C006_140924_F70H
402  B020C003 V     C        15:34:39:20 15:34:40:22 01:19:53:04 01:19:54:06 
* FROM CLIP NAME:  62A-1B 
* REEL: GT_COTERIE_NIGHT_02_LC_SDR_V2_3 
* SOURCE FILE: B020C003_200923_G90D
403  A019C006 V     C        16:26:38:02 16:26:39:19 01:19:54:06 01:19:55:23 
* FROM CLIP NAME:  62E-1A 
* REEL: GT_COTERIE_NIGHT_02_LC_SDR_V2_3 
* SOURCE FILE: A019C006_140924_F70H
404  A019C002 V     C        15:34:49:09 15:34:52:23 01:19:55:23 01:19:59:13 
* FROM CLIP NAME:  62A-1A 
* REEL: GT_COTERIE_NIGHT_02_LC_SDR_V2_3 
* SOURCE FILE: A019C002_140924_F70H
405  A019C006 V     C        16:26:42:22 16:26:45:14 01:19:59:13 01:20:02:05 
* FROM CLIP NAME:  62E-1A 
* REEL: GT_COTERIE_NIGHT_02_LC_SDR_V2_3 
* SOURCE FILE: A019C006_140924_F70H
406  A019C002 V     C        15:34:57:14 15:34:59:17 01:20:02:05 01:20:04:08 
* FROM CLIP NAME:  62A-1A 
* REEL: GT_COTERIE_NIGHT_02_LC_SDR_V2_3 
* SOURCE FILE: A019C002_140924_F70H
407  A019C006 V     C        16:26:47:17 16:26:49:15 01:20:04:08 01:20:06:06 
* FROM CLIP NAME:  62E-1A 
* REEL: GT_COTERIE_NIGHT_02_LC_SDR_V2_3 
* SOURCE FILE: A019C006_140924_F70H
408  B020C003 V     C        15:35:05:04 15:35:08:19 01:20:06:06 01:20:09:21 
* FROM CLIP NAME:  62A-1B 
* REEL: GT_COTERIE_NIGHT_02_LC_SDR_V2_3 
* SOURCE FILE: B020C003_200923_G90D
409  A019C008 V     C        16:35:05:03 16:35:09:11 01:20:09:21 01:20:14:05 
* FROM CLIP NAME:  62F-1A 
* REEL: GT_COTERIE_NIGHT_02_LC_SDR_V2_3 
* SOURCE FILE: A019C008_140924_F70H
410  B020C003 V     C        15:35:09:01 15:35:12:06 01:20:14:05 01:20:17:10 
* FROM CLIP NAME:  62A-1B 
* REEL: GT_COTERIE_NIGHT_02_LC_SDR_V2_3 
* SOURCE FILE: B020C003_200923_G90D
411  A019C008 V     C        16:35:09:16 16:35:17:01 01:20:17:10 01:20:24:19 
* FROM CLIP NAME:  62F-1A 
* REEL: GT_COTERIE_NIGHT_02_LC_SDR_V2_3 
* SOURCE FILE: A019C008_140924_F70H
412  B038C002 V     C        19:24:37:21 19:24:40:02 01:20:24:19 01:20:27:00 
* FROM CLIP NAME:  A71D-1B 
* REEL: GT_COTERIE_NIGHT_02_LC_SDR_V2_3 
* SOURCE FILE: B038C002_201005_G90D
413  A041C007 V     C        18:51:29:13 18:51:35:09 01:20:27:00 01:20:32:20 
* FROM CLIP NAME:  A71-1A 
* REEL: GT_COTERIE_NIGHT_02_LC_SDR_V2_3 
* SOURCE FILE: A041C007_141006_F70H
414  A041C010 V     C        19:22:08:03 19:22:12:04 01:20:32:20 01:20:36:21 
* FROM CLIP NAME:  A71C-1A 
* REEL: GT_COTERIE_NIGHT_02_LC_SDR_V2_3 
* SOURCE FILE: A041C010_141006_F70H
415  A041C009 V     C        18:59:32:00 18:59:33:14 01:20:36:21 01:20:38:11 
* FROM CLIP NAME:  A71B-1A 
* REEL: GT_COTERIE_NIGHT_02_LC_SDR_V2_3 
* SOURCE FILE: A041C009_141006_F70H
416  A041C011 V     C        19:24:53:10 19:24:54:22 01:20:38:11 01:20:39:23 
* FROM CLIP NAME:  A71D-1A 
* REEL: GT_COTERIE_NIGHT_02_LC_SDR_V2_3 
* SOURCE FILE: A041C011_141006_F70H
417  A041C008 V     C        18:55:44:06 18:55:49:01 01:20:39:23 01:20:44:18 
* FROM CLIP NAME:  A71A-1A 
* REEL: GT_COTERIE_NIGHT_02_LC_SDR_V2_3 
* SOURCE FILE: A041C008_141006_F70H
418  A038C021 V     C        19:00:18:17 19:00:23:19 01:20:44:18 01:20:49:20 
* FROM CLIP NAME:  B71A-1 A-ONLYX5 
* REEL: GT_COTERIE_NIGHT_02_LC_SDR_V2_3 
* SOURCE FILE: A038C021_141003_F70H
419  B036C002 V     C        19:33:42:20 19:33:45:00 01:20:49:20 01:20:52:00 
* FROM CLIP NAME:  B71B-2B 
* REEL: GT_COTERIE_NIGHT_02_LC_SDR_V2_3 
* SOURCE FILE: B036C002_201002_G90D
420  A038C023 V     C        19:33:45:00 19:33:48:04 01:20:52:00 01:20:55:04 
* FROM CLIP NAME:  B71B-2A 
* REEL: GT_COTERIE_NIGHT_02_LC_SDR_V2_3 
* SOURCE FILE: A038C023_141003_F70H
421  A039C002 V     C        20:14:17:22 20:14:33:17 01:20:55:04 01:21:10:23 
* FROM CLIP NAME:  B71G-1A 
* REEL: GT_COTERIE_NIGHT_02_LC_SDR_V2_3 
* SOURCE FILE: A039C002_141003_F70H
422  A038C026 V     C        19:48:23:22 19:48:26:08 01:21:10:23 01:21:13:09 
* FROM CLIP NAME:  B71E-1A 
* REEL: GT_COTERIE_NIGHT_02_LC_SDR_V2_3 
* SOURCE FILE: A038C026_141003_F70H
423  B036C006 V     C        19:40:21:15 19:40:23:06 01:21:13:09 01:21:15:00 
* FROM CLIP NAME:  B71D-1B 
* REEL: GT_COTERIE_NIGHT_02_LC_SDR_V2_3 
* SOURCE FILE: B036C006_201002_G90D
424  A038C024 V     C        19:37:07:20 19:37:11:01 01:21:15:00 01:21:18:05 
* FROM CLIP NAME:  B71C-1A 
* REEL: GT_COTERIE_NIGHT_02_LC_SDR_V2_3 
* SOURCE FILE: A038C024_141003_F70H
425  A039C002 V     C        20:14:42:12 20:14:47:02 01:21:18:05 01:21:22:19 
* FROM CLIP NAME:  B71G-1A 
* REEL: GT_COTERIE_NIGHT_02_LC_SDR_V2_3 
* SOURCE FILE: A039C002_141003_F70H
426  B036C010 V     C        20:21:05:08 20:21:10:13 01:21:22:19 01:21:28:00 
* FROM CLIP NAME:  B71H-1B 
* REEL: GT_COTERIE_NIGHT_02_LC_SDR_V2_3 
* SOURCE FILE: B036C010_201002_G90D
427  A039C001 V     C        20:08:25:17 20:08:27:20 01:21:28:00 01:21:30:03 
* FROM CLIP NAME:  B71F-1A 
* REEL: GT_COTERIE_NIGHT_02_LC_SDR_V2_3 
* SOURCE FILE: A039C001_141003_F70H
428  A038C023 V     C        19:34:22:16 19:34:24:15 01:21:30:03 01:21:32:02 
* FROM CLIP NAME:  B71B-2A 
* REEL: GT_COTERIE_NIGHT_02_LC_SDR_V2_3 
* SOURCE FILE: A038C023_141003_F70H
429  B036C008 V     C        20:08:30:03 20:08:32:00 01:21:32:02 01:21:33:23 
* FROM CLIP NAME:  B71F-1B 
* REEL: GT_COTERIE_NIGHT_02_LC_SDR_V2_3 
* SOURCE FILE: B036C008_201002_G90D
430  B036C002 V     C        19:34:24:13 19:34:26:05 01:21:33:23 01:21:35:15 
* FROM CLIP NAME:  B71B-2B 
* REEL: GT_COTERIE_NIGHT_02_LC_SDR_V2_3 
* SOURCE FILE: B036C002_201002_G90D
431  B036C008 V     C        20:10:13:18 20:10:17:23 01:21:35:15 01:21:39:20 
* FROM CLIP NAME:  B71F-1B 
* REEL: GT_COTERIE_NIGHT_02_LC_SDR_V2_3 
* SOURCE FILE: B036C008_201002_G90D
432  A038C023 V     C        19:34:34:07 19:34:38:02 01:21:39:20 01:21:43:15 
* FROM CLIP NAME:  B71B-2A 
* REEL: GT_COTERIE_NIGHT_02_LC_SDR_V2_3 
* SOURCE FILE: A038C023_141003_F70H
433  B036C002 V     C        19:34:38:09 19:34:40:21 01:21:43:15 01:21:46:03 
* FROM CLIP NAME:  B71B-2B 
* REEL: GT_COTERIE_NIGHT_02_LC_SDR_V2_3 
* SOURCE FILE: B036C002_201002_G90D
434  A041C006 V     C        18:19:47:12 18:20:00:03 01:21:46:03 01:21:58:18 
* FROM CLIP NAME:  C71B-1A 
* REEL: GT_COTERIE_NIGHT_02_LC_SDR_V2_3 
* SOURCE FILE: A041C006_141006_F70H
435  A041C006 V     C        18:20:00:03 18:20:00:03 01:21:58:18 01:21:58:18 
435  A041C006 V     D    001 18:20:00:03 18:20:00:04 01:21:58:18 01:21:58:19 
* BLEND, DISSOLVE 
* FROM CLIP NAME:  C71B-1A 
* TO CLIP NAME:  C71B-1A 
* REEL: GT_COTERIE_NIGHT_02_LC_SDR_V2_3 
* SOURCE FILE: A041C006_141006_F70H
436  A041C006 V     C        18:20:00:04 18:20:00:22 01:21:58:19 01:21:59:13 
* FROM CLIP NAME:  C71B-1A 
* REEL: GT_COTERIE_NIGHT_02_LC_SDR_V2_3 
* SOURCE FILE: A041C006_141006_F70H
437     BL    V     C        00:00:00:00 00:00:01:00 01:21:59:13 01:22:00:13 
* SOURCE FILE: (NULL)
438     BL    V     C        00:00:00:00 00:00:00:12 01:22:00:13 01:22:01:01 
* SOURCE FILE: (NULL)
439  B007C002 V     C        10:16:24:03 10:16:29:03 01:22:01:01 01:22:06:01 
* FROM CLIP NAME:  B77-2-B 
* REEL: GT_COTERIE_NIGHT_02_LC_SDR_V2_3 
* SOURCE FILE: B007C002_140311_C603
440  A005C008 V     C        11:49:22:09 11:49:25:19 01:22:06:01 01:22:09:11 
* FROM CLIP NAME:  VB77E-1-A ONLY 
* REEL: GT_COTERIE_NIGHT_02_LC_SDR_V2_3 
* SOURCE FILE: A005C008_140312_F70H
441  A005C005 V     C        11:13:14:16 11:13:18:13 01:22:09:11 01:22:13:08 
* FROM CLIP NAME:  B77C-1-A 
* REEL: GT_COTERIE_NIGHT_02_LC_SDR_V2_3 
* SOURCE FILE: A005C005_140312_F70H
442  A005C006 V     C        11:36:37:10 11:36:39:09 01:22:13:08 01:22:15:07 
* FROM CLIP NAME:  B77D-1-A 
* REEL: GT_COTERIE_NIGHT_02_LC_SDR_V2_3 
* SOURCE FILE: A005C006_140312_F70H
443  B007C005 V     C        11:13:21:05 11:13:24:03 01:22:15:07 01:22:18:05 
* FROM CLIP NAME:  B77C-1-B 
* REEL: GT_COTERIE_NIGHT_02_LC_SDR_V2_3 
* SOURCE FILE: B007C005_140311_C603
444  A005C006 V     C        11:36:42:01 11:36:47:16 01:22:18:05 01:22:23:20 
* FROM CLIP NAME:  B77D-1-A 
* REEL: GT_COTERIE_NIGHT_02_LC_SDR_V2_3 
* SOURCE FILE: A005C006_140312_F70H
445  A005C002 V     C        10:16:47:05 10:16:56:04 01:22:23:20 01:22:32:19 
* FROM CLIP NAME:  B77-2-A 
* REEL: GT_COTERIE_NIGHT_02_LC_SDR_V2_3 
* SOURCE FILE: A005C002_140312_F70H
446  A005C006 V     C        11:36:57:05 11:36:59:22 01:22:32:19 01:22:35:12 
* FROM CLIP NAME:  B77D-1-A 
* REEL: GT_COTERIE_NIGHT_02_LC_SDR_V2_3 
* SOURCE FILE: A005C006_140312_F70H
447  A005C005 V     C        11:15:06:21 11:15:09:20 01:22:35:12 01:22:38:11 
* FROM CLIP NAME:  B77C-1-A 
* REEL: GT_COTERIE_NIGHT_02_LC_SDR_V2_3 
* SOURCE FILE: A005C005_140312_F70H
448  B007C006 V     C        11:37:03:20 11:37:11:08 01:22:38:11 01:22:45:23 
* FROM CLIP NAME:  B77D-1-B 
* REEL: GT_COTERIE_NIGHT_02_LC_SDR_V2_3 
* SOURCE FILE: B007C006_140311_C603
449  A005C005 V     C        11:15:25:07 11:15:30:03 01:22:45:23 01:22:50:19 
* FROM CLIP NAME:  B77C-1-A 
* REEL: GT_COTERIE_NIGHT_02_LC_SDR_V2_3 
* SOURCE FILE: A005C005_140312_F70H
450  A005C006 V     C        11:37:23:06 11:37:26:11 01:22:50:19 01:22:54:00 
* FROM CLIP NAME:  B77D-1-A 
* REEL: GT_COTERIE_NIGHT_02_LC_SDR_V2_3 
* SOURCE FILE: A005C006_140312_F70H
451  B007C005 V     C        11:15:33:22 11:15:35:20 01:22:54:00 01:22:55:22 
* FROM CLIP NAME:  B77C-1-B 
* REEL: GT_COTERIE_NIGHT_02_LC_SDR_V2_3 
* SOURCE FILE: B007C005_140311_C603
452  B007C006 V     C        11:38:08:20 11:38:12:15 01:22:55:22 01:22:59:17 
* FROM CLIP NAME:  B77D-1-B 
* REEL: GT_COTERIE_NIGHT_02_LC_SDR_V2_3 
* SOURCE FILE: B007C006_140311_C603
453  B007C005 V     C        11:15:39:08 11:15:41:11 01:22:59:17 01:23:01:20 
* FROM CLIP NAME:  B77C-1-B 
* REEL: GT_COTERIE_NIGHT_02_LC_SDR_V2_3 
* SOURCE FILE: B007C005_140311_C603
454  B007C007 V     C        11:42:20:02 11:42:21:08 01:23:01:20 01:23:03:02 
* FROM CLIP NAME:  B77D-2-B 
* REEL: GT_COTERIE_NIGHT_02_LC_SDR_V2_3 
* SOURCE FILE: B007C007_140311_C603
455  B007C005 V     C        11:15:45:16 11:15:47:13 01:23:03:02 01:23:04:23 
* FROM CLIP NAME:  B77C-1-B 
* REEL: GT_COTERIE_NIGHT_02_LC_SDR_V2_3 
* SOURCE FILE: B007C005_140311_C603
456  B007C007 V     C        11:42:23:13 11:42:26:14 01:23:04:23 01:23:08:00 
* FROM CLIP NAME:  B77D-2-B 
* REEL: GT_COTERIE_NIGHT_02_LC_SDR_V2_3 
* SOURCE FILE: B007C007_140311_C603
457  A005C005 V     C        11:15:52:04 11:15:54:22 01:23:08:00 01:23:10:18 
* FROM CLIP NAME:  B77C-1-A 
* REEL: GT_COTERIE_NIGHT_02_LC_SDR_V2_3 
* SOURCE FILE: A005C005_140312_F70H
458  A005C007 V     C        11:42:30:07 11:42:32:15 01:23:10:18 01:23:13:02 
* FROM CLIP NAME:  B77D-2-A 
* REEL: GT_COTERIE_NIGHT_02_LC_SDR_V2_3 
* SOURCE FILE: A005C007_140312_F70H
459  A005C005 V     C        11:15:58:21 11:16:01:04 01:23:13:02 01:23:15:09 
* FROM CLIP NAME:  B77C-1-A 
* REEL: GT_COTERIE_NIGHT_02_LC_SDR_V2_3 
* SOURCE FILE: A005C005_140312_F70H
460  A005C010 V     C        12:10:53:20 12:10:56:10 01:23:15:09 01:23:17:23 
* FROM CLIP NAME:  B77G-1-A 
* REEL: GT_COTERIE_NIGHT_02_LC_SDR_V2_3 
* SOURCE FILE: A005C010_140312_F70H
461  B007C007 V     C        11:42:40:12 11:42:42:09 01:23:17:23 01:23:19:20 
* FROM CLIP NAME:  B77D-2-B 
* REEL: GT_COTERIE_NIGHT_02_LC_SDR_V2_3 
* SOURCE FILE: B007C007_140311_C603
462  B007C004 V     C        10:42:23:21 10:42:26:05 01:23:19:20 01:23:22:04 
* FROM CLIP NAME:  B77B-1-B 
* REEL: GT_COTERIE_NIGHT_02_LC_SDR_V2_3 
* SOURCE FILE: B007C004_140311_C603
463  A005C006 V     C        11:38:46:09 11:38:49:05 01:23:22:04 01:23:25:00 
* FROM CLIP NAME:  B77D-1-A 
* REEL: GT_COTERIE_NIGHT_02_LC_SDR_V2_3 
* SOURCE FILE: A005C006_140312_F70H
464  B007C004 V     C        10:42:34:11 10:42:38:06 01:23:25:00 01:23:28:19 
* FROM CLIP NAME:  B77B-1-B 
* REEL: GT_COTERIE_NIGHT_02_LC_SDR_V2_3 
* SOURCE FILE: B007C004_140311_C603
465  B007C008 V     C        12:10:06:07 12:10:07:19 01:23:28:19 01:23:30:07 
* FROM CLIP NAME:  B77G-1-B 
* REEL: GT_COTERIE_NIGHT_02_LC_SDR_V2_3 
* SOURCE FILE: B007C008_140311_C603
466  A005C004 V     C        10:42:41:02 10:42:43:22 01:23:30:07 01:23:33:03 
* FROM CLIP NAME:  B77B-1-A 
* REEL: GT_COTERIE_NIGHT_02_LC_SDR_V2_3 
* SOURCE FILE: A005C004_140312_F70H
467  A005C006 V     C        11:39:00:05 11:39:02:10 01:23:33:03 01:23:35:08 
* FROM CLIP NAME:  B77D-1-A 
* REEL: GT_COTERIE_NIGHT_02_LC_SDR_V2_3 
* SOURCE FILE: A005C006_140312_F70H
468  A005C005 V     C        11:16:32:03 11:16:33:18 01:23:35:08 01:23:36:23 
* FROM CLIP NAME:  B77C-1-A 
* REEL: GT_COTERIE_NIGHT_02_LC_SDR_V2_3 
* SOURCE FILE: A005C005_140312_F70H
469  A005C007 V     C        11:43:12:10 11:43:15:00 01:23:36:23 01:23:39:13 
* FROM CLIP NAME:  B77D-2-A 
* REEL: GT_COTERIE_NIGHT_02_LC_SDR_V2_3 
* SOURCE FILE: A005C007_140312_F70H
470  B007C005 V     C        11:16:38:10 11:16:42:01 01:23:39:13 01:23:43:04 
* FROM CLIP NAME:  B77C-1-B 
* REEL: GT_COTERIE_NIGHT_02_LC_SDR_V2_3 
* SOURCE FILE: B007C005_140311_C603
471  A005C007 V     C        11:43:21:19 11:43:24:09 01:23:43:04 01:23:45:18 
* FROM CLIP NAME:  B77D-2-A 
* REEL: GT_COTERIE_NIGHT_02_LC_SDR_V2_3 
* SOURCE FILE: A005C007_140312_F70H
472  B007C005 V     C        11:16:45:23 11:16:50:07 01:23:45:18 01:23:50:02 
* FROM CLIP NAME:  B77C-1-B 
* REEL: GT_COTERIE_NIGHT_02_LC_SDR_V2_3 
* SOURCE FILE: B007C005_140311_C603
473  B007C007 V     C        11:43:30:09 11:43:35:02 01:23:50:02 01:23:54:19 
* FROM CLIP NAME:  B77D-2-B 
* REEL: GT_COTERIE_NIGHT_02_LC_SDR_V2_3 
* SOURCE FILE: B007C007_140311_C603
474  A005C004 V     C        10:43:17:15 10:43:27:20 01:23:54:19 01:24:05:00 
* FROM CLIP NAME:  B77B-1-A 
* REEL: GT_COTERIE_NIGHT_02_LC_SDR_V2_3 
* SOURCE FILE: A005C004_140312_F70H
475  B007C007 V     C        11:43:43:15 11:43:45:23 01:24:05:00 01:24:07:08 
* FROM CLIP NAME:  B77D-2-B 
* REEL: GT_COTERIE_NIGHT_02_LC_SDR_V2_3 
* SOURCE FILE: B007C007_140311_C603
476  A005C005 V     C        11:17:10:04 11:17:14:23 01:24:07:08 01:24:12:03 
* FROM CLIP NAME:  B77C-1-A 
* REEL: GT_COTERIE_NIGHT_02_LC_SDR_V2_3 
* SOURCE FILE: A005C005_140312_F70H
477  A005C007 V     C        11:45:23:20 11:45:26:03 01:24:12:03 01:24:14:10 
* FROM CLIP NAME:  B77D-2-A 
* REEL: GT_COTERIE_NIGHT_02_LC_SDR_V2_3 
* SOURCE FILE: A005C007_140312_F70H
478  B007C005 V     C        11:17:24:09 11:17:25:23 01:24:14:10 01:24:16:00 
* FROM CLIP NAME:  B77C-1-B 
* REEL: GT_COTERIE_NIGHT_02_LC_SDR_V2_3 
* SOURCE FILE: B007C005_140311_C603
479  A038C019 V     C        17:46:00:23 17:46:11:03 01:24:16:00 01:24:26:04 
* FROM CLIP NAME:  A75K-1 A-ONLYX5 
* REEL: GT_COTERIE_NIGHT_02_LC_SDR_V2_3 
* SOURCE FILE: A038C019_141003_F70H
480  A038C015 V     C        16:49:58:22 16:50:01:22 01:24:26:04 01:24:29:04 
* FROM CLIP NAME:  A75H-1A 
* REEL: GT_COTERIE_NIGHT_02_LC_SDR_V2_3 
* SOURCE FILE: A038C015_141003_F70H
481  A038C013 V     C        16:37:38:23 16:37:40:12 01:24:29:04 01:24:30:17 
* FROM CLIP NAME:  A75F-1A 
* REEL: GT_COTERIE_NIGHT_02_LC_SDR_V2_3 
* SOURCE FILE: A038C013_141003_F70H
482  B035C016 V     C        14:43:20:13 14:43:25:14 01:24:30:17 01:24:35:18 
* FROM CLIP NAME:  A75C-1B 
* REEL: GT_COTERIE_NIGHT_02_LC_SDR_V2_3 
* SOURCE FILE: B035C016_201002_G90D
483  B035C019 V     C        16:37:44:23 16:37:46:14 01:24:35:18 01:24:37:09 
* FROM CLIP NAME:  A75F-1B 
* REEL: GT_COTERIE_NIGHT_02_LC_SDR_V2_3 
* SOURCE FILE: B035C019_201002_G90D
484  B035C012 V     C        14:12:43:04 14:12:45:07 01:24:37:09 01:24:39:12 
* FROM CLIP NAME:  A75-2B 
* REEL: GT_COTERIE_NIGHT_02_LC_SDR_V2_3 
* SOURCE FILE: B035C012_201002_G90D
485  A038C006 V     C        14:12:45:08 14:12:49:13 01:24:39:12 01:24:43:17 
* FROM CLIP NAME:  A75-2A 
* REEL: GT_COTERIE_NIGHT_02_LC_SDR_V2_3 
* SOURCE FILE: A038C006_141003_F70H
486  B035C022 V     C        16:59:29:14 16:59:31:04 01:24:43:17 01:24:45:07 
* FROM CLIP NAME:  A75J-1B 
* REEL: GT_COTERIE_NIGHT_02_LC_SDR_V2_3 
* SOURCE FILE: B035C022_201002_G90D
487  B035C018 V     C        16:30:25:13 16:30:27:12 01:24:45:07 01:24:47:06 
* FROM CLIP NAME:  A75E-1B 
* REEL: GT_COTERIE_NIGHT_02_LC_SDR_V2_3 
* SOURCE FILE: B035C018_201002_G90D
488  B035C015 V     C        14:36:49:19 14:36:53:09 01:24:47:06 01:24:50:20 
* FROM CLIP NAME:  A75B-2B 
* REEL: GT_COTERIE_NIGHT_02_LC_SDR_V2_3 
* SOURCE FILE: B035C015_201002_G90D
489  A038C012 V     C        16:30:28:06 16:30:30:05 01:24:50:20 01:24:52:19 
* FROM CLIP NAME:  A75E-1A 
* REEL: GT_COTERIE_NIGHT_02_LC_SDR_V2_3 
* SOURCE FILE: A038C012_141003_F70H
490  B035C015 V     C        14:35:03:11 14:35:05:16 01:24:52:19 01:24:55:00 
* FROM CLIP NAME:  A75B-2B 
* REEL: GT_COTERIE_NIGHT_02_LC_SDR_V2_3 
* SOURCE FILE: B035C015_201002_G90D
491  A038C009 V     C        14:35:05:17 14:35:09:04 01:24:55:00 01:24:58:11 
* FROM CLIP NAME:  A75B-2A 
* REEL: GT_COTERIE_NIGHT_02_LC_SDR_V2_3 
* SOURCE FILE: A038C009_141003_F70H
492  B035C015 V     C        14:37:13:23 14:37:18:14 01:24:58:11 01:25:03:02 
* FROM CLIP NAME:  A75B-2B 
* REEL: GT_COTERIE_NIGHT_02_LC_SDR_V2_3 
* SOURCE FILE: B035C015_201002_G90D
493  B035C022 V     C        16:58:54:08 16:58:55:20 01:25:03:02 01:25:04:14 
* FROM CLIP NAME:  A75J-1B 
* REEL: GT_COTERIE_NIGHT_02_LC_SDR_V2_3 
* SOURCE FILE: B035C022_201002_G90D
494  A038C014 V     C        16:46:05:14 16:46:12:21 01:25:04:14 01:25:11:21 
* FROM CLIP NAME:  A75G-1A 
* REEL: GT_COTERIE_NIGHT_02_LC_SDR_V2_3 
* SOURCE FILE: A038C014_141003_F70H
495  B046C002 V     C        14:56:02:03 14:56:05:22 01:25:11:21 01:25:15:16 
* FROM CLIP NAME:  66-2B 
* REEL: GT_COTERIE_NIGHT_02_LC_SDR_V2_3 
* SOURCE FILE: B046C002_201008_G90D
496  A049C006 V     C        15:58:30:01 15:58:31:11 01:25:15:16 01:25:17:02 
* FROM CLIP NAME:  66D-1A 
* REEL: GT_COTERIE_NIGHT_02_LC_SDR_V2_3 
* SOURCE FILE: A049C006_141009_F70H
497  B046C003 V     C        15:10:50:02 15:10:53:18 01:25:17:02 01:25:20:18 
* FROM CLIP NAME:  66A-1B 
* REEL: GT_COTERIE_NIGHT_02_LC_SDR_V2_3 
* SOURCE FILE: B046C003_201008_G90D
498  A049C002 V     C        14:56:09:16 14:56:11:09 01:25:20:18 01:25:22:11 
* FROM CLIP NAME:  66-2A 
* REEL: GT_COTERIE_NIGHT_02_LC_SDR_V2_3 
* SOURCE FILE: A049C002_141009_F70H
499  B046C004 V     C        15:35:10:07 15:35:11:23 01:25:22:11 01:25:24:03 
* FROM CLIP NAME:  66B-1B 
* REEL: GT_COTERIE_NIGHT_02_LC_SDR_V2_3 
* SOURCE FILE: B046C004_201008_G90D
500  A049C004 V     C        15:35:12:00 15:35:14:18 01:25:24:03 01:25:26:21 
* FROM CLIP NAME:  66B-1A 
* REEL: GT_COTERIE_NIGHT_02_LC_SDR_V2_3 
* SOURCE FILE: A049C004_141009_F70H
501  B046C007 V     C        16:05:20:11 16:05:24:02 01:25:26:21 01:25:30:12 
* FROM CLIP NAME:  66E-1B 
* REEL: GT_COTERIE_NIGHT_02_LC_SDR_V2_3 
* SOURCE FILE: B046C007_201008_G90D
502  B046C002 V     C        14:56:20:01 14:56:21:14 01:25:30:12 01:25:32:01 
* FROM CLIP NAME:  66-2B 
* REEL: GT_COTERIE_NIGHT_02_LC_SDR_V2_3 
* SOURCE FILE: B046C002_201008_G90D
503  A049C006 V     C        15:58:51:05 15:58:54:18 01:25:32:01 01:25:35:14 
* FROM CLIP NAME:  66D-1A 
* REEL: GT_COTERIE_NIGHT_02_LC_SDR_V2_3 
* SOURCE FILE: A049C006_141009_F70H
504  A049C003 V     C        15:11:26:05 15:11:28:02 01:25:35:14 01:25:37:11 
* FROM CLIP NAME:  66A-1A 
* REEL: GT_COTERIE_NIGHT_02_LC_SDR_V2_3 
* SOURCE FILE: A049C003_141009_F70H
505  A049C006 V     C        15:58:56:12 15:58:57:08 01:25:37:11 01:25:38:07 
* FROM CLIP NAME:  66D-1A 
* REEL: GT_COTERIE_NIGHT_02_LC_SDR_V2_3 
* SOURCE FILE: A049C006_141009_F70H
506  A049C001 V     C        14:50:31:10 14:50:35:11 01:25:38:07 01:25:42:08 
* FROM CLIP NAME:  66-1A 
* REEL: GT_COTERIE_NIGHT_02_LC_SDR_V2_3 
* SOURCE FILE: A049C001_141009_F70H
507  A049C006 V     C        15:59:18:15 15:59:24:07 01:25:42:08 01:25:48:00 
* FROM CLIP NAME:  66D-1A 
* REEL: GT_COTERIE_NIGHT_02_LC_SDR_V2_3 
* SOURCE FILE: A049C006_141009_F70H
508  B046C002 V     C        14:56:40:08 14:56:42:15 01:25:48:00 01:25:50:07 
* FROM CLIP NAME:  66-2B 
* REEL: GT_COTERIE_NIGHT_02_LC_SDR_V2_3 
* SOURCE FILE: B046C002_201008_G90D
509  A049C007 V     C        16:05:50:07 16:05:55:12 01:25:50:07 01:25:55:12 
* FROM CLIP NAME:  66E-1A 
* REEL: GT_COTERIE_NIGHT_02_LC_SDR_V2_3 
* SOURCE FILE: A049C007_141009_F70H
510  B046C003 V     C        15:12:32:08 15:12:33:11 01:25:55:12 01:25:56:15 
* FROM CLIP NAME:  66A-1B 
* REEL: GT_COTERIE_NIGHT_02_LC_SDR_V2_3 
* SOURCE FILE: B046C003_201008_G90D
511  A049C006 V     C        15:59:34:16 15:59:35:15 01:25:56:15 01:25:57:14 
* FROM CLIP NAME:  66D-1A 
* REEL: GT_COTERIE_NIGHT_02_LC_SDR_V2_3 
* SOURCE FILE: A049C006_141009_F70H
512  B046C002 V     C        14:56:53:11 14:56:56:12 01:25:57:14 01:26:00:15 
* FROM CLIP NAME:  66-2B 
* REEL: GT_COTERIE_NIGHT_02_LC_SDR_V2_3 
* SOURCE FILE: B046C002_201008_G90D
513  A049C006 V     C        15:59:38:19 15:59:40:15 01:26:00:15 01:26:02:11 
* FROM CLIP NAME:  66D-1A 
* REEL: GT_COTERIE_NIGHT_02_LC_SDR_V2_3 
* SOURCE FILE: A049C006_141009_F70H
514  B046C002 V     C        14:56:58:22 14:57:04:18 01:26:02:11 01:26:08:07 
* FROM CLIP NAME:  66-2B 
* REEL: GT_COTERIE_NIGHT_02_LC_SDR_V2_3 
* SOURCE FILE: B046C002_201008_G90D
515  A049C006 V     C        15:59:56:15 16:00:00:15 01:26:08:07 01:26:12:07 
* FROM CLIP NAME:  66D-1A 
* REEL: GT_COTERIE_NIGHT_02_LC_SDR_V2_3 
* SOURCE FILE: A049C006_141009_F70H
516  A049C004 V     C        15:36:20:06 15:36:22:00 01:26:12:07 01:26:14:01 
* FROM CLIP NAME:  66B-1A 
* REEL: GT_COTERIE_NIGHT_02_LC_SDR_V2_3 
* SOURCE FILE: A049C004_141009_F70H
517  B046C006 V     C        16:00:02:08 16:00:04:14 01:26:14:01 01:26:16:07 
* FROM CLIP NAME:  66D-1B 
* REEL: GT_COTERIE_NIGHT_02_LC_SDR_V2_3 
* SOURCE FILE: B046C006_201008_G90D
518  B046C002 V     C        14:57:17:04 14:57:19:23 01:26:16:07 01:26:19:02 
* FROM CLIP NAME:  66-2B 
* REEL: GT_COTERIE_NIGHT_02_LC_SDR_V2_3 
* SOURCE FILE: B046C002_201008_G90D
519  B046C007 V     C        16:09:51:15 16:09:54:02 01:26:19:02 01:26:21:13 
* FROM CLIP NAME:  66E-1B 
* REEL: GT_COTERIE_NIGHT_02_LC_SDR_V2_3 
* SOURCE FILE: B046C007_201008_G90D
520  A049C005 V     C        15:44:34:12 15:44:39:00 01:26:21:13 01:26:26:01 
* FROM CLIP NAME:  66C-1A 
* REEL: GT_COTERIE_NIGHT_02_LC_SDR_V2_3 
* SOURCE FILE: A049C005_141009_F70H
521  A049C007 V     C        16:09:58:22 16:10:01:13 01:26:26:01 01:26:28:16 
* FROM CLIP NAME:  66E-1A 
* REEL: GT_COTERIE_NIGHT_02_LC_SDR_V2_3 
* SOURCE FILE: A049C007_141009_F70H
522  B046C002 V     C        14:57:29:23 14:57:32:08 01:26:28:16 01:26:31:01 
* FROM CLIP NAME:  66-2B 
* REEL: GT_COTERIE_NIGHT_02_LC_SDR_V2_3 
* SOURCE FILE: B046C002_201008_G90D
523  A049C006 V     C        16:00:22:14 16:00:27:12 01:26:31:01 01:26:35:23 
* FROM CLIP NAME:  66D-1A 
* REEL: GT_COTERIE_NIGHT_02_LC_SDR_V2_3 
* SOURCE FILE: A049C006_141009_F70H
524  B046C003 V     C        15:12:35:21 15:12:40:07 01:26:35:23 01:26:40:09 
* FROM CLIP NAME:  66A-1B 
* REEL: GT_COTERIE_NIGHT_02_LC_SDR_V2_3 
* SOURCE FILE: B046C003_201008_G90D
525  A049C006 V     C        16:00:32:09 16:00:35:14 01:26:40:09 01:26:43:14 
* FROM CLIP NAME:  66D-1A 
* REEL: GT_COTERIE_NIGHT_02_LC_SDR_V2_3 
* SOURCE FILE: A049C006_141009_F70H
526  A049C002 V     C        14:57:45:08 14:57:48:00 01:26:43:14 01:26:46:06 
* FROM CLIP NAME:  66-2A 
* REEL: GT_COTERIE_NIGHT_02_LC_SDR_V2_3 
* SOURCE FILE: A049C002_141009_F70H
527  A049C003 V     C        15:13:58:22 15:14:06:09 01:26:46:06 01:26:53:17 
* FROM CLIP NAME:  66A-1A 
* REEL: GT_COTERIE_NIGHT_02_LC_SDR_V2_3 
* SOURCE FILE: A049C003_141009_F70H
528  A049C007 V     C        16:10:31:09 16:10:34:00 01:26:53:17 01:26:56:08 
* FROM CLIP NAME:  66E-1A 
* REEL: GT_COTERIE_NIGHT_02_LC_SDR_V2_3 
* SOURCE FILE: A049C007_141009_F70H
529  B046C002 V     C        15:00:31:08 15:00:33:08 01:26:56:08 01:26:58:08 
* FROM CLIP NAME:  66-2B 
* REEL: GT_COTERIE_NIGHT_02_LC_SDR_V2_3 
* SOURCE FILE: B046C002_201008_G90D
530  A001C008 V     C        09:02:15:08 09:02:17:15 01:26:58:08 01:27:00:15 
* FROM CLIP NAME:  A39C-2-A_52 
* REEL: GT_EXT_DAY_SDR_V2_33 (3D) 
* SOURCE FILE: A001C008_140310_F70H
531  A001C010 V     C        09:34:42:22 09:34:48:01 01:27:00:15 01:27:05:18 
* FROM CLIP NAME:  A39E-1-A_52 
* REEL: GT_EXT_DAY_SDR_V2_33 (3D) 
* SOURCE FILE: A001C010_140310_F70H
532  B001C013 V     C        09:58:54:17 09:58:59:02 01:27:05:18 01:27:10:03 
* FROM CLIP NAME:  A39H-1-B_52 
* REEL: GT_EXT_DAY_SDR_V2_33 (3D) 
* SOURCE FILE: B001C013_140309_C603
533  B001C014 V     C        10:08:18:09 10:08:20:13 01:27:10:03 01:27:12:07 
* FROM CLIP NAME:  A39J-1-B_52 
* REEL: GT_EXT_DAY_SDR_V2_33 (3D) 
* SOURCE FILE: B001C014_140309_C603
534  A001C014 V     C        10:08:20:13 10:08:22:09 01:27:12:07 01:27:14:03 
* FROM CLIP NAME:  A39J-1-A_52 
* REEL: GT_EXT_DAY_SDR_V2_33 (3D) 
* SOURCE FILE: A001C014_140310_F70H
535  A001C011 V     C        09:42:08:19 09:42:09:23 01:27:14:03 01:27:15:07 
* FROM CLIP NAME:  A39F-1-A_52 
* REEL: GT_EXT_DAY_SDR_V2_33 (3D) 
* SOURCE FILE: A001C011_140310_F70H
536  A001C006 V     C        08:47:36:19 08:47:39:23 01:27:15:07 01:27:18:11 
* FROM CLIP NAME:  A39B-2-A_52 
* REEL: GT_EXT_DAY_SDR_V2_33 (3D) 
* SOURCE FILE: A001C006_140310_F70H
537  A001C011 V     C        09:42:12:06 09:42:14:05 01:27:18:11 01:27:20:10 
* FROM CLIP NAME:  A39F-1-A_52 
* REEL: GT_EXT_DAY_SDR_V2_33 (3D) 
* SOURCE FILE: A001C011_140310_F70H
538  A001C006 V     C        08:47:41:01 08:47:43:03 01:27:20:10 01:27:22:12 
* FROM CLIP NAME:  A39B-2-A_52 
* REEL: GT_EXT_DAY_SDR_V2_33 (3D) 
* SOURCE FILE: A001C006_140310_F70H
539  A001C012 V     C        09:53:11:05 09:53:13:12 01:27:22:12 01:27:24:19 
* FROM CLIP NAME:  A39G-1-A_52 
* REEL: GT_EXT_DAY_SDR_V2_33 (3D) 
* SOURCE FILE: A001C012_140310_F70H
540  A001C014 V     C        10:08:53:23 10:08:59:00 01:27:24:19 01:27:29:20 
* FROM CLIP NAME:  A39J-1-A_52 
* REEL: GT_EXT_DAY_SDR_V2_33 (3D) 
* SOURCE FILE: A001C014_140310_F70H
541  A001C012 V     C        09:53:21:02 09:53:23:06 01:27:29:20 01:27:32:00 
* FROM CLIP NAME:  A39G-1-A_52 
* REEL: GT_EXT_DAY_SDR_V2_33 (3D) 
* SOURCE FILE: A001C012_140310_F70H
542  B001C012 V     C        09:53:23:06 09:53:28:13 01:27:32:00 01:27:37:07 
* FROM CLIP NAME:  A39G-1-B_52 
* REEL: GT_EXT_DAY_SDR_V2_33 (3D) 
* SOURCE FILE: B001C012_140309_C603
543  A001C006 V     C        08:47:58:17 08:48:04:18 01:27:37:07 01:27:43:08 
* FROM CLIP NAME:  A39B-2-A_52 
* REEL: GT_EXT_DAY_SDR_V2_33 (3D) 
* SOURCE FILE: A001C006_140310_F70H
544  A001C012 V     C        09:53:34:21 09:53:36:08 01:27:43:08 01:27:44:19 
* FROM CLIP NAME:  A39G-1-A_52 
* REEL: GT_EXT_DAY_SDR_V2_33 (3D) 
* SOURCE FILE: A001C012_140310_F70H
545  A001C006 V     C        08:48:05:08 08:48:07:14 01:27:44:19 01:27:47:01 
* FROM CLIP NAME:  A39B-2-A_52 
* REEL: GT_EXT_DAY_SDR_V2_33 (3D) 
* SOURCE FILE: A001C006_140310_F70H
546  A001C012 V     C        09:53:36:11 09:53:41:01 01:27:47:01 01:27:51:15 
* FROM CLIP NAME:  A39G-1-A_52 
* REEL: GT_EXT_DAY_SDR_V2_33 (3D) 
* SOURCE FILE: A001C012_140310_F70H
547  B001C005 V     C        08:39:15:06 08:39:17:15 01:27:51:15 01:27:54:00 
* FROM CLIP NAME:  A39B-1-B_52 
* REEL: GT_EXT_DAY_SDR_V2_33 (3D) 
* SOURCE FILE: B001C005_140309_C603
548  A001C005 V     C        08:39:18:07 08:39:21:00 01:27:54:00 01:27:56:17 
* FROM CLIP NAME:  A39B-1-A_52 
* REEL: GT_EXT_DAY_SDR_V2_33 (3D) 
* SOURCE FILE: A001C005_140310_F70H
549  A001C012 V     C        09:53:54:14 09:53:59:23 01:27:56:17 01:28:02:02 
* FROM CLIP NAME:  A39G-1-A_52 
* REEL: GT_EXT_DAY_SDR_V2_33 (3D) 
* SOURCE FILE: A001C012_140310_F70H
550  B001C005 V     C        08:39:37:16 08:39:40:00 01:28:02:02 01:28:04:10 
* FROM CLIP NAME:  A39B-1-B_52 
* REEL: GT_EXT_DAY_SDR_V2_33 (3D) 
* SOURCE FILE: B001C005_140309_C603
551  B001C013 V     C        09:59:50:21 09:59:53:02 01:28:04:10 01:28:06:15 
* FROM CLIP NAME:  A39H-1-B_52 
* REEL: GT_EXT_DAY_SDR_V2_33 (3D) 
* SOURCE FILE: B001C013_140309_C603
552  A049C003 V     C        15:14:54:14 15:14:59:13 01:28:06:15 01:28:11:14 
* FROM CLIP NAME:  66A-1A 
* REEL: GT_COTERIE_NIGHT_02_LC_SDR_V2_3 
* SOURCE FILE: A049C003_141009_F70H
553  A049C007 V     C        16:07:16:02 16:07:19:16 01:28:11:14 01:28:15:04 
* FROM CLIP NAME:  66E-1A 
* REEL: GT_COTERIE_NIGHT_02_LC_SDR_V2_3 
* SOURCE FILE: A049C007_141009_F70H
554  B046C003 V     C        15:15:02:12 15:15:09:14 01:28:15:04 01:28:22:06 
* FROM CLIP NAME:  66A-1B 
* REEL: GT_COTERIE_NIGHT_02_LC_SDR_V2_3 
* SOURCE FILE: B046C003_201008_G90D
555  B046C004 V     C        15:37:24:17 15:37:27:18 01:28:22:06 01:28:25:07 
* FROM CLIP NAME:  66B-1B 
* REEL: GT_COTERIE_NIGHT_02_LC_SDR_V2_3 
* SOURCE FILE: B046C004_201008_G90D
556  C010C002 V     C        09:30:06:04 09:30:08:23 01:28:25:07 01:28:28:02 
* FROM CLIP NAME:  75-1C 
* REEL: GT_COTERIE_NIGHT_02_LC_SDR_V2_3 
* SOURCE FILE: C010C002_201007_G902
557  C010C002 V     C        09:30:09:11 09:30:10:11 01:28:28:02 01:28:29:02 
* FROM CLIP NAME:  75-1C 
* REEL: GT_COTERIE_NIGHT_02_LC_SDR_V2_3 
* SOURCE FILE: C010C002_201007_G902
558  A045C002 V     C        09:50:26:09 09:50:29:09 01:28:29:02 01:28:32:02 
* TAIL SLATE 
* FROM CLIP NAME:  V75B-1 A-ONLY 
* REEL: GT_COTERIE_NIGHT_02_LC_SDR_V2_3 
* SOURCE FILE: A045C002_141008_F70H
559  A045C004 V     C        10:59:49:11 10:59:51:08 01:28:32:02 01:28:33:23 
* TAIL SLATE 
* FROM CLIP NAME:  V75E-1 A-ONLY 
* REEL: GT_COTERIE_NIGHT_02_LC_SDR_V2_3 
* SOURCE FILE: A045C004_141008_F70H
560  B042C001 V     C        10:36:17:20 10:36:23:04 01:28:33:23 01:28:39:07 
* FROM CLIP NAME:  75C-1B 
* REEL: GT_COTERIE_NIGHT_02_LC_SDR_V2_3 
* SOURCE FILE: B042C001_201007_G90D
561  A045C001 V     C        09:33:09:21 09:33:12:00 01:28:39:07 01:28:41:10 
* FROM CLIP NAME:  75-1A 
* REEL: GT_COTERIE_NIGHT_02_LC_SDR_V2_3 
* SOURCE FILE: A045C001_141008_F70H
562  A045C003 V     C        10:42:13:15 10:42:15:17 01:28:41:10 01:28:43:12 
* FROM CLIP NAME:  75C-1A 
* REEL: GT_COTERIE_NIGHT_02_LC_SDR_V2_3 
* SOURCE FILE: A045C003_141008_F70H
563  A045C001 V     C        09:33:16:20 09:33:18:12 01:28:43:12 01:28:45:04 
* FROM CLIP NAME:  75-1A 
* REEL: GT_COTERIE_NIGHT_02_LC_SDR_V2_3 
* SOURCE FILE: A045C001_141008_F70H
564  A045C003 V     C        10:42:18:09 10:42:20:11 01:28:45:04 01:28:47:06 
* FROM CLIP NAME:  75C-1A 
* REEL: GT_COTERIE_NIGHT_02_LC_SDR_V2_3 
* SOURCE FILE: A045C003_141008_F70H
565  A045C001 V     C        09:35:11:06 09:35:15:15 01:28:47:06 01:28:51:15 
* FROM CLIP NAME:  75-1A 
* REEL: GT_COTERIE_NIGHT_02_LC_SDR_V2_3 
* SOURCE FILE: A045C001_141008_F70H
566  A045C003 V     C        10:45:40:04 10:45:43:03 01:28:51:15 01:28:54:14 
* FROM CLIP NAME:  75C-1A 
* REEL: GT_COTERIE_NIGHT_02_LC_SDR_V2_3 
* SOURCE FILE: A045C003_141008_F70H
567  A045C001 V     C        09:35:20:22 09:35:21:19 01:28:54:14 01:28:55:11 
* FROM CLIP NAME:  75-1A 
* REEL: GT_COTERIE_NIGHT_02_LC_SDR_V2_3 
* SOURCE FILE: A045C001_141008_F70H
568  A045C003 V     C        10:45:44:03 10:45:45:05 01:28:55:11 01:28:56:13 
* FROM CLIP NAME:  75C-1A 
* REEL: GT_COTERIE_NIGHT_02_LC_SDR_V2_3 
* SOURCE FILE: A045C003_141008_F70H
569  A045C001 V     C        09:35:23:05 09:35:24:06 01:28:56:13 01:28:57:14 
* FROM CLIP NAME:  75-1A 
* REEL: GT_COTERIE_NIGHT_02_LC_SDR_V2_3 
* SOURCE FILE: A045C001_141008_F70H
570  B042C001 V     C        10:45:45:22 10:45:48:11 01:28:57:14 01:29:00:03 
* FROM CLIP NAME:  75C-1B 
* REEL: GT_COTERIE_NIGHT_02_LC_SDR_V2_3 
* SOURCE FILE: B042C001_201007_G90D
571  C010C002 V     C        09:35:28:18 09:35:32:06 01:29:00:03 01:29:03:15 
* FROM CLIP NAME:  75-1C 
* REEL: GT_COTERIE_NIGHT_02_LC_SDR_V2_3 
* SOURCE FILE: C010C002_201007_G902
572  B042C001 V     C        10:49:23:10 10:49:25:03 01:29:03:15 01:29:05:08 
* FROM CLIP NAME:  75C-1B 
* REEL: GT_COTERIE_NIGHT_02_LC_SDR_V2_3 
* SOURCE FILE: B042C001_201007_G90D
573  B042C001 V     C        10:40:03:00 10:40:05:17 01:29:05:08 01:29:08:01 
* FROM CLIP NAME:  75C-1B 
* REEL: GT_COTERIE_NIGHT_02_LC_SDR_V2_3 
* SOURCE FILE: B042C001_201007_G90D
574  A045C003 V     C        10:40:05:17 10:40:10:15 01:29:08:01 01:29:12:23 
* FROM CLIP NAME:  75C-1A 
* REEL: GT_COTERIE_NIGHT_02_LC_SDR_V2_3 
* SOURCE FILE: A045C003_141008_F70H
575     BL    V     C        00:00:00:00 00:00:01:00 01:29:12:23 01:29:13:23 
* SOURCE FILE: (NULL)
576     BL    V     C        00:00:00:00 00:00:00:12 01:29:13:23 01:29:14:11 
* SOURCE FILE: (NULL)
577  A011C014 V     C        17:57:41:09 17:57:48:00 01:29:14:11 01:29:21:02 
* FROM CLIP NAME:  77-2-A 
* REEL: GT_EXT_DAY_SDR_V2_33.CUBE 
* SOURCE FILE: A011C014_140919_F70H
578  A011C019 V     C        18:43:31:05 18:43:32:23 01:29:21:02 01:29:22:20 
* FROM CLIP NAME:  77C-1-A 
* REEL: GT_EXT_DAY_SDR_V2_33.CUBE 
* SOURCE FILE: A011C019_140919_F70H
579  A011C015 V     C        18:12:09:02 18:12:13:03 01:29:22:20 01:29:26:21 
* FROM CLIP NAME:  77A-1-A 
* REEL: GT_EXT_DAY_SDR_V2_33.CUBE 
* SOURCE FILE: A011C015_140919_F70H
580  A011C019 V     C        18:47:48:10 18:47:52:04 01:29:26:21 01:29:30:15 
* FROM CLIP NAME:  77C-1-A 
* REEL: GT_EXT_DAY_SDR_V2_33.CUBE 
* SOURCE FILE: A011C019_140919_F70H
581  A014C001 V     C        16:00:52:00 16:01:02:07 01:29:30:15 01:29:40:22 
* FROM CLIP NAME:  79-1A-ONLYX4 
* REEL: GT_SPECK_DAY_SDR_V2_33.CUBE 
* SOURCE FILE: A014C001_140922_F70H
582  A014C001 V     C        16:01:02:07 16:01:03:12 01:29:40:22 01:29:42:03 
* FROM CLIP NAME:  79-1A-ONLYX4 
* REEL: GT_SPECK_DAY_SDR_V2_33.CUBE 
* SOURCE FILE: A014C001_140922_F70H
583  A014C001 V     C        16:01:03:12 16:01:03:12 01:29:42:03 01:29:42:03 
583     BL    V     D    016 00:00:00:00 00:00:00:16 01:29:42:03 01:29:42:19 
* BLEND, DISSOLVE 
* FROM CLIP NAME:  79-1A-ONLYX4 
* REEL: GT_SPECK_DAY_SDR_V2_33.CUBE 
* SOURCE FILE: A014C001_140922_F70H
584     BL    V     C        00:00:00:00 00:00:01:23 01:29:42:19 01:29:44:18 
* SOURCE FILE: (NULL)
585  A011C019 V     C        18:47:57:09 18:48:00:21 01:29:44:18 01:29:48:06 
* FROM CLIP NAME:  77C-1-A 
* REEL: GT_EXT_DAY_SDR_V2_33.CUBE 
* SOURCE FILE: A011C019_140919_F70H
586  A011C016 V     C        18:17:19:18 18:17:23:00 01:29:48:06 01:29:51:12 
* FROM CLIP NAME:  77A-2-A 
* REEL: GT_EXT_DAY_SDR_V2_33.CUBE 
* SOURCE FILE: A011C016_140919_F70H
587  A011C019 V     C        18:48:05:16 18:48:07:17 01:29:51:12 01:29:53:13 
* FROM CLIP NAME:  77C-1-A 
* REEL: GT_EXT_DAY_SDR_V2_33.CUBE 
* SOURCE FILE: A011C019_140919_F70H
588  B012C019 V     C        18:48:07:17 18:48:19:11 01:29:53:13 01:30:05:07 
* FROM CLIP NAME:  77C-1-B 
* REEL: GT_EXT_DAY_SDR_V2_33.CUBE 
* SOURCE FILE: B012C019_200918_G90D
589  B012C015 V     C        18:14:09:18 18:14:13:01 01:30:05:07 01:30:08:14 
* FROM CLIP NAME:  77A-1-B 
* REEL: GT_EXT_DAY_SDR_V2_33.CUBE 
* SOURCE FILE: B012C015_200918_G90D
590     BL    V     C        00:00:00:00 00:00:01:04 01:30:08:14 01:30:09:18 
* SOURCE FILE: (NULL)
591  A014C003 V     C        16:17:04:09 16:17:08:04 01:30:09:18 01:30:13:13 
* FROM CLIP NAME:  79B-1A-ONLYX2 
* REEL: GT_SPECK_DAY_SDR_V2_33.CUBE 
* SOURCE FILE: A014C003_140922_F70H
592  A014C006 V     C        17:11:19:05 17:11:25:08 01:30:13:13 01:30:19:16 
* FROM CLIP NAME:  81A-1A 
* REEL: GT_SPECK_DAY_SDR_V2_33.CUBE 
* SOURCE FILE: A014C006_140922_F70H
593  A014C004 V     C        16:49:27:11 16:49:29:21 01:30:19:16 01:30:22:02 
* FROM CLIP NAME:  81-1A 
* REEL: GT_SPECK_DAY_SDR_V2_33.CUBE 
* SOURCE FILE: A014C004_140922_F70H
594  B015C003 V     C        17:11:27:13 17:11:29:23 01:30:22:02 01:30:24:12 
* FROM CLIP NAME:  81A-1B 
* REEL: GT_SPECK_DAY_SDR_V2_33.CUBE 
* SOURCE FILE: B015C003_200921_G90D
595  A014C006 V     C        17:15:04:16 17:15:06:13 01:30:24:12 01:30:26:09 
* FROM CLIP NAME:  81A-1A 
* REEL: GT_SPECK_DAY_SDR_V2_33.CUBE 
* SOURCE FILE: A014C006_140922_F70H
596  A014C006 V     C        17:11:31:20 17:11:33:13 01:30:26:09 01:30:28:02 
* FROM CLIP NAME:  81A-1A 
* REEL: GT_SPECK_DAY_SDR_V2_33.CUBE 
* SOURCE FILE: A014C006_140922_F70H
597  A014C005 V     C        16:53:06:23 16:53:09:09 01:30:28:02 01:30:30:12 
* FROM CLIP NAME:  81-2A 
* REEL: GT_SPECK_DAY_SDR_V2_33.CUBE 
* SOURCE FILE: A014C005_140922_F70H
598  B015C002 V     C        16:53:09:09 16:53:12:18 01:30:30:12 01:30:33:21 
* FROM CLIP NAME:  81-2B 
* REEL: GT_SPECK_DAY_SDR_V2_33.CUBE 
* SOURCE FILE: B015C002_200921_G90D
599  B015C003 V     C        17:15:12:15 17:15:14:06 01:30:33:21 01:30:35:12 
* FROM CLIP NAME:  81A-1B 
* REEL: GT_SPECK_DAY_SDR_V2_33.CUBE 
* SOURCE FILE: B015C003_200921_G90D
600  A014C005 V     C        16:53:12:13 16:53:15:18 01:30:35:12 01:30:38:17 
* FROM CLIP NAME:  81-2A 
* REEL: GT_SPECK_DAY_SDR_V2_33.CUBE 
* SOURCE FILE: A014C005_140922_F70H
601  A014C006 V     C        17:09:49:06 17:09:50:15 01:30:38:17 01:30:40:02 
* FROM CLIP NAME:  81A-1A 
* REEL: GT_SPECK_DAY_SDR_V2_33.CUBE 
* SOURCE FILE: A014C006_140922_F70H
602  A014C005 V     C        16:53:17:11 16:53:20:09 01:30:40:02 01:30:43:00 
* FROM CLIP NAME:  81-2A 
* REEL: GT_SPECK_DAY_SDR_V2_33.CUBE 
* SOURCE FILE: A014C005_140922_F70H
603  B015C002 V     C        16:53:20:09 16:53:22:01 01:30:43:00 01:30:44:16 
* FROM CLIP NAME:  81-2B 
* REEL: GT_SPECK_DAY_SDR_V2_33.CUBE 
* SOURCE FILE: B015C002_200921_G90D
604  A014C006 V     C        17:11:49:02 17:11:51:23 01:30:44:16 01:30:47:13 
* FROM CLIP NAME:  81A-1A 
* REEL: GT_SPECK_DAY_SDR_V2_33.CUBE 
* SOURCE FILE: A014C006_140922_F70H
605  A014C004 V     C        16:49:56:15 16:49:58:15 01:30:47:13 01:30:49:13 
* FROM CLIP NAME:  81-1A 
* REEL: GT_SPECK_DAY_SDR_V2_33.CUBE 
* SOURCE FILE: A014C004_140922_F70H
606  A014C006 V     C        17:11:54:08 17:11:57:09 01:30:49:13 01:30:52:14 
* FROM CLIP NAME:  81A-1A 
* REEL: GT_SPECK_DAY_SDR_V2_33.CUBE 
* SOURCE FILE: A014C006_140922_F70H
607  A014C004 V     C        16:49:59:10 16:50:04:07 01:30:52:14 01:30:57:11 
* FROM CLIP NAME:  81-1A 
* REEL: GT_SPECK_DAY_SDR_V2_33.CUBE 
* SOURCE FILE: A014C004_140922_F70H
608  A014C006 V     C        17:14:07:09 17:14:10:17 01:30:57:11 01:31:00:19 
* FROM CLIP NAME:  81A-1A 
* REEL: GT_SPECK_DAY_SDR_V2_33.CUBE 
* SOURCE FILE: A014C006_140922_F70H
609  B015C003 V     C        17:10:08:22 17:10:20:00 01:31:00:19 01:31:11:21 
* FROM CLIP NAME:  81A-1B 
* REEL: GT_SPECK_DAY_SDR_V2_33.CUBE 
* SOURCE FILE: B015C003_200921_G90D
610  B037C007 V     C        14:31:02:10 14:31:05:20 01:31:11:21 01:31:15:07 
* FROM CLIP NAME:  A82-2B 
* REEL: GT_COTERIE_NIGHT_02_LC_SDR_V2_3 
* SOURCE FILE: B037C007_201005_G90D
611  A040C011 V     C        15:18:50:20 15:18:53:19 01:31:15:07 01:31:18:06 
* FROM CLIP NAME:  A82B-1A 
* REEL: GT_COTERIE_NIGHT_02_LC_SDR_V2_3 
* SOURCE FILE: A040C011_141006_F70H
612  A040C014 V     C        16:10:47:01 16:10:52:01 01:31:18:06 01:31:23:06 
* FROM CLIP NAME:  A82E-2A 
* REEL: GT_COTERIE_NIGHT_02_LC_SDR_V2_3 
* SOURCE FILE: A040C014_141006_F70H
613  A040C011 V     C        15:19:01:11 15:19:06:20 01:31:23:06 01:31:28:15 
* FROM CLIP NAME:  A82B-1A 
* REEL: GT_COTERIE_NIGHT_02_LC_SDR_V2_3 
* SOURCE FILE: A040C011_141006_F70H
614  IMG_0160 V     C        01:02:25:12 01:02:37:06 01:31:28:15 01:31:40:09 
* FROM CLIP NAME:  A82D-1R 
* REEL: R001C010_IMG_0160 
* SOURCE FILE: IMG_0160-H264_4K_24FPS.MP4
615  IMG_0288 V     C        01:02:50:18 01:02:54:03 01:31:40:09 01:31:43:18 
* FROM CLIP NAME:  A82D-1P 
* REEL: P001C001_IMG_0288 
* SOURCE FILE: IMG_0288-H264_4K_24FPS.MP4
616  IMG_0160 V     C        01:02:43:00 01:02:59:18 01:31:43:18 01:32:00:12 
* FROM CLIP NAME:  A82D-1R 
* REEL: R001C010_IMG_0160 
* SOURCE FILE: IMG_0160-H264_4K_24FPS.MP4
617  B037C011 V     C        15:33:52:03 15:33:55:00 01:32:00:12 01:32:03:09 
* FROM CLIP NAME:  A82C-1B 
* REEL: GT_COTERIE_NIGHT_02_LC_SDR_V2_3 
* SOURCE FILE: B037C011_201005_G90D
618  A038C016 V     C        16:59:27:04 16:59:34:21 01:32:03:09 01:32:11:02 
* FROM CLIP NAME:  A75J-1A 
* REEL: GT_COTERIE_NIGHT_02_LC_SDR_V2_3 
* SOURCE FILE: A038C016_141003_F70H
619  A038C011 V     C        14:55:19:15 14:55:23:20 01:32:11:02 01:32:15:07 
* FROM CLIP NAME:  A75D-1A 
* REEL: GT_COTERIE_NIGHT_02_LC_SDR_V2_3 
* SOURCE FILE: A038C011_141003_F70H
620  A038C012 V     C        16:31:21:20 16:31:29:17 01:32:15:07 01:32:23:04 
* FROM CLIP NAME:  A75E-1A 
* REEL: GT_COTERIE_NIGHT_02_LC_SDR_V2_3 
* SOURCE FILE: A038C012_141003_F70H
621  B035C015 V     C        14:37:43:03 14:37:45:00 01:32:23:04 01:32:25:01 
* FROM CLIP NAME:  A75B-2B 
* REEL: GT_COTERIE_NIGHT_02_LC_SDR_V2_3 
* SOURCE FILE: B035C015_201002_G90D
622  A038C012 V     C        16:31:32:14 16:31:34:08 01:32:25:01 01:32:26:19 
* FROM CLIP NAME:  A75E-1A 
* REEL: GT_COTERIE_NIGHT_02_LC_SDR_V2_3 
* SOURCE FILE: A038C012_141003_F70H
623  B035C018 V     C        16:31:34:08 16:31:39:17 01:32:26:19 01:32:32:04 
* FROM CLIP NAME:  A75E-1B 
* REEL: GT_COTERIE_NIGHT_02_LC_SDR_V2_3 
* SOURCE FILE: B035C018_201002_G90D
624  B035C016 V     C        14:46:15:08 14:46:17:18 01:32:32:04 01:32:34:14 
* FROM CLIP NAME:  A75C-1B 
* REEL: GT_COTERIE_NIGHT_02_LC_SDR_V2_3 
* SOURCE FILE: B035C016_201002_G90D
625  A038C016 V     C        17:00:23:07 17:00:28:08 01:32:34:14 01:32:39:15 
* FROM CLIP NAME:  A75J-1A 
* REEL: GT_COTERIE_NIGHT_02_LC_SDR_V2_3 
* SOURCE FILE: A038C016_141003_F70H
626  B035C016 V     C        14:47:46:07 14:47:48:11 01:32:39:15 01:32:41:19 
* FROM CLIP NAME:  A75C-1B 
* REEL: GT_COTERIE_NIGHT_02_LC_SDR_V2_3 
* SOURCE FILE: B035C016_201002_G90D
627  A038C016 V     C        17:00:34:11 17:00:37:10 01:32:41:19 01:32:44:18 
* FROM CLIP NAME:  A75J-1A 
* REEL: GT_COTERIE_NIGHT_02_LC_SDR_V2_3 
* SOURCE FILE: A038C016_141003_F70H
628  A038C011 V     C        14:56:18:19 14:56:25:01 01:32:44:18 01:32:51:00 
* FROM CLIP NAME:  A75D-1A 
* REEL: GT_COTERIE_NIGHT_02_LC_SDR_V2_3 
* SOURCE FILE: A038C011_141003_F70H
629  A038C015 V     C        16:52:39:08 16:52:48:12 01:32:51:00 01:33:00:04 
* FROM CLIP NAME:  A75H-1A 
* REEL: GT_COTERIE_NIGHT_02_LC_SDR_V2_3 
* SOURCE FILE: A038C015_141003_F70H
630  A040C011 V     C        15:19:43:23 15:19:52:02 01:33:00:04 01:33:08:07 
* FROM CLIP NAME:  A82B-1A 
* REEL: GT_COTERIE_NIGHT_02_LC_SDR_V2_3 
* SOURCE FILE: A040C011_141006_F70H
631  IMG_0160 V     C        01:03:13:17 01:03:16:20 01:33:08:07 01:33:11:10 
* FROM CLIP NAME:  A82D-1R 
* REEL: R001C010_IMG_0160 
* SOURCE FILE: IMG_0160-H264_4K_24FPS.MP4
632  IMG_0288 V     C        01:03:28:16 01:03:31:08 01:33:11:10 01:33:14:02 
* FROM CLIP NAME:  A82D-1P 
* REEL: P001C001_IMG_0288 
* SOURCE FILE: IMG_0288-H264_4K_24FPS.MP4
633  IMG_0160 V     C        01:03:22:07 01:03:25:06 01:33:14:02 01:33:17:01 
* FROM CLIP NAME:  A82D-1R 
* REEL: R001C010_IMG_0160 
* SOURCE FILE: IMG_0160-H264_4K_24FPS.MP4
634  IMG_0160 V     C        01:03:25:06 01:03:43:03 01:33:17:01 01:33:34:22 
* FROM CLIP NAME:  A82D-1R 
* REEL: R001C010_IMG_0160 
* SOURCE FILE: IMG_0160-H264_4K_24FPS.MP4
635  A040C012 V     C        15:34:37:01 15:34:45:12 01:33:34:22 01:33:43:09 
* FROM CLIP NAME:  A82C-1A 
* REEL: GT_COTERIE_NIGHT_02_LC_SDR_V2_3 
* SOURCE FILE: A040C012_141006_F70H
636  IMG_0288 V     C        01:04:02:18 01:04:05:21 01:33:43:09 01:33:46:12 
* FROM CLIP NAME:  A82D-1P 
* REEL: P001C001_IMG_0288 
* SOURCE FILE: IMG_0288-H264_4K_24FPS.MP4
637  IMG_0158 V     C        01:04:44:05 01:04:49:06 01:33:46:12 01:33:51:13 
* FROM CLIP NAME:  IMG_0158-H264_4K_24FPS.MP4 
* SOURCE FILE: IMG_0158-H264_4K_24FPS.MP4
638  IMG_0158 V     C        01:04:49:06 01:04:53:09 01:33:51:13 01:33:55:16 
* FROM CLIP NAME:  IMG_0158-H264_4K_24FPS.MP4 
* SOURCE FILE: IMG_0158-H264_4K_24FPS.MP4
639  B037C009 V     C        14:56:09:08 14:56:13:00 01:33:55:16 01:33:59:08 
* FROM CLIP NAME:  A82A-1B 
* REEL: GT_COTERIE_NIGHT_02_LC_SDR_V2_3 
* SOURCE FILE: B037C009_201005_G90D
640  A040C012 V     C        15:35:07:19 15:35:12:07 01:33:59:08 01:34:03:20 
* FROM CLIP NAME:  A82C-1A 
* REEL: GT_COTERIE_NIGHT_02_LC_SDR_V2_3 
* SOURCE FILE: A040C012_141006_F70H
641  C005SCC0 V     C        11:12:01:12 11:12:04:12 01:34:03:20 01:34:06:20 
* FROM CLIP NAME:  82H-1C 24FPS 
* REEL: GT_COTERIE_NIGHT_02_LC_SDR_V2_3 
* SOURCE FILE: C005SCC016_200923_G902
642  B019C002 V     C        19:27:59:16 19:28:05:09 01:34:06:20 01:34:12:13 
* FROM CLIP NAME:  82-2B 
* REEL: GT_COTERIE_NIGHT_02_LC_SDR_V2_3 
* SOURCE FILE: B019C002_200923_G90D
643  C005C020 V     C        12:34:00:02 12:34:02:11 01:34:12:13 01:34:14:22 
* FROM CLIP NAME:  82K-1C 
* REEL: GT_COTERIE_NIGHT_02_LC_SDR_V2_3 
* SOURCE FILE: C005C020_200923_G902
644  C005C012 V     C        10:51:15:10 10:51:18:20 01:34:14:22 01:34:18:08 
* FROM CLIP NAME:  82E-1C 
* REEL: GT_COTERIE_NIGHT_02_LC_SDR_V2_3 
* SOURCE FILE: C005C012_200923_G902
645  B019C009 V     C        20:19:53:15 20:19:56:00 01:34:18:08 01:34:20:17 
* FROM CLIP NAME:  82C-2B 
* REEL: GT_COTERIE_NIGHT_02_LC_SDR_V2_3 
* SOURCE FILE: B019C009_200923_G90D
646  B019C005 V     C        19:48:40:08 19:48:42:14 01:34:20:17 01:34:22:23 
* FROM CLIP NAME:  82A-2B 
* REEL: GT_COTERIE_NIGHT_02_LC_SDR_V2_3 
* SOURCE FILE: B019C005_200923_G90D
647  C005C010 V     C        10:33:16:18 10:33:18:07 01:34:22:23 01:34:24:12 
* FROM CLIP NAME:  82C-2C 
* REEL: GT_COTERIE_NIGHT_02_LC_SDR_V2_3 
* SOURCE FILE: C005C010_200923_G902
648  C005C008 V     C        10:18:27:10 10:18:28:08 01:34:24:12 01:34:25:10 
* FROM CLIP NAME:  82B-2C 
* REEL: GT_COTERIE_NIGHT_02_LC_SDR_V2_3 
* SOURCE FILE: C005C008_200923_G902
649  B019C022 V     C        21:49:52:16 21:49:54:17 01:34:25:10 01:34:27:11 
* FROM CLIP NAME:  82M-1B 
* REEL: GT_COTERIE_NIGHT_02_LC_SDR_V2_3 
* SOURCE FILE: B019C022_200923_G90D
650  C005C012 V     C        10:51:29:08 10:51:33:19 01:34:27:11 01:34:31:22 
* FROM CLIP NAME:  82E-1C 
* REEL: GT_COTERIE_NIGHT_02_LC_SDR_V2_3 
* SOURCE FILE: C005C012_200923_G902
651  B019C008 V     C        20:16:48:14 20:16:51:11 01:34:31:22 01:34:34:19 
* FROM CLIP NAME:  82C-1B 
* REEL: GT_COTERIE_NIGHT_02_LC_SDR_V2_3 
* SOURCE FILE: B019C008_200923_G90D
652  C005C022 V     C        12:48:19:12 12:48:21:10 01:34:34:19 01:34:36:17 
* FROM CLIP NAME:  82M-1C 
* REEL: GT_COTERIE_NIGHT_02_LC_SDR_V2_3 
* SOURCE FILE: C005C022_200923_G902
653  B019C005 V     C        19:48:55:15 19:48:58:12 01:34:36:17 01:34:39:14 
* FROM CLIP NAME:  82A-2B 
* REEL: GT_COTERIE_NIGHT_02_LC_SDR_V2_3 
* SOURCE FILE: B019C005_200923_G90D
654  C005C009 V     C        10:30:14:21 10:30:18:04 01:34:39:14 01:34:42:21 
* FROM CLIP NAME:  82C-1C 
* REEL: GT_COTERIE_NIGHT_02_LC_SDR_V2_3 
* SOURCE FILE: C005C009_200923_G902
655  B019NSC0 V     C        20:55:47:03 20:55:49:10 01:34:42:21 01:34:45:04 
* FROM CLIP NAME:  82H-1B 48FPS 
* REEL: GT_COTERIE_NIGHT_02_LC_SDR_V2_3 
* SOURCE FILE: B019NSC016_200923_G90D
656  C005C012 V     C        10:51:41:23 10:51:43:08 01:34:45:04 01:34:46:13 
* FROM CLIP NAME:  82E-1C 
* REEL: GT_COTERIE_NIGHT_02_LC_SDR_V2_3 
* SOURCE FILE: C005C012_200923_G902
657  B019C004 V     C        19:45:23:00 19:45:27:01 01:34:46:13 01:34:50:14 
* FROM CLIP NAME:  82A-1B 
* REEL: GT_COTERIE_NIGHT_02_LC_SDR_V2_3 
* SOURCE FILE: B019C004_200923_G90D
658  C005C021 V     C        12:43:23:06 12:43:25:14 01:34:50:14 01:34:52:22 
* FROM CLIP NAME:  82L-1C 
* REEL: GT_COTERIE_NIGHT_02_LC_SDR_V2_3 
* SOURCE FILE: C005C021_200923_G902
659  B019C007 V     C        20:05:30:22 20:05:37:08 01:34:52:22 01:34:59:08 
* FROM CLIP NAME:  82B-2B 
* REEL: GT_COTERIE_NIGHT_02_LC_SDR_V2_3 
* SOURCE FILE: B019C007_200923_G90D
660     BL    V     C        00:00:00:00 00:00:01:00 01:34:59:08 01:35:00:08 
* SOURCE FILE: (NULL)
661     BL    V     C        00:00:00:00 00:00:00:12 01:35:00:08 01:35:00:20 
* SOURCE FILE: (NULL)
662  A040C001 V     C        09:20:17:06 09:20:21:02 01:35:00:20 01:35:04:16 
* FROM CLIP NAME:  83-1A 
* REEL: GT_COTERIE_NIGHT_02_LC_SDR_V2_3 
* SOURCE FILE: A040C001_141006_F70H
663  A048C016 V     C        12:41:09:08 12:41:11:11 01:35:04:16 01:35:06:19 
* FROM CLIP NAME:  83F-1A 
* REEL: GT_COTERIE_NIGHT_02_LC_SDR_V2_3 
* SOURCE FILE: A048C016_141009_F70H
664  A048C013 V     C        11:55:05:19 11:55:10:15 01:35:06:19 01:35:11:15 
* FROM CLIP NAME:  83D-1A 
* REEL: GT_COTERIE_NIGHT_02_LC_SDR_V2_3 
* SOURCE FILE: A048C013_141009_F70H
665  B037C001 V     C        09:20:30:15 09:20:32:22 01:35:11:15 01:35:13:22 
* FROM CLIP NAME:  83-1B 
* REEL: GT_COTERIE_NIGHT_02_LC_SDR_V2_3 
* SOURCE FILE: B037C001_201005_G90D
666  A048C016 V     C        12:41:18:07 12:41:19:19 01:35:13:22 01:35:15:10 
* FROM CLIP NAME:  83F-1A 
* REEL: GT_COTERIE_NIGHT_02_LC_SDR_V2_3 
* SOURCE FILE: A048C016_141009_F70H
667  A048C012 V     C        11:40:35:21 11:40:39:19 01:35:15:10 01:35:19:08 
* FROM CLIP NAME:  83C-2A 
* REEL: GT_COTERIE_NIGHT_02_LC_SDR_V2_3 
* SOURCE FILE: A048C012_141009_F70H
668  B045C017 V     C        12:41:22:08 12:41:27:08 01:35:19:08 01:35:24:08 
* FROM CLIP NAME:  83F-1B 
* REEL: GT_COTERIE_NIGHT_02_LC_SDR_V2_3 
* SOURCE FILE: B045C017_201008_G90D
669  A048C013 V     C        11:55:21:08 11:55:24:02 01:35:24:08 01:35:27:02 
* FROM CLIP NAME:  83D-1A 
* REEL: GT_COTERIE_NIGHT_02_LC_SDR_V2_3 
* SOURCE FILE: A048C013_141009_F70H
670  B045C018 V     C        12:51:31:03 12:51:36:11 01:35:27:02 01:35:32:10 
* FROM CLIP NAME:  83G-1B 
* REEL: GT_COTERIE_NIGHT_02_LC_SDR_V2_3 
* SOURCE FILE: B045C018_201008_G90D
671  A048C016 V     C        12:41:37:14 12:41:40:06 01:35:32:10 01:35:35:02 
* FROM CLIP NAME:  83F-1A 
* REEL: GT_COTERIE_NIGHT_02_LC_SDR_V2_3 
* SOURCE FILE: A048C016_141009_F70H
672  A048C013 V     C        11:55:30:16 11:55:32:15 01:35:35:02 01:35:37:01 
* FROM CLIP NAME:  83D-1A 
* REEL: GT_COTERIE_NIGHT_02_LC_SDR_V2_3 
* SOURCE FILE: A048C013_141009_F70H
673  B045C017 V     C        12:41:40:06 12:41:45:11 01:35:37:01 01:35:42:06 
* FROM CLIP NAME:  83F-1B 
* REEL: GT_COTERIE_NIGHT_02_LC_SDR_V2_3 
* SOURCE FILE: B045C017_201008_G90D
674  A048C013 V     C        11:55:36:23 11:55:40:17 01:35:42:06 01:35:46:00 
* FROM CLIP NAME:  83D-1A 
* REEL: GT_COTERIE_NIGHT_02_LC_SDR_V2_3 
* SOURCE FILE: A048C013_141009_F70H
675  A048C016 V     C        12:41:48:02 12:41:48:21 01:35:46:00 01:35:46:19 
* FROM CLIP NAME:  83F-1A 
* REEL: GT_COTERIE_NIGHT_02_LC_SDR_V2_3 
* SOURCE FILE: A048C016_141009_F70H
676  A040C003 V     C        09:53:10:05 09:53:11:22 01:35:46:19 01:35:48:12 
* FROM CLIP NAME:  83B-1A 
* REEL: GT_COTERIE_NIGHT_02_LC_SDR_V2_3 
* SOURCE FILE: A040C003_141006_F70H
677  B045C017 V     C        12:41:49:15 12:41:51:13 01:35:48:12 01:35:50:10 
* FROM CLIP NAME:  83F-1B 
* REEL: GT_COTERIE_NIGHT_02_LC_SDR_V2_3 
* SOURCE FILE: B045C017_201008_G90D
678  A048C015 V     C        12:14:21:11 12:14:22:09 01:35:50:10 01:35:51:08 
* FROM CLIP NAME:  83E-2A 
* REEL: GT_COTERIE_NIGHT_02_LC_SDR_V2_3 
* SOURCE FILE: A048C015_141009_F70H
679  B045C019 V     C        12:59:05:21 12:59:06:20 01:35:51:08 01:35:52:07 
* FROM CLIP NAME:  83H-1B 
* REEL: GT_COTERIE_NIGHT_02_LC_SDR_V2_3 
* SOURCE FILE: B045C019_201008_G90D
680  A048C013 V     C        11:55:44:02 11:55:45:07 01:35:52:07 01:35:53:12 
* FROM CLIP NAME:  83D-1A 
* REEL: GT_COTERIE_NIGHT_02_LC_SDR_V2_3 
* SOURCE FILE: A048C013_141009_F70H
681  B045C018 V     C        12:51:51:00 12:51:51:18 01:35:53:12 01:35:54:06 
* FROM CLIP NAME:  83G-1B 
* REEL: GT_COTERIE_NIGHT_02_LC_SDR_V2_3 
* SOURCE FILE: B045C018_201008_G90D
682  B037C002 V     C        09:35:05:08 09:35:07:11 01:35:54:06 01:35:56:09 
* FROM CLIP NAME:  83A-1B 
* REEL: GT_COTERIE_NIGHT_02_LC_SDR_V2_3 
* SOURCE FILE: B037C002_201005_G90D
683  B045C019 V     C        12:59:09:10 12:59:10:12 01:35:56:09 01:35:57:11 
* FROM CLIP NAME:  83H-1B 
* REEL: GT_COTERIE_NIGHT_02_LC_SDR_V2_3 
* SOURCE FILE: B045C019_201008_G90D
684  B037C003 V     C        09:53:19:00 09:53:21:22 01:35:57:11 01:36:00:09 
* FROM CLIP NAME:  83B-1B 
* REEL: GT_COTERIE_NIGHT_02_LC_SDR_V2_3 
* SOURCE FILE: B037C003_201005_G90D
685  A048C018 V     C        12:51:57:19 12:52:01:22 01:36:00:09 01:36:04:12 
* FROM CLIP NAME:  83G-1A 
* REEL: GT_COTERIE_NIGHT_02_LC_SDR_V2_3 
* SOURCE FILE: A048C018_141009_F70H
686  A048C013 V     C        11:55:56:05 11:55:57:22 01:36:04:12 01:36:06:05 
* FROM CLIP NAME:  83D-1A 
* REEL: GT_COTERIE_NIGHT_02_LC_SDR_V2_3 
* SOURCE FILE: A048C013_141009_F70H
687  B045C014 V     C        11:55:56:14 11:55:57:08 01:36:06:05 01:36:06:23 
* FROM CLIP NAME:  83D-1B 
* REEL: GT_COTERIE_NIGHT_02_LC_SDR_V2_3 
* SOURCE FILE: B045C014_201008_G90D
688  B045C018 V     C        12:52:11:01 12:52:12:00 01:36:06:23 01:36:07:22 
* FROM CLIP NAME:  83G-1B 
* REEL: GT_COTERIE_NIGHT_02_LC_SDR_V2_3 
* SOURCE FILE: B045C018_201008_G90D
689  B045C017 V     C        12:42:10:17 12:42:11:21 01:36:07:22 01:36:09:02 
* FROM CLIP NAME:  83F-1B 
* REEL: GT_COTERIE_NIGHT_02_LC_SDR_V2_3 
* SOURCE FILE: B045C017_201008_G90D
690  B037C003 V     C        09:53:33:04 09:53:36:01 01:36:09:02 01:36:11:23 
* FROM CLIP NAME:  83B-1B 
* REEL: GT_COTERIE_NIGHT_02_LC_SDR_V2_3 
* SOURCE FILE: B037C003_201005_G90D
691  B045C017 V     C        12:42:16:09 12:42:18:08 01:36:11:23 01:36:13:22 
* FROM CLIP NAME:  83F-1B 
* REEL: GT_COTERIE_NIGHT_02_LC_SDR_V2_3 
* SOURCE FILE: B045C017_201008_G90D
692  A048C013 V     C        11:56:10:13 11:56:13:00 01:36:13:22 01:36:16:09 
* FROM CLIP NAME:  83D-1A 
* REEL: GT_COTERIE_NIGHT_02_LC_SDR_V2_3 
* SOURCE FILE: A048C013_141009_F70H
693  B045C017 V     C        12:42:20:12 12:42:21:17 01:36:16:09 01:36:17:14 
* FROM CLIP NAME:  83F-1B 
* REEL: GT_COTERIE_NIGHT_02_LC_SDR_V2_3 
* SOURCE FILE: B045C017_201008_G90D
694  B045C018 V     C        12:52:20:17 12:52:21:07 01:36:17:14 01:36:18:04 
* FROM CLIP NAME:  83G-1B 
* REEL: GT_COTERIE_NIGHT_02_LC_SDR_V2_3 
* SOURCE FILE: B045C018_201008_G90D
695  B037C003 V     C        09:53:42:11 09:53:48:09 01:36:18:04 01:36:24:02 
* FROM CLIP NAME:  83B-1B 
* REEL: GT_COTERIE_NIGHT_02_LC_SDR_V2_3 
* SOURCE FILE: B037C003_201005_G90D
696  A005C005 V     C        11:17:10:04 11:17:13:09 01:36:24:02 01:36:27:07 
* FROM CLIP NAME:  B77C-1-A 
* REEL: GT_COTERIE_NIGHT_02_LC_SDR_V2_3 
* SOURCE FILE: A005C005_140312_F70H
697  A005C006 V     C        11:39:43:17 11:39:46:07 01:36:27:07 01:36:29:21 
* FROM CLIP NAME:  B77D-1-A 
* REEL: GT_COTERIE_NIGHT_02_LC_SDR_V2_3 
* SOURCE FILE: A005C006_140312_F70H
698  A005C005 V     C        11:17:15:18 11:17:18:14 01:36:29:21 01:36:32:17 
* FROM CLIP NAME:  B77C-1-A 
* REEL: GT_COTERIE_NIGHT_02_LC_SDR_V2_3 
* SOURCE FILE: A005C005_140312_F70H
699  A005C007 V     C        11:45:23:23 11:45:26:00 01:36:32:17 01:36:34:18 
* FROM CLIP NAME:  B77D-2-A 
* REEL: GT_COTERIE_NIGHT_02_LC_SDR_V2_3 
* SOURCE FILE: A005C007_140312_F70H
700  A005C001 V     C        10:08:27:12 10:08:30:18 01:36:34:18 01:36:38:00 
* FROM CLIP NAME:  B77-1-A 
* REEL: GT_COTERIE_NIGHT_02_LC_SDR_V2_3 
* SOURCE FILE: A005C001_140312_F70H
701  A005C001 V     C        10:08:30:18 10:08:30:18 01:36:38:00 01:36:38:00 
701  A040C003 V     D    001 09:54:04:13 09:54:04:14 01:36:38:00 01:36:38:01 
* BLEND, DISSOLVE 
* FROM CLIP NAME:  B77-1-A 
* TO CLIP NAME:  83B-1A 
* REEL: GT_COTERIE_NIGHT_02_LC_SDR_V2_3 
* SOURCE FILE: A005C001_140312_F70H
702  A040C003 V     C        09:54:04:14 09:54:08:21 01:36:38:01 01:36:42:08 
* FROM CLIP NAME:  83B-1A 
* REEL: GT_COTERIE_NIGHT_02_LC_SDR_V2_3 
* SOURCE FILE: A040C003_141006_F70H
703  B045C018 V     C        12:52:28:10 12:52:30:07 01:36:42:08 01:36:44:05 
* FROM CLIP NAME:  83G-1B 
* REEL: GT_COTERIE_NIGHT_02_LC_SDR_V2_3 
* SOURCE FILE: B045C018_201008_G90D
704  B037C003 V     C        09:54:10:18 09:54:12:11 01:36:44:05 01:36:45:22 
* FROM CLIP NAME:  83B-1B 
* REEL: GT_COTERIE_NIGHT_02_LC_SDR_V2_3 
* SOURCE FILE: B037C003_201005_G90D
705  B045C017 V     C        12:42:41:10 12:42:43:23 01:36:45:22 01:36:48:11 
* FROM CLIP NAME:  83F-1B 
* REEL: GT_COTERIE_NIGHT_02_LC_SDR_V2_3 
* SOURCE FILE: B045C017_201008_G90D
706  A048C013 V     C        11:56:38:15 11:56:40:18 01:36:48:11 01:36:50:14 
* FROM CLIP NAME:  83D-1A 
* REEL: GT_COTERIE_NIGHT_02_LC_SDR_V2_3 
* SOURCE FILE: A048C013_141009_F70H
707  A048C015 V     C        12:15:15:13 12:15:16:18 01:36:50:14 01:36:51:19 
* FROM CLIP NAME:  83E-2A 
* REEL: GT_COTERIE_NIGHT_02_LC_SDR_V2_3 
* SOURCE FILE: A048C015_141009_F70H
708  A048C018 V     C        12:52:43:06 12:52:47:13 01:36:51:19 01:36:56:02 
* FROM CLIP NAME:  83G-1A 
* REEL: GT_COTERIE_NIGHT_02_LC_SDR_V2_3 
* SOURCE FILE: A048C018_141009_F70H
709  B045C014 V     C        11:56:45:00 11:56:48:02 01:36:56:02 01:36:59:04 
* FROM CLIP NAME:  83D-1B 
* REEL: GT_COTERIE_NIGHT_02_LC_SDR_V2_3 
* SOURCE FILE: B045C014_201008_G90D
710  A048C018 V     C        12:52:47:16 12:52:49:10 01:36:59:04 01:37:00:22 
* FROM CLIP NAME:  83G-1A 
* REEL: GT_COTERIE_NIGHT_02_LC_SDR_V2_3 
* SOURCE FILE: A048C018_141009_F70H
711  B045C017 V     C        12:42:53:02 12:42:54:09 01:37:00:22 01:37:02:05 
* FROM CLIP NAME:  83F-1B 
* REEL: GT_COTERIE_NIGHT_02_LC_SDR_V2_3 
* SOURCE FILE: B045C017_201008_G90D
712  A048C016 V     C        12:42:56:11 12:43:00:23 01:37:02:05 01:37:06:17 
* FROM CLIP NAME:  83F-1A 
* REEL: GT_COTERIE_NIGHT_02_LC_SDR_V2_3 
* SOURCE FILE: A048C016_141009_F70H
713  A048C013 V     C        11:56:56:03 11:56:57:20 01:37:06:17 01:37:08:10 
* FROM CLIP NAME:  83D-1A 
* REEL: GT_COTERIE_NIGHT_02_LC_SDR_V2_3 
* SOURCE FILE: A048C013_141009_F70H
714  A048C016 V     C        12:43:03:03 12:43:04:13 01:37:08:10 01:37:09:20 
* FROM CLIP NAME:  83F-1A 
* REEL: GT_COTERIE_NIGHT_02_LC_SDR_V2_3 
* SOURCE FILE: A048C016_141009_F70H
715  B045C013 V     C        11:42:23:04 11:42:24:15 01:37:09:20 01:37:11:07 
* FROM CLIP NAME:  83C-2B 
* REEL: GT_COTERIE_NIGHT_02_LC_SDR_V2_3 
* SOURCE FILE: B045C013_201008_G90D
716  A048C018 V     C        12:53:04:00 12:53:06:16 01:37:11:07 01:37:13:23 
* FROM CLIP NAME:  83G-1A 
* REEL: GT_COTERIE_NIGHT_02_LC_SDR_V2_3 
* SOURCE FILE: A048C018_141009_F70H
717  B037C003 V     C        09:54:40:22 09:54:42:20 01:37:13:23 01:37:15:21 
* FROM CLIP NAME:  83B-1B 
* REEL: GT_COTERIE_NIGHT_02_LC_SDR_V2_3 
* SOURCE FILE: B037C003_201005_G90D
718  A048C015 V     C        12:15:50:09 12:15:51:16 01:37:15:21 01:37:17:04 
* FROM CLIP NAME:  83E-2A 
* REEL: GT_COTERIE_NIGHT_02_LC_SDR_V2_3 
* SOURCE FILE: A048C015_141009_F70H
719  A040C002 V     C        09:36:53:20 09:36:55:10 01:37:17:04 01:37:18:18 
* FROM CLIP NAME:  83A-1A 
* REEL: GT_COTERIE_NIGHT_02_LC_SDR_V2_3 
* SOURCE FILE: A040C002_141006_F70H
720  A048C014 V     C        12:10:01:10 12:10:03:03 01:37:18:18 01:37:20:11 
* FROM CLIP NAME:  83E-1A 
* REEL: GT_COTERIE_NIGHT_02_LC_SDR_V2_3 
* SOURCE FILE: A048C014_141009_F70H
721  A040C003 V     C        09:55:01:03 09:55:02:12 01:37:20:11 01:37:21:20 
* FROM CLIP NAME:  83B-1A 
* REEL: GT_COTERIE_NIGHT_02_LC_SDR_V2_3 
* SOURCE FILE: A040C003_141006_F70H
722  A048C014 V     C        12:10:05:23 12:10:09:11 01:37:21:20 01:37:25:08 
* FROM CLIP NAME:  83E-1A 
* REEL: GT_COTERIE_NIGHT_02_LC_SDR_V2_3 
* SOURCE FILE: A048C014_141009_F70H
723  B045C018 V     C        12:53:12:20 12:53:14:05 01:37:25:08 01:37:26:17 
* FROM CLIP NAME:  83G-1B 
* REEL: GT_COTERIE_NIGHT_02_LC_SDR_V2_3 
* SOURCE FILE: B045C018_201008_G90D
724  A040C003 V     C        09:55:09:11 09:55:14:04 01:37:26:17 01:37:31:10 
* FROM CLIP NAME:  83B-1A 
* REEL: GT_COTERIE_NIGHT_02_LC_SDR_V2_3 
* SOURCE FILE: A040C003_141006_F70H
725  B045C018 V     C        12:53:25:11 12:53:28:23 01:37:31:10 01:37:34:22 
* FROM CLIP NAME:  83G-1B 
* REEL: GT_COTERIE_NIGHT_02_LC_SDR_V2_3 
* SOURCE FILE: B045C018_201008_G90D
726  B037C004 V     C        09:58:46:18 09:58:50:07 01:37:34:22 01:37:38:11 
* FROM CLIP NAME:  83B-2B 
* REEL: GT_COTERIE_NIGHT_02_LC_SDR_V2_3 
* SOURCE FILE: B037C004_201005_G90D
727  B045C018 V     C        12:53:53:08 12:53:54:22 01:37:38:11 01:37:40:01 
* FROM CLIP NAME:  83G-1B 
* REEL: GT_COTERIE_NIGHT_02_LC_SDR_V2_3 
* SOURCE FILE: B045C018_201008_G90D
728  A042C001 V     C        09:04:28:05 09:04:31:04 01:37:40:01 01:37:43:00 
* FROM CLIP NAME:  88-1A 
* REEL: GT_GAEL_NIGHT_01_SDR_V2_33.CUBE 
* SOURCE FILE: A042C001_141007_F70H
729  A042C009 V     C        09:51:37:13 09:51:39:19 01:37:43:00 01:37:45:06 
* FROM CLIP NAME:  88E-1A 
* REEL: GT_GAEL_NIGHT_01_SDR_V2_33.CUBE 
* SOURCE FILE: A042C009_141007_F70H
730  A042C008 V     C        09:47:53:01 09:47:56:20 01:37:45:06 01:37:49:01 
* FROM CLIP NAME:  88D-2A 
* REEL: GT_GAEL_NIGHT_01_SDR_V2_33.CUBE 
* SOURCE FILE: A042C008_141007_F70H
731  A042C005 V     C        09:19:14:04 09:19:20:12 01:37:49:01 01:37:55:09 
* FROM CLIP NAME:  88B-3A 
* REEL: GT_GAEL_NIGHT_01_SDR_V2_33.CUBE 
* SOURCE FILE: A042C005_141007_F70H
732  A042C008 V     C        09:48:04:06 09:48:06:13 01:37:55:09 01:37:57:16 
* FROM CLIP NAME:  88D-2A 
* REEL: GT_GAEL_NIGHT_01_SDR_V2_33.CUBE 
* SOURCE FILE: A042C008_141007_F70H
733  A042C005 V     C        09:20:13:18 09:20:18:06 01:37:57:16 01:38:02:04 
* FROM CLIP NAME:  88B-3A 
* REEL: GT_GAEL_NIGHT_01_SDR_V2_33.CUBE 
* SOURCE FILE: A042C005_141007_F70H
734  A042C009 V     C        09:52:01:02 09:52:03:14 01:38:02:04 01:38:04:16 
* FROM CLIP NAME:  88E-1A 
* REEL: GT_GAEL_NIGHT_01_SDR_V2_33.CUBE 
* SOURCE FILE: A042C009_141007_F70H
735  B039C004 V     C        09:16:31:17 09:16:34:08 01:38:04:16 01:38:07:07 
* FROM CLIP NAME:  88B-2B 
* REEL: GT_GAEL_NIGHT_01_SDR_V2_33.CUBE 
* SOURCE FILE: B039C004_201006_G90D
736  B039C009 V     C        09:52:04:13 09:52:05:23 01:38:07:07 01:38:08:17 
* FROM CLIP NAME:  88E-1B 
* REEL: GT_GAEL_NIGHT_01_SDR_V2_33.CUBE 
* SOURCE FILE: B039C009_201006_G90D
737  A042C006 V     C        09:23:44:15 09:23:46:18 01:38:08:17 01:38:10:20 
* FROM CLIP NAME:  88C-1A 
* REEL: GT_GAEL_NIGHT_01_SDR_V2_33.CUBE 
* SOURCE FILE: A042C006_141007_F70H
738  A042C009 V     C        09:52:06:15 09:52:10:11 01:38:10:20 01:38:14:16 
* FROM CLIP NAME:  88E-1A 
* REEL: GT_GAEL_NIGHT_01_SDR_V2_33.CUBE 
* SOURCE FILE: A042C009_141007_F70H
739  A042C006 V     C        09:23:49:01 09:23:53:07 01:38:14:16 01:38:18:22 
* FROM CLIP NAME:  88C-1A 
* REEL: GT_GAEL_NIGHT_01_SDR_V2_33.CUBE 
* SOURCE FILE: A042C006_141007_F70H
740  A042C009 V     C        09:52:16:17 09:52:19:04 01:38:18:22 01:38:21:09 
* FROM CLIP NAME:  88E-1A 
* REEL: GT_GAEL_NIGHT_01_SDR_V2_33.CUBE 
* SOURCE FILE: A042C009_141007_F70H
741  A042C005 V     C        09:20:36:06 09:20:38:19 01:38:21:09 01:38:23:22 
* FROM CLIP NAME:  88B-3A 
* REEL: GT_GAEL_NIGHT_01_SDR_V2_33.CUBE 
* SOURCE FILE: A042C005_141007_F70H
742  B039C009 V     C        09:52:20:05 09:52:29:02 01:38:23:22 01:38:32:19 
* FROM CLIP NAME:  88E-1B 
* REEL: GT_GAEL_NIGHT_01_SDR_V2_33.CUBE 
* SOURCE FILE: B039C009_201006_G90D
743  A042NSC0 V     C        10:04:57:03 10:04:58:16 01:38:32:19 01:38:34:08 
* 48FPS 
* FROM CLIP NAME:  A14-1A-ONLY 48FPS 
* REEL: GT_GAEL_NIGHT_01_SDR_V2_33.CUBE 
* SOURCE FILE: A042NSC012_141007_F70H
744  A042NSC0 V     C        10:01:12:15 10:01:15:06 01:38:34:08 01:38:36:23 
* FROM CLIP NAME:  B16-1A 48FPS 
* REEL: GT_GAEL_NIGHT_01_SDR_V2_33.CUBE 
* SOURCE FILE: A042NSC010_141007_F70H
745  A042NSC0 V     C        10:47:37:00 10:47:43:06 01:38:36:23 01:38:43:05 
* FROM CLIP NAME:  A14A-2A 48FPS 
* REEL: GT_GAEL_NIGHT_01_SDR_V2_33.CUBE 
* SOURCE FILE: A042NSC014_141007_F70H
746  B045C018 V     C        12:53:48:02 12:53:51:11 01:38:43:05 01:38:46:14 
* FROM CLIP NAME:  83G-1B 
* REEL: GT_COTERIE_NIGHT_02_LC_SDR_V2_3 
* SOURCE FILE: B045C018_201008_G90D
747  A048C012 V     C        11:43:59:11 11:44:02:00 01:38:46:14 01:38:49:03 
* FROM CLIP NAME:  83C-2A 
* REEL: GT_COTERIE_NIGHT_02_LC_SDR_V2_3 
* SOURCE FILE: A048C012_141009_F70H
748  B045C015 V     C        12:10:19:22 12:10:21:02 01:38:49:03 01:38:50:07 
* FROM CLIP NAME:  83E-1B 
* REEL: GT_COTERIE_NIGHT_02_LC_SDR_V2_3 
* SOURCE FILE: B045C015_201008_G90D
749  A048C014 V     C        12:10:25:22 12:10:27:11 01:38:50:07 01:38:51:20 
* FROM CLIP NAME:  83E-1A 
* REEL: GT_COTERIE_NIGHT_02_LC_SDR_V2_3 
* SOURCE FILE: A048C014_141009_F70H
750  B037C005 V     C        10:03:48:19 10:03:50:19 01:38:51:20 01:38:53:20 
* FROM CLIP NAME:  83B-3B 
* REEL: GT_COTERIE_NIGHT_02_LC_SDR_V2_3 
* SOURCE FILE: B037C005_201005_G90D
751  B045C018 V     C        12:53:58:05 12:54:00:15 01:38:53:20 01:38:56:06 
* FROM CLIP NAME:  83G-1B 
* REEL: GT_COTERIE_NIGHT_02_LC_SDR_V2_3 
* SOURCE FILE: B045C018_201008_G90D
752  A048C015 V     C        12:16:26:09 12:16:32:05 01:38:56:06 01:39:02:02 
* FROM CLIP NAME:  83E-2A 
* REEL: GT_COTERIE_NIGHT_02_LC_SDR_V2_3 
* SOURCE FILE: A048C015_141009_F70H
753  A048C012 V     C        11:45:57:18 11:45:59:01 01:39:02:02 01:39:03:09 
* FROM CLIP NAME:  83C-2A 
* REEL: GT_COTERIE_NIGHT_02_LC_SDR_V2_3 
* SOURCE FILE: A048C012_141009_F70H
754  B045C013 V     C        11:44:19:19 11:44:21:06 01:39:03:09 01:39:04:20 
* FROM CLIP NAME:  83C-2B 
* REEL: GT_COTERIE_NIGHT_02_LC_SDR_V2_3 
* SOURCE FILE: B045C013_201008_G90D
755  B045C014 V     C        11:58:42:07 11:58:44:11 01:39:04:20 01:39:07:00 
* FROM CLIP NAME:  83D-1B 
* REEL: GT_COTERIE_NIGHT_02_LC_SDR_V2_3 
* SOURCE FILE: B045C014_201008_G90D
756  A040C001 V     C        09:23:23:19 09:23:28:02 01:39:07:00 01:39:11:07 
* FROM CLIP NAME:  83-1A 
* REEL: GT_COTERIE_NIGHT_02_LC_SDR_V2_3 
* SOURCE FILE: A040C001_141006_F70H
757  A048C015 V     C        12:16:46:22 12:16:47:23 01:39:11:07 01:39:12:08 
* FROM CLIP NAME:  83E-2A 
* REEL: GT_COTERIE_NIGHT_02_LC_SDR_V2_3 
* SOURCE FILE: A048C015_141009_F70H
758  A048C012 V     C        11:44:36:12 11:44:40:06 01:39:12:08 01:39:16:02 
* FROM CLIP NAME:  83C-2A 
* REEL: GT_COTERIE_NIGHT_02_LC_SDR_V2_3 
* SOURCE FILE: A048C012_141009_F70H
759  A048C012 V     C        11:46:16:03 11:46:17:06 01:39:16:02 01:39:17:05 
* FROM CLIP NAME:  83C-2A 
* REEL: GT_COTERIE_NIGHT_02_LC_SDR_V2_3 
* SOURCE FILE: A048C012_141009_F70H
760  A048C018 V     C        12:54:26:22 12:54:29:13 01:39:17:05 01:39:19:20 
* FROM CLIP NAME:  83G-1A 
* REEL: GT_COTERIE_NIGHT_02_LC_SDR_V2_3 
* SOURCE FILE: A048C018_141009_F70H
761  B037C001 V     C        09:24:04:02 09:24:06:10 01:39:19:20 01:39:22:04 
* FROM CLIP NAME:  83-1B 
* REEL: GT_COTERIE_NIGHT_02_LC_SDR_V2_3 
* SOURCE FILE: B037C001_201005_G90D
762  B019NSC0 V     C        20:36:40:08 20:36:48:08 01:39:22:04 01:39:30:04 
* 48FPS 
* FROM CLIP NAME:  82E-1B 48FPS 
* REEL: GT_COTERIE_NIGHT_02_LC_SDR_V2_3 
* SOURCE FILE: B019NSC012_200923_G90D
763  C005C012 V     C        10:51:52:13 10:51:54:22 01:39:30:04 01:39:32:13 
* FROM CLIP NAME:  82E-1C 
* REEL: GT_COTERIE_NIGHT_02_LC_SDR_V2_3 
* SOURCE FILE: C005C012_200923_G902
764  B019C023 V     C        21:53:39:02 21:53:40:14 01:39:32:13 01:39:34:01 
* FROM CLIP NAME:  82N-1 B-ONLY 
* REEL: GT_COTERIE_NIGHT_02_LC_SDR_V2_3 
* SOURCE FILE: B019C023_200923_G90D
765  C005C012 V     C        10:51:56:04 10:51:57:05 01:39:34:01 01:39:35:02 
* FROM CLIP NAME:  82E-1C 
* REEL: GT_COTERIE_NIGHT_02_LC_SDR_V2_3 
* SOURCE FILE: C005C012_200923_G902
766  B019C007 V     C        20:05:38:20 20:05:41:13 01:39:35:02 01:39:37:19 
* FROM CLIP NAME:  82B-2B 
* REEL: GT_COTERIE_NIGHT_02_LC_SDR_V2_3 
* SOURCE FILE: B019C007_200923_G90D
767  B019C022 V     C        21:50:25:03 21:50:28:16 01:39:37:19 01:39:41:08 
* FROM CLIP NAME:  82M-1B 
* REEL: GT_COTERIE_NIGHT_02_LC_SDR_V2_3 
* SOURCE FILE: B019C022_200923_G90D
768  C005C022 V     C        12:49:17:01 12:49:18:19 01:39:41:08 01:39:43:02 
* FROM CLIP NAME:  82M-1C 
* REEL: GT_COTERIE_NIGHT_02_LC_SDR_V2_3 
* SOURCE FILE: C005C022_200923_G902
769  B019SCC0 V     C        23:54:58:12 23:55:03:15 01:39:43:02 01:39:48:05 
* FROM CLIP NAME:  82H-1B 24FPS 
* REEL: GT_COTERIE_NIGHT_02_LC_SDR_V2_3 
* SOURCE FILE: B019SCC016_200923_G90D
770  B019C023 V     C        21:53:55:05 21:53:57:13 01:39:48:05 01:39:50:13 
* FROM CLIP NAME:  82N-1 B-ONLY 
* REEL: GT_COTERIE_NIGHT_02_LC_SDR_V2_3 
* SOURCE FILE: B019C023_200923_G90D
771  C005C008 V     C        10:19:17:10 10:19:20:07 01:39:50:13 01:39:53:10 
* FROM CLIP NAME:  82B-2C 
* REEL: GT_COTERIE_NIGHT_02_LC_SDR_V2_3 
* SOURCE FILE: C005C008_200923_G902
772  B019C022 V     C        21:50:37:11 21:50:38:17 01:39:53:10 01:39:54:16 
* FROM CLIP NAME:  82M-1B 
* REEL: GT_COTERIE_NIGHT_02_LC_SDR_V2_3 
* SOURCE FILE: B019C022_200923_G90D
773  B019C013 V     C        20:44:41:00 20:44:42:12 01:39:54:16 01:39:56:04 
* FROM CLIP NAME:  82F-1B 
* REEL: GT_COTERIE_NIGHT_02_LC_SDR_V2_3 
* SOURCE FILE: B019C013_200923_G90D
774  C005C017 V     C        12:14:34:16 12:14:36:12 01:39:56:04 01:39:58:00 
* FROM CLIP NAME:  82J-1C 
* REEL: GT_COTERIE_NIGHT_02_LC_SDR_V2_3 
* SOURCE FILE: C005C017_200923_G902
775  B019NSC0 V     C        20:57:02:01 20:57:06:22 01:39:58:00 01:40:02:21 
* FROM CLIP NAME:  82H-1B 48FPS 
* REEL: GT_COTERIE_NIGHT_02_LC_SDR_V2_3 
* SOURCE FILE: B019NSC016_200923_G90D
776  C005NSC0 V     C        11:15:11:22 11:15:14:08 01:40:02:21 01:40:05:07 
* FROM CLIP NAME:  82H-1C 48FPS 
* REEL: GT_COTERIE_NIGHT_02_LC_SDR_V2_3 
* SOURCE FILE: C005NSC016_200923_G902
777  C005NSC0 V     C        11:15:14:09 11:15:17:04 01:40:05:07 01:40:08:16 
M2   C005NSC0       019.7                11:15:14:09 
* FROM CLIP NAME:  82H-1C 48FPS 
* REEL: GT_COTERIE_NIGHT_02_LC_SDR_V2_3 
* SOURCE FILE: C005NSC016_200923_G902
778  C006NSC0 V     C        15:37:14:04 15:37:17:19 01:40:08:16 01:40:12:07 
* FROM CLIP NAME:  R16C-1C 48FPS 
* REEL: GT_COTERIE_DAY_01_SDR_V2_33.CUB 
* SOURCE FILE: C006NSC001_200924_G902
779  A022SCC0 V     C        14:53:37:13 14:53:40:13 01:40:12:07 01:40:15:07 
* FROM CLIP NAME:  R16B-1A 24FPS 
* REEL: GT_COTERIE_DAY_01_SDR_V2_33.CUB 
* SOURCE FILE: A022SCC008_140925_F70H
780  A002C015 V     C        17:51:13:18 17:51:16:18 01:40:15:07 01:40:18:07 
* FROM CLIP NAME:  3B-1-A 48 FPS 
* REEL: GT_COTERIE_DAY_01_SDR_V2_33 (3D 
* SOURCE FILE: A002C015_140310_F70H
781  A002C021 V     C        18:49:24:23 18:49:26:05 01:40:18:07 01:40:19:13 
* FROM CLIP NAME:  3H-1-A 48 FPS 
* REEL: GT_COTERIE_DAY_01_SDR_V2_33 (3D 
* SOURCE FILE: A002C021_140310_F70H
782  B002C019 V     C        18:46:43:09 18:46:44:14 01:40:19:13 01:40:20:18 
* FROM CLIP NAME:  3H-1-B 48 FPS 
* REEL: GT_COTERIE_DAY_01_SDR_V2_33 (3D 
* SOURCE FILE: B002C019_140310_C603
783  B019C005 V     C        19:50:24:02 19:50:26:12 01:40:20:18 01:40:23:04 
* FROM CLIP NAME:  82A-2B 
* REEL: GT_COTERIE_NIGHT_02_LC_SDR_V2_3 
* SOURCE FILE: B019C005_200923_G90D
784  C005C018 V     C        12:20:33:06 12:20:35:19 01:40:23:04 01:40:25:17 
* FROM CLIP NAME:  82J-2C 
* REEL: GT_COTERIE_NIGHT_02_LC_SDR_V2_3 
* SOURCE FILE: C005C018_200923_G902
785  A022C009 V     C        16:39:08:11 16:39:13:06 01:40:25:17 01:40:30:12 
* FROM CLIP NAME:  R91A-1A 
* REEL: GT_COTERIE_DAY_01_SDR_V2_33.CUB 
* SOURCE FILE: A022C009_140925_F70H
786  B023C008 V     C        16:39:13:21 16:39:15:15 01:40:30:12 01:40:32:06 
* FROM CLIP NAME:  R91A-1B 
* REEL: GT_COTERIE_DAY_01_SDR_V2_33.CUB 
* SOURCE FILE: B023C008_200924_G90D
787  A002C018 V     C        18:20:22:08 18:20:23:23 01:40:32:06 01:40:33:21 
* FROM CLIP NAME:  3E-1-A 48 FPS 
* REEL: GT_COTERIE_DAY_01_SDR_V2_33 (3D 
* SOURCE FILE: A002C018_140310_F70H
788  A002C014 V     C        17:42:45:10 17:42:47:15 01:40:33:21 01:40:36:02 
* FROM CLIP NAME:  3A-2-A 48 FPS 
* REEL: GT_COTERIE_DAY_01_SDR_V2_33 (3D 
* SOURCE FILE: A002C014_140310_F70H
789  B023C009 V     C        16:43:06:16 16:43:07:19 01:40:36:02 01:40:37:05 
* FROM CLIP NAME:  R91B-1B 
* REEL: GT_COTERIE_DAY_01_SDR_V2_33.CUB 
* SOURCE FILE: B023C009_200924_G90D
790  A002C012 V     C        17:30:43:22 17:30:45:17 01:40:37:05 01:40:38:03 
* FROM CLIP NAME:  3-1-A 24 FPS 
* REEL: GT_COTERIE_DAY_01_SDR_V2_33 (3D 
* SOURCE FILE: A002C012_140310_F70H
791  B023SCC0 V     C        14:47:37:17 14:47:38:15 01:40:38:03 01:40:39:01 
* FROM CLIP NAME:  R16B-1B 24FPS 
* REEL: GT_COTERIE_DAY_01_SDR_V2_33.CUB 
* SOURCE FILE: B023SCC004_200924_G90D
792  A002C012 V     C        17:31:16:08 17:31:18:21 01:40:39:01 01:40:40:08 
* FROM CLIP NAME:  3-1-A 24 FPS 
* REEL: GT_COTERIE_DAY_01_SDR_V2_33 (3D 
* SOURCE FILE: A002C012_140310_F70H
793  A002C014 V     C        17:44:19:04 17:44:23:03 01:40:40:08 01:40:42:08 
* FROM CLIP NAME:  3A-2-A 24 FPS 
* REEL: GT_COTERIE_DAY_01_SDR_V2_33 (3D 
* SOURCE FILE: A002C014_140310_F70H
794  A002C017 V     C        18:06:22:22 18:06:28:03 01:40:42:08 01:40:44:23 
M2   A002C017       048.0                18:06:22:22 
* FROM CLIP NAME:  3D-1-A 48 FPS 
* REEL: GT_COTERIE_DAY_01_SDR_V2_33 (3D 
* SOURCE FILE: A002C017_140310_F70H
795  A022NSC0 V     C        14:42:15:06 14:42:20:19 01:40:44:23 01:40:47:18 
M2   A022NSC0       048.0                14:42:15:06 
* FROM CLIP NAME:  R16-2A 48FPS 
* REEL: GT_COTERIE_DAY_01_SDR_V2_33.CUB 
* SOURCE FILE: A022NSC006_140925_F70H
796  B023NSC0 V     C        14:39:56:18 14:40:01:23 01:40:47:18 01:40:50:09 
M2   B023NSC0       048.0                14:39:56:18 
* FROM CLIP NAME:  R16-2B 48FPS 
* REEL: GT_COTERIE_DAY_01_SDR_V2_33.CUB 
* SOURCE FILE: B023NSC002_200924_G90D
797  A022NSC0 V     C        14:42:25:20 14:42:28:11 01:40:50:09 01:40:51:17 
M2   A022NSC0       048.0                14:42:25:20 
* FROM CLIP NAME:  R16-2A 48FPS 
* REEL: GT_COTERIE_DAY_01_SDR_V2_33.CUB 
* SOURCE FILE: A022NSC006_140925_F70H
798  A022NSC0 V     C        14:54:31:15 14:54:33:16 01:40:51:17 01:40:53:18 
* FROM CLIP NAME:  R16B-1A 48FPS 
* REEL: GT_COTERIE_DAY_01_SDR_V2_33.CUB 
* SOURCE FILE: A022NSC008_140925_F70H
799  B023NSC0 V     C        14:49:51:19 14:49:54:09 01:40:53:18 01:40:56:08 
* FROM CLIP NAME:  R16B-1B 48FPS 
* REEL: GT_COTERIE_DAY_01_SDR_V2_33.CUB 
* SOURCE FILE: B023NSC004_200924_G90D
800  C006NSC0 V     C        15:37:58:11 15:38:01:15 01:40:56:08 01:40:59:12 
* FROM CLIP NAME:  R16C-1C 48FPS 
* REEL: GT_COTERIE_DAY_01_SDR_V2_33.CUB 
* SOURCE FILE: C006NSC001_200924_G902
801     BL    V     C        00:00:00:00 00:00:01:09 01:40:59:12 01:41:00:21 
* SOURCE FILE: (NULL)
802  C005C018 V     C        12:18:56:16 12:18:59:20 01:41:00:21 01:41:04:01 
* FROM CLIP NAME:  82J-2C 
* REEL: GT_COTERIE_NIGHT_02_LC_SDR_V2_3 
* SOURCE FILE: C005C018_200923_G902
803  B019SCC0 V     C        23:55:18:09 23:55:20:03 01:41:04:01 01:41:05:19 
* FROM CLIP NAME:  82H-1B 24FPS 
* REEL: GT_COTERIE_NIGHT_02_LC_SDR_V2_3 
* SOURCE FILE: B019SCC016_200923_G90D
804  C005C018 V     C        12:19:00:13 12:19:08:01 01:41:05:19 01:41:13:07 
* FROM CLIP NAME:  82J-2C 
* REEL: GT_COTERIE_NIGHT_02_LC_SDR_V2_3 
* SOURCE FILE: C005C018_200923_G902
805  A002C016 V     C        18:00:33:18 18:00:43:12 01:41:13:07 01:41:23:01 
* FROM CLIP NAME:  3C-1-A 48 FPS 
* REEL: GT_COTERIE_DAY_01_SDR_V2_33 (3D 
* SOURCE FILE: A002C016_140310_F70H
806  A002C016 V     C        18:00:43:12 18:00:43:12 01:41:23:01 01:41:23:01 
806     BL    V     D    024 00:00:00:00 00:00:01:00 01:41:23:01 01:41:24:01 
* BLEND, DISSOLVE 
* FROM CLIP NAME:  3C-1-A 48 FPS 
* REEL: GT_COTERIE_DAY_01_SDR_V2_33 (3D 
* SOURCE FILE: A002C016_140310_F70H
807     BL    V     C        00:00:00:00 00:00:01:16 01:41:24:01 01:41:25:17 
* SOURCE FILE: (NULL)
808     BL    V     C        00:00:00:00 00:00:00:12 01:41:25:17 01:41:26:05 
* SOURCE FILE: (NULL)
809     BL    V     C        00:00:00:00 00:00:30:00 01:41:26:05 01:41:56:05 
* SOURCE FILE: (NULL)
810  BLACK.NE V     C        01:00:34:02 01:00:36:01 01:41:56:05 01:41:58:04 
* FROM CLIP NAME:  BLACK.NEW.01 
* SOURCE FILE: BLACK.NEW.01
811  SMPTE_BA V     C        01:00:37:14 01:00:37:15 01:41:58:04 01:41:58:05 
* FROM CLIP NAME:  SMPTE_BARS.TIF.NEW.01 
* SOURCE FILE: SMPTE_BARS.TIF
812  BLACK.NE V     C        01:00:34:02 01:01:04:02 01:41:58:05 01:42:28:05 
* FROM CLIP NAME:  BLACK.NEW.01 
* SOURCE FILE: BLACK.NEW.01
813  PREVIOUS V     C        01:00:00:00 01:00:01:14 01:42:28:05 01:42:29:19 
* FROM CLIP NAME:  PREVIOUSLY ON.JPG 
* SOURCE FILE: PREVIOUSLY ON.JPG
814  A007C002 V     C        21:16:55:02 21:17:11:01 01:42:29:19 01:42:37:19 
* FROM CLIP NAME:  1A-2-A ONLYX5 24 FPS 
* REEL: GT_COTERIE_NIGHT_02_LC_SDR_V2_3 
* SOURCE FILE: A007C002_140312_F70H
815  A002C012 V     C        17:31:02:03 17:31:07:20 01:42:37:19 01:42:43:12 
* FROM CLIP NAME:  3-1-A 48 FPS 
* REEL: GT_COTERIE_DAY_01_SDR_V2_33 (3D 
* SOURCE FILE: A002C012_140310_F70H
816  B002C010 V     C        17:29:37:00 17:29:42:07 01:42:43:12 01:42:46:04 
* FROM CLIP NAME:  3-1-B 24 FPS 
* REEL: GT_COTERIE_DAY_01_SDR_V2_33 (3D 
* SOURCE FILE: B002C010_140310_C603
817  B002C010 V     C        17:30:26:22 17:30:30:01 01:42:46:04 01:42:49:07 
* FROM CLIP NAME:  3-1-B 48 FPS 
* REEL: GT_COTERIE_DAY_01_SDR_V2_33 (3D 
* SOURCE FILE: B002C010_140310_C603
818  A008C010 V     C        12:30:02:08 12:30:04:17 01:42:49:07 01:42:51:16 
* FROM CLIP NAME:  24B-1-A-ONLY 48 FPS 
* REEL: GT_COTERIE_NIGHT_02_LC_SDR_V2_3 
* SOURCE FILE: A008C010_140313_F70H
819  A011NSC0 V     C        15:12:55:05 15:13:01:06 01:42:51:16 01:42:57:17 
* 48FPS 
* FROM CLIP NAME:  46E-1A 48FPS 
* REEL: GT_SPECK_DAY_SDR_V2_33.CUBE 
* SOURCE FILE: A011NSC010_140919_F70H
820  B001C009 V     C        09:24:53:00 09:24:57:15 01:42:57:17 01:43:02:08 
* FROM CLIP NAME:  A39D-1-B_52 
* REEL: GT_EXT_DAY_SDR_V2_33 (3D) 
* SOURCE FILE: B001C009_140309_C603
821  B001C009 V     C        09:24:45:08 09:24:49:23 01:43:02:08 01:43:06:23 
* FROM CLIP NAME:  A39D-1-B_52 
* REEL: GT_EXT_DAY_SDR_V2_33 (3D) 
* SOURCE FILE: B001C009_140309_C603
822  A008C021 V     C        16:09:08:16 16:09:19:04 01:43:06:23 01:43:17:11 
* FROM CLIP NAME:  63-4-A-ONLY 
* REEL: GT_COTERIE_NIGHT_02_LC_SDR_V2_3 
* SOURCE FILE: A008C021_140313_F70H
823  A008C021 V     C        16:09:12:16 16:09:19:21 01:43:17:11 01:43:24:16 
* FROM CLIP NAME:  63-4-A-ONLY 
* REEL: GT_COTERIE_NIGHT_02_LC_SDR_V2_3 
* SOURCE FILE: A008C021_140313_F70H
824  IMG_0168 V     C        01:00:39:03 01:00:44:03 01:43:24:16 01:43:29:16 
* FROM CLIP NAME:  75D-1 P-ONLY 
* SOURCE FILE: IMG_0168-H264_4K_24FPS.MP4
825  IMG_0164 V     C        01:01:26:08 01:01:30:05 01:43:29:16 01:43:33:13 
* FROM CLIP NAME:  75A-1 P-ONLYX2 
* SOURCE FILE: IMG_0164-H264_4K_24FPS.MP4
826  A014C001 V     C        16:00:51:00 16:01:05:04 01:43:33:13 01:43:47:17 
* FROM CLIP NAME:  79-1A-ONLYX4 
* REEL: GT_SPECK_DAY_SDR_V2_33.CUBE 
* SOURCE FILE: A014C001_140922_F70H
827  A011C014 V     C        18:02:20:22 18:02:25:21 01:43:47:17 01:43:52:16 
* FROM CLIP NAME:  77-2-A 
* REEL: GT_EXT_DAY_SDR_V2_33.CUBE 
* SOURCE FILE: A011C014_140919_F70H
828  A011C018 V     C        18:31:16:19 18:31:22:13 01:43:52:16 01:43:58:10 
* FROM CLIP NAME:  77B-1-A 
* REEL: GT_EXT_DAY_SDR_V2_33.CUBE 
* SOURCE FILE: A011C018_140919_F70H
829  A014C003 V     C        16:17:03:09 16:17:09:04 01:43:58:10 01:44:04:05 
* FROM CLIP NAME:  79B-1A-ONLYX2 
* REEL: GT_SPECK_DAY_SDR_V2_33.CUBE 
* SOURCE FILE: A014C003_140922_F70H
830  IMG_0160 V     C        01:02:42:00 01:03:00:18 01:44:04:05 01:44:22:23 
* FROM CLIP NAME:  A82D-1R 
* REEL: R001C010_IMG_0160 
* SOURCE FILE: IMG_0160-H264_4K_24FPS.MP4
831  IMG_0288 V     C        01:02:55:12 01:03:14:06 01:44:22:23 01:44:41:17 
* FROM CLIP NAME:  A82D-1P 
* REEL: P001C001_IMG_0288 
* SOURCE FILE: IMG_0288-H264_4K_24FPS.MP4
832  IMG_0160 V     C        01:03:21:01 01:03:44:11 01:44:41:17 01:45:05:03 
* FROM CLIP NAME:  A82D-1R 
* REEL: R001C010_IMG_0160 
* SOURCE FILE: IMG_0160-H264_4K_24FPS.MP4
833  IMG_0288 V     C        01:03:37:02 01:03:56:23 01:45:05:03 01:45:25:00 
* FROM CLIP NAME:  A82D-1P 
* REEL: P001C001_IMG_0288 
* SOURCE FILE: IMG_0288-H264_4K_24FPS.MP4
834  IMG_0158 V     C        01:04:43:08 01:04:54:09 01:45:25:00 01:45:36:01 
* FROM CLIP NAME:  IMG_0158-H264_4K_24FPS.MP4 
* SOURCE FILE: IMG_0158-H264_4K_24FPS.MP4
835  IMG_0288 V     C        01:04:15:09 01:04:21:12 01:45:36:01 01:45:42:04 
* FROM CLIP NAME:  A82D-1P 
* REEL: P001C001_IMG_0288 
* SOURCE FILE: IMG_0288-H264_4K_24FPS.MP4
836  C005NSC0 V     C        11:15:13:09 11:15:18:10 01:45:42:04 01:45:47:05 
* FROM CLIP NAME:  82H-1C 48FPS 
* REEL: GT_COTERIE_NIGHT_02_LC_SDR_V2_3 
* SOURCE FILE: C005NSC016_200923_G902
837  C006NSC0 V     C        15:37:10:10 15:37:17:09 01:45:47:05 01:45:54:04 
* FROM CLIP NAME:  R16C-1C 48FPS 
* REEL: GT_COTERIE_DAY_01_SDR_V2_33.CUB 
* SOURCE FILE: C006NSC001_200924_G902
838  A002C017 V     C        18:06:21:22 18:06:26:13 01:45:54:04 01:45:58:19 
* FROM CLIP NAME:  3D-1-A 48 FPS 
* REEL: GT_COTERIE_DAY_01_SDR_V2_33 (3D 
* SOURCE FILE: A002C017_140310_F70H
839  A022NSC0 V     C        14:42:14:06 14:42:19:01 01:45:58:19 01:46:03:14 
* FROM CLIP NAME:  R16-2A 48FPS 
* REEL: GT_COTERIE_DAY_01_SDR_V2_33.CUB 
* SOURCE FILE: A022NSC006_140925_F70H
840  B023NSC0 V     C        14:39:55:18 14:40:00:09 01:46:03:14 01:46:08:05 
* FROM CLIP NAME:  R16-2B 48FPS 
* REEL: GT_COTERIE_DAY_01_SDR_V2_33.CUB 
* SOURCE FILE: B023NSC002_200924_G90D
841  A022NSC0 V     C        14:42:24:20 14:42:28:04 01:46:08:05 01:46:11:13 
* FROM CLIP NAME:  R16-2A 48FPS 
* REEL: GT_COTERIE_DAY_01_SDR_V2_33.CUB 
* SOURCE FILE: A022NSC006_140925_F70H
842  C006NSC0 V     C        15:37:57:11 15:38:02:15 01:46:11:13 01:46:16:17 
* FROM CLIP NAME:  R16C-1C 48FPS 
* REEL: GT_COTERIE_DAY_01_SDR_V2_33.CUB 
* SOURCE FILE: C006NSC001_200924_G902
843  C005NSC0 V     C        11:15:23:21 11:15:28:22 01:46:16:17 01:46:21:18 
* FROM CLIP NAME:  82H-1C 48FPS 
* REEL: GT_COTERIE_NIGHT_02_LC_SDR_V2_3 
* SOURCE FILE: C005NSC016_200923_G902
844  A002C016 V     C        18:00:32:18 18:00:45:12 01:46:21:18 01:46:34:12 
* FROM CLIP NAME:  3C-1-A 48 FPS 
* REEL: GT_COTERIE_DAY_01_SDR_V2_33 (3D 
* SOURCE FILE: A002C016_140310_F70H
>>> SOURCE A001C004 A001C004_140310_ 060a2b340101010501010d43-13-a1-00-00-{39151f9e-2667-05e4-00804582f8000000} 
* SOURCE FILE: A001C004_140310_F70H
>>> SOURCE A001C005 A001C005_140310_ 060a2b340101010501010d43-13-a1-00-00-{be74b7a0-2667-05e0-00804582f8000000} 
* SOURCE FILE: A001C005_140310_F70H
>>> SOURCE A001C006 A001C006_140310_ 060a2b340101010501010d43-13-a1-00-00-{351423a2-2667-05d1-00804582f8000000} 
* SOURCE FILE: A001C006_140310_F70H
>>> SOURCE A001C008 A001C008_140310_ 060a2b340101010501010d43-13-a1-00-00-{de56c5a4-2667-05c4-00804582f8000000} 
* SOURCE FILE: A001C008_140310_F70H
>>> SOURCE A001C010 A001C010_140310_ 060a2b340101010501010d43-13-a1-00-00-{d916a3aa-2667-05ef-00804582f8000000} 
* SOURCE FILE: A001C010_140310_F70H
>>> SOURCE A001C011 A001C011_140310_ 060a2b340101010501010d43-13-a1-00-00-{4cf2d9ab-2667-05ed-00804582f8000000} 
* SOURCE FILE: A001C011_140310_F70H
>>> SOURCE A001C012 A001C012_140310_ 060a2b340101010501010d43-13-a1-00-00-{a4d3a7ad-2667-05f7-00804582f8000000} 
* SOURCE FILE: A001C012_140310_F70H
>>> SOURCE A001C014 A001C014_140310_ 060a2b340101010501010d43-13-a1-00-00-{0d5c60b0-2667-05f9-00804582f8000000} 
* SOURCE FILE: A001C014_140310_F70H
>>> SOURCE A002C012 A002C012_140310_ 060a2b340101010501010643-13-a1-00-00-{f86b5b0d-2767-05f0-00804582f8000000} 
* SOURCE FILE: A002C012_140310_F70H
>>> SOURCE A002C014 A002C014_140310_ 060a2b340101010501010643-13-a1-00-00-{1c8c7110-2767-05d5-00804582f8000000} 
* SOURCE FILE: A002C014_140310_F70H
>>> SOURCE A002C015 A002C015_140310_ 060a2b340101010501010643-13-a1-00-00-{178d6611-2767-05da-00804582f8000000} 
* SOURCE FILE: A002C015_140310_F70H
>>> SOURCE A002C016 A002C016_140310_ 060a2b340101010501010643-13-a1-00-00-{4589c214-2767-05de-00804582f8000000} 
* SOURCE FILE: A002C016_140310_F70H
>>> SOURCE A002C017 A002C017_140310_ 060a2b340101010501010643-13-a1-00-00-{9cc1a715-2767-05c1-00804582f8000000} 
* SOURCE FILE: A002C017_140310_F70H
>>> SOURCE A002C018 A002C018_140310_ 060a2b340101010501010643-13-a1-00-00-{aa420918-2767-05dc-00804582f8000000} 
* SOURCE FILE: A002C018_140310_F70H
>>> SOURCE A002C019 A002C019_140310_ 060a2b340101010501010643-13-a1-00-00-{2b92c018-2767-05dc-00804582f8000000} 
* SOURCE FILE: A002C019_140310_F70H
>>> SOURCE A002C021 A002C021_140310_ 060a2b340101010501010643-13-a1-00-00-{b3ef161c-2767-05d1-00804582f8000000} 
* SOURCE FILE: A002C021_140310_F70H
>>> SOURCE A003C004 A003C004_140311_ 060a2b340101010501010d43-13-a1-00-00-{5577c7ba-2767-05e3-00804582f8000000} 
* SOURCE FILE: A003C004_140311_F70H
>>> SOURCE A003C006 A003C006_140311_ 060a2b340101010501010d43-13-a1-00-00-{90b797bd-2767-05d6-00804582f8000000} 
* SOURCE FILE: A003C006_140311_F70H
>>> SOURCE A003C010 A003C010_140311_ 060a2b340101010501010d43-13-a1-00-00-{6e8405c3-2767-05df-00804582f8000000} 
* SOURCE FILE: A003C010_140311_F70H
>>> SOURCE A003C017 A003C017_140311_ 060a2b340101010501010d43-13-a1-00-00-{6e8538cf-2767-05db-00804582f8000000} 
* SOURCE FILE: A003C017_140311_F70H
>>> SOURCE A003C019 A003C019_140311_ 060a2b340101010501010d43-13-a1-00-00-{cbc941d1-2767-05e5-00804582f8000000} 
* SOURCE FILE: A003C019_140311_F70H
>>> SOURCE A003C020 A003C020_140311_ 060a2b340101010501010d43-13-a1-00-00-{8c1a34d8-2767-05f4-00804582f8000000} 
* SOURCE FILE: A003C020_140311_F70H
>>> SOURCE A003C021 A003C021_140311_ 060a2b340101010501010d43-13-a1-00-00-{694254d9-2767-05ce-00804582f8000000} 
* SOURCE FILE: A003C021_140311_F70H
>>> SOURCE A003C022 A003C022_140311_ 060a2b340101010501010d43-13-a1-00-00-{a6136bdc-2767-05dd-00804582f8000000} 
* SOURCE FILE: A003C022_140311_F70H
>>> SOURCE A003C023 A003C023_140311_ 060a2b340101010501010d43-13-a1-00-00-{ba86e4de-2767-05fa-00804582f8000000} 
* SOURCE FILE: A003C023_140311_F70H
>>> SOURCE A005C001 A005C001_140312_ 060a2b340101010501010d43-13-a1-00-00-{16fbc6af-2867-05ca-00804582f8000000} 
* SOURCE FILE: A005C001_140312_F70H
>>> SOURCE A005C002 A005C002_140312_ 060a2b340101010501010d43-13-a1-00-00-{bdfddab1-2867-05f5-00804582f8000000} 
* SOURCE FILE: A005C002_140312_F70H
>>> SOURCE A005C004 A005C004_140312_ 060a2b340101010501010d43-13-a1-00-00-{163a09b6-2867-05d7-00804582f8000000} 
* SOURCE FILE: A005C004_140312_F70H
>>> SOURCE A005C005 A005C005_140312_ 060a2b340101010501010d43-13-a1-00-00-{1e4aacbb-2867-05e3-00804582f8000000} 
* SOURCE FILE: A005C005_140312_F70H
>>> SOURCE A005C006 A005C006_140312_ 060a2b340101010501010d43-13-a1-00-00-{a863b7bf-2867-05d9-00804582f8000000} 
* SOURCE FILE: A005C006_140312_F70H
>>> SOURCE A005C007 A005C007_140312_ 060a2b340101010501010d43-13-a1-00-00-{49f0a5c0-2867-05fb-00804582f8000000} 
* SOURCE FILE: A005C007_140312_F70H
>>> SOURCE A005C008 A005C008_140312_ 060a2b340101010501010d43-13-a1-00-00-{c586e7c1-2867-05e9-00804582f8000000} 
* SOURCE FILE: A005C008_140312_F70H
>>> SOURCE A005C010 A005C010_140312_ 060a2b340101010501010d43-13-a1-00-00-{002fc4c4-2867-05dc-00804582f8000000} 
* SOURCE FILE: A005C010_140312_F70H
>>> SOURCE A006C002 A006C002_140312_ 060a2b340101010501010d43-13-a1-00-00-{5987f402-2967-05fc-00804582f8000000} 
* SOURCE FILE: A006C002_140312_F70H
>>> SOURCE A006C003 A006C003_140312_ 060a2b340101010501010d43-13-a1-00-00-{44518b03-2967-05c8-00804582f8000000} 
* SOURCE FILE: A006C003_140312_F70H
>>> SOURCE A006C004 A006C004_140312_ 060a2b340101010501010d43-13-a1-00-00-{1799e003-2967-05dd-00804582f8000000} 
* SOURCE FILE: A006C004_140312_F70H
>>> SOURCE A006C005 A006C005_140312_ 060a2b340101010501010d43-13-a1-00-00-{3dc4bd04-2967-05d1-00804582f8000000} 
* SOURCE FILE: A006C005_140312_F70H
>>> SOURCE A006C010 A006C010_140312_ 060a2b340101010501010643-13-a1-00-00-{638bd615-2967-05e6-00804582f8000000} 
* SOURCE FILE: A006C010_140312_F70H
>>> SOURCE A006C013 A006C013_140312_ 060a2b340101010501010d43-13-a1-00-00-{7043431a-2967-05fc-00804582f8000000} 
* SOURCE FILE: A006C013_140312_F70H
>>> SOURCE A006C019 A006C019_140312_ 060a2b340101010501010643-13-a1-00-00-{73fc5b2d-2967-05e5-00804582f8000000} 
* SOURCE FILE: A006C019_140312_F70H
>>> SOURCE A007C002 A007C002_140312_ 060a2b340101010501010643-13-a1-00-00-{a3906730-2967-05de-00804582f8000000} 
* SOURCE FILE: A007C002_140312_F70H
>>> SOURCE A008C001 A008C001_140313_ 060a2b340101010501010d43-13-a1-00-00-{7b00a3c1-2967-05c8-00804582f8000000} 
* SOURCE FILE: A008C001_140313_F70H
>>> SOURCE A008C002 A008C002_140313_ 060a2b340101010501010d43-13-a1-00-00-{96d7c1c2-2967-05fc-00804582f8000000} 
* SOURCE FILE: A008C002_140313_F70H
>>> SOURCE A008C003 A008C003_140313_ 060a2b340101010501010d43-13-a1-00-00-{51e1e7c3-2967-05c7-00804582f8000000} 
* SOURCE FILE: A008C003_140313_F70H
>>> SOURCE A008C004 A008C004_140313_ 060a2b340101010501010d43-13-a1-00-00-{341717c5-2967-05f6-00804582f8000000} 
* SOURCE FILE: A008C004_140313_F70H
>>> SOURCE A008C005 A008C005_140313_ 060a2b340101010501010d43-13-a1-00-00-{5098bec6-2967-05d9-00804582f8000000} 
* SOURCE FILE: A008C005_140313_F70H
>>> SOURCE A008C008 A008C008_140313_ 060a2b340101010501010643-13-a1-00-00-{e02541c8-2967-05de-00804582f8000000} 
* SOURCE FILE: A008C008_140313_F70H
>>> SOURCE A008C009 A008C009_140313_ 060a2b340101010501010643-13-a1-00-00-{0d4cd4c8-2967-05cb-00804582f8000000} 
* SOURCE FILE: A008C009_140313_F70H
>>> SOURCE A008C010 A008C010_140313_ 060a2b340101010501010643-13-a1-00-00-{0b9848c9-2967-05f6-00804582f8000000} 
* SOURCE FILE: A008C010_140313_F70H
>>> SOURCE A008C012 A008C012_140313_ 060a2b340101010501010643-13-a1-00-00-{9a2944ca-2967-05f8-00804582f8000000} 
* SOURCE FILE: A008C012_140313_F70H
>>> SOURCE A008C013 A008C013_140313_ 060a2b340101010501010d43-13-a1-00-00-{8b8396ce-2967-05d4-00804582f8000000} 
* SOURCE FILE: A008C013_140313_F70H
>>> SOURCE A008C014 A008C014_140313_ 060a2b340101010501010d43-13-a1-00-00-{0d95edcf-2967-05cb-00804582f8000000} 
* SOURCE FILE: A008C014_140313_F70H
>>> SOURCE A008C015 A008C015_140313_ 060a2b340101010501010d43-13-a1-00-00-{875338d1-2967-05e3-00804582f8000000} 
* SOURCE FILE: A008C015_140313_F70H
>>> SOURCE A008C016 A008C016_140313_ 060a2b340101010501010d43-13-a1-00-00-{c65437d4-2967-05cd-00804582f8000000} 
* SOURCE FILE: A008C016_140313_F70H
>>> SOURCE A008C017 A008C017_140313_ 060a2b340101010501010d43-13-a1-00-00-{fd4c8ed4-2967-05dd-00804582f8000000} 
* SOURCE FILE: A008C017_140313_F70H
>>> SOURCE A008C021 A008C021_140313_ 060a2b340101010501010d43-13-a1-00-00-{a4c48cee-2967-05c5-00804582f8000000} 
* SOURCE FILE: A008C021_140313_F70H
>>> SOURCE A009C003 A009C003_140313_ 060a2b340101010501010d43-13-a1-00-00-{ce0d8712-3067-05f0-00804582f8000000} 
* SOURCE FILE: A009C003_140313_F70H
>>> SOURCE A009C005 A009C005_140313_ 060a2b340101010501010d43-13-a1-00-00-{68100d15-3067-05ff-00804582f8000000} 
* SOURCE FILE: A009C005_140313_F70H
>>> SOURCE A009C008 A009C008_140313_ 060a2b340101010501010d43-13-a1-00-00-{3e38d018-3067-05e7-00804582f8000000} 
* SOURCE FILE: A009C008_140313_F70H
>>> SOURCE A009C009 A009C009_140313_ 060a2b340101010501010d43-13-a1-00-00-{89904219-3067-05d6-00804582f8000000} 
* SOURCE FILE: A009C009_140313_F70H
>>> SOURCE A009C010 A009C010_140313_ 060a2b340101010501010d43-13-a1-00-00-{81e3cc1d-3067-05de-00804582f8000000} 
* SOURCE FILE: A009C010_140313_F70H
>>> SOURCE A009C013 A009C013_140313_ 060a2b340101010501010d43-13-a1-00-00-{a5913421-3067-05d3-00804582f8000000} 
* SOURCE FILE: A009C013_140313_F70H
>>> SOURCE A009C014 A009C014_140313_ 060a2b340101010501010d43-13-a1-00-00-{e383da21-3067-05db-00804582f8000000} 
* SOURCE FILE: A009C014_140313_F70H
>>> SOURCE A011C002 A011C002_140919_ 060a2b340101010501010d20-13-00-00-00-{0fe210d9-dfba-47ac-9419e58ab7ba1b68} 
* SOURCE FILE: A011C002_140919_F70H
>>> SOURCE A011C006 A011C006_140919_ 060a2b340101010501010d20-13-00-00-00-{bb32d47a-cd0d-483a-8cc8fcacb3960cfa} 
* SOURCE FILE: A011C006_140919_F70H
>>> SOURCE A011C012 A011C012_140919_ 060a2b340101010501010d20-13-00-00-00-{725a7882-d8e1-469b-9521b6f873d5ea7c} 
* SOURCE FILE: A011C012_140919_F70H
>>> SOURCE A011C014 A011C014_140919_ 060a2b340101010501010d20-13-00-00-00-{95ac181e-643d-47a1-822f57541c25521a} 
* SOURCE FILE: A011C014_140919_F70H
>>> SOURCE A011C015 A011C015_140919_ 060a2b340101010501010d20-13-00-00-00-{fc77e3ea-c32b-47fc-8b01edee44ae6cba} 
* SOURCE FILE: A011C015_140919_F70H
>>> SOURCE A011C016 A011C016_140919_ 060a2b340101010501010d20-13-00-00-00-{61f228b6-7dfe-4b50-9a16255cbbb97959} 
* SOURCE FILE: A011C016_140919_F70H
>>> SOURCE A011C018 A011C018_140919_ 060a2b340101010501010d20-13-00-00-00-{79c00470-4eff-4faa-b948a3755f97c07a} 
* SOURCE FILE: A011C018_140919_F70H
>>> SOURCE A011C019 A011C019_140919_ 060a2b340101010501010d20-13-00-00-00-{8928b52b-e755-49ea-8bca512e504a9a85} 
* SOURCE FILE: A011C019_140919_F70H
>>> SOURCE A011NSC0 A011NSC008_14091 060a2b340101010501010d20-13-00-00-00-{5e9f7527-214a-4519-880a5e6a519144a4} 
* SOURCE FILE: A011NSC008_140919_F70H
>>> SOURCE A011NSC0 A011NSC010_14091 060a2b340101010501010d20-13-00-00-00-{353725fa-fa6e-45e6-bc86bcd7c9319822} 
* SOURCE FILE: A011NSC010_140919_F70H
>>> SOURCE A011SCC0 A011SCC009_14091 060a2b340101010501010d20-13-00-00-00-{74d6e0b4-f734-4cde-99f432d90ba4c8a2} 
* SOURCE FILE: A011SCC009_140919_F70H
>>> SOURCE A011SCC0 A011SCC023_14091 060a2b340101010501010d20-13-00-00-00-{63ea3bf2-6310-4c83-8c83863f77b0c92a} 
* SOURCE FILE: A011SCC023_140919_F70H
>>> SOURCE A012C004 A012C004_140919_ 060a2b340101010501010d20-13-00-00-00-{8b2c397d-90c2-4624-8c63fa0cfc512722} 
* SOURCE FILE: A012C004_140919_F70H
>>> SOURCE A014C001 A014C001_140922_ 060a2b340101010501010d20-13-00-00-00-{35b70684-4e06-4bc2-92a56c940ad40e81} 
* SOURCE FILE: A014C001_140922_F70H
>>> SOURCE A014C003 A014C003_140922_ 060a2b340101010501010d20-13-00-00-00-{5f68aa61-fe26-4811-b0a517f698608fa2} 
* SOURCE FILE: A014C003_140922_F70H
>>> SOURCE A014C004 A014C004_140922_ 060a2b340101010501010d20-13-00-00-00-{bb027d90-cd64-4ed0-aa849e18508423c5} 
* SOURCE FILE: A014C004_140922_F70H
>>> SOURCE A014C005 A014C005_140922_ 060a2b340101010501010d20-13-00-00-00-{d610a8bb-333f-4297-920ada60df2c9402} 
* SOURCE FILE: A014C005_140922_F70H
>>> SOURCE A014C006 A014C006_140922_ 060a2b340101010501010d20-13-00-00-00-{169e3e2c-b90e-4421-a6afaf9b8dcd94fc} 
* SOURCE FILE: A014C006_140922_F70H
>>> SOURCE A014C008 A014C008_140922_ 060a2b340101010501010d20-13-00-00-00-{51318b45-9a89-4925-8a4101106bf95259} 
* SOURCE FILE: A014C008_140922_F70H
>>> SOURCE A014C009 A014C009_140922_ 060a2b340101010501010d20-13-00-00-00-{a8f81839-93ef-45da-961c910042fab4e1} 
* SOURCE FILE: A014C009_140922_F70H
>>> SOURCE A015C002 A015C002_140922_ 060a2b340101010501010d20-13-00-00-00-{109c2c72-c792-4404-9ddfa0d2a44db43f} 
* SOURCE FILE: A015C002_140922_F70H
>>> SOURCE A019C001 A019C001_140924_ 060a2b340101010501010d20-13-00-00-00-{39bcf96d-f425-4467-8475154d82bee1f0} 
* SOURCE FILE: A019C001_140924_F70H
>>> SOURCE A019C002 A019C002_140924_ 060a2b340101010501010d20-13-00-00-00-{1b383dd3-4a7d-4a9e-80828b42c6077a0c} 
* SOURCE FILE: A019C002_140924_F70H
>>> SOURCE A019C003 A019C003_140924_ 060a2b340101010501010d20-13-00-00-00-{ccf515d7-e732-4a70-8b341346e732de38} 
* SOURCE FILE: A019C003_140924_F70H
>>> SOURCE A019C004 A019C004_140924_ 060a2b340101010501010d20-13-00-00-00-{5d9e4c0d-e288-4890-a7060d09b29dda13} 
* SOURCE FILE: A019C004_140924_F70H
>>> SOURCE A019C005 A019C005_140924_ 060a2b340101010501010d20-13-00-00-00-{f26884a8-52b6-43d7-8a73435323604b20} 
* SOURCE FILE: A019C005_140924_F70H
>>> SOURCE A019C006 A019C006_140924_ 060a2b340101010501010d20-13-00-00-00-{be9a3ef9-07bc-4544-ba5c9ed048e196aa} 
* SOURCE FILE: A019C006_140924_F70H
>>> SOURCE A019C008 A019C008_140924_ 060a2b340101010501010d20-13-00-00-00-{daab8899-ca45-4b2e-9172e78d19b69981} 
* SOURCE FILE: A019C008_140924_F70H
>>> SOURCE A021C002 A021C002_140925_ 060a2b340101010501010d20-13-00-00-00-{d391f50f-3558-4614-bb744e88e04e0b53} 
* SOURCE FILE: A021C002_140925_F70H
>>> SOURCE A021C003 A021C003_140925_ 060a2b340101010501010d20-13-00-00-00-{0359f57d-5137-4853-9c97e77f22cd0733} 
* SOURCE FILE: A021C003_140925_F70H
>>> SOURCE A021C013 A021C013_140925_ 060a2b340101010501010d20-13-00-00-00-{fb576183-9802-44ea-bdf2c26f66a538e5} 
* SOURCE FILE: A021C013_140925_F70H
>>> SOURCE A021C014 A021C014_140925_ 060a2b340101010501010d20-13-00-00-00-{ada1af6a-7e4b-401a-897b479ebedaaf80} 
* SOURCE FILE: A021C014_140925_F70H
>>> SOURCE A021C015 A021C015_140925_ 060a2b340101010501010d20-13-00-00-00-{d26d6b61-5007-4fee-8422d2274ff52f9f} 
* SOURCE FILE: A021C015_140925_F70H
>>> SOURCE A021C016 A021C016_140925_ 060a2b340101010501010d20-13-00-00-00-{29cb299f-137d-4595-9f870882a8d2ebdd} 
* SOURCE FILE: A021C016_140925_F70H
>>> SOURCE A021C018 A021C018_140925_ 060a2b340101010501010d20-13-00-00-00-{76570865-bf1d-4c28-be390101d409049d} 
* SOURCE FILE: A021C018_140925_F70H
>>> SOURCE A021C020 A021C020_140925_ 060a2b340101010501010d20-13-00-00-00-{1ed9cb04-ba12-4712-a5959c39bb12df20} 
* SOURCE FILE: A021C020_140925_F70H
>>> SOURCE A021C021 A021C021_140925_ 060a2b340101010501010d20-13-00-00-00-{8b2a8e97-02ec-4824-961c1800c2af0d88} 
* SOURCE FILE: A021C021_140925_F70H
>>> SOURCE A021C022 A021C022_140925_ 060a2b340101010501010d20-13-00-00-00-{17c224f3-17fb-4e9b-9cc81112098ad728} 
* SOURCE FILE: A021C022_140925_F70H
>>> SOURCE A021C023 A021C023_140925_ 060a2b340101010501010d20-13-00-00-00-{a62d60ce-30cf-4030-83d6398b38a55faa} 
* SOURCE FILE: A021C023_140925_F70H
>>> SOURCE A021C024 A021C024_140925_ 060a2b340101010501010d20-13-00-00-00-{47382337-7d92-46d7-96e4d45f09176354} 
* SOURCE FILE: A021C024_140925_F70H
>>> SOURCE A021C025 A021C025_140925_ 060a2b340101010501010d20-13-00-00-00-{ffa03088-f091-4c48-96646815f7a7817c} 
* SOURCE FILE: A021C025_140925_F70H
>>> SOURCE A021C026 A021C026_140925_ 060a2b340101010501010d20-13-00-00-00-{45003f54-fb79-4e38-9fd480719994f3cb} 
* SOURCE FILE: A021C026_140925_F70H
>>> SOURCE A021C027 A021C027_140925_ 060a2b340101010501010d20-13-00-00-00-{a91569a7-7b02-4f2f-aae8b679685d228c} 
* SOURCE FILE: A021C027_140925_F70H
>>> SOURCE A021C029 A021C029_140925_ 060a2b340101010501010d20-13-00-00-00-{36db4d7d-aa61-471a-9e99f42a64196dd4} 
* SOURCE FILE: A021C029_140925_F70H
>>> SOURCE A021C031 A021C031_140925_ 060a2b340101010501010d20-13-00-00-00-{d2d65612-6f66-4c9b-a115ffc33fb70f5b} 
* SOURCE FILE: A021C031_140925_F70H
>>> SOURCE A021NSC0 A021NSC007_14092 060a2b340101010501010d20-13-00-00-00-{f47080b8-3c11-454c-aaaf1b4ea7b381d2} 
* SOURCE FILE: A021NSC007_140925_F70H
>>> SOURCE A021NSC0 A021NSC008_14092 060a2b340101010501010d20-13-00-00-00-{9448bd8a-ddf4-42a4-b269b0e2b40e4fda} 
* SOURCE FILE: A021NSC008_140925_F70H
>>> SOURCE A021NSC0 A021NSC009_14092 060a2b340101010501010d20-13-00-00-00-{250485db-ba82-4551-9cf228e5252bcd49} 
* SOURCE FILE: A021NSC009_140925_F70H
>>> SOURCE A022C009 A022C009_140925_ 060a2b340101010501010d20-13-00-00-00-{3e54ce88-2b0e-44fd-97b92392094d6bcf} 
* SOURCE FILE: A022C009_140925_F70H
>>> SOURCE A022NSC0 A022NSC006_14092 060a2b340101010501010d20-13-00-00-00-{ee25a7ea-afb1-4028-b737bae51f752a1c} 
* SOURCE FILE: A022NSC006_140925_F70H
>>> SOURCE A022NSC0 A022NSC008_14092 060a2b340101010501010d20-13-00-00-00-{14386bdb-d951-476f-b3636b2beb74af63} 
* SOURCE FILE: A022NSC008_140925_F70H
>>> SOURCE A022SCC0 A022SCC008_14092 060a2b340101010501010d20-13-00-00-00-{cbd8b610-f1af-4f65-adbbb6c36cc786f5} 
* SOURCE FILE: A022SCC008_140925_F70H
>>> SOURCE A038C006 A038C006_141003_ 060a2b340101010501010d20-13-00-00-00-{f66173ff-43d3-46c6-a73b7152aa0278cf} 
* SOURCE FILE: A038C006_141003_F70H
>>> SOURCE A038C009 A038C009_141003_ 060a2b340101010501010d20-13-00-00-00-{ff2210cf-e4c2-4711-a7a44882d9138a23} 
* SOURCE FILE: A038C009_141003_F70H
>>> SOURCE A038C011 A038C011_141003_ 060a2b340101010501010d20-13-00-00-00-{d5a47f9b-bdb2-4903-b8e2daddda14e31f} 
* SOURCE FILE: A038C011_141003_F70H
>>> SOURCE A038C012 A038C012_141003_ 060a2b340101010501010d20-13-00-00-00-{e66b0bce-d6a0-4045-a966577159462b44} 
* SOURCE FILE: A038C012_141003_F70H
>>> SOURCE A038C013 A038C013_141003_ 060a2b340101010501010d20-13-00-00-00-{087a0758-c8e4-46aa-a9ce9b3c63858ca7} 
* SOURCE FILE: A038C013_141003_F70H
>>> SOURCE A038C014 A038C014_141003_ 060a2b340101010501010d20-13-00-00-00-{27581b1c-35f4-461a-baf49c4c3ef456ea} 
* SOURCE FILE: A038C014_141003_F70H
>>> SOURCE A038C015 A038C015_141003_ 060a2b340101010501010d20-13-00-00-00-{b660a3cc-eb73-4d9f-8802490871784ae1} 
* SOURCE FILE: A038C015_141003_F70H
>>> SOURCE A038C016 A038C016_141003_ 060a2b340101010501010d20-13-00-00-00-{18828c3a-d5b8-4581-9a2a93173f2784e0} 
* SOURCE FILE: A038C016_141003_F70H
>>> SOURCE A038C019 A038C019_141003_ 060a2b340101010501010d20-13-00-00-00-{3236fdb9-ba27-4ddf-a06aed9e116d52fa} 
* SOURCE FILE: A038C019_141003_F70H
>>> SOURCE A038C021 A038C021_141003_ 060a2b340101010501010d20-13-00-00-00-{d0e28273-b753-4b4c-a4048da0a44fbbb8} 
* SOURCE FILE: A038C021_141003_F70H
>>> SOURCE A038C023 A038C023_141003_ 060a2b340101010501010d20-13-00-00-00-{13e4cbf4-7b50-4e2e-8fcdb85c2b4375c0} 
* SOURCE FILE: A038C023_141003_F70H
>>> SOURCE A038C024 A038C024_141003_ 060a2b340101010501010d20-13-00-00-00-{7c7cef0a-3c70-4928-b88686a193c96fe8} 
* SOURCE FILE: A038C024_141003_F70H
>>> SOURCE A038C026 A038C026_141003_ 060a2b340101010501010d20-13-00-00-00-{4d8710f5-e3db-45a8-bcd58c2c463b7f94} 
* SOURCE FILE: A038C026_141003_F70H
>>> SOURCE A039C001 A039C001_141003_ 060a2b340101010501010d20-13-00-00-00-{688d9d1e-2dd6-4b93-9450e5ce44abbbae} 
* SOURCE FILE: A039C001_141003_F70H
>>> SOURCE A039C002 A039C002_141003_ 060a2b340101010501010d20-13-00-00-00-{f421b81b-c9b7-4d25-a260bc45ca9d858c} 
* SOURCE FILE: A039C002_141003_F70H
>>> SOURCE A040C001 A040C001_141006_ 060a2b340101010501010d20-13-00-00-00-{42bf8027-f0fc-4508-bfb0d150e5ef1186} 
* SOURCE FILE: A040C001_141006_F70H
>>> SOURCE A040C002 A040C002_141006_ 060a2b340101010501010d20-13-00-00-00-{7f8798be-29de-41e9-8af945ec7638add8} 
* SOURCE FILE: A040C002_141006_F70H
>>> SOURCE A040C003 A040C003_141006_ 060a2b340101010501010d20-13-00-00-00-{7d87bfe3-2d5d-434d-a68c57970b3d8e2e} 
* SOURCE FILE: A040C003_141006_F70H
>>> SOURCE A040C011 A040C011_141006_ 060a2b340101010501010d20-13-00-00-00-{2104bc9f-4b7d-4066-8940a86ed65adf77} 
* SOURCE FILE: A040C011_141006_F70H
>>> SOURCE A040C012 A040C012_141006_ 060a2b340101010501010d20-13-00-00-00-{226696e0-91cf-468c-bc391a312082e672} 
* SOURCE FILE: A040C012_141006_F70H
>>> SOURCE A040C014 A040C014_141006_ 060a2b340101010501010d20-13-00-00-00-{2137be7b-b9a5-4c9a-9846329cba0e8f03} 
* SOURCE FILE: A040C014_141006_F70H
>>> SOURCE A041C006 A041C006_141006_ 060a2b340101010501010d20-13-00-00-00-{2d3075f9-135d-4153-a8faab629f8cce2d} 
* SOURCE FILE: A041C006_141006_F70H
>>> SOURCE A041C007 A041C007_141006_ 060a2b340101010501010d20-13-00-00-00-{79dc8e35-23c7-4a51-bbe494f272784b09} 
* SOURCE FILE: A041C007_141006_F70H
>>> SOURCE A041C008 A041C008_141006_ 060a2b340101010501010d20-13-00-00-00-{14f7368f-be0d-4179-bfd55e0ae7c8af1b} 
* SOURCE FILE: A041C008_141006_F70H
>>> SOURCE A041C009 A041C009_141006_ 060a2b340101010501010d20-13-00-00-00-{311f11fb-5d76-4ac1-a4fa90df9cba3647} 
* SOURCE FILE: A041C009_141006_F70H
>>> SOURCE A041C010 A041C010_141006_ 060a2b340101010501010d20-13-00-00-00-{902ce00d-6e15-43e3-bea7f08b4871eeb0} 
* SOURCE FILE: A041C010_141006_F70H
>>> SOURCE A041C011 A041C011_141006_ 060a2b340101010501010d20-13-00-00-00-{23c541e2-cc50-4328-9af4d5b87177c24f} 
* SOURCE FILE: A041C011_141006_F70H
>>> SOURCE A042C001 A042C001_141007_ 060a2b340101010501010d20-13-00-00-00-{52b6055b-05f2-4b35-bcd697d7caca2aeb} 
* SOURCE FILE: A042C001_141007_F70H
>>> SOURCE A042C005 A042C005_141007_ 060a2b340101010501010d20-13-00-00-00-{bf8bc7e0-0c58-43b7-9d667cd19749b5f4} 
* SOURCE FILE: A042C005_141007_F70H
>>> SOURCE A042C006 A042C006_141007_ 060a2b340101010501010d20-13-00-00-00-{914f2028-a3bd-4fc6-8701d43c8fd49a8b} 
* SOURCE FILE: A042C006_141007_F70H
>>> SOURCE A042C008 A042C008_141007_ 060a2b340101010501010d20-13-00-00-00-{0802ed6b-0066-4b6b-aba5e99151bb7d8d} 
* SOURCE FILE: A042C008_141007_F70H
>>> SOURCE A042C009 A042C009_141007_ 060a2b340101010501010d20-13-00-00-00-{fa145efc-7eb8-498b-bf1ab7db4f348721} 
* SOURCE FILE: A042C009_141007_F70H
>>> SOURCE A042C016 A042C016_141007_ 060a2b340101010501010d20-13-00-00-00-{d57af402-dcc0-4b75-9eb37980be8423c2} 
* SOURCE FILE: A042C016_141007_F70H
>>> SOURCE A042C019 A042C019_141007_ 060a2b340101010501010d20-13-00-00-00-{943becc6-7bc8-4042-804b95de5a87dd46} 
* SOURCE FILE: A042C019_141007_F70H
>>> SOURCE A042C020 A042C020_141007_ 060a2b340101010501010d20-13-00-00-00-{002ba3a6-ddbf-4d72-92cefdadd78ddb46} 
* SOURCE FILE: A042C020_141007_F70H
>>> SOURCE A042C021 A042C021_141007_ 060a2b340101010501010d20-13-00-00-00-{cce95398-01e5-49a0-97ec7fd1b6fae9d5} 
* SOURCE FILE: A042C021_141007_F70H
>>> SOURCE A042C022 A042C022_141007_ 060a2b340101010501010d20-13-00-00-00-{13b908c2-2341-415a-ab573f0c41876ac4} 
* SOURCE FILE: A042C022_141007_F70H
>>> SOURCE A042NSC0 A042NSC010_14100 060a2b340101010501010d20-13-00-00-00-{47a285fd-9a23-48bb-bef6a6233608e8ee} 
* SOURCE FILE: A042NSC010_141007_F70H
>>> SOURCE A042NSC0 A042NSC012_14100 060a2b340101010501010d20-13-00-00-00-{fbb4ae93-9fdc-4402-b5527eec04ac1c41} 
* SOURCE FILE: A042NSC012_141007_F70H
>>> SOURCE A042NSC0 A042NSC014_14100 060a2b340101010501010d20-13-00-00-00-{68ef52e1-053c-414f-bd0a30955f7ee063} 
* SOURCE FILE: A042NSC014_141007_F70H
>>> SOURCE A042SCC0 A042SCC013_14100 060a2b340101010501010d20-13-00-00-00-{d4b41826-15a1-4ca4-a734e966cdad521c} 
* SOURCE FILE: A042SCC013_141007_F70H
>>> SOURCE A045C001 A045C001_141008_ 060a2b340101010501010d20-13-00-00-00-{e6d3813f-6f00-4fc3-bac02ad47ca86737} 
* SOURCE FILE: A045C001_141008_F70H
>>> SOURCE A045C002 A045C002_141008_ 060a2b340101010501010d20-13-00-00-00-{1c05bbcd-e789-466d-940383f0cc4618a6} 
* SOURCE FILE: A045C002_141008_F70H
>>> SOURCE A045C003 A045C003_141008_ 060a2b340101010501010d20-13-00-00-00-{b2250052-e7d6-49c2-9fed9e8740942cff} 
* SOURCE FILE: A045C003_141008_F70H
>>> SOURCE A045C004 A045C004_141008_ 060a2b340101010501010d20-13-00-00-00-{1039baba-d1c6-4c76-8058ff24d73ecfac} 
* SOURCE FILE: A045C004_141008_F70H
>>> SOURCE A045C006 A045C006_141008_ 060a2b340101010501010d20-13-00-00-00-{2aa5883d-794d-4d61-b5bc17ee2c87352f} 
* SOURCE FILE: A045C006_141008_F70H
>>> SOURCE A045C007 A045C007_141008_ 060a2b340101010501010d20-13-00-00-00-{8b6f442e-baa7-4d4e-abb011fc3fe7a436} 
* SOURCE FILE: A045C007_141008_F70H
>>> SOURCE A048C007 A048C007_141009_ 060a2b340101010501010d20-13-00-00-00-{0e371746-92a4-4221-b575d374691b4b0c} 
* SOURCE FILE: A048C007_141009_F70H
>>> SOURCE A048C009 A048C009_141009_ 060a2b340101010501010d20-13-00-00-00-{768a0270-a3e1-483c-962f6998662552b4} 
* SOURCE FILE: A048C009_141009_F70H
>>> SOURCE A048C010 A048C010_141009_ 060a2b340101010501010d20-13-00-00-00-{88b86090-04a4-4c2d-b4eec46fbae1f1aa} 
* SOURCE FILE: A048C010_141009_F70H
>>> SOURCE A048C012 A048C012_141009_ 060a2b340101010501010d20-13-00-00-00-{845b8c11-41f2-4067-bcbef5315b21f9de} 
* SOURCE FILE: A048C012_141009_F70H
>>> SOURCE A048C013 A048C013_141009_ 060a2b340101010501010d20-13-00-00-00-{b716150a-5c13-444e-8960301c58e1878a} 
* SOURCE FILE: A048C013_141009_F70H
>>> SOURCE A048C014 A048C014_141009_ 060a2b340101010501010d20-13-00-00-00-{ee0fe535-9574-4eb1-9c7c021cd44e934c} 
* SOURCE FILE: A048C014_141009_F70H
>>> SOURCE A048C015 A048C015_141009_ 060a2b340101010501010d20-13-00-00-00-{4957c55e-fb5d-47ee-852f62ff73527200} 
* SOURCE FILE: A048C015_141009_F70H
>>> SOURCE A048C016 A048C016_141009_ 060a2b340101010501010d20-13-00-00-00-{bafd5536-dea4-4b56-b51ab6650bee3657} 
* SOURCE FILE: A048C016_141009_F70H
>>> SOURCE A048C018 A048C018_141009_ 060a2b340101010501010d20-13-00-00-00-{2eba3441-1869-4517-a81604d6b4bd5b34} 
* SOURCE FILE: A048C018_141009_F70H
>>> SOURCE A049C001 A049C001_141009_ 060a2b340101010501010d20-13-00-00-00-{c6e729c9-c33d-4520-95661622a53b765a} 
* SOURCE FILE: A049C001_141009_F70H
>>> SOURCE A049C002 A049C002_141009_ 060a2b340101010501010d20-13-00-00-00-{9afaa837-8c16-4818-b098bdb7fc8ded1d} 
* SOURCE FILE: A049C002_141009_F70H
>>> SOURCE A049C003 A049C003_141009_ 060a2b340101010501010d20-13-00-00-00-{510c6182-f4e3-4be8-af7d5bcf7b5f924c} 
* SOURCE FILE: A049C003_141009_F70H
>>> SOURCE A049C004 A049C004_141009_ 060a2b340101010501010d20-13-00-00-00-{99db73c5-d304-4f94-a172c47e4d0092ae} 
* SOURCE FILE: A049C004_141009_F70H
>>> SOURCE A049C005 A049C005_141009_ 060a2b340101010501010d20-13-00-00-00-{d78660a0-bd25-4571-bae1ec055811168d} 
* SOURCE FILE: A049C005_141009_F70H
>>> SOURCE A049C006 A049C006_141009_ 060a2b340101010501010d20-13-00-00-00-{3cbcd2c8-fe45-478d-addaae961907b7d5} 
* SOURCE FILE: A049C006_141009_F70H
>>> SOURCE A049C007 A049C007_141009_ 060a2b340101010501010d20-13-00-00-00-{62951889-9a18-4624-9f6d559c172fe5e1} 
* SOURCE FILE: A049C007_141009_F70H
>>> SOURCE BLACK.NE BLACK.NEW.01 060a2b340101010501010f10-13-00-00-00-{2419ae18-8800-9805-7baf003ee1b75ccd} 
* SOURCE FILE: BLACK.NEW.01
>>> SOURCE B001C004 B001C004_140309_ 060a2b340101010501010d43-13-a1-00-00-{1d214f20-2667-05df-00804582f8000000} 
* SOURCE FILE: B001C004_140309_C603
>>> SOURCE B001C005 B001C005_140309_ 060a2b340101010501010d43-13-a1-00-00-{c4dfe622-2667-05fa-00804582f8000000} 
* SOURCE FILE: B001C005_140309_C603
>>> SOURCE B001C006 B001C006_140309_ 060a2b340101010501010d43-13-a1-00-00-{9ae75824-2667-05c4-00804582f8000000} 
* SOURCE FILE: B001C006_140309_C603
>>> SOURCE B001C008 B001C008_140309_ 060a2b340101010501010d43-13-a1-00-00-{1264fa26-2667-05f6-00804582f8000000} 
* SOURCE FILE: B001C008_140309_C603
>>> SOURCE B001C009 B001C009_140309_ 060a2b340101010501010d43-13-a1-00-00-{2028302b-2667-05c6-00804582f8000000} 
* SOURCE FILE: B001C009_140309_C603
>>> SOURCE B001C012 B001C012_140309_ 060a2b340101010501010d43-13-a1-00-00-{cf42e12f-2667-05c9-00804582f8000000} 
* SOURCE FILE: B001C012_140309_C603
>>> SOURCE B001C013 B001C013_140309_ 060a2b340101010501010d43-13-a1-00-00-{42cfe430-2667-05da-00804582f8000000} 
* SOURCE FILE: B001C013_140309_C603
>>> SOURCE B001C014 B001C014_140309_ 060a2b340101010501010d43-13-a1-00-00-{a4ad9e32-2667-05d3-00804582f8000000} 
* SOURCE FILE: B001C014_140309_C603
>>> SOURCE B002C010 B002C010_140310_ 060a2b340101010501010643-13-a1-00-00-{8298c886-2667-05dd-00804582f8000000} 
* SOURCE FILE: B002C010_140310_C603
>>> SOURCE B002C014 B002C014_140310_ 060a2b340101010501010643-13-a1-00-00-{cab12d8e-2667-05ec-00804582f8000000} 
* SOURCE FILE: B002C014_140310_C603
>>> SOURCE B002C017 B002C017_140310_ 060a2b340101010501010643-13-a1-00-00-{8fd02692-2667-05d8-00804582f8000000} 
* SOURCE FILE: B002C017_140310_C603
>>> SOURCE B002C019 B002C019_140310_ 060a2b340101010501010643-13-a1-00-00-{c1297c95-2667-05d8-00804582f8000000} 
* SOURCE FILE: B002C019_140310_C603
>>> SOURCE B004C005 B004C005_140310_ 060a2b340101010501010d43-13-a1-00-00-{b7a30b40-2767-05f3-00804582f8000000} 
* SOURCE FILE: B004C005_140310_C603
>>> SOURCE B004C008 B004C008_140310_ 060a2b340101010501010d43-13-a1-00-00-{4bf47f44-2767-05f7-00804582f8000000} 
* SOURCE FILE: B004C008_140310_C603
>>> SOURCE B004C015 B004C015_140311_ 060a2b340101010501010d43-13-a1-00-00-{74b49f5e-2767-05c2-00804582f8000000} 
* SOURCE FILE: B004C015_140311_C603
>>> SOURCE B004C016 B004C016_140311_ 060a2b340101010501010d43-13-a1-00-00-{187b1661-2767-05f5-00804582f8000000} 
* SOURCE FILE: B004C016_140311_C603
>>> SOURCE B004C017 B004C017_140311_ 060a2b340101010501010d43-13-a1-00-00-{d8f90464-2767-05ff-00804582f8000000} 
* SOURCE FILE: B004C017_140311_C603
>>> SOURCE B007C002 B007C002_140311_ 060a2b340101010501010d43-13-a1-00-00-{77130d34-2867-05cf-00804582f8000000} 
* SOURCE FILE: B007C002_140311_C603
>>> SOURCE B007C004 B007C004_140311_ 060a2b340101010501010d43-13-a1-00-00-{cec13738-2867-05e9-00804582f8000000} 
* SOURCE FILE: B007C004_140311_C603
>>> SOURCE B007C005 B007C005_140311_ 060a2b340101010501010d43-13-a1-00-00-{c850e83d-2867-05c3-00804582f8000000} 
* SOURCE FILE: B007C005_140311_C603
>>> SOURCE B007C006 B007C006_140311_ 060a2b340101010501010d43-13-a1-00-00-{f861ed41-2867-05d1-00804582f8000000} 
* SOURCE FILE: B007C006_140311_C603
>>> SOURCE B007C007 B007C007_140311_ 060a2b340101010501010d43-13-a1-00-00-{ded3de42-2867-05cf-00804582f8000000} 
* SOURCE FILE: B007C007_140311_C603
>>> SOURCE B007C008 B007C008_140311_ 060a2b340101010501010d43-13-a1-00-00-{7faef846-2867-05dc-00804582f8000000} 
* SOURCE FILE: B007C008_140311_C603
>>> SOURCE B008C002 B008C002_140312_ 060a2b340101010501010d43-13-a1-00-00-{4093607c-2867-05c8-00804582f8000000} 
* SOURCE FILE: B008C002_140312_C603
>>> SOURCE B008C003 B008C003_140312_ 060a2b340101010501010d43-13-a1-00-00-{4881f07c-2867-05e1-00804582f8000000} 
* SOURCE FILE: B008C003_140312_C603
>>> SOURCE B008C004 B008C004_140312_ 060a2b340101010501010d43-13-a1-00-00-{9ee54b7d-2867-05f3-00804582f8000000} 
* SOURCE FILE: B008C004_140312_C603
>>> SOURCE B008C006 B008C006_140312_ 060a2b340101010501010643-13-a1-00-00-{e63d398c-2867-05e7-00804582f8000000} 
* SOURCE FILE: B008C006_140312_C603
>>> SOURCE B008C011 B008C011_140312_ 060a2b340101010501010643-13-a1-00-00-{da85c8a6-2867-05fc-00804582f8000000} 
* SOURCE FILE: B008C011_140312_C603
>>> SOURCE B009C001 B009C001_140313_ 060a2b340101010501010d43-13-a1-00-00-{a1dcca50-2967-05cb-00804582f8000000} 
* SOURCE FILE: B009C001_140313_C603
>>> SOURCE B009C002 B009C002_140313_ 060a2b340101010501010d43-13-a1-00-00-{8bda2452-2967-05e5-00804582f8000000} 
* SOURCE FILE: B009C002_140313_C603
>>> SOURCE B010C003 B010C003_140313_ 060a2b340101010501010d43-13-a1-00-00-{dbbde88b-2967-05fe-00804582f8000000} 
* SOURCE FILE: B010C003_140313_C603
>>> SOURCE B010C004 B010C004_140313_ 060a2b340101010501010d43-13-a1-00-00-{ac08228d-2967-05fe-00804582f8000000} 
* SOURCE FILE: B010C004_140313_C603
>>> SOURCE B010C006 B010C006_140313_ 060a2b340101010501010d43-13-a1-00-00-{e2198a91-2967-05f9-00804582f8000000} 
* SOURCE FILE: B010C006_140313_C603
>>> SOURCE B010C007 B010C007_140313_ 060a2b340101010501010d43-13-a1-00-00-{0bc83397-2967-05c1-00804582f8000000} 
* SOURCE FILE: B010C007_140313_C603
>>> SOURCE B012C002 B012C002_200918_ 060a2b340101010501010d20-13-00-00-00-{91a781f4-5875-4e25-9562aef69f141bdd} 
* SOURCE FILE: B012C002_200918_G90D
>>> SOURCE B012C006 B012C006_200918_ 060a2b340101010501010d20-13-00-00-00-{6240dc53-9cd2-4606-bd7d55e71557d82a} 
* SOURCE FILE: B012C006_200918_G90D
>>> SOURCE B012C009 B012C009_200918_ 060a2b340101010501010d20-13-00-00-00-{8865cbb1-cad4-4664-960f9f9f69066edb} 
* SOURCE FILE: B012C009_200918_G90D
>>> SOURCE B012C011 B012C011_200918_ 060a2b340101010501010d20-13-00-00-00-{9f64f6b4-f126-4eba-ba4b640ecaaa1e72} 
* SOURCE FILE: B012C011_200918_G90D
>>> SOURCE B012C012 B012C012_200918_ 060a2b340101010501010d20-13-00-00-00-{2f537931-5a2e-457b-8e64d7ea1706f56a} 
* SOURCE FILE: B012C012_200918_G90D
>>> SOURCE B012C015 B012C015_200918_ 060a2b340101010501010d20-13-00-00-00-{ebbd188b-401c-4414-9f4492ede6f07890} 
* SOURCE FILE: B012C015_200918_G90D
>>> SOURCE B012C019 B012C019_200918_ 060a2b340101010501010d20-13-00-00-00-{1f8f2dce-edff-4162-a7e18a056737c694} 
* SOURCE FILE: B012C019_200918_G90D
>>> SOURCE B012SCC0 B012SCC023_20091 060a2b340101010501010d20-13-00-00-00-{85942285-c318-4184-9fd32d8880cf5f46} 
* SOURCE FILE: B012SCC023_200918_G90D
>>> SOURCE B013C001 B013C001_200918_ 060a2b340101010501010d20-13-00-00-00-{887057db-2d4f-450d-be5ed04e51fe98f7} 
* SOURCE FILE: B013C001_200918_G90D
>>> SOURCE B015C002 B015C002_200921_ 060a2b340101010501010d20-13-00-00-00-{941f8eeb-fb0b-462f-abbd3affe4d399ba} 
* SOURCE FILE: B015C002_200921_G90D
>>> SOURCE B015C003 B015C003_200921_ 060a2b340101010501010d20-13-00-00-00-{7340a447-29ea-4000-a405295526940a8c} 
* SOURCE FILE: B015C003_200921_G90D
>>> SOURCE B016C001 B016C001_200921_ 060a2b340101010501010d20-13-00-00-00-{115e7136-ebdd-4a33-ab8bcd0ee0330199} 
* SOURCE FILE: B016C001_200921_G90D
>>> SOURCE B016C002 B016C002_200921_ 060a2b340101010501010d20-13-00-00-00-{9112f5bd-8841-43cd-91845febf6b295f6} 
* SOURCE FILE: B016C002_200921_G90D
>>> SOURCE B016C003 B016C003_200921_ 060a2b340101010501010d20-13-00-00-00-{fd76e887-8e52-413f-b2a2873a23c7c7b6} 
* SOURCE FILE: B016C003_200921_G90D
>>> SOURCE B019C002 B019C002_200923_ 060a2b340101010501010d20-13-00-00-00-{1ee32a61-c59c-4e32-acfcade4a2d90be8} 
* SOURCE FILE: B019C002_200923_G90D
>>> SOURCE B019C004 B019C004_200923_ 060a2b340101010501010d20-13-00-00-00-{6dbb2d9e-f020-43fd-9fb88d9564b0a870} 
* SOURCE FILE: B019C004_200923_G90D
>>> SOURCE B019C005 B019C005_200923_ 060a2b340101010501010d20-13-00-00-00-{b5f8979a-0601-41e4-94583f68a41d8acc} 
* SOURCE FILE: B019C005_200923_G90D
>>> SOURCE B019C007 B019C007_200923_ 060a2b340101010501010d20-13-00-00-00-{e85845bb-5b85-4b37-abb36ba240bc8bc4} 
* SOURCE FILE: B019C007_200923_G90D
>>> SOURCE B019C008 B019C008_200923_ 060a2b340101010501010d20-13-00-00-00-{64680640-a5a1-495f-b506790381885c24} 
* SOURCE FILE: B019C008_200923_G90D
>>> SOURCE B019C009 B019C009_200923_ 060a2b340101010501010d20-13-00-00-00-{aecd5803-55c3-471f-857de00b14aba0da} 
* SOURCE FILE: B019C009_200923_G90D
>>> SOURCE B019C013 B019C013_200923_ 060a2b340101010501010d20-13-00-00-00-{4a1037ff-387b-4899-96d0d2d1fa30366e} 
* SOURCE FILE: B019C013_200923_G90D
>>> SOURCE B019C022 B019C022_200923_ 060a2b340101010501010d20-13-00-00-00-{14f57cd2-4bfd-48d9-9dffcaf4e6d0712e} 
* SOURCE FILE: B019C022_200923_G90D
>>> SOURCE B019C023 B019C023_200923_ 060a2b340101010501010d20-13-00-00-00-{423f6955-f124-4113-ac3c4c3383c18f16} 
* SOURCE FILE: B019C023_200923_G90D
>>> SOURCE B019NSC0 B019NSC012_20092 060a2b340101010501010d20-13-00-00-00-{ac901dd0-20d9-4f4d-b9f6e0beb82c7251} 
* SOURCE FILE: B019NSC012_200923_G90D
>>> SOURCE B019NSC0 B019NSC016_20092 060a2b340101010501010d20-13-00-00-00-{1bc895f3-9cdf-484f-bd088e964bb97a87} 
* SOURCE FILE: B019NSC016_200923_G90D
>>> SOURCE B019SCC0 B019SCC016_20092 060a2b340101010501010d20-13-00-00-00-{93f9361b-00b3-410c-bbe2bcf949d18a5d} 
* SOURCE FILE: B019SCC016_200923_G90D
>>> SOURCE B020C003 B020C003_200923_ 060a2b340101010501010d20-13-00-00-00-{bee8ee26-9455-4e32-9300cf0ca1833da1} 
* SOURCE FILE: B020C003_200923_G90D
>>> SOURCE B020C005 B020C005_200923_ 060a2b340101010501010d20-13-00-00-00-{3d6d0355-d2af-4f37-937379dc3c5f9407} 
* SOURCE FILE: B020C005_200923_G90D
>>> SOURCE B020C007 B020C007_200923_ 060a2b340101010501010d20-13-00-00-00-{3fdb5b0c-7457-464b-aa3ef10b6d1c35c1} 
* SOURCE FILE: B020C007_200923_G90D
>>> SOURCE B020C009 B020C009_200923_ 060a2b340101010501010d20-13-00-00-00-{6ba274ad-2c1e-4a3d-858309a252918a13} 
* SOURCE FILE: B020C009_200923_G90D
>>> SOURCE B022C004 B022C004_200924_ 060a2b340101010501010d20-13-00-00-00-{8f128f04-8f5c-412d-ab3663a664add3bd} 
* SOURCE FILE: B022C004_200924_G90D
>>> SOURCE B022C018 B022C018_200924_ 060a2b340101010501010d20-13-00-00-00-{7d8691d9-d4da-4c26-8e46db0ba33b6605} 
* SOURCE FILE: B022C018_200924_G90D
>>> SOURCE B022C019 B022C019_200924_ 060a2b340101010501010d20-13-00-00-00-{7b75b14e-e44f-43b7-8d712ef7ccb2718b} 
* SOURCE FILE: B022C019_200924_G90D
>>> SOURCE B022C021 B022C021_200924_ 060a2b340101010501010d20-13-00-00-00-{d75f404e-0864-45fe-833d67ee25d2b2bc} 
* SOURCE FILE: B022C021_200924_G90D
>>> SOURCE B022C024 B022C024_200924_ 060a2b340101010501010d20-13-00-00-00-{6dda08e6-650a-42a2-8befa2a5ce7a0cff} 
* SOURCE FILE: B022C024_200924_G90D
>>> SOURCE B022C026 B022C026_200924_ 060a2b340101010501010d20-13-00-00-00-{16a63ac5-58e9-48ad-a126a66dca2ef8b5} 
* SOURCE FILE: B022C026_200924_G90D
>>> SOURCE B022C027 B022C027_200924_ 060a2b340101010501010d20-13-00-00-00-{39e91f12-ab93-4965-b24961eecae2a03b} 
* SOURCE FILE: B022C027_200924_G90D
>>> SOURCE B022C028 B022C028_200924_ 060a2b340101010501010d20-13-00-00-00-{cdd50238-b35f-49f2-834dec68107fb694} 
* SOURCE FILE: B022C028_200924_G90D
>>> SOURCE B022C029 B022C029_200924_ 060a2b340101010501010d20-13-00-00-00-{21480073-75b4-44fc-8da82335e22024ea} 
* SOURCE FILE: B022C029_200924_G90D
>>> SOURCE B022C030 B022C030_200924_ 060a2b340101010501010d20-13-00-00-00-{54beeb37-2482-4187-840ee90556013e50} 
* SOURCE FILE: B022C030_200924_G90D
>>> SOURCE B022C031 B022C031_200924_ 060a2b340101010501010d20-13-00-00-00-{f055bb72-efc6-4ee6-988abd2152ce704f} 
* SOURCE FILE: B022C031_200924_G90D
>>> SOURCE B022C032 B022C032_200924_ 060a2b340101010501010d20-13-00-00-00-{082ae058-7954-45c3-8073a724eba1ffd0} 
* SOURCE FILE: B022C032_200924_G90D
>>> SOURCE B022C035 B022C035_200924_ 060a2b340101010501010d20-13-00-00-00-{aee479f8-1cb1-4e37-8ce597d7f88d5175} 
* SOURCE FILE: B022C035_200924_G90D
>>> SOURCE B022NSC0 B022NSC015_20092 060a2b340101010501010d20-13-00-00-00-{c891dca7-a8ac-4c3d-a04df801dccccea3} 
* SOURCE FILE: B022NSC015_200924_G90D
>>> SOURCE B022NSC0 B022NSC033_20092 060a2b340101010501010d20-13-00-00-00-{5bd003a6-be4b-46d2-b51cae4c36e72f2f} 
* SOURCE FILE: B022NSC033_200924_G90D
>>> SOURCE B023C008 B023C008_200924_ 060a2b340101010501010d20-13-00-00-00-{6c340843-fad7-4092-a3262ceadb1c353c} 
* SOURCE FILE: B023C008_200924_G90D
>>> SOURCE B023C009 B023C009_200924_ 060a2b340101010501010d20-13-00-00-00-{0fdd62f0-80c5-4e5f-8a603066b214ec10} 
* SOURCE FILE: B023C009_200924_G90D
>>> SOURCE B023NSC0 B023NSC002_20092 060a2b340101010501010d20-13-00-00-00-{cde9c1d0-3813-443b-b57052d83cb825f9} 
* SOURCE FILE: B023NSC002_200924_G90D
>>> SOURCE B023NSC0 B023NSC004_20092 060a2b340101010501010d20-13-00-00-00-{76103fd6-8d90-420e-81bb36fa976de06a} 
* SOURCE FILE: B023NSC004_200924_G90D
>>> SOURCE B023SCC0 B023SCC004_20092 060a2b340101010501010d20-13-00-00-00-{f8d4e75e-3ee1-4a0c-ab332f7a96ba5b2f} 
* SOURCE FILE: B023SCC004_200924_G90D
>>> SOURCE B035C012 B035C012_201002_ 060a2b340101010501010d20-13-00-00-00-{2a215b23-fd94-439b-a8b7a1da2cc63f93} 
* SOURCE FILE: B035C012_201002_G90D
>>> SOURCE B035C015 B035C015_201002_ 060a2b340101010501010d20-13-00-00-00-{ef3c6807-5854-485e-b9cfd28a302518e3} 
* SOURCE FILE: B035C015_201002_G90D
>>> SOURCE B035C016 B035C016_201002_ 060a2b340101010501010d20-13-00-00-00-{2d5d8b4b-73bc-4c52-a0b27fd1ef7b819b} 
* SOURCE FILE: B035C016_201002_G90D
>>> SOURCE B035C018 B035C018_201002_ 060a2b340101010501010d20-13-00-00-00-{04ee26fa-9147-455b-87044cd8584ba6f6} 
* SOURCE FILE: B035C018_201002_G90D
>>> SOURCE B035C019 B035C019_201002_ 060a2b340101010501010d20-13-00-00-00-{b2672213-e170-4a2c-881e5e5ea0267065} 
* SOURCE FILE: B035C019_201002_G90D
>>> SOURCE B035C022 B035C022_201002_ 060a2b340101010501010d20-13-00-00-00-{6a426a78-a366-4391-b4ba72f209598b75} 
* SOURCE FILE: B035C022_201002_G90D
>>> SOURCE B036C002 B036C002_201002_ 060a2b340101010501010d20-13-00-00-00-{af124689-e2ba-4add-aed108819d99277c} 
* SOURCE FILE: B036C002_201002_G90D
>>> SOURCE B036C006 B036C006_201002_ 060a2b340101010501010d20-13-00-00-00-{261b955c-c45e-4c4d-94ca929aa131bd15} 
* SOURCE FILE: B036C006_201002_G90D
>>> SOURCE B036C008 B036C008_201002_ 060a2b340101010501010d20-13-00-00-00-{29d3a579-5b27-472e-82ba882428d75f6e} 
* SOURCE FILE: B036C008_201002_G90D
>>> SOURCE B036C010 B036C010_201002_ 060a2b340101010501010d20-13-00-00-00-{957d502c-dc64-4573-8c815fc27f3c4279} 
* SOURCE FILE: B036C010_201002_G90D
>>> SOURCE B037C001 B037C001_201005_ 060a2b340101010501010d20-13-00-00-00-{469c4e72-0ba0-415e-8b521742de523685} 
* SOURCE FILE: B037C001_201005_G90D
>>> SOURCE B037C002 B037C002_201005_ 060a2b340101010501010d20-13-00-00-00-{f2566aae-04b2-4149-92bfa7dea41f1e0e} 
* SOURCE FILE: B037C002_201005_G90D
>>> SOURCE B037C003 B037C003_201005_ 060a2b340101010501010d20-13-00-00-00-{f4f8f83f-d269-4799-9b6e851692dcd280} 
* SOURCE FILE: B037C003_201005_G90D
>>> SOURCE B037C004 B037C004_201005_ 060a2b340101010501010d20-13-00-00-00-{ee90b170-8325-41b0-8247e03c5344a698} 
* SOURCE FILE: B037C004_201005_G90D
>>> SOURCE B037C005 B037C005_201005_ 060a2b340101010501010d20-13-00-00-00-{64af5d8c-b693-46c1-8f80ea308262c1bc} 
* SOURCE FILE: B037C005_201005_G90D
>>> SOURCE B037C007 B037C007_201005_ 060a2b340101010501010d20-13-00-00-00-{00c1127a-661e-461f-9d27e986c2f7b9dd} 
* SOURCE FILE: B037C007_201005_G90D
>>> SOURCE B037C009 B037C009_201005_ 060a2b340101010501010d20-13-00-00-00-{3fc9cefd-3bf9-466f-a588ff22e9123eb9} 
* SOURCE FILE: B037C009_201005_G90D
>>> SOURCE B037C011 B037C011_201005_ 060a2b340101010501010d20-13-00-00-00-{88f59b5c-446a-4679-97c87ef83ff196a8} 
* SOURCE FILE: B037C011_201005_G90D
>>> SOURCE B038C002 B038C002_201005_ 060a2b340101010501010d20-13-00-00-00-{1c1226e4-3c56-4b5b-bd447602a8118552} 
* SOURCE FILE: B038C002_201005_G90D
>>> SOURCE B039C004 B039C004_201006_ 060a2b340101010501010d20-13-00-00-00-{a2f1cdca-48d8-4b9e-978006549ee57211} 
* SOURCE FILE: B039C004_201006_G90D
>>> SOURCE B039C009 B039C009_201006_ 060a2b340101010501010d20-13-00-00-00-{0704bf29-f807-4501-b0885d883ca2785a} 
* SOURCE FILE: B039C009_201006_G90D
>>> SOURCE B039C015 B039C015_201006_ 060a2b340101010501010d20-13-00-00-00-{3a51b82e-550d-4f91-aaa537a87b617fcb} 
* SOURCE FILE: B039C015_201006_G90D
>>> SOURCE B039C016 B039C016_201006_ 060a2b340101010501010d20-13-00-00-00-{cc7c348f-cde1-4ccc-b3ace5a96ba622e1} 
* SOURCE FILE: B039C016_201006_G90D
>>> SOURCE B039NSC0 B039NSC013_20100 060a2b340101010501010d20-13-00-00-00-{97e693d5-591b-4d03-850a996ab055e886} 
* SOURCE FILE: B039NSC013_201006_G90D
>>> SOURCE B039SCC0 B039SCC013_20100 060a2b340101010501010d20-13-00-00-00-{3caa8eba-bf26-4f52-abd4adc998a8a87d} 
* SOURCE FILE: B039SCC013_201006_G90D
>>> SOURCE B042C001 B042C001_201007_ 060a2b340101010501010d20-13-00-00-00-{e5536995-0811-47d3-be3f73d37571d9e9} 
* SOURCE FILE: B042C001_201007_G90D
>>> SOURCE B042C002 B042C002_201007_ 060a2b340101010501010d20-13-00-00-00-{963c404c-2795-43e1-a2a536a902f7b6c0} 
* SOURCE FILE: B042C002_201007_G90D
>>> SOURCE B042C003 B042C003_201007_ 060a2b340101010501010d20-13-00-00-00-{f2010bef-214c-4a1f-b0bb339ddffc234b} 
* SOURCE FILE: B042C003_201007_G90D
>>> SOURCE B042C004 B042C004_201007_ 060a2b340101010501010d20-13-00-00-00-{b2cb9a99-45d0-4825-971c87b310725796} 
* SOURCE FILE: B042C004_201007_G90D
>>> SOURCE B045C003 B045C003_201008_ 060a2b340101010501010d20-13-00-00-00-{46f502af-9e25-40a2-9f1ab66698617ce2} 
* SOURCE FILE: B045C003_201008_G90D
>>> SOURCE B045C006 B045C006_201008_ 060a2b340101010501010d20-13-00-00-00-{6b8c4352-f8a5-47cf-88d873476f5a5f26} 
* SOURCE FILE: B045C006_201008_G90D
>>> SOURCE B045C007 B045C007_201008_ 060a2b340101010501010d20-13-00-00-00-{f34cb116-4f08-42fa-b848c379a4dc1c14} 
* SOURCE FILE: B045C007_201008_G90D
>>> SOURCE B045C010 B045C010_201008_ 060a2b340101010501010d20-13-00-00-00-{204b955f-9741-407d-998f84d1798e0d50} 
* SOURCE FILE: B045C010_201008_G90D
>>> SOURCE B045C011 B045C011_201008_ 060a2b340101010501010d20-13-00-00-00-{4adafaa1-84d9-49a2-96954a7c0e904c05} 
* SOURCE FILE: B045C011_201008_G90D
>>> SOURCE B045C013 B045C013_201008_ 060a2b340101010501010d20-13-00-00-00-{178a17f3-7771-4423-b93ca4058750c948} 
* SOURCE FILE: B045C013_201008_G90D
>>> SOURCE B045C014 B045C014_201008_ 060a2b340101010501010d20-13-00-00-00-{155e0f9f-2c4b-41cf-a265a2a52d0000b7} 
* SOURCE FILE: B045C014_201008_G90D
>>> SOURCE B045C015 B045C015_201008_ 060a2b340101010501010d20-13-00-00-00-{192e3a9b-ec8e-4924-8eceba7d5cfb6247} 
* SOURCE FILE: B045C015_201008_G90D
>>> SOURCE B045C017 B045C017_201008_ 060a2b340101010501010d20-13-00-00-00-{14feba64-2d41-4bd3-a443814c4885cd75} 
* SOURCE FILE: B045C017_201008_G90D
>>> SOURCE B045C018 B045C018_201008_ 060a2b340101010501010d20-13-00-00-00-{cb39fc98-8a92-4a72-b93a826f20164b91} 
* SOURCE FILE: B045C018_201008_G90D
>>> SOURCE B045C019 B045C019_201008_ 060a2b340101010501010d20-13-00-00-00-{5bb41435-18e3-428e-b7e69f26248f0ce7} 
* SOURCE FILE: B045C019_201008_G90D
>>> SOURCE B046C002 B046C002_201008_ 060a2b340101010501010d20-13-00-00-00-{797c2682-000c-4937-81a47bee72299450} 
* SOURCE FILE: B046C002_201008_G90D
>>> SOURCE B046C003 B046C003_201008_ 060a2b340101010501010d20-13-00-00-00-{d266e359-60ec-4bd2-9ecd9357ce931f7f} 
* SOURCE FILE: B046C003_201008_G90D
>>> SOURCE B046C004 B046C004_201008_ 060a2b340101010501010d20-13-00-00-00-{23f17f88-0787-46ca-97378da603a98aed} 
* SOURCE FILE: B046C004_201008_G90D
>>> SOURCE B046C006 B046C006_201008_ 060a2b340101010501010d20-13-00-00-00-{eb39a7b9-663f-47f0-be60e108723cbfa8} 
* SOURCE FILE: B046C006_201008_G90D
>>> SOURCE B046C007 B046C007_201008_ 060a2b340101010501010d20-13-00-00-00-{8739a7ba-4de0-4912-a538b35acd001218} 
* SOURCE FILE: B046C007_201008_G90D
>>> SOURCE C004C003 C004C003_200313_ 060a2b340101010501010d20-13-00-00-00-{540f5bc8-8c56-43a9-8ce4eca10690e924} 
* SOURCE FILE: C004C003_200313_G902
>>> SOURCE C005C008 C005C008_200923_ 060a2b340101010501010d20-13-00-00-00-{d89833e9-a7a0-4942-97673ace89d6a6b4} 
* SOURCE FILE: C005C008_200923_G902
>>> SOURCE C005C009 C005C009_200923_ 060a2b340101010501010d20-13-00-00-00-{c4fe4133-a7e5-4503-ac2d8a6368c62f48} 
* SOURCE FILE: C005C009_200923_G902
>>> SOURCE C005C010 C005C010_200923_ 060a2b340101010501010d20-13-00-00-00-{73d63430-e284-41f8-b890b7ad97b14132} 
* SOURCE FILE: C005C010_200923_G902
>>> SOURCE C005C012 C005C012_200923_ 060a2b340101010501010d20-13-00-00-00-{7d0b2ca9-b0ff-4794-a262e5118820d092} 
* SOURCE FILE: C005C012_200923_G902
>>> SOURCE C005C017 C005C017_200923_ 060a2b340101010501010d20-13-00-00-00-{072e0f46-d632-4f1d-9656c4c4e2868859} 
* SOURCE FILE: C005C017_200923_G902
>>> SOURCE C005C018 C005C018_200923_ 060a2b340101010501010d20-13-00-00-00-{0b450e05-7157-4ca3-9b22707849abef06} 
* SOURCE FILE: C005C018_200923_G902
>>> SOURCE C005C020 C005C020_200923_ 060a2b340101010501010d20-13-00-00-00-{0045e99d-832d-4b51-9dfeb9da5926d5ad} 
* SOURCE FILE: C005C020_200923_G902
>>> SOURCE C005C021 C005C021_200923_ 060a2b340101010501010d20-13-00-00-00-{3ff529ea-eb0d-4296-b34de18c4ad162df} 
* SOURCE FILE: C005C021_200923_G902
>>> SOURCE C005C022 C005C022_200923_ 060a2b340101010501010d20-13-00-00-00-{d62b6b0f-bdc8-45d2-8097594c1ab6123b} 
* SOURCE FILE: C005C022_200923_G902
>>> SOURCE C005NSC0 C005NSC016_20092 060a2b340101010501010d20-13-00-00-00-{bcebb7a0-fbe0-4191-889ec4654b2af7e8} 
* SOURCE FILE: C005NSC016_200923_G902
>>> SOURCE C005SCC0 C005SCC016_20092 060a2b340101010501010d20-13-00-00-00-{e2a6de0e-4afa-426d-b3e3e4bddf41ee88} 
* SOURCE FILE: C005SCC016_200923_G902
>>> SOURCE C006NSC0 C006NSC001_20092 060a2b340101010501010d20-13-00-00-00-{edb0e80d-a272-4a4c-bd74bea024358619} 
* SOURCE FILE: C006NSC001_200924_G902
>>> SOURCE C010C002 C010C002_201007_ 060a2b340101010501010d20-13-00-00-00-{7994c4a4-eb0a-414f-b07f8da22fe0978f} 
* SOURCE FILE: C010C002_201007_G902
>>> SOURCE F001_C05 F001_C050_201806 060a2b340101010101010f00-13-a1-00-00-{d8c42c21-5b2a-984a-8632467ddfb3ce47} 
* SOURCE FILE: F001_C050_20180625_P00001
>>> SOURCE GT-ALPHA GT-ALPHA.PNG 060a2b340101010101010f00-13-00-00-00-{5b5b7666-877b-003e-060e2b347f7f2a80} 
* SOURCE FILE: GT-ALPHA.PNG
>>> SOURCE GT_MAIN_ GT_MAIN_TITLES_S 060a2b340101010501010f10-13-00-00-00-{48215ac9-9162-9805-04c3003ee1bef9dc} 
* SOURCE FILE: GT_MAIN_TITLES_S3_ PPBBJJ RIGHT TIMING 4K WITH BEAU FACES.MOV
>>> SOURCE IMG_0158 IMG_0158-H264_4K 060a2b340101010501010f10-13-00-00-00-{f60fcd20-9165-9805-37fd003ee1bef9dc} 
* SOURCE FILE: IMG_0158-H264_4K_24FPS.MP4
>>> SOURCE IMG_0160 IMG_0160-H264_4K 060a2b340101010501010f10-13-00-00-00-{14ca306e-9129-9905-ea1b003ee1bef9dc} 
* SOURCE FILE: IMG_0160-H264_4K_24FPS.MP4
>>> SOURCE IMG_0164 IMG_0164-H264_4K 060a2b340101010501010f10-13-00-00-00-{0855a6e3-9130-9905-323d003ee1bef9dc} 
* SOURCE FILE: IMG_0164-H264_4K_24FPS.MP4
>>> SOURCE IMG_0168 IMG_0168-H264_4K 060a2b340101010501010f10-13-00-00-00-{09f7b38f-9130-9905-71e1003ee1bef9dc} 
* SOURCE FILE: IMG_0168-H264_4K_24FPS.MP4
>>> SOURCE IMG_0288 IMG_0288-H264_4K 060a2b340101010501010f10-13-00-00-00-{036b4443-9129-9905-5db2003ee1bef9dc} 
* SOURCE FILE: IMG_0288-H264_4K_24FPS.MP4
>>> SOURCE PREVIOUS PREVIOUSLY_ON.JP 060a2b340101010501010f10-13-00-00-00-{595d8208-8592-9905-6318003ee1b75ccd} 
* SOURCE FILE: PREVIOUSLY ON.JPG
>>> SOURCE P00D8874 P00D8874 060a2b340101010001010f00-13-00-00-00-{c4523055-4eff-0026-950f81e1f718e1b5} 
* SOURCE FILE: P00D8874
>>> SOURCE P00D8875 P00D8875 060a2b340101010001010f00-13-00-00-00-{aec48695-ac2b-f2ec-2d5be9f465f9cc10} 
* SOURCE FILE: P00D8875
>>> SOURCE P00D8876 P00D8876 060a2b340101010001010f00-13-00-00-00-{85ad7a68-c440-7e1c-7c6e7704c440c948} 
* SOURCE FILE: P00D8876
>>> SOURCE P00D8877 P00D8877 060a2b340101010001010f00-13-00-00-00-{a2469353-301a-8ea0-34f4a36efa99b80c} 
* SOURCE FILE: P00D8877
>>> SOURCE P00D8878 P00D8878 060a2b340101010001010f00-13-00-00-00-{4cebe07f-a7a6-9b72-2b1281f3d05430bf} 
* SOURCE FILE: P00D8878
>>> SOURCE SMPTE_BA SMPTE_BARS.TIF 060a2b340101010101010f00-13-00-00-00-{517ac567-4365-0024-060e2b347f7f2a80} 
* SOURCE FILE: SMPTE_BARS.TIF
>>> SOURCE PGOODTRO PGOODTROUBLE_E10 060a2b340101010501010f10-13-00-00-00-{4d93d4d8-8549-9805-6bf7003ee1b75f55} 
* SOURCE FILE: PGOODTROUBLE_E1012_TDSM_HF100006348_LENG.MOV
>>> SOURCE PGOODTRO PGOODTROUBLE_E20 060a2b340101010501010f10-13-00-00-00-{1f0748a7-8638-9905-26a670cd60ab08a3} 
* SOURCE FILE: PGOODTROUBLE_E2002_TDSM_HF100006716_R1_LENG.MOV
>>> SOURCE PGOODTRO PGOODTROUBLE_E20 060a2b340101010501010f10-13-00-00-00-{e3da63b0-8823-9805-1cc3d0817ad9cb72} 
* SOURCE FILE: PGOODTROUBLE_E2011_TDSM_HF100007598_R1_LENG.MOV
>>> SOURCE PGOODTRO PGOODTROUBLE_E20 060a2b340101010501010f10-13-00-00-00-{2e3e6862-8920-9905-6560003ee1c67b3f} 
* SOURCE FILE: PGOODTROUBLE_E2016_TDSM_HF100007603_LENG.MOV
>>> SOURCE PGOODTRO PGOODTROUBLE_E20 060a2b340101010501010f10-13-00-00-00-{333f9487-8920-9905-363e003ee1c67b3f} 
* SOURCE FILE: PGOODTROUBLE_E2017_TDSM_HF100007604_LENG.MOV
>>> SOURCE PGOODTRO PGOODTROUBLE_E20 060a2b340101010501010f10-13-00-00-00-{222a1b64-8919-9905-c098003ee1c67b3f} 
* SOURCE FILE: PGOODTROUBLE_E2018_TDSM_HF100007605_LENG.MOV