TITLE:   KMP-4K_and_CTM_Test_DNxHR444 
FCM: NON-DROP FRAME
000001  PGOODTROUBLE_E2014_TDSM_HF100007 V     C        01:27:30:21 01:27:40:21 01:00:00:00 01:00:10:00 
*FROM CLIP NAME:  PGOODTROUBLE_E2014_TDSM_HF100007601_LENG.MOV 
*SOURCE FILE: PGOODTROUBLE_E2014_TDSM_HF100007601_LENG.MOV
000002  PGOODTROUBLE_E2014_TDSM_HF100007 V     C        01:28:42:21 01:28:52:22 01:00:10:00 01:00:20:01 
*FROM CLIP NAME:  PGOODTROUBLE_E2014_TDSM_HF100007601_LENG.MOV 
*SOURCE FILE: PGOODTROUBLE_E2014_TDSM_HF100007601_LENG.MOV
000003  A001C001_200303_F701             V     C        02:47:25:20 02:47:49:04 01:00:20:01 01:00:43:09 
*FROM CLIP NAME:  A001C001_200303_F701.NEW.01 
*LOC: 01:00:25:10 RED     THIS IS A MARKER 
*REEL: GT_COTERIE_NIGHT_02_LC_SDR_V2_3 
*SOURCE FILE: A001C001_200303_F701
000004  A001C002_200303_F701             V     C        02:53:55:12 02:54:12:12 01:00:43:09 01:01:00:09 
*FROM CLIP NAME:  A001C002_200303_F701.NEW.01 
*REEL: GT_COTERIE_NIGHT_02_LC_SDR_V2_3 
*SOURCE FILE: A001C002_200303_F701
000005  A001C003_200303_F701             V     C        02:56:31:12 02:56:55:04 01:01:00:09 01:01:24:01 
*FROM CLIP NAME:  A001C003_200303_F701.NEW.01 
*REEL: GT_COTERIE_NIGHT_02_LC_SDR_V2_3 
*SOURCE FILE: A001C003_200303_F701
000006  A001C004_200303_F701             V     C        02:58:39:12 02:58:56:04 01:01:24:01 01:01:40:17 
*FROM CLIP NAME:  A001C004_200303_F701.NEW.01 
*LOC: 01:01:24:01 RED     THIS IS ALSO A MARKER 
*REEL: GT_COTERIE_NIGHT_02_LC_SDR_V2_3 
*SOURCE FILE: A001C004_200303_F701
000007  A001C005_200303_F701             V     C        03:00:51:12 03:01:20:20 01:01:40:17 01:02:10:01 
*FROM CLIP NAME:  A001C005_200303_F701.NEW.01 
*REEL: GT_COTERIE_NIGHT_02_LC_SDR_V2_3 
*SOURCE FILE: A001C005_200303_F701
000008  A001C006_200303_F701             V     C        03:03:03:12 03:03:37:20 01:02:10:01 01:02:44:09 
*FROM CLIP NAME:  A001C006_200303_F701.NEW.01 
*REEL: GT_COTERIE_NIGHT_02_LC_SDR_V2_3 
*SOURCE FILE: A001C006_200303_F701
000009  A001C007_200303_F701             V     C        03:09:31:04 03:10:00:20 01:02:44:09 01:03:14:01 
*FROM CLIP NAME:  A001C007_200303_F701.NEW.01 
*LOC: 01:02:44:09 RED     THIS IS STILL A MARKER 
*REEL: GT_COTERIE_NIGHT_02_LC_SDR_V2_3 
*SOURCE FILE: A001C007_200303_F701
000010  P00D8870                         V     C        12:59:56:13 13:00:05:01 01:03:14:01 01:03:22:13 
*FROM CLIP NAME:  P00D8870.NEW.01 
*LOC: 01:03:14:01 RED     THIS IS A MARKER INDICATING WHERE GH5 FOOTAGE STARTS 
*REEL: VLOG_TO_V709_FORV35_VER100_0TO1 
*SOURCE FILE: P00D8870
000011  P00D8868                         V     C        12:59:23:01 12:59:36:01 01:03:22:13 01:03:35:13 
*FROM CLIP NAME:  P00D8868.NEW.01 
*REEL: VLOG_TO_V709_FORV35_VER100_0TO1 
*SOURCE FILE: P00D8868
000012  P00D8869                         V     C        12:59:36:01 12:59:56:13 01:03:35:13 01:03:56:01 
*FROM CLIP NAME:  P00D8869.NEW.01 
*REEL: VLOG_TO_V709_FORV35_VER100_0TO1 
*SOURCE FILE: P00D8869
000013  A001C001_200303_F701             V     C        02:47:29:03 02:47:49:04 01:03:56:01 01:04:16:02 
*FROM CLIP NAME:  A001C001_200303_F701.NEW.01 
*REEL: GT_COTERIE_NIGHT_02_LC_SDR_V2_3 
*SOURCE FILE: A001C001_200303_F701
000014  A001C003_200303_F701             V     C        02:56:32:13 02:56:41:17 01:04:16:02 01:04:23:03 
M2      A001C003_200303_F701                      031.4 02:56:32:13 
*FROM CLIP NAME:  A001C003_200303_F701.NEW.01 
*REEL: GT_COTERIE_NIGHT_02_LC_SDR_V2_3 
*SOURCE FILE: A001C003_200303_F701
000015  A001C004_200303_F701             V     C        02:58:49:18 02:58:53:06 01:04:23:03 01:04:26:06 
M2      A001C004_200303_F701                      027.1 02:58:49:18 
*FROM CLIP NAME:  A001C004_200303_F701.NEW.01 
*REEL: GT_COTERIE_NIGHT_02_LC_SDR_V2_3 
*SOURCE FILE: A001C004_200303_F701
>>> SOURCE A001C001_200303_F701             A001C001_200303_ 060a2b340101010501010d43-13-a1-00-00-{62f583f0-1189-05db-00804582f8000000} 
*SOURCE FILE: A001C001_200303_F701
>>> SOURCE A001C002_200303_F701             A001C002_200303_ 060a2b340101010501010d43-13-a1-00-00-{1ab3a1f1-1189-05e0-00804582f8000000} 
*SOURCE FILE: A001C002_200303_F701
>>> SOURCE A001C003_200303_F701             A001C003_200303_ 060a2b340101010501010d43-13-a1-00-00-{701814f2-1189-05e1-00804582f8000000} 
*SOURCE FILE: A001C003_200303_F701
>>> SOURCE A001C004_200303_F701             A001C004_200303_ 060a2b340101010501010d43-13-a1-00-00-{deef71f2-1189-05ce-00804582f8000000} 
*SOURCE FILE: A001C004_200303_F701
>>> SOURCE A001C005_200303_F701             A001C005_200303_ 060a2b340101010501010d43-13-a1-00-00-{3eb4d2f2-1189-05db-00804582f8000000} 
*SOURCE FILE: A001C005_200303_F701
>>> SOURCE A001C006_200303_F701             A001C006_200303_ 060a2b340101010501010d43-13-a1-00-00-{127b33f3-1189-05e1-00804582f8000000} 
*SOURCE FILE: A001C006_200303_F701
>>> SOURCE A001C007_200303_F701             A001C007_200303_ 060a2b340101010501010d43-13-a1-00-00-{46b34ff4-1189-05f8-00804582f8000000} 
*SOURCE FILE: A001C007_200303_F701
>>> SOURCE P00D8868                         P00D8868 060a2b340101010001010f00-13-00-00-00-{3052fab1-c17e-46e6-f7a1d11133b466ff} 
*SOURCE FILE: P00D8868
>>> SOURCE P00D8869                         P00D8869 060a2b340101010001010f00-13-00-00-00-{0e2d2520-70cb-4a8e-3f857394cc4071d2} 
*SOURCE FILE: P00D8869
>>> SOURCE P00D8870                         P00D8870 060a2b340101010001010f00-13-00-00-00-{3d31d6eb-7526-ce8f-ccda4eb586abf49e} 
*SOURCE FILE: P00D8870
>>> SOURCE PGOODTROUBLE_E2014_TDSM_HF100007 PGOODTROUBLE_E20 060a2b340101010501010f10-13-00-00-00-{06df34ac-8863-9805-715b003ee1b75f5c} 
*SOURCE FILE: PGOODTROUBLE_E2014_TDSM_HF100007601_LENG.MOV