TITLE: TOA_s002-006_ONLINE_102720

001  TOA_0101_S002_A0007_CMP_V03.MOV V     C        00:00:04:04 00:00:05:23 01:00:24:05 01:00:26:00
* FROM CLIP NAME:  000001
* SOURCE FILE: TOA_0101_S002_A0007_CMP_V03.MOV
002  TOA_0101_S002_A0008_CMP_V04.MOV V     C        00:00:04:08 00:00:06:11 01:00:26:00 01:00:28:03
* FROM CLIP NAME:  000002
* SOURCE FILE: TOA_0101_S002_A0008_CMP_V04.MOV
003  TOA_0101_S002_A0009_CMP_V03.MOV V     C        00:00:04:04 00:00:09:19 01:00:28:03 01:00:33:18
* FROM CLIP NAME:  000003
* SOURCE FILE: TOA_0101_S002_A0009_CMP_V03.MOV
004  TOA_0101_S002_A0010_CMP_V02.MOV V     C        00:00:04:04 00:00:06:13 01:00:33:18 01:00:36:03
* FROM CLIP NAME:  000004
* SOURCE FILE: TOA_0101_S002_A0010_CMP_V02.MOV
005  TOA_0101_S002_A0011_CMP_V05.MOV V     C        00:00:04:04 00:00:06:16 01:00:36:03 01:00:38:15
* FROM CLIP NAME:  000005
* SOURCE FILE: TOA_0101_S002_A0011_CMP_V05.MOV
006  TOA_0101_S002_A0014_CMP_V04.MOV V     C        00:00:04:04 00:00:08:19 01:00:38:15 01:00:43:06
* FROM CLIP NAME:  000006
* SOURCE FILE: TOA_0101_S002_A0014_CMP_V04.MOV
007  TOA_0101_S002_A0015_CMP_V03.MOV V     C        00:00:04:04 00:00:07:00 01:00:43:06 01:00:46:02
* FROM CLIP NAME:  000007
* SOURCE FILE: TOA_0101_S002_A0015_CMP_V03.MOV
008  TOA_0101_S002_A0016_CMP_V03.MOV V     C        00:00:04:04 00:00:06:19 01:00:46:02 01:00:48:17
* FROM CLIP NAME:  000008
* SOURCE FILE: TOA_0101_S002_A0016_CMP_V03.MOV
009  TOA_0101_S002_A0017_CMP_V05.MOV V     C        00:00:04:04 00:00:09:04 01:00:48:17 01:00:53:17
* FROM CLIP NAME:  000009
* SOURCE FILE: TOA_0101_S002_A0017_CMP_V05.MOV
010  TOA_0101_S002_A0018_CMP_V06.MOV V     C        00:00:04:04 00:00:06:15 01:00:53:17 01:00:56:04
* FROM CLIP NAME:  000010
* SOURCE FILE: TOA_0101_S002_A0018_CMP_V06.MOV
011  TOA_0101_S002_A0020_CMP_V04.MOV V     C        00:00:04:04 00:00:06:09 01:00:56:04 01:00:58:09
* FROM CLIP NAME:  000011
* SOURCE FILE: TOA_0101_S002_A0020_CMP_V04.MOV
012  TOA_0101_S002_A0021_CMP_V04.MOV V     C        00:00:04:04 00:00:06:13 01:00:58:09 01:01:00:18
* FROM CLIP NAME:  000012
* SOURCE FILE: TOA_0101_S002_A0021_CMP_V04.MOV
013  TOA_0101_S002_A0022_CMP_V03.MOV V     C        00:00:04:04 00:00:06:01 01:01:00:18 01:01:02:15
* FROM CLIP NAME:  000013
* SOURCE FILE: TOA_0101_S002_A0022_CMP_V03.MOV
014  TOA_0101_S002_A0023_CMP_V04.MOV V     C        00:00:04:04 00:00:05:10 01:01:02:15 01:01:03:21
* FROM CLIP NAME:  000014
* SOURCE FILE: TOA_0101_S002_A0023_CMP_V04.MOV
015  TOA_0101_S002_A0024_CMP_V03.MOV V     C        00:00:04:04 00:00:06:02 01:01:03:21 01:01:05:19
* FROM CLIP NAME:  000015
* SOURCE FILE: TOA_0101_S002_A0024_CMP_V03.MOV
016  TOA_0101_S002_A0025_CMP_V03.MOV V     C        00:00:04:04 00:00:06:04 01:01:05:19 01:01:07:19
* FROM CLIP NAME:  000016
* SOURCE FILE: TOA_0101_S002_A0025_CMP_V03.MOV
017  TOA_0101_S002_A0026_CMP_V04.MOV V     C        00:00:04:04 00:00:04:19 01:01:07:19 01:01:08:10
* FROM CLIP NAME:  000017
* SOURCE FILE: TOA_0101_S002_A0026_CMP_V04.MOV
018  TOA_0101_S002_A0027_CMP_V03.MOV V     C        00:00:04:04 00:00:04:22 01:01:08:10 01:01:09:04
* FROM CLIP NAME:  000018
* SOURCE FILE: TOA_0101_S002_A0027_CMP_V03.MOV
019  TOA_0101_S002_A0028_CMP_V03.MOV V     C        00:00:04:04 00:00:05:07 01:01:09:04 01:01:10:07
* FROM CLIP NAME:  000019
* SOURCE FILE: TOA_0101_S002_A0028_CMP_V03.MOV
020  TOA_0101_S002_A0029_CMP_V09.MOV V     C        00:00:04:04 00:00:04:23 01:01:10:07 01:01:11:02
* FROM CLIP NAME:  000020
* SOURCE FILE: TOA_0101_S002_A0029_CMP_V09.MOV
021  TOA_0101_S002_A0030_CMP_V06.MOV V     C        00:00:04:04 00:00:05:02 01:01:11:02 01:01:12:00
* FROM CLIP NAME:  000021
* SOURCE FILE: TOA_0101_S002_A0030_CMP_V06.MOV
022  TOA_0101_S002_A0031_CMP_V05.MOV V     C        00:00:04:04 00:00:04:18 01:01:12:00 01:01:12:14
* FROM CLIP NAME:  000022
* SOURCE FILE: TOA_0101_S002_A0031_CMP_V05.MOV
023  TOA_0101_S002_A0032_CMP_V07.MOV V     C        00:00:04:04 00:00:07:09 01:01:12:14 01:01:15:19
* FROM CLIP NAME:  000023
* SOURCE FILE: TOA_0101_S002_A0032_CMP_V07.MOV
024  TOA_0101_S002_A0033_CMP_V07.MOV V     C        00:00:04:04 00:00:05:19 01:01:15:19 01:01:17:10
* FROM CLIP NAME:  000024
* SOURCE FILE: TOA_0101_S002_A0033_CMP_V07.MOV
025  TOA_0101_S002_A0034_CMP_V05.MOV V     C        00:00:04:04 00:00:06:19 01:01:17:10 01:01:20:01
* FROM CLIP NAME:  000025
* SOURCE FILE: TOA_0101_S002_A0034_CMP_V05.MOV
026  TOA_0101_S002_A0035_CMP_V04.MOV V     C        00:00:04:04 00:00:07:00 01:01:20:01 01:01:22:21
* FROM CLIP NAME:  000026
* SOURCE FILE: TOA_0101_S002_A0035_CMP_V04.MOV
027  TOA_0101_S002_A0036_CMP_V05.MOV V     C        00:00:04:04 00:00:06:19 01:01:22:21 01:01:25:12
* FROM CLIP NAME:  000027
* SOURCE FILE: TOA_0101_S002_A0036_CMP_V05.MOV
028  TOA_0101_S002_A0037_CMP_V03.MOV V     C        00:00:04:04 00:00:05:08 01:01:25:12 01:01:26:16
* FROM CLIP NAME:  000028
* SOURCE FILE: TOA_0101_S002_A0037_CMP_V03.MOV
029  TOA_0101_S002_A0038A_CMP_V05.MOV V     C        00:00:04:04 00:00:05:08 01:01:26:16 01:01:27:20
* FROM CLIP NAME:  000029
* SOURCE FILE: TOA_0101_S002_A0038A_CMP_V05.MOV
030  TOA_0101_S002_A0039_CMP_V01.MOV V     C        00:00:04:04 00:00:05:20 01:01:27:20 01:01:29:12
* FROM CLIP NAME:  000030
* SOURCE FILE: TOA_0101_S002_A0039_CMP_V01.MOV
031  TOA_0101_S002_A0040_CMP_V05.MOV V     C        00:00:04:04 00:00:05:09 01:01:29:12 01:01:30:17
* FROM CLIP NAME:  000031
* SOURCE FILE: TOA_0101_S002_A0040_CMP_V05.MOV
032  TOA_0101_S002_A0041_CMP_V07.MOV V     C        00:00:04:04 00:00:08:21 01:01:30:17 01:01:35:10
* FROM CLIP NAME:  000032
* SOURCE FILE: TOA_0101_S002_A0041_CMP_V07.MOV
033  TOA_0101_S002_A0042_CMP_V04.MOV V     C        00:00:04:04 00:00:09:11 01:01:35:10 01:01:40:17
* FROM CLIP NAME:  000033
* SOURCE FILE: TOA_0101_S002_A0042_CMP_V04.MOV
034  TOA_0101_S002_A0043_CMP_V04.MOV V     C        00:00:04:04 00:00:07:10 01:01:40:17 01:01:43:23
* FROM CLIP NAME:  000034
* SOURCE FILE: TOA_0101_S002_A0043_CMP_V04.MOV
035  TOA_0101_S002_A0044_CMP_V04.MOV V     C        00:00:04:04 00:00:06:04 01:01:43:23 01:01:45:23
* FROM CLIP NAME:  000035
* SOURCE FILE: TOA_0101_S002_A0044_CMP_V04.MOV
036  TOA_0101_S002_A0045_CMP_V03.MOV V     C        00:00:04:04 00:00:05:00 01:01:45:23 01:01:46:19
* FROM CLIP NAME:  000036
* SOURCE FILE: TOA_0101_S002_A0045_CMP_V03.MOV
037  TOA_0101_S002_A0046_CMP_V03.MOV V     C        00:00:04:04 00:00:05:11 01:01:46:19 01:01:48:02
* FROM CLIP NAME:  000037
* SOURCE FILE: TOA_0101_S002_A0046_CMP_V03.MOV
038  TOA_0101_S002_A0047_CMP_V04.MOV V     C        00:00:04:04 00:00:05:04 01:01:48:02 01:01:49:02
* FROM CLIP NAME:  000038
* SOURCE FILE: TOA_0101_S002_A0047_CMP_V04.MOV
039  TOA_0101_S002_A0049_CMP_V04.MOV V     C        00:00:04:04 00:00:05:15 01:01:49:02 01:01:50:13
* FROM CLIP NAME:  000039
* SOURCE FILE: TOA_0101_S002_A0049_CMP_V04.MOV
040  TOA_0101_S002_A0050_CMP_V06.MOV V     C        00:00:04:04 00:00:05:19 01:01:50:13 01:01:52:04
* FROM CLIP NAME:  000040
* SOURCE FILE: TOA_0101_S002_A0050_CMP_V06.MOV
041  TOA_0101_S002_A0052_CMP_V05.MOV V     C        00:00:04:04 00:00:06:06 01:01:52:04 01:01:54:06
* FROM CLIP NAME:  000041
* SOURCE FILE: TOA_0101_S002_A0052_CMP_V05.MOV
042  TOA_0101_S002_A0053_CMP_V05.MOV V     C        00:00:04:04 00:00:06:10 01:01:54:06 01:01:56:12
* FROM CLIP NAME:  000042
* SOURCE FILE: TOA_0101_S002_A0053_CMP_V05.MOV
043  TOA_0101_S002_A0054_CMP_V04.MOV V     C        00:00:04:04 00:00:06:17 01:01:56:12 01:01:59:01
* FROM CLIP NAME:  000043
* SOURCE FILE: TOA_0101_S002_A0054_CMP_V04.MOV
044  TOA_0101_S002_A0055_CMP_V04.MOV V     C        00:00:04:04 00:00:07:19 01:01:59:01 01:02:02:16
* FROM CLIP NAME:  000044
* SOURCE FILE: TOA_0101_S002_A0055_CMP_V04.MOV
045  TOA_0101_S002_A0056_CMP_V06.MOV V     C        00:00:04:04 00:00:05:18 01:02:02:16 01:02:04:06
* FROM CLIP NAME:  000045
* SOURCE FILE: TOA_0101_S002_A0056_CMP_V06.MOV
046  TOA_0101_S002_A0057_CMP_V04.MOV V     C        00:00:04:04 00:00:04:20 01:02:04:06 01:02:04:22
* FROM CLIP NAME:  000046
* SOURCE FILE: TOA_0101_S002_A0057_CMP_V04.MOV
047  TOA_0101_S002_A0058_CMP_V02.MOV V     C        00:00:04:04 00:00:07:19 01:02:04:22 01:02:08:13
* FROM CLIP NAME:  000047
* SOURCE FILE: TOA_0101_S002_A0058_CMP_V02.MOV
048  TOA_0101_S002_A0059_CMP_V03.MOV V     C        00:00:04:04 00:00:05:01 01:02:08:13 01:02:09:10
* FROM CLIP NAME:  000048
* SOURCE FILE: TOA_0101_S002_A0059_CMP_V03.MOV
049  TOA_0101_S002_A0060_CMP_V02.MOV V     C        00:00:04:04 00:00:04:23 01:02:09:10 01:02:10:05
* FROM CLIP NAME:  000049
* SOURCE FILE: TOA_0101_S002_A0060_CMP_V02.MOV
050  TOA_0101_S002_A0061_CMP_V04.MOV V     C        00:00:04:04 00:00:07:21 01:02:10:05 01:02:13:22
* FROM CLIP NAME:  000050
* SOURCE FILE: TOA_0101_S002_A0061_CMP_V04.MOV
051  TOA_0101_S002_A0062_CMP_V04.MOV V     C        00:00:04:04 00:00:05:10 01:02:13:22 01:02:15:04
* FROM CLIP NAME:  000051
* SOURCE FILE: TOA_0101_S002_A0062_CMP_V04.MOV
052  TOA_0101_S002_A0063_CMP_V04.MOV V     C        00:00:04:04 00:00:04:22 01:02:15:04 01:02:15:22
* FROM CLIP NAME:  000052
* SOURCE FILE: TOA_0101_S002_A0063_CMP_V04.MOV
053  TOA_0101_S002_A0064_CMP_V03.MOV V     C        00:00:04:04 00:00:06:04 01:02:15:22 01:02:17:22
* FROM CLIP NAME:  000053
* SOURCE FILE: TOA_0101_S002_A0064_CMP_V03.MOV
054  TOA_0101_S002_A0065_CMP_V03.MOV V     C        00:00:04:04 00:00:05:05 01:02:17:22 01:02:18:23
* FROM CLIP NAME:  000054
* SOURCE FILE: TOA_0101_S002_A0065_CMP_V03.MOV
055  TOA_0101_S002_A0066_CMP_V04.MOV V     C        00:00:04:04 00:00:05:07 01:02:18:23 01:02:20:02
* FROM CLIP NAME:  000055
* SOURCE FILE: TOA_0101_S002_A0066_CMP_V04.MOV
056  TOA_0101_S002_A0068_CMP_V03.MOV V     C        00:00:04:04 00:00:05:09 01:02:20:02 01:02:21:07
* FROM CLIP NAME:  000056
* SOURCE FILE: TOA_0101_S002_A0068_CMP_V03.MOV
057  TOA_0101_S002_A0069_CMP_V04.MOV V     C        00:00:04:04 00:00:05:01 01:02:21:07 01:02:22:04
* FROM CLIP NAME:  000057
* SOURCE FILE: TOA_0101_S002_A0069_CMP_V04.MOV
058  TOA_0101_S002_A0070_CMP_V06.MOV V     C        00:00:04:04 00:00:05:02 01:02:22:04 01:02:23:02
* FROM CLIP NAME:  000058
* SOURCE FILE: TOA_0101_S002_A0070_CMP_V06.MOV
059  TOA_0101_S002_A0071_CMP_V04.MOV V     C        00:00:04:04 00:00:05:22 01:02:23:02 01:02:24:20
* FROM CLIP NAME:  000059
* SOURCE FILE: TOA_0101_S002_A0071_CMP_V04.MOV
060  TOA_0101_S002_A0072_CMP_V03.MOV V     C        00:00:04:04 00:00:05:02 01:02:24:20 01:02:25:18
* FROM CLIP NAME:  000060
* SOURCE FILE: TOA_0101_S002_A0072_CMP_V03.MOV
061  TOA_0101_S002_A0073_CMP_V04.MOV V     C        00:00:04:04 00:00:05:15 01:02:25:18 01:02:27:05
* FROM CLIP NAME:  000061
* SOURCE FILE: TOA_0101_S002_A0073_CMP_V04.MOV
062  TOA_0101_S002_A0074_CMP_V03.MOV V     C        00:00:04:04 00:00:06:22 01:02:27:05 01:02:29:23
* FROM CLIP NAME:  000062
* SOURCE FILE: TOA_0101_S002_A0074_CMP_V03.MOV
063  TOA_0101_S002_A0075_CMP_V04.MOV V     C        00:00:04:04 00:00:07:22 01:02:29:23 01:02:33:17
* FROM CLIP NAME:  000063
* SOURCE FILE: TOA_0101_S002_A0075_CMP_V04.MOV
064  TOA_0101_S002_A0077_CMP_V03.MOV V     C        00:00:04:04 00:00:05:13 01:02:33:17 01:02:35:02
* FROM CLIP NAME:  000064
* SOURCE FILE: TOA_0101_S002_A0077_CMP_V03.MOV
065  TOA_0101_S002_A0078_CMP_V03.MOV V     C        00:00:04:07 00:00:10:07 01:02:35:02 01:02:41:02
* FROM CLIP NAME:  000065
* SOURCE FILE: TOA_0101_S002_A0078_CMP_V03.MOV
066  TOA_0101_S002_A0079_CMP_V04.MOV V     C        00:00:04:04 00:00:07:16 01:02:41:02 01:02:44:14
* FROM CLIP NAME:  000066
* SOURCE FILE: TOA_0101_S002_A0079_CMP_V04.MOV
067  TOA_0101_S002_A0081_CMP_V02.MOV V     C        00:00:04:04 00:00:05:17 01:02:44:14 01:02:46:03
* FROM CLIP NAME:  000067
* SOURCE FILE: TOA_0101_S002_A0081_CMP_V02.MOV
068  TOA_0101_S002_A0082_CMP_V04.MOV V     C        00:00:04:04 00:00:04:18 01:02:46:03 01:02:46:17
* FROM CLIP NAME:  000068
* SOURCE FILE: TOA_0101_S002_A0082_CMP_V04.MOV
069  TOA_0101_S002_A0083_CMP_V01.MOV V     C        00:00:04:04 00:00:05:16 01:02:46:17 01:02:48:05
* FROM CLIP NAME:  000069
* SOURCE FILE: TOA_0101_S002_A0083_CMP_V01.MOV
070  TOA_0101_S002_A0084_CMP_V03.MOV V     C        00:00:04:04 00:00:09:19 01:02:48:05 01:02:53:20
* FROM CLIP NAME:  000070
* SOURCE FILE: TOA_0101_S002_A0084_CMP_V03.MOV
071  TOA_0101_S002_A0085_CMP_V02.MOV V     C        00:00:04:04 00:00:06:18 01:02:53:20 01:02:56:10
* FROM CLIP NAME:  000071
* SOURCE FILE: TOA_0101_S002_A0085_CMP_V02.MOV
072  TOA_0101_S003_A0086_CMP_V02.MOV V     C        00:00:04:04 00:00:06:16 01:02:56:10 01:02:58:22
* FROM CLIP NAME:  000072
* SOURCE FILE: TOA_0101_S003_A0086_CMP_V02.MOV
073  TOA_0101_S003_A0087_CMP_V05.MOV V     C        00:00:04:04 00:00:07:18 01:02:58:22 01:03:02:12
* FROM CLIP NAME:  000073
* SOURCE FILE: TOA_0101_S003_A0087_CMP_V05.MOV
074  TOA_0101_S003_A0088_CMP_V03.MOV V     C        00:00:04:04 00:00:06:01 01:03:02:12 01:03:04:09
* FROM CLIP NAME:  000074
* SOURCE FILE: TOA_0101_S003_A0088_CMP_V03.MOV
075  TOA_0101_S003_A0089_CMP_V04.MOV V     C        00:00:04:04 00:00:05:04 01:03:04:09 01:03:05:09
* FROM CLIP NAME:  000075
* SOURCE FILE: TOA_0101_S003_A0089_CMP_V04.MOV
076  TOA_0101_S003_A0090_CMP_V04.MOV V     C        00:00:04:04 00:00:09:15 01:03:05:09 01:03:10:20
* FROM CLIP NAME:  000076
* SOURCE FILE: TOA_0101_S003_A0090_CMP_V04.MOV
077  TOA_0101_S003_A0091_CMP_V02.MOV V     C        00:00:04:04 00:00:09:14 01:03:10:20 01:03:16:06
* FROM CLIP NAME:  000077
* SOURCE FILE: TOA_0101_S003_A0091_CMP_V02.MOV
078  TOA_0101_S003_A0092_CMP_V04.MOV V     C        00:00:04:04 00:00:06:17 01:03:16:06 01:03:18:19
* FROM CLIP NAME:  000078
* SOURCE FILE: TOA_0101_S003_A0092_CMP_V04.MOV
079  TOA_0101_S003_A0093_CMP_V05.MOV V     C        00:00:04:04 00:00:06:10 01:03:18:19 01:03:21:01
* FROM CLIP NAME:  000079
* SOURCE FILE: TOA_0101_S003_A0093_CMP_V05.MOV
080  TOA_0101_S003_A0094_CMP_V02.MOV V     C        00:00:04:04 00:00:07:04 01:03:21:01 01:03:24:01
* FROM CLIP NAME:  000080
* SOURCE FILE: TOA_0101_S003_A0094_CMP_V02.MOV
081  TOA_0101_S004_A0096_CMP_V04.MOV V     C        00:00:04:04 00:00:05:22 01:03:24:01 01:03:25:19
* FROM CLIP NAME:  000081
* SOURCE FILE: TOA_0101_S004_A0096_CMP_V04.MOV
082  TOA_0101_S004_A0097_CMP_V02.MOV V     C        00:00:04:10 00:00:07:20 01:03:25:19 01:03:29:05
* FROM CLIP NAME:  000082
* SOURCE FILE: TOA_0101_S004_A0097_CMP_V02.MOV
083  TOA_0101_S004_A0098_CMP_V04.MOV V     C        00:00:04:04 00:00:19:08 01:03:29:05 01:03:44:09
* FROM CLIP NAME:  000083
* SOURCE FILE: TOA_0101_S004_A0098_CMP_V04.MOV
084  TOA_0101_S004_A0098A_CMP_V02.MOV V     C        00:00:04:04 00:00:07:13 01:03:44:09 01:03:47:18
* FROM CLIP NAME:  000084
* SOURCE FILE: TOA_0101_S004_A0098A_CMP_V02.MOV
085  TOA_0101_S005_A0099_CMP_V03.MOV V     C        00:00:04:04 00:00:05:10 01:03:47:18 01:03:49:00
* FROM CLIP NAME:  000085
* SOURCE FILE: TOA_0101_S005_A0099_CMP_V03.MOV
086  TOA_0101_S005_A0100_CMP_V02.MOV V     C        00:00:04:04 00:00:06:07 01:03:49:00 01:03:51:03
* FROM CLIP NAME:  000086
* SOURCE FILE: TOA_0101_S005_A0100_CMP_V02.MOV
087  TOA_0101_S005_A0101_CMP_V03.MOV V     C        00:00:04:04 00:00:08:07 01:03:51:03 01:03:55:06
* FROM CLIP NAME:  000087
* SOURCE FILE: TOA_0101_S005_A0101_CMP_V03.MOV
088  TOA_0101_S005_A0103_CMP_V04.MOV V     C        00:00:04:04 00:00:06:15 01:03:55:06 01:03:57:17
* FROM CLIP NAME:  000088
* SOURCE FILE: TOA_0101_S005_A0103_CMP_V04.MOV
089  TOA_0101_S005_A0104_CMP_V03.MOV V     C        00:00:04:04 00:00:05:13 01:03:57:17 01:03:59:02
* FROM CLIP NAME:  000089
* SOURCE FILE: TOA_0101_S005_A0104_CMP_V03.MOV
090  TOA_0101_S005_A0105_CMP_V03.MOV V     C        00:00:04:04 00:00:06:01 01:03:59:02 01:04:00:23
* FROM CLIP NAME:  000090
* SOURCE FILE: TOA_0101_S005_A0105_CMP_V03.MOV
091  TOA_0101_S005_A0106_CMP_V03.MOV V     C        00:00:04:04 00:00:05:19 01:04:00:23 01:04:02:14
* FROM CLIP NAME:  000091
* SOURCE FILE: TOA_0101_S005_A0106_CMP_V03.MOV
092  TOA_0101_S005_A0107_CMP_V04.MOV V     C        00:00:04:04 00:00:05:08 01:04:02:14 01:04:03:18
* FROM CLIP NAME:  000092
* SOURCE FILE: TOA_0101_S005_A0107_CMP_V04.MOV
093  TOA_0101_S005_A0108_CMP_V03.MOV V     C        00:00:04:04 00:00:06:02 01:04:03:18 01:04:05:16
* FROM CLIP NAME:  000093
* SOURCE FILE: TOA_0101_S005_A0108_CMP_V03.MOV
094  TOA_0101_S005_A0109_CMP_V03.MOV V     C        00:00:04:04 00:00:05:09 01:04:05:16 01:04:06:21
* FROM CLIP NAME:  000094
* SOURCE FILE: TOA_0101_S005_A0109_CMP_V03.MOV
095  TOA_0101_S005_A0110_CMP_V04.MOV V     C        00:00:04:04 00:00:05:17 01:04:06:21 01:04:08:10
* FROM CLIP NAME:  000095
* SOURCE FILE: TOA_0101_S005_A0110_CMP_V04.MOV
096  TOA_0101_S005_A0111_CMP_V02.MOV V     C        00:00:04:04 00:00:06:01 01:04:08:10 01:04:10:07
* FROM CLIP NAME:  000096
* SOURCE FILE: TOA_0101_S005_A0111_CMP_V02.MOV
097  TOA_0101_S006_A0112_CMP_V04.MOV V     C        00:00:04:05 00:00:08:07 01:04:10:07 01:04:14:09
* FROM CLIP NAME:  000097
* SOURCE FILE: TOA_0101_S006_A0112_CMP_V04.MOV
098  TOA_0101_S006_A0113_CMP_V05.MOV V     C        00:00:04:04 00:00:05:00 01:04:14:09 01:04:15:05
* FROM CLIP NAME:  000098
* SOURCE FILE: TOA_0101_S006_A0113_CMP_V05.MOV
099  TOA_0101_S006_A0114_CMP_V03.MOV V     C        00:00:04:04 00:00:05:18 01:04:15:05 01:04:16:19
* FROM CLIP NAME:  000099
* SOURCE FILE: TOA_0101_S006_A0114_CMP_V03.MOV
100  TOA_0101_S006_A0115_CMP_V02.MOV V     C        00:00:04:04 00:00:05:04 01:04:16:19 01:04:17:19
* FROM CLIP NAME:  000100
* SOURCE FILE: TOA_0101_S006_A0115_CMP_V02.MOV
101  TOA_0101_S006_A0116_CMP_V02.MOV V     C        00:00:04:04 00:00:04:18 01:04:17:19 01:04:18:09
* FROM CLIP NAME:  000101
* SOURCE FILE: TOA_0101_S006_A0116_CMP_V02.MOV
102  TOA_0101_S006_A0117_CMP_V03.MOV V     C        00:00:04:04 00:00:05:06 01:04:18:09 01:04:19:11
* FROM CLIP NAME:  000102
* SOURCE FILE: TOA_0101_S006_A0117_CMP_V03.MOV
103  TOA_0101_S006_A0118_CMP_V03.MOV V     C        00:00:04:04 00:00:04:17 01:04:19:11 01:04:20:00
* FROM CLIP NAME:  000103
* SOURCE FILE: TOA_0101_S006_A0118_CMP_V03.MOV
104  TOA_0101_S006_A0119_CMP_V03.MOV V     C        00:00:04:04 00:00:05:00 01:04:20:00 01:04:20:20
* FROM CLIP NAME:  000104
* SOURCE FILE: TOA_0101_S006_A0119_CMP_V03.MOV
105  TOA_0101_S006_A0120_CMP_V04.MOV V     C        00:00:04:04 00:00:05:03 01:04:20:20 01:04:21:19
* FROM CLIP NAME:  000105
* SOURCE FILE: TOA_0101_S006_A0120_CMP_V04.MOV
106  TOA_0101_S006_A0121_CMP_V03.MOV V     C        00:00:04:04 00:00:04:21 01:04:21:19 01:04:22:12
* FROM CLIP NAME:  000106
* SOURCE FILE: TOA_0101_S006_A0121_CMP_V03.MOV
107  TOA_0101_S006_A0122_CMP_V04.MOV V     C        00:00:04:04 00:00:05:16 01:04:22:12 01:04:24:00
* FROM CLIP NAME:  000107
* SOURCE FILE: TOA_0101_S006_A0122_CMP_V04.MOV
108  TOA_0101_S006_A0123_CMP_V05.MOV V     C        00:00:04:04 00:00:05:23 01:04:24:00 01:04:25:19
* FROM CLIP NAME:  000108
* SOURCE FILE: TOA_0101_S006_A0123_CMP_V05.MOV
109  TOA_0101_S006_A0128_CMP_V03.MOV V     C        00:00:04:04 00:00:06:12 01:04:25:19 01:04:28:03
* FROM CLIP NAME:  000109
* SOURCE FILE: TOA_0101_S006_A0128_CMP_V03.MOV
110  TOA_0101_S006_A0129_CMP_V03.MOV V     C        00:00:04:04 00:00:05:04 01:04:28:03 01:04:29:03
* FROM CLIP NAME:  000110
* SOURCE FILE: TOA_0101_S006_A0129_CMP_V03.MOV
111  TOA_0101_S006_A0130_CMP_V04.MOV V     C        00:00:04:04 00:00:05:12 01:04:29:03 01:04:30:11
* FROM CLIP NAME:  000111
* SOURCE FILE: TOA_0101_S006_A0130_CMP_V04.MOV
