TITLE: TOA_Reel_02_ONLINE

001  Head_Leader V     C        01:00:00:00 01:00:02:00 01:59:58:00 02:00:00:00
* FROM CLIP NAME:  TOA_2_Pop.mov
002  TOA_0101_S014_A0371_CMP_V03 V     C        00:00:04:04 00:00:08:16 02:00:00:00 02:00:04:12
* FROM CLIP NAME:  TOA_0101_s014_A0371_CMP_v03.[0100-0207].exr
003  TOA_0101_S014_A0372_CMP_V02 V     C        00:00:04:04 00:00:08:04 02:00:04:12 02:00:08:12
* FROM CLIP NAME:  TOA_0101_s014_A0372_CMP_v02.[0100-0195].exr
004  TOA_0101_S014_A0373_CMP_V05 V     C        00:00:04:04 00:00:08:11 02:00:08:12 02:00:12:19
* FROM CLIP NAME:  TOA_0101_s014_A0373_CMP_v05.[0100-0202].exr
005  TOA_0101_S014_A0374_CMP_V03 V     C        00:00:04:04 00:00:07:07 02:00:12:19 02:00:15:22
* FROM CLIP NAME:  TOA_0101_s014_A0374_CMP_v03.[0100-0174].exr
006  TOA_0101_S015_A0375_CMP_V05 V     C        00:00:04:04 00:00:08:23 02:00:15:22 02:00:20:17
* FROM CLIP NAME:  TOA_0101_s015_A0375_CMP_V05.[0100-0214].exr
007  TOA_0101_S015_A0375A_CMP_V03 V     C        00:00:04:04 00:00:07:07 02:00:20:17 02:00:23:20
* FROM CLIP NAME:  TOA_0101_s015_A0375A_CMP_V03.[0100-0174].exr
008  TOA_0101_S015_A0375B_CMP_V05 V     C        00:00:04:04 00:00:09:01 02:00:23:20 02:00:28:17
* FROM CLIP NAME:  TOA_0101_s015_A0375B_CMP_V05.[0100-0216].exr
009  TOA_0101_S015_A0375C_CMP_V02 V     C        00:00:04:04 00:00:09:13 02:00:28:17 02:00:34:02
* FROM CLIP NAME:  TOA_0101_s015_A0375C_CMP_V02.[0100-0228].exr
010  TOA_0101_S015_A0376_CMP_V03 V     C        00:00:04:04 00:00:05:20 02:00:34:02 02:00:35:18
* FROM CLIP NAME:  TOA_0101_s015_A0376_CMP_V03.[0100-0139].exr
011  TOA_0101_S015_A0376A_CMP_V03 V     C        00:00:04:04 00:00:13:10 02:00:35:18 02:00:45:00
* FROM CLIP NAME:  TOA_0101_s015_A0376A_CMP_V03.[0100-0321].exr
012  TOA_0101_S015_A0376B_CMP_V01 V     C        00:00:04:04 00:00:22:06 02:00:45:00 02:01:03:02
* FROM CLIP NAME:  TOA_0101_s015_A0376B_CMP_V01.[0100-0533].exr
013  TOA_0101_S015_A0384_CMP_V01 V     C        00:00:04:04 00:00:12:22 02:01:03:02 02:01:11:20
* FROM CLIP NAME:  TOA_0101_s015_A0384_CMP_V01.[0100-0309].exr
014  TOA_0101_S015_A0384A_CMP_V02 V     C        00:00:04:04 00:00:16:21 02:01:11:20 02:01:24:13
* FROM CLIP NAME:  TOA_0101_s015_A0384A_CMP_V02.[0100-0404].exr
015  TOA_0101_S015_A0384B_CMP_V02 V     C        00:00:04:04 00:00:06:14 02:01:24:13 02:01:26:23
* FROM CLIP NAME:  TOA_0101_s015_A0384B_CMP_V02.[0100-0157].exr
016  TOA_0101_S015_A0385A_CMP_V08 V     C        00:00:04:04 00:00:07:14 02:01:26:23 02:01:30:09
* FROM CLIP NAME:  TOA_0101_s015_A0385A_CMP_V08.[0100-0181].exr
017  TOA_0101_S015_A0385B_CMP_V04 V     C        00:00:04:04 00:00:06:19 02:01:30:09 02:01:33:00
* FROM CLIP NAME:  TOA_0101_s015_A0385B_CMP_V04.[0100-0162].exr
018  TOA_0101_S015_A0390_CMP_V01 V     C        00:00:04:04 00:00:13:06 02:01:33:00 02:01:42:02
* FROM CLIP NAME:  TOA_0101_s015_A0390_CMP_V01.[0100-0317].exr
019  TOA_0101_S015_A0390E_CMP_V02 V     C        00:00:04:04 00:00:07:23 02:01:42:02 02:01:45:21
* FROM CLIP NAME:  TOA_0101_s015_A0390E_CMP_V02.[0100-0190].exr
020  TOA_0101_S015_A0390F_CMP_V01 V     C        00:00:04:04 00:00:06:08 02:01:45:21 02:01:48:01
* FROM CLIP NAME:  TOA_0101_s015_A0390F_CMP_V01.[0100-0151].exr
021  TOA_0101_S015_A0390G_CMP_V03 V     C        00:00:04:04 00:00:06:18 02:01:48:01 02:01:50:15
* FROM CLIP NAME:  TOA_0101_S015_A0390G_CMP_V03.[0100-0161].exr
022  TOA_0101_S015_A0398_CMP_V02 V     C        00:00:04:04 00:00:24:01 02:01:50:15 02:02:10:12
* FROM CLIP NAME:  TOA_0101_s015_A0398_CMP_V02.[0100-0576].exr
023  TOA_0101_S015_A0398A_CMP_V03 V     C        00:00:04:04 00:00:06:18 02:02:10:12 02:02:13:02
* FROM CLIP NAME:  TOA_0101_s015_A0398A_CMP_V03.[0100-0161].exr
024  TOA_0101_S015_A0398B_CMP_V02 V     C        00:00:04:04 00:00:06:19 02:02:13:02 02:02:15:17
* FROM CLIP NAME:  TOA_0101_s015_A0398B_CMP_V02.[0100-0162].exr
025  TOA_0101_S015_A0400_CMP_V02 V     C        00:00:04:04 00:00:07:23 02:02:15:17 02:02:19:12
* FROM CLIP NAME:  TOA_0101_s015_A0400_CMP_V02.[0100-0190].exr
026  TOA_0101_S015_A0400A_CMP_V02 V     C        00:00:04:04 00:00:06:04 02:02:19:12 02:02:21:12
* FROM CLIP NAME:  TOA_0101_s015_A0400A_CMP_V02.[0100-0147].exr
027  TOA_0101_S015_A0400B_CMP_V02 V     C        00:00:04:04 00:00:16:10 02:02:21:12 02:02:33:18
* FROM CLIP NAME:  TOA_0101_s015_A0400B_CMP_V02.[0100-0393].exr
028  TOA_0101_S015_A0400C_CMP_V03 V     C        00:00:04:04 00:00:07:12 02:02:33:18 02:02:37:02
* FROM CLIP NAME:  TOA_0101_s015_A0400C_CMP_V03.[0100-0179].exr
029  TOA_0101_S015_A0400D_CMP_V05 V     C        00:00:04:04 00:00:05:13 02:02:37:02 02:02:38:11
* FROM CLIP NAME:  TOA_0101_s015_A0400D_CMP_V05.[0100-0132].exr
030  TOA_0101_S016_A0402_CMP_V03 V     C        00:00:04:04 00:00:06:09 02:02:38:11 02:02:40:16
* FROM CLIP NAME:  TOA_0101_s016_A0402_CMP_v03.[0100-0152].exr
031  TOA_0101_S016_A0404_CMP_V04 V     C        00:00:04:04 00:00:12:19 02:02:45:13 02:02:54:04
* FROM CLIP NAME:  TOA_0101_s016_A0404_CMP_v04.[0100-0306].exr
032  TOA_0101_S016_A0406_CMP_V04 V     C        00:00:04:04 00:00:07:18 02:02:59:05 02:03:02:19
* FROM CLIP NAME:  TOA_0101_s016_A0406_CMP_v04.[0100-0185].exr
033  TOA_0101_S016_A0407_CMP_V04 V     C        00:00:04:04 00:00:06:09 02:03:02:19 02:03:05:00
* FROM CLIP NAME:  TOA_0101_s016_A0407_CMP_v07.[0100-0152].exr
034  TOA_0101_S016_A0408_CMP_V02 V     C        00:00:04:04 00:00:06:20 02:03:05:00 02:03:07:16
* FROM CLIP NAME:  TOA_0101_s016_A0408_CMP_v02.[0100-0163].exr
035  TOA_0101_S016_A0409_CMP_V04 V     C        00:00:04:04 00:00:07:01 02:03:07:16 02:03:10:13
* FROM CLIP NAME:  TOA_0101_s016_A0409_CMP_v04.[0100-0168].exr
036  TOA_0101_S016_A0410_CMP_V04 V     C        00:00:04:04 00:00:06:15 02:03:10:13 02:03:13:00
* FROM CLIP NAME:  TOA_0101_s016_A0410_CMP_v04.[0100-0158].exr
037  TOA_0101_S016_A0411_CMP_V02 V     C        00:00:04:04 00:00:06:05 02:03:13:00 02:03:15:01
* FROM CLIP NAME:  TOA_0101_s016_A0411_CMP_v02.[0100-0148].exr
038  TOA_0101_S016_A0412_CMP_V04 V     C        00:00:04:04 00:00:06:09 02:03:15:01 02:03:17:06
* FROM CLIP NAME:  TOA_0101_s016_A0412_CMP_v04.[0100-0152].exr
039  TOA_0101_S016_A0413_CMP_V05 V     C        00:00:04:04 00:00:06:07 02:03:17:06 02:03:19:09
* FROM CLIP NAME:  TOA_0101_s016_A0413_CMP_v05.[0100-0150].exr
040  TOA_0101_S017_A0414_CMP_V02 V     C        00:00:04:04 00:00:08:14 02:03:19:09 02:03:23:19
* FROM CLIP NAME:  TOA_0101_s017_A0414_CMP_V02.[0100-0205].exr
041  TOA_0101_S017_A0415_CMP_V03 V     C        00:00:04:04 00:00:05:13 02:03:23:19 02:03:25:04
* FROM CLIP NAME:  TOA_0101_s017_A0415_CMP_V03.[0100-0132].exr
042  TOA_0101_S017_A0416_CMP_V06 V     C        00:00:04:04 00:00:07:08 02:03:25:04 02:03:28:08
* FROM CLIP NAME:  TOA_0101_s017_A0416_CMP_V06.[0100-0175].exr
043  TOA_0101_S017_A0417_CMP_V03 V     C        00:00:04:04 00:00:06:09 02:03:28:08 02:03:30:13
* FROM CLIP NAME:  TOA_0101_s017_A0417_CMP_V03.[0100-0152].exr
044  TOA_0101_S017_A0418_CMP_V03 V     C        00:00:04:04 00:00:11:19 02:03:30:13 02:03:38:04
* FROM CLIP NAME:  TOA_0101_s017_A0418_CMP_V03.[0100-0282].exr
045  TOA_0101_S017_A0419_CMP_V02 V     C        00:00:04:04 00:00:05:18 02:03:38:04 02:03:39:18
* FROM CLIP NAME:  TOA_0101_s017_A0419_CMP_V02.[0100-0137].exr
046  TOA_0101_S017_A0420_CMP_V07 V     C        00:00:04:04 00:00:09:15 02:03:39:18 02:03:45:05
* FROM CLIP NAME:  TOA_0101_s017_A0420_CMP_V07.[0100-0230].exr
047  TOA_0101_S017_A0421_CMP_V07 V     C        00:00:04:04 00:00:05:19 02:03:45:05 02:03:46:20
* FROM CLIP NAME:  TOA_0101_s017_A0421_CMP_V07.[0100-0138].exr
048  TOA_0101_S017_A0422_CMP_V01 V     C        00:00:04:04 00:00:06:00 02:03:46:20 02:03:48:16
* FROM CLIP NAME:  TOA_0101_s017_A0422_CMP_V01.[0100-0143].exr
049  TOA_0101_S017_A0423_CMP_V05 V     C        00:00:04:04 00:00:10:20 02:03:48:16 02:03:55:08
* FROM CLIP NAME:  TOA_0101_s017_A0423_CMP_V05.[0100-0259].exr
050  TOA_0101_S017_A0424_CMP_V02 V     C        00:00:04:04 00:00:18:02 02:03:55:08 02:04:09:06
* FROM CLIP NAME:  TOA_0101_s017_A0424_CMP_V02.[0100-0433].exr
051  TOA_0101_S017_A0425_CMP_V01 V     C        00:00:04:04 00:00:07:10 02:04:09:06 02:04:12:12
* FROM CLIP NAME:  TOA_0101_s017_A0425_CMP_V01.[0100-0177].exr
052  TOA_0101_S017_A0426_CMP_V02 V     C        00:00:04:04 00:00:07:14 02:04:12:12 02:04:15:22
* FROM CLIP NAME:  TOA_0101_s017_A0426_CMP_V02.[0100-0181].exr
053  TOA_0101_S017_A0427_CMP_V05 V     C        00:00:04:04 00:00:14:13 02:04:15:22 02:04:26:07
* FROM CLIP NAME:  TOA_0101_S017_A0427_CMP_V05.[0100-0348].exr
054  TOA_0101_S017_A0428_CMP_V04 V     C        00:00:04:04 00:00:10:05 02:04:26:07 02:04:32:08
* FROM CLIP NAME:  TOA_0101_s017_A0428_CMP_V04.[0100-0244].exr
055  TOA_0101_S017_A0429_CMP_V04 V     C        00:00:04:12 00:00:11:15 02:04:32:08 02:04:39:11
* FROM CLIP NAME:  TOA_0101_s017_A0429_CMP_V04.[0100-0278].exr
056  TOA_0101_S017_A0430_CMP_V03 V     C        00:00:04:04 00:00:05:18 02:04:39:19 02:04:41:09
* FROM CLIP NAME:  TOA_0101_s017_A0430_CMP_V03.[0100-0137].exr
057  TOA_0101_S017_A0431_CMP_V03 V     C        00:00:04:04 00:00:20:00 02:04:41:09 02:04:57:05
* FROM CLIP NAME:  TOA_0101_s017_A0431_CMP_V03.[0100-0479].exr
058  TOA_0101_S017_A0432_CMP_V05 V     C        00:00:04:04 00:00:06:13 02:04:57:05 02:04:59:14
* FROM CLIP NAME:  TOA_0101_s017_A0432_CMP_V05.[0100-0156].exr
059  TOA_0101_S017_A0433_CMP_V03 V     C        00:00:04:04 00:00:12:10 02:04:59:14 02:05:07:20
* FROM CLIP NAME:  TOA_0101_s017_A0433_CMP_V03.[0100-0297].exr
060  TOA_0101_S017_A0434_CMP_V02 V     C        00:00:04:04 00:00:08:03 02:05:07:20 02:05:11:19
* FROM CLIP NAME:  TOA_0101_s017_A0434_CMP_V02.[0100-0194].exr
061  TOA_0101_S018_A0435_CMP_V04 V     C        00:00:04:04 00:00:06:12 02:05:11:19 02:05:14:03
* FROM CLIP NAME:  TOA_0101_s018_A0435_CMP_V04.[0100-0155].exr
062  TOA_0101_S018_A0436_CMP_V04 V     C        00:00:04:04 00:00:06:10 02:05:14:03 02:05:16:09
* FROM CLIP NAME:  TOA_0101_s018_A0436_CMP_V04.[0100-0153].exr
063  TOA_0101_S018_A0437_CMP_V02 V     C        00:00:04:04 00:00:10:08 02:05:16:09 02:05:22:13
* FROM CLIP NAME:  TOA_0101_s018_A0437_CMP_V02.[0100-0247].exr
064  TOA_0101_S018_A0438_CMP_V05 V     C        00:00:04:04 00:00:09:18 02:05:22:13 02:05:28:03
* FROM CLIP NAME:  TOA_0101_s018_A0438_CMP_V05.[0100-0233].exr
065  TOA_0101_S018_A0440_CMP_V04 V     C        00:00:04:04 00:00:07:21 02:05:28:03 02:05:31:20
* FROM CLIP NAME:  TOA_0101_s018_A0440_CMP_V04.[0100-0188].exr
066  TOA_0101_S018_A0441_CMP_V02 V     C        00:00:04:04 00:00:08:10 02:05:31:20 02:05:36:02
* FROM CLIP NAME:  TOA_0101_s018_A0441_CMP_V02.[0100-0201].exr
067  TOA_0101_S018_A0442_CMP_V03 V     C        00:00:04:04 00:00:06:16 02:05:36:02 02:05:38:14
* FROM CLIP NAME:  TOA_0101_s018_A0442_CMP_V03.[0100-0159].exr
068  TOA_0101_S018_A0443_CMP_V04 V     C        00:00:04:04 00:00:06:12 02:05:38:14 02:05:40:22
* FROM CLIP NAME:  TOA_0101_s018_A0443_CMP_V04.[0100-0155].exr
069  TOA_0101_S018_A0444_CMP_V02 V     C        00:00:04:04 00:00:08:10 02:05:40:22 02:05:45:04
* FROM CLIP NAME:  TOA_0101_s018_A0444_CMP_V02.[0100-0201].exr
070  TOA_0101_S018_A0445_CMP_V01 V     C        00:00:04:04 00:00:06:00 02:05:45:04 02:05:47:00
* FROM CLIP NAME:  TOA_0101_s018_A0445_CMP_V01.[0100-0143].exr
071  TOA_0101_S018_A0446_CMP_V05 V     C        00:00:04:04 00:00:17:16 02:05:47:00 02:06:00:12
* FROM CLIP NAME:  TOA_0101_s018_A0446_CMP_V05.[0100-0423].exr
072  TOA_0101_S018_A0447_CMP_V05 V     C        00:00:04:04 00:00:07:10 02:06:00:12 02:06:03:18
* FROM CLIP NAME:  TOA_0101_s018_A0447_CMP_V05.[0100-0177].exr
073  TOA_0101_S018_A0448_CMP_V04 V     C        00:00:04:04 00:00:07:03 02:06:03:18 02:06:06:17
* FROM CLIP NAME:  TOA_0101_s018_A0448_CMP_V04.[0100-0170].exr
074  TOA_0101_S018_A0449_CMP_V08 V     C        00:00:04:04 00:00:14:21 02:06:06:17 02:06:17:10
* FROM CLIP NAME:  TOA_0101_s018_A0449_CMP_V08.[0100-0356].exr
075  TOA_0101_S018_A0451_CMP_V05 V     C        00:00:04:04 00:00:14:23 02:06:17:10 02:06:28:05
* FROM CLIP NAME:  TOA_0101_s018_A0451_CMP_V05.[0100-0358].exr
076  TOA_0101_S018_A0452_CMP_V04 V     C        00:00:04:04 00:00:09:18 02:06:28:05 02:06:33:19
* FROM CLIP NAME:  TOA_0101_s018_A0452_CMP_V04.[0100-0233].exr
077  TOA_0101_S018_A0453_CMP_V06 V     C        00:00:04:04 00:00:07:11 02:06:33:19 02:06:37:02
* FROM CLIP NAME:  TOA_0101_s018_A0453_CMP_V06.[0100-0178].exr
078  TOA_0101_S018_A0454_CMP_V02 V     C        00:00:04:04 00:00:06:11 02:06:37:02 02:06:39:09
* FROM CLIP NAME:  TOA_0101_s018_A0454_CMP_V02.[0100-0154].exr
079  TOA_0101_S019_A0455_CMP_V02 V     C        00:00:04:04 00:00:13:21 02:06:39:09 02:06:49:02
* FROM CLIP NAME:  TOA_0101_s019_A0455_CMP_V02.[0100-0332].exr
080  TOA_0101_S020_A0458_CMP_V02 V     C        00:00:04:04 00:00:08:06 02:06:49:02 02:06:53:04
* FROM CLIP NAME:  TOA_0101_s020_A0458_CMP_V02.[0100-0197].exr
081  TOA_0101_S020_A0459_CMP_V02 V     C        00:00:04:04 00:00:13:15 02:06:53:04 02:07:02:15
* FROM CLIP NAME:  TOA_0101_s020_A0459_CMP_V02.[0100-0326].exr
082  TOA_0101_S020_A0461_CMP_V04 V     C        00:00:04:04 00:00:07:01 02:07:02:15 02:07:05:12
* FROM CLIP NAME:  TOA_0101_s020_A0461_CMP_V04.[0100-0168].exr
083  TOA_0101_S020_A0462_CMP_V03 V     C        00:00:04:04 00:00:07:08 02:07:05:12 02:07:08:16
* FROM CLIP NAME:  TOA_0101_s020_A0462_CMP_V03.[0100-0175].exr
084  TOA_0101_S020_A0463_CMP_V10 V     C        00:00:04:04 00:00:05:15 02:07:08:16 02:07:10:03
* FROM CLIP NAME:  TOA_0101_s020_A0463_CMP_V10.[0100-0149].exr
085  TOA_0101_S020_A0463_CMP_V10 V     C        00:00:05:15 00:00:05:15 02:07:10:03 02:07:10:03
085  TOA_0101_S021_A0464_CMP_V04 V     D 123    00:00:04:05 00:00:09:08 02:07:10:03 02:07:15:06
* FROM CLIP NAME:  TOA_0101_s020_A0463_CMP_V10.[0100-0149].exr
* TO CLIP NAME:  TOA_0101_s021_A0464_CMP_V04.[0100-0223].exr
086  TOA_0101_S021_A0465_CMP_V03 V     C        00:00:04:04 00:00:08:18 02:07:15:06 02:07:19:20
* FROM CLIP NAME:  TOA_0101_s021_A0465_CMP_V03.[0100-0209].exr
087  TOA_0101_S021_A0466_CMP_V03 V     C        00:00:04:04 00:00:10:07 02:07:19:20 02:07:25:23
* FROM CLIP NAME:  TOA_0101_s021_A0466_CMP_V03.[0100-0246].exr
088  TOA_0101_S021_A0467_CMP_V02 V     C        00:00:04:04 00:00:05:12 02:07:25:23 02:07:27:07
* FROM CLIP NAME:  TOA_0101_s021_A0467_CMP_V02.[0100-0131].exr
089  TOA_0101_S021_A0468_CMP_V03 V     C        00:00:04:04 00:00:12:01 02:07:27:07 02:07:35:04
* FROM CLIP NAME:  TOA_0101_s021_A0468_CMP_V03.[0100-0288].exr
090  TOA_0101_S021_A0471_CMP_V03 V     C        00:00:04:04 00:00:12:09 02:07:35:04 02:07:43:09
* FROM CLIP NAME:  TOA_0101_s021_A0471_CMP_V03.[0100-0296].exr
091  TOA_0101_S021_A0471A_CMP_V03 V     C        00:00:04:04 00:00:14:00 02:07:43:09 02:07:53:05
* FROM CLIP NAME:  TOA_0101_s021_A0471A_CMP_V03.[0100-0335].exr
092  TOA_0101_S021_A0479A_CMP_V04 V     C        00:00:04:04 00:00:08:12 02:07:53:05 02:07:57:13
* FROM CLIP NAME:  TOA_0101_s021_A0479A_CMP_V04.[0100-0203].exr
093  TOA_0101_S021_A0481_CMP_V02 V     C        00:00:04:04 00:00:07:07 02:07:57:13 02:08:00:16
* FROM CLIP NAME:  TOA_0101_s021_A0481_CMP_V02.[0100-0174].exr
094  TOA_0101_S021_A0481A_CMP_V01 V     C        00:00:04:04 00:00:08:14 02:08:00:16 02:08:05:02
* FROM CLIP NAME:  TOA_0101_s021_A0481A_CMP_V01.[0100-0205].exr
095  TOA_0101_S021_A0483_CMP_V02 V     C        00:00:04:04 00:00:08:01 02:08:05:02 02:08:08:23
* FROM CLIP NAME:  TOA_0101_s021_A0483_CMP_V02.[0100-0192].exr
096  TOA_0101_S021_A0483A_CMP_V03 V     C        00:00:04:04 00:00:08:13 02:08:08:23 02:08:13:08
* FROM CLIP NAME:  TOA_0101_s021_A0483A_CMP_V03.[0100-0204].exr
097  TOA_0101_S021_A0487_CMP_V03 V     C        00:00:04:04 00:00:08:13 02:08:13:08 02:08:17:17
* FROM CLIP NAME:  TOA_0101_s021_A0487_CMP_V03.[0100-0204].exr
098  TOA_0101_S021_A0491_CMP_V05 V     C        00:00:04:04 00:00:31:09 02:08:17:17 02:08:44:22
* FROM CLIP NAME:  TOA_0101_s021_A0491_CMP_V05.[0100-0753].exr
099  TOA_0101_S021_A0496_CMP_V02 V     C        00:00:04:04 00:00:05:19 02:08:44:22 02:08:46:13
* FROM CLIP NAME:  TOA_0101_s021_A0496_CMP_V02.[0100-0138].exr
100  TOA_0101_S021_A0497_CMP_V04 V     C        00:00:04:04 00:00:07:11 02:08:46:13 02:08:49:20
* FROM CLIP NAME:  TOA_0101_S021_A0497_CMP_V04.[0100-0178].exr
101  TOA_0101_S022_A0498_CMP_V05 V     C        00:00:04:04 00:00:05:01 02:08:49:20 02:08:50:17
* FROM CLIP NAME:  TOA_0101_s022_A0498_CMP_V05.[0100-0120].exr
102  TOA_0101_S022_A0499_CMP_V03 V     C        00:00:04:04 00:00:08:12 02:08:50:17 02:08:55:01
* FROM CLIP NAME:  TOA_0101_s022_A0499_CMP_V03.[0100-0203].exr
103  TOA_0101_S022_A0502_CMP_V05 V     C        00:00:04:04 00:00:06:17 02:08:55:01 02:08:57:14
* FROM CLIP NAME:  TOA_0101_s022_A0502_CMP_V05.[0100-0160].exr
104  TOA_0101_S022_A0503_CMP_V03 V     C        00:00:04:04 00:00:05:10 02:08:57:14 02:08:58:20
* FROM CLIP NAME:  TOA_0101_s022_A0503_CMP_V03.[0100-0129].exr
105  TOA_0101_S022_A0504_CMP_V06 V     C        00:00:04:04 00:00:06:22 02:08:58:20 02:09:01:14
* FROM CLIP NAME:  TOA_0101_s022_A0504_CMP_V06.[0100-0165].exr
106  TOA_0101_S022_A0505_CMP_V03 V     C        00:00:04:04 00:00:05:14 02:09:01:14 02:09:03:00
* FROM CLIP NAME:  TOA_0101_s022_A0505_CMP_V03.[0100-0133].exr
107  TOA_0101_S022_A0506_CMP_V06 V     C        00:00:04:04 00:00:05:21 02:09:03:00 02:09:04:17
* FROM CLIP NAME:  TOA_0101_s022_A0506_CMP_V06.[0100-0140].exr
108  TOA_0101_S022_A0507_CMP_V04 V     C        00:00:04:04 00:00:06:00 02:09:04:17 02:09:06:13
* FROM CLIP NAME:  TOA_0101_s022_A0507_CMP_V04.[0100-0143].exr
109  TOA_0101_S022_A0508_CMP_V04 V     C        00:00:04:04 00:00:05:04 02:09:06:13 02:09:07:13
* FROM CLIP NAME:  TOA_0101_s022_A0508_CMP_V04.[0100-0123].exr
110  TOA_0101_S023_A0509_CMP_V03 V     C        00:00:04:04 00:00:05:15 02:09:07:13 02:09:09:00
* FROM CLIP NAME:  TOA_0101_S023_A0509_CMP_V03.[0100-0134].exr
111  TOA_0101_S023_A0510_CMP_V03 V     C        00:00:04:04 00:00:07:14 02:09:09:00 02:09:12:10
* FROM CLIP NAME:  TOA_0101_S023_A0510_CMP_V03.[0100-0181].exr
112  TOA_0101_S023_A0512_CMP_V02 V     C        00:00:04:04 00:00:06:09 02:09:12:10 02:09:14:15
* FROM CLIP NAME:  TOA_0101_s023_A0512_CMP_V02.[0100-0152].exr
113  TOA_0101_S023_A0514_CMP_V03 V     C        00:00:04:04 00:00:06:06 02:09:14:15 02:09:16:17
* FROM CLIP NAME:  TOA_0101_S023_A0514_CMP_V03.[0100-0149].exr
114  TOA_0101_S024_A0515_CMP_V03 V     C        00:00:04:04 00:00:05:08 02:09:16:17 02:09:17:21
* FROM CLIP NAME:  TOA_0101_s024_A0515_CMP_V03.[0100-0127].exr
115  TOA_0101_S024_A0516_CMP_V02 V     C        00:00:04:04 00:00:05:23 02:09:17:21 02:09:19:16
* FROM CLIP NAME:  TOA_0101_s024_A0516_CMP_V02.[0100-0142].exr
116  TOA_0101_S024_A0517_CMP_V02 V     C        00:00:04:04 00:00:05:04 02:09:19:16 02:09:20:16
* FROM CLIP NAME:  TOA_0101_s024_A0517_CMP_V02.[0100-0123].exr
117  TOA_0101_S024_A0518_CMP_V03 V     C        00:00:04:04 00:00:06:04 02:09:20:16 02:09:22:16
* FROM CLIP NAME:  TOA_0101_s024_A0518_CMP_V03.[0100-0147].exr
118  TOA_0101_S024_A0519_CMP_V03 V     C        00:00:04:04 00:00:06:20 02:09:22:16 02:09:25:08
* FROM CLIP NAME:  TOA_0101_s024_A0519_CMP_V03.[0100-0163].exr
119  TOA_0101_S024_A0520_CMP_V03 V     C        00:00:04:04 00:00:06:09 02:09:25:08 02:09:27:13
* FROM CLIP NAME:  TOA_0101_s024_A0520_CMP_V03.[0100-0152].exr
120  TOA_0101_S024_A0521_CMP_V02 V     C        00:00:04:04 00:00:05:20 02:09:27:13 02:09:29:05
* FROM CLIP NAME:  TOA_0101_s024_A0521_CMP_V02.[0100-0139].exr
121  TOA_0101_S024_A0523_CMP_V03 V     C        00:00:04:04 00:00:05:17 02:09:29:05 02:09:30:18
* FROM CLIP NAME:  TOA_0101_s024_A0523_CMP_V03.[0100-0136].exr
122  TOA_0101_S024_A0524_CMP_V02 V     C        00:00:04:04 00:00:05:05 02:09:30:18 02:09:31:19
* FROM CLIP NAME:  TOA_0101_s024_A0524_CMP_V02.[0100-0124].exr
123  TOA_0101_S024_A0525_CMP_V02 V     C        00:00:04:07 00:00:05:14 02:09:31:19 02:09:33:02
* FROM CLIP NAME:  TOA_0101_s024_A0525_CMP_V02.[0100-0133].exr
124  TOA_0101_S024_A0526_CMP_V06 V     C        00:00:04:04 00:00:06:20 02:09:33:05 02:09:35:21
* FROM CLIP NAME:  TOA_0101_s024_A0526_CMP_V06.[0100-0163].exr
125  TOA_0101_S024_A0527_CMP_V08 V     C        00:00:04:04 00:00:05:07 02:09:35:21 02:09:37:00
* FROM CLIP NAME:  TOA_0101_s024_A0527_CMP_V08.[0100-0126].exr
126  TOA_0101_S024_A0529_CMP_V02 V     C        00:00:04:04 00:00:13:06 02:09:37:00 02:09:46:02
* FROM CLIP NAME:  TOA_0101_s024_A0529_CMP_V02.[0100-0317].exr
127  TOA_0101_S024_A0530_CMP_V05 V     C        00:00:04:04 00:00:05:10 02:09:46:02 02:09:47:08
* FROM CLIP NAME:  TOA_0101_s024_A0530_CMP_V05.[0100-0129].exr
128  TOA_0101_S024_A0531_CMP_V05 V     C        00:00:04:04 00:00:11:21 02:09:47:08 02:09:55:01
* FROM CLIP NAME:  TOA_0101_s024_A0531_CMP_V05.[0100-0284].exr
129  TOA_0101_S024_A0532_CMP_V06 V     C        00:00:04:04 00:00:05:19 02:09:55:01 02:09:56:16
* FROM CLIP NAME:  TOA_0101_s024_A0532_CMP_V06.[0100-0138].exr
130  TOA_0101_S024_A0533_CMP_V02 V     C        00:00:04:04 00:00:14:07 02:09:56:16 02:10:06:19
* FROM CLIP NAME:  TOA_0101_s024_A0533_CMP_V02.[0100-0342].exr
131  TOA_0101_S024_A0534_CMP_V03 V     C        00:00:04:04 00:00:15:01 02:10:06:19 02:10:17:16
* FROM CLIP NAME:  TOA_0101_s024_A0534_CMP_V03.[0100-0360].exr
132  TOA_0101_S024_A0535_CMP_V02 V     C        00:00:04:04 00:00:07:13 02:10:17:16 02:10:21:01
* FROM CLIP NAME:  TOA_0101_s024_A0535_CMP_V02.[0100-0180].exr
133  TOA_0101_S024_A0536_CMP_V06 V     C        00:00:04:04 00:00:07:19 02:10:21:01 02:10:24:16
* FROM CLIP NAME:  TOA_0101_s024_A0536_CMP_V06.[0100-0186].exr
134  TOA_0101_S024_A0537_CMP_V04 V     C        00:00:04:04 00:00:06:19 02:10:24:16 02:10:27:07
* FROM CLIP NAME:  TOA_0101_s024_A0537_CMP_V04.[0100-0162].exr
135  TOA_0101_S024_A0538_CMP_V08 V     C        00:00:04:04 00:00:06:06 02:10:27:07 02:10:29:09
* FROM CLIP NAME:  TOA_0101_s024_A0538_CMP_V08.[0100-0149].exr
136  TOA_0101_S024_A0539_CMP_V03 V     C        00:00:04:04 00:00:07:20 02:10:29:09 02:10:33:01
* FROM CLIP NAME:  TOA_0101_s024_A0539_CMP_V03.[0100-0187].exr
137  TOA_0101_S024_A0540_CMP_V02 V     C        00:00:04:04 00:00:07:15 02:10:33:01 02:10:36:12
* FROM CLIP NAME:  TOA_0101_s024_A0540_CMP_V02.[0100-0182].exr
138  TOA_0101_S024_A0541_CMP_V02 V     C        00:00:04:04 00:00:06:09 02:10:36:12 02:10:38:17
* FROM CLIP NAME:  TOA_0101_s024_A0541_CMP_V02.[0100-0152].exr
139  TOA_0101_S024_A0542_CMP_V05 V     C        00:00:04:04 00:00:07:12 02:10:38:17 02:10:42:01
* FROM CLIP NAME:  TOA_0101_s024_A0542_CMP_V05.[0100-0179].exr
140  TOA_0101_S024_A0543_CMP_V04 V     C        00:00:04:04 00:00:06:07 02:10:42:01 02:10:44:04
* FROM CLIP NAME:  TOA_0101_s024_A0543_CMP_V04.[0100-0150].exr
141  TOA_0101_S024_A0544_CMP_V06 V     C        00:00:04:04 00:00:08:17 02:10:44:04 02:10:48:17
* FROM CLIP NAME:  TOA_0101_s024_A0544_CMP_V06.[0100-0208].exr
142  TOA_0101_S024_A0545_CMP_V04 V     C        00:00:04:04 00:00:06:22 02:10:48:17 02:10:51:11
* FROM CLIP NAME:  TOA_0101_s024_A0545_CMP_V04.[0100-0165].exr
143  TOA_0101_S024_A0546_CMP_V05 V     C        00:00:04:04 00:00:05:17 02:10:51:11 02:10:53:00
* FROM CLIP NAME:  TOA_0101_s024_A0546_CMP_V05.[0100-0136].exr
144  TOA_0101_S024_A0547_CMP_V02 V     C        00:00:04:04 00:00:06:00 02:10:53:00 02:10:54:20
* FROM CLIP NAME:  TOA_0101_s024_A0547_CMP_V02.[0100-0143].exr
145  TOA_0101_S024_A0548_CMP_V07 V     C        00:00:04:04 00:00:07:09 02:10:54:20 02:10:58:01
* FROM CLIP NAME:  TOA_0101_s024_A0548_CMP_V07.[0100-0176].exr
146  TOA_0101_S024_A0549_CMP_V08 V     C        00:00:04:04 00:00:07:05 02:10:58:01 02:11:01:02
* FROM CLIP NAME:  TOA_0101_s024_A0549_CMP_V08.[0100-0172].exr
147  TOA_0101_S024_A0550_CMP_V02 V     C        00:00:04:04 00:00:07:05 02:11:01:02 02:11:04:03
* FROM CLIP NAME:  TOA_0101_s024_A0550_CMP_V02.[0100-0172].exr
148  TOA_0101_S024_A0551_CMP_V07 V     C        00:00:04:06 00:00:07:13 02:11:04:03 02:11:07:10
* FROM CLIP NAME:  TOA_0101_s024_A0551_CMP_V07.[0100-0180].exr
149  TOA_0101_S024_A0552_CMP_V04 V     C        00:00:04:04 00:00:05:13 02:11:07:12 02:11:08:21
* FROM CLIP NAME:  TOA_0101_s024_A0552_CMP_V04.[0100-0132].exr
150  TOA_0101_S024_A0553_CMP_V03 V     C        00:00:04:04 00:00:16:01 02:11:08:21 02:11:20:18
* FROM CLIP NAME:  TOA_0101_s024_A0553_CMP_V03.[0100-0384].exr
151  TOA_0101_S024_A0554_CMP_V04 V     C        00:00:04:04 00:00:09:07 02:11:20:18 02:11:25:21
* FROM CLIP NAME:  TOA_0101_S024_A0554_CMP_V04.[0100-0222].exr
152  TOA_0101_S024_A0557_CMP_V03 V     C        00:00:04:04 00:00:06:05 02:11:25:21 02:11:27:22
* FROM CLIP NAME:  TOA_0101_s024_A0557_CMP_V03.[0100-0148].exr
153  TOA_0101_S024_A0558_CMP_V03 V     C        00:00:04:04 00:00:07:10 02:11:27:22 02:11:31:04
* FROM CLIP NAME:  TOA_0101_S024_A0558_CMP_V03.[0100-0177].exr
154  TOA_0101_S024_A0559_CMP_V03 V     C        00:00:04:04 00:00:05:13 02:11:31:04 02:11:32:13
* FROM CLIP NAME:  TOA_0101_s024_A0559_CMP_V03.[0100-0132].exr
155  TOA_0101_S025_A0560_CMP_V04 V     C        00:00:04:04 00:00:08:16 02:11:32:13 02:11:37:01
* FROM CLIP NAME:  TOA_0101_s025_A0560_CMP_V04.[0100-0207].exr
156  TOA_0101_S025_A0561_CMP_V03 V     C        00:00:04:04 00:00:10:15 02:11:37:01 02:11:43:12
* FROM CLIP NAME:  TOA_0101_s025_A0561_CMP_V03.[0100-0254].exr
157  TOA_0101_S025_A0563_CMP_V04 V     C        00:00:04:04 00:00:11:02 02:11:43:12 02:11:50:10
* FROM CLIP NAME:  TOA_0101_s025_A0563_CMP_V04.[0100-0265].exr
158  TOA_0101_S025_A0565_CMP_V03 V     C        00:00:04:08 00:00:07:09 02:11:50:10 02:11:53:11
* FROM CLIP NAME:  TOA_0101_s025_A0565_CMP_V03.[0104-0176].exr
159  TOA_0101_S025_A0566_CMP_V02 V     C        00:00:04:04 00:00:05:20 02:11:53:11 02:11:55:03
* FROM CLIP NAME:  TOA_0101_s025_A0566_CMP_V02.[0100-0139].exr
160  TOA_0101_S025_A0567_CMP_V03 V     C        00:00:04:04 00:00:06:12 02:11:55:03 02:11:57:11
* FROM CLIP NAME:  TOA_0101_s025_A0567_CMP_V03.[0100-0155].exr
161  TOA_0101_S025_A0568_CMP_V02 V     C        00:00:04:04 00:00:11:17 02:11:57:11 02:12:05:00
* FROM CLIP NAME:  TOA_0101_s025_A0568_CMP_V02.[0100-0280].exr
162  TOA_0101_S025_A0569_CMP_V02 V     C        00:00:04:04 00:00:08:12 02:12:05:00 02:12:09:08
* FROM CLIP NAME:  TOA_0101_s025_A0569_CMP_V02.[0100-0203].exr
163  TOA_0101_S025_A0569A_CMP_V03 V     C        00:00:04:04 00:00:09:14 02:12:09:08 02:12:14:18
* FROM CLIP NAME:  TOA_0101_s025_A0569A_CMP_V03.[0100-0229].exr
164  TOA_0101_S025_A0569B_CMP_V02 V     C        00:00:04:04 00:00:09:05 02:12:14:18 02:12:19:19
* FROM CLIP NAME:  TOA_0101_s025_A0569B_CMP_V02.[0100-0220].exr
165  TOA_0101_S025_A0579_CMP_V02 V     C        00:00:04:04 00:00:14:01 02:12:19:19 02:12:29:16
* FROM CLIP NAME:  TOA_0101_s025_A0579_CMP_V02.[0100-0336].exr
166  TOA_0101_S025_A0583_CMP_V01 V     C        00:00:04:04 00:00:08:20 02:12:29:16 02:12:34:08
* FROM CLIP NAME:  TOA_0101_s025_A0583_CMP_V01.[0100-0211].exr
167  TOA_0101_S025_A0585_CMP_V04 V     C        00:00:04:04 00:00:05:15 02:12:34:08 02:12:35:19
* FROM CLIP NAME:  TOA_0101_s025_A0585_CMP_V04.[0100-0134].exr
168  TOA_0101_S025_A0586_CMP_V03 V     C        00:00:04:04 00:00:06:04 02:12:35:19 02:12:37:19
* FROM CLIP NAME:  TOA_0101_s025_A0586_CMP_V03.[0100-0147].exr
169  TOA_0101_S025_A0587_CMP_V03 V     C        00:00:04:04 00:00:06:02 02:12:37:19 02:12:39:17
* FROM CLIP NAME:  TOA_0101_s025_A0587_CMP_V03.[0100-0145].exr
170  TOA_0101_S025_A0588_CMP_V02 V     C        00:00:04:16 00:00:07:07 02:12:39:17 02:12:42:08
* FROM CLIP NAME:  TOA_0101_s025_A0588_CMP_V02.[0112-0174].exr
171  TOA_0101_S025_A0589_CMP_V01 V     C        00:00:04:04 00:00:06:14 02:12:42:08 02:12:44:18
* FROM CLIP NAME:  TOA_0101_s025_A0589_CMP_V01.[0100-0157].exr
172  TOA_0101_S025_A0590_CMP_V03 V     C        00:00:04:04 00:00:06:04 02:12:44:18 02:12:46:18
* FROM CLIP NAME:  TOA_0101_s025_A0590_CMP_V03.[0100-0147].exr
173  TOA_0101_S025_A0592_CMP_V03 V     C        00:00:04:19 00:00:08:05 02:12:46:18 02:12:50:04
* FROM CLIP NAME:  TOA_0101_s025_A0592_CMP_V03.[0115-0196].exr
174  TOA_0101_S025_A0594_CMP_V02 V     C        00:00:04:04 00:00:05:18 02:12:50:04 02:12:51:18
* FROM CLIP NAME:  TOA_0101_s025_A0594_CMP_V02.[0100-0137].exr
175  TOA_0101_S025_A0595_CMP_V02 V     C        00:00:04:04 00:00:11:23 02:12:51:18 02:12:59:13
* FROM CLIP NAME:  TOA_0101_s025_A0595_CMP_V02.[0100-0286].exr
176  TOA_0101_S026_A0597_CMP_V02 V     C        00:00:04:09 00:00:06:22 02:12:59:13 02:13:02:02
* FROM CLIP NAME:  TOA_0101_s026_A0597_CMP_V02.[0105-0165].exr
177  TOA_0101_S026_A0599_CMP_V04 V     C        00:00:04:04 00:00:05:22 02:13:02:02 02:13:03:20
* FROM CLIP NAME:  TOA_0101_s026_A0599_CMP_V04.[0100-0141].exr
178  TOA_0101_S026_A0600_CMP_V04 V     C        00:00:04:04 00:00:09:11 02:13:03:20 02:13:09:03
* FROM CLIP NAME:  TOA_0101_S026_A0600_CMP_V04.[0100-0226].exr
179  TOA_0101_S026_A0602_CMP_V03 V     C        00:00:04:04 00:00:07:00 02:13:09:03 02:13:11:23
* FROM CLIP NAME:  TOA_0101_s026_A0602_CMP_V03.[0100-0167].exr
180  TOA_0101_S026_A0603_CMP_V03 V     C        00:00:04:04 00:00:06:04 02:13:11:23 02:13:13:23
* FROM CLIP NAME:  TOA_0101_s026_A0603_CMP_V03.[0100-0147].exr
181  TOA_0101_S026_A0603A_CMP_V03 V     C        00:00:04:04 00:00:05:18 02:13:13:23 02:13:15:13
* FROM CLIP NAME:  TOA_0101_s026_A0603A_CMP_V03.[0100-0137].exr
182  TOA_0101_S026_A0606_CMP_V03 V     C        00:00:04:04 00:00:08:08 02:13:15:13 02:13:19:17
* FROM CLIP NAME:  TOA_0101_s026_A0606_CMP_V03.[0100-0199].exr
183  TOA_0101_S026_A0610_CMP_V04 V     C        00:00:04:04 00:00:12:16 02:13:19:17 02:13:28:05
* FROM CLIP NAME:  TOA_0101_S026_A0610_CMP_V04.[0100-0303].exr
184  TOA_0101_S026_A0611_CMP_V05 V     C        00:00:04:04 00:00:06:04 02:13:28:05 02:13:30:05
* FROM CLIP NAME:  TOA_0101_S026_A0611_CMP_V05.[0100-0147].exr
185  TOA_0101_S026_A0612_CMP_V03 V     C        00:00:04:04 00:00:07:00 02:13:30:05 02:13:33:01
* FROM CLIP NAME:  TOA_0101_s026_A0612_CMP_V03.[0100-0167].exr
186  TOA_0101_S026_A0612A_CMP_V03 V     C        00:00:04:04 00:00:06:15 02:13:33:01 02:13:35:12
* FROM CLIP NAME:  TOA_0101_s026_A0612A_CMP_V03.[0100-0158].exr
187  TOA_0101_S026_A0612B_CMP_V04 V     C        00:00:04:04 00:00:06:21 02:13:35:12 02:13:38:05
* FROM CLIP NAME:  TOA_0101_s026_A0612B_CMP_V04.[0100-0164].exr
188  TOA_0101_S026_A0613_CMP_V02 V     C        00:00:04:04 00:00:05:10 02:13:38:05 02:13:39:11
* FROM CLIP NAME:  TOA_0101_s026_A0613_CMP_V02.[0100-0129].exr
189  TOA_0101_S026_A0615_CMP_V04 V     C        00:00:04:04 00:00:06:07 02:13:39:11 02:13:41:14
* FROM CLIP NAME:  TOA_0101_s026_A0615_CMP_V04.[0100-0150].exr
190  TOA_0101_S026_A0616_CMP_V02 V     C        00:00:04:04 00:00:06:23 02:13:41:14 02:13:44:09
* FROM CLIP NAME:  TOA_0101_s026_A0616_CMP_V02.[0100-0166].exr
191  TOA_0101_S026_A0617_CMP_V02 V     C        00:00:04:04 00:00:06:08 02:13:44:09 02:13:46:13
* FROM CLIP NAME:  TOA_0101_s026_A0617_CMP_V02.[0100-0151].exr
192  TOA_0101_S026_A0617A_CMP_V02 V     C        00:00:04:04 00:00:05:13 02:13:46:13 02:13:47:22
* FROM CLIP NAME:  TOA_0101_s026_A0617A_CMP_V02.[0100-0132].exr
193  TOA_0101_S026_A0618_CMP_V03 V     C        00:00:04:04 00:00:09:22 02:13:47:22 02:13:53:16
* FROM CLIP NAME:  TOA_0101_s026_A0618_CMP_V03.[0100-0237].exr
194  TOA_0101_S026_A0618B_CMP_V03 V     C        00:00:04:04 00:00:06:20 02:13:53:16 02:13:56:08
* FROM CLIP NAME:  TOA_0101_s026_A0618B_CMP_V03.[0100-0163].exr
195  TOA_0101_S026_A0618C_CMP_V02 V     C        00:00:04:04 00:00:08:04 02:13:56:08 02:14:00:08
* FROM CLIP NAME:  TOA_0101_s026_A0618C_CMP_V02.[0100-0195].exr
196  TOA_0101_S026_A0624_CMP_V05 V     C        00:00:04:04 00:00:06:04 02:14:00:08 02:14:02:08
* FROM CLIP NAME:  TOA_0101_s026_A0624_CMP_V05.[0100-0147].exr
197  TOA_0101_S026_A0625_CMP_V02 V     C        00:00:04:04 00:00:05:00 02:14:02:08 02:14:03:04
* FROM CLIP NAME:  TOA_0101_s026_A0625_CMP_V02.[0100-0119].exr
198  TOA_0101_S026_A0626_CMP_V03 V     C        00:00:04:04 00:00:05:00 02:14:03:04 02:14:04:00
* FROM CLIP NAME:  TOA_0101_s026_A0626_CMP_V03.[0100-0119].exr
199  TOA_0101_S026_A0627_CMP_V04 V     C        00:00:04:04 00:00:06:15 02:14:04:00 02:14:06:11
* FROM CLIP NAME:  TOA_0101_s026_A0627_CMP_V04.[0100-0158].exr
200  TOA_0101_S026_A0628A_CMP_V02 V     C        00:00:04:04 00:00:06:21 02:14:06:11 02:14:09:04
* FROM CLIP NAME:  TOA_0101_s026_A0628A_CMP_V02.[0100-0164].exr
201  TOA_0101_S026_A0629_CMP_V03 V     C        00:00:04:04 00:00:06:02 02:14:09:04 02:14:11:02
* FROM CLIP NAME:  TOA_0101_s026_A0629_CMP_V03.[0100-0145].exr
202  TOA_0101_S026_A0634_CMP_V05 V     C        00:00:04:04 00:00:05:18 02:14:11:02 02:14:12:16
* FROM CLIP NAME:  TOA_0101_S026_A0634_CMP_V05.[0100-0137].exr
203  TOA_0101_S026_A0634A_CMP_V04 V     C        00:00:04:04 00:00:05:12 02:14:12:16 02:14:14:00
* FROM CLIP NAME:  TOA_0101_s026_A0634A_CMP_V04.[0100-0131].exr
204  TOA_0101_S026_A0634B_CMP_V03 V     C        00:00:04:04 00:00:05:12 02:14:14:00 02:14:15:08
* FROM CLIP NAME:  TOA_0101_s026_A0634B_CMP_V03.[0100-0131].exr
205  TOA_0101_S026_A0634C_CMP_V03 V     C        00:00:04:04 00:00:05:12 02:14:15:08 02:14:16:16
* FROM CLIP NAME:  TOA_0101_s026_A0634C_CMP_V03.[0100-0131].exr
206  TOA_0101_S026_A0634D_CMP_V04 V     C        00:00:04:04 00:00:07:11 02:14:16:16 02:14:19:23
* FROM CLIP NAME:  TOA_0101_s026_A0634D_CMP_V04.[0100-0188].exr
207  TOA_0101_S026_A0634D_CMP_V04 V     C        00:00:07:11 00:00:07:11 02:14:19:23 02:14:19:23
207  TOA_0101_S026_A0635_CMP_V02 V     D 033    00:00:04:14 00:00:05:23 02:14:19:23 02:14:21:08
* FROM CLIP NAME:  TOA_0101_s026_A0634D_CMP_V04.[0100-0188].exr
* TO CLIP NAME:  TOA_0101_s026_A0635_CMP_V02.[0110-0142].exr
208  TOA_0101_S026_A0636_CMP_V03 V     C        00:00:04:04 00:00:09:04 02:14:21:08 02:14:26:08
* FROM CLIP NAME:  TOA_0101_s026_A0636_CMP_V03.[0100-0220].exr
209  TOA_0101_S026_A0638_CMP_V04 V     C        00:00:04:04 00:00:07:09 02:14:26:08 02:14:29:13
* FROM CLIP NAME:  TOA_0101_s026_A0638_CMP_V04.[0100-0176].exr
210  TOA_0101_S026_A0638A_CMP_V03 V     C        00:00:04:04 00:00:09:17 02:14:29:13 02:14:35:02
* FROM CLIP NAME:  TOA_0101_s026_A0638A_CMP_V03.[0100-0232].exr
211  TOA_0101_S026_A0638B_CMP_V02 V     C        00:00:04:04 00:00:09:01 02:14:35:02 02:14:39:23
* FROM CLIP NAME:  TOA_0101_s026_A0638B_CMP_V02.[0100-0256].exr
212  TOA_0101_S026_A0638B_CMP_V02 V     C        00:00:09:01 00:00:09:01 02:14:39:23 02:14:39:23
212  BL       V     C        00:00:00:00 00:00:00:00 02:14:39:23 02:14:39:23
* FROM CLIP NAME:  TOA_0101_s026_A0638B_CMP_V02.[0100-0256].exr
