TITLE: TOA_Reel_01_ONLINE
FCM: NON-DROP FRAME

001  Head Leader V     C        01:00:00:00 01:00:02:00 00:59:58:00 01:00:00:00  
* FROM CLIP NAME: TOA_2_Pop.mov

002  TOA_0101_s001_A0001_CMP_V05 V     C        00:00:04:04 00:00:08:07 01:00:05:14 01:00:09:17  
* FROM CLIP NAME: TOA_0101_s001_A0001_CMP_V05.[0100-0198].exr

003  TOA_0101_S001_A0002_CMP_V04 V     C        00:00:04:04 00:00:06:00 01:00:09:17 01:00:11:13  
* FROM CLIP NAME: TOA_0101_s001_A0002_CMP_V04.[0100-0143].exr

004  TOA_0101_S001_A0003_CMP_V02 V     C        00:00:04:04 00:00:06:16 01:00:11:13 01:00:14:01  
* FROM CLIP NAME: TOA_0101_s001_A0003_CMP_V02.[0100-0159].exr

005  TOA_0101_S001_A0004_CMP_V03 V     C        00:00:04:04 00:00:06:02 01:00:14:01 01:00:15:23  
* FROM CLIP NAME: TOA_0101_s001_A0004_CMP_V03.[0100-0145].exr

006  TOA_0101_S001_A0005_CMP_V04 V     C        00:00:04:04 00:00:11:01 01:00:15:23 01:00:22:20  
* FROM CLIP NAME: TOA_0101_s001_A0005_CMP_V04.[0100-0264].exr

007  TOA_0101_S001_A0006_CMP_V03 V     C        00:00:04:04 00:00:05:13 01:00:22:20 01:00:24:05  
* FROM CLIP NAME: TOA_0101_s001_A0006_CMP_V03.[0100-0132].exr

008  TOA_0101_S002_A0007_CMP_V03 V     C        00:00:04:04 00:00:05:23 01:00:24:05 01:00:26:00  
* FROM CLIP NAME: TOA_0101_s002_A0007_CMP_V03.[0100-0142].exr

009  TOA_0101_S002_A0008_CMP_V04 V     C        00:00:04:08 00:00:06:11 01:00:26:00 01:00:28:03  
* FROM CLIP NAME: TOA_0101_s002_A0008_CMP_V04.[0104-0154].exr

010  TOA_0101_S002_A0009_CMP_V03 V     C        00:00:04:04 00:00:09:19 01:00:28:03 01:00:33:18  
* FROM CLIP NAME: TOA_0101_s002_A0009_CMP_V03.[0100-0234].exr

011  TOA_0101_S002_A0010_CMP_V02 V     C        00:00:04:04 00:00:06:13 01:00:33:18 01:00:36:03  
* FROM CLIP NAME: TOA_0101_s002_A0010_CMP_V02.[0100-0156].exr

012  TOA_0101_S002_A0011_CMP_V05 V     C        00:00:04:04 00:00:06:16 01:00:36:03 01:00:38:15  
* FROM CLIP NAME: TOA_0101_s002_A0011_CMP_V05.[0100-0159].exr

013  TOA_0101_S002_A0014_CMP_V04 V     C        00:00:04:04 00:00:08:19 01:00:38:15 01:00:43:06  
* FROM CLIP NAME: TOA_0101_s002_A0014_CMP_V04.[0100-0210].exr

014  TOA_0101_S002_A0015_CMP_V03 V     C        00:00:04:04 00:00:07:00 01:00:43:06 01:00:46:02  
* FROM CLIP NAME: TOA_0101_s002_A0015_CMP_V03.[0100-0167].exr

015  TOA_0101_S002_A0016_CMP_V03 V     C        00:00:04:04 00:00:06:19 01:00:46:02 01:00:48:17  
* FROM CLIP NAME: TOA_0101_s002_A0016_CMP_V03.[0100-0162].exr

016  TOA_0101_S002_A0017_CMP_V05 V     C        00:00:04:04 00:00:09:04 01:00:48:17 01:00:53:17  
* FROM CLIP NAME: TOA_0101_s002_A0017_CMP_V05.[0100-0219].exr

017  TOA_0101_S002_A0018_CMP_V06 V     C        00:00:04:04 00:00:06:15 01:00:53:17 01:00:56:04  
* FROM CLIP NAME: TOA_0101_s002_A0018_CMP_V06.[0100-0158].exr

018  TOA_0101_S002_A0020_CMP_V04 V     C        00:00:04:04 00:00:06:09 01:00:56:04 01:00:58:09  
* FROM CLIP NAME: TOA_0101_s002_A0020_CMP_V04.[0100-0152].exr

019  TOA_0101_S002_A0021_CMP_V04 V     C        00:00:04:04 00:00:06:13 01:00:58:09 01:01:00:18  
* FROM CLIP NAME: TOA_0101_s002_A0021_CMP_V04.[0100-0156].exr

020  TOA_0101_S002_A0022_CMP_V03 V     C        00:00:04:04 00:00:06:01 01:01:00:18 01:01:02:15  
* FROM CLIP NAME: TOA_0101_s002_A0022_CMP_V03.[0100-0144].exr

021  TOA_0101_S002_A0023_CMP_V04 V     C        00:00:04:04 00:00:05:10 01:01:02:15 01:01:03:21  
* FROM CLIP NAME: TOA_0101_s002_A0023_CMP_V04.[0100-0129].exr

022  TOA_0101_S002_A0024_CMP_V03 V     C        00:00:04:04 00:00:06:02 01:01:03:21 01:01:05:19  
* FROM CLIP NAME: TOA_0101_s002_A0024_CMP_V03.[0100-0145].exr

023  TOA_0101_S002_A0025_CMP_V03 V     C        00:00:04:04 00:00:06:04 01:01:05:19 01:01:07:19  
* FROM CLIP NAME: TOA_0101_s002_A0025_CMP_V03.[0100-0147].exr

024  TOA_0101_S002_A0026_CMP_V04 V     C        00:00:04:04 00:00:04:19 01:01:07:19 01:01:08:10  
* FROM CLIP NAME: TOA_0101_s002_A0026_CMP_V04.[0100-0114].exr

025  TOA_0101_S002_A0027_CMP_V03 V     C        00:00:04:04 00:00:04:22 01:01:08:10 01:01:09:04  
* FROM CLIP NAME: TOA_0101_s002_A0027_CMP_V03.[0100-0117].exr

026  TOA_0101_S002_A0028_CMP_V03 V     C        00:00:04:04 00:00:05:07 01:01:09:04 01:01:10:07  
* FROM CLIP NAME: TOA_0101_s002_A0028_CMP_V03.[0100-0126].exr

027  TOA_0101_S002_A0029_CMP_V09 V     C        00:00:04:04 00:00:04:23 01:01:10:07 01:01:11:02  
* FROM CLIP NAME: TOA_0101_S002_A0029_CMP_V09.[0100-0118].exr

028  TOA_0101_S002_A0030_CMP_V06 V     C        00:00:04:04 00:00:05:02 01:01:11:02 01:01:12:00  
* FROM CLIP NAME: TOA_0101_S002_A0030_CMP_V06.[0100-0121].exr

029  TOA_0101_S002_A0031_CMP_V05 V     C        00:00:04:04 00:00:04:18 01:01:12:00 01:01:12:14  
* FROM CLIP NAME: TOA_0101_S002_A0031_CMP_V05.[0100-0113].exr

030  TOA_0101_S002_A0032_CMP_V07 V     C        00:00:04:04 00:00:07:09 01:01:12:14 01:01:15:19  
* FROM CLIP NAME: TOA_0101_S002_A0032_CMP_V07.[0100-0176].exr

031  TOA_0101_S002_A0033_CMP_V07 V     C        00:00:04:04 00:00:05:19 01:01:15:19 01:01:17:10  
* FROM CLIP NAME: TOA_0101_S002_A0033_CMP_V07.[0100-0138].exr

032  TOA_0101_S002_A0034_CMP_V05 V     C        00:00:04:04 00:00:06:19 01:01:17:10 01:01:20:01  
* FROM CLIP NAME: TOA_0101_s002_A0034_CMP_V05.[0100-0162].exr

033  TOA_0101_S002_A0035_CMP_V04 V     C        00:00:04:04 00:00:07:00 01:01:20:01 01:01:22:21  
* FROM CLIP NAME: TOA_0101_s002_A0035_CMP_V04.[0100-0167].exr

034  TOA_0101_S002_A0036_CMP_V05 V     C        00:00:04:04 00:00:06:19 01:01:22:21 01:01:25:12  
* FROM CLIP NAME: TOA_0101_S002_A0036_CMP_V05.[0100-0162].exr

035  TOA_0101_S002_A0037_CMP_V03 V     C        00:00:04:04 00:00:05:08 01:01:25:12 01:01:26:16  
* FROM CLIP NAME: TOA_0101_s002_A0037_CMP_V03.[0100-0127].exr

036  TOA_0101_S002_A0038A_CMP_V05 V     C        00:00:04:04 00:00:05:08 01:01:26:16 01:01:27:20  
* FROM CLIP NAME: TOA_0101_S002_A0038A_CMP_V05.[0100-0127].exr

037  TOA_0101_S002_A0039_CMP_V01 V     C        00:00:04:04 00:00:05:20 01:01:27:20 01:01:29:12  
* FROM CLIP NAME: TOA_0101_s002_A0039_CMP_V01.[0100-0139].exr

038  TOA_0101_S002_A0040_CMP_V05 V     C        00:00:04:04 00:00:05:09 01:01:29:12 01:01:30:17  
* FROM CLIP NAME: TOA_0101_S002_A0040_CMP_V05.[0100-0128].exr

039  TOA_0101_S002_A0041_CMP_V07 V     C        00:00:04:04 00:00:08:21 01:01:30:17 01:01:35:10  
* FROM CLIP NAME: TOA_0101_S002_A0041_CMP_V07.[0100-0212].exr

040  TOA_0101_S002_A0042_CMP_V04 V     C        00:00:04:04 00:00:09:11 01:01:35:10 01:01:40:17  
* FROM CLIP NAME: TOA_0101_S002_A0042_CMP_V04.[0100-0226].exr

041  TOA_0101_S002_A0043_CMP_V04 V     C        00:00:04:04 00:00:07:10 01:01:40:17 01:01:43:23  
* FROM CLIP NAME: TOA_0101_s002_A0043_CMP_V04.[0100-0177].exr

042  TOA_0101_S002_A0044_CMP_V04 V     C        00:00:04:04 00:00:06:04 01:01:43:23 01:01:45:23  
* FROM CLIP NAME: TOA_0101_S002_A0044_CMP_V03.[0100-0246].exr

043  TOA_0101_S002_A0045_CMP_V03 V     C        00:00:04:04 00:00:05:00 01:01:45:23 01:01:46:19  
* FROM CLIP NAME: TOA_0101_s002_A0045_CMP_V03.[0100-0119].exr

044  TOA_0101_S002_A0046_CMP_V03 V     C        00:00:04:04 00:00:05:11 01:01:46:19 01:01:48:02  
* FROM CLIP NAME: TOA_0101_s002_A0046_CMP_V03.[0100-0130].exr

045  TOA_0101_S002_A0047_CMP_V04 V     C        00:00:04:04 00:00:05:04 01:01:48:02 01:01:49:02  
* FROM CLIP NAME: TOA_0101_s002_A0047_CMP_V04.[0100-0123].exr

046  TOA_0101_S002_A0049_CMP_V04 V     C        00:00:04:04 00:00:05:15 01:01:49:02 01:01:50:13  
* FROM CLIP NAME: TOA_0101_s002_A0049_CMP_V04.[0100-0134].exr

047  TOA_0101_S002_A0050_CMP_V06 V     C        00:00:04:04 00:00:05:19 01:01:50:13 01:01:52:04  
* FROM CLIP NAME: TOA_0101_S002_A0050_CMP_V05.[0100-0138].exr

048  TOA_0101_S002_A0052_CMP_V05 V     C        00:00:04:08 00:00:06:10 01:01:52:04 01:01:54:06  
* FROM CLIP NAME: TOA_0101_s002_A0052_CMP_V05.[0104-0153].exr

049  TOA_0101_S002_A0053_CMP_V05 V     C        00:00:04:04 00:00:06:10 01:01:54:06 01:01:56:12  
* FROM CLIP NAME: TOA_0101_S002_A0053_CMP_V05.[0100-0155].exr

050  TOA_0101_S002_A0054_CMP_V04 V     C        00:00:04:04 00:00:06:17 01:01:56:12 01:01:59:01  
* FROM CLIP NAME: TOA_0101_s002_A0054_CMP_V04.[0100-0160].exr

051  TOA_0101_S002_A0055_CMP_V04 V     C        00:00:04:04 00:00:07:19 01:01:59:01 01:02:02:16  
* FROM CLIP NAME: TOA_0101_S002_A0055_CMP_V04.[0100-0186].exr

052  TOA_0101_S002_A0056_CMP_V06 V     C        00:00:04:04 00:00:05:18 01:02:02:16 01:02:04:06  
* FROM CLIP NAME: TOA_0101_S002_A0056_CMP_V06.[0100-0137].exr

053  TOA_0101_S002_A0057_CMP_V04 V     C        00:00:04:04 00:00:04:20 01:02:04:06 01:02:04:22  
* FROM CLIP NAME: TOA_0101_s002_A0057_CMP_V04.[0100-0115].exr

054  TOA_0101_S002_A0058_CMP_V02 V     C        00:00:04:04 00:00:07:19 01:02:04:22 01:02:08:13  
* FROM CLIP NAME: TOA_0101_s002_A0058_CMP_V02.[0100-0186].exr

055  TOA_0101_S002_A0059_CMP_V03 V     C        00:00:04:04 00:00:05:01 01:02:08:13 01:02:09:10  
* FROM CLIP NAME: TOA_0101_s002_A0059_CMP_V04.[0100-0120].exr

056  TOA_0101_S002_A0060_CMP_V02 V     C        00:00:04:08 00:00:05:03 01:02:09:10 01:02:10:05  
* FROM CLIP NAME: TOA_0101_s002_A0060_CMP_V02.[0104-0122].exr

057  TOA_0101_S002_A0061_CMP_V04 V     C        00:00:04:04 00:00:07:21 01:02:10:05 01:02:13:22  
* FROM CLIP NAME: TOA_0101_S002_A0061_CMP_V04.[0100-0188].exr

058  TOA_0101_S002_A0062_CMP_V04 V     C        00:00:04:04 00:00:05:10 01:02:13:22 01:02:15:04  
* FROM CLIP NAME: TOA_0101_s002_A0062_CMP_V04.[0100-0129].exr

059  TOA_0101_S002_A0063_CMP_V04 V     C        00:00:04:04 00:00:04:22 01:02:15:04 01:02:15:22  
* FROM CLIP NAME: TOA_0101_s002_A0063_CMP_V04.[0100-0117].exr

060  TOA_0101_S002_A0064_CMP_V03 V     C        00:00:04:04 00:00:06:04 01:02:15:22 01:02:17:22  
* FROM CLIP NAME: TOA_0101_s002_A0064_CMP_V03.[0100-0147].exr

061  TOA_0101_S002_A0065_CMP_V03 V     C        00:00:04:04 00:00:05:05 01:02:17:22 01:02:18:23  
* FROM CLIP NAME: TOA_0101_s002_A0065_CMP_V03.[0100-0124].exr

062  TOA_0101_S002_A0066_CMP_V04 V     C        00:00:04:09 00:00:05:12 01:02:18:23 01:02:20:02  
* FROM CLIP NAME: TOA_0101_s002_A0066_CMP_V04.[0105-0131].exr

063  TOA_0101_S002_A0068_CMP_V03 V     C        00:00:04:04 00:00:05:09 01:02:20:02 01:02:21:07  
* FROM CLIP NAME: TOA_0101_S002_A0068_CMP_V03.[0100-0128].exr

064  TOA_0101_S002_A0069_CMP_V04 V     C        00:00:04:04 00:00:05:01 01:02:21:07 01:02:22:04  
* FROM CLIP NAME: TOA_0101_s002_A0069_CMP_V04.[0100-0120].exr

065  TOA_0101_S002_A0070_CMP_V06 V     C        00:00:04:04 00:00:05:02 01:02:22:04 01:02:23:02  
* FROM CLIP NAME: TOA_0101_S002_A0070_CMP_V06.[0100-0123].exr

066  TOA_0101_S002_A0071_CMP_V04 V     C        00:00:04:04 00:00:05:22 01:02:23:02 01:02:24:20  
* FROM CLIP NAME: TOA_0101_s002_A0071_CMP_V04.[0100-0141].exr

067  TOA_0101_S002_A0072_CMP_V03 V     C        00:00:04:04 00:00:05:02 01:02:24:20 01:02:25:18  
* FROM CLIP NAME: TOA_0101_s002_A0072_CMP_V03.[0100-0121].exr

068  TOA_0101_S002_A0073_CMP_V04 V     C        00:00:04:04 00:00:05:15 01:02:25:18 01:02:27:05  
* FROM CLIP NAME: TOA_0101_S002_A0073_CMP_V04.[0100-0134].exr

069  TOA_0101_S002_A0074_CMP_V03 V     C        00:00:04:04 00:00:06:22 01:02:27:05 01:02:29:23  
* FROM CLIP NAME: TOA_0101_s002_A0074_CMP_V03.[0100-0165].exr

070  TOA_0101_S002_A0075_CMP_V04 V     C        00:00:04:04 00:00:07:22 01:02:29:23 01:02:33:17  
* FROM CLIP NAME: TOA_0101_S002_A0075_CMP_V04.[0100-0189].exr

071  TOA_0101_S002_A0077_CMP_V03 V     C        00:00:04:04 00:00:05:13 01:02:33:17 01:02:35:02  
* FROM CLIP NAME: TOA_0101_s002_A0077_CMP_V03.[0100-0132].exr

072  TOA_0101_S002_A0078_CMP_V03 V     C        00:00:04:07 00:00:10:07 01:02:35:02 01:02:41:02  
* FROM CLIP NAME: TOA_0101_s002_A0078_CMP_V03.[0103-0246].exr

073  TOA_0101_S002_A0079_CMP_V04 V     C        00:00:04:04 00:00:07:16 01:02:41:02 01:02:44:14  
* FROM CLIP NAME: TOA_0101_s002_A0079_CMP_V04.[0100-0183].exr

074  TOA_0101_S002_A0081_CMP_V02 V     C        00:00:04:04 00:00:05:17 01:02:44:14 01:02:46:03  
* FROM CLIP NAME: TOA_0101_s002_A0081_CMP_V02.[0100-0136].exr

075  TOA_0101_S002_A0082_CMP_V04 V     C        00:00:04:04 00:00:04:18 01:02:46:03 01:02:46:17  
* FROM CLIP NAME: TOA_0101_s002_A0082_CMP_V04.[100-113].exr

076  TOA_0101_S002_A0083_CMP_V01 V     C        00:00:04:04 00:00:05:16 01:02:46:17 01:02:48:05  
* FROM CLIP NAME: TOA_0101_s002_A0083_CMP_V01.[0100-0135].exr

077  TOA_0101_S002_A0084_CMP_V03 V     C        00:00:04:04 00:00:09:19 01:02:48:05 01:02:53:20  
* FROM CLIP NAME: TOA_0101_s002_A0084_CMP_V03.[0100-0234].exr

078  TOA_0101_S002_A0085_CMP_V02 V     C        00:00:04:04 00:00:06:18 01:02:53:20 01:02:56:10  
* FROM CLIP NAME: TOA_0101_s002_A0085_CMP_V02.[0100-0162].exr

079  TOA_0101_S003_A0086_CMP_V02 V     C        00:00:04:04 00:00:06:16 01:02:56:10 01:02:58:22  
* FROM CLIP NAME: TOA_0101_s003_A0086_CMP_V02.[0100-0159].exr

080  TOA_0101_S003_A0087_CMP_V05 V     C        00:00:04:04 00:00:07:18 01:02:58:22 01:03:02:12  
* FROM CLIP NAME: TOA_0101_s003_A0087_CMP_V05.[0100-0185].exr

081  TOA_0101_S003_A0088_CMP_V03 V     C        00:00:04:04 00:00:06:01 01:03:02:12 01:03:04:09  
* FROM CLIP NAME: TOA_0101_s003_A0088_CMP_V03.[0100-0144].exr

082  TOA_0101_S003_A0089_CMP_V04 V     C        00:00:04:04 00:00:05:04 01:03:04:09 01:03:05:09  
* FROM CLIP NAME: TOA_0101_s003_A0089_CMP_V04.[0100-0123].exr

083  TOA_0101_S003_A0090_CMP_V04 V     C        00:00:04:04 00:00:09:15 01:03:05:09 01:03:10:20  
* FROM CLIP NAME: TOA_0101_s003_A0090_CMP_V04.[0100-0230].exr

084  TOA_0101_S003_A0091_CMP_V02 V     C        00:00:04:04 00:00:09:14 01:03:10:20 01:03:16:06  
* FROM CLIP NAME: TOA_0101_s003_A0091_CMP_V02.[0100-0229].exr

085  TOA_0101_S003_A0092_CMP_V04 V     C        00:00:04:04 00:00:06:17 01:03:16:06 01:03:18:19  
* FROM CLIP NAME: TOA_0101_s003_A0092_CMP_V04.[0100-0160].exr

086  TOA_0101_S003_A0093_CMP_V05 V     C        00:00:04:04 00:00:06:10 01:03:18:19 01:03:21:01  
* FROM CLIP NAME: TOA_0101_s003_A0093_CMP_V05.[0100-0153].exr

087  TOA_0101_S003_A0094_CMP_V02 V     C        00:00:04:04 00:00:07:04 01:03:21:01 01:03:24:01  
* FROM CLIP NAME: TOA_0101_s003_A0094_CMP_V02.[0100-0171].exr

088  TOA_0101_S004_A0096_CMP_V04 V     C        00:00:04:04 00:00:05:22 01:03:24:01 01:03:25:19  
* FROM CLIP NAME: TOA_0101_s004_A0096_CMP_V04.[0100-0141].exr

089  TOA_0101_S004_A0097_CMP_V02 V     C        00:00:04:10 00:00:07:20 01:03:25:19 01:03:29:05  
* FROM CLIP NAME: TOA_0101_s004_A0097_CMP_V02.[0100-0187].exr

090  TOA_0101_S004_A0098_CMP_V04 V     C        00:00:04:04 00:00:19:08 01:03:29:05 01:03:44:09  
* FROM CLIP NAME: TOA_0101_S004_A0098_CMP_V04.[0100-0463].exr

091  TOA_0101_S004_A0098A_CMP_V02 V     C        00:00:04:04 00:00:07:13 01:03:44:09 01:03:47:18  
* FROM CLIP NAME: TOA_0101_s004_A0098A_CMP_V02.[0100-0180].exr

092  TOA_0101_S005_A0099_CMP_V03 V     C        00:00:04:04 00:00:05:10 01:03:47:18 01:03:49:00  
* FROM CLIP NAME: TOA_0101_s005_A0099_CMP_V03.[0100-0129].exr

093  TOA_0101_S005_A0100_CMP_V02 V     C        00:00:04:04 00:00:06:07 01:03:49:00 01:03:51:03  
* FROM CLIP NAME: TOA_0101_s005_A0100_CMP_V03.[0100-0150].exr

094  TOA_0101_S005_A0101_CMP_V03 V     C        00:00:04:04 00:00:08:07 01:03:51:03 01:03:55:06  
* FROM CLIP NAME: TOA_0101_s005_A0101_CMP_V03.[0100-0198].exr

095  TOA_0101_S005_A0103_CMP_V04 V     C        00:00:04:04 00:00:06:15 01:03:55:06 01:03:57:17  
* FROM CLIP NAME: TOA_0101_s005_A0103_CMP_V04.[0100-0158].exr

096  TOA_0101_S005_A0104_CMP_V03 V     C        00:00:04:04 00:00:05:13 01:03:57:17 01:03:59:02  
* FROM CLIP NAME: TOA_0101_s005_A0104_CMP_V03.[0100-0132].exr

097  TOA_0101_S005_A0105_CMP_V03 V     C        00:00:04:04 00:00:06:01 01:03:59:02 01:04:00:23  
* FROM CLIP NAME: TOA_0101_s005_A0105_CMP_V03.[0100-0144].exr

098  TOA_0101_S005_A0106_CMP_V03 V     C        00:00:04:04 00:00:05:19 01:04:00:23 01:04:02:14  
* FROM CLIP NAME: TOA_0101_s005_A0106_CMP_V03.[0100-0138].exr

099  TOA_0101_S005_A0107_CMP_V04 V     C        00:00:04:04 00:00:05:08 01:04:02:14 01:04:03:18  
* FROM CLIP NAME: TOA_0101_s005_A0107_CMP_V04.[0100-0127].exr

100  TOA_0101_S005_A0108_CMP_V03 V     C        00:00:04:04 00:00:06:02 01:04:03:18 01:04:05:16  
* FROM CLIP NAME: TOA_0101_s005_A0108_CMP_V03.[0100-0145].exr

101  TOA_0101_S005_A0109_CMP_V03 V     C        00:00:04:04 00:00:05:09 01:04:05:16 01:04:06:21  
* FROM CLIP NAME: TOA_0101_s005_A0109_CMP_V03.[0100-0128].exr

102  TOA_0101_S005_A0110_CMP_V04 V     C        00:00:04:04 00:00:05:17 01:04:06:21 01:04:08:10  
* FROM CLIP NAME: TOA_0101_s005_A0110_CMP_V03.[0100-0136].exr

103  TOA_0101_S005_A0111_CMP_V02 V     C        00:00:04:04 00:00:06:01 01:04:08:10 01:04:10:07  
* FROM CLIP NAME: TOA_0101_s005_A0111_CMP_V02.[0100-0144].exr

104  TOA_0101_S006_A0112_CMP_V04 V     C        00:00:04:05 00:00:08:07 01:04:10:07 01:04:14:09  
* FROM CLIP NAME: TOA_0101_s006_A0112_CMP_V05.[0101-0198].exr

105  TOA_0101_S006_A0113_CMP_V05 V     C        00:00:04:04 00:00:05:00 01:04:14:09 01:04:15:05  
* FROM CLIP NAME: TOA_0101_S006_A0113_CMP_V05.[0100-0119].exr

106  TOA_0101_S006_A0114_CMP_V03 V     C        00:00:04:04 00:00:05:18 01:04:15:05 01:04:16:19  
* FROM CLIP NAME: TOA_0101_s006_A0114_CMP_V03.[0100-0137].exr

107  TOA_0101_S006_A0115_CMP_V02 V     C        00:00:04:04 00:00:05:04 01:04:16:19 01:04:17:19  
* FROM CLIP NAME: TOA_0101_s006_A0115_CMP_V02.[0100-0123].exr

108  TOA_0101_S006_A0116_CMP_V02 V     C        00:00:04:04 00:00:04:18 01:04:17:19 01:04:18:09  
* FROM CLIP NAME: TOA_0101_s006_A0116_CMP_V02.[0100-0113].exr

109  TOA_0101_S006_A0117_CMP_V03 V     C        00:00:04:04 00:00:05:06 01:04:18:09 01:04:19:11  
* FROM CLIP NAME: TOA_0101_s006_A0117_CMP_V03.[0100-0125].exr

110  TOA_0101_S006_A0118_CMP_V03 V     C        00:00:04:04 00:00:04:17 01:04:19:11 01:04:20:00  
* FROM CLIP NAME: TOA_0101_s006_A0118_CMP_V03.[0100-0112].exr

111  TOA_0101_S006_A0119_CMP_V03 V     C        00:00:04:04 00:00:05:00 01:04:20:00 01:04:20:20  
* FROM CLIP NAME: TOA_0101_s006_A0119_CMP_V03.[0100-0119].exr

112  TOA_0101_S006_A0120_CMP_V04 V     C        00:00:04:04 00:00:05:03 01:04:20:20 01:04:21:19  
* FROM CLIP NAME: TOA_0101_S006_A0120_CMP_V04.[0100-0122].exr

113  TOA_0101_S006_A0121_CMP_V03 V     C        00:00:04:04 00:00:04:21 01:04:21:19 01:04:22:12  
* FROM CLIP NAME: TOA_0101_s006_A0121_CMP_V03.[0100-0116].exr

114  TOA_0101_S006_A0122_CMP_V04 V     C        00:00:04:04 00:00:05:16 01:04:22:12 01:04:24:00  
* FROM CLIP NAME: TOA_0101_s006_A0122_CMP_V04.[0100-0135].exr

115  TOA_0101_S006_A0123_CMP_V05 V     C        00:00:04:04 00:00:05:23 01:04:24:00 01:04:25:19  
* FROM CLIP NAME: TOA_0101_S006_A0123_CMP_V05.[0100-0142].exr

116  TOA_0101_S006_A0128_CMP_V03 V     C        00:00:04:04 00:00:06:12 01:04:25:19 01:04:28:03  
* FROM CLIP NAME: TOA_0101_s006_A0128_CMP_V03.[0100-0155].exr

117  TOA_0101_S006_A0129_CMP_V03 V     C        00:00:04:04 00:00:05:04 01:04:28:03 01:04:29:03  
* FROM CLIP NAME: TOA_0101_s006_A0129_CMP_V03.[0100-0123].exr

118  TOA_0101_S006_A0130_CMP_V04 V     C        00:00:04:04 00:00:05:12 01:04:29:03 01:04:30:11  
* FROM CLIP NAME: TOA_0101_s006_A0130_CMP_V04.[0100-0131].exr

119  TOA_0101_S007_A0131_CMP_V03 V     C        00:00:04:04 00:00:05:19 01:04:30:11 01:04:32:02  
* FROM CLIP NAME: TOA_0101_s007_A0131_CMP_V03.[0100-0138].exr

120  TOA_0101_S007_A0132_CMP_V03 V     C        00:00:04:04 00:00:06:02 01:04:32:02 01:04:34:00  
* FROM CLIP NAME: TOA_0101_s007_A0132_CMP_V03.[0100-0145].exr

121  TOA_0101_S007_A0133_CMP_V03 V     C        00:00:04:04 00:00:06:09 01:04:34:00 01:04:36:05  
* FROM CLIP NAME: TOA_0101_s007_A0133_CMP_V03.[0100-0152].exr

122  TOA_0101_S007_A0134_CMP_V02 V     C        00:00:04:04 00:00:04:18 01:04:36:05 01:04:36:19  
* FROM CLIP NAME: TOA_0101_s007_A0134_CMP_V02.[0100-0113].exr

123  TOA_0101_S007_A0135_CMP_V02 V     C        00:00:04:04 00:00:05:12 01:04:36:19 01:04:38:03  
* FROM CLIP NAME: TOA_0101_s007_A0135_CMP_V02.[0100-0131].exr

124  TOA_0101_S007_A0136_CMP_V04 V     C        00:00:04:04 00:00:05:18 01:04:38:03 01:04:39:17  
* FROM CLIP NAME: TOA_0101_s007_A0136_CMP_V04.[0100-0137].exr

125  TOA_0101_S007_A0137_CMP_V04 V     C        00:00:04:04 00:00:05:05 01:04:39:17 01:04:40:18  
* FROM CLIP NAME: TOA_0101_s007_A0137_CMP_V04.[0100-0124].exr

126  TOA_0101_S007_A0138_CMP_V04 V     C        00:00:04:04 00:00:04:18 01:04:40:18 01:04:41:08  
* FROM CLIP NAME: TOA_0101_s007_A0138_CMP_V04.[0100-0113].exr

127  TOA_0101_S007_A0138A_CMP_V04 V     C        00:00:04:04 00:00:04:16 01:04:41:08 01:04:41:20  
* FROM CLIP NAME: TOA_0101_s007_A0138A_CMP_V04.[0100-0111].exr

128  TOA_0101_S007_A0139_CMP_V03 V     C        00:00:04:04 00:00:05:19 01:04:41:20 01:04:43:11  
* FROM CLIP NAME: TOA_0101_s007_A0139_CMP_V03.[0100-0138].exr

129  TOA_0101_S007_A0141_CMP_V02 V     C        00:00:04:04 00:00:06:10 01:04:43:11 01:04:45:17  
* FROM CLIP NAME: TOA_0101_s007_A0141_CMP_V02.[0100-0153].exr

130  TOA_0101_S007_A0142_CMP_V03 V     C        00:00:04:04 00:00:04:22 01:04:45:17 01:04:46:11  
* FROM CLIP NAME: TOA_0101_s007_A0142_CMP_V03.[0100-0117].exr

131  TOA_0101_S007_A0143_CMP_V05 V     C        00:00:04:04 00:00:06:04 01:04:46:11 01:04:48:11  
* FROM CLIP NAME: TOA_0101_s007_A0143_CMP_V05.[0100-0147].exr

132  TOA_0101_S007_A0144_CMP_V02 V     C        00:00:04:04 00:00:05:04 01:04:48:11 01:04:49:11  
* FROM CLIP NAME: TOA_0101_s007_A0144_CMP_V02.[0100-0123].exr

133  TOA_0101_S007_A0145_CMP_V01 V     C        00:00:04:04 00:00:04:16 01:04:49:11 01:04:49:23  
* FROM CLIP NAME: TOA_0101_s007_A0145_CMP_V01.[0100-0111].exr

134  TOA_0101_S007_A0146_CMP_V01 V     C        00:00:04:04 00:00:06:04 01:04:49:23 01:04:51:23  
* FROM CLIP NAME: TOA_0101_s007_A0146_CMP_V01.[0100-0147].exr

135  TOA_0101_S007_A0147_CMP_V02 V     C        00:00:04:04 00:00:05:18 01:04:51:23 01:04:53:13  
* FROM CLIP NAME: TOA_0101_s007_A0147_CMP_V02.[0100-0137].exr

136  TOA_0101_S007_A0148_CMP_V04 V     C        00:00:04:04 00:00:05:13 01:04:53:13 01:04:54:22  
* FROM CLIP NAME: TOA_0101_S007_A0148_CMP_V04.[0100-0132].exr

137  TOA_0101_S007_A0149_CMP_V03 V     C        00:00:04:04 00:00:04:15 01:04:54:22 01:04:55:09  
* FROM CLIP NAME: TOA_0101_s007_A0149_CMP_V03.[0100-0110].exr

138  TOA_0101_S007_A0150_CMP_V03 V     C        00:00:04:10 00:00:06:17 01:04:55:09 01:04:57:16  
* FROM CLIP NAME: TOA_0101_s007_A0150_CMP_V03.[0106-0160].exr

139  TOA_0101_S007_A0154_CMP_V05 V     C        00:00:04:04 00:00:06:01 01:04:57:16 01:04:59:13  
* FROM CLIP NAME: TOA_0101_S007_A0154_CMP_V05.[0100-0144].exr

140  TOA_0101_S007_A0157_CMP_V02 V     C        00:00:04:04 00:00:06:11 01:04:59:13 01:05:01:20  
* FROM CLIP NAME: TOA_0101_s007_A0157_CMP_V02.[0100-0154].exr

141  TOA_0101_S007_A0158_CMP_V04 V     C        00:00:04:04 00:00:05:00 01:05:01:20 01:05:02:16  
* FROM CLIP NAME: TOA_0101_s007_A0158_CMP_V04.[0100-0119].exr

142  TOA_0101_S007_A0159_CMP_V03 V     C        00:00:04:04 00:00:05:00 01:05:02:16 01:05:03:12  
* FROM CLIP NAME: TOA_0101_s007_A0159_CMP_V03.[0100-0119].exr

143  TOA_0101_S007_A0161_CMP_V02 V     C        00:00:04:05 00:00:05:14 01:05:03:12 01:05:04:21  
* FROM CLIP NAME: TOA_0101_s007_A0161_CMP_V02.[0101-0133].exr

144  TOA_0101_S007_A0162_CMP_V03 V     C        00:00:04:07 00:00:05:03 01:05:04:21 01:05:05:17  
* FROM CLIP NAME: TOA_0101_s007_A0162_CMP_V03.[0103-0122].exr

145  TOA_0101_S007_A0163_CMP_V02 V     C        00:00:04:05 00:00:04:19 01:05:05:17 01:05:06:07  
* FROM CLIP NAME: TOA_0101_s007_A0163_CMP_V02.[0101-0114].exr

146  TOA_0101_S007_A0164_CMP_V02 V     C        00:00:04:04 00:00:04:19 01:05:06:07 01:05:06:22  
* FROM CLIP NAME: TOA_0101_s007_A0164_CMP_V02.[0100-0114].exr

147  TOA_0101_S007_A0164A_CMP_V01 V     C        00:00:04:04 00:00:04:23 01:05:06:22 01:05:07:17  
* FROM CLIP NAME: TOA_0101_s007_A0164A_CMP_V01.[0100-0118].exr

148  TOA_0101_S007_A0164B_CMP_V02 V     C        00:00:04:05 00:00:05:18 01:05:07:17 01:05:09:06  
* FROM CLIP NAME: TOA_0101_s007_A0164B_CMP_V02.[0101-0137].exr

149  TOA_0101_S007_A0165_CMP_V03 V     C        00:00:04:08 00:00:06:10 01:05:09:06 01:05:11:08  
* FROM CLIP NAME: TOA_0101_s007_A0165_CMP_V03.[0104-0153].exr

150  TOA_0101_S007_A0168_CMP_V02 V     C        00:00:04:06 00:00:04:15 01:05:11:08 01:05:11:17  
* FROM CLIP NAME: TOA_0101_s007_A0168_CMP_V02.[0102-0110].exr

151  TOA_0101_S007_A0169_CMP_V05 V     C        00:00:04:04 00:00:05:13 01:05:11:17 01:05:13:02  
* FROM CLIP NAME: TOA_0101_s007_A0169_CMP_V05.[0100-0132].exr

152  TOA_0101_S007_A0170_CMP_V04 V     C        00:00:04:04 00:00:05:00 01:05:13:02 01:05:13:22  
* FROM CLIP NAME: TOA_0101_s007_A0170_CMP_V04.[0100-0119].exr

153  TOA_0101_S007_A0171_CMP_V04 V     C        00:00:04:06 00:00:05:03 01:05:13:22 01:05:14:19  
* FROM CLIP NAME: TOA_0101_s007_A0171_CMP_V04.[0102-0122].exr

154  TOA_0101_S007_A0173_CMP_V02 V     C        00:00:04:04 00:00:05:08 01:05:14:19 01:05:15:23  
* FROM CLIP NAME: TOA_0101_s007_A0173_CMP_V02.[0100-0127].exr

155  TOA_0101_S007_A0174_CMP_V05 V     C        00:00:04:04 00:00:06:19 01:05:15:23 01:05:18:14  
* FROM CLIP NAME: TOA_0101_S007_A0174_CMP_V05.[0100-0162].exr

156  TOA_0101_S007_A0175_CMP_V03 V     C        00:00:04:04 00:00:06:06 01:05:18:14 01:05:20:16  
* FROM CLIP NAME: TOA_0101_S007_A0175_CMP_V03.[0100-0149].exr

157  TOA_0101_S007_A0176_CMP_V02 V     C        00:00:04:04 00:00:05:06 01:05:20:16 01:05:21:18  
* FROM CLIP NAME: TOA_0101_s007_A0176_CMP_V02.[0100-0125].exr

158  TOA_0101_S007_A0177_CMP_V04 V     C        00:00:04:04 00:00:05:16 01:05:21:18 01:05:23:06  
* FROM CLIP NAME: TOA_0101_S007_A0177_CMP_V04.[0100-0135].exr

159  TOA_0101_s008_A0178_CMP_V03 V     C        00:00:04:04 00:00:06:00 01:05:23:06 01:05:25:02  
* FROM CLIP NAME: TOA_0101_s008_A0178_CMP_V03.[0100-0143].exr

160  TOA_0101_s008_A0179_CMP_V03 V     C        00:00:04:04 00:00:05:22 01:05:25:02 01:05:26:20  
* FROM CLIP NAME: TOA_0101_s008_A0179_CMP_V03.[0100-0141].exr

161  TOA_0101_S008_A0180_CMP_V03 V     C        00:00:04:06 00:00:05:05 01:05:26:20 01:05:27:19  
* FROM CLIP NAME: TOA_0101_s008_A0180_CMP_V03.[0102-0124].exr

162  TOA_0101_s008_A0181_CMP_V06 V     C        00:00:04:04 00:00:05:17 01:05:27:19 01:05:29:08  
* FROM CLIP NAME: TOA_0101_s008_A0181_CMP_V06.[0100-0136].exr

163  TOA_0101_S008_A0183_CMP_V04 V     C        00:00:04:04 00:00:06:02 01:05:29:08 01:05:31:06  
* FROM CLIP NAME: TOA_0101_s008_A0183_CMP_V04.[0100-0145].exr

164  TOA_0101_S008_A0184_CMP_V03 V     C        00:00:04:04 00:00:05:10 01:05:31:06 01:05:32:12  
* FROM CLIP NAME: TOA_0101_s008_A0184_CMP_V03.[0100-0129].exr

165  TOA_0101_s008_A0185_CMP_V03 V     C        00:00:04:08 00:00:06:00 01:05:32:12 01:05:34:04  
* FROM CLIP NAME: TOA_0101_s008_A0185_CMP_V03.[0104-0143].exr

166  TOA_0101_S008_A0186_CMP_V02 V     C        00:00:04:04 00:00:04:20 01:05:34:04 01:05:34:20  
* FROM CLIP NAME: TOA_0101_s008_A0186_CMP_V02.[0100-0115].exr

167  TOA_0101_S008_A0187_CMP_V03 V     C        00:00:04:04 00:00:05:14 01:05:34:20 01:05:36:06  
* FROM CLIP NAME: TOA_0101_s008_A0187_CMP_V03.[0100-0133].exr

168  TOA_0101_S008_A0188_CMP_V04 V     C        00:00:04:04 00:00:06:06 01:05:36:06 01:05:38:08  
* FROM CLIP NAME: TOA_0101_s008_A0188_CMP_V04.[0100-0149].exr

169  TOA_0101_S008_A0189_CMP_V03 V     C        00:00:04:12 00:00:06:03 01:05:38:08 01:05:39:23  
* FROM CLIP NAME: TOA_0101_s008_A0189_CMP_V03.[0108-0146].exr

170  TOA_0101_S008_A0190_CMP_V03 V     C        00:00:04:04 00:00:05:11 01:05:39:23 01:05:41:06  
* FROM CLIP NAME: TOA_0101_s008_A0190_CMP_V03.[0100-0130].exr

171  TOA_0101_S008_A0191_CMP_V02 V     C        00:00:04:04 00:00:05:11 01:05:41:06 01:05:42:13  
* FROM CLIP NAME: TOA_0101_s008_A0191_CMP_V02.[0100-0130].exr

172  TOA_0101_S008_A0193_CMP_V01 V     C        00:00:04:04 00:00:04:19 01:05:42:13 01:05:43:04  
* FROM CLIP NAME: TOA_0101_s008_A0193_CMP_V01.[0100-0114].exr

173  TOA_0101_S008_A0194_CMP_V02 V     C        00:00:04:04 00:00:09:04 01:05:43:04 01:05:48:04  
* FROM CLIP NAME: TOA_0101_s008_A0194_CMP_V02.[0100-0219].exr

174  TOA_0101_S008_A0197_CMP_V04 V     C        00:00:04:04 00:00:05:04 01:05:48:04 01:05:49:04  
* FROM CLIP NAME: TOA_0101_S008_A0197_CMP_V04.[0100-0123].exr

175  TOA_0101_S008_A0198_CMP_V02 V     C        00:00:04:04 00:00:04:16 01:05:49:04 01:05:49:16  
* FROM CLIP NAME: TOA_0101_s008_A0198_CMP_V02.[0100-0111].exr

176  TOA_0101_S008_A0199_CMP_V04 V     C        00:00:04:04 00:00:05:04 01:05:49:16 01:05:50:16  
* FROM CLIP NAME: TOA_0101_s008_A0199_CMP_V04.[0100-0123].exr

177  TOA_0101_S008_A0200_CMP_V03 V     C        00:00:04:04 00:00:04:19 01:05:50:16 01:05:51:07  
* FROM CLIP NAME: TOA_0101_s008_A0200_CMP_V03.[0100-0114].exr

178  TOA_0101_S008_A0201_CMP_V02 V     C        00:00:04:04 00:00:06:18 01:05:51:07 01:05:53:21  
* FROM CLIP NAME: TOA_0101_s008_A0201_CMP_V02.[0100-0161].exr

179  TOA_0101_S008_A0204_CMP_V02 V     C        00:00:04:04 00:00:06:12 01:05:53:21 01:05:56:05  
* FROM CLIP NAME: TOA_0101_s008_A0204_CMP_V02.[0100-0155].exr

180  TOA_0101_S008_A0205_CMP_V03 V     C        00:00:04:04 00:00:06:06 01:05:56:05 01:05:58:07  
* FROM CLIP NAME: TOA_0101_S008_A0205_CMP_V03.[0100-0149].exr

181  TOA_0101_S008_A0207_CMP_V05 V     C        00:00:04:04 00:00:04:16 01:05:58:07 01:05:58:19  
* FROM CLIP NAME: TOA_0101_s008_A0207_CMP_V05.[0100-0111].exr

182  TOA_0101_s008_A0208_CMP_V03 V     C        00:00:04:04 00:00:05:10 01:05:58:19 01:06:00:01  
* FROM CLIP NAME: TOA_0101_s008_A0208_CMP_V03.[0100-0129].exr

183  TOA_0101_S008_A0209_CMP_V03 V     C        00:00:04:07 00:00:06:15 01:06:00:01 01:06:02:09  
* FROM CLIP NAME: TOA_0101_s008_A0209_CMP_V03.[0103-0158].exr

184  TOA_0101_S008_A0210_CMP_V03 V     C        00:00:04:04 00:00:08:01 01:06:02:09 01:06:06:06  
* FROM CLIP NAME: TOA_0101_s008_A0210_CMP_V03.[0100-0192].exr

185  TOA_0101_S008_A0210A_CMP_V04 V     C        00:00:04:04 00:00:06:02 01:06:06:06 01:06:08:04  
* FROM CLIP NAME: TOA_0101_s008_A0210A_CMP_V04.[0100-0145].exr

186  TOA_0101_S008_A0210B_CMP_V02 V     C        00:00:04:04 00:00:07:02 01:06:08:04 01:06:11:02  
* FROM CLIP NAME: TOA_0101_s008_A0210B_CMP_V02.[0100-0169].exr

187  TOA_0101_S008_A0210C_CMP_V02 V     C        00:00:04:05 00:00:05:22 01:06:11:02 01:06:12:19  
* FROM CLIP NAME: TOA_0101_s008_A0210C_CMP_V02.[0101-0141].exr

188  TOA_0101_S008_A0211_CMP_V03 V     C        00:00:04:04 00:00:06:12 01:06:12:19 01:06:15:03  
* FROM CLIP NAME: TOA_0101_s008_A0211_CMP_V03.[0100-0155].exr

189  TOA_0101_S008_A0212_CMP_V04 V     C        00:00:04:04 00:00:05:14 01:06:15:03 01:06:16:13  
* FROM CLIP NAME: TOA_0101_s008_A0212_CMP_V04.[0100-0133].exr

190  TOA_0101_s008_A0213_CMP_V06 V     C        00:00:04:04 00:00:08:12 01:06:16:13 01:06:20:21  
* FROM CLIP NAME: TOA_0101_s008_A0213_CMP_V06.[0100-0203].exr

191  TOA_0101_S008_A0214_CMP_V02 V     C        00:00:04:04 00:00:06:19 01:06:20:21 01:06:23:12  
* FROM CLIP NAME: TOA_0101_s008_A0214_CMP_V02.[0100-0162].exr

192  TOA_0101_S008_A0216_CMP_V03 V     C        00:00:04:04 00:00:05:08 01:06:23:12 01:06:24:16  
* FROM CLIP NAME: TOA_0101_s008_A0216_CMP_V03.[0100-0127].exr

193  TOA_0101_S008_A0217_CMP_V04 V     C        00:00:04:04 00:00:05:05 01:06:24:16 01:06:25:17  
* FROM CLIP NAME: TOA_0101_s008_A0217_CMP_V04.[0100-0124].exr

194  TOA_0101_S008_A0218_CMP_V04 V     C        00:00:04:04 00:00:06:00 01:06:25:17 01:06:27:13  
* FROM CLIP NAME: TOA_0101_s008_A0218_CMP_V04.[0100-0143].exr

195  TOA_0101_S008_A0221_CMP_V04 V     C        00:00:04:04 00:00:06:04 01:06:27:13 01:06:29:13  
* FROM CLIP NAME: TOA_0101_s008_A0221_CMP_V04.[0100-0147].exr

196  TOA_0101_S008_A0222_CMP_V04 V     C        00:00:04:04 00:00:06:00 01:06:29:13 01:06:31:09  
* FROM CLIP NAME: TOA_0101_s008_A0222_CMP_V04.[0100-0143].exr

197  TOA_0101_S008_A0223_CMP_V04 V     C        00:00:04:04 00:00:08:03 01:06:31:09 01:06:35:08  
* FROM CLIP NAME: TOA_0101_s008_A0223_CMP_V04.[0100-0194].exr

198  TOA_0101_S008_A0224_CMP_V03 V     C        00:00:04:04 00:00:05:01 01:06:35:08 01:06:36:05  
* FROM CLIP NAME: TOA_0101_s008_A0224_CMP_V03.[0100-0120].exr

199  TOA_0101_S008_A0225_CMP_V04 V     C        00:00:04:04 00:00:04:23 01:06:36:05 01:06:37:00  
* FROM CLIP NAME: TOA_0101_s008_A0225_CMP_V04.[0100-0118].exr

200  TOA_0101_S008_A0226_CMP_V01 V     C        00:00:04:04 00:00:04:16 01:06:37:00 01:06:37:12  
* FROM CLIP NAME: TOA_0101_s008_A0226_CMP_V01.[0100-0111].exr

201  TOA_0101_S008_A0227_CMP_V01 V     C        00:00:04:04 00:00:04:16 01:06:37:12 01:06:38:00  
* FROM CLIP NAME: TOA_0101_s008_A0227_CMP_V01.[0100-0111].exr

202  TOA_0101_S008_A0228_CMP_V01 V     C        00:00:04:04 00:00:04:15 01:06:38:00 01:06:38:11  
* FROM CLIP NAME: TOA_0101_s008_A0228_CMP_V01.[0100-0110].exr

203  TOA_0101_S008_A0230_CMP_V05 V     C        00:00:04:04 00:00:06:19 01:06:38:11 01:06:41:02  
* FROM CLIP NAME: TOA_0101_s008_A0230_CMP_V05.[0100-0162].exr

204  TOA_0101_S008_A0231_CMP_V03 V     C        00:00:04:04 00:00:05:16 01:06:41:02 01:06:42:14  
* FROM CLIP NAME: TOA_0101_S008_A0231_CMP_V03.[0100-0135].exr

205  TOA_0101_S008_A0232_CMP_V04 V     C        00:00:04:04 00:00:06:00 01:06:42:14 01:06:44:10  
* FROM CLIP NAME: TOA_0101_S008_A0232_CMP_V04.[0100-0145].exr

206  TOA_0101_S008_A0233_CMP_V03 V     C        00:00:04:04 00:00:06:11 01:06:44:10 01:06:46:17  
* FROM CLIP NAME: TOA_0101_s008_A0233_CMP_V03.[0100-0154].exr

207  TOA_0101_S008_A0234_CMP_V01 V     C        00:00:04:04 00:00:05:09 01:06:46:17 01:06:47:22  
* FROM CLIP NAME: TOA_0101_s008_A0234_CMP_V01.[0100-0128].exr

208  TOA_0101_s008_A0235_CMP_V04 V     C        00:00:04:04 00:00:05:22 01:06:47:22 01:06:49:16  
* FROM CLIP NAME: TOA_0101_s008_A0235_CMP_V04.[0100-0141].exr

209  TOA_0101_S008_A0236_CMP_V03 V     C        00:00:04:13 00:00:06:14 01:06:49:16 01:06:51:17  
* FROM CLIP NAME: TOA_0101_s008_A0236_CMP_V03.[0109-0157].exr

210  TOA_0101_S008_A0237_CMP_V05 V     C        00:00:04:08 00:00:06:12 01:06:51:17 01:06:53:21  
* FROM CLIP NAME: TOA_0101_s008_A0237_CMP_V05.[0104-0155].exr

211  TOA_0101_S008_A0239_CMP_V02 V     C        00:00:04:10 00:00:06:04 01:06:53:21 01:06:55:15  
* FROM CLIP NAME: TOA_0101_s008_A0239_CMP_V02.[0106-0147].exr

212  TOA_0101_S008_A0240_CMP_V02 V     C        00:00:04:10 00:00:05:12 01:06:55:15 01:06:56:17  
* FROM CLIP NAME: TOA_0101_s008_A0240_CMP_V02.[0106-0131].exr

213  TOA_0101_S008_A0241_CMP_V02 V     C        00:00:04:04 00:00:04:22 01:06:56:17 01:06:57:11  
* FROM CLIP NAME: TOA_0101_s008_A0241_CMP_V02.[0100-0117].exr

214  TOA_0101_S008_A0242_CMP_V04 V     C        00:00:04:04 00:00:06:04 01:06:57:11 01:06:59:11  
* FROM CLIP NAME: TOA_0101_s008_A0242_CMP_V04.[0100-0147].exr

215  TOA_0101_S008_A0243_CMP_V07 V     C        00:00:04:04 00:00:05:10 01:06:59:11 01:07:00:17  
* FROM CLIP NAME: TOA_0101_s008_A0243_CMP_V07.[0100-0129].exr

216  TOA_0101_S008_A0245_CMP_V02 V     C        00:00:04:04 00:00:05:02 01:07:00:17 01:07:01:15  
* FROM CLIP NAME: TOA_0101_s008_A0245_CMP_V02.[0100-0121].exr

217  TOA_0101_S008_A0246_CMP_V06 V     C        00:00:04:04 00:00:06:07 01:07:01:15 01:07:03:18  
* FROM CLIP NAME: TOA_0101_s008_A0246_CMP_V06.[0100-0150].exr

218  TOA_0101_S008_A0247_CMP_V07 V     C        00:00:04:04 00:00:06:14 01:07:03:18 01:07:06:04  
* FROM CLIP NAME: TOA_0101_S008_A0247_CMP_V07.[0100-0157].exr

219  TOA_0101_s008_A0248_CMP_V07 V     C        00:00:04:04 00:00:05:10 01:07:06:04 01:07:07:10  
* FROM CLIP NAME: TOA_0101_s008_A0248_CMP_V07.[0100-0129].exr

220  TOA_0101_S008_A0249_CMP_V09 V     C        00:00:04:04 00:00:05:10 01:07:07:10 01:07:08:16  
* FROM CLIP NAME: TOA_0101_s008_A0249_CMP_V09.[0100-0129].exr

221  TOA_0101_S008_A0251_CMP_V04 V     C        00:00:04:04 00:00:05:18 01:07:08:16 01:07:10:06  
* FROM CLIP NAME: TOA_0101_s008_A0251_CMP_V04.[0100-0137].exr

222  TOA_0101_S008_A0251A_CMP_V02 V     C        00:00:04:04 00:00:05:02 01:07:10:06 01:07:11:04  
* FROM CLIP NAME: TOA_0101_s008_A0251A_CMP_V02.[0100-0121].exr

223  TOA_0101_s008_A0252_CMP_V05 V     C        00:00:04:06 00:00:05:18 01:07:11:04 01:07:12:16  
* FROM CLIP NAME: TOA_0101_s008_A0252_CMP_V05.[0102-0137].exr

224  TOA_0101_S008_A0253_CMP_V08 V     C        00:00:04:04 00:00:06:14 01:07:12:16 01:07:15:02  
* FROM CLIP NAME: TOA_0101_s008_A0253_CMP_V08.[0100-0157].exr

225  TOA_0101_S008_A0254_CMP_V04 V     C        00:00:04:04 00:00:05:20 01:07:15:02 01:07:16:18  
* FROM CLIP NAME: TOA_0101_s008_A0254_CMP_V04.[0100-0139].exr

226  TOA_0101_S008_A0255_CMP_V03 V     C        00:00:04:04 00:00:05:10 01:07:16:18 01:07:18:00  
* FROM CLIP NAME: TOA_0101_s008_A0255_CMP_V03.[0100-0129].exr

227  TOA_0101_S008_A0256_CMP_V04 V     C        00:00:04:04 00:00:06:16 01:07:18:00 01:07:20:12  
* FROM CLIP NAME: TOA_0101_s008_A0256_CMP_V04.[0100-0159].exr

228  TOA_0101_S008_A0257_CMP_V03 V     C        00:00:04:04 00:00:10:19 01:07:20:12 01:07:27:03  
* FROM CLIP NAME: TOA_0101_s008_A0257_CMP_V03.[0100-0258].exr

229  TOA_0101_S009_A0258_CMP_V05 V     C        00:00:04:04 00:00:07:08 01:07:27:03 01:07:30:07  
* FROM CLIP NAME: TOA_0101_S009_A0258_CMP_V05.[0100-0175].exr

230  TOA_0101_S009_A0259_CMP_V03 V     C        00:00:04:04 00:00:06:12 01:07:30:07 01:07:32:15  
* FROM CLIP NAME: TOA_0101_s009_A0259_CMP_V03.[0100-0155].exr

231  TOA_0101_S009_A0260_CMP_V05 V     C        00:00:04:04 00:00:06:15 01:07:32:15 01:07:35:02  
* FROM CLIP NAME: TOA_0101_s009_A0260_CMP_V05.[0100-0158].exr

232  TOA_0101_S009_A0261_CMP_V03 V     C        00:00:04:04 00:00:06:06 01:07:35:02 01:07:37:04  
* FROM CLIP NAME: TOA_0101_s009_A0261_CMP_V03.[0100-0149].exr

233  TOA_0101_S009_A0262_CMP_V04 V     C        00:00:04:04 00:00:05:13 01:07:37:04 01:07:38:13  
* FROM CLIP NAME: TOA_0101_s009_A0262_CMP_V04.[0100-0132].exr

234  TOA_0101_S009_A0263_CMP_V04 V     C        00:00:04:04 00:00:07:08 01:07:38:13 01:07:41:17  
* FROM CLIP NAME: TOA_0101_s009_A0263_CMP_V04.[0100-0175].exr

235  TOA_0101_S009_A0264_CMP_V05 V     C        00:00:04:04 00:00:08:05 01:07:41:17 01:07:45:18  
* FROM CLIP NAME: TOA_0101_S009_A0264_CMP_V05.[0100-0196].exr

236  TOA_0101_S009_A0265_CMP_V05 V     C        00:00:04:04 00:00:06:11 01:07:45:18 01:07:48:01  
* FROM CLIP NAME: TOA_0101_S009_A0265_CMP_V05.[0100-0154].exr

237  TOA_0101_S009_A0266_CMP_V06 V     C        00:00:04:04 00:00:06:18 01:07:48:01 01:07:50:15  
* FROM CLIP NAME: TOA_0101_s009_A0266_CMP_V06.[0100-0161].exr

238  TOA_0101_S009_A0267_CMP_V03 V     C        00:00:04:04 00:00:10:02 01:07:50:15 01:07:56:13  
* FROM CLIP NAME: TOA_0101_s009_A0267_CMP_V03.[0100-0241].exr

239  TOA_0101_S009_A0271_CMP_V05 V     C        00:00:04:04 00:00:05:13 01:07:56:13 01:07:57:22  
* FROM CLIP NAME: TOA_0101_S009_A0271_CMP_V05.[0100-0132].exr

240  TOA_0101_S009_A0272_CMP_V06 V     C        00:00:04:04 00:00:05:07 01:07:57:22 01:07:59:01  
* FROM CLIP NAME: TOA_0101_s009_A0272_CMP_V06.[0100-0126].exr

241  TOA_0101_S009_A0273_CMP_V01 V     C        00:00:04:04 00:00:04:23 01:07:59:01 01:07:59:20  
* FROM CLIP NAME: TOA_0101_s009_A0273_CMP_V01.[0100-0118].exr

242  TOA_0101_S009_A0274_CMP_V05 V     C        00:00:04:04 00:00:04:23 01:07:59:20 01:08:00:15  
* FROM CLIP NAME: TOA_0101_S009_A0274_CMP_V05.[0100-0118].exr

243  TOA_0101_S009_A0275_CMP_V04 V     C        00:00:04:04 00:00:05:05 01:08:00:15 01:08:01:16  
* FROM CLIP NAME: TOA_0101_s009_A0275_CMP_V04.[0100-0124].exr

244  TOA_0101_S009_A0276_CMP_V03 V     C        00:00:04:04 00:00:05:06 01:08:01:16 01:08:02:18  
* FROM CLIP NAME: TOA_0101_s009_A0276_CMP_V03.[0100-0125].exr

245  TOA_0101_S009_A0277_CMP_V03 V     C        00:00:04:09 00:00:07:05 01:08:02:18 01:08:05:14  
* FROM CLIP NAME: TOA_0101_s009_A0277_CMP_V03.[0105-0172].exr

246  TOA_0101_S009_A0279_CMP_V05 V     C        00:00:04:07 00:00:06:06 01:08:05:14 01:08:07:13  
* FROM CLIP NAME: TOA_0101_s009_A0279_CMP_V05.[0103-0149].exr

247  TOA_0101_S009_A0280_CMP_V04 V     C        00:00:04:15 00:00:06:04 01:08:07:13 01:08:09:02  
* FROM CLIP NAME: TOA_0101_s009_A0280_CMP_V04.[0111-0147].exr

248  TOA_0101_S009_A0281_CMP_V05 V     C        00:00:04:04 00:00:06:00 01:08:09:02 01:08:10:22  
* FROM CLIP NAME: TOA_0101_S009_A0281_CMP_V05.[0100-0143].exr

249  TOA_0101_S009_A0282_CMP_V04 V     C        00:00:04:04 00:00:06:15 01:08:10:22 01:08:13:09  
* FROM CLIP NAME: TOA_0101_s009_A0282_CMP_V04.[0100-0158].exr

250  TOA_0101_S009_A0283_CMP_V03 V     C        00:00:04:04 00:00:05:13 01:08:13:09 01:08:14:18  
* FROM CLIP NAME: TOA_0101_s009_A0283_CMP_V03.[0100-0132].exr

251  TOA_0101_S009_A0286_CMP_V03 V     C        00:00:04:04 00:00:06:09 01:08:14:18 01:08:16:23  
* FROM CLIP NAME: TOA_0101_S009_A0286_CMP_V03.[0100-0152].exr

252  TOA_0101_S009_A0286A_CMP_V05 V     C        00:00:04:04 00:00:06:21 01:08:16:23 01:08:19:16  
* FROM CLIP NAME: TOA_0101_S009_A0286A_CMP_V05.[0100-0164].exr

253  TOA_0101_S009_A0287_CMP_V04 V     C        00:00:04:04 00:00:06:08 01:08:19:16 01:08:21:20  
* FROM CLIP NAME: TOA_0101_S009_A0287_CMP_V04.[0100-0151].exr

254  TOA_0101_S009_A0288_CMP_V01 V     C        00:00:04:04 00:00:07:07 01:08:21:20 01:08:24:23  
* FROM CLIP NAME: TOA_0101_s009_A0288_CMP_V01.[0100-0174].exr

255  TOA_0101_S009_A0289_CMP_V05 V     C        00:00:04:04 00:00:08:12 01:08:24:23 01:08:29:07  
* FROM CLIP NAME: TOA_0101_S009_A0289_CMP_V05.[0100-0203].exr

256  TOA_0101_S009_A0291_CMP_V04 V     C        00:00:04:04 00:00:05:14 01:08:29:07 01:08:30:17  
* FROM CLIP NAME: TOA_0101_S009_A0291_CMP_V04.[0100-0133].exr

257  TOA_0101_S009_A0293_CMP_V03 V     C        00:00:04:04 00:00:07:06 01:08:30:17 01:08:33:19  
* FROM CLIP NAME: TOA_0101_s009_A0293_CMP_V03.[0100-0173].exr

258  TOA_0101_S009_A0294_CMP_V05 V     C        00:00:04:04 00:00:07:01 01:08:33:19 01:08:36:16  
* FROM CLIP NAME: TOA_0101_s009_A0294_CMP_V05.[0100-0168].exr

259  TOA_0101_S009_A0295_CMP_V04 V     C        00:00:04:04 00:00:06:02 01:08:36:16 01:08:38:14  
* FROM CLIP NAME: TOA_0101_s009_A0295_CMP_V04.[0100-0145].exr

260  TOA_0101_S009_A0296_CMP_V04 V     C        00:00:04:04 00:00:06:01 01:08:38:14 01:08:40:11  
* FROM CLIP NAME: TOA_0101_s009_A0296_CMP_V04.[0100-0144].exr

261  TOA_0101_S009_A0297_CMP_V02 V     C        00:00:04:04 00:00:09:01 01:08:40:11 01:08:45:08  
* FROM CLIP NAME: TOA_0101_s009_A0297_CMP_V02.[0100-0216].exr

262  TOA_0101_S009_A0298_CMP_V07 V     C        00:00:04:04 00:00:06:21 01:08:45:08 01:08:48:01  
* FROM CLIP NAME: TOA_0101_s009_A0298_CMP_V07.[0100-0164].exr

263  TOA_0101_S009_A0299_CMP_V03 V     C        00:00:04:04 00:00:05:08 01:08:48:01 01:08:49:05  
* FROM CLIP NAME: TOA_0101_s009_A0299_CMP_V03.[0100-0127].exr

264  TOA_0101_S009_A0300_CMP_V01 V     C        00:00:04:04 00:00:05:18 01:08:49:05 01:08:50:19  
* FROM CLIP NAME: TOA_0101_s009_A0300_CMP_V01.[0100-0137].exr

265  TOA_0101_S009_A0301_CMP_V04 V     C        00:00:04:04 00:00:12:03 01:08:50:19 01:08:58:18  
* FROM CLIP NAME: TOA_0101_s009_A0301_CMP_V04.[0100-0290].exr

266  TOA_0101_S009_A0304_CMP_V02 V     C        00:00:04:04 00:00:11:14 01:08:58:18 01:09:06:04  
* FROM CLIP NAME: TOA_0101_s009_A0304_CMP_V02.[0100-0277].exr

267  TOA_0101_S009_A0307_CMP_V02 V     C        00:00:04:04 00:00:08:21 01:09:06:04 01:09:10:21  
* FROM CLIP NAME: TOA_0101_s009_A0307_CMP_V02.[0100-0212].exr

268  TOA_0101_S009_A0308_CMP_V03 V     C        00:00:04:04 00:00:06:22 01:09:10:21 01:09:13:15  
* FROM CLIP NAME: TOA_0101_s009_A0308_CMP_V03.[0100-0165].exr

269  TOA_0101_S009_A0309_CMP_V05 V     C        00:00:04:04 00:00:05:21 01:09:13:15 01:09:15:08  
* FROM CLIP NAME: TOA_0101_s009_A0309_CMP_V05.[0100-0140].exr

270  TOA_0101_S009_A0310_CMP_V06 V     C        00:00:04:04 00:00:06:12 01:09:15:08 01:09:17:16  
* FROM CLIP NAME: TOA_0101_s009_A0310_CMP_V06.[0100-0155].exr

271  TOA_0101_S009_A0311_CMP_V04 V     C        00:00:04:04 00:00:06:10 01:09:17:16 01:09:19:22  
* FROM CLIP NAME: TOA_0101_s009_A0311_CMP_V04.[0100-0153].exr

272  TOA_0101_S010_A0312_CMP_V02 V     C        00:00:04:04 00:00:06:03 01:09:19:22 01:09:21:21  
* FROM CLIP NAME: TOA_0101_s010_A0312_CMP_V02.[0100-0146].exr

273  TOA_0101_S011_A0313_CMP_V03 V     C        00:00:04:04 00:00:07:17 01:09:21:21 01:09:25:10  
* FROM CLIP NAME: TOA_0101_s011_A0313_CMP_V03.[0100-0184].exr

274  TOA_0101_S011_A0314_CMP_V03 V     C        00:00:04:04 00:00:08:05 01:09:25:10 01:09:29:11  
* FROM CLIP NAME: TOA_0101_s011_A0314_CMP_V03.[0100-0196].exr

275  TOA_0101_S011_A0315_CMP_V03 V     C        00:00:04:04 00:00:11:07 01:09:29:11 01:09:36:14  
* FROM CLIP NAME: TOA_0101_s011_A0315_CMP_V03.[0100-0270].exr

276  TOA_0101_s011_A0316_CMP_V04 V     C        00:00:04:04 00:00:06:04 01:09:36:14 01:09:38:14  
* FROM CLIP NAME: TOA_0101_s011_A0316_CMP_V04.[0100-0147].exr

277  TOA_0101_S011_A0317_CMP_V09 V     C        00:00:04:04 00:00:09:21 01:09:38:14 01:09:44:07  
* FROM CLIP NAME: TOA_0101_s011_A0317_CMP_V09.[0100-0236].exr

278  TOA_0101_S011_A0318_CMP_V06 V     C        00:00:04:04 00:00:06:20 01:09:44:07 01:09:46:23  
* FROM CLIP NAME: TOA_0101_s011_A0318_CMP_V06.[0100-0163].exr

279  TOA_0101_S011_A0319_CMP_V04 V     C        00:00:04:04 00:00:07:12 01:09:46:23 01:09:50:07  
* FROM CLIP NAME: TOA_0101_s011_A0319_CMP_V04.[0100-0179].exr

280  TOA_0101_s011_A0321_CMP_V04 V     C        00:00:04:04 00:00:07:07 01:09:50:07 01:09:53:10  
* FROM CLIP NAME: TOA_0101_s011_A0321_CMP_V04.[0100-0174].exr

281  TOA_0101_s011_A0321A_CMP_V01 V     C        00:00:04:04 00:00:11:11 01:09:53:10 01:10:00:17  
* FROM CLIP NAME: TOA_0101_s011_A0321A_CMP_V01.[0100-0274].exr

282  TOA_0101_s011_A0323_CMP_V06 V     C        00:00:04:04 00:00:06:07 01:10:00:17 01:10:02:20  
* FROM CLIP NAME: TOA_0101_s011_A0323_CMP_V06.[0100-0150].exr

283  TOA_0101_s011_A0323A_CMP_V01 V     C        00:00:04:04 00:00:17:20 01:10:02:20 01:10:16:12  
* FROM CLIP NAME: TOA_0101_s011_A0323A_CMP_V01.[0100-0427].exr

284  TOA_0101_s011_A0323B_CMP_V01 V     C        00:00:04:04 00:00:11:10 01:10:16:12 01:10:23:18  
* FROM CLIP NAME: TOA_0101_s011_A0323B_CMP_V01.[0100-0273].exr

285  TOA_0101_S011_A0324_CMP_V03 V     C        00:00:04:04 00:00:10:05 01:10:23:18 01:10:29:19  
* FROM CLIP NAME: TOA_0101_s011_A0324_CMP_V03.[0100-0244].exr

286  TOA_0101_S011_A0325_CMP_V05 V     C        00:00:04:04 00:00:07:00 01:10:29:19 01:10:32:15  
* FROM CLIP NAME: TOA_0101_s011_A0325_CMP_V05.[0100-0167].exr

287  TOA_0101_S011_A0326_CMP_V04 V     C        00:00:04:04 00:00:25:12 01:10:32:15 01:10:53:23  
* FROM CLIP NAME: TOA_0101_s011_A0326_CMP_V04.[0100-0612].exr

288  TOA_0101_S011_A0327_CMP_V02 V     C        00:00:04:04 00:00:08:11 01:10:53:23 01:10:58:06  
* FROM CLIP NAME: TOA_0101_s011_A0327_CMP_V02.[0100-0202].exr

289  TOA_0101_S011_A0328_CMP_V01 V     C        00:00:04:04 00:00:06:19 01:10:58:06 01:11:00:21  
* FROM CLIP NAME: TOA_0101_s011_A0328_CMP_V01.[0100-0162].exr

290  TOA_0101_S011_A0329_CMP_V04 V     C        00:00:04:04 00:00:05:03 01:11:00:21 01:11:01:20  
* FROM CLIP NAME: TOA_0101_s011_A0329_CMP_V04.[0100-0122].exr

291  TOA_0101_S011_A0330_CMP_V02 V     C        00:00:04:04 00:00:07:10 01:11:01:20 01:11:05:02  
* FROM CLIP NAME: TOA_0101_s011_A0330_CMP_V02.[0100-0177].exr

292  TOA_0101_S011_A0331_CMP_V04 V     C        00:00:04:04 00:00:06:21 01:11:05:02 01:11:07:19  
* FROM CLIP NAME: TOA_0101_s011_A0331_CMP_V04.[0100-0164].exr

293  TOA_0101_S011_A0332_CMP_V02 V     C        00:00:04:04 00:00:06:15 01:11:07:19 01:11:10:06  
* FROM CLIP NAME: TOA_0101_s011_A0332_CMP_V02.[0100-0158].exr

294  TOA_0101_S011_A0333_CMP_V07 V     C        00:00:04:04 00:00:05:16 01:11:10:06 01:11:11:18  
* FROM CLIP NAME: TOA_0101_s011_A0333_CMP_V07.[0100-0135].exr

295  TOA_0101_S011_A0334_CMP_V02 V     C        00:00:04:04 00:00:04:22 01:11:11:18 01:11:12:12  
* FROM CLIP NAME: TOA_0101_s011_A0334_CMP_V02.[0100-0117].exr

296  TOA_0101_S011_A0335_CMP_V07 V     C        00:00:04:04 00:00:05:20 01:11:12:12 01:11:14:04  
* FROM CLIP NAME: TOA_0101_s011_A0335_CMP_V07.[0100-0139].exr

297  TOA_0101_S011_A0336_CMP_V03 V     C        00:00:04:04 00:00:05:12 01:11:14:04 01:11:15:12  
* FROM CLIP NAME: TOA_0101_s011_A0336_CMP_V03.[0100-0131].exr

298  TOA_0101_S011_A0337_CMP_V03 V     C        00:00:04:04 00:00:06:03 01:11:15:12 01:11:17:11  
* FROM CLIP NAME: TOA_0101_s011_A0337_CMP_V03.[0100-0146].exr

299  TOA_0101_S011_A0338_CMP_V04 V     C        00:00:04:04 00:00:07:13 01:11:17:11 01:11:20:20  
* FROM CLIP NAME: TOA_0101_s011_A0338_CMP_V04.[0100-0180].exr

300  TOA_0101_S012_A0340_CMP_V03 V     C        00:00:04:04 00:00:06:06 01:11:20:20 01:11:22:22  
* FROM CLIP NAME: TOA_0101_s012_A0340_CMP_V03.[0100-0149].exr

301  TOA_0101_S012_A0341_CMP_V06 V     C        00:00:04:04 00:00:05:09 01:11:22:22 01:11:24:03  
* FROM CLIP NAME: TOA_0101_s012_A0341_CMP_V06.[0100-0128].exr

302  TOA_0101_S012_A0342_CMP_V03 V     C        00:00:04:04 00:00:06:20 01:11:24:03 01:11:26:19  
* FROM CLIP NAME: TOA_0101_s012_A0342_CMP_V03.[0100-0163].exr

303  TOA_0101_S012_A0343_CMP_V04 V     C        00:00:04:04 00:00:10:07 01:11:26:19 01:11:32:22  
* FROM CLIP NAME: TOA_0101_s012_A0343_CMP_V04.[0100-0246].exr

304  TOA_0101_S012_A0344_CMP_V02 V     C        00:00:04:04 00:00:07:07 01:11:32:22 01:11:36:01  
* FROM CLIP NAME: TOA_0101_s012_A0344_CMP_V02.[0100-0174].exr

305  TOA_0101_S012_A0345_CMP_V03 V     C        00:00:04:04 00:00:05:10 01:11:36:01 01:11:37:07  
* FROM CLIP NAME: TOA_0101_s012_A0345_CMP_V03.[0100-0129].exr

306  TOA_0101_S012_A0346_CMP_V06 V     C        00:00:04:04 00:00:09:14 01:11:37:07 01:11:42:17  
* FROM CLIP NAME: TOA_0101_s012_A0346_CMP_V06.[0100-0229].exr

307  TOA_0101_S012_A0347_CMP_V05 V     C        00:00:04:04 00:00:07:01 01:11:42:17 01:11:45:14  
* FROM CLIP NAME: TOA_0101_s012_A0347_CMP_V05.[0100-0168].exr

308  TOA_0101_S012_A0349_CMP_V03 V     C        00:00:04:04 00:00:11:23 01:11:45:14 01:11:53:09  
* FROM CLIP NAME: TOA_0101_s012_A0349_CMP_V03.[0100-0286].exr

309  TOA_0101_s012_A0350_CMP_V04 V     C        00:00:04:04 00:00:06:07 01:11:53:09 01:11:55:12  
* FROM CLIP NAME: TOA_0101_s012_A0350_CMP_V04.[0100-0150].exr

310  TOA_0101_S012_A0350A_CMP_V04 V     C        00:00:04:04 00:00:05:05 01:11:55:12 01:11:56:13  
* FROM CLIP NAME: TOA_0101_s012_A0350A_CMP_V04.[0100-0124].exr

311  TOA_0101_S012_A0351_CMP_V03 V     C        00:00:04:04 00:00:05:21 01:11:56:13 01:11:58:06  
* FROM CLIP NAME: TOA_0101_s012_A0351_CMP_V03.[0100-0140].exr

312  TOA_0101_S012_A0352_CMP_V02 V     C        00:00:04:04 00:00:11:11 01:11:58:06 01:12:05:13  
* FROM CLIP NAME: TOA_0101_s012_A0352_CMP_V02.[0100-0274].exr

313  TOA_0101_S012_A0353_CMP_V03 V     C        00:00:04:04 00:00:06:15 01:12:05:13 01:12:08:00  
* FROM CLIP NAME: TOA_0101_s012_A0353_CMP_V03.[0100-0158].exr

314  TOA_0101_S012_A0354_CMP_V04 V     C        00:00:04:04 00:00:05:11 01:12:08:00 01:12:09:07  
* FROM CLIP NAME: TOA_0101_s012_A0354_CMP_V04.[0100-0130].exr

315  TOA_0101_S012_A0355_CMP_V06 V     C        00:00:04:04 00:00:07:20 01:12:09:07 01:12:12:23  
* FROM CLIP NAME: TOA_0101_s012_A0355_CMP_V06.[0100-0187].exr

316  TOA_0101_S012_A0356_CMP_V02 V     C        00:00:04:04 00:00:05:15 01:12:12:23 01:12:14:10  
* FROM CLIP NAME: TOA_0101_s012_A0356_CMP_V02.[0100-0134].exr

317  TOA_0101_S012_A0357_CMP_V03 V     C        00:00:04:04 00:00:06:10 01:12:14:10 01:12:16:16  
* FROM CLIP NAME: TOA_0101_s012_A0357_CMP_V03.[0100-0153].exr

318  TOA_0101_S012_A0358_CMP_V03 V     C        00:00:04:04 00:00:06:04 01:12:16:16 01:12:18:16  
* FROM CLIP NAME: TOA_0101_s012_A0358_CMP_V03.[0100-0147].exr

319  TOA_0101_S012_A0359_CMP_V11 V     C        00:00:04:04 00:00:06:03 01:12:18:16 01:12:20:15  
* FROM CLIP NAME: TOA_0101_s012_A0359_CMP_V11.[0100-0146].exr

320  TOA_0101_S012_A0360_CMP_V03 V     C        00:00:04:04 00:00:05:19 01:12:20:15 01:12:22:06  
* FROM CLIP NAME: TOA_0101_s012_A0360_CMP_V03.[0100-0138].exr

321  TOA_0101_S012_A0361_CMP_V09 V     C        00:00:04:04 00:00:06:14 01:12:22:06 01:12:24:16  
* FROM CLIP NAME: TOA_0101_s012_A0361_CMP_V09.[0100-0157].exr

322  TOA_0101_S012_A0362_CMP_V06 V     C        00:00:04:04 00:00:06:00 01:12:24:16 01:12:26:12  
* FROM CLIP NAME: TOA_0101_s012_A0362_CMP_V06.[0100-0147].exr

323  TOA_0101_S012_A0363_CMP_V02 V     C        00:00:04:04 00:00:06:18 01:12:26:12 01:12:29:02  
* FROM CLIP NAME: TOA_0101_s012_A0363_CMP_V02.[0100-0161].exr

324  TOA_0101_S013_A0364_CMP_V08 V     C        00:00:04:04 00:00:06:03 01:12:29:02 01:12:31:01  
* FROM CLIP NAME: TOA_0101_s013_A0364_CMP_V08.[0100-0146].exr

325  TOA_0101_S013_A0365_CMP_V03 V     C        00:00:04:04 00:00:13:01 01:12:31:01 01:12:39:22  
* FROM CLIP NAME: TOA_0101_s013_A0365_CMP_V03.[0100-0312].exr

326  TOA_0101_S013_A0368_CMP_V04 V     C        00:00:04:04 00:00:06:05 01:12:39:22 01:12:41:23  
* FROM CLIP NAME: TOA_0101_s013_A0368_CMP_V04.[0100-0148].exr

327  TOA_0101_S013_A0369_CMP_V02 V     C        00:00:04:04 00:00:08:23 01:12:41:23 01:12:46:18  
* FROM CLIP NAME: TOA_0101_s013_A0369_CMP_V02.[0100-0214].exr

328  TOA_0101_S013_A0370_CMP_V02 V     C        00:00:04:04 00:00:09:10 01:12:46:18 01:12:52:00  
* FROM CLIP NAME: TOA_0101_s013_A0370_CMP_V02.[0100-0225].exr

